# https://github.com/mikedh/trimesh
v 0.00086603 0.00048669 0.00975067
v 0.00050000 0.00085272 0.00975117
v 0.00000000 -0.00001331 0.00974999
v 0.00000000 0.00098669 0.00975136
v -0.00050000 0.00085272 0.00975117
v 0.00050000 -0.00087933 0.00974881
v 0.00086603 -0.00051331 0.00974931
v 0.00100000 -0.00001331 0.00974999
v -0.00086603 -0.00051331 0.00974931
v -0.00050000 -0.00087933 0.00974881
v 0.00000000 -0.00101331 0.00974863
v -0.00086603 0.00048669 0.00975067
v -0.00100000 -0.00001331 0.00974999
v 0.00000000 -0.00100648 0.00474863
v -0.00050000 -0.00087251 0.00474881
v -0.00086603 -0.00050648 0.00474931
v -0.00100000 -0.00000648 0.00475000
v -0.00086603 0.00049352 0.00475068
v -0.00050000 0.00085954 0.00475118
v 0.00000000 0.00099352 0.00475136
v 0.00050000 0.00085954 0.00475118
v 0.00086603 0.00049352 0.00475068
v 0.00100000 -0.00000648 0.00475000
v 0.00086603 -0.00050648 0.00474931
v 0.00050000 -0.00087251 0.00474881
v 0.00758116 -0.00573151 0.00474218
v 0.00822724 -0.00475648 0.00474351
v -0.00058483 -0.00948846 0.00473705
v 0.00058483 -0.00948846 0.00473705
v 0.00116744 0.00942150 0.00476286
v 0.00000000 0.00949351 0.00476296
v -0.00116744 0.00942150 0.00476286
v 0.00548885 0.00774738 0.00476058
v 0.00449439 0.00836312 0.00476142
v 0.00343180 0.00885199 0.00476209
v 0.00231718 0.00920658 0.00476257
v 0.00397062 -0.00863690 0.00473822
v 0.00287995 -0.00905942 0.00473764
v 0.00174562 -0.00934472 0.00473725
v -0.00874860 -0.00370945 0.00474494
v -0.00822724 -0.00475648 0.00474351
v -0.00758116 -0.00573151 0.00474218
v -0.00500111 -0.00808354 0.00473897
v -0.00595578 -0.00740774 0.00473989
v -0.00682016 -0.00661975 0.00474097
v -0.00938757 -0.00146370 0.00474801
v -0.00913734 -0.00260628 0.00474645
v -0.00928006 0.00202588 0.00475277
v -0.00945948 0.00087006 0.00475119
v -0.00949549 -0.00029904 0.00474960
v 0.00850405 0.00422803 0.00475578
v 0.00791922 0.00524098 0.00475716
v 0.00721435 0.00617438 0.00475843
v 0.00640011 0.00701409 0.00475958
v 0.00949549 -0.00029904 0.00474960
v 0.00945948 0.00087006 0.00475119
v 0.00928006 0.00202588 0.00475277
v 0.00895997 0.00315088 0.00475431
v 0.00500111 -0.00808354 0.00473897
v 0.00595578 -0.00740774 0.00473989
v 0.00682016 -0.00661975 0.00474097
v -0.00397062 -0.00863690 0.00473822
v -0.00287995 -0.00905942 0.00473764
v -0.00174562 -0.00934472 0.00473725
v -0.00895997 0.00315088 0.00475431
v -0.00850405 0.00422803 0.00475578
v -0.00231718 0.00920658 0.00476257
v -0.00343180 0.00885199 0.00476209
v -0.00449439 0.00836312 0.00476142
v -0.00548885 0.00774738 0.00476058
v -0.00640011 0.00701409 0.00475958
v -0.00721435 0.00617438 0.00475843
v -0.00791922 0.00524098 0.00475716
v 0.00874860 -0.00370945 0.00474494
v 0.00913734 -0.00260628 0.00474645
v 0.00938757 -0.00146370 0.00474801
v -0.00027931 0.00111690 -0.00467921
v -0.00014072 0.00114281 -0.00467918
v 0.00000000 0.00000648 -0.00475000
v -0.00041366 0.00107416 -0.00467927
v -0.00054174 0.00101523 -0.00467935
v -0.00066161 0.00094101 -0.00467945
v -0.00077145 0.00085263 -0.00467958
v -0.00086959 0.00075141 -0.00467971
v -0.00095456 0.00063890 -0.00467987
v -0.00102505 0.00051680 -0.00468003
v -0.00108000 0.00038697 -0.00468021
v -0.00111859 0.00025136 -0.00468040
v -0.00114021 0.00011205 -0.00468059
v -0.00114456 -0.00002887 -0.00468078
v -0.00113155 -0.00016926 -0.00468097
v -0.00110139 -0.00030698 -0.00468116
v -0.00105453 -0.00043995 -0.00468134
v -0.00099168 -0.00056616 -0.00468151
v -0.00091381 -0.00068369 -0.00468167
v -0.00082208 -0.00079075 -0.00468182
v -0.00071789 -0.00088573 -0.00468195
v -0.00060282 -0.00096719 -0.00468206
v -0.00047861 -0.00103389 -0.00468215
v -0.00034714 -0.00108482 -0.00468222
v -0.00021041 -0.00111921 -0.00468227
v -0.00007049 -0.00113654 -0.00468229
v 0.00007049 -0.00113654 -0.00468229
v 0.00021041 -0.00111921 -0.00468227
v 0.00034714 -0.00108482 -0.00468222
v 0.00047861 -0.00103389 -0.00468215
v 0.00060282 -0.00096719 -0.00468206
v 0.00071789 -0.00088573 -0.00468195
v 0.00082208 -0.00079075 -0.00468182
v 0.00091381 -0.00068369 -0.00468167
v 0.00099168 -0.00056616 -0.00468151
v 0.00105453 -0.00043995 -0.00468134
v 0.00110139 -0.00030698 -0.00468116
v 0.00113155 -0.00016926 -0.00468097
v 0.00114456 -0.00002887 -0.00468078
v 0.00114021 0.00011205 -0.00468059
v 0.00111859 0.00025136 -0.00468040
v 0.00108000 0.00038697 -0.00468021
v 0.00102505 0.00051680 -0.00468003
v 0.00095456 0.00063890 -0.00467987
v 0.00086959 0.00075141 -0.00467971
v 0.00077145 0.00085263 -0.00467958
v 0.00066161 0.00094101 -0.00467945
v 0.00054174 0.00101523 -0.00467935
v 0.00041366 0.00107416 -0.00467927
v 0.00027931 0.00111690 -0.00467921
v 0.00014072 0.00114281 -0.00467918
v 0.00000000 0.00115149 -0.00467917
v -0.00115893 0.00935433 0.00361767
v -0.00230029 0.00914097 0.00361738
v -0.00340677 0.00878897 0.00361690
v -0.00446162 0.00830366 0.00361624
v -0.00544883 0.00769241 0.00361540
v -0.00635344 0.00696447 0.00361441
v -0.00716175 0.00613088 0.00361327
v -0.00786148 0.00520428 0.00361201
v -0.00844205 0.00419872 0.00361064
v -0.00889464 0.00312943 0.00360918
v -0.00921240 0.00201262 0.00360765
v -0.00939050 0.00086524 0.00360609
v -0.00942626 -0.00029534 0.00360450
v -0.00931913 -0.00145152 0.00360292
v -0.00907072 -0.00258576 0.00360138
v -0.00868481 -0.00368088 0.00359988
v -0.00816726 -0.00472028 0.00359846
v -0.00752589 -0.00568820 0.00359714
v -0.00677044 -0.00656997 0.00359594
v -0.00591235 -0.00735222 0.00359487
v -0.00496464 -0.00802309 0.00359395
v -0.00394167 -0.00857241 0.00359320
v -0.00285895 -0.00899185 0.00359263
v -0.00173289 -0.00927507 0.00359224
v -0.00058056 -0.00941776 0.00359205
v 0.00058056 -0.00941776 0.00359205
v 0.00173289 -0.00927507 0.00359224
v 0.00285895 -0.00899185 0.00359263
v 0.00394167 -0.00857241 0.00359320
v 0.00496464 -0.00802309 0.00359395
v 0.00591235 -0.00735222 0.00359487
v 0.00677044 -0.00656997 0.00359594
v 0.00752589 -0.00568820 0.00359714
v 0.00816726 -0.00472028 0.00359846
v 0.00868481 -0.00368088 0.00359988
v 0.00907072 -0.00258576 0.00360138
v 0.00931913 -0.00145152 0.00360292
v 0.00942626 -0.00029534 0.00360450
v 0.00939050 0.00086524 0.00360609
v 0.00921240 0.00201262 0.00360765
v 0.00889464 0.00312943 0.00360918
v 0.00844205 0.00419872 0.00361064
v 0.00786148 0.00520428 0.00361201
v 0.00716175 0.00613088 0.00361327
v 0.00635344 0.00696447 0.00361441
v 0.00544883 0.00769241 0.00361540
v 0.00446162 0.00830366 0.00361624
v 0.00340677 0.00878897 0.00361690
v 0.00230029 0.00914097 0.00361738
v 0.00115893 0.00935433 0.00361767
v 0.00000000 0.00942580 0.00361777
v -0.00113352 0.00915065 0.00248899
v -0.00224985 0.00894197 0.00248871
v -0.00333207 0.00859769 0.00248824
v -0.00436379 0.00812302 0.00248759
v -0.00532936 0.00752517 0.00248678
v -0.00621413 0.00681319 0.00248580
v -0.00700471 0.00599788 0.00248469
v -0.00768910 0.00509160 0.00248345
v -0.00825694 0.00410808 0.00248211
v -0.00869961 0.00306224 0.00248068
v -0.00901040 0.00196993 0.00247919
v -0.00918460 0.00084770 0.00247766
v -0.00921957 -0.00028743 0.00247611
v -0.00911479 -0.00141826 0.00247457
v -0.00887183 -0.00252763 0.00247305
v -0.00849438 -0.00359874 0.00247159
v -0.00798817 -0.00461535 0.00247020
v -0.00736087 -0.00556205 0.00246891
v -0.00662198 -0.00642448 0.00246773
v -0.00578271 -0.00718957 0.00246669
v -0.00485578 -0.00784573 0.00246579
v -0.00385524 -0.00838301 0.00246506
v -0.00279626 -0.00879326 0.00246450
v -0.00169490 -0.00907026 0.00246412
v -0.00056783 -0.00920982 0.00246393
v 0.00056783 -0.00920982 0.00246393
v 0.00169490 -0.00907026 0.00246412
v 0.00279626 -0.00879326 0.00246450
v 0.00385524 -0.00838301 0.00246506
v 0.00485578 -0.00784573 0.00246579
v 0.00578271 -0.00718957 0.00246669
v 0.00662198 -0.00642448 0.00246773
v 0.00736087 -0.00556205 0.00246891
v 0.00798817 -0.00461535 0.00247020
v 0.00849438 -0.00359874 0.00247159
v 0.00887183 -0.00252763 0.00247305
v 0.00911479 -0.00141826 0.00247457
v 0.00921957 -0.00028743 0.00247611
v 0.00918460 0.00084770 0.00247766
v 0.00901040 0.00196993 0.00247919
v 0.00869961 0.00306224 0.00248068
v 0.00825694 0.00410808 0.00248211
v 0.00768910 0.00509160 0.00248345
v 0.00700471 0.00599788 0.00248469
v 0.00621413 0.00681319 0.00248580
v 0.00532936 0.00752517 0.00248678
v 0.00436379 0.00812302 0.00248759
v 0.00333207 0.00859769 0.00248824
v 0.00224985 0.00894197 0.00248871
v 0.00113352 0.00915065 0.00248899
v 0.00000000 0.00922056 0.00248909
v -0.00109157 0.00881344 0.00139328
v -0.00216660 0.00861248 0.00139301
v -0.00320878 0.00828093 0.00139256
v -0.00420233 0.00782383 0.00139193
v -0.00513217 0.00724810 0.00139115
v -0.00598421 0.00656247 0.00139021
v -0.00674553 0.00577733 0.00138914
v -0.00740460 0.00490458 0.00138795
v -0.00795143 0.00395745 0.00138666
v -0.00837772 0.00295030 0.00138528
v -0.00867701 0.00189841 0.00138385
v -0.00884476 0.00081770 0.00138237
v -0.00887844 -0.00027543 0.00138088
v -0.00877753 -0.00136441 0.00137939
v -0.00854356 -0.00243274 0.00137793
v -0.00818009 -0.00346422 0.00137653
v -0.00769260 -0.00444321 0.00137519
v -0.00708851 -0.00535488 0.00137395
v -0.00637696 -0.00618540 0.00137281
v -0.00556875 -0.00692218 0.00137181
v -0.00467611 -0.00755406 0.00137094
v -0.00371260 -0.00807146 0.00137024
v -0.00269280 -0.00846653 0.00136970
v -0.00163218 -0.00873329 0.00136933
v -0.00054682 -0.00886768 0.00136915
v 0.00054682 -0.00886768 0.00136915
v 0.00163218 -0.00873329 0.00136933
v 0.00269280 -0.00846653 0.00136970
v 0.00371260 -0.00807146 0.00137024
v 0.00467611 -0.00755406 0.00137094
v 0.00556875 -0.00692218 0.00137181
v 0.00637696 -0.00618540 0.00137281
v 0.00708851 -0.00535488 0.00137395
v 0.00769260 -0.00444321 0.00137519
v 0.00818009 -0.00346422 0.00137653
v 0.00854356 -0.00243274 0.00137793
v 0.00877753 -0.00136441 0.00137939
v 0.00887844 -0.00027543 0.00138088
v 0.00884476 0.00081770 0.00138237
v 0.00867701 0.00189841 0.00138385
v 0.00837772 0.00295030 0.00138528
v 0.00795143 0.00395745 0.00138666
v 0.00740460 0.00490458 0.00138795
v 0.00674553 0.00577733 0.00138914
v 0.00598421 0.00656247 0.00139021
v 0.00513217 0.00724810 0.00139115
v 0.00420233 0.00782383 0.00139193
v 0.00320878 0.00828093 0.00139256
v 0.00216660 0.00861248 0.00139301
v 0.00109157 0.00881344 0.00139328
v 0.00000000 0.00888076 0.00139338
v -0.00103372 0.00834761 0.00034652
v -0.00205176 0.00815730 0.00034626
v -0.00303870 0.00784334 0.00034584
v -0.00397958 0.00741046 0.00034525
v -0.00486014 0.00686525 0.00034450
v -0.00566701 0.00621596 0.00034362
v -0.00638799 0.00547243 0.00034260
v -0.00701212 0.00464594 0.00034147
v -0.00752996 0.00374902 0.00034025
v -0.00793366 0.00279525 0.00033895
v -0.00821708 0.00179911 0.00033759
v -0.00837595 0.00077569 0.00033619
v -0.00840784 -0.00025950 0.00033478
v -0.00831228 -0.00129076 0.00033337
v -0.00809072 -0.00230246 0.00033199
v -0.00774650 -0.00327927 0.00033065
v -0.00728486 -0.00420637 0.00032939
v -0.00671279 -0.00506971 0.00032821
v -0.00603895 -0.00585621 0.00032714
v -0.00527358 -0.00655395 0.00032618
v -0.00442826 -0.00715233 0.00032537
v -0.00351581 -0.00764231 0.00032470
v -0.00255007 -0.00801644 0.00032419
v -0.00154567 -0.00826905 0.00032384
v -0.00051784 -0.00839633 0.00032367
v 0.00051784 -0.00839633 0.00032367
v 0.00154567 -0.00826905 0.00032384
v 0.00255007 -0.00801644 0.00032419
v 0.00351581 -0.00764231 0.00032470
v 0.00442826 -0.00715233 0.00032537
v 0.00527358 -0.00655395 0.00032618
v 0.00603895 -0.00585621 0.00032714
v 0.00671279 -0.00506971 0.00032821
v 0.00728486 -0.00420637 0.00032939
v 0.00774650 -0.00327927 0.00033065
v 0.00809072 -0.00230246 0.00033199
v 0.00831228 -0.00129076 0.00033337
v 0.00840784 -0.00025950 0.00033478
v 0.00837595 0.00077569 0.00033619
v 0.00821708 0.00179911 0.00033759
v 0.00793366 0.00279525 0.00033895
v 0.00752996 0.00374902 0.00034025
v 0.00701212 0.00464594 0.00034147
v 0.00638799 0.00547243 0.00034260
v 0.00566701 0.00621596 0.00034362
v 0.00486014 0.00686525 0.00034450
v 0.00397958 0.00741046 0.00034525
v 0.00303870 0.00784334 0.00034584
v 0.00205176 0.00815730 0.00034626
v 0.00103372 0.00834761 0.00034652
v 0.00000000 0.00841137 0.00034661
v -0.00096078 0.00775996 -0.00063602
v -0.00190700 0.00758308 -0.00063627
v -0.00282431 0.00729127 -0.00063666
v -0.00369881 0.00688894 -0.00063721
v -0.00451724 0.00638219 -0.00063790
v -0.00526719 0.00577871 -0.00063873
v -0.00593729 0.00508764 -0.00063967
v -0.00651739 0.00431946 -0.00064072
v -0.00699870 0.00348582 -0.00064186
v -0.00737391 0.00259935 -0.00064307
v -0.00763734 0.00167348 -0.00064433
v -0.00778500 0.00072227 -0.00064563
v -0.00781464 -0.00023988 -0.00064694
v -0.00772582 -0.00119839 -0.00064825
v -0.00751989 -0.00213871 -0.00064954
v -0.00719996 -0.00304660 -0.00065077
v -0.00677089 -0.00390829 -0.00065195
v -0.00623918 -0.00471072 -0.00065305
v -0.00561288 -0.00544173 -0.00065404
v -0.00490151 -0.00609023 -0.00065493
v -0.00411583 -0.00664640 -0.00065569
v -0.00326776 -0.00710181 -0.00065631
v -0.00237015 -0.00744954 -0.00065678
v -0.00143662 -0.00768433 -0.00065710
v -0.00048130 -0.00780263 -0.00065727
v 0.00048130 -0.00780263 -0.00065727
v 0.00143662 -0.00768433 -0.00065710
v 0.00237015 -0.00744954 -0.00065678
v 0.00326776 -0.00710181 -0.00065631
v 0.00411583 -0.00664640 -0.00065569
v 0.00490151 -0.00609023 -0.00065493
v 0.00561288 -0.00544173 -0.00065404
v 0.00623918 -0.00471072 -0.00065305
v 0.00677089 -0.00390829 -0.00065195
v 0.00719996 -0.00304660 -0.00065077
v 0.00751989 -0.00213871 -0.00064954
v 0.00772582 -0.00119839 -0.00064825
v 0.00781464 -0.00023988 -0.00064694
v 0.00778500 0.00072227 -0.00064563
v 0.00763734 0.00167348 -0.00064433
v 0.00737391 0.00259935 -0.00064307
v 0.00699870 0.00348582 -0.00064186
v 0.00651739 0.00431946 -0.00064072
v 0.00593729 0.00508764 -0.00063967
v 0.00526719 0.00577871 -0.00063873
v 0.00451724 0.00638219 -0.00063790
v 0.00369881 0.00688894 -0.00063721
v 0.00282431 0.00729127 -0.00063666
v 0.00190700 0.00758308 -0.00063627
v 0.00096078 0.00775996 -0.00063602
v 0.00000000 0.00781922 -0.00063594
v -0.00087384 0.00705906 -0.00154003
v -0.00173443 0.00689819 -0.00154025
v -0.00256874 0.00663278 -0.00154061
v -0.00336410 0.00626686 -0.00154111
v -0.00410846 0.00580597 -0.00154174
v -0.00479055 0.00525709 -0.00154249
v -0.00540002 0.00462856 -0.00154335
v -0.00592762 0.00392990 -0.00154430
v -0.00636537 0.00317169 -0.00154534
v -0.00670663 0.00236544 -0.00154644
v -0.00694622 0.00152336 -0.00154759
v -0.00708052 0.00065822 -0.00154877
v -0.00710748 -0.00021686 -0.00154996
v -0.00702670 -0.00108863 -0.00155115
v -0.00683940 -0.00194386 -0.00155232
v -0.00654842 -0.00276959 -0.00155345
v -0.00615818 -0.00355331 -0.00155452
v -0.00567458 -0.00428313 -0.00155551
v -0.00510497 -0.00494799 -0.00155642
v -0.00445796 -0.00553781 -0.00155723
v -0.00374338 -0.00604365 -0.00155792
v -0.00297205 -0.00645784 -0.00155848
v -0.00215567 -0.00677411 -0.00155891
v -0.00130662 -0.00698765 -0.00155920
v -0.00043775 -0.00709524 -0.00155935
v 0.00043775 -0.00709524 -0.00155935
v 0.00130662 -0.00698765 -0.00155920
v 0.00215567 -0.00677411 -0.00155891
v 0.00297205 -0.00645784 -0.00155848
v 0.00374338 -0.00604365 -0.00155792
v 0.00445796 -0.00553781 -0.00155723
v 0.00510497 -0.00494799 -0.00155642
v 0.00567458 -0.00428313 -0.00155551
v 0.00615818 -0.00355331 -0.00155452
v 0.00654842 -0.00276959 -0.00155345
v 0.00683940 -0.00194386 -0.00155232
v 0.00702670 -0.00108863 -0.00155115
v 0.00710748 -0.00021686 -0.00154996
v 0.00708052 0.00065822 -0.00154877
v 0.00694622 0.00152336 -0.00154759
v 0.00670663 0.00236544 -0.00154644
v 0.00636537 0.00317169 -0.00154534
v 0.00592762 0.00392990 -0.00154430
v 0.00540002 0.00462856 -0.00154335
v 0.00479055 0.00525709 -0.00154249
v 0.00410846 0.00580597 -0.00154174
v 0.00336410 0.00626686 -0.00154111
v 0.00256874 0.00663278 -0.00154061
v 0.00173443 0.00689819 -0.00154025
v 0.00087384 0.00705906 -0.00154003
v 0.00000000 0.00711296 -0.00153996
v -0.00077416 0.00625513 -0.00235232
v -0.00153657 0.00611261 -0.00235251
v -0.00227570 0.00587748 -0.00235283
v -0.00298033 0.00555330 -0.00235327
v -0.00363978 0.00514498 -0.00235383
v -0.00424406 0.00465873 -0.00235450
v -0.00478400 0.00410190 -0.00235526
v -0.00525142 0.00348293 -0.00235610
v -0.00563923 0.00281122 -0.00235702
v -0.00594156 0.00209694 -0.00235799
v -0.00615382 0.00135093 -0.00235901
v -0.00627279 0.00058448 -0.00236006
v -0.00629668 -0.00019078 -0.00236111
v -0.00622511 -0.00096309 -0.00236217
v -0.00605918 -0.00172076 -0.00236320
v -0.00580140 -0.00245230 -0.00236420
v -0.00545567 -0.00314661 -0.00236515
v -0.00502724 -0.00379317 -0.00236603
v -0.00452260 -0.00438218 -0.00236684
v -0.00394941 -0.00490472 -0.00236755
v -0.00331635 -0.00535286 -0.00236816
v -0.00263301 -0.00571980 -0.00236866
v -0.00190976 -0.00599999 -0.00236904
v -0.00115756 -0.00618917 -0.00236930
v -0.00038781 -0.00628449 -0.00236943
v 0.00038781 -0.00628449 -0.00236943
v 0.00115756 -0.00618917 -0.00236930
v 0.00190976 -0.00599999 -0.00236904
v 0.00263301 -0.00571980 -0.00236866
v 0.00331635 -0.00535286 -0.00236816
v 0.00394941 -0.00490472 -0.00236755
v 0.00452260 -0.00438218 -0.00236684
v 0.00502724 -0.00379317 -0.00236603
v 0.00545567 -0.00314661 -0.00236515
v 0.00580140 -0.00245230 -0.00236420
v 0.00605918 -0.00172076 -0.00236320
v 0.00622511 -0.00096309 -0.00236217
v 0.00629668 -0.00019078 -0.00236111
v 0.00627279 0.00058448 -0.00236006
v 0.00615382 0.00135093 -0.00235901
v 0.00594156 0.00209694 -0.00235799
v 0.00563923 0.00281122 -0.00235702
v 0.00525142 0.00348293 -0.00235610
v 0.00478400 0.00410190 -0.00235526
v 0.00424406 0.00465873 -0.00235450
v 0.00363978 0.00514498 -0.00235383
v 0.00298033 0.00555330 -0.00235327
v 0.00227570 0.00587748 -0.00235283
v 0.00153657 0.00611261 -0.00235251
v 0.00077416 0.00625513 -0.00235232
v 0.00000000 0.00630288 -0.00235225
v -0.00066318 0.00535989 -0.00306103
v -0.00131631 0.00523780 -0.00306120
v -0.00194948 0.00503638 -0.00306148
v -0.00255310 0.00475867 -0.00306185
v -0.00311802 0.00440888 -0.00306233
v -0.00363568 0.00399233 -0.00306290
v -0.00409822 0.00351532 -0.00306355
v -0.00449863 0.00298509 -0.00306428
v -0.00483085 0.00240966 -0.00306506
v -0.00508984 0.00179778 -0.00306590
v -0.00527167 0.00115870 -0.00306677
v -0.00537359 0.00050212 -0.00306766
v -0.00539406 -0.00016200 -0.00306857
v -0.00533275 -0.00082361 -0.00306947
v -0.00519060 -0.00147266 -0.00307036
v -0.00496977 -0.00209933 -0.00307122
v -0.00467361 -0.00269412 -0.00307203
v -0.00430659 -0.00324800 -0.00307278
v -0.00387429 -0.00375258 -0.00307347
v -0.00338327 -0.00420021 -0.00307408
v -0.00284095 -0.00458410 -0.00307461
v -0.00225557 -0.00489844 -0.00307504
v -0.00163600 -0.00513847 -0.00307536
v -0.00099163 -0.00530053 -0.00307558
v -0.00033222 -0.00538219 -0.00307570
v 0.00033222 -0.00538219 -0.00307570
v 0.00099163 -0.00530053 -0.00307558
v 0.00163600 -0.00513847 -0.00307536
v 0.00225557 -0.00489844 -0.00307504
v 0.00284095 -0.00458410 -0.00307461
v 0.00338327 -0.00420021 -0.00307408
v 0.00387429 -0.00375258 -0.00307347
v 0.00430659 -0.00324800 -0.00307278
v 0.00467361 -0.00269412 -0.00307203
v 0.00496977 -0.00209933 -0.00307122
v 0.00519060 -0.00147266 -0.00307036
v 0.00533275 -0.00082361 -0.00306947
v 0.00539406 -0.00016200 -0.00306857
v 0.00537359 0.00050212 -0.00306766
v 0.00527167 0.00115870 -0.00306677
v 0.00508984 0.00179778 -0.00306590
v 0.00483085 0.00240966 -0.00306506
v 0.00449863 0.00298509 -0.00306428
v 0.00409822 0.00351532 -0.00306355
v 0.00363568 0.00399233 -0.00306290
v 0.00311802 0.00440888 -0.00306233
v 0.00255310 0.00475867 -0.00306185
v 0.00194948 0.00503638 -0.00306148
v 0.00131631 0.00523780 -0.00306120
v 0.00066318 0.00535989 -0.00306103
v 0.00000000 0.00540080 -0.00306098
v -0.00054254 0.00438640 -0.00365585
v -0.00107685 0.00428652 -0.00365598
v -0.00159484 0.00412174 -0.00365621
v -0.00208865 0.00389455 -0.00365652
v -0.00255080 0.00360840 -0.00365691
v -0.00297428 0.00326762 -0.00365738
v -0.00335267 0.00287739 -0.00365791
v -0.00368025 0.00244362 -0.00365850
v -0.00395203 0.00197287 -0.00365914
v -0.00416390 0.00147230 -0.00365983
v -0.00431266 0.00094948 -0.00366054
v -0.00439604 0.00041235 -0.00366127
v -0.00441278 -0.00013096 -0.00366201
v -0.00436262 -0.00067221 -0.00366275
v -0.00424634 -0.00120319 -0.00366348
v -0.00406568 -0.00171585 -0.00366418
v -0.00382339 -0.00220243 -0.00366484
v -0.00352314 -0.00265555 -0.00366546
v -0.00316949 -0.00306834 -0.00366602
v -0.00276779 -0.00343454 -0.00366652
v -0.00232413 -0.00374860 -0.00366695
v -0.00184524 -0.00400575 -0.00366730
v -0.00133838 -0.00420211 -0.00366757
v -0.00081123 -0.00433470 -0.00366775
v -0.00027178 -0.00440149 -0.00366784
v 0.00027178 -0.00440149 -0.00366784
v 0.00081123 -0.00433470 -0.00366775
v 0.00133838 -0.00420211 -0.00366757
v 0.00184524 -0.00400575 -0.00366730
v 0.00232413 -0.00374860 -0.00366695
v 0.00276779 -0.00343454 -0.00366652
v 0.00316949 -0.00306834 -0.00366602
v 0.00352314 -0.00265555 -0.00366546
v 0.00382339 -0.00220243 -0.00366484
v 0.00406568 -0.00171585 -0.00366418
v 0.00424634 -0.00120319 -0.00366348
v 0.00436262 -0.00067221 -0.00366275
v 0.00441278 -0.00013096 -0.00366201
v 0.00439604 0.00041235 -0.00366127
v 0.00431266 0.00094948 -0.00366054
v 0.00416390 0.00147230 -0.00365983
v 0.00395203 0.00197287 -0.00365914
v 0.00368025 0.00244362 -0.00365850
v 0.00335267 0.00287739 -0.00365791
v 0.00297428 0.00326762 -0.00365738
v 0.00255080 0.00360840 -0.00365691
v 0.00208865 0.00389455 -0.00365652
v 0.00159484 0.00412174 -0.00365621
v 0.00107685 0.00428652 -0.00365598
v 0.00054254 0.00438640 -0.00365585
v 0.00000000 0.00441986 -0.00365580
v -0.00041398 0.00334885 -0.00412809
v -0.00082168 0.00327264 -0.00412819
v -0.00121693 0.00314690 -0.00412836
v -0.00159373 0.00297354 -0.00412860
v -0.00194637 0.00275520 -0.00412890
v -0.00226951 0.00249517 -0.00412925
v -0.00255824 0.00219741 -0.00412966
v -0.00280820 0.00186642 -0.00413011
v -0.00301558 0.00150722 -0.00413060
v -0.00317725 0.00112526 -0.00413112
v -0.00329075 0.00072633 -0.00413167
v -0.00335438 0.00031647 -0.00413223
v -0.00336715 -0.00009810 -0.00413279
v -0.00332888 -0.00051110 -0.00413336
v -0.00324015 -0.00091626 -0.00413391
v -0.00310230 -0.00130745 -0.00413444
v -0.00291742 -0.00167873 -0.00413495
v -0.00268832 -0.00202448 -0.00413542
v -0.00241846 -0.00233946 -0.00413585
v -0.00211195 -0.00261888 -0.00413623
v -0.00177342 -0.00285852 -0.00413656
v -0.00140800 -0.00305475 -0.00413683
v -0.00102124 -0.00320458 -0.00413703
v -0.00061901 -0.00330574 -0.00413717
v -0.00020738 -0.00335671 -0.00413724
v 0.00020738 -0.00335671 -0.00413724
v 0.00061901 -0.00330574 -0.00413717
v 0.00102124 -0.00320458 -0.00413703
v 0.00140800 -0.00305475 -0.00413683
v 0.00177342 -0.00285852 -0.00413656
v 0.00211195 -0.00261888 -0.00413623
v 0.00241846 -0.00233946 -0.00413585
v 0.00268832 -0.00202448 -0.00413542
v 0.00291742 -0.00167873 -0.00413495
v 0.00310230 -0.00130745 -0.00413444
v 0.00324015 -0.00091626 -0.00413391
v 0.00332888 -0.00051110 -0.00413336
v 0.00336715 -0.00009810 -0.00413279
v 0.00335438 0.00031647 -0.00413223
v 0.00329075 0.00072633 -0.00413167
v 0.00317725 0.00112526 -0.00413112
v 0.00301558 0.00150722 -0.00413060
v 0.00280820 0.00186642 -0.00413011
v 0.00255824 0.00219741 -0.00412966
v 0.00226951 0.00249517 -0.00412925
v 0.00194637 0.00275520 -0.00412890
v 0.00159373 0.00297354 -0.00412860
v 0.00121693 0.00314690 -0.00412836
v 0.00082168 0.00327264 -0.00412819
v 0.00041398 0.00334885 -0.00412809
v 0.00000000 0.00337438 -0.00412805
v -0.00027939 0.00226237 -0.00447086
v -0.00055454 0.00221094 -0.00447093
v -0.00082128 0.00212608 -0.00447105
v -0.00107558 0.00200909 -0.00447121
v -0.00131357 0.00186173 -0.00447141
v -0.00153165 0.00168624 -0.00447165
v -0.00172651 0.00148529 -0.00447192
v -0.00189519 0.00126191 -0.00447223
v -0.00203515 0.00101949 -0.00447256
v -0.00214426 0.00076171 -0.00447291
v -0.00222086 0.00049248 -0.00447328
v -0.00226380 0.00021588 -0.00447366
v -0.00227242 -0.00006391 -0.00447404
v -0.00224659 -0.00034263 -0.00447442
v -0.00218671 -0.00061607 -0.00447479
v -0.00209368 -0.00088007 -0.00447515
v -0.00196891 -0.00113064 -0.00447549
v -0.00181429 -0.00136398 -0.00447581
v -0.00163217 -0.00157655 -0.00447610
v -0.00142531 -0.00176513 -0.00447636
v -0.00119684 -0.00192686 -0.00447658
v -0.00095023 -0.00205929 -0.00447676
v -0.00068922 -0.00216040 -0.00447690
v -0.00041775 -0.00222868 -0.00447699
v -0.00013996 -0.00226308 -0.00447704
v 0.00013996 -0.00226308 -0.00447704
v 0.00041775 -0.00222868 -0.00447699
v 0.00068922 -0.00216040 -0.00447690
v 0.00095023 -0.00205929 -0.00447676
v 0.00119684 -0.00192686 -0.00447658
v 0.00142531 -0.00176513 -0.00447636
v 0.00163217 -0.00157655 -0.00447610
v 0.00181429 -0.00136398 -0.00447581
v 0.00196891 -0.00113064 -0.00447549
v 0.00209368 -0.00088007 -0.00447515
v 0.00218671 -0.00061607 -0.00447479
v 0.00224659 -0.00034263 -0.00447442
v 0.00227242 -0.00006391 -0.00447404
v 0.00226380 0.00021588 -0.00447366
v 0.00222086 0.00049248 -0.00447328
v 0.00214426 0.00076171 -0.00447291
v 0.00203515 0.00101949 -0.00447256
v 0.00189519 0.00126191 -0.00447223
v 0.00172651 0.00148529 -0.00447192
v 0.00153165 0.00168624 -0.00447165
v 0.00131357 0.00186173 -0.00447141
v 0.00107558 0.00200909 -0.00447121
v 0.00082128 0.00212608 -0.00447105
v 0.00055454 0.00221094 -0.00447093
v 0.00027939 0.00226237 -0.00447086
v 0.00000000 0.00227960 -0.00447084
f 1 2 3
f 3 2 4
f 3 4 5
f 6 7 3
f 3 7 8
f 3 8 1
f 9 10 3
f 3 10 11
f 3 11 6
f 5 12 3
f 3 12 13
f 3 13 9
f 14 10 15
f 15 10 9
f 15 9 16
f 16 9 13
f 16 13 17
f 17 13 12
f 17 12 18
f 18 12 5
f 18 5 19
f 19 5 4
f 19 4 20
f 20 4 2
f 20 2 21
f 21 2 1
f 21 1 22
f 22 1 8
f 22 8 23
f 23 8 7
f 23 7 24
f 24 7 6
f 24 6 25
f 25 6 11
f 25 11 14
f 14 11 10
f 26 27 24
f 14 28 29
f 30 31 20
f 20 31 32
f 33 34 21
f 21 34 35
f 21 35 20
f 20 35 36
f 20 36 30
f 37 25 38
f 38 25 14
f 38 14 39
f 39 14 29
f 40 41 16
f 16 41 42
f 43 15 44
f 44 15 16
f 44 16 45
f 45 16 42
f 17 46 16
f 16 46 47
f 16 47 40
f 48 49 17
f 17 49 50
f 17 50 46
f 51 52 22
f 22 52 53
f 22 53 21
f 21 53 54
f 21 54 33
f 55 56 23
f 23 56 57
f 23 57 22
f 22 57 58
f 22 58 51
f 37 59 25
f 25 59 60
f 25 60 24
f 24 60 61
f 24 61 26
f 43 62 15
f 15 62 63
f 15 63 14
f 14 63 64
f 14 64 28
f 48 17 65
f 65 17 18
f 65 18 66
f 32 67 20
f 20 67 68
f 20 68 19
f 19 68 69
f 19 69 70
f 70 71 19
f 19 71 72
f 19 72 18
f 18 72 73
f 18 73 66
f 27 74 24
f 24 74 75
f 24 75 23
f 23 75 76
f 23 76 55
f 77 78 79
f 77 79 80
f 81 80 79
f 82 81 79
f 83 82 79
f 84 83 79
f 85 84 79
f 86 85 79
f 87 86 79
f 88 87 79
f 89 88 79
f 90 89 79
f 91 90 79
f 92 91 79
f 93 92 79
f 94 93 79
f 95 94 79
f 96 95 79
f 97 96 79
f 98 97 79
f 99 98 79
f 100 99 79
f 101 100 79
f 102 101 79
f 103 102 79
f 104 103 79
f 105 104 79
f 106 105 79
f 107 106 79
f 108 107 79
f 109 108 79
f 110 109 79
f 111 110 79
f 112 111 79
f 113 112 79
f 114 113 79
f 115 114 79
f 116 115 79
f 117 116 79
f 118 117 79
f 119 118 79
f 120 119 79
f 121 120 79
f 122 121 79
f 123 122 79
f 124 123 79
f 125 124 79
f 126 125 79
f 127 126 79
f 128 127 79
f 78 128 79
f 31 129 32
f 32 129 130
f 32 130 67
f 67 130 131
f 67 131 68
f 68 131 132
f 68 132 69
f 69 132 133
f 69 133 70
f 70 133 134
f 70 134 71
f 71 134 135
f 71 135 72
f 72 135 136
f 72 136 73
f 73 136 137
f 73 137 66
f 66 137 138
f 66 138 65
f 65 138 139
f 65 139 48
f 48 139 140
f 48 140 49
f 49 140 141
f 49 141 50
f 50 141 142
f 50 142 46
f 46 142 143
f 46 143 47
f 47 143 144
f 47 144 40
f 40 144 145
f 40 145 41
f 41 145 146
f 41 146 42
f 42 146 147
f 42 147 45
f 45 147 148
f 45 148 44
f 44 148 149
f 44 149 43
f 43 149 150
f 43 150 62
f 62 150 151
f 62 151 63
f 63 151 152
f 63 152 64
f 64 152 153
f 64 153 28
f 28 153 154
f 28 154 29
f 29 154 155
f 29 155 39
f 39 155 156
f 39 156 38
f 38 156 157
f 38 157 37
f 37 157 158
f 37 158 59
f 59 158 159
f 59 159 60
f 60 159 160
f 60 160 61
f 61 160 161
f 61 161 26
f 26 161 162
f 26 162 27
f 27 162 163
f 27 163 74
f 74 163 164
f 74 164 75
f 75 164 165
f 75 165 76
f 76 165 166
f 76 166 55
f 55 166 167
f 55 167 56
f 56 167 168
f 56 168 57
f 57 168 169
f 57 169 58
f 58 169 170
f 58 170 51
f 51 170 171
f 51 171 52
f 52 171 172
f 52 172 53
f 53 172 173
f 53 173 54
f 54 173 174
f 54 174 33
f 33 174 175
f 33 175 34
f 34 175 176
f 34 176 35
f 35 176 177
f 35 177 36
f 36 177 178
f 36 178 30
f 30 178 179
f 30 179 31
f 31 179 129
f 179 180 129
f 129 180 181
f 129 181 130
f 130 181 182
f 130 182 131
f 131 182 183
f 131 183 132
f 132 183 184
f 132 184 133
f 133 184 185
f 133 185 134
f 134 185 186
f 134 186 135
f 135 186 187
f 135 187 136
f 136 187 188
f 136 188 137
f 137 188 189
f 137 189 138
f 138 189 190
f 138 190 139
f 139 190 191
f 139 191 140
f 140 191 192
f 140 192 141
f 141 192 193
f 141 193 142
f 142 193 194
f 142 194 143
f 143 194 195
f 143 195 144
f 144 195 196
f 144 196 145
f 145 196 197
f 145 197 146
f 146 197 198
f 146 198 147
f 147 198 199
f 147 199 148
f 148 199 200
f 148 200 149
f 149 200 201
f 149 201 150
f 150 201 202
f 150 202 151
f 151 202 203
f 151 203 152
f 152 203 204
f 152 204 153
f 153 204 205
f 153 205 154
f 154 205 206
f 154 206 155
f 155 206 207
f 155 207 156
f 156 207 208
f 156 208 157
f 157 208 209
f 157 209 158
f 158 209 210
f 158 210 159
f 159 210 211
f 159 211 160
f 160 211 212
f 160 212 161
f 161 212 213
f 161 213 162
f 162 213 214
f 162 214 163
f 163 214 215
f 163 215 164
f 164 215 216
f 164 216 165
f 165 216 217
f 165 217 166
f 166 217 218
f 166 218 167
f 167 218 219
f 167 219 168
f 168 219 220
f 168 220 169
f 169 220 221
f 169 221 170
f 170 221 222
f 170 222 171
f 171 222 223
f 171 223 172
f 172 223 224
f 172 224 173
f 173 224 225
f 173 225 174
f 174 225 226
f 174 226 175
f 175 226 227
f 175 227 176
f 176 227 228
f 176 228 177
f 177 228 229
f 177 229 178
f 178 229 230
f 178 230 179
f 179 230 180
f 230 231 180
f 180 231 232
f 180 232 181
f 181 232 233
f 181 233 182
f 182 233 234
f 182 234 183
f 183 234 235
f 183 235 184
f 184 235 236
f 184 236 185
f 185 236 237
f 185 237 186
f 186 237 238
f 186 238 187
f 187 238 239
f 187 239 188
f 188 239 240
f 188 240 189
f 189 240 241
f 189 241 190
f 190 241 242
f 190 242 191
f 191 242 243
f 191 243 192
f 192 243 244
f 192 244 193
f 193 244 245
f 193 245 194
f 194 245 246
f 194 246 195
f 195 246 247
f 195 247 196
f 196 247 248
f 196 248 197
f 197 248 249
f 197 249 198
f 198 249 250
f 198 250 199
f 199 250 251
f 199 251 200
f 200 251 252
f 200 252 201
f 201 252 253
f 201 253 202
f 202 253 254
f 202 254 203
f 203 254 255
f 203 255 204
f 204 255 256
f 204 256 205
f 205 256 257
f 205 257 206
f 206 257 258
f 206 258 207
f 207 258 259
f 207 259 208
f 208 259 260
f 208 260 209
f 209 260 261
f 209 261 210
f 210 261 262
f 210 262 211
f 211 262 263
f 211 263 212
f 212 263 264
f 212 264 213
f 213 264 265
f 213 265 214
f 214 265 266
f 214 266 215
f 215 266 267
f 215 267 216
f 216 267 268
f 216 268 217
f 217 268 269
f 217 269 218
f 218 269 270
f 218 270 219
f 219 270 271
f 219 271 220
f 220 271 272
f 220 272 221
f 221 272 273
f 221 273 222
f 222 273 274
f 222 274 223
f 223 274 275
f 223 275 224
f 224 275 276
f 224 276 225
f 225 276 277
f 225 277 226
f 226 277 278
f 226 278 227
f 227 278 279
f 227 279 228
f 228 279 280
f 228 280 229
f 229 280 281
f 229 281 230
f 230 281 231
f 281 282 231
f 231 282 283
f 231 283 232
f 232 283 284
f 232 284 233
f 233 284 285
f 233 285 234
f 234 285 286
f 234 286 235
f 235 286 287
f 235 287 236
f 236 287 288
f 236 288 237
f 237 288 289
f 237 289 238
f 238 289 290
f 238 290 239
f 239 290 291
f 239 291 240
f 240 291 292
f 240 292 241
f 241 292 293
f 241 293 242
f 242 293 294
f 242 294 243
f 243 294 295
f 243 295 244
f 244 295 296
f 244 296 245
f 245 296 297
f 245 297 246
f 246 297 298
f 246 298 247
f 247 298 299
f 247 299 248
f 248 299 300
f 248 300 249
f 249 300 301
f 249 301 250
f 250 301 302
f 250 302 251
f 251 302 303
f 251 303 252
f 252 303 304
f 252 304 253
f 253 304 305
f 253 305 254
f 254 305 306
f 254 306 255
f 255 306 307
f 255 307 256
f 256 307 308
f 256 308 257
f 257 308 309
f 257 309 258
f 258 309 310
f 258 310 259
f 259 310 311
f 259 311 260
f 260 311 312
f 260 312 261
f 261 312 313
f 261 313 262
f 262 313 314
f 262 314 263
f 263 314 315
f 263 315 264
f 264 315 316
f 264 316 265
f 265 316 317
f 265 317 266
f 266 317 318
f 266 318 267
f 267 318 319
f 267 319 268
f 268 319 320
f 268 320 269
f 269 320 321
f 269 321 270
f 270 321 322
f 270 322 271
f 271 322 323
f 271 323 272
f 272 323 324
f 272 324 273
f 273 324 325
f 273 325 274
f 274 325 326
f 274 326 275
f 275 326 327
f 275 327 276
f 276 327 328
f 276 328 277
f 277 328 329
f 277 329 278
f 278 329 330
f 278 330 279
f 279 330 331
f 279 331 280
f 280 331 332
f 280 332 281
f 281 332 282
f 332 333 282
f 282 333 334
f 282 334 283
f 283 334 335
f 283 335 284
f 284 335 336
f 284 336 285
f 285 336 337
f 285 337 286
f 286 337 338
f 286 338 287
f 287 338 339
f 287 339 288
f 288 339 340
f 288 340 289
f 289 340 341
f 289 341 290
f 290 341 342
f 290 342 291
f 291 342 343
f 291 343 292
f 292 343 344
f 292 344 293
f 293 344 345
f 293 345 294
f 294 345 346
f 294 346 295
f 295 346 347
f 295 347 296
f 296 347 348
f 296 348 297
f 297 348 349
f 297 349 298
f 298 349 350
f 298 350 299
f 299 350 351
f 299 351 300
f 300 351 352
f 300 352 301
f 301 352 353
f 301 353 302
f 302 353 354
f 302 354 303
f 303 354 355
f 303 355 304
f 304 355 356
f 304 356 305
f 305 356 357
f 305 357 306
f 306 357 358
f 306 358 307
f 307 358 359
f 307 359 308
f 308 359 360
f 308 360 309
f 309 360 361
f 309 361 310
f 310 361 362
f 310 362 311
f 311 362 363
f 311 363 312
f 312 363 364
f 312 364 313
f 313 364 365
f 313 365 314
f 314 365 366
f 314 366 315
f 315 366 367
f 315 367 316
f 316 367 368
f 316 368 317
f 317 368 369
f 317 369 318
f 318 369 370
f 318 370 319
f 319 370 371
f 319 371 320
f 320 371 372
f 320 372 321
f 321 372 373
f 321 373 322
f 322 373 374
f 322 374 323
f 323 374 375
f 323 375 324
f 324 375 376
f 324 376 325
f 325 376 377
f 325 377 326
f 326 377 378
f 326 378 327
f 327 378 379
f 327 379 328
f 328 379 380
f 328 380 329
f 329 380 381
f 329 381 330
f 330 381 382
f 330 382 331
f 331 382 383
f 331 383 332
f 332 383 333
f 383 384 333
f 333 384 385
f 333 385 334
f 334 385 386
f 334 386 335
f 335 386 387
f 335 387 336
f 336 387 388
f 336 388 337
f 337 388 389
f 337 389 338
f 338 389 390
f 338 390 339
f 339 390 391
f 339 391 340
f 340 391 392
f 340 392 341
f 341 392 393
f 341 393 342
f 342 393 394
f 342 394 343
f 343 394 395
f 343 395 344
f 344 395 396
f 344 396 345
f 345 396 397
f 345 397 346
f 346 397 398
f 346 398 347
f 347 398 399
f 347 399 348
f 348 399 400
f 348 400 349
f 349 400 401
f 349 401 350
f 350 401 402
f 350 402 351
f 351 402 403
f 351 403 352
f 352 403 404
f 352 404 353
f 353 404 405
f 353 405 354
f 354 405 406
f 354 406 355
f 355 406 407
f 355 407 356
f 356 407 408
f 356 408 357
f 357 408 409
f 357 409 358
f 358 409 410
f 358 410 359
f 359 410 411
f 359 411 360
f 360 411 412
f 360 412 361
f 361 412 413
f 361 413 362
f 362 413 414
f 362 414 363
f 363 414 415
f 363 415 364
f 364 415 416
f 364 416 365
f 365 416 417
f 365 417 366
f 366 417 418
f 366 418 367
f 367 418 419
f 367 419 368
f 368 419 420
f 368 420 369
f 369 420 421
f 369 421 370
f 370 421 422
f 370 422 371
f 371 422 423
f 371 423 372
f 372 423 424
f 372 424 373
f 373 424 425
f 373 425 374
f 374 425 426
f 374 426 375
f 375 426 427
f 375 427 376
f 376 427 428
f 376 428 377
f 377 428 429
f 377 429 378
f 378 429 430
f 378 430 379
f 379 430 431
f 379 431 380
f 380 431 432
f 380 432 381
f 381 432 433
f 381 433 382
f 382 433 434
f 382 434 383
f 383 434 384
f 434 435 384
f 384 435 436
f 384 436 385
f 385 436 437
f 385 437 386
f 386 437 438
f 386 438 387
f 387 438 439
f 387 439 388
f 388 439 440
f 388 440 389
f 389 440 441
f 389 441 390
f 390 441 442
f 390 442 391
f 391 442 443
f 391 443 392
f 392 443 444
f 392 444 393
f 393 444 445
f 393 445 394
f 394 445 446
f 394 446 395
f 395 446 447
f 395 447 396
f 396 447 448
f 396 448 397
f 397 448 449
f 397 449 398
f 398 449 450
f 398 450 399
f 399 450 451
f 399 451 400
f 400 451 452
f 400 452 401
f 401 452 453
f 401 453 402
f 402 453 454
f 402 454 403
f 403 454 455
f 403 455 404
f 404 455 456
f 404 456 405
f 405 456 457
f 405 457 406
f 406 457 458
f 406 458 407
f 407 458 459
f 407 459 408
f 408 459 460
f 408 460 409
f 409 460 461
f 409 461 410
f 410 461 462
f 410 462 411
f 411 462 463
f 411 463 412
f 412 463 464
f 412 464 413
f 413 464 465
f 413 465 414
f 414 465 466
f 414 466 415
f 415 466 467
f 415 467 416
f 416 467 468
f 416 468 417
f 417 468 469
f 417 469 418
f 418 469 470
f 418 470 419
f 419 470 471
f 419 471 420
f 420 471 472
f 420 472 421
f 421 472 473
f 421 473 422
f 422 473 474
f 422 474 423
f 423 474 475
f 423 475 424
f 424 475 476
f 424 476 425
f 425 476 477
f 425 477 426
f 426 477 478
f 426 478 427
f 427 478 479
f 427 479 428
f 428 479 480
f 428 480 429
f 429 480 481
f 429 481 430
f 430 481 482
f 430 482 431
f 431 482 483
f 431 483 432
f 432 483 484
f 432 484 433
f 433 484 485
f 433 485 434
f 434 485 435
f 485 486 435
f 435 486 487
f 435 487 436
f 436 487 488
f 436 488 437
f 437 488 489
f 437 489 438
f 438 489 490
f 438 490 439
f 439 490 491
f 439 491 440
f 440 491 492
f 440 492 441
f 441 492 493
f 441 493 442
f 442 493 494
f 442 494 443
f 443 494 495
f 443 495 444
f 444 495 496
f 444 496 445
f 445 496 497
f 445 497 446
f 446 497 498
f 446 498 447
f 447 498 499
f 447 499 448
f 448 499 500
f 448 500 449
f 449 500 501
f 449 501 450
f 450 501 502
f 450 502 451
f 451 502 503
f 451 503 452
f 452 503 504
f 452 504 453
f 453 504 505
f 453 505 454
f 454 505 506
f 454 506 455
f 455 506 507
f 455 507 456
f 456 507 508
f 456 508 457
f 457 508 509
f 457 509 458
f 458 509 510
f 458 510 459
f 459 510 511
f 459 511 460
f 460 511 512
f 460 512 461
f 461 512 513
f 461 513 462
f 462 513 514
f 462 514 463
f 463 514 515
f 463 515 464
f 464 515 516
f 464 516 465
f 465 516 517
f 465 517 466
f 466 517 518
f 466 518 467
f 467 518 519
f 467 519 468
f 468 519 520
f 468 520 469
f 469 520 521
f 469 521 470
f 470 521 522
f 470 522 471
f 471 522 523
f 471 523 472
f 472 523 524
f 472 524 473
f 473 524 525
f 473 525 474
f 474 525 526
f 474 526 475
f 475 526 527
f 475 527 476
f 476 527 528
f 476 528 477
f 477 528 529
f 477 529 478
f 478 529 530
f 478 530 479
f 479 530 531
f 479 531 480
f 480 531 532
f 480 532 481
f 481 532 533
f 481 533 482
f 482 533 534
f 482 534 483
f 483 534 535
f 483 535 484
f 484 535 536
f 484 536 485
f 485 536 486
f 536 537 486
f 486 537 538
f 486 538 487
f 487 538 539
f 487 539 488
f 488 539 540
f 488 540 489
f 489 540 541
f 489 541 490
f 490 541 542
f 490 542 491
f 491 542 543
f 491 543 492
f 492 543 544
f 492 544 493
f 493 544 545
f 493 545 494
f 494 545 546
f 494 546 495
f 495 546 547
f 495 547 496
f 496 547 548
f 496 548 497
f 497 548 549
f 497 549 498
f 498 549 550
f 498 550 499
f 499 550 551
f 499 551 500
f 500 551 552
f 500 552 501
f 501 552 553
f 501 553 502
f 502 553 554
f 502 554 503
f 503 554 555
f 503 555 504
f 504 555 556
f 504 556 505
f 505 556 557
f 505 557 506
f 506 557 558
f 506 558 507
f 507 558 559
f 507 559 508
f 508 559 560
f 508 560 509
f 509 560 561
f 509 561 510
f 510 561 562
f 510 562 511
f 511 562 563
f 511 563 512
f 512 563 564
f 512 564 513
f 513 564 565
f 513 565 514
f 514 565 566
f 514 566 515
f 515 566 567
f 515 567 516
f 516 567 568
f 516 568 517
f 517 568 569
f 517 569 518
f 518 569 570
f 518 570 519
f 519 570 571
f 519 571 520
f 520 571 572
f 520 572 521
f 521 572 573
f 521 573 522
f 522 573 574
f 522 574 523
f 523 574 575
f 523 575 524
f 524 575 576
f 524 576 525
f 525 576 577
f 525 577 526
f 526 577 578
f 526 578 527
f 527 578 579
f 527 579 528
f 528 579 580
f 528 580 529
f 529 580 581
f 529 581 530
f 530 581 582
f 530 582 531
f 531 582 583
f 531 583 532
f 532 583 584
f 532 584 533
f 533 584 585
f 533 585 534
f 534 585 586
f 534 586 535
f 535 586 587
f 535 587 536
f 536 587 537
f 587 588 537
f 537 588 589
f 537 589 538
f 538 589 590
f 538 590 539
f 539 590 591
f 539 591 540
f 540 591 592
f 540 592 541
f 541 592 593
f 541 593 542
f 542 593 594
f 542 594 543
f 543 594 595
f 543 595 544
f 544 595 596
f 544 596 545
f 545 596 597
f 545 597 546
f 546 597 598
f 546 598 547
f 547 598 599
f 547 599 548
f 548 599 600
f 548 600 549
f 549 600 601
f 549 601 550
f 550 601 602
f 550 602 551
f 551 602 603
f 551 603 552
f 552 603 604
f 552 604 553
f 553 604 605
f 553 605 554
f 554 605 606
f 554 606 555
f 555 606 607
f 555 607 556
f 556 607 608
f 556 608 557
f 557 608 609
f 557 609 558
f 558 609 610
f 558 610 559
f 559 610 611
f 559 611 560
f 560 611 612
f 560 612 561
f 561 612 613
f 561 613 562
f 562 613 614
f 562 614 563
f 563 614 615
f 563 615 564
f 564 615 616
f 564 616 565
f 565 616 617
f 565 617 566
f 566 617 618
f 566 618 567
f 567 618 619
f 567 619 568
f 568 619 620
f 568 620 569
f 569 620 621
f 569 621 570
f 570 621 622
f 570 622 571
f 571 622 623
f 571 623 572
f 572 623 624
f 572 624 573
f 573 624 625
f 573 625 574
f 574 625 626
f 574 626 575
f 575 626 627
f 575 627 576
f 576 627 628
f 576 628 577
f 577 628 629
f 577 629 578
f 578 629 630
f 578 630 579
f 579 630 631
f 579 631 580
f 580 631 632
f 580 632 581
f 581 632 633
f 581 633 582
f 582 633 634
f 582 634 583
f 583 634 635
f 583 635 584
f 584 635 636
f 584 636 585
f 585 636 637
f 585 637 586
f 586 637 638
f 586 638 587
f 587 638 588
f 638 639 588
f 588 639 640
f 588 640 589
f 589 640 641
f 589 641 590
f 590 641 642
f 590 642 591
f 591 642 643
f 591 643 592
f 592 643 644
f 592 644 593
f 593 644 645
f 593 645 594
f 594 645 646
f 594 646 595
f 595 646 647
f 595 647 596
f 596 647 648
f 596 648 597
f 597 648 649
f 597 649 598
f 598 649 650
f 598 650 599
f 599 650 651
f 599 651 600
f 600 651 652
f 600 652 601
f 601 652 653
f 601 653 602
f 602 653 654
f 602 654 603
f 603 654 655
f 603 655 604
f 604 655 656
f 604 656 605
f 605 656 657
f 605 657 606
f 606 657 658
f 606 658 607
f 607 658 659
f 607 659 608
f 608 659 660
f 608 660 609
f 609 660 661
f 609 661 610
f 610 661 662
f 610 662 611
f 611 662 663
f 611 663 612
f 612 663 664
f 612 664 613
f 613 664 665
f 613 665 614
f 614 665 666
f 614 666 615
f 615 666 667
f 615 667 616
f 616 667 668
f 616 668 617
f 617 668 669
f 617 669 618
f 618 669 670
f 618 670 619
f 619 670 671
f 619 671 620
f 620 671 672
f 620 672 621
f 621 672 673
f 621 673 622
f 622 673 674
f 622 674 623
f 623 674 675
f 623 675 624
f 624 675 676
f 624 676 625
f 625 676 677
f 625 677 626
f 626 677 678
f 626 678 627
f 627 678 679
f 627 679 628
f 628 679 680
f 628 680 629
f 629 680 681
f 629 681 630
f 630 681 682
f 630 682 631
f 631 682 683
f 631 683 632
f 632 683 684
f 632 684 633
f 633 684 685
f 633 685 634
f 634 685 686
f 634 686 635
f 635 686 687
f 635 687 636
f 636 687 688
f 636 688 637
f 637 688 689
f 637 689 638
f 638 689 639
f 689 78 639
f 639 78 77
f 639 77 640
f 640 77 80
f 640 80 641
f 641 80 81
f 641 81 642
f 642 81 82
f 642 82 643
f 643 82 83
f 643 83 644
f 644 83 84
f 644 84 645
f 645 84 85
f 645 85 646
f 646 85 86
f 646 86 647
f 647 86 87
f 647 87 648
f 648 87 88
f 648 88 649
f 649 88 89
f 649 89 650
f 650 89 90
f 650 90 651
f 651 90 91
f 651 91 652
f 652 91 92
f 652 92 653
f 653 92 93
f 653 93 654
f 654 93 94
f 654 94 655
f 655 94 95
f 655 95 656
f 656 95 96
f 656 96 657
f 657 96 97
f 657 97 658
f 658 97 98
f 658 98 659
f 659 98 99
f 659 99 660
f 660 99 100
f 660 100 661
f 661 100 101
f 661 101 662
f 662 101 102
f 662 102 663
f 663 102 103
f 663 103 664
f 664 103 104
f 664 104 665
f 665 104 105
f 665 105 666
f 666 105 106
f 666 106 667
f 667 106 107
f 667 107 668
f 668 107 108
f 668 108 669
f 669 108 109
f 669 109 670
f 670 109 110
f 670 110 671
f 671 110 111
f 671 111 672
f 672 111 112
f 672 112 673
f 673 112 113
f 673 113 674
f 674 113 114
f 674 114 675
f 675 114 115
f 675 115 676
f 676 115 116
f 676 116 677
f 677 116 117
f 677 117 678
f 678 117 118
f 678 118 679
f 679 118 119
f 679 119 680
f 680 119 120
f 680 120 681
f 681 120 121
f 681 121 682
f 682 121 122
f 682 122 683
f 683 122 123
f 683 123 684
f 684 123 124
f 684 124 685
f 685 124 125
f 685 125 686
f 686 125 126
f 686 126 687
f 687 126 127
f 687 127 688
f 688 127 128
f 688 128 689
f 689 128 78

