# https://github.com/mikedh/trimesh
v 0.02050000 0.00000409 -0.00299999
v 0.00050000 0.00000409 -0.00300001
v 0.02049999 -0.00149645 -0.00260013
v 0.00050000 -0.00149645 -0.00260012
v 0.02050000 -0.00259603 -0.00150356
v 0.00050001 -0.00259603 -0.00150355
v 0.02050000 -0.00300000 -0.00000410
v 0.00049999 -0.00300000 -0.00000409
v 0.02050001 -0.00260012 0.00149646
v 0.00050000 -0.00260012 0.00149644
v 0.02050000 -0.00150354 0.00259602
v 0.00050000 -0.00150354 0.00259603
v 0.02049999 -0.00000410 0.00299998
v 0.00050000 -0.00000410 0.00300000
v 0.00887722 0.01609165 -0.06713364
v 0.00887722 0.01759165 -0.06713160
v 0.00904045 0.01759161 -0.06710421
v 0.00904045 0.01609161 -0.06710626
v 0.00918580 0.01759150 -0.06702504
v 0.00918580 0.01609151 -0.06702708
v 0.03370736 0.01611122 -0.08146942
v 0.03370736 0.01761121 -0.08146738
v 0.03389012 0.01761117 -0.08143278
v 0.03389012 0.01611117 -0.08143483
v 0.03404762 0.01761103 -0.08133376
v 0.03404762 0.01611104 -0.08133581
v 0.03812233 0.01759941 -0.07282084
v 0.03812233 0.01609942 -0.07282289
v 0.03833934 0.01609948 -0.07287242
v 0.03833934 0.01759948 -0.07287038
v 0.03851332 0.01609967 -0.07301123
v 0.03851332 0.01759967 -0.07300919
v 0.03860983 0.01609995 -0.07321180
v 0.03860983 0.01759994 -0.07320976
v 0.03860973 0.01610025 -0.07343438
v 0.03860973 0.01760025 -0.07343233
v 0.01749982 0.00510693 -0.07833527
v 0.01749982 0.01610692 -0.07832026
v 0.01852481 0.00510731 -0.07860995
v 0.01852481 0.01610730 -0.07859494
v 0.01927516 0.00510833 -0.07936031
v 0.01927516 0.01610832 -0.07934530
v 0.01954978 0.00510973 -0.08038533
v 0.01954978 0.01610972 -0.08037031
v 0.01927511 0.00511113 -0.08141031
v 0.01927511 0.01611112 -0.08139530
v 0.01852473 0.00511215 -0.08216066
v 0.01852473 0.01611214 -0.08214564
v 0.01749974 0.00511253 -0.08243528
v 0.01749974 0.01611252 -0.08242026
v 0.02949982 0.00510693 -0.07833553
v 0.02949982 0.01610692 -0.07832051
v 0.03052482 0.00510731 -0.07861021
v 0.03052482 0.01610730 -0.07859519
v 0.03127515 0.00510833 -0.07936057
v 0.03127515 0.01610832 -0.07934555
v 0.03154977 0.00510973 -0.08038558
v 0.03154977 0.01610972 -0.08037057
v 0.03127511 0.00511113 -0.08141056
v 0.03127511 0.01611112 -0.08139555
v 0.03052474 0.00511215 -0.08216091
v 0.03052474 0.01611214 -0.08214590
v 0.02949973 0.00511253 -0.08243553
v 0.02949973 0.01611252 -0.08242052
v 0.03550008 0.01609042 -0.06622836
v 0.03550008 0.01759041 -0.06622631
v 0.03672428 0.01609070 -0.06643383
v 0.03672428 0.01759069 -0.06643178
v 0.03781431 0.01609151 -0.06702770
v 0.03781431 0.01759150 -0.06702565
v 0.03549992 0.01610065 -0.07372835
v 0.03549992 0.01760065 -0.07372630
v 0.03362493 0.01609997 -0.07322590
v 0.03362493 0.01759996 -0.07322385
v 0.03225237 0.01609809 -0.07185328
v 0.03225237 0.01759809 -0.07185123
v 0.03175000 0.01609553 -0.06997827
v 0.03175000 0.01759553 -0.06997623
v 0.03225245 0.01609297 -0.06810329
v 0.03225245 0.01759297 -0.06810124
v 0.03362507 0.01609110 -0.06673072
v 0.03362507 0.01759110 -0.06672867
v 0.03550004 0.00509275 -0.06794337
v 0.03550004 0.01609274 -0.06792836
v 0.03652504 0.00509312 -0.06821804
v 0.03652504 0.01609311 -0.06820302
v 0.03727537 0.00509415 -0.06896840
v 0.03727537 0.01609414 -0.06895339
v 0.03755001 0.00509555 -0.06999341
v 0.03755001 0.01609553 -0.06997840
v 0.03727533 0.00509694 -0.07101840
v 0.03727533 0.01609693 -0.07100338
v 0.03652496 0.00509797 -0.07176875
v 0.03652496 0.01609796 -0.07175373
v 0.03549995 0.00509834 -0.07204337
v 0.03549995 0.01609833 -0.07202835
v 0.02950030 0.01607623 -0.05583593
v 0.02950030 0.01757623 -0.05583389
v 0.03137529 0.01607692 -0.05633838
v 0.03137529 0.01757691 -0.05633633
v 0.03274786 0.01607879 -0.05771100
v 0.03274786 0.01757878 -0.05770895
v 0.03325022 0.01608135 -0.05958601
v 0.03325022 0.01758134 -0.05958396
v 0.03274778 0.01608391 -0.06146099
v 0.03274778 0.01758390 -0.06145895
v 0.03137515 0.01608578 -0.06283357
v 0.03137515 0.01758578 -0.06283152
v 0.02950014 0.01608647 -0.06333592
v 0.02950014 0.01758646 -0.06333387
v 0.02950026 0.00507856 -0.05755094
v 0.02950026 0.01607855 -0.05753593
v 0.03052527 0.00507894 -0.05782561
v 0.03052527 0.01607893 -0.05781060
v 0.03127560 0.00507996 -0.05857599
v 0.03127560 0.01607995 -0.05856097
v 0.03155022 0.00508136 -0.05960099
v 0.03155022 0.01608135 -0.05958597
v 0.03127555 0.00508276 -0.06062599
v 0.03127555 0.01608275 -0.06061097
v 0.03052519 0.00508378 -0.06137631
v 0.03052519 0.01608377 -0.06136130
v 0.02950018 0.00508416 -0.06165094
v 0.02950018 0.01608415 -0.06163592
v 0.01750031 0.01607623 -0.05583568
v 0.01750031 0.01757623 -0.05583363
v 0.01937529 0.01607692 -0.05633812
v 0.01937529 0.01757691 -0.05633608
v 0.02074786 0.01607879 -0.05771074
v 0.02074786 0.01757878 -0.05770870
v 0.02125022 0.01608135 -0.05958575
v 0.02125022 0.01758134 -0.05958370
v 0.02074778 0.01608391 -0.06146074
v 0.02074778 0.01758390 -0.06145869
v 0.01937515 0.01608578 -0.06283331
v 0.01937515 0.01758578 -0.06283126
v 0.01750015 0.01608647 -0.06333566
v 0.01750015 0.01758646 -0.06333362
v 0.01750027 0.00507856 -0.05755069
v 0.01750027 0.01607855 -0.05753567
v 0.01852526 0.00507894 -0.05782535
v 0.01852526 0.01607892 -0.05781034
v 0.01927560 0.00507996 -0.05857573
v 0.01927560 0.01607995 -0.05856072
v 0.01955022 0.00508136 -0.05960073
v 0.01955022 0.01608135 -0.05958571
v 0.01927556 0.00508276 -0.06062573
v 0.01927556 0.01608275 -0.06061071
v 0.01852518 0.00508378 -0.06137606
v 0.01852518 0.01608377 -0.06136104
v 0.01750018 0.00508416 -0.06165068
v 0.01750018 0.01608415 -0.06163567
v 0.03116438 0.01009223 -0.06756146
v 0.03116438 0.00509223 -0.06756828
v 0.03216438 0.01009187 -0.06729352
v 0.03216438 0.00509187 -0.06730035
v 0.03289645 0.01009087 -0.06656149
v 0.03289645 0.00509087 -0.06656832
v 0.03316442 0.01008950 -0.06556150
v 0.03316442 0.00508951 -0.06556832
v 0.03289649 0.01008814 -0.06456149
v 0.03289649 0.00508814 -0.06456831
v 0.03216446 0.01008714 -0.06382942
v 0.03216446 0.00508714 -0.06383625
v 0.03116446 0.01008677 -0.06356145
v 0.03116446 0.00508677 -0.06356827
v 0.03116442 0.01129122 -0.06555981
v 0.01583573 0.01009223 -0.06756113
v 0.01583573 0.00509223 -0.06756795
v 0.01683574 0.01009187 -0.06729320
v 0.01683574 0.00509187 -0.06730002
v 0.01756780 0.01009087 -0.06656116
v 0.01756780 0.00509087 -0.06656799
v 0.01783578 0.01008950 -0.06556117
v 0.01783578 0.00508950 -0.06556799
v 0.01756785 0.01008814 -0.06456116
v 0.01756785 0.00508814 -0.06456798
v 0.01683581 0.01008714 -0.06382909
v 0.01683581 0.00508714 -0.06383592
v 0.01583582 0.01008677 -0.06356112
v 0.01583582 0.00508677 -0.06356794
v 0.01583577 0.01129122 -0.06555948
v 0.02349977 0.01011035 -0.08083627
v 0.02349977 0.00511035 -0.08084310
v 0.02449978 0.01010999 -0.08056834
v 0.02449978 0.00510999 -0.08057517
v 0.02523184 0.01010899 -0.07983631
v 0.02523184 0.00510899 -0.07984313
v 0.02549982 0.01010762 -0.07883631
v 0.02549982 0.00510762 -0.07884314
v 0.02523188 0.01010626 -0.07783630
v 0.02523188 0.00510626 -0.07784313
v 0.02449985 0.01010526 -0.07710424
v 0.02449985 0.00510526 -0.07711107
v 0.02349985 0.01010489 -0.07683629
v 0.02349985 0.00510489 -0.07684311
v 0.02349981 0.01130934 -0.07883463
v 0.02050000 -0.00000935 0.00684999
v 0.00050001 -0.00000935 0.00685000
v 0.02050001 -0.00100971 0.00711658
v 0.00050000 -0.00100971 0.00711659
v 0.02049999 -0.00174277 0.00784762
v 0.00050000 -0.00174277 0.00784763
v 0.02050000 -0.00201208 0.00884727
v 0.00050000 -0.00201208 0.00884725
v 0.02050001 -0.00174550 0.00984762
v 0.00050000 -0.00174550 0.00984763
v 0.02050001 -0.00101444 0.01058068
v 0.00050000 -0.00101444 0.01058066
v 0.02050000 -0.00001481 0.01085000
v 0.00050000 -0.00001481 0.01084998
v 0.02050000 0.00767308 -0.00641453
v 0.00050000 0.00767308 -0.00641452
v 0.02050001 0.00667272 -0.00614794
v 0.00050000 0.00667272 -0.00614796
v 0.02050001 0.00593968 -0.00541691
v 0.00050000 0.00593968 -0.00541690
v 0.02050000 0.00567036 -0.00441726
v 0.00050000 0.00567036 -0.00441728
v 0.02050000 0.00593695 -0.00341691
v 0.00049999 0.00593695 -0.00341689
v 0.02050001 0.00666800 -0.00268384
v 0.00049999 0.00666800 -0.00268386
v 0.02050000 0.00766762 -0.00241453
v 0.00050000 0.00766762 -0.00241454
v 0.02050000 -0.00765555 -0.00643545
v 0.00050000 -0.00765555 -0.00643544
v 0.02050001 -0.00865591 -0.00616887
v 0.00050000 -0.00865591 -0.00616888
v 0.02050001 -0.00938896 -0.00543783
v 0.00050000 -0.00938896 -0.00543782
v 0.02050000 -0.00965828 -0.00443818
v 0.00050000 -0.00965828 -0.00443820
v 0.02050000 -0.00939169 -0.00343783
v 0.00049999 -0.00939169 -0.00343782
v 0.02050001 -0.00866064 -0.00270477
v 0.00049999 -0.00866064 -0.00270478
v 0.02050000 -0.00766101 -0.00243545
v 0.00050000 -0.00766101 -0.00243547
v 0.02050000 -0.00601131 0.00828412
v 0.00050001 -0.00601131 0.00828410
v 0.02049999 -0.00706170 0.00856402
v 0.00050000 -0.00706170 0.00856403
v 0.02049999 -0.00783140 0.00933163
v 0.00050000 -0.00783140 0.00933161
v 0.02050000 -0.00811418 0.01038124
v 0.00050001 -0.00811418 0.01038125
v 0.02049999 -0.00783426 0.01143162
v 0.00050000 -0.00783426 0.01143163
v 0.02050000 -0.00706666 0.01220133
v 0.00050000 -0.00706666 0.01220134
v 0.02050000 -0.00601705 0.01248409
v 0.00050001 -0.00601705 0.01248410
v 0.02050000 0.00598868 0.00830050
v 0.00050001 0.00598868 0.00830048
v 0.02049999 0.00493829 0.00858040
v 0.00050000 0.00493829 0.00858041
v 0.02049999 0.00416859 0.00934801
v 0.00050000 0.00416859 0.00934799
v 0.02050000 0.00388581 0.01039762
v 0.00050001 0.00388581 0.01039763
v 0.02049999 0.00416572 0.01144800
v 0.00050000 0.00416572 0.01144801
v 0.02050000 0.00493333 0.01221771
v 0.00050000 0.00493333 0.01221772
v 0.02050000 0.00598295 0.01250047
v 0.00050001 0.00598295 0.01250048
v 0.02050000 0.01200286 -0.00208361
v 0.00049999 0.01200286 -0.00208363
v 0.02049999 0.01095247 -0.00180371
v 0.00050000 0.01095247 -0.00180370
v 0.02050000 0.01018277 -0.00103610
v 0.00050000 0.01018277 -0.00103609
v 0.02050000 0.00989999 0.00001351
v 0.00049999 0.00989999 0.00001352
v 0.02050000 0.01017990 0.00106389
v 0.00050000 0.01017990 0.00106390
v 0.02050000 0.01094751 0.00183360
v 0.00050000 0.01094751 0.00183361
v 0.02050000 0.01199712 0.00211636
v 0.00049999 0.01199712 0.00211638
v 0.02050000 0.00601705 -0.01248410
v 0.00049999 0.00601705 -0.01248409
v 0.02049999 0.00496666 -0.01220420
v 0.00050000 0.00496666 -0.01220419
v 0.02050000 0.00419696 -0.01143659
v 0.00050000 0.00419696 -0.01143658
v 0.02050000 0.00391418 -0.01038698
v 0.00049999 0.00391418 -0.01038697
v 0.02050000 0.00419409 -0.00933660
v 0.00050000 0.00419409 -0.00933659
v 0.02050000 0.00496170 -0.00856689
v 0.00050000 0.00496170 -0.00856688
v 0.02050000 0.00601132 -0.00828409
v 0.00049999 0.00601132 -0.00828411
v 0.02050000 -0.00598294 -0.01250048
v 0.00049999 -0.00598294 -0.01250047
v 0.02049999 -0.00703333 -0.01222058
v 0.00050000 -0.00703333 -0.01222057
v 0.02050000 -0.00780303 -0.01145297
v 0.00050000 -0.00780303 -0.01145296
v 0.02050000 -0.00808581 -0.01040336
v 0.00049999 -0.00808581 -0.01040335
v 0.02050000 -0.00780589 -0.00935298
v 0.00050000 -0.00780589 -0.00935297
v 0.02050000 -0.00703829 -0.00858327
v 0.00050000 -0.00703829 -0.00858326
v 0.02050000 -0.00598867 -0.00830047
v 0.00049999 -0.00598867 -0.00830049
v 0.02050000 -0.01199712 -0.00211637
v 0.00049999 -0.01199712 -0.00211639
v 0.02049999 -0.01304750 -0.00183647
v 0.00050000 -0.01304750 -0.00183646
v 0.02050000 -0.01381721 -0.00106886
v 0.00050000 -0.01381721 -0.00106885
v 0.02050000 -0.01409999 -0.00001925
v 0.00049999 -0.01409999 -0.00001924
v 0.02050000 -0.01382007 0.00103113
v 0.00050000 -0.01382007 0.00103114
v 0.02050000 -0.01305247 0.00180084
v 0.00050000 -0.01305247 0.00180085
v 0.02050000 -0.01200286 0.00208360
v 0.00049999 -0.01200286 0.00208362
v 0.01150009 0.01609042 -0.06622785
v 0.01150009 0.01759041 -0.06622580
v 0.01337507 0.01609110 -0.06673028
v 0.01337507 0.01759109 -0.06672823
v 0.01474764 0.01609297 -0.06810291
v 0.01474764 0.01759297 -0.06810086
v 0.01525000 0.01609553 -0.06997792
v 0.01525000 0.01759553 -0.06997588
v 0.01474755 0.01609809 -0.07185291
v 0.01474755 0.01759809 -0.07185086
v 0.01337493 0.01609997 -0.07322547
v 0.01337493 0.01759996 -0.07322342
v 0.01149993 0.01610065 -0.07372783
v 0.01149993 0.01760065 -0.07372578
v 0.01027595 0.01610037 -0.07352244
v 0.01027595 0.01760037 -0.07352039
v 0.00918606 0.01609956 -0.07292880
v 0.00918606 0.01759956 -0.07292675
v 0.01150005 0.00509275 -0.06794286
v 0.01150005 0.01609274 -0.06792784
v 0.01252504 0.00509312 -0.06821752
v 0.01252504 0.01609311 -0.06820251
v 0.01327537 0.00509415 -0.06896789
v 0.01327537 0.01609414 -0.06895287
v 0.01355000 0.00509554 -0.06999290
v 0.01355000 0.01609553 -0.06997789
v 0.01327532 0.00509694 -0.07101788
v 0.01327532 0.01609693 -0.07100287
v 0.01252496 0.00509797 -0.07176823
v 0.01252496 0.01609796 -0.07175321
v 0.01149996 0.00509834 -0.07204285
v 0.01149996 0.01609833 -0.07202783
v 0.00050001 0.01499970 -0.00009521
v 0.00050000 0.01451323 0.00379026
v 0.01549999 0.01499998 0.00002049
v 0.01550000 0.00741740 -0.01303772
v 0.00050000 0.00741740 -0.01303772
v 0.00050000 0.00897570 -0.01201817
v 0.01550000 0.01053907 -0.01067371
v 0.01550001 0.01499970 -0.00009520
v 0.01550000 0.01446396 -0.00397418
v 0.00050000 0.01446396 -0.00397415
v 0.01550000 0.01294252 -0.00758231
v 0.00049999 0.01294252 -0.00758228
v 0.00050000 0.01053907 -0.01067371
v 0.02050000 0.01499998 0.00002047
v 0.02050000 0.01457468 0.00354667
v 0.02049999 0.01451323 0.00379025
v 0.00050000 0.01303772 0.00741740
v 0.02050000 0.01303772 0.00741739
v 0.00049999 0.01067370 0.01053907
v 0.02050001 0.01067370 0.01053906
v 0.02049999 0.00894238 0.01204299
v 0.00050000 0.00894238 0.01204300
v 0.02050000 0.00758230 0.01294251
v 0.00050000 0.00758230 0.01294252
v 0.00050000 0.00397417 0.01446395
v 0.02050000 0.00397417 0.01446394
v 0.02049999 0.00249661 0.01479076
v 0.00050000 0.00249661 0.01479077
v 0.02050000 0.00009520 0.01499971
v 0.00050000 0.00009520 0.01499969
v 0.02049999 -0.00253407 0.01478440
v 0.00050000 -0.00253407 0.01478441
v 0.02050000 -0.00379025 0.01451325
v 0.00050001 -0.00379025 0.01451323
v 0.00050000 -0.00741740 0.01303771
v 0.02050000 -0.00741740 0.01303773
v 0.02026446 0.00507485 -0.05483458
v 0.02026446 0.01257485 -0.05482434
v 0.01645139 0.01257669 -0.05617829
v 0.01893772 0.01611575 -0.08479144
v 0.01893772 0.01761575 -0.08478939
v 0.02270197 0.01761666 -0.08545548
v 0.02270197 0.00511667 -0.08547254
v 0.01872279 0.00511567 -0.08473855
v 0.01872279 0.01611566 -0.08472353
v 0.01506917 0.00511330 -0.08299967
v 0.01506917 0.01611329 -0.08298465
v 0.01199009 0.01760970 -0.08035736
v 0.01295190 0.01761103 -0.08133332
v 0.01295190 0.01611104 -0.08133536
v 0.00834146 0.01609995 -0.07321363
v 0.00839012 0.01610025 -0.07343373
v 0.00969540 0.00510517 -0.07704172
v 0.00875455 0.01258902 -0.06520567
v 0.00837805 0.01259089 -0.06658044
v 0.00802056 0.00509446 -0.06919508
v 0.00834146 0.00509996 -0.07322864
v 0.00802056 0.01609444 -0.06918006
v 0.00837805 0.01609089 -0.06657566
v 0.00875455 0.00508902 -0.06521591
v 0.01049342 0.00508404 -0.06156228
v 0.01049342 0.01258403 -0.06155205
v 0.01311867 0.00507983 -0.05848321
v 0.01311867 0.01257983 -0.05847298
v 0.01456844 0.00507825 -0.05732516
v 0.01645139 0.00507670 -0.05618852
v 0.01199009 0.00510971 -0.08037442
v 0.00969540 0.01760515 -0.07702465
v 0.00839012 0.01760025 -0.07343169
v 0.02647723 0.00511631 -0.08520447
v 0.02673554 0.01761622 -0.08513458
v 0.02673554 0.00511624 -0.08515164
v 0.01425258 0.01758390 -0.06145855
v 0.01562516 0.01758578 -0.06283119
v 0.03850000 0.01755117 -0.03747607
v 0.03849999 0.01758939 -0.06547605
v 0.02762529 0.01757691 -0.05633625
v 0.00850000 0.01755117 -0.03747609
v 0.01398424 0.01760793 -0.07906304
v 0.01378717 0.01761043 -0.08089650
v 0.03196827 0.01760586 -0.07754554
v 0.03032427 0.01760472 -0.07671023
v 0.02848090 0.01760479 -0.07675955
v 0.03321236 0.01761043 -0.08089692
v 0.03650658 0.01760704 -0.07840688
v 0.03301537 0.01760793 -0.07906345
v 0.02011577 0.01760605 -0.07768138
v 0.01851881 0.01760479 -0.07675933
v 0.01667544 0.01760472 -0.07670994
v 0.01503140 0.01760586 -0.07754517
v 0.00896353 0.01759942 -0.07282767
v 0.01340896 0.01761119 -0.08145311
v 0.01316538 0.01761119 -0.08145060
v 0.01362482 0.01761104 -0.08134023
v 0.01376172 0.01761077 -0.08113875
v 0.02625267 0.01757878 -0.05770881
v 0.02575022 0.01758134 -0.05958380
v 0.02625259 0.01758390 -0.06145881
v 0.02762515 0.01758578 -0.06283144
v 0.02117877 0.01761070 -0.08109452
v 0.02108015 0.01760819 -0.07925314
v 0.01562530 0.01757691 -0.05633600
v 0.01425266 0.01757878 -0.05770856
v 0.01375023 0.01758134 -0.05958354
v 0.03861171 0.01759082 -0.06652711
v 0.03672390 0.01760037 -0.07352096
v 0.03824545 0.01760205 -0.07475325
v 0.03781381 0.01759956 -0.07292736
v 0.00839528 0.01759991 -0.07318815
v 0.00851491 0.01759962 -0.07297596
v 0.00872059 0.01759944 -0.07284547
v 0.02688390 0.01760605 -0.07768152
v 0.02591945 0.01760819 -0.07925324
v 0.02038777 0.01761298 -0.08276029
v 0.02582075 0.01761070 -0.08109462
v 0.01027588 0.01759069 -0.06643122
v 0.00850001 0.01758939 -0.06547606
v 0.00838840 0.01759082 -0.06652655
v 0.03349981 0.01761115 -0.08142227
v 0.03332971 0.01761098 -0.08129508
v 0.03827731 0.01759161 -0.06710777
v 0.03803555 0.01759164 -0.06712454
v 0.03848280 0.01759144 -0.06697932
v 0.03860374 0.01759115 -0.06676932
v 0.00848831 0.01759139 -0.06694582
v 0.00839086 0.01759112 -0.06674751
v 0.03322776 0.01761073 -0.08110876
v 0.02661169 0.01761298 -0.08276042
v 0.02810099 0.01761446 -0.08384782
v 0.02806164 0.01761575 -0.08478959
v 0.01860546 0.01761529 -0.08445345
v 0.01859531 0.01761496 -0.08421008
v 0.01870135 0.01761466 -0.08399079
v 0.02840408 0.01761496 -0.08421030
v 0.02839392 0.01761529 -0.08445366
v 0.02826997 0.01761558 -0.08466336
v 0.03795913 0.01759945 -0.07284822
v 0.01889842 0.01761446 -0.08384762
v 0.01872941 0.01761558 -0.08466316
v 0.02829805 0.01761466 -0.08399099
v 0.00866172 0.01759158 -0.06708276
v 0.00949999 -0.00496655 -0.02450679
v 0.01550001 -0.00496655 -0.02450680
v 0.00949999 0.00503344 -0.02449314
v 0.01550001 0.00503344 -0.02449315
v 0.02050001 0.00501979 -0.01449316
v 0.02050001 0.00480195 -0.01449346
v 0.03850000 0.00504436 -0.03249314
v 0.02050001 0.00251979 -0.01449657
v 0.03850000 -0.00495563 -0.03250680
v 0.02050001 -0.00248020 -0.01450340
v 0.02050001 -0.00343021 -0.01450469
v 0.02050001 -0.00476237 -0.01450651
v 0.02050001 -0.00498020 -0.01450681
v 0.01550000 0.01505117 -0.03747950
v 0.01550000 -0.01495304 -0.03441028
v 0.01549999 -0.01499998 -0.00002046
v 0.01550000 -0.01451324 -0.00379024
v 0.01550000 0.01005118 -0.03748633
v 0.01550000 -0.00758230 -0.01294253
v 0.01550001 -0.01067371 -0.01053908
v 0.01550000 -0.01303772 -0.00741741
v 0.01550000 0.00813724 -0.03710833
v 0.01550000 0.00651365 -0.03602667
v 0.01550000 -0.00397417 -0.01446396
v 0.01550000 -0.00009521 -0.01499970
v 0.01550000 0.00379025 -0.01451324
v 0.01550001 -0.00494198 -0.04250679
v 0.01550001 -0.00683183 -0.04250937
v 0.01550000 0.00504436 -0.03249313
v 0.01550000 0.00542757 -0.03440604
v 0.02050000 0.01500307 -0.00224203
v 0.02050000 0.01505117 -0.03747949
v 0.02049999 0.01501003 -0.00733816
v 0.02050001 0.01500642 -0.00469202
v 0.03730460 0.00508592 -0.06294451
v 0.03730460 0.01258592 -0.06293427
v 0.03500991 0.01258137 -0.05960155
v 0.02429804 0.00507442 -0.05451368
v 0.02429804 0.01257441 -0.05450344
v 0.02827721 0.00507542 -0.05524768
v 0.02827721 0.01257541 -0.05523744
v 0.03193083 0.00507779 -0.05698654
v 0.03193083 0.01257778 -0.05697630
v 0.03239860 0.00507822 -0.05730198
v 0.03500991 0.00508137 -0.05961179
v 0.03865854 0.01609112 -0.06674256
v 0.03862195 0.01609089 -0.06657565
v 0.03862195 0.01259089 -0.06658043
v 0.03865854 0.00509113 -0.06675757
v 0.03897944 0.00509663 -0.07079115
v 0.03897944 0.01609662 -0.07077613
v 0.03388132 0.01611125 -0.08148800
v 0.03650658 0.00510705 -0.07842394
v 0.02806164 0.01611575 -0.08479163
v 0.03388132 0.00511126 -0.08150301
v 0.03243155 0.00511284 -0.08266107
v 0.03054861 0.01611438 -0.08378269
v 0.03054861 0.00511439 -0.08379770
v 0.03824545 0.00510207 -0.07477032
v 0.03849999 -0.00494198 -0.04250679
v 0.02050000 -0.00494198 -0.04250678
v 0.00850001 0.01258940 -0.06548288
v 0.00849999 0.01255800 -0.04248290
v 0.00850000 -0.00496519 -0.02550682
v 0.00850000 0.00503480 -0.02549317
v 0.00849999 -0.00494198 -0.04250679
v 0.00850000 0.00504436 -0.03249316
v 0.00850000 0.00542757 -0.03440604
v 0.00850000 0.00651365 -0.03602666
v 0.00850000 0.00813724 -0.03710833
v 0.00850000 0.01005118 -0.03748633
v 0.03849999 0.01255800 -0.04248291
v 0.03849999 0.01258940 -0.06548287
v 0.03850000 0.00542757 -0.03440605
v 0.03850000 0.00651365 -0.03602668
v 0.03850000 0.01005118 -0.03748631
v 0.03850000 0.00813724 -0.03710832
v 0.02050000 0.00149645 0.00260012
v 0.02050001 0.00259603 0.00150355
v 0.02050000 0.00249328 0.00492842
v 0.02049999 0.00150355 -0.00259603
v 0.02050000 0.00250309 -0.00225909
v 0.02050000 0.00260012 -0.00149647
v 0.02050000 -0.00249691 -0.00226592
v 0.02050001 -0.00249356 -0.00471590
v 0.02050000 0.00978524 -0.00224915
v 0.02050000 0.01455307 -0.00224264
v 0.02049999 0.00479220 -0.00735211
v 0.02050000 0.00706169 -0.00856402
v 0.02049999 0.00889220 -0.00734651
v 0.02050000 0.00783140 -0.00933164
v 0.02050000 0.00811418 -0.01038125
v 0.02050000 0.00783426 -0.01143163
v 0.02049999 0.00891495 -0.03735709
v 0.02049999 0.00504436 -0.03249315
v 0.02050000 0.00542757 -0.03440605
v 0.02050001 0.00651365 -0.03602668
v 0.02050000 0.00813724 -0.03710832
v 0.02049999 0.00251005 -0.00735523
v 0.02049999 0.00706666 -0.01220134
v 0.02050000 -0.00493830 -0.00858040
v 0.02050000 -0.00416859 -0.00934802
v 0.02049999 -0.00343995 -0.00736335
v 0.02050000 -0.00388581 -0.01039763
v 0.02050000 -0.00416573 -0.01144800
v 0.02049999 -0.00493333 -0.01221771
v 0.02049999 -0.00887211 -0.00737076
v 0.02050000 -0.00882686 -0.04051978
v 0.02050000 -0.00683183 -0.04250936
v 0.02049999 -0.01498994 -0.00737911
v 0.02050000 -0.01495304 -0.03441030
v 0.02050000 -0.01499690 -0.00228298
v 0.02050000 -0.00887907 -0.00227463
v 0.02049999 -0.01094751 -0.00183361
v 0.02050000 -0.01446395 0.00397416
v 0.02050001 -0.01416180 0.00494404
v 0.02050000 -0.01499998 -0.00002048
v 0.02050001 -0.01499970 0.00009521
v 0.02050000 -0.01095247 0.00180370
v 0.02050000 -0.00888888 0.00491288
v 0.02050000 -0.01018277 0.00103609
v 0.02050000 -0.00989999 -0.00001352
v 0.02050000 -0.01017990 -0.00106390
v 0.02049999 -0.01053907 0.01067372
v 0.02050000 -0.01294252 0.00758229
v 0.02050000 -0.00889249 0.00755903
v 0.02050000 -0.00479249 0.00756462
v 0.02050000 -0.00346033 0.00756644
v 0.02049999 -0.00419410 0.00933659
v 0.02049999 -0.00496170 0.00856688
v 0.02050000 -0.00496667 0.01220419
v 0.02049999 -0.00419696 0.01143658
v 0.02050000 -0.00391418 0.01038697
v 0.02050000 -0.00251033 0.00756774
v 0.02050001 0.00098556 0.01058341
v 0.02050001 0.00171860 0.00985235
v 0.02050000 0.00198792 0.00885273
v 0.02050000 0.00248967 0.00757456
v 0.02049999 0.00172133 0.00785234
v 0.02049999 0.00780589 0.00935297
v 0.02049999 0.00703829 0.00858326
v 0.02050000 0.00887182 0.00758327
v 0.02050000 0.00477182 0.00757768
v 0.02050000 0.00703332 0.01222057
v 0.02049999 0.00780303 0.01145296
v 0.02050000 0.00808581 0.01040335
v 0.02050000 0.00977182 0.00758450
v 0.02050000 0.01409999 0.00001924
v 0.02050000 0.01382007 -0.00103114
v 0.02049999 0.01305247 -0.00180085
v 0.02050000 0.01381720 0.00106885
v 0.02050000 0.01304751 0.00183646
v 0.02050000 0.00977543 0.00493836
v 0.02050000 0.01005118 -0.03748631
v 0.02049999 0.00979220 -0.00734529
v 0.02050001 -0.00665592 -0.00616614
v 0.02049999 -0.00477212 -0.00736517
v 0.02050001 -0.00666064 -0.00270204
v 0.02050000 -0.00477907 -0.00226903
v 0.02050000 -0.00592759 -0.00343310
v 0.02050001 -0.00477573 -0.00471902
v 0.02050000 -0.00565828 -0.00443272
v 0.02050001 -0.00592486 -0.00543310
v 0.02050001 -0.01499355 -0.00473297
v 0.02050001 0.00867272 -0.00614521
v 0.02050001 0.00478859 -0.00470596
v 0.02050000 0.00478524 -0.00225598
v 0.02050000 0.00888524 -0.00225038
v 0.02050001 0.00866799 -0.00268111
v 0.02050000 0.00940104 -0.00341218
v 0.02050000 0.00967036 -0.00441180
v 0.02050001 0.00099028 0.00711931
v 0.02050000 -0.00250672 0.00492159
v 0.02050001 0.00250643 -0.00470908
v 0.02050000 0.00477543 0.00493153
v 0.02050000 -0.00344691 -0.00226721
v 0.02050000 -0.00345672 0.00492029
v 0.02049999 -0.00248995 -0.00736205
v 0.02050000 0.01460117 -0.03748010
v 0.02049999 0.01456003 -0.00733878
v 0.02050001 0.00978859 -0.00469914
v 0.02050001 0.01455642 -0.00469263
v 0.02050001 -0.00344356 -0.00471720
v 0.02050000 0.00299999 0.00000409
v 0.02050001 0.00940377 -0.00541218
v 0.02050000 -0.00478888 0.00491848
v 0.02050000 0.00887543 0.00493713
v 0.00050000 -0.01499970 0.00009520
v 0.00050000 -0.01482297 -0.00229772
v 0.00050000 -0.01451324 -0.00379025
v 0.00050000 -0.01303772 -0.00741741
v 0.00050001 -0.01067371 -0.01053908
v 0.00050000 -0.00758230 -0.01294251
v 0.00050000 -0.00397417 -0.01446397
v 0.00050000 -0.00009521 -0.01499971
v 0.00049999 0.00379025 -0.01451324
v 0.00050001 -0.01294252 0.00758230
v 0.00050000 -0.01053907 0.01067370
v 0.00050000 -0.01446395 0.00397417
v 0.00050000 0.00149645 0.00260013
v 0.00050000 0.00249652 0.00255342
v 0.00050000 0.00259603 0.00150353
v 0.00050000 0.01455307 -0.00224263
v 0.00050000 0.01454650 0.00256987
v 0.00050000 -0.00476340 -0.01375268
v 0.00050000 -0.00887211 -0.00737078
v 0.00050000 -0.01095247 0.00180372
v 0.00050001 -0.00889249 0.00755901
v 0.00050000 -0.00496667 0.01220420
v 0.00050000 -0.01094751 -0.00183359
v 0.00050000 -0.00887907 -0.00227462
v 0.00050000 -0.01018277 0.00103610
v 0.00050000 -0.00888564 0.00253789
v 0.00049999 -0.00989999 -0.00001351
v 0.00050000 -0.01017990 -0.00106388
v 0.00049999 -0.00888888 0.00491286
v 0.00050000 -0.00343123 -0.01375086
v 0.00050000 -0.00248123 -0.01374956
v 0.00050000 0.00251876 -0.01374274
v 0.00050000 0.00480092 -0.01373962
v 0.00050000 0.00783140 -0.00933162
v 0.00050000 0.00706169 -0.00856401
v 0.00050000 0.00889220 -0.00734653
v 0.00050000 0.00706666 -0.01220132
v 0.00050000 0.00783426 -0.01143161
v 0.00049999 0.00811418 -0.01038123
v 0.00050000 0.00979220 -0.00734530
v 0.00050001 0.00977182 0.00758448
v 0.00050001 0.00887182 0.00758325
v 0.00050000 0.00703829 0.00858327
v 0.00050001 0.00477182 0.00757766
v 0.00050000 0.00780589 0.00935295
v 0.00050001 0.00808581 0.01040336
v 0.00050000 0.00780303 0.01145297
v 0.00050000 0.00703332 0.01222058
v 0.00050001 0.00248967 0.00757454
v 0.00050000 0.00172133 0.00785236
v 0.00050000 0.00198792 0.00885271
v 0.00050000 0.00098556 0.01058339
v 0.00050000 0.00171860 0.00985236
v 0.00050000 -0.00496170 0.00856689
v 0.00050000 -0.00419410 0.00933657
v 0.00050001 -0.00346033 0.00756642
v 0.00050001 -0.00391418 0.01038698
v 0.00050000 -0.00419696 0.01143659
v 0.00050000 -0.00493333 -0.01221770
v 0.00050000 -0.00416573 -0.01144799
v 0.00049999 -0.00388581 -0.01039761
v 0.00050000 -0.00493830 -0.00858039
v 0.00050000 -0.00477212 -0.00736518
v 0.00050000 -0.00416859 -0.00934800
v 0.00050000 -0.00343995 -0.00736337
v 0.00050000 0.00251005 -0.00735524
v 0.00049999 -0.00592759 -0.00343309
v 0.00049999 -0.00666064 -0.00270205
v 0.00050000 -0.00477907 -0.00226902
v 0.00050000 -0.00665592 -0.00616615
v 0.00050000 -0.00592486 -0.00543309
v 0.00050000 -0.00565828 -0.00443274
v 0.00050000 0.00478524 -0.00225597
v 0.00050000 0.00479220 -0.00735213
v 0.00050000 0.00967036 -0.00441182
v 0.00050000 0.00978524 -0.00224914
v 0.00049999 0.00940104 -0.00341217
v 0.00050000 0.00867272 -0.00614523
v 0.00050000 0.00940377 -0.00541217
v 0.00050001 -0.00251033 0.00756772
v 0.00049999 -0.00250672 0.00492157
v 0.00050000 0.00099028 0.00711932
v 0.00049999 0.00249328 0.00492840
v 0.00050000 -0.00248995 -0.00736207
v 0.00050000 0.00150355 -0.00259602
v 0.00050000 0.00250309 -0.00225908
v 0.00050000 -0.00249691 -0.00226591
v 0.00050000 -0.00344691 -0.00226720
v 0.00050000 -0.00345348 0.00254530
v 0.00050000 -0.00250348 0.00254660
v 0.00050001 0.00260012 -0.00149646
v 0.00049999 0.00299999 0.00000410
v 0.00050000 0.00477868 0.00255654
v 0.00049999 -0.00345672 0.00492028
v 0.00049999 0.00477543 0.00493151
v 0.00049999 0.00887543 0.00493711
v 0.00049999 0.00977543 0.00493834
v 0.00050000 0.00887867 0.00256213
v 0.00050000 0.00977867 0.00256336
v 0.00050000 0.00888524 -0.00225037
v 0.00050001 -0.00479249 0.00756460
v 0.00049999 -0.00478888 0.00491846
v 0.00050000 -0.00478564 0.00254348
v 0.00049999 0.00866799 -0.00268113
v 0.00050000 0.01305247 -0.00180084
v 0.00050000 0.01382007 -0.00103113
v 0.00049999 0.01409999 0.00001925
v 0.00050000 0.01381720 0.00106886
v 0.00050000 0.01304751 0.00183648
v 0.03235700 0.00510591 -0.07758944
v 0.02772444 0.00510833 -0.07936049
v 0.02647484 0.00510591 -0.07758932
v 0.02744978 0.00510973 -0.08038549
v 0.02847482 0.00510731 -0.07861017
v 0.02847475 0.00511215 -0.08216087
v 0.02772440 0.00511113 -0.08141049
v 0.02249977 0.00510999 -0.08057512
v 0.02176774 0.00510899 -0.07984306
v 0.01647474 0.00511215 -0.08216061
v 0.01572440 0.00511113 -0.08141024
v 0.01544978 0.00510973 -0.08038524
v 0.01572445 0.00510833 -0.07936024
v 0.01647481 0.00510731 -0.07860991
v 0.01464268 0.00510591 -0.07758906
v 0.01869268 0.00510591 -0.07758915
v 0.02149981 0.00510762 -0.07884306
v 0.01369267 0.00510591 -0.07758904
v 0.01369288 0.00509249 -0.06775540
v 0.00944999 0.00509554 -0.06999281
v 0.00972467 0.00509415 -0.06896781
v 0.01369274 0.00510162 -0.07444289
v 0.01047504 0.00509312 -0.06821748
v 0.00972463 0.00509694 -0.07101781
v 0.01047496 0.00509797 -0.07176819
v 0.01369299 0.00508547 -0.06260925
v 0.01464300 0.00508547 -0.06260927
v 0.01647518 0.00508378 -0.06137602
v 0.01572485 0.00508276 -0.06062565
v 0.01545023 0.00508136 -0.05960064
v 0.01572489 0.00507996 -0.05857566
v 0.02647516 0.00508547 -0.06260952
v 0.01869300 0.00508547 -0.06260936
v 0.01647526 0.00507894 -0.05782531
v 0.03235732 0.00508547 -0.06260965
v 0.02847519 0.00508378 -0.06137627
v 0.02847527 0.00507894 -0.05782557
v 0.02772484 0.00508276 -0.06062591
v 0.02745022 0.00508136 -0.05960090
v 0.02772489 0.00507996 -0.05857591
v 0.03330731 0.00508547 -0.06260967
v 0.03330720 0.00509249 -0.06775583
v 0.03345000 0.00509555 -0.06999332
v 0.03372466 0.00509415 -0.06896833
v 0.03330706 0.00510162 -0.07444331
v 0.03447497 0.00509797 -0.07176870
v 0.03372462 0.00509694 -0.07101832
v 0.03447504 0.00509312 -0.06821799
v 0.03330699 0.00510591 -0.07758947
v 0.02647491 0.00510162 -0.07444316
v 0.02249985 0.00510526 -0.07711103
v 0.01869275 0.00510162 -0.07444300
v 0.02176778 0.00510626 -0.07784306
v 0.01869289 0.00509249 -0.06775551
v 0.01464289 0.00509249 -0.06775542
v 0.01483573 0.00509187 -0.06729998
v 0.01410370 0.00509087 -0.06656791
v 0.01383577 0.00508950 -0.06556790
v 0.01410374 0.00508814 -0.06456791
v 0.01483581 0.00508714 -0.06383587
v 0.03235721 0.00509249 -0.06775580
v 0.02647505 0.00509249 -0.06775568
v 0.03016438 0.00509187 -0.06730030
v 0.02943235 0.00509087 -0.06656824
v 0.02916441 0.00508950 -0.06556823
v 0.02943239 0.00508814 -0.06456824
v 0.03016445 0.00508714 -0.06383620
v 0.01464274 0.00510162 -0.07444291
v 0.03235707 0.00510162 -0.07444329
v 0.01047496 0.01609796 -0.07175317
v 0.00972463 0.01609693 -0.07100279
v 0.00944999 0.01609553 -0.06997780
v 0.00972467 0.01609414 -0.06895280
v 0.01047504 0.01609311 -0.06820247
v 0.00839528 0.01609992 -0.07319019
v 0.00838840 0.01609083 -0.06652860
v 0.00839086 0.01609113 -0.06674956
v 0.00851491 0.01609963 -0.07297800
v 0.00848831 0.01609140 -0.06694786
v 0.00866172 0.01609159 -0.06708481
v 0.01027588 0.01609070 -0.06643327
v 0.00872059 0.01609945 -0.07284752
v 0.00896353 0.01609943 -0.07282972
v 0.02176778 0.01010626 -0.07783623
v 0.02149981 0.01010762 -0.07883623
v 0.02249985 0.01010526 -0.07710420
v 0.02249977 0.01010999 -0.08056830
v 0.02176774 0.01010899 -0.07983623
v 0.01410374 0.01008814 -0.06456108
v 0.01383577 0.01008950 -0.06556108
v 0.01483581 0.01008714 -0.06382905
v 0.01483573 0.01009187 -0.06729315
v 0.01410370 0.01009087 -0.06656109
v 0.02943239 0.01008814 -0.06456141
v 0.02916441 0.01008950 -0.06556141
v 0.03016445 0.01008714 -0.06382938
v 0.03016438 0.01009187 -0.06729348
v 0.02943235 0.01009087 -0.06656142
v 0.03861171 0.01609083 -0.06652916
v 0.01647518 0.01608377 -0.06136100
v 0.01572485 0.01608275 -0.06061064
v 0.01545023 0.01608135 -0.05958563
v 0.01572489 0.01607995 -0.05856064
v 0.01647526 0.01607892 -0.05781030
v 0.01562530 0.01607692 -0.05633804
v 0.01562516 0.01608578 -0.06283323
v 0.01425258 0.01608391 -0.06146060
v 0.01375023 0.01608135 -0.05958559
v 0.01425266 0.01607879 -0.05771060
v 0.02847519 0.01608377 -0.06136126
v 0.02772484 0.01608275 -0.06061089
v 0.02745022 0.01608135 -0.05958588
v 0.02772489 0.01607995 -0.05856090
v 0.02847527 0.01607893 -0.05781055
v 0.02762529 0.01607692 -0.05633830
v 0.02762515 0.01608578 -0.06283349
v 0.02625259 0.01608391 -0.06146085
v 0.02575022 0.01608135 -0.05958585
v 0.02625267 0.01607879 -0.05771086
v 0.03447497 0.01609796 -0.07175368
v 0.03372462 0.01609693 -0.07100330
v 0.03345000 0.01609553 -0.06997831
v 0.03372466 0.01609414 -0.06895331
v 0.03447504 0.01609311 -0.06820298
v 0.03781381 0.01609956 -0.07292941
v 0.03672390 0.01610037 -0.07352301
v 0.03795913 0.01609945 -0.07285026
v 0.03803555 0.01609164 -0.06712658
v 0.03860374 0.01609116 -0.06677137
v 0.03848280 0.01609144 -0.06698137
v 0.03827731 0.01609162 -0.06710982
v 0.02847475 0.01611214 -0.08214585
v 0.02772440 0.01611112 -0.08139548
v 0.02744978 0.01610972 -0.08037048
v 0.02772444 0.01610832 -0.07934548
v 0.02847482 0.01610730 -0.07859515
v 0.02826997 0.01611558 -0.08466541
v 0.02839392 0.01611530 -0.08445571
v 0.02829805 0.01611467 -0.08399304
v 0.02810099 0.01611447 -0.08384987
v 0.02661169 0.01611299 -0.08276247
v 0.02582075 0.01611071 -0.08109666
v 0.02591945 0.01610820 -0.07925529
v 0.02840408 0.01611496 -0.08421234
v 0.02688390 0.01610605 -0.07768357
v 0.02848090 0.01610479 -0.07676160
v 0.03032427 0.01610473 -0.07671228
v 0.03196827 0.01610587 -0.07754759
v 0.03301537 0.01610794 -0.07906549
v 0.03321236 0.01611044 -0.08089897
v 0.03322776 0.01611073 -0.08111081
v 0.03332971 0.01611098 -0.08129713
v 0.03349981 0.01611116 -0.08142431
v 0.01647474 0.01611214 -0.08214559
v 0.01572440 0.01611112 -0.08139522
v 0.01544978 0.01610972 -0.08037023
v 0.01572445 0.01610832 -0.07934523
v 0.01647481 0.01610730 -0.07859489
v 0.01340896 0.01611120 -0.08145516
v 0.01872941 0.01611558 -0.08466521
v 0.01860546 0.01611530 -0.08445550
v 0.01316538 0.01611120 -0.08145265
v 0.02011577 0.01610605 -0.07768342
v 0.02108015 0.01610820 -0.07925519
v 0.02117877 0.01611071 -0.08109657
v 0.02038777 0.01611299 -0.08276234
v 0.01889842 0.01611447 -0.08384967
v 0.01870135 0.01611466 -0.08399284
v 0.01859531 0.01611496 -0.08421213
v 0.01362482 0.01611105 -0.08134227
v 0.01376172 0.01611077 -0.08114080
v 0.01378717 0.01611044 -0.08089855
v 0.01398424 0.01610794 -0.07906509
v 0.01503140 0.01610587 -0.07754722
v 0.01667544 0.01610473 -0.07671199
v 0.01851881 0.01610479 -0.07676138
f 1 2 3
f 3 2 4
f 3 4 5
f 5 4 6
f 5 6 7
f 7 6 8
f 7 8 9
f 9 8 10
f 9 10 11
f 11 10 12
f 11 12 13
f 13 12 14
f 15 16 17
f 15 17 18
f 18 17 19
f 18 19 20
f 21 22 23
f 21 23 24
f 24 23 25
f 24 25 26
f 27 28 29
f 27 29 30
f 30 29 31
f 30 31 32
f 32 31 33
f 32 33 34
f 34 33 35
f 34 35 36
f 37 38 39
f 39 38 40
f 39 40 41
f 41 40 42
f 41 42 43
f 43 42 44
f 43 44 45
f 45 44 46
f 45 46 47
f 47 46 48
f 47 48 49
f 49 48 50
f 51 52 53
f 53 52 54
f 53 54 55
f 55 54 56
f 55 56 57
f 57 56 58
f 57 58 59
f 59 58 60
f 59 60 61
f 61 60 62
f 61 62 63
f 63 62 64
f 65 66 67
f 67 66 68
f 67 68 69
f 69 68 70
f 71 72 73
f 73 72 74
f 73 74 75
f 75 74 76
f 75 76 77
f 77 76 78
f 77 78 79
f 79 78 80
f 79 80 81
f 81 80 82
f 81 82 65
f 65 82 66
f 83 84 85
f 85 84 86
f 85 86 87
f 87 86 88
f 87 88 89
f 89 88 90
f 89 90 91
f 91 90 92
f 91 92 93
f 93 92 94
f 93 94 95
f 95 94 96
f 97 98 99
f 99 98 100
f 99 100 101
f 101 100 102
f 101 102 103
f 103 102 104
f 103 104 105
f 105 104 106
f 105 106 107
f 107 106 108
f 107 108 109
f 109 108 110
f 111 112 113
f 113 112 114
f 113 114 115
f 115 114 116
f 115 116 117
f 117 116 118
f 117 118 119
f 119 118 120
f 119 120 121
f 121 120 122
f 121 122 123
f 123 122 124
f 125 126 127
f 127 126 128
f 127 128 129
f 129 128 130
f 129 130 131
f 131 130 132
f 131 132 133
f 133 132 134
f 133 134 135
f 135 134 136
f 135 136 137
f 137 136 138
f 139 140 141
f 141 140 142
f 141 142 143
f 143 142 144
f 143 144 145
f 145 144 146
f 145 146 147
f 147 146 148
f 147 148 149
f 149 148 150
f 149 150 151
f 151 150 152
f 153 154 155
f 155 154 156
f 155 156 157
f 157 156 158
f 157 158 159
f 159 158 160
f 159 160 161
f 161 160 162
f 161 162 163
f 163 162 164
f 163 164 165
f 165 164 166
f 167 157 159
f 155 157 167
f 153 155 167
f 167 163 165
f 161 163 167
f 159 161 167
f 168 169 170
f 170 169 171
f 170 171 172
f 172 171 173
f 172 173 174
f 174 173 175
f 174 175 176
f 176 175 177
f 176 177 178
f 178 177 179
f 178 179 180
f 180 179 181
f 182 172 174
f 170 172 182
f 168 170 182
f 182 178 180
f 176 178 182
f 174 176 182
f 183 184 185
f 185 184 186
f 185 186 187
f 187 186 188
f 187 188 189
f 189 188 190
f 189 190 191
f 191 190 192
f 191 192 193
f 193 192 194
f 193 194 195
f 195 194 196
f 197 187 189
f 185 187 197
f 183 185 197
f 197 193 195
f 191 193 197
f 189 191 197
f 198 199 200
f 200 199 201
f 200 201 202
f 202 201 203
f 202 203 204
f 204 203 205
f 204 205 206
f 206 205 207
f 206 207 208
f 208 207 209
f 208 209 210
f 210 209 211
f 212 213 214
f 214 213 215
f 214 215 216
f 216 215 217
f 216 217 218
f 218 217 219
f 218 219 220
f 220 219 221
f 220 221 222
f 222 221 223
f 222 223 224
f 224 223 225
f 226 227 228
f 228 227 229
f 228 229 230
f 230 229 231
f 230 231 232
f 232 231 233
f 232 233 234
f 234 233 235
f 234 235 236
f 236 235 237
f 236 237 238
f 238 237 239
f 240 241 242
f 242 241 243
f 242 243 244
f 244 243 245
f 244 245 246
f 246 245 247
f 246 247 248
f 248 247 249
f 248 249 250
f 250 249 251
f 250 251 252
f 252 251 253
f 254 255 256
f 256 255 257
f 256 257 258
f 258 257 259
f 258 259 260
f 260 259 261
f 260 261 262
f 262 261 263
f 262 263 264
f 264 263 265
f 264 265 266
f 266 265 267
f 268 269 270
f 270 269 271
f 270 271 272
f 272 271 273
f 272 273 274
f 274 273 275
f 274 275 276
f 276 275 277
f 276 277 278
f 278 277 279
f 278 279 280
f 280 279 281
f 282 283 284
f 284 283 285
f 284 285 286
f 286 285 287
f 286 287 288
f 288 287 289
f 288 289 290
f 290 289 291
f 290 291 292
f 292 291 293
f 292 293 294
f 294 293 295
f 296 297 298
f 298 297 299
f 298 299 300
f 300 299 301
f 300 301 302
f 302 301 303
f 302 303 304
f 304 303 305
f 304 305 306
f 306 305 307
f 306 307 308
f 308 307 309
f 310 311 312
f 312 311 313
f 312 313 314
f 314 313 315
f 314 315 316
f 316 315 317
f 316 317 318
f 318 317 319
f 318 319 320
f 320 319 321
f 320 321 322
f 322 321 323
f 324 325 326
f 326 325 327
f 326 327 328
f 328 327 329
f 328 329 330
f 330 329 331
f 330 331 332
f 332 331 333
f 332 333 334
f 334 333 335
f 334 335 336
f 336 335 337
f 336 337 338
f 338 337 339
f 338 339 340
f 340 339 341
f 342 343 344
f 344 343 345
f 344 345 346
f 346 345 347
f 346 347 348
f 348 347 349
f 348 349 350
f 350 349 351
f 350 351 352
f 352 351 353
f 352 353 354
f 354 353 355
f 356 357 358
f 359 360 361
f 359 361 362
f 358 363 356
f 356 363 364
f 356 364 365
f 365 364 366
f 365 366 367
f 367 366 362
f 367 362 368
f 368 362 361
f 369 358 370
f 370 358 357
f 370 357 371
f 371 357 372
f 371 372 373
f 373 372 374
f 373 374 375
f 375 374 376
f 376 374 377
f 376 377 378
f 377 379 378
f 378 379 380
f 378 380 381
f 381 380 382
f 382 380 383
f 382 383 384
f 384 383 385
f 384 385 386
f 386 385 387
f 386 387 388
f 387 389 388
f 388 389 390
f 388 390 391
f 392 393 394
f 395 396 397
f 398 399 400
f 400 399 401
f 400 401 402
f 403 404 405
f 406 407 408
f 409 410 411
f 408 412 406
f 406 412 411
f 406 411 413
f 413 411 410
f 413 410 414
f 411 415 409
f 409 415 416
f 409 416 417
f 417 416 418
f 417 418 419
f 419 418 420
f 419 420 394
f 394 420 421
f 394 421 392
f 402 401 405
f 405 401 422
f 405 422 403
f 403 422 408
f 403 408 423
f 423 408 407
f 423 407 424
f 400 395 398
f 398 395 397
f 398 397 425
f 425 397 426
f 425 426 427
f 327 428 429
f 327 429 329
f 329 429 138
f 329 138 331
f 102 430 104
f 104 430 431
f 104 431 106
f 432 433 98
f 98 433 430
f 98 430 100
f 100 430 102
f 423 434 403
f 403 434 435
f 403 435 404
f 436 437 76
f 76 437 438
f 76 438 78
f 25 439 440
f 440 439 441
f 440 441 436
f 442 443 333
f 333 443 444
f 333 444 335
f 335 444 445
f 335 445 337
f 337 445 434
f 337 434 339
f 339 434 423
f 339 423 341
f 341 423 424
f 341 424 446
f 447 448 449
f 449 448 404
f 449 404 450
f 450 404 435
f 126 433 128
f 128 433 432
f 128 432 130
f 130 432 451
f 130 451 132
f 132 451 452
f 132 452 134
f 134 452 453
f 134 453 136
f 136 453 138
f 454 455 456
f 126 457 433
f 433 457 458
f 433 458 459
f 80 110 82
f 82 110 108
f 82 108 66
f 66 108 106
f 66 106 68
f 68 106 431
f 68 431 70
f 70 431 460
f 333 331 442
f 442 331 138
f 442 138 456
f 456 138 453
f 456 453 454
f 76 74 436
f 436 74 72
f 436 72 440
f 440 72 461
f 440 461 462
f 462 461 463
f 462 463 36
f 464 465 424
f 424 465 466
f 424 466 446
f 80 78 110
f 110 78 438
f 110 438 454
f 454 438 467
f 454 467 455
f 455 467 468
f 455 468 469
f 469 468 470
f 428 327 459
f 459 327 325
f 459 325 433
f 433 325 471
f 433 471 472
f 472 471 19
f 472 19 473
f 22 474 475
f 476 477 478
f 478 477 70
f 478 70 479
f 479 70 460
f 480 481 473
f 25 23 439
f 439 23 22
f 439 22 482
f 482 22 475
f 397 483 426
f 426 483 484
f 426 484 485
f 27 30 32
f 486 487 488
f 489 490 491
f 463 492 36
f 36 492 27
f 36 27 34
f 34 27 32
f 470 483 469
f 469 483 397
f 469 397 493
f 493 397 396
f 493 396 488
f 488 396 494
f 488 494 486
f 485 484 491
f 491 484 495
f 491 495 489
f 496 480 16
f 16 480 473
f 16 473 17
f 17 473 19
f 497 498 499
f 499 498 500
f 501 502 503
f 503 502 504
f 503 504 505
f 505 504 506
f 506 507 505
f 505 507 508
f 505 508 509
f 363 358 510
f 511 512 513
f 514 366 510
f 510 366 364
f 510 364 363
f 515 498 516
f 516 498 517
f 514 518 519
f 515 520 498
f 498 520 521
f 498 521 500
f 500 521 522
f 500 522 359
f 523 524 498
f 498 524 511
f 498 511 517
f 517 511 513
f 359 362 500
f 500 362 366
f 500 366 525
f 525 366 514
f 525 514 526
f 526 514 519
f 358 369 527
f 528 510 529
f 529 510 358
f 529 358 530
f 530 358 527
f 531 532 533
f 393 392 534
f 393 534 535
f 535 534 536
f 535 536 537
f 537 536 538
f 537 538 539
f 539 538 540
f 539 540 533
f 533 540 541
f 533 541 531
f 542 543 544
f 532 531 544
f 544 531 545
f 544 545 542
f 542 545 546
f 542 546 547
f 462 36 35
f 548 26 549
f 426 485 550
f 549 551 548
f 548 551 552
f 548 552 553
f 553 552 554
f 553 554 550
f 550 554 427
f 550 427 426
f 547 546 35
f 35 546 555
f 35 555 462
f 462 555 549
f 462 549 440
f 440 549 26
f 440 26 25
f 505 509 556
f 556 509 557
f 472 558 433
f 433 558 559
f 560 561 562
f 562 561 563
f 562 563 564
f 564 565 562
f 562 565 566
f 562 566 559
f 559 566 567
f 559 567 433
f 568 569 431
f 503 505 570
f 570 505 556
f 570 556 571
f 431 430 568
f 568 430 572
f 568 572 556
f 556 572 573
f 556 573 571
f 574 575 576
f 577 578 579
f 3 580 581
f 268 582 583
f 290 292 584
f 294 585 586
f 586 585 587
f 586 587 588
f 588 589 590
f 591 592 593
f 589 501 590
f 590 501 591
f 590 591 594
f 594 591 593
f 288 595 504
f 589 596 501
f 501 596 282
f 501 282 502
f 502 282 284
f 502 284 504
f 504 284 286
f 504 286 288
f 597 598 599
f 599 598 600
f 599 600 507
f 507 600 601
f 507 601 508
f 508 601 602
f 508 602 509
f 509 602 296
f 509 296 298
f 306 603 304
f 304 603 302
f 604 300 302
f 605 557 604
f 604 557 509
f 604 509 300
f 300 509 298
f 302 603 604
f 604 603 606
f 604 606 607
f 608 609 310
f 310 609 610
f 316 318 611
f 611 318 320
f 611 320 612
f 310 312 608
f 608 312 314
f 608 314 613
f 613 314 316
f 613 316 614
f 614 316 611
f 322 615 616
f 615 617 616
f 616 617 618
f 616 618 609
f 609 618 619
f 609 619 610
f 620 621 622
f 622 621 612
f 622 623 240
f 240 242 622
f 622 242 244
f 622 244 620
f 252 388 250
f 250 388 391
f 250 391 248
f 248 391 620
f 248 620 246
f 246 620 244
f 624 625 623
f 623 625 626
f 623 626 240
f 252 627 388
f 388 627 628
f 388 628 629
f 630 202 204
f 204 386 630
f 630 386 388
f 630 388 624
f 624 388 629
f 624 629 625
f 631 382 210
f 210 382 384
f 210 384 208
f 208 384 386
f 208 386 206
f 206 386 204
f 631 632 382
f 382 632 633
f 382 633 634
f 634 633 635
f 634 260 382
f 382 260 262
f 382 262 381
f 636 637 638
f 638 637 254
f 638 254 639
f 639 254 256
f 639 256 634
f 634 256 258
f 634 258 260
f 262 264 381
f 381 264 266
f 381 266 378
f 378 266 640
f 378 640 376
f 376 640 641
f 376 641 642
f 373 375 643
f 643 375 376
f 643 376 638
f 638 376 642
f 638 642 636
f 644 645 583
f 583 645 646
f 583 646 268
f 268 270 582
f 582 270 272
f 582 272 274
f 647 370 648
f 648 370 371
f 648 371 280
f 280 371 373
f 280 373 278
f 278 373 649
f 278 649 276
f 276 649 274
f 647 644 370
f 370 644 583
f 370 583 369
f 369 583 527
f 588 590 586
f 586 590 650
f 586 650 651
f 652 603 653
f 653 603 306
f 653 306 308
f 238 654 655
f 655 654 656
f 655 656 657
f 657 656 658
f 657 658 653
f 653 658 659
f 653 659 652
f 236 609 234
f 234 609 608
f 234 608 232
f 232 608 660
f 232 660 230
f 230 660 606
f 230 606 228
f 228 606 603
f 228 603 226
f 226 603 652
f 661 212 586
f 586 212 584
f 586 584 294
f 294 584 292
f 212 214 584
f 584 214 216
f 584 216 662
f 662 216 218
f 662 218 663
f 663 218 220
f 220 222 663
f 663 222 224
f 663 224 664
f 664 224 665
f 664 665 582
f 582 665 666
f 582 666 667
f 576 668 669
f 669 668 198
f 669 198 200
f 578 577 670
f 3 581 1
f 576 575 671
f 5 7 672
f 672 7 673
f 673 7 9
f 673 9 669
f 669 9 11
f 669 11 576
f 576 11 13
f 576 13 574
f 506 504 674
f 674 504 595
f 674 595 581
f 581 595 670
f 581 670 1
f 1 670 577
f 650 675 651
f 651 675 676
f 651 676 677
f 677 676 678
f 675 528 676
f 676 528 529
f 676 529 678
f 678 529 530
f 507 506 599
f 599 506 674
f 599 674 679
f 679 674 581
f 679 581 672
f 672 581 580
f 672 580 5
f 5 580 3
f 288 290 595
f 595 290 584
f 595 584 670
f 670 584 662
f 670 662 578
f 578 662 663
f 578 663 579
f 579 663 680
f 661 586 681
f 681 586 651
f 681 651 667
f 667 651 677
f 667 677 582
f 582 677 678
f 582 678 583
f 583 678 530
f 583 530 527
f 236 238 609
f 609 238 655
f 609 655 616
f 616 655 682
f 308 597 653
f 653 597 599
f 653 599 657
f 657 599 679
f 657 679 655
f 655 679 672
f 655 672 682
f 682 672 673
f 274 649 582
f 582 649 683
f 582 683 664
f 664 683 671
f 664 671 663
f 663 671 575
f 663 575 680
f 320 322 612
f 612 322 616
f 612 616 622
f 622 616 682
f 622 682 623
f 623 682 673
f 623 673 624
f 624 673 669
f 624 669 630
f 630 669 200
f 630 200 202
f 373 643 649
f 649 643 638
f 649 638 683
f 683 638 639
f 683 639 671
f 671 639 634
f 671 634 576
f 576 634 635
f 576 635 668
f 512 613 614
f 684 685 512
f 512 685 513
f 685 686 513
f 513 686 687
f 513 687 517
f 517 687 688
f 517 688 516
f 516 688 689
f 516 689 515
f 515 689 690
f 515 690 520
f 520 690 691
f 520 691 521
f 521 691 692
f 521 692 522
f 522 692 360
f 522 360 359
f 693 620 694
f 694 620 391
f 694 391 390
f 512 614 684
f 684 614 611
f 684 611 695
f 695 611 612
f 695 612 693
f 693 612 621
f 693 621 620
f 511 607 512
f 512 607 606
f 606 660 512
f 512 660 608
f 512 608 613
f 523 562 559
f 568 556 557
f 605 524 557
f 557 524 523
f 557 523 568
f 568 523 559
f 562 523 560
f 560 523 498
f 560 498 497
f 417 419 559
f 568 537 539
f 539 533 568
f 568 533 532
f 568 532 569
f 569 532 544
f 417 559 409
f 409 559 558
f 409 558 410
f 419 394 559
f 559 394 393
f 559 393 568
f 568 393 535
f 568 535 537
f 433 567 514
f 650 572 675
f 675 572 430
f 675 430 528
f 528 430 433
f 528 433 510
f 510 433 514
f 696 697 698
f 365 699 356
f 356 699 700
f 356 700 357
f 689 701 690
f 687 702 688
f 703 323 695
f 247 245 704
f 704 245 243
f 249 694 251
f 251 694 390
f 251 390 253
f 253 390 389
f 253 389 705
f 706 707 311
f 311 707 685
f 311 685 313
f 323 321 695
f 695 321 319
f 695 319 684
f 684 319 317
f 684 317 685
f 685 317 315
f 685 315 313
f 708 709 710
f 710 709 707
f 710 707 711
f 711 707 706
f 708 703 709
f 709 703 695
f 709 695 712
f 712 695 693
f 712 693 704
f 704 693 694
f 704 694 247
f 247 694 249
f 229 702 231
f 231 702 687
f 231 687 233
f 233 687 686
f 233 686 235
f 235 686 685
f 235 685 237
f 237 685 707
f 237 707 239
f 688 301 689
f 689 301 299
f 689 299 701
f 309 307 702
f 702 307 305
f 702 305 688
f 688 305 303
f 688 303 301
f 701 713 690
f 690 713 714
f 690 714 691
f 691 714 715
f 691 715 692
f 692 715 716
f 692 716 360
f 716 285 283
f 717 718 719
f 716 283 360
f 360 283 720
f 360 720 361
f 361 720 721
f 361 721 722
f 367 368 723
f 723 368 361
f 723 361 719
f 719 361 722
f 719 722 717
f 724 372 357
f 372 724 374
f 374 724 725
f 374 725 377
f 726 725 255
f 255 725 727
f 255 727 257
f 726 728 725
f 725 728 729
f 725 729 377
f 377 729 730
f 377 730 379
f 379 730 731
f 379 731 380
f 257 727 259
f 259 727 732
f 259 732 261
f 731 267 380
f 380 267 265
f 380 265 383
f 383 265 263
f 733 734 732
f 732 734 383
f 732 383 261
f 261 383 263
f 209 387 211
f 211 387 385
f 211 385 735
f 735 385 383
f 735 383 736
f 736 383 734
f 737 738 739
f 739 738 740
f 739 740 389
f 389 740 741
f 389 741 705
f 299 297 701
f 701 297 742
f 701 742 713
f 713 742 743
f 713 743 744
f 745 746 747
f 747 746 748
f 291 289 749
f 285 716 287
f 287 716 715
f 287 715 289
f 291 749 293
f 750 751 752
f 229 227 702
f 702 227 746
f 702 746 309
f 309 746 745
f 227 753 746
f 746 753 754
f 746 754 755
f 225 223 756
f 215 719 757
f 757 719 718
f 757 718 295
f 223 221 756
f 756 221 219
f 756 219 757
f 757 219 217
f 757 217 215
f 723 758 759
f 759 758 760
f 215 213 719
f 719 213 761
f 719 761 723
f 723 761 762
f 723 762 758
f 209 207 387
f 387 207 205
f 387 205 763
f 763 205 203
f 763 203 764
f 765 766 199
f 199 766 764
f 199 764 201
f 201 764 203
f 4 2 767
f 767 2 749
f 749 2 768
f 749 768 769
f 4 770 6
f 6 770 771
f 6 771 8
f 8 771 772
f 8 772 10
f 697 696 766
f 766 696 14
f 766 14 764
f 764 14 12
f 764 12 773
f 774 775 756
f 756 775 776
f 389 387 739
f 739 387 763
f 739 763 777
f 777 763 764
f 777 764 772
f 772 764 773
f 772 773 10
f 10 773 12
f 766 778 697
f 697 778 776
f 697 776 698
f 698 776 775
f 779 780 781
f 781 780 782
f 781 782 783
f 243 241 704
f 704 241 784
f 704 784 712
f 712 784 785
f 712 785 709
f 709 785 786
f 709 786 707
f 707 786 752
f 707 752 239
f 239 752 751
f 241 737 784
f 784 737 739
f 784 739 785
f 785 739 777
f 785 777 786
f 786 777 772
f 786 772 752
f 752 772 771
f 778 779 776
f 776 779 781
f 776 781 756
f 756 781 783
f 756 783 225
f 225 783 787
f 281 279 782
f 782 279 277
f 275 273 759
f 759 273 271
f 759 271 269
f 367 723 365
f 365 723 759
f 365 759 699
f 699 759 269
f 699 269 788
f 277 275 782
f 782 275 759
f 782 759 783
f 783 759 760
f 783 760 787
f 788 789 699
f 699 789 790
f 699 790 700
f 700 790 791
f 700 791 792
f 792 281 700
f 700 281 782
f 700 782 357
f 357 782 780
f 357 780 724
f 724 780 779
f 724 779 725
f 725 779 778
f 725 778 727
f 727 778 766
f 727 766 732
f 732 766 765
f 732 765 733
f 4 767 770
f 770 767 748
f 770 748 771
f 771 748 746
f 771 746 752
f 752 746 755
f 752 755 750
f 768 774 769
f 769 774 756
f 769 756 749
f 749 756 757
f 749 757 293
f 293 757 295
f 289 715 749
f 749 715 714
f 749 714 767
f 767 714 713
f 767 713 748
f 748 713 744
f 748 744 747
f 398 425 45
f 793 55 57
f 554 552 59
f 794 795 796
f 796 795 425
f 794 797 795
f 795 797 51
f 795 51 793
f 793 51 53
f 793 53 55
f 59 61 554
f 554 61 63
f 554 63 427
f 427 63 798
f 427 798 425
f 425 798 799
f 425 799 796
f 398 45 399
f 188 425 190
f 190 425 795
f 190 795 192
f 192 795 194
f 188 186 425
f 425 186 184
f 425 184 45
f 45 184 800
f 45 800 801
f 45 47 399
f 399 47 49
f 399 49 401
f 49 802 401
f 401 802 803
f 401 803 804
f 805 806 807
f 807 806 37
f 807 37 808
f 808 37 39
f 808 39 809
f 809 39 41
f 809 41 801
f 801 41 43
f 801 43 45
f 408 422 810
f 810 422 401
f 810 401 807
f 807 401 804
f 807 804 805
f 342 344 811
f 811 344 346
f 812 813 411
f 348 350 814
f 814 350 352
f 411 813 415
f 415 813 815
f 415 815 342
f 812 411 816
f 816 411 412
f 816 412 817
f 817 412 408
f 817 408 354
f 342 811 415
f 415 811 818
f 415 818 416
f 416 818 418
f 418 818 819
f 418 819 420
f 151 820 819
f 820 821 819
f 819 821 822
f 819 822 420
f 420 822 823
f 420 823 421
f 824 147 825
f 825 147 149
f 825 149 151
f 823 826 421
f 421 826 139
f 421 139 392
f 392 139 141
f 392 141 534
f 534 141 143
f 534 143 824
f 824 143 145
f 824 145 147
f 117 119 827
f 828 824 123
f 123 824 827
f 123 827 121
f 121 827 119
f 115 540 113
f 113 540 538
f 113 538 111
f 111 538 536
f 111 536 829
f 829 536 534
f 828 830 824
f 824 830 831
f 824 831 534
f 534 831 832
f 534 832 829
f 833 541 540
f 541 833 531
f 531 833 834
f 531 834 545
f 835 836 834
f 546 545 87
f 87 89 546
f 546 89 91
f 546 91 555
f 555 91 93
f 555 93 837
f 93 95 837
f 837 95 838
f 837 838 839
f 836 840 834
f 834 840 83
f 834 83 545
f 545 83 85
f 545 85 87
f 549 841 551
f 551 841 793
f 551 793 552
f 552 793 57
f 552 57 59
f 196 842 843
f 843 842 844
f 843 844 845
f 825 179 177
f 151 819 825
f 825 819 181
f 825 181 179
f 175 173 846
f 173 171 846
f 846 171 169
f 846 169 847
f 847 169 848
f 847 848 811
f 848 849 811
f 811 849 850
f 811 850 818
f 818 850 851
f 818 851 819
f 819 851 852
f 819 852 181
f 853 154 854
f 854 154 855
f 854 855 856
f 857 858 824
f 824 858 859
f 824 859 827
f 827 859 166
f 827 166 164
f 115 117 540
f 540 117 827
f 540 827 833
f 833 827 164
f 164 162 833
f 833 162 160
f 833 160 834
f 834 160 158
f 834 158 853
f 853 158 156
f 853 156 154
f 809 845 808
f 808 845 844
f 808 844 807
f 807 844 860
f 807 860 810
f 810 860 814
f 810 814 408
f 408 814 352
f 408 352 354
f 177 175 825
f 825 175 846
f 825 846 824
f 824 846 854
f 824 854 857
f 857 854 856
f 346 348 811
f 811 348 814
f 811 814 847
f 847 814 860
f 847 860 846
f 846 860 844
f 846 844 854
f 854 844 842
f 854 842 853
f 853 842 861
f 853 861 834
f 834 861 837
f 834 837 835
f 835 837 839
f 196 194 842
f 842 194 795
f 842 795 861
f 861 795 793
f 861 793 837
f 837 793 841
f 837 841 555
f 555 841 549
f 503 591 501
f 563 561 525
f 525 561 499
f 525 499 500
f 354 355 817
f 817 355 862
f 817 862 816
f 816 862 863
f 816 863 812
f 812 863 864
f 812 864 813
f 813 864 865
f 813 865 815
f 815 865 866
f 815 866 342
f 342 866 343
f 867 407 406
f 868 869 414
f 414 869 413
f 867 406 870
f 864 871 865
f 865 871 872
f 866 873 343
f 343 873 324
f 343 324 345
f 345 324 326
f 345 326 347
f 347 326 328
f 347 328 349
f 349 328 330
f 349 330 351
f 351 330 332
f 351 332 353
f 353 332 334
f 353 334 355
f 874 870 863
f 863 870 406
f 863 406 864
f 864 406 413
f 864 413 871
f 871 413 869
f 872 15 865
f 865 15 18
f 865 18 866
f 866 18 20
f 866 20 873
f 334 336 355
f 355 336 338
f 355 338 862
f 862 338 340
f 862 340 863
f 863 340 875
f 863 875 874
f 20 19 873
f 873 19 471
f 873 471 324
f 324 471 325
f 322 323 615
f 615 323 703
f 615 703 617
f 617 703 708
f 617 708 618
f 618 708 710
f 618 710 619
f 619 710 711
f 619 711 610
f 610 711 706
f 610 706 310
f 310 706 311
f 308 309 597
f 597 309 745
f 597 745 598
f 598 745 747
f 598 747 600
f 600 747 744
f 600 744 601
f 601 744 743
f 601 743 602
f 602 743 742
f 602 742 296
f 296 742 297
f 294 295 585
f 585 295 718
f 585 718 587
f 587 718 717
f 587 717 588
f 588 717 722
f 588 722 589
f 589 722 721
f 589 721 596
f 596 721 720
f 596 720 282
f 282 720 283
f 280 281 648
f 648 281 792
f 648 792 647
f 647 792 791
f 647 791 644
f 644 791 790
f 644 790 645
f 645 790 789
f 645 789 646
f 646 789 788
f 646 788 268
f 268 788 269
f 266 267 640
f 640 267 731
f 640 731 641
f 641 731 730
f 641 730 642
f 642 730 729
f 642 729 636
f 636 729 728
f 636 728 637
f 637 728 726
f 637 726 254
f 254 726 255
f 252 253 627
f 627 253 705
f 627 705 628
f 628 705 741
f 628 741 629
f 629 741 740
f 629 740 625
f 625 740 738
f 625 738 626
f 626 738 737
f 626 737 240
f 240 737 241
f 238 239 654
f 654 239 751
f 654 751 656
f 656 751 750
f 656 750 658
f 658 750 755
f 658 755 659
f 659 755 754
f 659 754 652
f 652 754 753
f 652 753 226
f 226 753 227
f 224 225 665
f 665 225 787
f 665 787 666
f 666 787 760
f 666 760 667
f 667 760 758
f 667 758 681
f 681 758 762
f 681 762 661
f 661 762 761
f 661 761 212
f 212 761 213
f 210 211 631
f 631 211 735
f 631 735 632
f 632 735 736
f 632 736 633
f 633 736 734
f 633 734 635
f 635 734 733
f 635 733 668
f 668 733 765
f 668 765 198
f 198 765 199
f 197 876 877
f 878 876 197
f 195 878 197
f 197 879 183
f 880 879 197
f 877 880 197
f 195 196 878
f 878 196 843
f 878 843 876
f 876 843 845
f 876 845 877
f 877 845 809
f 877 809 880
f 880 809 801
f 880 801 879
f 879 801 800
f 879 800 183
f 183 800 184
f 182 881 882
f 883 881 182
f 180 883 182
f 182 884 168
f 885 884 182
f 882 885 182
f 180 181 883
f 883 181 852
f 883 852 881
f 881 852 851
f 881 851 882
f 882 851 850
f 882 850 885
f 885 850 849
f 885 849 884
f 884 849 848
f 884 848 168
f 168 848 169
f 167 886 887
f 888 886 167
f 165 888 167
f 167 889 153
f 890 889 167
f 887 890 167
f 165 166 888
f 888 166 859
f 888 859 886
f 886 859 858
f 886 858 887
f 887 858 857
f 887 857 890
f 890 857 856
f 890 856 889
f 889 856 855
f 889 855 153
f 153 855 154
f 607 511 604
f 604 511 524
f 604 524 605
f 499 561 497
f 497 561 560
f 460 431 891
f 891 431 569
f 891 569 543
f 543 569 544
f 472 473 868
f 414 410 868
f 868 410 558
f 868 558 472
f 591 503 592
f 592 503 570
f 592 570 593
f 593 570 571
f 593 571 594
f 594 571 573
f 594 573 590
f 590 573 572
f 590 572 650
f 514 567 518
f 518 567 566
f 518 566 519
f 519 566 565
f 519 565 526
f 526 565 564
f 526 564 525
f 525 564 563
f 151 152 820
f 820 152 892
f 820 892 821
f 821 892 893
f 821 893 822
f 822 893 894
f 822 894 823
f 823 894 895
f 823 895 826
f 826 895 896
f 826 896 139
f 139 896 140
f 896 897 140
f 140 897 125
f 140 125 142
f 142 125 127
f 142 127 144
f 144 127 129
f 144 129 146
f 146 129 131
f 146 131 148
f 148 131 133
f 148 133 150
f 150 133 135
f 150 135 152
f 152 135 137
f 152 137 892
f 892 137 898
f 892 898 893
f 893 898 899
f 893 899 894
f 894 899 900
f 894 900 895
f 895 900 901
f 895 901 896
f 896 901 897
f 137 138 898
f 898 138 429
f 898 429 899
f 899 429 428
f 899 428 900
f 900 428 459
f 900 459 901
f 901 459 458
f 901 458 897
f 897 458 457
f 897 457 125
f 125 457 126
f 123 124 828
f 828 124 902
f 828 902 830
f 830 902 903
f 830 903 831
f 831 903 904
f 831 904 832
f 832 904 905
f 832 905 829
f 829 905 906
f 829 906 111
f 111 906 112
f 906 907 112
f 112 907 97
f 112 97 114
f 114 97 99
f 114 99 116
f 116 99 101
f 116 101 118
f 118 101 103
f 118 103 120
f 120 103 105
f 120 105 122
f 122 105 107
f 122 107 124
f 124 107 109
f 124 109 902
f 902 109 908
f 902 908 903
f 903 908 909
f 903 909 904
f 904 909 910
f 904 910 905
f 905 910 911
f 905 911 906
f 906 911 907
f 109 110 908
f 908 110 454
f 908 454 909
f 909 454 453
f 909 453 910
f 910 453 452
f 910 452 911
f 911 452 451
f 911 451 907
f 907 451 432
f 907 432 97
f 97 432 98
f 95 96 838
f 838 96 912
f 838 912 839
f 839 912 913
f 839 913 835
f 835 913 914
f 835 914 836
f 836 914 915
f 836 915 840
f 840 915 916
f 840 916 83
f 83 916 84
f 94 917 918
f 35 33 547
f 547 33 31
f 90 88 542
f 94 918 96
f 96 918 71
f 96 71 912
f 912 71 73
f 912 73 913
f 913 73 75
f 913 75 914
f 914 75 77
f 914 77 915
f 915 77 79
f 915 79 916
f 916 79 81
f 916 81 84
f 917 94 919
f 919 94 92
f 919 92 28
f 542 547 90
f 90 547 31
f 90 31 92
f 92 31 29
f 92 29 28
f 81 65 84
f 84 65 67
f 84 67 86
f 86 67 69
f 86 69 88
f 88 69 920
f 891 543 921
f 921 543 542
f 921 542 922
f 922 542 88
f 922 88 923
f 923 88 920
f 917 463 918
f 918 463 461
f 918 461 71
f 71 461 72
f 63 64 798
f 798 64 924
f 798 924 799
f 799 924 925
f 799 925 796
f 796 925 926
f 796 926 794
f 794 926 927
f 794 927 797
f 797 927 928
f 797 928 51
f 51 928 52
f 62 60 548
f 550 929 553
f 553 929 930
f 64 931 924
f 924 931 932
f 924 932 925
f 925 932 933
f 925 933 926
f 926 933 934
f 926 934 927
f 927 934 935
f 927 935 928
f 548 553 62
f 62 553 930
f 62 930 64
f 64 930 936
f 64 936 931
f 935 937 928
f 928 937 938
f 928 938 52
f 52 938 939
f 52 939 54
f 54 939 940
f 54 940 56
f 56 940 941
f 56 941 58
f 58 941 942
f 58 942 60
f 60 942 943
f 60 943 944
f 944 945 60
f 60 945 21
f 60 21 548
f 548 21 24
f 548 24 26
f 932 484 933
f 933 484 483
f 933 483 934
f 934 483 470
f 934 470 935
f 935 470 468
f 935 468 937
f 937 468 467
f 937 467 938
f 938 467 438
f 938 438 939
f 939 438 437
f 939 437 940
f 940 437 436
f 940 436 941
f 941 436 441
f 941 441 942
f 942 441 439
f 49 50 802
f 802 50 946
f 802 946 803
f 803 946 947
f 803 947 804
f 804 947 948
f 804 948 805
f 805 948 949
f 805 949 806
f 806 949 950
f 806 950 37
f 37 950 38
f 951 947 946
f 952 395 400
f 952 400 953
f 402 405 954
f 40 955 42
f 42 955 956
f 42 956 44
f 44 956 957
f 44 957 46
f 46 957 958
f 46 958 48
f 48 958 959
f 48 959 50
f 50 959 960
f 50 960 961
f 951 962 947
f 947 962 963
f 947 963 948
f 948 963 964
f 948 964 949
f 949 964 965
f 949 965 950
f 950 965 966
f 950 966 38
f 38 966 967
f 38 967 40
f 40 967 968
f 40 968 955
f 954 951 402
f 402 951 946
f 402 946 400
f 400 946 50
f 400 50 953
f 953 50 961
f 964 435 965
f 965 435 434
f 965 434 966
f 966 434 445
f 966 445 967
f 967 445 444
f 967 444 968
f 968 444 443
f 968 443 955
f 955 443 442
f 955 442 956
f 956 442 456
f 956 456 957
f 957 456 455
f 957 455 958
f 958 455 469
f 958 469 959
f 959 469 493
f 463 917 919
f 463 919 492
f 492 919 28
f 492 28 27
f 460 891 921
f 460 921 479
f 479 921 922
f 479 922 478
f 478 922 923
f 478 923 476
f 476 923 920
f 476 920 477
f 477 920 69
f 477 69 70
f 942 439 482
f 942 482 943
f 943 482 475
f 943 475 944
f 944 475 474
f 944 474 945
f 945 474 22
f 945 22 21
f 484 932 931
f 484 931 495
f 495 931 936
f 495 936 489
f 489 936 930
f 489 930 490
f 490 930 929
f 490 929 491
f 491 929 550
f 491 550 485
f 959 493 488
f 959 488 960
f 960 488 487
f 960 487 961
f 961 487 486
f 961 486 953
f 953 486 494
f 953 494 952
f 952 494 396
f 952 396 395
f 435 964 963
f 435 963 450
f 450 963 962
f 450 962 449
f 449 962 951
f 449 951 447
f 447 951 954
f 447 954 448
f 448 954 405
f 448 405 404
f 340 341 446
f 340 446 875
f 875 446 466
f 875 466 874
f 874 466 465
f 874 465 870
f 870 465 464
f 870 464 867
f 867 464 424
f 867 424 407
f 868 473 481
f 868 481 869
f 869 481 480
f 869 480 871
f 871 480 496
f 871 496 872
f 872 496 16
f 872 16 15
f 13 14 574
f 574 14 696
f 574 696 575
f 575 696 698
f 575 698 680
f 680 698 775
f 680 775 579
f 579 775 774
f 579 774 577
f 577 774 768
f 577 768 1
f 1 768 2

