# https://github.com/mikedh/trimesh
v 0.02057170 0.00000336 -0.00246067
v 0.00057860 0.00000408 -0.00298585
v 0.02056115 -0.00149719 -0.00206094
v 0.00056805 -0.00149647 -0.00258609
v 0.02053232 -0.00259676 -0.00096472
v 0.00053921 -0.00259604 -0.00148990
v 0.02049293 -0.00300073 0.00053419
v 0.00049983 -0.00300001 0.00000904
v 0.02045354 -0.00260085 0.00203423
v 0.00046044 -0.00260014 0.00150905
v 0.02042472 -0.00150428 0.00313342
v 0.00043160 -0.00150356 0.00260827
v 0.02041415 -0.00000483 0.00353727
v 0.00042105 -0.00000411 0.00301209
v 0.01063757 -0.01590867 -0.06692106
v 0.01063757 -0.01740866 -0.06692311
v 0.01042086 -0.01740872 -0.06687997
v 0.01042086 -0.01590873 -0.06687792
v 0.01024391 -0.01740890 -0.06674761
v 0.01024391 -0.01590891 -0.06674556
v 0.01014128 -0.01740917 -0.06655192
v 0.01014128 -0.01590918 -0.06654987
v 0.01013302 -0.01740947 -0.06633111
v 0.01013302 -0.01590948 -0.06632906
v 0.03583558 -0.01589000 -0.08059991
v 0.03583558 -0.01738999 -0.08060195
v 0.03562692 -0.01739005 -0.08056231
v 0.03562692 -0.01589005 -0.08056026
v 0.03545355 -0.01739021 -0.08043962
v 0.03545355 -0.01589022 -0.08043758
v 0.03534673 -0.01739047 -0.08025604
v 0.03534673 -0.01589047 -0.08025400
v 0.03532577 -0.01739075 -0.08004469
v 0.03532577 -0.01589076 -0.08004264
v 0.04002199 -0.01740195 -0.07184246
v 0.04002199 -0.01590195 -0.07184041
v 0.03985956 -0.01590191 -0.07187207
v 0.03985956 -0.01740191 -0.07187411
v 0.03971637 -0.01590180 -0.07195500
v 0.03971637 -0.01740179 -0.07195704
v 0.01955094 -0.00489373 -0.07786239
v 0.01955094 -0.01589371 -0.07787740
v 0.01853349 -0.00489331 -0.07816385
v 0.01853349 -0.01589330 -0.07817886
v 0.01780309 -0.00489226 -0.07893363
v 0.01780309 -0.01589225 -0.07894864
v 0.01755543 -0.00489085 -0.07996548
v 0.01755543 -0.01589084 -0.07998049
v 0.01785687 -0.00488947 -0.08098292
v 0.01785687 -0.01588945 -0.08099793
v 0.01862665 -0.00488847 -0.08171331
v 0.01862665 -0.01588846 -0.08172833
v 0.01965851 -0.00488813 -0.08196098
v 0.01965851 -0.01588812 -0.08197600
v 0.03154681 -0.00489416 -0.07754755
v 0.03154681 -0.01589414 -0.07756257
v 0.03052936 -0.00489374 -0.07784899
v 0.03052936 -0.01589373 -0.07786401
v 0.02979895 -0.00489269 -0.07861877
v 0.02979895 -0.01589268 -0.07863379
v 0.02955130 -0.00489128 -0.07965063
v 0.02955130 -0.01589127 -0.07966565
v 0.02985275 -0.00488990 -0.08066808
v 0.02985275 -0.01588988 -0.08068309
v 0.03062253 -0.00488890 -0.08139848
v 0.03062253 -0.01588889 -0.08141349
v 0.03165437 -0.00488856 -0.08164614
v 0.03165437 -0.01588855 -0.08166115
v 0.03722747 -0.01591086 -0.06531701
v 0.03722747 -0.01741085 -0.06531905
v 0.03536630 -0.01591011 -0.06586844
v 0.03536630 -0.01741010 -0.06587049
v 0.03403019 -0.01590819 -0.06727657
v 0.03403019 -0.01740818 -0.06727862
v 0.03357715 -0.01590561 -0.06916411
v 0.03357715 -0.01740560 -0.06916616
v 0.03412858 -0.01590307 -0.07102527
v 0.03412858 -0.01740306 -0.07102732
v 0.03553671 -0.01590124 -0.07236139
v 0.03553671 -0.01740124 -0.07236344
v 0.03742425 -0.01590062 -0.07281443
v 0.03742425 -0.01740062 -0.07281648
v 0.03864241 -0.01590095 -0.07257701
v 0.03864241 -0.01740094 -0.07257906
v 0.03727207 -0.00490855 -0.06700141
v 0.03727207 -0.01590854 -0.06701642
v 0.03638824 -0.00490824 -0.06722770
v 0.03638824 -0.01590823 -0.06724271
v 0.03569013 -0.00490744 -0.06781504
v 0.03569013 -0.01590743 -0.06783005
v 0.03531598 -0.00490630 -0.06864713
v 0.03531598 -0.01590629 -0.06866214
v 0.03533992 -0.00490506 -0.06955916
v 0.03533992 -0.01590505 -0.06957417
v 0.03575720 -0.00490395 -0.07037047
v 0.03575720 -0.01590394 -0.07038548
v 0.03648516 -0.00490320 -0.07092039
v 0.03648516 -0.01590319 -0.07093541
v 0.03737965 -0.00490296 -0.07110000
v 0.03737965 -0.01590295 -0.07111502
v 0.03095687 -0.01592482 -0.05508571
v 0.03095687 -0.01742482 -0.05508776
v 0.02909570 -0.01592407 -0.05563715
v 0.02909570 -0.01742407 -0.05563920
v 0.02775959 -0.01592215 -0.05704528
v 0.02775959 -0.01742215 -0.05704733
v 0.02730655 -0.01591957 -0.05893282
v 0.02730655 -0.01741957 -0.05893486
v 0.02785798 -0.01591703 -0.06079398
v 0.02785798 -0.01741703 -0.06079603
v 0.02926612 -0.01591521 -0.06213010
v 0.02926612 -0.01741520 -0.06213215
v 0.03115365 -0.01591459 -0.06258313
v 0.03115365 -0.01741458 -0.06258518
v 0.03100147 -0.00492252 -0.05677011
v 0.03100147 -0.01592251 -0.05678513
v 0.02998404 -0.00492210 -0.05707157
v 0.02998404 -0.01592209 -0.05708658
v 0.02925363 -0.00492105 -0.05784135
v 0.02925363 -0.01592104 -0.05785636
v 0.02900597 -0.00491964 -0.05887320
v 0.02900597 -0.01591964 -0.05888822
v 0.02930741 -0.00491826 -0.05989064
v 0.02930741 -0.01591825 -0.05990565
v 0.03007719 -0.00491726 -0.06062103
v 0.03007719 -0.01591725 -0.06063605
v 0.03110905 -0.00491692 -0.06086871
v 0.03110905 -0.01591691 -0.06088372
v 0.01896100 -0.01592440 -0.05540057
v 0.01896100 -0.01742439 -0.05540261
v 0.01709984 -0.01592364 -0.05595199
v 0.01709984 -0.01742364 -0.05595403
v 0.01576371 -0.01592172 -0.05736013
v 0.01576371 -0.01742171 -0.05736218
v 0.01531068 -0.01591914 -0.05924765
v 0.01531068 -0.01741914 -0.05924970
v 0.01586212 -0.01591660 -0.06110883
v 0.01586212 -0.01741660 -0.06111088
v 0.01727025 -0.01591478 -0.06244494
v 0.01727025 -0.01741477 -0.06244699
v 0.01915779 -0.01591416 -0.06289797
v 0.01915779 -0.01741416 -0.06290001
v 0.01900560 -0.00492209 -0.05708496
v 0.01900560 -0.01592208 -0.05709998
v 0.01798817 -0.00492167 -0.05738641
v 0.01798817 -0.01592166 -0.05740142
v 0.01725777 -0.00492062 -0.05815618
v 0.01725777 -0.01592061 -0.05817120
v 0.01701009 -0.00491922 -0.05918804
v 0.01701009 -0.01591920 -0.05920305
v 0.01731155 -0.00491783 -0.06020547
v 0.01731155 -0.01591782 -0.06022049
v 0.01808133 -0.00491683 -0.06093589
v 0.01808133 -0.01591682 -0.06095090
v 0.01911318 -0.00491649 -0.06118354
v 0.01911318 -0.01591648 -0.06119856
v 0.03292805 -0.00990890 -0.06674712
v 0.03292805 -0.00490891 -0.06674030
v 0.03192137 -0.00990923 -0.06650550
v 0.03192137 -0.00490924 -0.06649867
v 0.03117036 -0.00991021 -0.06579291
v 0.03117036 -0.00491021 -0.06578609
v 0.03087627 -0.00991156 -0.06480029
v 0.03087627 -0.00491156 -0.06479347
v 0.03111789 -0.00991294 -0.06379359
v 0.03111789 -0.00491294 -0.06378677
v 0.03183047 -0.00991396 -0.06304259
v 0.03183047 -0.00491396 -0.06303576
v 0.03282311 -0.00991436 -0.06274851
v 0.03282311 -0.00491436 -0.06274168
v 0.03287558 -0.01111335 -0.06474945
v 0.01760469 -0.00990836 -0.06714930
v 0.01760469 -0.00490836 -0.06714247
v 0.01659800 -0.00990869 -0.06690767
v 0.01659800 -0.00490869 -0.06690085
v 0.01584700 -0.00990966 -0.06619509
v 0.01584700 -0.00490966 -0.06618826
v 0.01555290 -0.00991101 -0.06520247
v 0.01555290 -0.00491101 -0.06519565
v 0.01579451 -0.00991239 -0.06419577
v 0.01579451 -0.00491239 -0.06418895
v 0.01650710 -0.00991341 -0.06344477
v 0.01650710 -0.00491341 -0.06343795
v 0.01749973 -0.00991381 -0.06315069
v 0.01749973 -0.00491382 -0.06314386
v 0.01755220 -0.01111280 -0.06515162
v 0.02561467 -0.00989052 -0.08021863
v 0.02561467 -0.00489052 -0.08021180
v 0.02460797 -0.00989085 -0.07997701
v 0.02460797 -0.00489085 -0.07997019
v 0.02385698 -0.00989182 -0.07926441
v 0.02385698 -0.00489182 -0.07925759
v 0.02356288 -0.00989317 -0.07827180
v 0.02356288 -0.00489318 -0.07826497
v 0.02380450 -0.00989455 -0.07726511
v 0.02380450 -0.00489455 -0.07725829
v 0.02451708 -0.00989557 -0.07651411
v 0.02451708 -0.00489557 -0.07650729
v 0.02550972 -0.00989597 -0.07622001
v 0.02550972 -0.00489598 -0.07621319
v 0.02556218 -0.01109496 -0.07822096
v 0.02031307 -0.00001008 0.00738592
v 0.00031995 -0.00000936 0.00686077
v 0.02030602 -0.00101045 0.00765242
v 0.00031292 -0.00100973 0.00712727
v 0.02028680 -0.00174349 0.00838323
v 0.00029370 -0.00174278 0.00785805
v 0.02026055 -0.00201281 0.00938251
v 0.00026744 -0.00201209 0.00885732
v 0.02023428 -0.00174622 0.01038254
v 0.00024119 -0.00174551 0.00985736
v 0.02021506 -0.00101517 0.01111532
v 0.00022196 -0.00101446 0.01059014
v 0.02020802 -0.00001554 0.01138455
v 0.00021492 -0.00001482 0.01085937
v 0.02066165 -0.00765628 -0.00589495
v 0.00066853 -0.00765557 -0.00642010
v 0.02065461 -0.00865665 -0.00562845
v 0.00066151 -0.00865593 -0.00615363
v 0.02063538 -0.00938970 -0.00489764
v 0.00064228 -0.00938898 -0.00542282
v 0.02060912 -0.00965901 -0.00389836
v 0.00061602 -0.00965830 -0.00442354
v 0.02058287 -0.00939243 -0.00289836
v 0.00058977 -0.00939171 -0.00342351
v 0.02056365 -0.00866138 -0.00216555
v 0.00057055 -0.00866066 -0.00269073
v 0.02055660 -0.00766174 -0.00189632
v 0.00056350 -0.00766102 -0.00242150
v 0.02066165 0.00767235 -0.00587402
v 0.00066853 0.00767307 -0.00639917
v 0.02065461 0.00667199 -0.00560753
v 0.00066151 0.00667270 -0.00613271
v 0.02063538 0.00593894 -0.00487672
v 0.00064228 0.00593965 -0.00540190
v 0.02060912 0.00566963 -0.00387744
v 0.00061602 0.00567034 -0.00440262
v 0.02058287 0.00593621 -0.00287743
v 0.00058977 0.00593692 -0.00340258
v 0.02056365 0.00666726 -0.00214462
v 0.00057055 0.00666798 -0.00266980
v 0.02055660 0.00766689 -0.00187540
v 0.00056350 0.00766761 -0.00240058
v 0.02027519 0.00598794 0.00883593
v 0.00028208 0.00598866 0.00831075
v 0.02026780 0.00493757 0.00911573
v 0.00027470 0.00493828 0.00859058
v 0.02024761 0.00416786 0.00988308
v 0.00025451 0.00416858 0.00935790
v 0.02022005 0.00388508 0.01093233
v 0.00022693 0.00388580 0.01040717
v 0.02019247 0.00416500 0.01198234
v 0.00019937 0.00416571 0.01145719
v 0.02017228 0.00493260 0.01275179
v 0.00017918 0.00493332 0.01222664
v 0.02016491 0.00598221 0.01303449
v 0.00017179 0.00598293 0.01250931
v 0.02027519 -0.00601205 0.00881955
v 0.00028208 -0.00601133 0.00829437
v 0.02026780 -0.00706243 0.00909935
v 0.00027470 -0.00706171 0.00857420
v 0.02024761 -0.00783213 0.00986670
v 0.00025451 -0.00783141 0.00934152
v 0.02022005 -0.00811491 0.01091595
v 0.00022693 -0.00811419 0.01039079
v 0.02019247 -0.00783499 0.01196596
v 0.00019937 -0.00783428 0.01144081
v 0.02017228 -0.00706739 0.01273541
v 0.00017918 -0.00706667 0.01221026
v 0.02016491 -0.00601778 0.01301811
v 0.00017179 -0.00601706 0.01249293
v 0.02054808 -0.01199786 -0.00157736
v 0.00055498 -0.01199714 -0.00210254
v 0.02054068 -0.01304824 -0.00129752
v 0.00054758 -0.01304753 -0.00182270
v 0.02052050 -0.01381794 -0.00053021
v 0.00052740 -0.01381722 -0.00105536
v 0.02049293 -0.01410072 0.00051904
v 0.00049983 -0.01410000 -0.00000611
v 0.02046536 -0.01382080 0.00156909
v 0.00047226 -0.01382009 0.00104391
v 0.02044517 -0.01305321 0.00233850
v 0.00045207 -0.01305249 0.00181335
v 0.02043779 -0.01200359 0.00262120
v 0.00044469 -0.01200287 0.00209602
v 0.02082096 -0.00598369 -0.01195788
v 0.00082786 -0.00598297 -0.01248303
v 0.02081357 -0.00703406 -0.01167805
v 0.00082047 -0.00703335 -0.01220323
v 0.02079338 -0.00780377 -0.01091073
v 0.00080028 -0.00780305 -0.01143588
v 0.02076582 -0.00808655 -0.00986145
v 0.00077272 -0.00808583 -0.01038663
v 0.02073824 -0.00780663 -0.00881144
v 0.00074514 -0.00780592 -0.00933662
v 0.02071805 -0.00703903 -0.00804202
v 0.00072496 -0.00703831 -0.00856717
v 0.02071068 -0.00598942 -0.00775932
v 0.00071758 -0.00598870 -0.00828450
v 0.02082096 0.00601630 -0.01194150
v 0.00082786 0.00601702 -0.01246665
v 0.02081357 0.00496593 -0.01166167
v 0.00082047 0.00496664 -0.01218685
v 0.02079338 0.00419622 -0.01089435
v 0.00080028 0.00419694 -0.01141950
v 0.02076582 0.00391344 -0.00984508
v 0.00077272 0.00391416 -0.01037026
v 0.02073824 0.00419336 -0.00879506
v 0.00074514 0.00419408 -0.00932024
v 0.02071805 0.00496096 -0.00802564
v 0.00072496 0.00496168 -0.00855079
v 0.02071068 0.00601057 -0.00774294
v 0.00071758 0.00601129 -0.00826812
v 0.02054808 0.01200212 -0.00154460
v 0.00055498 0.01200284 -0.00206978
v 0.02054068 0.01095174 -0.00126476
v 0.00054758 0.01095245 -0.00178995
v 0.02052050 0.01018204 -0.00049745
v 0.00052740 0.01018275 -0.00102260
v 0.02049293 0.00989926 0.00055180
v 0.00049983 0.00989997 0.00002665
v 0.02046536 0.01017917 0.00160185
v 0.00047226 0.01017989 0.00107667
v 0.02044517 0.01094677 0.00237126
v 0.00045207 0.01094749 0.00184611
v 0.02043779 0.01199639 0.00265396
v 0.00044469 0.01199711 0.00212878
v 0.01323573 -0.01591000 -0.06594670
v 0.01323573 -0.01740999 -0.06594875
v 0.01201735 -0.01590968 -0.06618420
v 0.01201735 -0.01740967 -0.06618624
v 0.01094323 -0.01590883 -0.06680644
v 0.01094323 -0.01740882 -0.06680848
v 0.01343252 -0.01589977 -0.07344412
v 0.01343252 -0.01739976 -0.07344616
v 0.01504927 -0.01590033 -0.07303018
v 0.01504927 -0.01740033 -0.07303223
v 0.01632633 -0.01590180 -0.07195576
v 0.01632633 -0.01740179 -0.07195780
v 0.01701074 -0.01590388 -0.07043365
v 0.01701074 -0.01740387 -0.07043570
v 0.01696694 -0.01590615 -0.06876533
v 0.01696694 -0.01740615 -0.06876737
v 0.01620363 -0.01590818 -0.06728121
v 0.01620363 -0.01740817 -0.06728326
v 0.01487199 -0.01590955 -0.06627525
v 0.01487199 -0.01740955 -0.06627730
v 0.01328033 -0.00490769 -0.06763110
v 0.01328033 -0.01590768 -0.06764611
v 0.01226290 -0.00490728 -0.06793255
v 0.01226290 -0.01590727 -0.06794757
v 0.01153248 -0.00490623 -0.06870233
v 0.01153248 -0.01590622 -0.06871735
v 0.01128482 -0.00490482 -0.06973419
v 0.01128482 -0.01590481 -0.06974920
v 0.01158628 -0.00490343 -0.07075162
v 0.01158628 -0.01590342 -0.07076664
v 0.01235606 -0.00490243 -0.07148202
v 0.01235606 -0.01590242 -0.07149703
v 0.01338792 -0.00490210 -0.07172969
v 0.01338792 -0.01590209 -0.07174470
v 0.01583728 -0.00738234 -0.01264643
v 0.00084245 -0.00738180 -0.01304030
v 0.00088106 -0.00375064 -0.01450540
v 0.02048989 0.01499865 0.00067441
v 0.02049293 0.01499925 0.00055876
v 0.01549465 0.01499943 0.00042748
v 0.01587589 -0.00375117 -0.01411153
v 0.00089369 0.00013613 -0.01498109
v 0.01588852 0.00013559 -0.01458722
v 0.00088310 0.00347846 -0.01457293
v 0.01587432 0.00401308 -0.01404105
v 0.00087949 0.00401361 -0.01443495
v 0.00083941 0.00761758 -0.01290417
v 0.01583424 0.00761704 -0.01251030
v 0.00077618 0.01070242 -0.01049315
v 0.01577101 0.01070188 -0.01009925
v 0.00069413 0.01305790 -0.00736611
v 0.01568896 0.01305736 -0.00697221
v 0.00059883 0.01452351 -0.00373618
v 0.01559366 0.01452297 -0.00334231
v 0.00055963 0.01482917 -0.00224333
v 0.00049679 0.01499937 0.00014923
v 0.00039495 0.01445304 0.00402539
v 0.02038806 0.01445232 0.00455057
v 0.00036950 0.01414823 0.00499411
v 0.02029337 0.01292104 0.00815329
v 0.00030026 0.01292176 0.00762811
v 0.00021918 0.01050988 0.01071187
v 0.02021228 0.01050916 0.01123705
v 0.00015721 0.00738177 0.01306654
v 0.02015032 0.00738105 0.01359172
v 0.02169752 -0.00492589 -0.05429721
v 0.02169752 -0.01242588 -0.05430745
v 0.02572128 -0.01242647 -0.05388074
v 0.04035738 -0.01241050 -0.06557745
v 0.04035738 -0.01591050 -0.06558222
v 0.04039835 -0.01591027 -0.06574811
v 0.03027903 -0.01588526 -0.08406922
v 0.03027903 -0.01738526 -0.08407127
v 0.02896245 -0.01738474 -0.08445095
v 0.02896245 -0.00488476 -0.08443388
v 0.03056568 -0.00488541 -0.08395449
v 0.03273866 -0.01588673 -0.08299532
v 0.03273866 -0.00488674 -0.08298030
v 0.03600997 -0.01588998 -0.08061390
v 0.03459194 -0.00488836 -0.08179399
v 0.03475634 -0.00488853 -0.08166976
v 0.03583369 -0.00488976 -0.08076388
v 0.03600997 -0.00488999 -0.08059888
v 0.03617220 -0.01589019 -0.08045740
v 0.03855346 -0.00489429 -0.07745194
v 0.03617220 -0.01739019 -0.08045945
v 0.04052527 -0.01590114 -0.07243890
v 0.04019580 -0.00489933 -0.07375392
v 0.04082505 -0.01590478 -0.06977185
v 0.04082505 -0.00490479 -0.06975684
v 0.04060218 -0.00490894 -0.06671786
v 0.03894475 -0.01241543 -0.06196713
v 0.04039835 -0.00491028 -0.06573310
v 0.04056885 -0.00490919 -0.06653233
v 0.03894475 -0.00491544 -0.06195689
v 0.03656334 -0.00491990 -0.05868559
v 0.03656334 -0.01241989 -0.05869582
v 0.03341639 -0.00492337 -0.05614210
v 0.03341639 -0.01242337 -0.05615233
v 0.02971837 -0.00492561 -0.05449976
v 0.02971837 -0.01242561 -0.05451000
v 0.02888711 -0.00492579 -0.05436890
v 0.02572128 -0.00492647 -0.05387050
v 0.03855346 -0.01739427 -0.07746901
v 0.04019580 -0.01739932 -0.07377099
v 0.04052527 -0.01740113 -0.07244094
v 0.01042884 -0.01740068 -0.07277498
v 0.01031483 -0.01740038 -0.07299023
v 0.01031606 -0.01740005 -0.07323381
v 0.01590728 -0.01739006 -0.08055434
v 0.01605613 -0.01739257 -0.07871633
v 0.01171523 -0.01739519 -0.07679126
v 0.01868460 -0.01739587 -0.07629339
v 0.03480397 -0.01741984 -0.05873808
v 0.01706307 -0.01739467 -0.07717149
v 0.03947142 -0.01745019 -0.03649998
v 0.01109846 -0.01740077 -0.07270816
v 0.01087342 -0.01740089 -0.07261495
v 0.01063104 -0.01740086 -0.07263914
v 0.03399412 -0.01739528 -0.07672712
v 0.03508070 -0.01739325 -0.07821701
v 0.02891506 -0.01739491 -0.07699657
v 0.01220358 -0.01740000 -0.07327297
v 0.03048730 -0.01739623 -0.07603297
v 0.03232874 -0.01739636 -0.07593528
v 0.02077454 -0.01741472 -0.06248609
v 0.02205160 -0.01741619 -0.06141168
v 0.01554380 -0.01738928 -0.08112069
v 0.01575662 -0.01738945 -0.08100218
v 0.01530025 -0.01738928 -0.08112457
v 0.01588819 -0.01738973 -0.08079719
v 0.01508376 -0.01738943 -0.08101293
v 0.01409665 -0.01739073 -0.08006258
v 0.03435094 -0.01741726 -0.06062562
v 0.03301482 -0.01741534 -0.06203375
v 0.02799221 -0.01739273 -0.07859308
v 0.02493871 -0.01738416 -0.08487766
v 0.02255453 -0.01738775 -0.08224417
v 0.02109424 -0.01738621 -0.08337023
v 0.02052864 -0.01739587 -0.07629436
v 0.03284441 -0.01742420 -0.05554080
v 0.03425254 -0.01742238 -0.05687692
v 0.02269223 -0.01742054 -0.05822122
v 0.02273601 -0.01741827 -0.05988956
v 0.03029365 -0.01738654 -0.08312878
v 0.01021700 -0.01741091 -0.06527805
v 0.03601738 -0.01739005 -0.08056256
v 0.02877631 -0.01738798 -0.08208086
v 0.02794190 -0.01739022 -0.08043642
v 0.02330152 -0.01739005 -0.08055821
v 0.00948177 -0.01744912 -0.03728772
v 0.03845664 -0.01741062 -0.06549232
v 0.04020665 -0.01741198 -0.06449030
v 0.03956190 -0.01740985 -0.06605735
v 0.04034594 -0.01741055 -0.06553805
v 0.04034431 -0.01741022 -0.06578038
v 0.04051952 -0.01740144 -0.07221844
v 0.04041778 -0.01740171 -0.07202047
v 0.03049441 -0.01738636 -0.08326674
v 0.03060616 -0.01738606 -0.08348317
v 0.03060239 -0.01738573 -0.08372674
v 0.03048398 -0.01738544 -0.08393960
v 0.02080076 -0.01738571 -0.08374053
v 0.02081729 -0.01738538 -0.08398356
v 0.02090099 -0.01738601 -0.08351852
v 0.02094671 -0.01738510 -0.08418992
v 0.02115828 -0.01738493 -0.08431064
v 0.01080002 -0.01740871 -0.06689145
v 0.02059726 -0.01742394 -0.05573115
v 0.02192891 -0.01742257 -0.05673711
v 0.04024020 -0.01740189 -0.07188629
v 0.02315458 -0.01739256 -0.07872004
v 0.02214926 -0.01739467 -0.07717416
v 0.03978566 -0.01740972 -0.06615040
v 0.04002689 -0.01740975 -0.06612731
v 0.04022893 -0.01740993 -0.06599349
v 0.01613799 0.00503287 -0.02407771
v 0.01014006 0.00503308 -0.02423524
v 0.01613799 -0.00496712 -0.02409136
v 0.01014006 -0.00496691 -0.02424889
v 0.02087368 -0.00476311 -0.01396322
v 0.02087368 -0.00498095 -0.01396352
v 0.03934012 -0.00495703 -0.03148465
v 0.03934012 0.00504296 -0.03147100
v 0.02087368 0.00501904 -0.01394987
v 0.02087368 0.00480121 -0.01395016
v 0.02087368 0.00346905 -0.01395198
v 0.02087368 0.00251905 -0.01395328
v 0.02087368 -0.00248095 -0.01396010
v 0.01639768 0.01504635 -0.03395048
v 0.01647935 -0.01494937 -0.03710050
v 0.01549465 -0.01500054 0.00038653
v 0.01549769 -0.01499994 0.00027091
v 0.01661064 0.00694728 -0.04206890
v 0.01661064 0.00505743 -0.04207148
v 0.01569423 -0.01292233 -0.00720797
v 0.01577531 -0.01051045 -0.01029176
v 0.01559953 -0.01445361 -0.00360525
v 0.01647935 -0.00994938 -0.03709367
v 0.01644090 -0.00641584 -0.03562490
v 0.01646935 -0.00803648 -0.03671059
v 0.01639830 -0.00533419 -0.03400187
v 0.01634806 -0.00495621 -0.03208858
v 0.02049293 -0.01500072 0.00051781
v 0.02055235 -0.01499763 -0.00174391
v 0.02068616 -0.01499068 -0.00683828
v 0.02121493 -0.01496320 -0.02696881
v 0.02147763 -0.01494955 -0.03696921
v 0.00994152 -0.00490786 -0.06750949
v 0.00983493 -0.00490586 -0.06897426
v 0.01012392 -0.01240942 -0.06637160
v 0.01792133 -0.00492391 -0.05575079
v 0.01792133 -0.01242390 -0.05576103
v 0.01687244 -0.00492305 -0.05637635
v 0.01465001 -0.01242065 -0.05814245
v 0.01606822 -0.00492229 -0.05693698
v 0.01516885 -0.00492130 -0.05766080
v 0.01465001 -0.00492066 -0.05813222
v 0.01210651 -0.00491636 -0.06127915
v 0.01210651 -0.01241635 -0.06128939
v 0.01046418 -0.00491131 -0.06497718
v 0.01046418 -0.01241131 -0.06498741
v 0.01041838 -0.00491110 -0.06513544
v 0.00996551 -0.00490811 -0.06732036
v 0.01031606 -0.01590006 -0.07323176
v 0.01171523 -0.00489521 -0.07677420
v 0.01057291 -0.00489885 -0.07410670
v 0.01026164 -0.01590035 -0.07301302
v 0.01026164 -0.00490037 -0.07299800
v 0.00983493 -0.01590585 -0.06898928
v 0.01012392 -0.01590941 -0.06637637
v 0.01508376 -0.01588944 -0.08101088
v 0.01409665 -0.00489075 -0.08004551
v 0.01552968 -0.00488893 -0.08137403
v 0.01676817 -0.00488769 -0.08228626
v 0.01724359 -0.01588726 -0.08260401
v 0.01651110 -0.00488792 -0.08211219
v 0.01575487 -0.00488869 -0.08155435
v 0.01724359 -0.00488727 -0.08258900
v 0.02094162 -0.00488503 -0.08423133
v 0.02094162 -0.01588502 -0.08424635
v 0.02115828 -0.01588494 -0.08430859
v 0.02493871 -0.00488417 -0.08486060
v 0.02160892 0.00505725 -0.04194018
v 0.03960272 0.00505660 -0.04146753
v 0.00961305 -0.01244230 -0.04227918
v 0.01021700 -0.01241092 -0.06527123
v 0.00948177 -0.00994913 -0.03727748
v 0.00961305 0.00505768 -0.04225529
v 0.00947177 -0.00803623 -0.03689440
v 0.00944331 -0.00641559 -0.03580870
v 0.00916666 -0.00496551 -0.02527481
v 0.00916666 0.00503448 -0.02526116
v 0.00935047 -0.00495595 -0.03227239
v 0.00940071 -0.00533394 -0.03418568
v 0.04020665 -0.01241199 -0.06448347
v 0.03960272 -0.01244338 -0.04149142
v 0.03939037 -0.00533502 -0.03339791
v 0.03943296 -0.00641667 -0.03502094
v 0.03946142 -0.00803731 -0.03610665
v 0.03947142 -0.00995021 -0.03648974
v 0.02042472 0.00149572 0.00313751
v 0.02042597 0.00249578 0.00309082
v 0.02036361 0.00249254 0.00546501
v 0.02063538 0.00940304 -0.00487199
v 0.02065461 0.00867199 -0.00560480
v 0.02068616 0.00889146 -0.00680569
v 0.02056365 0.00866726 -0.00214189
v 0.02055235 0.00888451 -0.00171131
v 0.02121493 -0.00884537 -0.02696046
v 0.02146762 -0.00803666 -0.03657931
v 0.02143917 -0.00641602 -0.03549359
v 0.02029413 -0.00979322 0.00809348
v 0.02029862 -0.01305865 0.00791754
v 0.02039392 -0.01452426 0.00428761
v 0.02021657 -0.01070317 0.01104457
v 0.02029413 -0.00889322 0.00809471
v 0.02017702 -0.00897595 0.01255271
v 0.02029413 -0.00479322 0.00810030
v 0.02026780 -0.00496243 0.00910222
v 0.02015335 -0.00761833 0.01345562
v 0.02011328 -0.00401436 0.01498637
v 0.02017228 -0.00496739 0.01273827
v 0.02010464 -0.00253771 0.01531712
v 0.02019247 -0.00419769 0.01197093
v 0.02024761 -0.00419482 0.00987166
v 0.02029413 -0.00251107 0.00810342
v 0.02022005 -0.00391491 0.01092168
v 0.02021506 0.00098482 0.01111805
v 0.02010462 0.00249297 0.01532446
v 0.02009906 -0.00013688 0.01553251
v 0.02011170 0.00374989 0.01505682
v 0.02029413 0.00343893 0.00811154
v 0.02022005 0.00808508 0.01093806
v 0.02024761 0.00780516 0.00988804
v 0.02029413 0.00887109 0.00811895
v 0.02026780 0.00703756 0.00911860
v 0.02019247 0.00780230 0.01198731
v 0.02017228 0.00703260 0.01275465
v 0.02049293 0.01409925 0.00055753
v 0.02052050 0.01381934 -0.00049248
v 0.02055235 0.01500234 -0.00170296
v 0.02036361 0.00887470 0.00547372
v 0.02042597 0.00887794 0.00309954
v 0.02054068 0.01305173 -0.00126190
v 0.02044517 0.01304677 0.00237413
v 0.02046536 0.01381647 0.00160681
v 0.02121493 0.00891894 -0.02693621
v 0.02160892 0.00694710 -0.04193760
v 0.02071805 0.00706096 -0.00802278
v 0.02073824 0.00783066 -0.00879009
v 0.02076582 0.00811344 -0.00983934
v 0.02079338 0.00783352 -0.01088939
v 0.02081357 0.00706592 -0.01165880
v 0.02068616 0.00479147 -0.00681128
v 0.02068616 0.00345930 -0.00681310
v 0.02068616 0.00250930 -0.00681440
v 0.02068616 -0.00249069 -0.00682122
v 0.02139657 -0.00533437 -0.03387056
v 0.02134633 -0.00495638 -0.03195730
v 0.02068616 -0.00477285 -0.00682434
v 0.02071805 -0.00493903 -0.00803916
v 0.02073824 -0.00416933 -0.00880647
v 0.02076582 -0.00388655 -0.00985572
v 0.02079338 -0.00416646 -0.01090577
v 0.02081357 -0.00493407 -0.01167518
v 0.02068616 -0.00887285 -0.00682993
v 0.02055235 0.00478451 -0.00171691
v 0.02068616 0.01500929 -0.00679733
v 0.02060912 0.00966962 -0.00387198
v 0.02058287 0.00940031 -0.00287270
v 0.02056365 -0.00666138 -0.00216282
v 0.02055235 -0.00477980 -0.00172996
v 0.02055235 -0.00887980 -0.00173556
v 0.02065461 -0.00665665 -0.00562572
v 0.02058287 -0.00592833 -0.00289363
v 0.02060912 -0.00565902 -0.00389290
v 0.02063538 -0.00592560 -0.00489291
v 0.02068616 -0.00977285 -0.00683116
v 0.02055235 -0.00977980 -0.00173679
v 0.02036361 -0.00250746 0.00545818
v 0.02023428 0.00171788 0.01038727
v 0.02026055 0.00198719 0.00938797
v 0.02029413 0.00248893 0.00811024
v 0.02028680 0.00172061 0.00838796
v 0.02030602 0.00098955 0.00765515
v 0.02042597 -0.00250422 0.00308400
v 0.02042597 -0.00478637 0.00308088
v 0.02056115 0.00150281 -0.00205684
v 0.02055235 -0.00249765 -0.00172685
v 0.02055235 0.00250235 -0.00172002
v 0.02053232 0.00259939 -0.00095763
v 0.02055235 0.00345235 -0.00171872
v 0.02049293 0.00299926 0.00054238
v 0.02042597 0.00344578 0.00309212
v 0.02045354 0.00259529 0.00204133
v 0.02036361 -0.00978961 0.00544824
v 0.02036361 -0.00888961 0.00544947
v 0.02036361 -0.00478961 0.00545507
v 0.02036361 0.00344254 0.00546631
v 0.02029413 0.00477109 0.00811336
v 0.02036361 0.00477471 0.00546812
v 0.02042597 0.00477795 0.00309394
v 0.02052050 -0.01018064 -0.00052524
v 0.02054068 -0.01094824 -0.00129466
v 0.02042597 -0.00978637 0.00307406
v 0.02042597 -0.01455420 0.00306755
v 0.02044517 -0.01095320 0.00234137
v 0.02046536 -0.01018350 0.00157405
v 0.02049293 -0.00990073 0.00052477
v 0.02042597 -0.00888637 0.00307529
v 0.02055235 -0.01454763 -0.00174329
v 0.02121493 0.01503677 -0.02692786
v 0.02139595 0.01504617 -0.03381920
v 0.02121493 -0.00974537 -0.02696169
v 0.02147763 -0.00994956 -0.03696239
v 0.02068616 -0.01454068 -0.00683767
v 0.02121493 -0.01451320 -0.02696820
v 0.00040082 -0.01452354 0.00376246
v 0.00040743 -0.01458617 0.00351107
v 0.00081572 -0.00894289 -0.01202536
v 0.00078048 -0.01050991 -0.01068563
v 0.00069940 -0.01292179 -0.00760184
v 0.00060470 -0.01445307 -0.00399912
v 0.00050286 -0.01499940 -0.00012299
v 0.00011859 0.00375060 0.01453164
v 0.00011152 0.00249369 0.01479931
v 0.00010596 -0.00013616 0.01500733
v 0.00011154 -0.00253699 0.01479193
v 0.00012016 -0.00401365 0.01446119
v 0.00016025 -0.00761761 0.01293044
v 0.00018392 -0.00897523 0.01202753
v 0.00022348 -0.01070245 0.01051939
v 0.00030552 -0.01305794 0.00739236
v 0.00055923 -0.00249693 -0.00225200
v 0.00056805 0.00150352 -0.00258199
v 0.00055923 0.00250307 -0.00224517
v 0.00062357 0.00250641 -0.00469431
v 0.00062357 -0.00977574 -0.00471108
v 0.00069306 -0.00977213 -0.00735634
v 0.00069306 0.00889218 -0.00733087
v 0.00074514 -0.00416861 -0.00933165
v 0.00072496 -0.00493831 -0.00856431
v 0.00069306 -0.00477213 -0.00734952
v 0.00082047 -0.00493335 -0.01220036
v 0.00069306 -0.00887213 -0.00735511
v 0.00080028 -0.00416575 -0.01143092
v 0.00077272 -0.00388583 -0.01038090
v 0.00069306 -0.00248998 -0.00734640
v 0.00069306 0.00346002 -0.00733828
v 0.00082047 0.00706664 -0.01218398
v 0.00080028 0.00783424 -0.01141454
v 0.00077272 0.00811416 -0.01036452
v 0.00074514 0.00783137 -0.00931527
v 0.00072496 0.00706168 -0.00854793
v 0.00037051 0.00887542 0.00494854
v 0.00052740 0.01382005 -0.00101763
v 0.00049983 0.01409997 0.00003238
v 0.00055923 0.00888522 -0.00223646
v 0.00054758 0.01305245 -0.00178708
v 0.00047226 0.01381719 0.00108163
v 0.00045207 0.01304749 0.00184898
v 0.00025451 0.00780588 0.00936286
v 0.00030101 0.00887181 0.00759377
v 0.00030101 0.00477181 0.00758818
v 0.00027470 0.00703828 0.00859345
v 0.00017918 0.00703332 0.01222950
v 0.00019937 0.00780301 0.01146216
v 0.00022693 0.00808579 0.01041291
v 0.00030101 0.00343965 0.00758636
v 0.00030101 0.00248965 0.00758506
v 0.00029370 0.00172132 0.00786278
v 0.00026744 0.00198790 0.00886279
v 0.00022196 0.00098554 0.01059287
v 0.00024119 0.00171859 0.00986209
v 0.00030101 -0.00251035 0.00757824
v 0.00022693 -0.00391419 0.01039653
v 0.00019937 -0.00419697 0.01144578
v 0.00017918 -0.00496668 0.01221312
v 0.00030101 -0.00889250 0.00756953
v 0.00030101 -0.00479251 0.00757512
v 0.00027470 -0.00496171 0.00857707
v 0.00025451 -0.00419411 0.00934648
v 0.00030101 -0.00979250 0.00756830
v 0.00052740 -0.01017992 -0.00105039
v 0.00049983 -0.00990001 -0.00000038
v 0.00055923 -0.00977909 -0.00226194
v 0.00055923 -0.01454692 -0.00226844
v 0.00054758 -0.01094752 -0.00181984
v 0.00047226 -0.01018278 0.00104887
v 0.00037051 -0.00978889 0.00492306
v 0.00045207 -0.01095249 0.00181622
v 0.00069306 0.00479218 -0.00733646
v 0.00055923 0.00478523 -0.00224206
v 0.00062357 0.00478857 -0.00469120
v 0.00057055 0.00866797 -0.00266707
v 0.00058977 0.00940102 -0.00339786
v 0.00061602 0.00967034 -0.00439716
v 0.00064228 0.00940375 -0.00539717
v 0.00066151 0.00867270 -0.00612998
v 0.00058977 -0.00592762 -0.00341878
v 0.00055923 -0.00477909 -0.00225511
v 0.00061602 -0.00565830 -0.00441808
v 0.00062357 -0.00477574 -0.00470425
v 0.00064228 -0.00592489 -0.00541809
v 0.00066151 -0.00665594 -0.00615090
v 0.00057055 -0.00666066 -0.00268800
v 0.00055923 -0.00887909 -0.00226071
v 0.00037051 -0.00250674 0.00493300
v 0.00037051 0.00249326 0.00493983
v 0.00031292 0.00099026 0.00713000
v 0.00053921 0.00260011 -0.00148281
v 0.00049983 0.00299998 0.00001723
v 0.00055923 0.00345307 -0.00224388
v 0.00037051 0.00344326 0.00494113
v 0.00046044 0.00259601 0.00151614
v 0.00043160 0.00149643 0.00261236
v 0.00062357 -0.00249359 -0.00470114
v 0.00037051 -0.00478889 0.00492989
v 0.00069306 0.00251002 -0.00733958
v 0.00062357 0.00345641 -0.00469302
v 0.00037051 0.00477542 0.00494294
v 0.00037051 -0.00888889 0.00492429
v 0.01739972 -0.00489896 -0.07402582
v 0.02054233 -0.00488844 -0.08173469
v 0.02124046 -0.00488924 -0.08114736
v 0.02266211 -0.00488933 -0.08108571
v 0.02958469 -0.00488957 -0.08090372
v 0.01628172 -0.00491508 -0.06221718
v 0.01708872 -0.00491511 -0.06219597
v 0.03399037 -0.00491572 -0.06175164
v 0.03396517 -0.00491702 -0.06079336
v 0.03423828 -0.00490284 -0.07118206
v 0.01706353 -0.00491642 -0.06123768
v 0.02213681 -0.00491660 -0.06110431
v 0.01999701 -0.00491680 -0.06095727
v 0.02069513 -0.00491760 -0.06036991
v 0.02106928 -0.00491874 -0.05953783
v 0.02104534 -0.00491998 -0.05862581
v 0.02062806 -0.00492109 -0.05781449
v 0.01990010 -0.00492184 -0.05726456
v 0.01530708 -0.00491635 -0.06128386
v 0.01625652 -0.00491639 -0.06125890
v 0.01533227 -0.00491505 -0.06224214
v 0.01546259 -0.00490828 -0.06719912
v 0.01049636 -0.00490810 -0.06732967
v 0.01061396 -0.00490200 -0.07180312
v 0.01050129 -0.00490785 -0.06751702
v 0.01583237 -0.00488908 -0.08126526
v 0.02268303 -0.00488824 -0.08188172
v 0.03046280 -0.00488852 -0.08167721
v 0.03449047 -0.00488975 -0.08077476
v 0.03451139 -0.00488866 -0.08157077
v 0.03430136 -0.00489957 -0.07358149
v 0.03839708 -0.00490337 -0.07079855
v 0.03830393 -0.00490821 -0.06724907
v 0.03912750 -0.00490442 -0.07002877
v 0.03937516 -0.00490583 -0.06899691
v 0.03907371 -0.00490722 -0.06797948
v 0.03412561 -0.00490869 -0.06689596
v 0.03412068 -0.00490895 -0.06670862
v 0.03447142 -0.00490999 -0.06594650
v 0.03483644 -0.00491110 -0.06513471
v 0.03285690 -0.00491838 -0.05979747
v 0.03310456 -0.00491979 -0.05876562
v 0.03280311 -0.00492118 -0.05774818
v 0.03203333 -0.00492218 -0.05701778
v 0.02991658 -0.00491688 -0.06089979
v 0.02905940 -0.00491685 -0.06092232
v 0.02808432 -0.00491681 -0.06094795
v 0.01951307 -0.00491055 -0.06553689
v 0.01948971 -0.00491176 -0.06464712
v 0.02216201 -0.00491529 -0.06206260
v 0.01641203 -0.00490831 -0.06717416
v 0.01721904 -0.00490834 -0.06715294
v 0.02229232 -0.00490853 -0.06701957
v 0.01846695 -0.00490866 -0.06692172
v 0.01914804 -0.00490944 -0.06634869
v 0.01908262 -0.00491284 -0.06385559
v 0.01837239 -0.00491358 -0.06331909
v 0.03481309 -0.00491231 -0.06424495
v 0.03440599 -0.00491339 -0.06345341
v 0.03369577 -0.00491413 -0.06291690
v 0.02994177 -0.00491557 -0.06185808
v 0.03007209 -0.00490880 -0.06681505
v 0.03379033 -0.00490921 -0.06651954
v 0.03007701 -0.00490855 -0.06700239
v 0.03212649 -0.00491733 -0.06056725
v 0.02863053 -0.00488845 -0.08172537
v 0.02960561 -0.00488849 -0.08169974
v 0.02860961 -0.00488954 -0.08092936
v 0.02842050 -0.00489936 -0.07373609
v 0.02939558 -0.00489939 -0.07371046
v 0.03025277 -0.00489942 -0.07368793
v 0.03340222 -0.00489002 -0.08057491
v 0.03364989 -0.00489143 -0.07954306
v 0.03334844 -0.00489282 -0.07852563
v 0.03257866 -0.00489382 -0.07779521
v 0.03267182 -0.00488897 -0.08134469
v 0.01760975 -0.00488806 -0.08201510
v 0.02161460 -0.00489038 -0.08031526
v 0.02159067 -0.00489162 -0.07940324
v 0.02247300 -0.00489914 -0.07389245
v 0.02117338 -0.00489273 -0.07859193
v 0.02044542 -0.00489348 -0.07804200
v 0.02908459 -0.00491554 -0.06188061
v 0.02921490 -0.00490877 -0.06683758
v 0.02810951 -0.00491550 -0.06190624
v 0.02823982 -0.00490874 -0.06686322
v 0.02638238 -0.00489574 -0.07638841
v 0.02647693 -0.00489082 -0.07999104
v 0.02715803 -0.00489160 -0.07941801
v 0.02752306 -0.00489271 -0.07860622
v 0.02749969 -0.00489392 -0.07771645
v 0.02709260 -0.00489500 -0.07692493
v 0.03018969 -0.00490270 -0.07128850
v 0.02933250 -0.00490267 -0.07131103
v 0.02835743 -0.00490263 -0.07133666
v 0.02240992 -0.00490242 -0.07149301
v 0.01733664 -0.00490224 -0.07162639
v 0.01652963 -0.00490221 -0.07164761
v 0.02921983 -0.00490852 -0.06702493
v 0.02824475 -0.00490848 -0.06705056
v 0.02229725 -0.00490827 -0.06720692
v 0.01722396 -0.00490809 -0.06734029
v 0.01641696 -0.00490806 -0.06736150
v 0.01546751 -0.00490802 -0.06738646
v 0.01758882 -0.00488914 -0.08121908
v 0.01678181 -0.00488911 -0.08124030
v 0.01680274 -0.00488803 -0.08203632
v 0.01564327 -0.00489890 -0.07407200
v 0.01659271 -0.00489893 -0.07404704
v 0.01558019 -0.00490217 -0.07167257
v 0.01427174 -0.00490241 -0.07150340
v 0.01496986 -0.00490321 -0.07091606
v 0.01534401 -0.00490434 -0.07008396
v 0.01532007 -0.00490559 -0.06917194
v 0.01490279 -0.00490669 -0.06836063
v 0.01417481 -0.00490745 -0.06781071
v 0.01427174 -0.01590239 -0.07151841
v 0.01496986 -0.01590320 -0.07093108
v 0.01534401 -0.01590433 -0.07009898
v 0.01532007 -0.01590558 -0.06918696
v 0.01490279 -0.01590668 -0.06837565
v 0.01417481 -0.01590743 -0.06782573
v 0.01031483 -0.01590039 -0.07298818
v 0.01042884 -0.01590068 -0.07277294
v 0.01063104 -0.01590087 -0.07263709
v 0.01087342 -0.01590090 -0.07261290
v 0.01080002 -0.01590871 -0.06688940
v 0.01109846 -0.01590077 -0.07270611
v 0.01220358 -0.01590000 -0.07327092
v 0.02638238 -0.00989574 -0.07639524
v 0.02749969 -0.00989392 -0.07772327
v 0.02752306 -0.00989271 -0.07861304
v 0.02709260 -0.00989500 -0.07693175
v 0.02647693 -0.00989082 -0.07999787
v 0.02715803 -0.00989160 -0.07942484
v 0.01837239 -0.00991357 -0.06332591
v 0.01948971 -0.00991176 -0.06465395
v 0.01951307 -0.00991055 -0.06554372
v 0.01908262 -0.00991284 -0.06386241
v 0.01846695 -0.00990866 -0.06692854
v 0.01914804 -0.00990944 -0.06635551
v 0.03369577 -0.00991412 -0.06292373
v 0.03481309 -0.00991231 -0.06425177
v 0.03483644 -0.00991110 -0.06514154
v 0.03440599 -0.00991339 -0.06346023
v 0.03379033 -0.00990921 -0.06652636
v 0.03447142 -0.00990999 -0.06595333
v 0.04034594 -0.01591056 -0.06553600
v 0.01999701 -0.01591679 -0.06097228
v 0.02069513 -0.01591759 -0.06038493
v 0.02106928 -0.01591873 -0.05955285
v 0.02104534 -0.01591997 -0.05864082
v 0.02062806 -0.01592108 -0.05782950
v 0.01990010 -0.01592183 -0.05727958
v 0.02192891 -0.01592257 -0.05673506
v 0.02059726 -0.01592395 -0.05572911
v 0.02077454 -0.01591473 -0.06248405
v 0.02205160 -0.01591619 -0.06140963
v 0.02273601 -0.01591827 -0.05988752
v 0.02269223 -0.01592055 -0.05821918
v 0.03212649 -0.01591732 -0.06058227
v 0.03285690 -0.01591837 -0.05981249
v 0.03310456 -0.01591978 -0.05878063
v 0.03280311 -0.01592117 -0.05776320
v 0.03203333 -0.01592217 -0.05703280
v 0.03435094 -0.01591727 -0.06062357
v 0.03480397 -0.01591984 -0.05873603
v 0.03425254 -0.01592238 -0.05687487
v 0.03284441 -0.01592421 -0.05553875
v 0.03301482 -0.01591534 -0.06203170
v 0.03839708 -0.01590336 -0.07081356
v 0.03912750 -0.01590441 -0.07004378
v 0.03937516 -0.01590582 -0.06901193
v 0.03907371 -0.01590721 -0.06799449
v 0.03830393 -0.01590820 -0.06726409
v 0.04034431 -0.01591023 -0.06577833
v 0.03978566 -0.01590972 -0.06614836
v 0.04022893 -0.01590994 -0.06599144
v 0.04002689 -0.01590976 -0.06612526
v 0.04024020 -0.01590190 -0.07188424
v 0.04041778 -0.01590171 -0.07201842
v 0.04051952 -0.01590144 -0.07221639
v 0.03956190 -0.01590985 -0.06605531
v 0.03845664 -0.01591062 -0.06549027
v 0.03267182 -0.01588896 -0.08135971
v 0.03340222 -0.01589001 -0.08058993
v 0.03364989 -0.01589142 -0.07955807
v 0.03334844 -0.01589281 -0.07854064
v 0.03257866 -0.01589381 -0.07781023
v 0.03232874 -0.01589637 -0.07593323
v 0.03048398 -0.01588544 -0.08393755
v 0.03399412 -0.01589529 -0.07672507
v 0.03508070 -0.01589325 -0.07821497
v 0.03601738 -0.01589005 -0.08056052
v 0.03060239 -0.01588573 -0.08372469
v 0.03060616 -0.01588607 -0.08348113
v 0.03048730 -0.01589623 -0.07603092
v 0.02891506 -0.01589492 -0.07699452
v 0.02799221 -0.01589274 -0.07859103
v 0.02794190 -0.01589022 -0.08043437
v 0.02877631 -0.01588798 -0.08207882
v 0.03029365 -0.01588655 -0.08312673
v 0.03049441 -0.01588636 -0.08326469
v 0.02054233 -0.01588843 -0.08174971
v 0.02124046 -0.01588923 -0.08116237
v 0.02161460 -0.01589037 -0.08033027
v 0.02159067 -0.01589161 -0.07941825
v 0.02117338 -0.01589272 -0.07860694
v 0.02044542 -0.01589347 -0.07805702
v 0.01530025 -0.01588929 -0.08112253
v 0.01554380 -0.01588929 -0.08111864
v 0.01575662 -0.01588945 -0.08100013
v 0.02094671 -0.01588510 -0.08418787
v 0.02081729 -0.01588538 -0.08398151
v 0.02080076 -0.01588571 -0.08373848
v 0.02090099 -0.01588602 -0.08351647
v 0.02109424 -0.01588622 -0.08336819
v 0.02255453 -0.01588776 -0.08224212
v 0.02330152 -0.01589006 -0.08055616
v 0.02315458 -0.01589257 -0.07871799
v 0.02214926 -0.01589468 -0.07717211
v 0.02052864 -0.01589588 -0.07629231
v 0.01868460 -0.01589588 -0.07629135
v 0.01706307 -0.01589468 -0.07716944
v 0.01605613 -0.01589257 -0.07871428
v 0.01590728 -0.01589006 -0.08055229
v 0.01588819 -0.01588973 -0.08079515
f 1 2 3
f 3 2 4
f 3 4 5
f 5 4 6
f 5 6 7
f 7 6 8
f 7 8 9
f 9 8 10
f 9 10 11
f 11 10 12
f 11 12 13
f 13 12 14
f 15 16 17
f 15 17 18
f 18 17 19
f 18 19 20
f 20 19 21
f 20 21 22
f 22 21 23
f 22 23 24
f 25 26 27
f 25 27 28
f 28 27 29
f 28 29 30
f 30 29 31
f 30 31 32
f 32 31 33
f 32 33 34
f 35 36 37
f 35 37 38
f 38 37 39
f 38 39 40
f 41 42 43
f 43 42 44
f 43 44 45
f 45 44 46
f 45 46 47
f 47 46 48
f 47 48 49
f 49 48 50
f 49 50 51
f 51 50 52
f 51 52 53
f 53 52 54
f 55 56 57
f 57 56 58
f 57 58 59
f 59 58 60
f 59 60 61
f 61 60 62
f 61 62 63
f 63 62 64
f 63 64 65
f 65 64 66
f 65 66 67
f 67 66 68
f 69 70 71
f 71 70 72
f 71 72 73
f 73 72 74
f 73 74 75
f 75 74 76
f 75 76 77
f 77 76 78
f 77 78 79
f 79 78 80
f 79 80 81
f 81 80 82
f 81 82 83
f 83 82 84
f 83 84 39
f 39 84 40
f 85 86 87
f 87 86 88
f 87 88 89
f 89 88 90
f 89 90 91
f 91 90 92
f 91 92 93
f 93 92 94
f 93 94 95
f 95 94 96
f 95 96 97
f 97 96 98
f 97 98 99
f 99 98 100
f 101 102 103
f 103 102 104
f 103 104 105
f 105 104 106
f 105 106 107
f 107 106 108
f 107 108 109
f 109 108 110
f 109 110 111
f 111 110 112
f 111 112 113
f 113 112 114
f 115 116 117
f 117 116 118
f 117 118 119
f 119 118 120
f 119 120 121
f 121 120 122
f 121 122 123
f 123 122 124
f 123 124 125
f 125 124 126
f 125 126 127
f 127 126 128
f 129 130 131
f 131 130 132
f 131 132 133
f 133 132 134
f 133 134 135
f 135 134 136
f 135 136 137
f 137 136 138
f 137 138 139
f 139 138 140
f 139 140 141
f 141 140 142
f 143 144 145
f 145 144 146
f 145 146 147
f 147 146 148
f 147 148 149
f 149 148 150
f 149 150 151
f 151 150 152
f 151 152 153
f 153 152 154
f 153 154 155
f 155 154 156
f 157 158 159
f 159 158 160
f 159 160 161
f 161 160 162
f 161 162 163
f 163 162 164
f 163 164 165
f 165 164 166
f 165 166 167
f 167 166 168
f 167 168 169
f 169 168 170
f 171 161 163
f 159 161 171
f 157 159 171
f 171 167 169
f 165 167 171
f 163 165 171
f 172 173 174
f 174 173 175
f 174 175 176
f 176 175 177
f 176 177 178
f 178 177 179
f 178 179 180
f 180 179 181
f 180 181 182
f 182 181 183
f 182 183 184
f 184 183 185
f 186 176 178
f 174 176 186
f 172 174 186
f 186 182 184
f 180 182 186
f 178 180 186
f 187 188 189
f 189 188 190
f 189 190 191
f 191 190 192
f 191 192 193
f 193 192 194
f 193 194 195
f 195 194 196
f 195 196 197
f 197 196 198
f 197 198 199
f 199 198 200
f 201 191 193
f 189 191 201
f 187 189 201
f 201 197 199
f 195 197 201
f 193 195 201
f 202 203 204
f 204 203 205
f 204 205 206
f 206 205 207
f 206 207 208
f 208 207 209
f 208 209 210
f 210 209 211
f 210 211 212
f 212 211 213
f 212 213 214
f 214 213 215
f 216 217 218
f 218 217 219
f 218 219 220
f 220 219 221
f 220 221 222
f 222 221 223
f 222 223 224
f 224 223 225
f 224 225 226
f 226 225 227
f 226 227 228
f 228 227 229
f 230 231 232
f 232 231 233
f 232 233 234
f 234 233 235
f 234 235 236
f 236 235 237
f 236 237 238
f 238 237 239
f 238 239 240
f 240 239 241
f 240 241 242
f 242 241 243
f 244 245 246
f 246 245 247
f 246 247 248
f 248 247 249
f 248 249 250
f 250 249 251
f 250 251 252
f 252 251 253
f 252 253 254
f 254 253 255
f 254 255 256
f 256 255 257
f 258 259 260
f 260 259 261
f 260 261 262
f 262 261 263
f 262 263 264
f 264 263 265
f 264 265 266
f 266 265 267
f 266 267 268
f 268 267 269
f 268 269 270
f 270 269 271
f 272 273 274
f 274 273 275
f 274 275 276
f 276 275 277
f 276 277 278
f 278 277 279
f 278 279 280
f 280 279 281
f 280 281 282
f 282 281 283
f 282 283 284
f 284 283 285
f 286 287 288
f 288 287 289
f 288 289 290
f 290 289 291
f 290 291 292
f 292 291 293
f 292 293 294
f 294 293 295
f 294 295 296
f 296 295 297
f 296 297 298
f 298 297 299
f 300 301 302
f 302 301 303
f 302 303 304
f 304 303 305
f 304 305 306
f 306 305 307
f 306 307 308
f 308 307 309
f 308 309 310
f 310 309 311
f 310 311 312
f 312 311 313
f 314 315 316
f 316 315 317
f 316 317 318
f 318 317 319
f 318 319 320
f 320 319 321
f 320 321 322
f 322 321 323
f 322 323 324
f 324 323 325
f 324 325 326
f 326 325 327
f 328 329 330
f 330 329 331
f 330 331 332
f 332 331 333
f 334 335 336
f 336 335 337
f 336 337 338
f 338 337 339
f 338 339 340
f 340 339 341
f 340 341 342
f 342 341 343
f 342 343 344
f 344 343 345
f 344 345 346
f 346 345 347
f 346 347 328
f 328 347 329
f 348 349 350
f 350 349 351
f 350 351 352
f 352 351 353
f 352 353 354
f 354 353 355
f 354 355 356
f 356 355 357
f 356 357 358
f 358 357 359
f 358 359 360
f 360 359 361
f 362 363 364
f 365 366 367
f 362 364 368
f 368 364 369
f 368 369 370
f 370 369 371
f 370 371 372
f 371 373 372
f 372 373 374
f 372 374 375
f 375 374 376
f 375 376 377
f 377 376 378
f 377 378 379
f 379 378 380
f 379 380 381
f 381 380 382
f 381 382 367
f 367 382 383
f 367 383 365
f 365 383 384
f 365 384 385
f 385 384 386
f 385 386 387
f 386 388 387
f 387 388 389
f 387 389 390
f 390 389 391
f 390 391 392
f 393 394 395
f 396 397 398
f 399 400 401
f 401 402 399
f 399 402 403
f 399 403 404
f 404 403 405
f 404 405 406
f 406 405 407
f 406 407 408
f 408 409 406
f 406 409 410
f 406 410 411
f 411 410 412
f 411 412 413
f 414 415 416
f 416 415 417
f 416 417 398
f 398 417 418
f 419 396 420
f 420 396 398
f 420 398 421
f 421 398 418
f 420 422 419
f 419 422 423
f 419 423 424
f 424 423 425
f 424 425 426
f 426 425 427
f 426 427 428
f 428 427 429
f 428 429 395
f 395 429 430
f 395 430 393
f 413 412 431
f 431 412 415
f 431 415 432
f 432 415 414
f 432 414 433
f 434 435 436
f 437 438 439
f 341 339 440
f 345 343 142
f 441 76 74
f 440 339 442
f 442 339 337
f 442 337 335
f 104 102 443
f 444 445 446
f 447 448 431
f 431 448 33
f 431 33 413
f 449 78 76
f 446 434 444
f 444 434 436
f 444 436 450
f 450 436 439
f 450 439 335
f 335 439 438
f 335 438 442
f 449 451 78
f 78 451 452
f 78 452 80
f 80 452 447
f 80 447 82
f 82 447 431
f 82 431 84
f 142 110 453
f 453 110 454
f 455 456 457
f 457 456 458
f 457 458 459
f 459 458 437
f 459 437 460
f 460 437 439
f 38 40 433
f 441 461 76
f 76 461 462
f 76 462 449
f 449 462 114
f 449 114 463
f 464 465 466
f 343 341 142
f 142 341 440
f 142 440 110
f 110 440 467
f 102 468 443
f 443 468 469
f 443 469 441
f 84 431 40
f 40 431 432
f 40 432 433
f 108 470 110
f 110 470 471
f 110 471 454
f 472 401 400
f 473 138 136
f 29 27 31
f 31 27 26
f 31 26 33
f 33 26 474
f 33 474 413
f 401 472 464
f 464 472 475
f 464 475 465
f 465 475 476
f 465 476 477
f 473 136 478
f 136 134 478
f 478 134 132
f 478 132 130
f 74 72 441
f 441 72 70
f 441 70 443
f 443 70 479
f 443 479 480
f 480 479 481
f 480 481 482
f 482 481 483
f 433 484 485
f 486 472 487
f 487 472 400
f 487 400 488
f 488 400 489
f 490 491 492
f 492 491 493
f 492 493 466
f 466 493 494
f 466 494 464
f 345 142 347
f 347 142 140
f 347 140 329
f 329 140 138
f 329 138 331
f 331 138 473
f 331 473 333
f 333 473 23
f 333 23 495
f 443 478 104
f 104 478 130
f 104 130 106
f 106 130 496
f 106 496 108
f 108 496 497
f 108 497 470
f 38 433 35
f 35 433 485
f 35 485 498
f 477 476 499
f 499 476 463
f 499 463 500
f 500 463 114
f 500 114 467
f 467 114 112
f 467 112 110
f 501 502 481
f 481 502 503
f 481 503 483
f 23 21 19
f 495 23 16
f 16 23 19
f 16 19 17
f 504 505 506
f 506 505 507
f 508 509 510
f 511 512 513
f 513 514 511
f 511 514 515
f 511 515 510
f 510 515 516
f 510 516 508
f 381 367 517
f 381 517 379
f 518 519 520
f 521 522 517
f 517 522 504
f 517 504 379
f 506 523 524
f 372 375 504
f 504 375 377
f 504 377 379
f 520 525 518
f 518 525 523
f 518 523 526
f 526 523 506
f 524 362 506
f 506 362 368
f 506 368 504
f 504 368 370
f 504 370 372
f 527 528 529
f 529 528 526
f 529 526 530
f 530 526 506
f 531 519 532
f 532 519 533
f 533 519 534
f 534 519 518
f 534 518 535
f 536 537 538
f 394 393 539
f 394 539 540
f 540 539 541
f 540 541 542
f 542 541 543
f 542 543 544
f 544 545 542
f 542 545 546
f 542 546 547
f 547 546 548
f 547 548 549
f 549 548 550
f 549 550 538
f 538 550 551
f 538 551 536
f 436 552 553
f 553 552 554
f 554 552 555
f 554 555 556
f 556 555 557
f 556 557 537
f 537 557 558
f 537 558 538
f 559 560 561
f 562 563 564
f 564 563 559
f 564 559 565
f 565 559 561
f 562 566 563
f 563 566 567
f 563 567 568
f 568 567 569
f 569 567 570
f 569 570 494
f 494 570 464
f 464 570 402
f 464 402 401
f 436 553 439
f 439 553 560
f 439 560 460
f 460 560 559
f 460 559 459
f 512 511 571
f 571 511 572
f 573 574 473
f 473 478 573
f 573 478 575
f 573 575 576
f 576 575 577
f 576 577 578
f 579 580 581
f 581 580 576
f 581 576 582
f 582 576 578
f 480 583 443
f 443 583 584
f 511 510 572
f 572 510 585
f 585 586 572
f 572 586 587
f 572 587 584
f 584 587 588
f 584 588 443
f 589 590 591
f 592 593 594
f 242 595 596
f 324 326 385
f 597 598 599
f 600 601 602
f 601 600 603
f 603 600 604
f 603 604 605
f 260 604 258
f 258 604 606
f 258 606 607
f 260 262 604
f 604 262 264
f 604 264 605
f 605 264 266
f 605 266 608
f 608 266 268
f 608 268 609
f 268 270 609
f 609 270 610
f 609 610 611
f 611 610 612
f 607 606 613
f 613 606 614
f 613 614 615
f 206 208 614
f 614 208 611
f 614 611 615
f 615 611 612
f 616 617 214
f 214 617 618
f 214 618 212
f 212 618 611
f 212 611 210
f 210 611 208
f 252 619 250
f 250 619 620
f 250 620 248
f 248 620 246
f 621 622 623
f 623 622 624
f 625 390 626
f 626 390 392
f 626 392 256
f 256 392 619
f 256 619 254
f 254 619 252
f 627 628 629
f 625 621 390
f 390 621 623
f 390 623 387
f 387 623 630
f 387 630 385
f 385 630 631
f 385 631 324
f 316 596 314
f 314 596 629
f 314 629 632
f 632 629 628
f 316 318 596
f 596 318 320
f 596 320 631
f 631 320 322
f 631 322 324
f 326 633 385
f 385 633 634
f 385 634 365
f 365 634 627
f 365 627 366
f 366 627 629
f 635 512 636
f 636 512 571
f 312 637 594
f 637 638 594
f 594 638 639
f 594 639 635
f 635 639 640
f 635 640 512
f 640 641 512
f 512 641 300
f 512 300 513
f 513 300 302
f 513 302 514
f 514 302 304
f 514 304 306
f 310 642 308
f 308 642 643
f 308 643 306
f 306 643 514
f 514 643 644
f 514 644 515
f 515 644 645
f 515 645 516
f 599 646 597
f 597 646 647
f 597 647 509
f 296 298 648
f 649 650 645
f 645 650 651
f 645 651 516
f 516 651 652
f 516 652 508
f 508 652 653
f 508 653 509
f 509 653 286
f 286 288 509
f 509 288 290
f 509 290 597
f 597 290 292
f 597 292 654
f 654 292 294
f 654 294 296
f 238 240 655
f 593 230 594
f 594 230 642
f 594 642 312
f 312 642 310
f 230 232 642
f 642 232 234
f 642 234 236
f 656 629 657
f 596 595 629
f 629 595 658
f 629 658 657
f 659 660 228
f 228 660 661
f 296 648 654
f 654 648 662
f 654 662 216
f 659 663 660
f 660 663 664
f 660 664 648
f 648 664 665
f 648 665 662
f 218 220 666
f 666 220 222
f 666 222 667
f 667 222 224
f 667 224 661
f 661 224 226
f 661 226 228
f 202 204 668
f 616 669 617
f 617 669 670
f 617 670 671
f 671 670 672
f 671 672 591
f 591 672 673
f 591 673 202
f 202 668 591
f 591 668 13
f 591 13 589
f 5 7 660
f 11 674 9
f 9 674 675
f 9 675 7
f 676 1 644
f 644 1 645
f 645 1 3
f 645 3 677
f 676 678 679
f 679 678 680
f 679 680 681
f 681 680 682
f 681 682 683
f 602 684 600
f 600 684 685
f 600 685 604
f 604 685 686
f 604 686 606
f 606 686 668
f 606 668 614
f 614 668 204
f 614 204 206
f 619 617 620
f 620 617 671
f 620 671 687
f 687 671 591
f 687 591 682
f 682 591 590
f 682 590 683
f 683 590 589
f 624 244 623
f 623 244 688
f 623 688 630
f 630 688 689
f 630 689 631
f 631 689 690
f 631 690 596
f 596 690 655
f 596 655 242
f 242 655 240
f 244 246 688
f 688 246 620
f 688 620 689
f 689 620 687
f 689 687 690
f 690 687 682
f 690 682 655
f 655 682 680
f 691 692 667
f 693 694 284
f 284 694 282
f 284 695 693
f 693 695 696
f 693 696 697
f 7 675 660
f 660 675 698
f 660 698 661
f 661 698 693
f 661 693 667
f 667 693 697
f 667 697 691
f 272 274 699
f 274 276 699
f 699 276 278
f 699 278 694
f 694 278 280
f 694 280 282
f 676 644 678
f 678 644 643
f 678 643 680
f 680 643 642
f 680 642 655
f 655 642 236
f 655 236 238
f 3 5 677
f 677 5 660
f 677 660 645
f 645 660 648
f 645 648 649
f 649 648 298
f 657 592 656
f 656 592 594
f 656 594 700
f 700 594 635
f 700 635 701
f 701 635 636
f 216 218 654
f 654 218 666
f 654 666 597
f 597 666 702
f 597 702 598
f 598 702 703
f 692 272 667
f 667 272 699
f 667 699 666
f 666 699 704
f 666 704 702
f 702 704 705
f 702 705 703
f 535 703 534
f 534 703 705
f 534 705 533
f 533 705 704
f 533 704 532
f 532 704 699
f 532 699 531
f 531 699 694
f 531 694 602
f 602 694 693
f 602 693 684
f 684 693 698
f 684 698 685
f 685 698 675
f 685 675 686
f 686 675 674
f 686 674 668
f 668 674 11
f 668 11 13
f 519 706 707
f 519 707 520
f 363 362 708
f 708 362 524
f 708 524 709
f 709 524 523
f 709 523 710
f 710 523 525
f 710 525 711
f 711 525 520
f 711 520 712
f 712 520 707
f 391 713 392
f 392 713 619
f 619 713 617
f 617 713 714
f 617 714 618
f 618 714 715
f 618 715 611
f 611 715 716
f 611 716 609
f 716 717 609
f 609 717 718
f 609 718 608
f 608 718 605
f 605 718 719
f 605 719 603
f 719 720 603
f 603 720 721
f 603 721 601
f 601 721 706
f 601 706 602
f 602 706 519
f 602 519 531
f 366 629 367
f 367 629 656
f 367 656 517
f 517 656 700
f 517 700 701
f 571 572 584
f 573 576 522
f 521 636 522
f 522 636 571
f 522 571 573
f 573 571 584
f 505 504 580
f 580 504 522
f 580 522 576
f 424 426 584
f 540 542 573
f 426 428 584
f 584 428 395
f 584 395 573
f 573 395 394
f 573 394 540
f 424 584 419
f 419 584 583
f 419 583 396
f 542 547 573
f 573 547 549
f 573 549 574
f 574 549 538
f 526 575 518
f 518 575 478
f 518 478 535
f 535 478 443
f 535 443 703
f 703 443 588
f 4 722 6
f 723 724 725
f 711 726 727
f 376 728 378
f 729 730 731
f 293 291 708
f 708 291 363
f 363 291 289
f 363 289 364
f 364 289 287
f 364 287 732
f 299 297 733
f 733 297 295
f 733 295 293
f 732 734 364
f 364 734 735
f 364 735 736
f 311 309 737
f 737 309 307
f 737 307 371
f 371 307 305
f 371 305 373
f 305 303 373
f 373 303 301
f 373 301 374
f 374 301 738
f 374 738 376
f 738 739 376
f 376 739 740
f 376 740 728
f 728 740 741
f 728 741 742
f 327 325 743
f 382 744 383
f 383 744 745
f 383 745 384
f 325 323 743
f 743 323 321
f 743 321 746
f 746 321 319
f 319 317 746
f 746 317 315
f 746 315 382
f 382 315 747
f 382 747 744
f 745 748 384
f 384 748 749
f 384 749 386
f 750 389 751
f 751 389 388
f 751 388 386
f 752 245 751
f 751 245 753
f 751 753 750
f 257 713 754
f 754 713 391
f 754 391 755
f 755 391 389
f 755 389 756
f 756 389 750
f 757 249 752
f 752 249 247
f 752 247 245
f 257 255 713
f 713 255 253
f 713 253 251
f 758 759 760
f 760 714 758
f 758 714 713
f 758 713 757
f 757 713 251
f 757 251 249
f 213 716 215
f 215 716 715
f 215 715 761
f 761 715 714
f 761 714 762
f 762 714 760
f 213 211 716
f 716 211 209
f 716 209 763
f 763 209 207
f 763 764 716
f 716 764 765
f 716 765 717
f 765 766 717
f 717 766 271
f 717 271 718
f 718 271 269
f 718 269 719
f 719 269 267
f 719 267 265
f 263 261 767
f 767 261 259
f 767 259 768
f 768 259 769
f 768 769 763
f 763 769 770
f 763 770 764
f 721 720 771
f 771 720 719
f 771 719 767
f 767 719 265
f 767 265 263
f 772 773 774
f 277 775 279
f 279 775 707
f 277 275 775
f 775 275 273
f 775 273 774
f 774 273 776
f 774 776 772
f 773 777 778
f 778 777 779
f 778 779 721
f 721 779 285
f 721 285 706
f 706 285 283
f 706 283 707
f 707 283 281
f 707 281 279
f 293 708 733
f 733 708 709
f 733 709 727
f 727 709 710
f 727 710 711
f 233 728 780
f 780 728 742
f 780 742 313
f 243 241 781
f 781 241 239
f 781 239 782
f 782 239 237
f 782 237 780
f 780 237 235
f 780 235 233
f 783 746 784
f 784 746 382
f 784 382 785
f 785 382 380
f 785 380 786
f 786 380 378
f 786 378 787
f 787 378 728
f 787 728 231
f 231 728 233
f 219 217 733
f 733 217 731
f 733 731 299
f 299 731 730
f 788 789 790
f 790 789 791
f 790 791 792
f 792 791 731
f 792 731 793
f 793 731 217
f 219 733 221
f 221 733 727
f 221 727 223
f 223 727 726
f 223 726 774
f 774 726 711
f 774 711 775
f 775 711 712
f 775 712 707
f 788 794 789
f 789 794 229
f 789 229 795
f 795 229 227
f 795 227 774
f 774 227 225
f 774 225 223
f 796 205 203
f 14 796 797
f 797 796 203
f 797 203 798
f 799 800 801
f 801 800 802
f 802 800 803
f 802 803 797
f 797 803 804
f 797 804 14
f 722 4 805
f 723 725 2
f 14 12 796
f 796 12 10
f 796 10 806
f 369 364 807
f 807 364 736
f 807 736 725
f 725 736 805
f 725 805 2
f 2 805 4
f 371 369 737
f 737 369 807
f 737 807 808
f 808 807 725
f 808 725 801
f 801 725 724
f 801 724 799
f 799 724 723
f 735 729 736
f 736 729 731
f 736 731 805
f 805 731 791
f 805 791 722
f 722 791 789
f 722 789 6
f 6 789 8
f 783 243 746
f 746 243 781
f 746 781 743
f 743 781 809
f 313 311 780
f 780 311 737
f 780 737 782
f 782 737 808
f 782 808 781
f 781 808 801
f 781 801 809
f 809 801 802
f 773 778 774
f 774 778 810
f 774 810 795
f 795 810 806
f 795 806 789
f 789 806 10
f 789 10 8
f 749 327 386
f 386 327 743
f 386 743 751
f 751 743 809
f 751 809 752
f 752 809 802
f 752 802 757
f 757 802 797
f 757 797 758
f 758 797 798
f 758 798 759
f 721 771 778
f 778 771 767
f 778 767 810
f 810 767 768
f 810 768 806
f 806 768 763
f 806 763 796
f 796 763 207
f 796 207 205
f 45 47 811
f 812 813 814
f 63 815 61
f 183 816 817
f 422 818 819
f 97 99 820
f 147 149 541
f 151 153 821
f 821 153 155
f 821 155 822
f 822 155 823
f 822 823 824
f 825 826 430
f 430 826 827
f 430 827 393
f 393 827 828
f 393 828 539
f 539 828 143
f 539 143 541
f 541 143 145
f 541 145 147
f 829 543 830
f 830 543 541
f 830 541 821
f 821 541 149
f 821 149 151
f 546 545 829
f 829 545 544
f 829 544 543
f 548 831 550
f 550 831 832
f 550 832 833
f 554 556 834
f 834 556 537
f 834 537 835
f 835 537 536
f 835 536 551
f 564 565 836
f 836 565 561
f 836 561 560
f 402 570 837
f 402 838 403
f 403 838 67
f 410 409 839
f 839 409 408
f 839 408 840
f 840 408 407
f 840 407 405
f 841 415 412
f 415 99 842
f 418 843 85
f 415 842 417
f 842 844 417
f 417 844 845
f 417 845 418
f 418 845 846
f 418 846 843
f 87 89 847
f 87 847 85
f 91 93 820
f 820 93 95
f 820 95 97
f 85 847 418
f 418 847 848
f 418 848 421
f 849 850 421
f 851 852 819
f 852 425 819
f 819 425 423
f 819 423 422
f 852 853 425
f 425 853 854
f 425 854 427
f 125 855 123
f 123 855 856
f 854 115 427
f 427 115 117
f 427 117 429
f 429 117 119
f 429 119 121
f 824 825 822
f 822 825 430
f 822 430 857
f 857 430 429
f 857 429 856
f 856 429 121
f 856 121 123
f 858 859 860
f 816 183 831
f 183 181 831
f 831 181 179
f 831 179 832
f 832 179 177
f 832 177 861
f 861 177 175
f 861 175 862
f 862 175 173
f 862 173 863
f 863 173 864
f 863 864 865
f 859 866 860
f 860 866 867
f 860 867 817
f 817 867 185
f 817 185 183
f 421 850 420
f 420 850 868
f 420 868 422
f 422 868 869
f 422 869 818
f 818 869 870
f 818 870 170
f 170 168 871
f 871 168 166
f 160 872 162
f 162 872 164
f 849 421 873
f 873 421 848
f 873 848 158
f 158 848 847
f 158 847 874
f 170 871 818
f 818 871 127
f 818 127 819
f 819 127 875
f 819 875 851
f 837 876 402
f 402 876 877
f 402 877 838
f 838 877 65
f 838 65 67
f 878 879 880
f 880 881 57
f 815 878 61
f 61 878 880
f 61 880 59
f 59 880 57
f 882 883 839
f 839 883 841
f 839 841 410
f 410 841 412
f 883 884 841
f 841 884 885
f 841 885 881
f 881 885 55
f 881 55 57
f 882 839 886
f 886 839 840
f 886 840 67
f 67 840 405
f 67 405 403
f 887 51 53
f 887 53 837
f 45 811 43
f 813 888 814
f 814 888 889
f 814 889 890
f 889 891 890
f 890 891 892
f 890 892 811
f 811 892 41
f 811 41 43
f 166 164 871
f 871 164 872
f 871 872 893
f 893 872 894
f 893 894 895
f 895 894 896
f 895 896 860
f 860 896 863
f 860 863 858
f 858 863 865
f 198 196 890
f 890 196 194
f 890 194 814
f 814 194 192
f 879 897 890
f 890 897 200
f 890 200 198
f 192 190 814
f 814 190 188
f 814 188 878
f 878 188 898
f 878 898 899
f 899 900 878
f 878 900 901
f 878 901 879
f 879 901 902
f 879 902 897
f 63 65 815
f 815 65 877
f 815 877 878
f 878 877 876
f 878 876 814
f 814 876 837
f 814 837 812
f 812 837 53
f 99 415 820
f 820 415 841
f 820 841 903
f 903 841 881
f 903 881 904
f 904 881 880
f 904 880 905
f 905 880 879
f 905 879 906
f 906 879 890
f 906 890 907
f 907 890 811
f 907 811 908
f 89 91 847
f 847 91 820
f 847 820 874
f 874 820 903
f 874 903 909
f 909 903 904
f 909 904 910
f 910 904 905
f 910 905 911
f 911 905 906
f 911 906 912
f 912 906 907
f 912 907 913
f 913 907 908
f 913 908 914
f 915 887 916
f 916 887 917
f 125 127 855
f 855 127 871
f 855 871 856
f 856 871 893
f 856 893 857
f 857 893 895
f 857 895 822
f 822 895 860
f 822 860 821
f 821 860 817
f 821 817 830
f 830 817 816
f 830 816 829
f 829 816 831
f 829 831 546
f 546 831 548
f 160 158 872
f 872 158 874
f 872 874 894
f 894 874 909
f 894 909 896
f 896 909 910
f 896 910 863
f 863 910 911
f 863 911 862
f 862 911 912
f 862 912 861
f 861 912 913
f 861 913 832
f 832 913 914
f 832 914 833
f 916 918 919
f 919 918 920
f 560 918 836
f 836 918 916
f 836 916 564
f 564 916 917
f 564 917 562
f 562 917 887
f 562 887 566
f 566 887 837
f 566 837 567
f 567 837 570
f 835 348 350
f 350 352 835
f 835 352 354
f 835 354 834
f 834 354 356
f 834 356 358
f 360 921 920
f 921 922 920
f 920 922 923
f 920 923 924
f 925 926 914
f 358 360 834
f 834 360 920
f 834 920 554
f 554 920 918
f 554 918 553
f 553 918 560
f 51 887 49
f 49 887 915
f 49 915 47
f 47 915 916
f 47 916 811
f 811 916 919
f 811 919 908
f 908 919 920
f 908 920 914
f 914 920 924
f 914 924 925
f 926 348 914
f 914 348 835
f 914 835 833
f 833 835 551
f 833 551 550
f 509 647 510
f 506 507 530
f 530 507 579
f 530 579 581
f 360 361 921
f 921 361 927
f 921 927 922
f 922 927 928
f 922 928 923
f 923 928 929
f 923 929 924
f 924 929 930
f 924 930 925
f 925 930 931
f 925 931 926
f 926 931 932
f 926 932 348
f 348 932 349
f 555 552 933
f 934 935 357
f 357 935 936
f 357 936 359
f 933 934 555
f 555 934 357
f 555 357 557
f 557 357 355
f 557 355 353
f 24 558 22
f 22 558 557
f 22 557 20
f 20 557 353
f 20 353 18
f 18 353 15
f 349 330 351
f 351 330 332
f 351 332 353
f 353 332 937
f 353 937 15
f 936 938 359
f 359 938 939
f 359 939 361
f 361 939 334
f 361 334 927
f 927 334 336
f 927 336 928
f 928 336 338
f 928 338 929
f 929 338 340
f 929 340 930
f 930 340 342
f 930 342 931
f 931 342 344
f 931 344 932
f 932 344 346
f 932 346 349
f 349 346 328
f 349 328 330
f 938 444 939
f 939 444 450
f 939 450 334
f 334 450 335
f 326 327 633
f 633 327 749
f 633 749 634
f 634 749 748
f 634 748 627
f 627 748 745
f 627 745 628
f 628 745 744
f 628 744 632
f 632 744 747
f 632 747 314
f 314 747 315
f 312 313 637
f 637 313 742
f 637 742 638
f 638 742 741
f 638 741 639
f 639 741 740
f 639 740 640
f 640 740 739
f 640 739 641
f 641 739 738
f 641 738 300
f 300 738 301
f 298 299 649
f 649 299 730
f 649 730 650
f 650 730 729
f 650 729 651
f 651 729 735
f 651 735 652
f 652 735 734
f 652 734 653
f 653 734 732
f 653 732 286
f 286 732 287
f 284 285 695
f 695 285 779
f 695 779 696
f 696 779 777
f 696 777 697
f 697 777 773
f 697 773 691
f 691 773 772
f 691 772 692
f 692 772 776
f 692 776 272
f 272 776 273
f 270 271 610
f 610 271 766
f 610 766 612
f 612 766 765
f 612 765 615
f 615 765 764
f 615 764 613
f 613 764 770
f 613 770 607
f 607 770 769
f 607 769 258
f 258 769 259
f 256 257 626
f 626 257 754
f 626 754 625
f 625 754 755
f 625 755 621
f 621 755 756
f 621 756 622
f 622 756 750
f 622 750 624
f 624 750 753
f 624 753 244
f 244 753 245
f 242 243 595
f 595 243 783
f 595 783 658
f 658 783 784
f 658 784 657
f 657 784 785
f 657 785 592
f 592 785 786
f 592 786 593
f 593 786 787
f 593 787 230
f 230 787 231
f 228 229 659
f 659 229 794
f 659 794 663
f 663 794 788
f 663 788 664
f 664 788 790
f 664 790 665
f 665 790 792
f 665 792 662
f 662 792 793
f 662 793 216
f 216 793 217
f 214 215 616
f 616 215 761
f 616 761 669
f 669 761 762
f 669 762 670
f 670 762 760
f 670 760 672
f 672 760 759
f 672 759 673
f 673 759 798
f 673 798 202
f 202 798 203
f 201 199 940
f 201 941 942
f 943 941 201
f 940 943 201
f 201 944 187
f 945 944 201
f 942 945 201
f 199 200 940
f 940 200 897
f 940 897 943
f 943 897 902
f 943 902 941
f 941 902 901
f 941 901 942
f 942 901 900
f 942 900 945
f 945 900 899
f 945 899 944
f 944 899 898
f 944 898 187
f 187 898 188
f 186 184 946
f 186 947 948
f 949 947 186
f 946 949 186
f 186 950 172
f 951 950 186
f 948 951 186
f 184 185 946
f 946 185 867
f 946 867 949
f 949 867 866
f 949 866 947
f 947 866 859
f 947 859 948
f 948 859 858
f 948 858 951
f 951 858 865
f 951 865 950
f 950 865 864
f 950 864 172
f 172 864 173
f 171 169 952
f 171 953 954
f 955 953 171
f 952 955 171
f 171 956 157
f 957 956 171
f 954 957 171
f 169 170 952
f 952 170 870
f 952 870 955
f 955 870 869
f 955 869 953
f 953 869 868
f 953 868 954
f 954 868 850
f 954 850 957
f 957 850 849
f 957 849 956
f 956 849 873
f 956 873 157
f 157 873 158
f 521 517 636
f 636 517 701
f 579 507 580
f 580 507 505
f 480 482 958
f 397 396 958
f 958 396 583
f 958 583 480
f 23 473 24
f 24 473 574
f 24 574 558
f 558 574 538
f 510 647 585
f 585 647 646
f 585 646 586
f 586 646 599
f 586 599 587
f 587 599 598
f 587 598 588
f 588 598 703
f 530 581 529
f 529 581 582
f 529 582 527
f 527 582 578
f 527 578 528
f 528 578 577
f 528 577 526
f 526 577 575
f 155 156 823
f 823 156 959
f 823 959 824
f 824 959 960
f 824 960 825
f 825 960 961
f 825 961 826
f 826 961 962
f 826 962 827
f 827 962 963
f 827 963 828
f 828 963 964
f 828 964 143
f 143 964 144
f 963 965 964
f 964 965 966
f 964 966 144
f 144 966 129
f 144 129 146
f 146 129 131
f 146 131 148
f 148 131 133
f 148 133 150
f 150 133 135
f 150 135 152
f 152 135 137
f 152 137 154
f 154 137 139
f 154 139 156
f 156 139 141
f 156 141 959
f 959 141 967
f 959 967 960
f 960 967 968
f 960 968 961
f 961 968 969
f 961 969 962
f 962 969 970
f 962 970 963
f 963 970 965
f 141 142 967
f 967 142 453
f 967 453 968
f 968 453 454
f 968 454 969
f 969 454 471
f 969 471 970
f 970 471 470
f 970 470 965
f 965 470 497
f 965 497 966
f 966 497 496
f 966 496 129
f 129 496 130
f 127 128 875
f 875 128 971
f 875 971 851
f 851 971 972
f 851 972 852
f 852 972 973
f 852 973 853
f 853 973 974
f 853 974 854
f 854 974 975
f 854 975 115
f 115 975 116
f 972 976 973
f 973 976 977
f 973 977 974
f 974 977 978
f 974 978 975
f 975 978 979
f 975 979 116
f 116 979 101
f 116 101 118
f 118 101 103
f 118 103 120
f 120 103 105
f 120 105 122
f 122 105 107
f 122 107 124
f 124 107 109
f 124 109 126
f 126 109 111
f 126 111 128
f 128 111 113
f 128 113 971
f 971 113 980
f 971 980 972
f 972 980 976
f 113 114 980
f 980 114 462
f 980 462 976
f 976 462 461
f 976 461 977
f 977 461 441
f 977 441 978
f 978 441 469
f 978 469 979
f 979 469 468
f 979 468 101
f 101 468 102
f 99 100 842
f 842 100 981
f 842 981 844
f 844 981 982
f 844 982 845
f 845 982 983
f 845 983 846
f 846 983 984
f 846 984 843
f 843 984 985
f 843 985 85
f 85 985 86
f 397 958 986
f 985 984 987
f 398 984 416
f 416 984 983
f 416 983 982
f 100 98 79
f 397 986 398
f 398 986 988
f 398 988 984
f 984 988 989
f 984 989 987
f 36 990 982
f 982 990 991
f 982 991 416
f 416 991 992
f 416 992 414
f 79 98 77
f 77 98 96
f 77 96 75
f 79 81 100
f 100 81 83
f 100 83 981
f 981 83 39
f 981 39 982
f 982 39 37
f 982 37 36
f 987 993 985
f 985 993 994
f 985 994 86
f 86 994 69
f 86 69 88
f 88 69 71
f 88 71 90
f 90 71 73
f 90 73 92
f 92 73 75
f 92 75 94
f 94 75 96
f 993 481 994
f 994 481 479
f 994 479 69
f 69 479 70
f 67 68 886
f 886 68 995
f 886 995 882
f 882 995 996
f 882 996 883
f 883 996 997
f 883 997 884
f 884 997 998
f 884 998 885
f 885 998 999
f 885 999 55
f 55 999 56
f 58 56 1000
f 1001 399 404
f 1000 56 1002
f 1002 56 999
f 1002 999 1003
f 1003 999 998
f 1003 998 34
f 34 998 997
f 34 997 32
f 32 997 996
f 32 996 30
f 404 406 996
f 411 1004 406
f 406 1004 25
f 406 25 996
f 996 25 28
f 996 28 30
f 1001 404 1005
f 1006 1005 68
f 68 1005 404
f 68 404 995
f 995 404 996
f 1000 1007 58
f 58 1007 1008
f 58 1008 60
f 60 1008 1009
f 60 1009 62
f 62 1009 1010
f 62 1010 64
f 64 1010 1011
f 64 1011 66
f 66 1011 1012
f 66 1012 68
f 68 1012 1013
f 68 1013 1006
f 34 33 1003
f 1003 33 448
f 1003 448 1002
f 1002 448 447
f 1002 447 1000
f 1000 447 452
f 1000 452 1007
f 1007 452 451
f 1007 451 1008
f 1008 451 449
f 1008 449 1009
f 1009 449 463
f 1009 463 1010
f 1010 463 476
f 1010 476 1011
f 1011 476 475
f 1011 475 1012
f 1012 475 472
f 53 54 812
f 812 54 1014
f 812 1014 813
f 813 1014 1015
f 813 1015 888
f 888 1015 1016
f 888 1016 889
f 889 1016 1017
f 889 1017 891
f 891 1017 1018
f 891 1018 892
f 892 1018 1019
f 892 1019 41
f 41 1019 42
f 1020 559 563
f 1020 563 1021
f 1021 563 50
f 1021 50 1022
f 568 569 1023
f 1023 1024 568
f 568 1024 54
f 568 54 563
f 563 54 52
f 563 52 50
f 1024 1025 54
f 54 1025 1026
f 54 1026 1014
f 1014 1026 1027
f 1014 1027 1015
f 1015 1027 1028
f 1015 1028 1016
f 1016 1028 1029
f 1016 1029 1017
f 1017 1029 1030
f 1017 1030 1018
f 1018 1030 1031
f 1018 1031 1019
f 1019 1031 1032
f 1019 1032 42
f 42 1032 1033
f 42 1033 44
f 44 1033 1034
f 44 1034 46
f 46 1034 1035
f 46 1035 48
f 48 1035 1036
f 48 1036 50
f 50 1036 1037
f 50 1037 1022
f 1027 466 1028
f 1028 466 465
f 1028 465 1029
f 1029 465 477
f 1029 477 1030
f 1030 477 499
f 1030 499 1031
f 1031 499 500
f 1031 500 1032
f 1032 500 467
f 1032 467 1033
f 1033 467 440
f 1033 440 1034
f 1034 440 442
f 1034 442 1035
f 1035 442 438
f 1035 438 1036
f 1036 438 437
f 433 414 992
f 433 992 484
f 484 992 991
f 484 991 485
f 485 991 990
f 485 990 498
f 498 990 36
f 498 36 35
f 481 993 987
f 481 987 501
f 501 987 989
f 501 989 502
f 502 989 988
f 502 988 503
f 503 988 986
f 503 986 483
f 483 986 958
f 483 958 482
f 411 413 474
f 411 474 1004
f 1004 474 26
f 1004 26 25
f 400 399 1001
f 400 1001 489
f 489 1001 1005
f 489 1005 488
f 488 1005 1006
f 488 1006 487
f 487 1006 1013
f 487 1013 486
f 486 1013 1012
f 486 1012 472
f 569 494 493
f 569 493 1023
f 1023 493 491
f 1023 491 1024
f 1024 491 490
f 1024 490 1025
f 1025 490 492
f 1025 492 1026
f 1026 492 466
f 1026 466 1027
f 459 559 1020
f 459 1020 457
f 457 1020 1021
f 457 1021 455
f 455 1021 1022
f 455 1022 456
f 456 1022 1037
f 456 1037 458
f 458 1037 1036
f 458 1036 437
f 552 436 435
f 552 435 933
f 933 435 434
f 933 434 934
f 934 434 446
f 934 446 935
f 935 446 445
f 935 445 936
f 936 445 444
f 936 444 938
f 332 333 495
f 332 495 937
f 937 495 16
f 937 16 15
f 13 14 589
f 589 14 804
f 589 804 683
f 683 804 803
f 683 803 681
f 681 803 800
f 681 800 679
f 679 800 799
f 679 799 676
f 676 799 723
f 676 723 1
f 1 723 2

