# https://github.com/mikedh/trimesh
v 0.01463357 0.02175483 0.03310597
v 0.01281218 0.02175809 0.03072216
v 0.01534871 0.02151442 0.03255923
v 0.01352733 0.02151768 0.03017542
v 0.01587223 0.02085612 0.03215832
v 0.01405085 0.02085938 0.02977451
v 0.01606385 0.01995632 0.03201068
v 0.01424247 0.01995958 0.02962687
v 0.01587223 0.01905612 0.03215587
v 0.01405085 0.01905938 0.02977206
v 0.01534871 0.01839674 0.03255497
v 0.01352733 0.01839999 0.03017116
v 0.01463357 0.01815484 0.03310106
v 0.01281218 0.01815809 0.03071725
v 0.02734723 0.02176809 0.02339193
v 0.02552585 0.02177135 0.02100812
v 0.02806237 0.02152768 0.02284519
v 0.02624099 0.02153094 0.02046138
v 0.02858589 0.02086938 0.02244428
v 0.02676451 0.02087264 0.02006047
v 0.02877752 0.01996958 0.02229664
v 0.02695613 0.01997284 0.01991284
v 0.02858589 0.01906938 0.02244183
v 0.02676451 0.01907264 0.02005802
v 0.02806237 0.01840999 0.02284093
v 0.02624099 0.01841325 0.02045712
v 0.02734723 0.01816809 0.02338701
v 0.02552585 0.01817135 0.02100321
v 0.02099040 0.02176146 0.02824895
v 0.01916901 0.02176472 0.02586514
v 0.02170554 0.02152105 0.02770220
v 0.01988416 0.02152431 0.02531840
v 0.02222906 0.02086275 0.02730130
v 0.02040768 0.02086601 0.02491749
v 0.02242069 0.01996296 0.02715366
v 0.02059930 0.01996621 0.02476985
v 0.02222906 0.01906276 0.02729885
v 0.02040768 0.01906601 0.02491504
v 0.02170554 0.01840336 0.02769795
v 0.01988416 0.01840662 0.02531414
v 0.02099040 0.01816146 0.02824404
v 0.01916901 0.01816472 0.02586023
v 0.00868021 0.00350876 -0.00641733
v 0.00868021 -0.00649123 -0.00643098
v 0.00892659 0.00350795 -0.00581903
v 0.00892659 -0.00649204 -0.00583268
v 0.00884082 0.00350707 -0.00517769
v 0.00884082 -0.00649292 -0.00519134
v 0.00844587 0.00350637 -0.00466516
v 0.00844587 -0.00649362 -0.00467881
v 0.00784756 0.00350603 -0.00441878
v 0.00784756 -0.00649396 -0.00443243
v 0.00720623 0.00350615 -0.00450456
v 0.00720623 -0.00649384 -0.00451821
v 0.00669370 0.00350669 -0.00489951
v 0.00669370 -0.00649330 -0.00491316
v 0.00201903 0.00348694 0.00957105
v 0.00201903 -0.00651305 0.00955740
v 0.00226542 0.00348612 0.01016935
v 0.00226542 -0.00651387 0.01015570
v 0.00217964 0.00348525 0.01081069
v 0.00217964 -0.00651474 0.01079704
v 0.00178469 0.00348455 0.01132321
v 0.00178469 -0.00651544 0.01130956
v 0.00118639 0.00348421 0.01156960
v 0.00118639 -0.00651578 0.01155595
v 0.00054505 0.00348433 0.01148382
v 0.00054505 -0.00651566 0.01147017
v 0.00003252 0.00348487 0.01108887
v 0.00003252 -0.00651512 0.01107522
v -0.00849673 0.00350573 -0.00419188
v -0.00849673 -0.00649427 -0.00420553
v -0.00825035 0.00350491 -0.00359358
v -0.00825035 -0.00649508 -0.00360723
v -0.00833612 0.00350403 -0.00295224
v -0.00833612 -0.00649596 -0.00296589
v -0.00873108 0.00350333 -0.00243972
v -0.00873108 -0.00649666 -0.00245337
v -0.00932938 0.00350300 -0.00219333
v -0.00932938 -0.00649699 -0.00220698
v -0.00997072 0.00350311 -0.00227911
v -0.00997072 -0.00649688 -0.00229276
v -0.01048324 0.00350365 -0.00267406
v -0.01048324 -0.00649634 -0.00268771
v -0.00957716 -0.00309997 -0.00002748
v -0.00957716 -0.00649996 -0.00003212
v -0.00901864 -0.00310152 0.00111098
v -0.00901864 -0.00650152 0.00110634
v -0.00893830 -0.00310325 0.00237652
v -0.00893830 -0.00650324 0.00237188
v -0.00934839 -0.00310488 0.00357647
v -0.00934839 -0.00650488 0.00357183
v -0.01018645 -0.00310618 0.00452814
v -0.01018645 -0.00650618 0.00452350
v -0.01132492 -0.00310695 0.00508666
v -0.01132492 -0.00650694 0.00508202
v -0.01259046 -0.00310706 0.00516700
v -0.01259046 -0.00650705 0.00516235
v -0.01379041 -0.00310650 0.00475691
v -0.01379041 -0.00650649 0.00475227
v -0.01474208 -0.00310535 0.00391885
v -0.01474208 -0.00650535 0.00391421
v -0.01080879 0.00349874 0.00092257
v -0.01080879 -0.00310125 0.00091357
v -0.01047371 0.00349763 0.00173626
v -0.01047371 -0.00310236 0.00172726
v -0.01059037 0.00349644 0.00260848
v -0.01059037 -0.00310355 0.00259947
v -0.01112750 0.00349549 0.00330552
v -0.01112750 -0.00310450 0.00329651
v -0.01194119 0.00349503 0.00364060
v -0.01194119 -0.00310496 0.00363159
v -0.01281341 0.00349519 0.00352394
v -0.01281341 -0.00310480 0.00351493
v -0.01351045 0.00349593 0.00298681
v -0.01351045 -0.00310407 0.00297780
v -0.00496216 -0.00308485 -0.01110456
v -0.00496216 -0.00648484 -0.01110920
v -0.00440364 -0.00308640 -0.00996609
v -0.00440364 -0.00648640 -0.00997073
v -0.00432331 -0.00308813 -0.00870055
v -0.00432331 -0.00648812 -0.00870520
v -0.00473339 -0.00308976 -0.00750061
v -0.00473339 -0.00648976 -0.00750525
v -0.00557146 -0.00309106 -0.00654893
v -0.00557146 -0.00649106 -0.00655357
v -0.00670992 -0.00309183 -0.00599041
v -0.00670992 -0.00649182 -0.00599505
v -0.00797546 -0.00309194 -0.00591008
v -0.00797546 -0.00649193 -0.00591472
v -0.00917541 -0.00309138 -0.00632016
v -0.00917541 -0.00649137 -0.00632480
v -0.01012708 -0.00309023 -0.00715823
v -0.01012708 -0.00649023 -0.00716287
v -0.00619379 0.00351386 -0.01015450
v -0.00619379 -0.00308613 -0.01016351
v -0.00585871 0.00351275 -0.00934081
v -0.00585871 -0.00308724 -0.00934982
v -0.00597537 0.00351156 -0.00846859
v -0.00597537 -0.00308843 -0.00847760
v -0.00651250 0.00351061 -0.00777156
v -0.00651250 -0.00308938 -0.00778057
v -0.00732620 0.00351015 -0.00743648
v -0.00732620 -0.00308984 -0.00744548
v -0.00819841 0.00351031 -0.00755313
v -0.00819841 -0.00308968 -0.00756214
v -0.00889545 0.00351105 -0.00809027
v -0.00889545 -0.00308895 -0.00809927
v 0.00693838 -0.00308274 -0.01264639
v 0.00693838 -0.00648274 -0.01265103
v 0.00749690 -0.00308429 -0.01150793
v 0.00749690 -0.00648429 -0.01151257
v 0.00757723 -0.00308602 -0.01024239
v 0.00757723 -0.00648602 -0.01024703
v 0.00716715 -0.00308766 -0.00904244
v 0.00716715 -0.00648766 -0.00904708
v 0.00632908 -0.00308896 -0.00809077
v 0.00632908 -0.00648896 -0.00809541
v 0.00519062 -0.00308972 -0.00753225
v 0.00519062 -0.00648972 -0.00753689
v 0.00392508 -0.00308983 -0.00745191
v 0.00392508 -0.00648983 -0.00745655
v 0.00272513 -0.00308927 -0.00786200
v 0.00272513 -0.00648927 -0.00786664
v 0.00177345 -0.00308813 -0.00870006
v 0.00177345 -0.00648812 -0.00870470
v 0.00570674 0.00351597 -0.01169633
v 0.00570674 -0.00308403 -0.01170534
v 0.00604182 0.00351486 -0.01088264
v 0.00604182 -0.00308514 -0.01089165
v 0.00592517 0.00351367 -0.01001043
v 0.00592517 -0.00308633 -0.01001944
v 0.00538803 0.00351272 -0.00931339
v 0.00538803 -0.00308728 -0.00932240
v 0.00457434 0.00351226 -0.00897831
v 0.00457434 -0.00308774 -0.00898732
v 0.00370212 0.00351242 -0.00909496
v 0.00370212 -0.00308758 -0.00910397
v 0.00300509 0.00351315 -0.00963210
v 0.00300509 -0.00308684 -0.00964111
v 0.01422391 -0.00309576 -0.00311115
v 0.01422391 -0.00649575 -0.00311579
v 0.01478243 -0.00309731 -0.00197269
v 0.01478243 -0.00649731 -0.00197733
v 0.01486277 -0.00309904 -0.00070715
v 0.01486277 -0.00649903 -0.00071179
v 0.01445268 -0.00310068 0.00049280
v 0.01445268 -0.00650067 0.00048816
v 0.01361462 -0.00310197 0.00144447
v 0.01361462 -0.00650197 0.00143983
v 0.01247615 -0.00310274 0.00200299
v 0.01247615 -0.00650273 0.00199835
v 0.01121061 -0.00310285 0.00208333
v 0.01121061 -0.00650284 0.00207869
v 0.01001066 -0.00310229 0.00167324
v 0.01001066 -0.00650228 0.00166860
v 0.00905899 -0.00310114 0.00083518
v 0.00905899 -0.00650114 0.00083054
v 0.01299228 0.00350295 -0.00216109
v 0.01299228 -0.00309704 -0.00217010
v 0.01332736 0.00350184 -0.00134740
v 0.01332736 -0.00309815 -0.00135641
v 0.01321070 0.00350065 -0.00047519
v 0.01321070 -0.00309934 -0.00048420
v 0.01267357 0.00349970 0.00022185
v 0.01267357 -0.00310029 0.00021284
v 0.01185988 0.00349924 0.00055693
v 0.01185988 -0.00310075 0.00054792
v 0.01098766 0.00349940 0.00044027
v 0.01098766 -0.00310059 0.00043127
v 0.01029062 0.00350014 -0.00009686
v 0.01029062 -0.00309986 -0.00010587
v 0.00960892 -0.00311088 0.00796592
v 0.00960892 -0.00651087 0.00796128
v 0.01016743 -0.00311243 0.00910439
v 0.01016743 -0.00651243 0.00909974
v 0.01024777 -0.00311416 0.01036992
v 0.01024777 -0.00651415 0.01036528
v 0.00983769 -0.00311580 0.01156987
v 0.00983769 -0.00651579 0.01156523
v 0.00899962 -0.00311709 0.01252155
v 0.00899962 -0.00651709 0.01251691
v 0.00786115 -0.00311786 0.01308007
v 0.00786115 -0.00651785 0.01307543
v 0.00659561 -0.00311797 0.01316040
v 0.00659561 -0.00651796 0.01315576
v 0.00539567 -0.00311741 0.01275032
v 0.00539567 -0.00651740 0.01274568
v 0.00444399 -0.00311626 0.01191225
v 0.00444399 -0.00651626 0.01190761
v 0.00837728 0.00348783 0.00891598
v 0.00837728 -0.00311216 0.00890697
v 0.00871236 0.00348672 0.00972967
v 0.00871236 -0.00311327 0.00972066
v 0.00859571 0.00348553 0.01060189
v 0.00859571 -0.00311446 0.01059288
v 0.00805857 0.00348458 0.01129892
v 0.00805857 -0.00311541 0.01128991
v 0.00724488 0.00348412 0.01163400
v 0.00724488 -0.00311587 0.01162499
v 0.00637266 0.00348428 0.01151735
v 0.00637266 -0.00311571 0.01150834
v 0.00567563 0.00348502 0.01098021
v 0.00567563 -0.00311498 0.01097120
v -0.00229162 -0.00311298 0.00950776
v -0.00229162 -0.00651298 0.00950312
v -0.00173310 -0.00311453 0.01064622
v -0.00173310 -0.00651453 0.01064158
v -0.00165277 -0.00311626 0.01191176
v -0.00165277 -0.00651626 0.01190712
v -0.00206285 -0.00311790 0.01311171
v -0.00206285 -0.00651790 0.01310707
v -0.00290092 -0.00311920 0.01406338
v -0.00290092 -0.00651920 0.01405874
v -0.00403938 -0.00311996 0.01462190
v -0.00403938 -0.00651996 0.01461726
v -0.00530492 -0.00312007 0.01470223
v -0.00530492 -0.00652007 0.01469759
v -0.00650487 -0.00311951 0.01429215
v -0.00650487 -0.00651951 0.01428751
v -0.00745655 -0.00311837 0.01345409
v -0.00745655 -0.00651836 0.01344944
v -0.00352326 0.00348573 0.01045781
v -0.00352326 -0.00311427 0.01044880
v -0.00318817 0.00348462 0.01127150
v -0.00318817 -0.00311538 0.01126249
v -0.00330483 0.00348343 0.01214372
v -0.00330483 -0.00311657 0.01213471
v -0.00384197 0.00348248 0.01284076
v -0.00384197 -0.00311752 0.01283175
v -0.00465566 0.00348202 0.01317584
v -0.00465566 -0.00311798 0.01316683
v -0.00552787 0.00348218 0.01305918
v -0.00552787 -0.00311782 0.01305017
v -0.00622491 0.00348291 0.01252205
v -0.00622491 -0.00311708 0.01251304
v -0.00570212 0.00349376 0.00457168
v -0.00570212 -0.00650623 0.00455803
v -0.00530791 0.00349246 0.00552896
v -0.00530791 -0.00650753 0.00551531
v -0.00544515 0.00349106 0.00655510
v -0.00544515 -0.00650893 0.00654145
v -0.00607707 0.00348994 0.00737514
v -0.00607707 -0.00651005 0.00736149
v -0.00703436 0.00348940 0.00776936
v -0.00703436 -0.00651059 0.00775571
v -0.00806050 0.00348959 0.00763211
v -0.00806050 -0.00651040 0.00761846
v -0.00888054 0.00349045 0.00700019
v -0.00888054 -0.00650954 0.00698654
v 0.00019302 0.00351308 -0.00957804
v 0.00019302 -0.00648691 -0.00959168
v 0.00058723 0.00351177 -0.00862075
v 0.00058723 -0.00648822 -0.00863440
v 0.00044999 0.00351037 -0.00759461
v 0.00044999 -0.00648962 -0.00760826
v -0.00018193 0.00350925 -0.00677457
v -0.00018193 -0.00649074 -0.00678822
v -0.00113922 0.00350871 -0.00638036
v -0.00113922 -0.00649128 -0.00639401
v -0.00216536 0.00350890 -0.00651760
v -0.00216536 -0.00649109 -0.00653125
v -0.00298540 0.00350976 -0.00714952
v -0.00298540 -0.00649023 -0.00716317
v 0.00949947 0.00349645 0.00260216
v 0.00949947 -0.00650354 0.00258851
v 0.00989369 0.00349514 0.00355944
v 0.00989369 -0.00650485 0.00354579
v 0.00975645 0.00349374 0.00458558
v 0.00975645 -0.00650625 0.00457193
v 0.00912452 0.00349262 0.00540562
v 0.00912452 -0.00650737 0.00539197
v 0.00816724 0.00349209 0.00579984
v 0.00816724 -0.00650790 0.00578619
v 0.00714110 0.00349227 0.00566259
v 0.00714110 -0.00650772 0.00564894
v 0.00632106 0.00349314 0.00503067
v 0.00632106 -0.00650685 0.00501702
v -0.00502671 -0.00650552 0.00404197
v -0.00502671 0.00349447 0.00405562
v -0.00366769 -0.00650729 0.00533696
v -0.00366769 0.00349270 0.00535061
v -0.00197501 -0.00650840 0.00614860
v -0.00197501 0.00349159 0.00616225
v -0.00011436 -0.00650874 0.00639746
v -0.00011436 0.00349125 0.00641111
v 0.00173212 -0.00650828 0.00605916
v 0.00173212 0.00349171 0.00607281
v 0.00338368 -0.00650706 0.00516683
v 0.00338368 0.00349293 0.00518048
v 0.00467867 -0.00650520 0.00380781
v 0.00467867 0.00349479 0.00382146
v 0.00549032 -0.00650289 0.00211513
v 0.00549032 0.00349710 0.00212878
v 0.00573917 -0.00650035 0.00025448
v 0.00573917 0.00349964 0.00026813
v 0.00540087 -0.00649783 -0.00159199
v 0.00540087 0.00350216 -0.00157834
v 0.00450854 -0.00649558 -0.00324356
v 0.00450854 0.00350441 -0.00322991
v -0.01539935 0.00350650 -0.00476133
v -0.01611787 -0.00649766 -0.00172184
v -0.01611787 0.00350233 -0.00170819
v -0.01622695 -0.00650193 0.00141281
v -0.01622695 0.00349806 0.00142646
v -0.01572238 -0.00650616 0.00450851
v -0.01572238 0.00349383 0.00452216
v -0.01462358 -0.00651017 0.00744628
v -0.01462358 0.00348982 0.00745993
v -0.01427652 -0.00651108 0.00811358
v -0.01297275 0.00348618 0.01012690
v -0.01297275 -0.00651381 0.01011325
v -0.01410019 -0.00648959 -0.00762724
v -0.01433642 -0.00649017 -0.00720530
v -0.01457010 -0.00649078 -0.00675585
v -0.01539935 -0.00649349 -0.00477498
v -0.01409900 -0.00648959 -0.00762927
v -0.01409900 0.00351040 -0.00761562
v -0.01252548 -0.00648653 -0.00987383
v -0.01226679 0.00351387 -0.01016139
v -0.01226679 -0.00648612 -0.01017504
v -0.00997313 0.00351679 -0.01230080
v -0.00997313 -0.00648320 -0.01231445
v -0.00730617 0.00351905 -0.01395162
v -0.00730617 -0.00648094 -0.01396527
v -0.00436839 0.00352055 -0.01505043
v -0.00436839 -0.00647944 -0.01506408
v -0.00127269 0.00352124 -0.01555499
v -0.00127269 -0.00647875 -0.01556864
v 0.00186196 0.00352109 -0.01544592
v 0.00186196 -0.00647890 -0.01545957
v 0.00491510 0.00352011 -0.01472740
v 0.00491510 -0.00647988 -0.01474105
v 0.00776940 0.00351833 -0.01342705
v 0.00776940 -0.00648166 -0.01344070
v 0.00877939 0.00351746 -0.01278963
v 0.01031517 -0.00648416 -0.01160849
v 0.01031517 0.00351583 -0.01159484
v 0.01245458 0.00351270 -0.00930118
v 0.01245458 -0.00648729 -0.00931483
v 0.01920004 -0.00400946 0.00692891
v 0.01085670 -0.00401816 0.01330375
v 0.02097671 -0.00372442 0.00925459
v 0.01263337 -0.00373312 0.01562943
v 0.02268511 -0.00287388 0.01149169
v 0.01434177 -0.00288258 0.01786653
v 0.02425957 -0.00149055 0.01355423
v 0.01591623 -0.00149925 0.01992907
v 0.02563960 0.00037243 0.01536294
v 0.01729626 0.00036373 0.02173778
v 0.02677217 0.00264345 0.01684834
v 0.01842882 0.00263475 0.02322317
v 0.02761374 0.00523525 0.01795331
v 0.01927039 0.00522655 0.02432815
v 0.02813197 0.00804822 0.01863542
v 0.01978863 0.00803951 0.02501025
v 0.02830696 0.01097426 0.01886843
v 0.01996362 0.01096555 0.02524327
v 0.01209704 0.02151619 0.03126825
v 0.01003107 0.02595518 0.03285284
v 0.02481070 0.02152945 0.02155421
v 0.02428718 0.02087005 0.02195331
v 0.02409556 0.01996985 0.02209849
v 0.02428718 0.01907006 0.02195085
v 0.01157352 0.01905680 0.03166489
v 0.01003107 0.01095519 0.03283237
v 0.01138190 0.01995659 0.03181253
v 0.01157352 0.02085679 0.03166735
v 0.02481070 0.01841176 0.02154995
v 0.01837441 0.01096390 0.02645753
v 0.01209704 0.01839850 0.03126399
v 0.01845387 0.02152281 0.02641123
v 0.02830696 0.02597424 0.01888891
v 0.01793035 0.02086342 0.02681033
v 0.01773873 0.01996323 0.02695551
v 0.01793035 0.01906342 0.02680787
v 0.01845387 0.01840513 0.02640697
v 0.00926749 -0.00401982 0.01451800
v 0.00092415 -0.00402852 0.02089284
v 0.01104416 -0.00373477 0.01684369
v 0.00270082 -0.00374348 0.02321853
v 0.01275256 -0.00288424 0.01908078
v 0.00440921 -0.00289294 0.02545562
v 0.01432702 -0.00150091 0.02114332
v 0.00598368 -0.00150961 0.02751816
v 0.01570705 0.00036207 0.02295204
v 0.00736371 0.00035337 0.02932688
v 0.01683962 0.00263309 0.02443743
v 0.00849627 0.00262439 0.03081227
v 0.01768119 0.00522489 0.02554241
v 0.00933784 0.00521619 0.03191724
v 0.01819942 0.00803786 0.02622451
v 0.00985608 0.00802916 0.03259935
v -0.00322790 -0.00402448 0.01792933
v -0.00026776 -0.00402976 0.02180353
v 0.02039194 -0.00400822 0.00601822
v 0.01488119 -0.00400762 0.00557680
v 0.01743180 -0.00400293 0.00214401
v 0.01559970 -0.00400345 0.00252367
v 0.01620615 -0.00400008 0.00005770
v 0.01570878 -0.00399917 -0.00061098
v 0.01551749 -0.00399692 -0.00226192
v 0.01358084 -0.00401151 0.00843110
v 0.01174862 -0.00401499 0.01097687
v 0.00945496 -0.00401791 0.01311627
v 0.00678800 -0.00402016 0.01476710
v 0.00385022 -0.00402166 0.01586591
v 0.00075452 -0.00402235 0.01637047
v -0.00238013 -0.00402220 0.01626139
v -0.00491879 -0.00402211 0.01619849
v -0.00543327 -0.00402122 0.01554288
v -0.00697592 -0.00402038 0.01492446
v 0.01537239 -0.00650049 0.00035750
v 0.00060652 -0.00648813 -0.00870049
v 0.00212311 -0.00649084 -0.00671560
v -0.01176039 -0.00649573 -0.00313025
v 0.01410541 -0.00649093 -0.00664787
v 0.01107261 -0.00649281 -0.00527001
v 0.01061726 -0.00649200 -0.00586596
v 0.01743180 -0.00650293 0.00214060
v 0.01770852 -0.00650342 0.00250276
v 0.01726843 -0.00650388 0.00283902
v -0.00519684 -0.00649590 -0.00300939
v -0.00600849 -0.00649821 -0.00131672
v -0.00711107 -0.00649618 -0.00280376
v -0.00390185 -0.00649404 -0.00436841
v -0.00040381 -0.00649236 -0.00559904
v 0.00086167 -0.00649215 -0.00575178
v 0.00145684 -0.00649270 -0.00535019
v 0.00314952 -0.00649381 -0.00453854
v 0.00323546 -0.00649283 -0.00525976
v 0.00566398 -0.00649716 -0.00208134
v 0.00611932 -0.00649798 -0.00148539
v 0.00103067 -0.00651072 0.00785207
v 0.00592684 -0.00650555 0.00405974
v 0.00606408 -0.00650415 0.00303360
v 0.00669601 -0.00650303 0.00221356
v 0.00765329 -0.00650249 0.00181934
v 0.00867943 -0.00650268 0.00195659
v 0.00874826 -0.00650267 0.00195534
v -0.00105516 -0.00651290 0.00944578
v -0.00368410 -0.00650820 0.00600505
v -0.00413945 -0.00650739 0.00540909
v -0.00656796 -0.00650305 0.00223068
v -0.00591904 -0.00650327 0.00239041
v 0.01620615 -0.00650008 0.00005429
v 0.00818875 -0.00648766 -0.00904438
v 0.00598670 -0.00648159 -0.01348910
v -0.00252618 -0.00648610 -0.01018577
v -0.00126475 -0.00648479 -0.01114959
v -0.00081091 -0.00648431 -0.01149635
v 0.00368854 -0.00647962 -0.01493421
v 0.00478675 -0.00648103 -0.01389918
v -0.00591383 -0.00648370 -0.01194726
v -0.00711378 -0.00648314 -0.01235735
v -0.00837932 -0.00648325 -0.01227701
v -0.00951779 -0.00648401 -0.01171849
v -0.01035586 -0.00648531 -0.01076682
v -0.01076594 -0.00648695 -0.00956687
v -0.01068560 -0.00648867 -0.00830133
v -0.00898234 -0.00649284 -0.00525286
v -0.00965060 -0.00649361 -0.00468626
v -0.01024890 -0.00649395 -0.00443988
v -0.01064385 -0.00649465 -0.00392735
v -0.01106817 -0.00649501 -0.00365915
v -0.01140588 -0.00649536 -0.00340112
v -0.01413279 -0.00649913 -0.00064142
v -0.01497085 -0.00650043 0.00031026
v -0.01299432 -0.00649837 -0.00119994
v -0.01538094 -0.00650207 0.00151020
v -0.01530060 -0.00650379 0.00277574
v -0.00726018 -0.00650377 0.00275958
v -0.00837254 -0.00650179 0.00130374
v -0.00652216 -0.00650537 0.00392611
v -0.00754830 -0.00650518 0.00378886
v -0.00850559 -0.00650572 0.00418308
v -0.00913751 -0.00650684 0.00500312
v -0.00927475 -0.00650824 0.00602926
v -0.01191523 -0.00651551 0.01135977
v -0.00483167 -0.00650811 0.00593799
v -0.00437633 -0.00650892 0.00653395
v -0.01138598 -0.00651624 0.01189668
v -0.00444325 -0.00651127 0.00825497
v -0.00570879 -0.00651138 0.00833530
v -0.00684725 -0.00651215 0.00889382
v -0.00768532 -0.00651344 0.00984550
v -0.00809540 -0.00651508 0.01104544
v -0.01083334 -0.00651694 0.01240690
v -0.00801507 -0.00651681 0.01231098
v -0.00828757 -0.00651944 0.01423911
v -0.00491879 -0.00652211 0.01619508
v -0.00007655 -0.00651661 0.01216146
v -0.00697592 -0.00652037 0.01492104
v -0.00174738 -0.00651362 0.00997468
v -0.00324330 -0.00651183 0.00866505
v -0.00322790 -0.00652447 0.01792592
v 0.00181949 -0.00651999 0.01464297
v -0.00295119 -0.00652497 0.01828807
v 0.02221333 -0.00651147 0.00839861
v 0.02177324 -0.00651193 0.00873487
v 0.01105371 -0.00651036 0.00758745
v 0.01231514 -0.00650905 0.00662364
v 0.00380514 -0.00651298 0.00950361
v 0.00270151 -0.00651371 0.01003885
v 0.00421522 -0.00651134 0.00830366
v 0.00505329 -0.00651004 0.00735199
v 0.00619175 -0.00650928 0.00679347
v 0.00745729 -0.00650917 0.00671313
v 0.00865724 -0.00650973 0.00712321
v -0.00225029 -0.00649283 -0.00526075
v -0.00337961 -0.00648892 -0.00812046
v -0.00324237 -0.00648752 -0.00914660
v -0.00261045 -0.00648640 -0.00996664
v -0.00165316 -0.00648586 -0.01036085
v -0.00062702 -0.00648605 -0.01022361
v 0.00106036 -0.00648766 -0.00904725
v 0.00910236 -0.00652514 0.01841622
v 0.01555852 -0.00651841 0.01348331
v 0.00388547 -0.00651471 0.01076915
v 0.00459755 -0.00651710 0.01252036
v 0.01087294 -0.00650519 0.00379536
v 0.01207229 -0.00649405 -0.00436394
v 0.01080675 -0.00649416 -0.00428361
v 0.00657316 -0.00649751 -0.00183215
v 0.00920210 -0.00650220 0.00160858
v 0.00966828 -0.00649492 -0.00372509
v 0.00883022 -0.00649622 -0.00277341
v 0.00842013 -0.00649786 -0.00157347
v 0.00850047 -0.00649959 -0.00030793
v 0.00368930 -0.00649235 -0.00560652
v 0.00257695 -0.00649037 -0.00706236
v 0.00154468 -0.00648320 -0.01230865
v 0.00238275 -0.00648191 -0.01326033
v 0.00352121 -0.00648114 -0.01381885
v 0.00113460 -0.00648484 -0.01110870
v 0.00121493 -0.00648657 -0.00984317
v -0.00988913 -0.00649908 -0.00068115
v -0.01052883 -0.00649882 -0.00087019
v -0.01172878 -0.00649826 -0.00128027
v -0.00919690 -0.00649835 -0.00121005
v -0.00900926 -0.00649373 -0.00460048
v -0.00625734 -0.00650075 0.00054393
v -0.00768032 -0.00650106 0.00077484
v -0.01072963 -0.00649552 -0.00328601
v -0.00953461 -0.00649871 -0.00095202
v 0.00150651 -0.00651251 0.00916245
v 0.00086517 -0.00651240 0.00907667
v 0.00026687 -0.00651273 0.00932306
v 0.00061567 -0.00651588 0.01163256
v 0.00251171 -0.00651927 0.01411407
v -0.00801803 -0.00650142 0.00103287
v -0.00690567 -0.00650340 0.00248871
v -0.00447716 -0.00650774 0.00566712
v 0.00611782 -0.00649669 -0.00242811
v 0.00644732 -0.00649248 -0.00551146
v 0.00816768 -0.00649069 -0.00682593
v 0.00752635 -0.00649057 -0.00691171
v 0.00692804 -0.00649091 -0.00666532
v 0.00653309 -0.00649161 -0.00615280
v -0.00402181 -0.00650855 0.00626307
v -0.00139287 -0.00651325 0.00970381
v 0.01041910 -0.00650566 0.00414212
v 0.00027797 -0.00651624 0.01189058
v 0.00217401 -0.00651962 0.01437210
v -0.00012808 -0.00651343 0.00983558
v -0.00021386 -0.00651431 0.01047692
v 0.01276898 -0.00650857 0.00627687
v 0.01327224 -0.00649461 -0.00395386
v 0.01520422 -0.00649494 -0.00371009
v 0.01551749 -0.00649691 -0.00226534
v 0.00701653 -0.00652732 0.02000993
v 0.00667882 -0.00652767 0.02026796
v 0.00632431 -0.00652804 0.02053883
v 0.00155362 -0.00653302 0.02418393
v 0.01727379 -0.00651662 0.01217273
v 0.01681995 -0.00651709 0.01251949
v 0.00100907 0.00348340 0.01216108
v 0.00413749 0.00351686 -0.01235012
v 0.00500970 0.00351670 -0.01223347
v 0.00374367 0.00351853 -0.01357190
v -0.00165316 0.00351413 -0.01034720
v -0.00062702 0.00351394 -0.01020996
v 0.00047587 0.00351512 -0.01107508
v -0.00236320 0.00348573 0.01045885
v 0.00678800 0.00347983 0.01477733
v 0.00659147 0.00348107 0.01386714
v 0.00385022 0.00347833 0.01587614
v 0.01358084 0.00348848 0.00844134
v 0.01039564 0.00348504 0.01096051
v 0.01174862 0.00348501 0.01098710
v -0.00850559 0.00349427 0.00419673
v -0.00754830 0.00349481 0.00380251
v -0.00834653 0.00349642 0.00262794
v 0.00314952 0.00350618 -0.00452489
v 0.00673363 0.00350394 -0.00288498
v 0.00383460 0.00350912 -0.00667921
v 0.00272224 0.00351111 -0.00813505
v 0.00145684 0.00350729 -0.00533654
v -0.00040381 0.00350763 -0.00558539
v -0.00225029 0.00350717 -0.00524710
v -0.00269108 0.00350842 -0.00616726
v -0.00600849 0.00350178 -0.00130307
v -0.00519684 0.00350409 -0.00299574
v -0.00649525 0.00350445 -0.00326064
v -0.00390185 0.00350595 -0.00435476
v -0.00703849 0.00349778 0.00162851
v -0.00625734 0.00349924 0.00055758
v -0.00321358 0.00349095 0.00663451
v -0.00413945 0.00349260 0.00542274
v -0.00591904 0.00349672 0.00240406
v 0.00545066 0.00349388 0.00448857
v 0.00606408 0.00349584 0.00304725
v 0.00669601 0.00349696 0.00222721
v 0.00981792 0.00349843 0.00115171
v 0.00765950 0.00350229 -0.00167321
v 0.00765329 0.00349750 0.00183299
v -0.01083334 0.00348305 0.01242055
v -0.00927475 0.00349175 0.00604291
v -0.00913751 0.00349316 0.00501677
v -0.01319174 0.00349918 0.00060387
v -0.01237805 0.00349964 0.00026878
v -0.01170526 0.00350242 -0.00176794
v -0.01384553 0.00349704 0.00217312
v -0.01372887 0.00349823 0.00130090
v -0.01050494 0.00350027 -0.00019698
v -0.01256918 0.00350396 -0.00289863
v -0.01126114 0.00350532 -0.00389805
v -0.00855949 0.00350814 -0.00596229
v -0.00689083 0.00351460 -0.01069163
v -0.00475532 0.00351211 -0.00886891
v -0.00923053 0.00351216 -0.00890396
v -0.00911388 0.00351335 -0.00977617
v -0.00857674 0.00351430 -0.01047321
v -0.00776305 0.00351476 -0.01080829
v 0.00287975 0.00352007 -0.01470259
v -0.00038806 0.00351666 -0.01220578
v 0.01092731 0.00350570 -0.00417002
v 0.01410541 0.00350906 -0.00663422
v 0.01000144 0.00350735 -0.00538179
v 0.00710241 0.00351253 -0.00917602
v 0.01229524 0.00350369 -0.00269823
v 0.01520422 0.00350505 -0.00369644
v 0.01428604 0.00349969 0.00022585
v 0.01570878 0.00350082 -0.00060075
v 0.01514997 0.00349815 0.00135655
v 0.01188216 0.00349474 0.00385336
v 0.01559970 0.00349654 0.00253390
v 0.01488119 0.00349238 0.00558704
v 0.00751489 0.00349019 0.00719022
v 0.00945496 0.00348209 0.01312651
v -0.00029897 0.00348204 0.01316050
v 0.00075452 0.00347764 0.01638070
v -0.00238013 0.00347779 0.01627163
v -0.00116289 0.00348358 0.01202981
v -0.00543327 0.00347877 0.01555311
v -0.00828757 0.00348055 0.01425276
v -0.00422029 0.00348646 0.00992068
v -0.00655999 0.00348402 0.01170836
v -0.00644334 0.00348521 0.01083614
v -0.00590620 0.00348616 0.01013910
v -0.00452162 0.00348958 0.00763394
v -0.00509251 0.00348662 0.00980402
v 0.00592684 0.00349444 0.00407339
v 0.00665097 0.00349173 0.00605953
v 0.00867943 0.00349731 0.00197024
v 0.01101824 0.00349629 0.00272267
v 0.00167618 0.00351298 -0.00950413
v -0.00389140 0.00351057 -0.00773822
v -0.00337961 0.00351107 -0.00810681
v -0.00324237 0.00351247 -0.00913295
v -0.00261045 0.00351359 -0.00995299
v -0.00652216 0.00349463 0.00393976
v 0.01007220 0.00350244 -0.00178277
v 0.01060933 0.00350339 -0.00247980
v 0.01142302 0.00350385 -0.00281489
v 0.00995554 0.00350125 -0.00091055
v 0.00267000 0.00351426 -0.01044579
v 0.00278666 0.00351545 -0.01131801
v 0.00332380 0.00351640 -0.01201504
v -0.01150583 0.00349948 0.00038544
v -0.00945888 0.00349840 0.00117209
v -0.00919690 0.00350164 -0.00119640
v -0.00815084 0.00349977 0.00017267
v -0.00769557 0.00350660 -0.00483160
v -0.00900926 0.00350626 -0.00458683
v -0.00965060 0.00350638 -0.00467261
v -0.01024890 0.00350604 -0.00442623
v -0.01072963 0.00350447 -0.00327236
v -0.01064385 0.00350535 -0.00391370
v -0.00021386 0.00348568 0.01049057
v -0.00105516 0.00348709 0.00945943
v 0.00371073 0.00348622 0.01009685
v 0.00164649 0.00348991 0.00739519
v 0.00150651 0.00348748 0.00917610
v 0.00284680 0.00348776 0.00896615
v -0.00012808 0.00348656 0.00984923
v 0.00026687 0.00348726 0.00933671
v 0.00086517 0.00348760 0.00909032
v 0.00768024 0.00348857 0.00837884
v 0.00680803 0.00348873 0.00826219
v 0.00534054 0.00348613 0.01016652
v 0.00545720 0.00348732 0.00929430
v 0.00599433 0.00348827 0.00859727
v 0.00752635 0.00350942 -0.00689806
v 0.00816768 0.00350930 -0.00681228
v 0.00644732 0.00350751 -0.00549781
v 0.00653309 0.00350838 -0.00613915
v 0.00692804 0.00350908 -0.00665167
v -0.00655999 -0.00311597 0.01169935
v -0.00644334 -0.00311478 0.01082713
v -0.00590620 -0.00311383 0.01013010
v -0.00509251 -0.00311337 0.00979501
v -0.00422029 -0.00311353 0.00991167
v -0.00768532 -0.00311345 0.00985014
v -0.00684725 -0.00311215 0.00889846
v -0.00570879 -0.00311139 0.00833994
v -0.00444325 -0.00311128 0.00825961
v -0.00324330 -0.00311184 0.00866969
v -0.00801507 -0.00311681 0.01231562
v -0.00809540 -0.00311509 0.01105008
v 0.00534054 -0.00311387 0.01015751
v 0.00545720 -0.00311268 0.00928530
v 0.00599433 -0.00311173 0.00858826
v 0.00680803 -0.00311127 0.00825318
v 0.00768024 -0.00311143 0.00836983
v 0.00388547 -0.00311471 0.01077379
v 0.00865724 -0.00310973 0.00712786
v 0.00380514 -0.00311298 0.00950825
v 0.00421522 -0.00311134 0.00830830
v 0.00505329 -0.00311004 0.00735663
v 0.00619175 -0.00310928 0.00679811
v 0.00745729 -0.00310917 0.00671777
v 0.00995554 -0.00309875 -0.00091956
v 0.01007220 -0.00309756 -0.00179178
v 0.01060933 -0.00309661 -0.00248881
v 0.01142302 -0.00309615 -0.00282389
v 0.01229524 -0.00309631 -0.00270724
v 0.00883022 -0.00309622 -0.00276877
v 0.00966828 -0.00309492 -0.00372045
v 0.01080675 -0.00309416 -0.00427897
v 0.01207229 -0.00309405 -0.00435930
v 0.01327224 -0.00309461 -0.00394922
v 0.00850047 -0.00309959 -0.00030329
v 0.00842013 -0.00309786 -0.00156882
v 0.00267000 -0.00308573 -0.01045480
v 0.00278666 -0.00308454 -0.01132702
v 0.00332380 -0.00308359 -0.01202405
v 0.00413749 -0.00308313 -0.01235913
v 0.00500970 -0.00308329 -0.01224248
v 0.00154468 -0.00308321 -0.01230401
v 0.00238275 -0.00308191 -0.01325569
v 0.00352121 -0.00308115 -0.01381421
v 0.00478675 -0.00308104 -0.01389454
v 0.00598670 -0.00308160 -0.01348446
v 0.00121493 -0.00308657 -0.00983852
v 0.00113460 -0.00308485 -0.01110406
v -0.00923053 -0.00308784 -0.00891296
v -0.00911388 -0.00308665 -0.00978518
v -0.00857674 -0.00308569 -0.01048222
v -0.00776305 -0.00308524 -0.01081730
v -0.00689083 -0.00308540 -0.01070064
v -0.00591383 -0.00308370 -0.01194262
v -0.01035586 -0.00308531 -0.01076218
v -0.00951779 -0.00308401 -0.01171385
v -0.00837932 -0.00308325 -0.01227237
v -0.00711378 -0.00308314 -0.01235271
v -0.01068560 -0.00308868 -0.00829669
v -0.01076594 -0.00308695 -0.00956223
v -0.01384553 -0.00310296 0.00216411
v -0.01372887 -0.00310177 0.00129189
v -0.01319174 -0.00310081 0.00059486
v -0.01237805 -0.00310036 0.00025977
v -0.01150583 -0.00310052 0.00037643
v -0.01497085 -0.00310043 0.00031490
v -0.01413279 -0.00309913 -0.00063678
v -0.01299432 -0.00309837 -0.00119530
v -0.01172878 -0.00309826 -0.00127563
v -0.01052883 -0.00309882 -0.00086555
v -0.01530060 -0.00310380 0.00278038
v -0.01538094 -0.00310207 0.00151484
v 0.01066055 0.00845070 0.03612345
v 0.01066055 0.02595069 0.03614734
v 0.00792847 0.02595557 0.03257162
v 0.00792847 0.01095558 0.03255115
v 0.00775267 0.00817487 0.03231728
v 0.01048556 0.00552466 0.03589044
v 0.00723283 0.00551408 0.03163327
v 0.00333030 -0.00624797 0.02650961
v 0.00503869 -0.00539744 0.02874671
v 0.00389945 -0.00066210 0.02726215
v 0.00661316 -0.00401410 0.03080925
v 0.00526399 0.00099875 0.02905031
v 0.00799319 -0.00215113 0.03261797
v 0.00639123 0.00308734 0.03052849
v 0.00912575 0.00011990 0.03410336
v 0.00996732 0.00271169 0.03520833
v 0.00235616 -0.00182397 0.02524071
v 0.00070030 -0.00243700 0.02307270
v 0.03132025 0.02597223 0.02036203
v 0.03132025 0.00847225 0.02033814
v 0.02027525 0.02151956 0.02879504
v 0.02663209 0.01840850 0.02393376
v 0.02610856 0.01906680 0.02433466
v 0.02663209 0.02152619 0.02393802
v 0.02610856 0.02086680 0.02433712
v 0.02591694 0.01996660 0.02448230
v 0.01391842 0.02151293 0.03365206
v 0.01391842 0.01839524 0.03364780
v 0.02027525 0.01840187 0.02879078
v 0.01339490 0.01905354 0.03404870
v 0.01320328 0.01995334 0.03419634
v 0.01339490 0.02085354 0.03405116
v 0.01975173 0.01906017 0.02919168
v 0.01956011 0.01995997 0.02933932
v 0.01975173 0.02086017 0.02919414
v 0.02136001 -0.00241546 0.00728738
v 0.02399000 -0.00622642 0.01072430
v 0.02301586 -0.00180242 0.00945539
v 0.02569840 -0.00537589 0.01296140
v 0.02455916 -0.00064056 0.01147683
v 0.02727286 -0.00399256 0.01502393
v 0.02592369 0.00102029 0.01326499
v 0.02858817 0.02597711 0.01678631
v 0.02858817 0.01097712 0.01676583
v 0.02841238 0.00819642 0.01653196
v 0.03114526 0.00554621 0.02010512
v 0.02789253 0.00553563 0.01584796
v 0.03062703 0.00273324 0.01942302
v 0.02705094 0.00310889 0.01474317
v 0.02978546 0.00014144 0.01831804
v 0.02865290 -0.00212958 0.01683265
v 0.00912038 0.02595681 0.03166093
v 0.02739627 0.02597587 0.01769700
v 0.02739627 0.01097588 0.01767653
v 0.02722047 0.00819518 0.01744265
v 0.02670063 0.00553439 0.01675865
v 0.02585903 0.00310764 0.01565386
v 0.02473179 0.00101905 0.01417568
v 0.02336725 -0.00064180 0.01238752
v 0.02182396 -0.00180366 0.01036608
v 0.02016810 -0.00241670 0.00819807
v 0.00189221 -0.00243576 0.02216201
v 0.00354806 -0.00182272 0.02433001
v 0.00509136 -0.00066086 0.02635145
v 0.00645590 0.00099999 0.02813962
v 0.00758314 0.00308858 0.02961780
v 0.00842473 0.00551533 0.03072258
v 0.00894458 0.00817612 0.03140659
v 0.00912038 0.01095682 0.03164046
v 0.01740635 0.00937113 0.02518836
v 0.01899556 0.00937279 0.02397410
v 0.01707562 0.00686128 0.02475208
v 0.01866483 0.00686294 0.02353783
v 0.01646218 0.00450057 0.02394599
v 0.01805139 0.00450223 0.02273173
v 0.01558822 0.00237448 0.02279926
v 0.01717743 0.00237613 0.02158500
v 0.01448539 0.00055999 0.02135341
v 0.01607460 0.00056164 0.02013915
v 0.01319363 -0.00087720 0.01966080
v 0.01478284 -0.00087554 0.01844655
v 0.01175971 -0.00188505 0.01778272
v 0.01334892 -0.00188339 0.01656847
v 0.01023555 -0.00242706 0.01578717
v 0.01182476 -0.00242540 0.01457291
f 1 2 3
f 3 2 4
f 3 4 5
f 5 4 6
f 5 6 7
f 7 6 8
f 7 8 9
f 9 8 10
f 9 10 11
f 11 10 12
f 11 12 13
f 13 12 14
f 15 16 17
f 17 16 18
f 17 18 19
f 19 18 20
f 19 20 21
f 21 20 22
f 21 22 23
f 23 22 24
f 23 24 25
f 25 24 26
f 25 26 27
f 27 26 28
f 29 30 31
f 31 30 32
f 31 32 33
f 33 32 34
f 33 34 35
f 35 34 36
f 35 36 37
f 37 36 38
f 37 38 39
f 39 38 40
f 39 40 41
f 41 40 42
f 43 44 45
f 45 44 46
f 45 46 47
f 47 46 48
f 47 48 49
f 49 48 50
f 49 50 51
f 51 50 52
f 51 52 53
f 53 52 54
f 53 54 55
f 55 54 56
f 57 58 59
f 59 58 60
f 59 60 61
f 61 60 62
f 61 62 63
f 63 62 64
f 63 64 65
f 65 64 66
f 65 66 67
f 67 66 68
f 67 68 69
f 69 68 70
f 71 72 73
f 73 72 74
f 73 74 75
f 75 74 76
f 75 76 77
f 77 76 78
f 77 78 79
f 79 78 80
f 79 80 81
f 81 80 82
f 81 82 83
f 83 82 84
f 85 86 87
f 87 86 88
f 87 88 89
f 89 88 90
f 89 90 91
f 91 90 92
f 91 92 93
f 93 92 94
f 93 94 95
f 95 94 96
f 95 96 97
f 97 96 98
f 97 98 99
f 99 98 100
f 99 100 101
f 101 100 102
f 103 104 105
f 105 104 106
f 105 106 107
f 107 106 108
f 107 108 109
f 109 108 110
f 109 110 111
f 111 110 112
f 111 112 113
f 113 112 114
f 113 114 115
f 115 114 116
f 117 118 119
f 119 118 120
f 119 120 121
f 121 120 122
f 121 122 123
f 123 122 124
f 123 124 125
f 125 124 126
f 125 126 127
f 127 126 128
f 127 128 129
f 129 128 130
f 129 130 131
f 131 130 132
f 131 132 133
f 133 132 134
f 135 136 137
f 137 136 138
f 137 138 139
f 139 138 140
f 139 140 141
f 141 140 142
f 141 142 143
f 143 142 144
f 143 144 145
f 145 144 146
f 145 146 147
f 147 146 148
f 149 150 151
f 151 150 152
f 151 152 153
f 153 152 154
f 153 154 155
f 155 154 156
f 155 156 157
f 157 156 158
f 157 158 159
f 159 158 160
f 159 160 161
f 161 160 162
f 161 162 163
f 163 162 164
f 163 164 165
f 165 164 166
f 167 168 169
f 169 168 170
f 169 170 171
f 171 170 172
f 171 172 173
f 173 172 174
f 173 174 175
f 175 174 176
f 175 176 177
f 177 176 178
f 177 178 179
f 179 178 180
f 181 182 183
f 183 182 184
f 183 184 185
f 185 184 186
f 185 186 187
f 187 186 188
f 187 188 189
f 189 188 190
f 189 190 191
f 191 190 192
f 191 192 193
f 193 192 194
f 193 194 195
f 195 194 196
f 195 196 197
f 197 196 198
f 199 200 201
f 201 200 202
f 201 202 203
f 203 202 204
f 203 204 205
f 205 204 206
f 205 206 207
f 207 206 208
f 207 208 209
f 209 208 210
f 209 210 211
f 211 210 212
f 213 214 215
f 215 214 216
f 215 216 217
f 217 216 218
f 217 218 219
f 219 218 220
f 219 220 221
f 221 220 222
f 221 222 223
f 223 222 224
f 223 224 225
f 225 224 226
f 225 226 227
f 227 226 228
f 227 228 229
f 229 228 230
f 231 232 233
f 233 232 234
f 233 234 235
f 235 234 236
f 235 236 237
f 237 236 238
f 237 238 239
f 239 238 240
f 239 240 241
f 241 240 242
f 241 242 243
f 243 242 244
f 245 246 247
f 247 246 248
f 247 248 249
f 249 248 250
f 249 250 251
f 251 250 252
f 251 252 253
f 253 252 254
f 253 254 255
f 255 254 256
f 255 256 257
f 257 256 258
f 257 258 259
f 259 258 260
f 259 260 261
f 261 260 262
f 263 264 265
f 265 264 266
f 265 266 267
f 267 266 268
f 267 268 269
f 269 268 270
f 269 270 271
f 271 270 272
f 271 272 273
f 273 272 274
f 273 274 275
f 275 274 276
f 277 278 279
f 279 278 280
f 279 280 281
f 281 280 282
f 281 282 283
f 283 282 284
f 283 284 285
f 285 284 286
f 285 286 287
f 287 286 288
f 287 288 289
f 289 288 290
f 291 292 293
f 293 292 294
f 293 294 295
f 295 294 296
f 295 296 297
f 297 296 298
f 297 298 299
f 299 298 300
f 299 300 301
f 301 300 302
f 301 302 303
f 303 302 304
f 305 306 307
f 307 306 308
f 307 308 309
f 309 308 310
f 309 310 311
f 311 310 312
f 311 312 313
f 313 312 314
f 313 314 315
f 315 314 316
f 315 316 317
f 317 316 318
f 319 320 321
f 321 320 322
f 321 322 323
f 323 322 324
f 323 324 325
f 325 324 326
f 325 326 327
f 327 326 328
f 327 328 329
f 329 328 330
f 329 330 331
f 331 330 332
f 331 332 333
f 333 332 334
f 333 334 335
f 335 334 336
f 335 336 337
f 337 336 338
f 337 338 339
f 339 338 340
f 341 342 343
f 343 342 344
f 343 344 345
f 345 344 346
f 345 346 347
f 347 346 348
f 347 348 349
f 349 348 350
f 349 350 351
f 351 350 352
f 341 353 354
f 354 355 341
f 341 355 356
f 341 356 342
f 353 341 357
f 357 341 358
f 357 358 359
f 359 358 360
f 359 360 361
f 361 360 362
f 361 362 363
f 363 362 364
f 363 364 365
f 365 364 366
f 365 366 367
f 367 366 368
f 367 368 369
f 369 368 370
f 369 370 371
f 371 370 372
f 371 372 373
f 373 372 374
f 373 374 375
f 375 374 376
f 375 376 377
f 376 378 377
f 377 378 379
f 377 379 380
f 381 382 383
f 383 382 384
f 383 384 385
f 385 384 386
f 385 386 387
f 387 386 388
f 387 388 389
f 389 388 390
f 389 390 391
f 391 390 392
f 391 392 393
f 393 392 394
f 393 394 395
f 395 394 396
f 395 396 397
f 397 396 398
f 2 399 400
f 401 40 38
f 401 402 40
f 40 402 403
f 40 403 404
f 397 28 26
f 405 406 407
f 407 406 400
f 407 400 408
f 408 400 399
f 28 397 409
f 409 397 398
f 409 398 404
f 404 398 410
f 404 410 40
f 405 411 406
f 406 411 14
f 406 14 12
f 6 412 8
f 8 412 10
f 26 24 397
f 397 24 22
f 397 22 413
f 413 22 20
f 412 414 10
f 10 414 415
f 10 415 12
f 12 415 416
f 12 416 406
f 406 416 417
f 406 417 410
f 410 417 42
f 410 42 40
f 20 18 413
f 413 18 16
f 413 16 401
f 2 400 4
f 4 400 413
f 4 413 6
f 6 413 30
f 6 30 412
f 38 36 401
f 401 36 34
f 401 34 413
f 413 34 32
f 413 32 30
f 418 419 420
f 420 419 421
f 420 421 422
f 422 421 423
f 422 423 424
f 424 423 425
f 424 425 426
f 426 425 427
f 426 427 428
f 428 427 429
f 428 429 430
f 430 429 431
f 430 431 432
f 432 431 433
f 432 433 410
f 410 433 406
f 434 435 419
f 381 436 437
f 437 436 438
f 437 438 439
f 439 438 440
f 439 440 441
f 441 440 442
f 437 443 381
f 381 443 444
f 381 444 382
f 382 444 418
f 444 445 418
f 418 445 446
f 418 446 419
f 446 447 419
f 419 447 448
f 419 448 434
f 434 448 449
f 434 449 450
f 450 449 451
f 450 451 452
f 188 186 453
f 294 454 455
f 356 355 456
f 457 458 459
f 460 461 462
f 463 464 465
f 463 465 466
f 467 468 469
f 469 468 455
f 469 455 470
f 470 455 471
f 470 471 339
f 339 471 472
f 339 472 337
f 337 472 473
f 337 473 335
f 323 325 474
f 474 325 327
f 474 327 329
f 475 331 476
f 476 331 333
f 476 333 477
f 477 333 335
f 477 335 478
f 478 335 473
f 478 473 479
f 479 473 480
f 479 480 306
f 481 482 321
f 321 482 483
f 321 483 319
f 319 483 484
f 319 484 485
f 460 462 486
f 457 459 380
f 380 459 487
f 380 487 377
f 487 154 377
f 377 154 152
f 377 152 375
f 152 150 375
f 375 150 488
f 375 488 373
f 489 367 490
f 490 367 369
f 490 369 491
f 491 369 371
f 491 371 492
f 492 371 373
f 492 373 493
f 493 373 488
f 489 122 120
f 365 367 494
f 489 120 367
f 367 120 118
f 367 118 494
f 494 495 365
f 365 495 496
f 365 496 363
f 363 496 497
f 363 497 361
f 361 497 498
f 361 498 359
f 498 499 359
f 359 499 500
f 359 500 134
f 134 501 359
f 359 501 502
f 359 502 357
f 502 503 357
f 357 503 504
f 357 504 353
f 505 506 353
f 353 506 354
f 507 508 342
f 342 508 344
f 356 456 342
f 342 456 509
f 342 509 507
f 508 510 344
f 344 510 511
f 344 511 346
f 346 511 102
f 346 102 348
f 102 100 348
f 348 100 98
f 348 98 350
f 350 98 96
f 94 92 512
f 512 92 90
f 512 90 513
f 278 514 512
f 512 514 515
f 515 516 512
f 512 516 350
f 512 350 94
f 94 350 96
f 516 517 350
f 350 517 518
f 350 518 352
f 352 518 290
f 352 290 519
f 520 521 282
f 282 521 284
f 290 288 519
f 519 288 286
f 519 286 522
f 523 524 521
f 524 525 521
f 521 525 522
f 521 522 284
f 284 522 286
f 525 526 522
f 522 526 527
f 522 527 528
f 528 527 529
f 528 529 530
f 530 529 262
f 530 262 260
f 258 256 531
f 254 252 532
f 258 531 260
f 260 531 533
f 260 533 530
f 252 250 532
f 532 250 248
f 532 248 534
f 534 248 246
f 534 246 521
f 521 246 535
f 521 535 523
f 256 254 531
f 531 254 532
f 531 532 536
f 536 532 537
f 536 537 538
f 461 539 540
f 312 310 541
f 541 310 542
f 318 474 475
f 475 474 329
f 475 329 331
f 543 544 545
f 545 544 474
f 545 474 546
f 546 474 318
f 546 318 547
f 547 318 316
f 547 316 548
f 548 316 314
f 548 314 549
f 549 314 312
f 549 312 214
f 214 312 541
f 214 541 216
f 550 302 467
f 467 302 300
f 467 300 468
f 468 300 298
f 468 298 455
f 455 298 296
f 455 296 294
f 134 132 501
f 501 132 130
f 501 130 465
f 465 130 128
f 465 128 126
f 550 466 302
f 302 466 465
f 302 465 304
f 304 465 126
f 304 126 551
f 551 126 124
f 551 124 552
f 552 124 122
f 552 122 553
f 553 122 489
f 553 489 554
f 554 489 490
f 554 490 555
f 555 490 491
f 555 491 292
f 292 491 556
f 228 226 557
f 226 224 557
f 557 224 222
f 557 222 558
f 558 222 220
f 558 220 218
f 543 559 544
f 544 559 230
f 544 230 560
f 560 230 228
f 188 453 190
f 190 453 561
f 190 561 192
f 458 562 563
f 564 198 565
f 565 198 196
f 565 196 561
f 561 196 194
f 561 194 192
f 566 567 564
f 567 568 564
f 564 568 569
f 564 569 198
f 570 571 162
f 162 160 570
f 570 160 158
f 570 158 487
f 487 158 156
f 487 156 154
f 572 491 573
f 573 491 492
f 573 492 574
f 574 492 493
f 572 575 491
f 491 575 576
f 491 576 556
f 556 576 166
f 556 166 571
f 571 166 164
f 571 164 162
f 90 88 513
f 513 88 86
f 513 86 577
f 577 86 578
f 577 578 456
f 456 578 579
f 456 579 509
f 78 580 80
f 80 580 82
f 76 74 465
f 465 74 72
f 465 72 501
f 501 72 581
f 501 581 502
f 485 484 582
f 582 484 583
f 582 583 464
f 464 583 580
f 464 580 465
f 465 580 78
f 465 78 76
f 353 504 505
f 505 504 584
f 505 584 506
f 506 584 84
f 506 84 585
f 544 58 474
f 474 58 586
f 474 586 587
f 321 323 481
f 481 323 474
f 481 474 588
f 588 474 587
f 70 68 589
f 589 68 66
f 589 66 590
f 590 66 64
f 590 64 560
f 560 64 62
f 560 62 544
f 544 62 60
f 544 60 58
f 355 354 456
f 456 354 506
f 456 506 577
f 577 506 585
f 577 585 513
f 513 585 591
f 513 591 512
f 512 591 592
f 512 592 278
f 278 592 593
f 278 593 280
f 50 48 459
f 594 54 52
f 570 595 594
f 594 595 56
f 594 56 54
f 596 487 44
f 44 487 459
f 44 459 46
f 46 459 48
f 596 597 487
f 487 597 598
f 487 598 570
f 570 598 599
f 570 599 595
f 52 50 594
f 594 50 459
f 594 459 564
f 564 459 458
f 564 458 566
f 566 458 563
f 84 82 585
f 585 82 580
f 585 580 591
f 591 580 583
f 591 583 592
f 592 583 484
f 592 484 593
f 593 484 483
f 593 483 600
f 600 483 482
f 600 482 601
f 601 482 481
f 294 292 454
f 454 292 556
f 454 556 455
f 455 556 571
f 455 571 471
f 471 571 570
f 471 570 472
f 472 570 594
f 472 594 473
f 473 594 564
f 473 564 480
f 480 564 565
f 480 565 306
f 306 565 561
f 306 561 308
f 308 561 602
f 282 280 520
f 520 280 593
f 520 593 521
f 521 593 600
f 521 600 534
f 534 600 601
f 534 601 532
f 532 601 603
f 532 603 537
f 537 603 604
f 588 605 481
f 481 605 606
f 481 606 601
f 601 606 70
f 601 70 603
f 603 70 589
f 603 589 604
f 604 589 590
f 453 607 561
f 561 607 542
f 561 542 602
f 602 542 310
f 602 310 308
f 562 458 608
f 608 458 457
f 608 457 182
f 182 457 609
f 182 609 184
f 184 609 610
f 184 610 186
f 186 610 486
f 186 486 453
f 453 486 462
f 453 462 607
f 228 557 560
f 560 557 611
f 560 611 590
f 590 611 612
f 590 612 604
f 604 612 613
f 604 613 537
f 537 613 614
f 537 614 538
f 461 540 462
f 462 540 615
f 462 615 607
f 607 615 616
f 607 616 542
f 542 616 558
f 542 558 541
f 541 558 218
f 541 218 216
f 65 67 617
f 618 619 620
f 621 622 623
f 263 265 624
f 625 626 627
f 628 629 630
f 631 632 633
f 634 340 635
f 636 637 638
f 638 637 639
f 640 639 299
f 640 299 641
f 642 643 644
f 644 643 645
f 646 647 642
f 326 324 648
f 648 324 322
f 648 322 649
f 649 322 320
f 649 320 646
f 646 320 650
f 646 650 647
f 651 332 330
f 652 653 336
f 654 655 656
f 340 338 635
f 635 338 336
f 635 336 655
f 655 336 653
f 655 653 656
f 657 285 287
f 657 287 351
f 351 287 289
f 351 289 349
f 349 289 658
f 349 658 659
f 109 349 633
f 633 349 659
f 633 659 631
f 109 111 349
f 349 111 113
f 349 113 347
f 660 661 662
f 113 115 347
f 347 115 663
f 347 663 345
f 345 663 664
f 662 661 665
f 666 343 345
f 343 666 341
f 341 666 667
f 341 667 358
f 668 360 358
f 141 143 668
f 669 135 364
f 364 135 670
f 364 670 366
f 135 137 670
f 670 137 139
f 670 139 141
f 143 145 668
f 668 145 147
f 668 147 360
f 147 671 360
f 360 671 672
f 360 672 362
f 362 672 673
f 362 673 364
f 364 673 674
f 364 674 669
f 372 370 675
f 675 370 368
f 675 368 676
f 677 678 679
f 679 678 379
f 679 379 680
f 680 379 378
f 680 378 376
f 681 199 682
f 199 201 682
f 682 201 683
f 682 683 684
f 685 686 687
f 687 686 688
f 688 686 628
f 628 686 689
f 628 689 629
f 626 625 629
f 629 625 690
f 629 690 630
f 691 692 627
f 692 691 693
f 693 691 694
f 693 694 695
f 265 267 694
f 694 267 269
f 694 269 695
f 695 269 271
f 695 271 696
f 263 624 697
f 271 273 696
f 696 273 275
f 696 275 657
f 657 275 698
f 698 699 657
f 657 699 700
f 657 700 701
f 701 700 702
f 336 334 652
f 652 334 332
f 652 332 703
f 703 332 651
f 703 651 317
f 317 651 704
f 307 309 686
f 686 309 311
f 686 311 689
f 689 311 313
f 689 313 704
f 704 313 315
f 704 315 317
f 656 705 654
f 654 705 305
f 654 305 706
f 623 622 707
f 622 291 707
f 707 291 293
f 707 293 637
f 637 293 295
f 637 295 639
f 639 295 297
f 639 297 299
f 299 301 641
f 641 301 303
f 641 303 708
f 708 303 709
f 708 709 670
f 670 709 710
f 710 711 670
f 670 711 676
f 670 676 366
f 366 676 368
f 285 657 283
f 283 657 701
f 283 701 281
f 281 701 648
f 281 648 279
f 279 648 649
f 279 649 277
f 277 649 646
f 277 646 712
f 713 714 677
f 682 678 681
f 681 678 677
f 681 677 715
f 715 677 714
f 654 211 655
f 655 211 716
f 655 716 713
f 201 203 683
f 683 203 205
f 683 205 706
f 706 205 207
f 706 207 654
f 654 207 209
f 654 209 211
f 680 173 636
f 636 173 175
f 636 175 637
f 637 175 177
f 637 177 707
f 177 179 707
f 707 179 717
f 707 717 623
f 623 717 718
f 623 718 620
f 620 718 719
f 620 719 618
f 661 720 665
f 665 720 103
f 665 103 721
f 721 103 105
f 721 105 633
f 633 105 107
f 633 107 109
f 81 722 79
f 79 722 77
f 644 73 75
f 75 77 644
f 644 77 722
f 644 722 642
f 642 722 723
f 642 723 646
f 73 644 71
f 71 644 724
f 71 724 725
f 725 724 668
f 725 668 726
f 358 667 668
f 668 667 727
f 668 727 726
f 662 83 728
f 664 660 345
f 345 660 662
f 345 662 666
f 666 662 728
f 666 728 667
f 667 728 729
f 667 729 727
f 265 694 624
f 624 694 730
f 624 730 731
f 65 617 63
f 63 617 732
f 63 732 61
f 733 734 735
f 735 734 57
f 735 57 732
f 732 57 59
f 732 59 61
f 730 736 731
f 731 736 737
f 731 737 733
f 733 737 738
f 733 738 734
f 241 243 626
f 626 243 732
f 626 732 627
f 627 732 617
f 627 617 691
f 691 617 67
f 691 67 694
f 694 67 69
f 694 69 730
f 233 629 231
f 231 629 689
f 231 689 739
f 739 689 740
f 233 235 629
f 629 235 237
f 629 237 626
f 626 237 239
f 626 239 241
f 243 741 732
f 732 741 742
f 732 742 743
f 687 684 685
f 685 684 683
f 685 683 686
f 686 683 706
f 686 706 307
f 307 706 305
f 330 733 651
f 651 733 735
f 651 735 704
f 704 735 732
f 704 732 689
f 689 732 743
f 689 743 740
f 330 328 733
f 733 328 326
f 733 326 731
f 731 326 648
f 731 648 624
f 624 648 701
f 624 701 697
f 697 701 702
f 51 53 635
f 679 47 49
f 744 745 680
f 680 745 43
f 680 43 679
f 679 43 45
f 679 45 47
f 713 677 655
f 655 677 679
f 655 679 635
f 635 679 49
f 635 49 51
f 53 55 635
f 635 55 636
f 635 636 634
f 634 636 638
f 55 746 636
f 636 746 747
f 636 747 680
f 680 747 748
f 680 748 744
f 83 662 81
f 81 662 665
f 81 665 722
f 722 665 721
f 722 721 723
f 723 721 633
f 723 633 646
f 646 633 632
f 646 632 712
f 141 668 670
f 670 668 724
f 670 724 708
f 708 724 644
f 708 644 641
f 641 644 645
f 641 645 640
f 711 621 676
f 676 621 623
f 676 623 675
f 675 623 620
f 675 620 372
f 372 620 619
f 372 619 374
f 374 619 167
f 374 167 376
f 376 167 169
f 376 169 680
f 680 169 171
f 680 171 173
f 442 610 609
f 441 442 682
f 695 449 693
f 693 449 448
f 693 448 692
f 692 448 447
f 692 447 627
f 627 447 446
f 627 446 625
f 625 446 445
f 625 445 690
f 690 445 444
f 690 444 630
f 630 444 443
f 630 443 628
f 628 443 437
f 628 437 688
f 688 437 439
f 688 439 687
f 687 439 441
f 687 441 684
f 684 441 682
f 530 533 452
f 657 530 696
f 696 530 452
f 696 452 695
f 695 452 451
f 695 451 449
f 442 609 682
f 682 609 457
f 682 457 678
f 678 457 380
f 678 380 379
f 351 352 657
f 657 352 519
f 519 522 657
f 657 522 528
f 657 528 530
f 339 340 470
f 470 340 634
f 470 634 469
f 469 634 638
f 469 638 467
f 467 638 639
f 467 639 550
f 550 639 640
f 550 640 466
f 466 640 645
f 466 645 463
f 463 645 643
f 463 643 464
f 464 643 642
f 464 642 582
f 582 642 647
f 582 647 485
f 485 647 650
f 485 650 319
f 319 650 320
f 317 318 703
f 703 318 475
f 703 475 652
f 652 475 476
f 652 476 653
f 653 476 477
f 653 477 656
f 656 477 478
f 656 478 705
f 705 478 479
f 705 479 305
f 305 479 306
f 303 304 709
f 709 304 551
f 709 551 710
f 710 551 552
f 710 552 711
f 711 552 553
f 711 553 621
f 621 553 554
f 621 554 622
f 622 554 555
f 622 555 291
f 291 555 292
f 289 290 658
f 658 290 518
f 658 518 659
f 659 518 517
f 659 517 631
f 631 517 516
f 631 516 632
f 632 516 515
f 632 515 712
f 712 515 514
f 712 514 277
f 277 514 278
f 275 276 698
f 698 276 749
f 698 749 699
f 699 749 750
f 699 750 700
f 700 750 751
f 700 751 702
f 702 751 752
f 702 752 697
f 697 752 753
f 697 753 263
f 263 753 264
f 268 251 270
f 270 251 253
f 270 253 272
f 272 253 255
f 272 255 274
f 750 754 751
f 751 754 755
f 751 755 752
f 752 755 756
f 752 756 753
f 756 757 753
f 753 757 758
f 753 758 264
f 264 758 245
f 264 245 266
f 266 245 247
f 266 247 268
f 268 247 249
f 268 249 251
f 255 257 274
f 274 257 259
f 274 259 276
f 276 259 261
f 276 261 749
f 749 261 759
f 749 759 750
f 750 759 760
f 750 760 754
f 261 262 759
f 759 262 529
f 759 529 760
f 760 529 527
f 760 527 754
f 754 527 526
f 754 526 755
f 755 526 525
f 755 525 756
f 756 525 524
f 756 524 757
f 757 524 523
f 757 523 758
f 758 523 535
f 758 535 245
f 245 535 246
f 243 244 741
f 741 244 761
f 741 761 742
f 742 761 762
f 742 762 743
f 743 762 763
f 743 763 740
f 740 763 764
f 740 764 739
f 739 764 765
f 739 765 231
f 231 765 232
f 242 227 244
f 244 227 229
f 244 229 761
f 761 229 766
f 761 766 762
f 234 217 236
f 236 217 219
f 236 219 238
f 238 219 221
f 238 221 240
f 240 221 223
f 240 223 242
f 242 223 225
f 242 225 227
f 765 767 232
f 232 767 213
f 232 213 234
f 234 213 215
f 234 215 217
f 766 768 762
f 762 768 769
f 762 769 763
f 763 769 770
f 763 770 764
f 764 770 771
f 764 771 765
f 765 771 772
f 765 772 767
f 229 230 766
f 766 230 559
f 766 559 768
f 768 559 543
f 768 543 769
f 769 543 545
f 769 545 770
f 770 545 546
f 770 546 771
f 771 546 547
f 771 547 772
f 772 547 548
f 772 548 767
f 767 548 549
f 767 549 213
f 213 549 214
f 211 212 716
f 716 212 773
f 716 773 713
f 713 773 774
f 713 774 714
f 714 774 775
f 714 775 715
f 715 775 776
f 715 776 681
f 681 776 777
f 681 777 199
f 199 777 200
f 204 187 206
f 206 187 189
f 206 189 208
f 208 189 191
f 208 191 210
f 774 778 775
f 775 778 779
f 775 779 776
f 776 779 780
f 776 780 777
f 780 781 777
f 777 781 782
f 777 782 200
f 200 782 181
f 200 181 202
f 202 181 183
f 202 183 204
f 204 183 185
f 204 185 187
f 191 193 210
f 210 193 195
f 210 195 212
f 212 195 197
f 212 197 773
f 773 197 783
f 773 783 774
f 774 783 784
f 774 784 778
f 197 198 783
f 783 198 569
f 783 569 784
f 784 569 568
f 784 568 778
f 778 568 567
f 778 567 779
f 779 567 566
f 779 566 780
f 780 566 563
f 780 563 781
f 781 563 562
f 781 562 782
f 782 562 608
f 782 608 181
f 181 608 182
f 179 180 717
f 717 180 785
f 717 785 718
f 718 785 786
f 718 786 719
f 719 786 787
f 719 787 618
f 618 787 788
f 618 788 619
f 619 788 789
f 619 789 167
f 167 789 168
f 786 790 787
f 787 790 791
f 787 791 788
f 170 153 172
f 172 153 155
f 172 155 174
f 174 155 157
f 174 157 176
f 176 157 159
f 176 159 178
f 791 792 788
f 788 792 793
f 788 793 789
f 789 793 794
f 789 794 168
f 168 794 149
f 168 149 170
f 170 149 151
f 170 151 153
f 159 161 178
f 178 161 163
f 178 163 180
f 180 163 165
f 180 165 785
f 785 165 795
f 785 795 786
f 786 795 796
f 786 796 790
f 165 166 795
f 795 166 576
f 795 576 796
f 796 576 575
f 796 575 790
f 790 575 572
f 790 572 791
f 791 572 573
f 791 573 792
f 792 573 574
f 792 574 793
f 793 574 493
f 793 493 794
f 794 493 488
f 794 488 149
f 149 488 150
f 147 148 671
f 671 148 797
f 671 797 672
f 672 797 798
f 672 798 673
f 673 798 799
f 673 799 674
f 674 799 800
f 674 800 669
f 669 800 801
f 669 801 135
f 135 801 136
f 138 121 140
f 140 121 123
f 140 123 142
f 142 123 125
f 142 125 144
f 144 125 127
f 144 127 146
f 801 802 136
f 136 802 117
f 136 117 138
f 138 117 119
f 138 119 121
f 798 803 799
f 799 803 804
f 799 804 800
f 800 804 805
f 800 805 801
f 801 805 806
f 801 806 802
f 127 129 146
f 146 129 131
f 146 131 148
f 148 131 133
f 148 133 797
f 797 133 807
f 797 807 798
f 798 807 808
f 798 808 803
f 133 134 807
f 807 134 500
f 807 500 808
f 808 500 499
f 808 499 803
f 803 499 498
f 803 498 804
f 804 498 497
f 804 497 805
f 805 497 496
f 805 496 806
f 806 496 495
f 806 495 802
f 802 495 494
f 802 494 117
f 117 494 118
f 115 116 663
f 663 116 809
f 663 809 664
f 664 809 810
f 664 810 660
f 660 810 811
f 660 811 661
f 661 811 812
f 661 812 720
f 720 812 813
f 720 813 103
f 103 813 104
f 108 91 110
f 110 91 93
f 110 93 112
f 112 93 95
f 112 95 114
f 810 814 811
f 811 814 815
f 811 815 812
f 812 815 816
f 812 816 813
f 816 817 813
f 813 817 818
f 813 818 104
f 104 818 85
f 104 85 106
f 106 85 87
f 106 87 108
f 108 87 89
f 108 89 91
f 95 97 114
f 114 97 99
f 114 99 116
f 116 99 101
f 116 101 809
f 809 101 819
f 809 819 810
f 810 819 820
f 810 820 814
f 101 102 819
f 819 102 511
f 819 511 820
f 820 511 510
f 820 510 814
f 814 510 508
f 814 508 815
f 815 508 507
f 815 507 816
f 816 507 509
f 816 509 817
f 817 509 579
f 817 579 818
f 818 579 578
f 818 578 85
f 85 578 86
f 83 84 728
f 728 84 584
f 728 584 729
f 729 584 504
f 729 504 727
f 727 504 503
f 727 503 726
f 726 503 502
f 726 502 725
f 725 502 581
f 725 581 71
f 71 581 72
f 69 70 730
f 730 70 606
f 730 606 736
f 736 606 605
f 736 605 737
f 737 605 588
f 737 588 738
f 738 588 587
f 738 587 734
f 734 587 586
f 734 586 57
f 57 586 58
f 55 56 746
f 746 56 595
f 746 595 747
f 747 595 599
f 747 599 748
f 748 599 598
f 748 598 744
f 744 598 597
f 744 597 745
f 745 597 596
f 745 596 43
f 43 596 44
f 821 822 823
f 823 824 821
f 821 824 825
f 821 825 826
f 826 825 827
f 828 829 830
f 830 829 831
f 830 831 832
f 832 831 833
f 832 833 834
f 834 833 835
f 834 835 827
f 827 835 836
f 827 836 826
f 830 837 828
f 828 837 838
f 828 838 614
f 614 838 435
f 614 435 538
f 538 435 434
f 538 434 536
f 839 15 17
f 23 840 21
f 21 840 839
f 21 839 19
f 19 839 17
f 841 29 5
f 23 25 840
f 840 25 27
f 840 27 821
f 821 27 842
f 821 842 843
f 15 839 844
f 844 839 822
f 844 822 845
f 845 33 846
f 846 33 35
f 846 35 843
f 847 1 822
f 5 29 3
f 13 848 821
f 1 3 822
f 822 3 29
f 822 29 845
f 845 29 31
f 845 31 33
f 35 37 843
f 843 37 39
f 843 39 821
f 821 39 41
f 821 41 849
f 848 850 821
f 821 850 851
f 821 851 822
f 822 851 852
f 822 852 847
f 13 821 11
f 11 821 849
f 11 849 9
f 9 849 853
f 9 853 7
f 7 853 854
f 7 854 5
f 5 854 855
f 5 855 841
f 461 460 438
f 461 438 539
f 438 436 539
f 539 436 856
f 539 856 857
f 857 856 858
f 857 858 859
f 859 858 860
f 859 860 861
f 861 860 862
f 863 839 864
f 864 839 840
f 864 840 865
f 865 840 866
f 865 866 867
f 867 866 868
f 867 868 869
f 869 868 870
f 869 870 862
f 862 870 871
f 862 871 861
f 610 442 486
f 486 442 440
f 486 440 460
f 460 440 438
f 536 434 531
f 531 434 450
f 531 450 533
f 533 450 452
f 872 823 400
f 400 823 822
f 400 822 413
f 413 822 839
f 413 839 873
f 873 839 863
f 840 821 826
f 840 826 866
f 866 826 836
f 866 836 868
f 868 836 835
f 868 835 870
f 870 835 833
f 870 833 871
f 871 833 831
f 871 831 861
f 861 831 829
f 861 829 859
f 859 829 828
f 859 828 857
f 614 613 828
f 828 613 612
f 612 611 828
f 828 611 557
f 828 557 857
f 857 557 558
f 857 558 616
f 616 615 857
f 857 615 540
f 857 540 539
f 874 873 864
f 864 873 863
f 874 864 875
f 875 864 865
f 875 865 876
f 876 865 867
f 876 867 877
f 877 867 869
f 877 869 878
f 878 869 862
f 878 862 879
f 879 862 860
f 879 860 880
f 880 860 858
f 880 858 881
f 881 858 856
f 413 873 397
f 397 873 874
f 397 874 395
f 395 874 875
f 395 875 393
f 393 875 876
f 393 876 391
f 391 876 877
f 391 877 389
f 389 877 878
f 389 878 387
f 387 878 879
f 387 879 385
f 385 879 880
f 385 880 383
f 383 880 881
f 383 881 381
f 882 838 883
f 883 838 837
f 883 837 884
f 884 837 830
f 884 830 885
f 885 830 832
f 885 832 886
f 886 832 834
f 886 834 887
f 887 834 827
f 887 827 888
f 888 827 825
f 888 825 889
f 889 825 824
f 872 889 823
f 823 889 824
f 872 400 889
f 889 400 406
f 889 406 888
f 888 406 433
f 888 433 887
f 887 433 431
f 887 431 886
f 886 431 429
f 886 429 885
f 885 429 427
f 885 427 884
f 884 427 425
f 884 425 883
f 883 425 423
f 883 423 882
f 882 423 421
f 882 421 419
f 41 42 849
f 849 42 417
f 849 417 853
f 853 417 416
f 853 416 854
f 854 416 415
f 854 415 855
f 855 415 414
f 855 414 841
f 841 414 412
f 841 412 29
f 29 412 30
f 27 28 842
f 842 28 409
f 842 409 843
f 843 409 404
f 843 404 846
f 846 404 403
f 846 403 845
f 845 403 402
f 845 402 844
f 844 402 401
f 844 401 15
f 15 401 16
f 13 14 848
f 848 14 411
f 848 411 850
f 850 411 405
f 850 405 851
f 851 405 407
f 851 407 852
f 852 407 408
f 852 408 847
f 847 408 399
f 847 399 1
f 1 399 2
f 890 891 892
f 892 891 893
f 892 893 894
f 894 893 895
f 894 895 896
f 896 895 897
f 896 897 898
f 898 897 899
f 898 899 900
f 900 899 901
f 900 901 902
f 902 901 903
f 902 903 904
f 904 903 905
f 426 896 898
f 426 898 424
f 424 898 900
f 424 900 422
f 422 900 902
f 422 902 420
f 420 902 904
f 420 904 418
f 896 426 894
f 894 426 428
f 894 428 892
f 892 428 430
f 892 430 890
f 890 430 432
f 890 432 410
f 390 388 901
f 901 388 903
f 903 388 386
f 903 386 905
f 905 386 384
f 905 384 382
f 901 899 390
f 390 899 897
f 390 897 392
f 392 897 895
f 392 895 394
f 394 895 893
f 394 893 396
f 396 893 891
f 396 891 398
f 435 838 419
f 419 838 882
f 856 436 881
f 881 436 381
f 905 382 904
f 904 382 418
f 398 891 410
f 410 891 890

