# https://github.com/mikedh/trimesh
v -0.00000000 0.00200000 -0.00100000
v 0.00032919 0.00197272 0.00100000
v 0.00032919 0.00197272 -0.00100000
v 0.00064940 0.00189163 0.00100000
v 0.00064940 0.00189163 -0.00100000
v 0.00095189 0.00175895 0.00100000
v 0.00095189 0.00175895 -0.00100000
v 0.00122842 0.00157828 0.00100000
v 0.00122842 0.00157828 -0.00100000
v 0.00147145 0.00135456 0.00100000
v 0.00147145 0.00135456 -0.00100000
v 0.00167433 0.00109390 0.00100000
v 0.00167433 0.00109390 -0.00100000
v 0.00183155 0.00080339 0.00100000
v 0.00183155 0.00080339 -0.00100000
v 0.00193880 0.00049097 0.00100000
v 0.00193880 0.00049097 -0.00100000
v 0.00199317 0.00016516 0.00100000
v 0.00199317 0.00016516 -0.00100000
v 0.00199317 -0.00016516 0.00100000
v 0.00199317 -0.00016516 -0.00100000
v 0.00193880 -0.00049097 0.00100000
v 0.00193880 -0.00049097 -0.00100000
v 0.00183155 -0.00080339 0.00100000
v 0.00183155 -0.00080339 -0.00100000
v 0.00167433 -0.00109390 0.00100000
v 0.00167433 -0.00109390 -0.00100000
v 0.00147145 -0.00135456 0.00100000
v 0.00147145 -0.00135456 -0.00100000
v 0.00122842 -0.00157828 0.00100000
v 0.00122842 -0.00157828 -0.00100000
v 0.00095189 -0.00175895 0.00100000
v 0.00095189 -0.00175895 -0.00100000
v 0.00064940 -0.00189163 0.00100000
v 0.00064940 -0.00189163 -0.00100000
v 0.00032919 -0.00197272 0.00100000
v 0.00032919 -0.00197272 -0.00100000
v -0.00000000 -0.00200000 0.00100000
v -0.00000000 -0.00200000 -0.00100000
v -0.00032919 -0.00197272 0.00100000
v -0.00032919 -0.00197272 -0.00100000
v -0.00064940 -0.00189163 0.00100000
v -0.00064940 -0.00189163 -0.00100000
v -0.00095189 -0.00175895 0.00100000
v -0.00095189 -0.00175895 -0.00100000
v -0.00122842 -0.00157828 0.00100000
v -0.00122842 -0.00157828 -0.00100000
v -0.00147145 -0.00135456 0.00100000
v -0.00147145 -0.00135456 -0.00100000
v -0.00167433 -0.00109390 0.00100000
v -0.00167433 -0.00109390 -0.00100000
v -0.00183155 -0.00080339 0.00100000
v -0.00183155 -0.00080339 -0.00100000
v -0.00193880 -0.00049097 0.00100000
v -0.00193880 -0.00049097 -0.00100000
v -0.00199317 -0.00016516 0.00100000
v -0.00199317 -0.00016516 -0.00100000
v -0.00199317 0.00016516 0.00100000
v -0.00199317 0.00016516 -0.00100000
v -0.00193880 0.00049097 0.00100000
v -0.00193880 0.00049097 -0.00100000
v -0.00183155 0.00080339 0.00100000
v -0.00183155 0.00080339 -0.00100000
v -0.00167433 0.00109390 0.00100000
v -0.00167433 0.00109390 -0.00100000
v -0.00147145 0.00135456 0.00100000
v -0.00147145 0.00135456 -0.00100000
v -0.00122842 0.00157828 0.00100000
v -0.00122842 0.00157828 -0.00100000
v -0.00095189 0.00175895 0.00100000
v -0.00095189 0.00175895 -0.00100000
v -0.00064940 0.00189163 0.00100000
v -0.00064940 0.00189163 -0.00100000
v -0.00032919 0.00197272 0.00100000
v -0.00032919 0.00197272 -0.00100000
v -0.00000000 0.00200000 0.00100000
v -0.00000000 0.00000000 0.00100000
v -0.00000000 0.00000000 -0.00100000
f 1 2 3
f 3 2 4
f 3 4 5
f 5 4 6
f 5 6 7
f 7 6 8
f 7 8 9
f 9 8 10
f 9 10 11
f 11 10 12
f 11 12 13
f 13 12 14
f 13 14 15
f 15 14 16
f 15 16 17
f 17 16 18
f 17 18 19
f 19 18 20
f 19 20 21
f 21 20 22
f 21 22 23
f 23 22 24
f 23 24 25
f 25 24 26
f 25 26 27
f 27 26 28
f 27 28 29
f 29 28 30
f 29 30 31
f 31 30 32
f 31 32 33
f 33 32 34
f 33 34 35
f 35 34 36
f 35 36 37
f 37 36 38
f 37 38 39
f 39 38 40
f 39 40 41
f 41 40 42
f 41 42 43
f 43 42 44
f 43 44 45
f 45 44 46
f 45 46 47
f 47 46 48
f 47 48 49
f 49 48 50
f 49 50 51
f 51 50 52
f 51 52 53
f 53 52 54
f 53 54 55
f 55 54 56
f 55 56 57
f 57 56 58
f 57 58 59
f 59 58 60
f 59 60 61
f 61 60 62
f 61 62 63
f 63 62 64
f 63 64 65
f 65 64 66
f 65 66 67
f 67 66 68
f 67 68 69
f 69 68 70
f 69 70 71
f 71 70 72
f 71 72 73
f 73 72 74
f 73 74 75
f 75 74 76
f 75 76 1
f 1 76 2
f 38 36 77
f 38 77 40
f 46 44 77
f 77 44 42
f 77 42 40
f 52 50 77
f 77 50 48
f 77 48 46
f 58 56 77
f 77 56 54
f 77 54 52
f 64 62 77
f 77 62 60
f 77 60 58
f 70 68 77
f 77 68 66
f 77 66 64
f 76 74 77
f 77 74 72
f 77 72 70
f 6 4 77
f 77 4 2
f 77 2 76
f 12 10 77
f 77 10 8
f 77 8 6
f 18 16 77
f 77 16 14
f 77 14 12
f 24 22 77
f 77 22 20
f 77 20 18
f 30 28 77
f 77 28 26
f 77 26 24
f 36 34 77
f 77 34 32
f 77 32 30
f 39 41 78
f 39 78 37
f 31 33 78
f 78 33 35
f 78 35 37
f 25 27 78
f 78 27 29
f 78 29 31
f 19 21 78
f 78 21 23
f 78 23 25
f 13 15 78
f 78 15 17
f 78 17 19
f 7 9 78
f 78 9 11
f 78 11 13
f 1 3 78
f 78 3 5
f 78 5 7
f 71 73 78
f 78 73 75
f 78 75 1
f 65 67 78
f 78 67 69
f 78 69 71
f 59 61 78
f 78 61 63
f 78 63 65
f 53 55 78
f 78 55 57
f 78 57 59
f 47 49 78
f 78 49 51
f 78 51 53
f 41 43 78
f 78 43 45
f 78 45 47

