# https://github.com/mikedh/trimesh
v 0.00093752 0.00599469 0.00389677
v 0.00093752 -0.00000531 0.00388858
v -0.00084251 0.00599466 0.00391845
v -0.00084251 -0.00000534 0.00391026
v -0.00245568 0.00599568 0.00316566
v -0.00245568 -0.00000431 0.00315747
v -0.00358247 0.00599757 0.00178749
v -0.00358247 -0.00000243 0.00177930
v -0.00399970 0.00599993 0.00005691
v -0.00399970 -0.00000007 0.00004872
v -0.00362475 0.00600230 -0.00168332
v -0.00362475 0.00000231 -0.00169151
v -0.00253187 0.00600422 -0.00308852
v -0.00253187 0.00000423 -0.00309671
v -0.00093752 0.00600530 -0.00388039
v -0.00093752 0.00000531 -0.00388858
v -0.01781290 0.00610084 -0.07387476
v -0.01781290 0.00010085 -0.07388294
v -0.01959294 0.00610081 -0.07385308
v -0.01959294 0.00010082 -0.07386126
v -0.02120611 0.00610184 -0.07460587
v -0.02120611 0.00010185 -0.07461406
v -0.02233289 0.00610372 -0.07598403
v -0.02233289 0.00010373 -0.07599222
v -0.02275013 0.00610608 -0.07771461
v -0.02275013 0.00010609 -0.07772280
v -0.02237518 0.00610846 -0.07945484
v -0.02237518 0.00010847 -0.07946303
v -0.02128229 0.00611038 -0.08086005
v -0.02128229 0.00011038 -0.08086824
v -0.01968795 0.00611146 -0.08165191
v -0.01968795 0.00011146 -0.08166010
v -0.02015671 0.00611411 -0.08359620
v -0.02015671 0.00011412 -0.08360439
v -0.02189033 0.00011314 -0.08288434
v -0.02189033 0.00611313 -0.08287615
v -0.02331661 0.00011147 -0.08166382
v -0.02331661 0.00611146 -0.08165563
v -0.02429591 0.00010928 -0.08006229
v -0.02429591 0.00610928 -0.08005410
v -0.02473238 0.00010679 -0.07823653
v -0.02473238 0.00610679 -0.07822834
v -0.02458329 0.00010424 -0.07636525
v -0.02458329 0.00610423 -0.07635705
v -0.01424752 0.00608939 -0.06548639
v -0.01424752 0.00008940 -0.06549457
v -0.01466382 0.00609390 -0.06878811
v -0.01466382 0.00009391 -0.06879630
v -0.01434188 0.00609842 -0.07210036
v -0.01434188 0.00009843 -0.07210855
v -0.01329754 0.00610273 -0.07526013
v -0.01329754 0.00010274 -0.07526831
v -0.01276031 0.00010569 -0.07742727
v -0.01276031 0.00610568 -0.07741908
v -0.01304667 0.00010870 -0.07963356
v -0.01304667 0.00610869 -0.07962537
v -0.01411725 0.00011136 -0.08158383
v -0.01411725 0.00611135 -0.08157564
v -0.01582485 0.00011331 -0.08300994
v -0.01582485 0.00611330 -0.08300175
v -0.01793470 0.00011427 -0.08371581
v -0.01793470 0.00611426 -0.08370762
v -0.00583287 0.00599808 0.00141447
v -0.00583287 -0.00000192 0.00140628
v -0.00489220 -0.00000474 0.00347367
v -0.00489220 0.00599525 0.00348186
v -0.00325045 -0.00000688 0.00504327
v -0.00325045 0.00599311 0.00505146
v -0.00114289 -0.00000804 0.00589014
v -0.00114289 0.00599195 0.00589833
v 0.00112844 -0.00000804 0.00589292
v 0.00112844 0.00599195 0.00590111
v 0.00323807 -0.00000689 0.00505122
v 0.00323807 0.00599310 0.00505941
v 0.00488366 -0.00000476 0.00348566
v 0.00488366 0.00599524 0.00349385
v 0.00582940 -0.00000194 0.00142059
v 0.00582940 0.00599806 0.00142878
v 0.00593976 0.00000116 -0.00084807
v 0.00593976 0.00600115 -0.00083988
v 0.00519893 0.00000409 -0.00299519
v 0.00519893 0.00600408 -0.00298700
v 0.00371306 0.00000643 -0.00471308
v 0.00371306 0.00600643 -0.00470489
v 0.00134355 0.00600962 -0.00704159
v 0.00134355 0.00000962 -0.00704978
v -0.00045243 0.00601344 -0.00984322
v -0.00045243 0.00001345 -0.00985141
v -0.00158647 0.00601771 -0.01297190
v -0.00158647 0.00001772 -0.01298009
v 0.00253187 0.00599577 0.00310490
v 0.00362475 0.00599769 0.00169969
v -0.01629475 0.00611046 -0.08092081
v -0.01790791 0.00611149 -0.08167360
v 0.00399970 0.00600006 -0.00004054
v 0.00358247 0.00600242 -0.00177112
v 0.00245568 0.00600430 -0.00314928
v 0.00084251 0.00600533 -0.00390207
v -0.01621856 0.00610192 -0.07466663
v -0.01512568 0.00610384 -0.07607183
v -0.01475072 0.00610622 -0.07781206
v -0.01516796 0.00610858 -0.07954264
v 0.00084251 0.00000534 -0.00391026
v 0.00245568 0.00000431 -0.00315747
v 0.00358247 0.00000243 -0.00177931
v 0.00399970 0.00000007 -0.00004873
v 0.00362475 -0.00000231 0.00169150
v 0.00253187 -0.00000423 0.00309671
v -0.01790791 0.00011149 -0.08168179
v -0.01629475 0.00011047 -0.08092900
v -0.01516796 0.00010859 -0.07955083
v -0.01475072 0.00010622 -0.07782025
v -0.01512568 0.00010385 -0.07608002
v -0.01621856 0.00010193 -0.07467481
v 0.00093752 -0.00690530 0.00387916
v 0.00093752 -0.01290530 0.00387097
v -0.00084251 -0.00690533 0.00390084
v -0.00084251 -0.01290533 0.00389265
v -0.00245568 -0.00690430 0.00314805
v -0.00245568 -0.01290430 0.00313986
v -0.00358247 -0.00690242 0.00176989
v -0.00358247 -0.01290242 0.00176170
v -0.00399970 -0.00690006 0.00003931
v -0.00399970 -0.01290005 0.00003112
v -0.00362475 -0.00689768 -0.00170092
v -0.00362475 -0.01289768 -0.00170911
v -0.00253187 -0.00689577 -0.00310613
v -0.00253187 -0.01289576 -0.00311432
v -0.00093752 -0.00689469 -0.00389800
v -0.00093752 -0.01289468 -0.00390619
v -0.01781290 -0.00679915 -0.07389237
v -0.01781290 -0.01279914 -0.07390056
v -0.01959294 -0.00679917 -0.07387068
v -0.01959294 -0.01279917 -0.07387887
v -0.02120611 -0.00679815 -0.07462347
v -0.02120611 -0.01279814 -0.07463166
v -0.02233289 -0.00679627 -0.07600164
v -0.02233289 -0.01279626 -0.07600983
v -0.02275013 -0.00679390 -0.07773222
v -0.02275013 -0.01279390 -0.07774041
v -0.02237518 -0.00679153 -0.07947244
v -0.02237518 -0.01279152 -0.07948064
v -0.02128229 -0.00678961 -0.08087765
v -0.02128229 -0.01278960 -0.08088584
v -0.01968795 -0.00678853 -0.08166952
v -0.01968795 -0.01278852 -0.08167771
v -0.02015671 -0.00678588 -0.08361381
v -0.02015671 -0.01278587 -0.08362200
v -0.02189033 -0.01278685 -0.08290195
v -0.02189033 -0.00678686 -0.08289377
v -0.02331661 -0.01278852 -0.08168143
v -0.02331661 -0.00678852 -0.08167324
v -0.02429591 -0.01279071 -0.08007991
v -0.02429591 -0.00679071 -0.08007171
v -0.02473238 -0.01279320 -0.07825413
v -0.02473238 -0.00679320 -0.07824595
v -0.02458329 -0.01279575 -0.07638285
v -0.02458329 -0.00679576 -0.07637466
v -0.01424752 -0.00681059 -0.06550399
v -0.01424752 -0.01281059 -0.06551218
v -0.01466382 -0.00680609 -0.06880572
v -0.01466382 -0.01280608 -0.06881391
v -0.01434188 -0.00680157 -0.07211797
v -0.01434188 -0.01280156 -0.07212617
v -0.01329754 -0.00679725 -0.07527773
v -0.01329754 -0.01279725 -0.07528592
v -0.01276031 -0.01279430 -0.07744487
v -0.01276031 -0.00679431 -0.07743669
v -0.01304667 -0.01279129 -0.07965116
v -0.01304667 -0.00679130 -0.07964297
v -0.01411725 -0.01278863 -0.08160144
v -0.01411725 -0.00678863 -0.08159325
v -0.01582485 -0.01278668 -0.08302755
v -0.01582485 -0.00678669 -0.08301936
v -0.01793470 -0.01278572 -0.08373342
v -0.01793470 -0.00678572 -0.08372523
v -0.00583287 -0.00690191 0.00139686
v -0.00583287 -0.01290191 0.00138867
v -0.00489220 -0.01290473 0.00345606
v -0.00489220 -0.00690474 0.00346425
v -0.00325045 -0.01290687 0.00502566
v -0.00325045 -0.00690688 0.00503385
v -0.00114289 -0.01290803 0.00587253
v -0.00114289 -0.00690803 0.00588072
v 0.00112844 -0.01290803 0.00587531
v 0.00112844 -0.00690804 0.00588350
v 0.00323807 -0.01290688 0.00503362
v 0.00323807 -0.00690689 0.00504181
v 0.00488366 -0.01290475 0.00346805
v 0.00488366 -0.00690475 0.00347624
v 0.00582940 -0.01290193 0.00140298
v 0.00582940 -0.00690193 0.00141117
v 0.00593976 -0.01289883 -0.00086568
v 0.00593976 -0.00689884 -0.00085749
v 0.00519893 -0.01289590 -0.00301280
v 0.00519893 -0.00689591 -0.00300461
v 0.00371306 -0.01289355 -0.00473069
v 0.00371306 -0.00689356 -0.00472250
v 0.00134355 -0.00689037 -0.00705920
v 0.00134355 -0.01289036 -0.00706739
v -0.00045243 -0.00688655 -0.00986083
v -0.00045243 -0.01288654 -0.00986902
v -0.00158647 -0.00688228 -0.01298951
v -0.00158647 -0.01288227 -0.01299770
v 0.00253187 -0.00690422 0.00308729
v 0.00362475 -0.00690230 0.00168209
v -0.01629475 -0.00678953 -0.08093841
v -0.01790791 -0.00678850 -0.08169121
v 0.00399970 -0.00689993 -0.00005814
v 0.00358247 -0.00689756 -0.00178872
v 0.00245568 -0.00689568 -0.00316689
v 0.00084251 -0.00689466 -0.00391968
v -0.01621856 -0.00679806 -0.07468423
v -0.01512568 -0.00679615 -0.07608944
v -0.01475072 -0.00679377 -0.07782967
v -0.01516796 -0.00679141 -0.07956025
v 0.00084251 -0.01289465 -0.00392787
v 0.00245568 -0.01289568 -0.00317508
v 0.00358247 -0.01289756 -0.00179691
v 0.00399970 -0.01289992 -0.00006633
v 0.00362475 -0.01290230 0.00167390
v 0.00253187 -0.01290421 0.00307910
v -0.01790791 -0.01278849 -0.08169939
v -0.01629475 -0.01278952 -0.08094660
v -0.01516796 -0.01279140 -0.07956844
v -0.01475072 -0.01279377 -0.07783786
v -0.01512568 -0.01279614 -0.07609763
v -0.01621856 -0.01279806 -0.07469242
f 1 2 3
f 3 2 4
f 3 4 5
f 5 4 6
f 5 6 7
f 7 6 8
f 7 8 9
f 9 8 10
f 9 10 11
f 11 10 12
f 11 12 13
f 13 12 14
f 13 14 15
f 15 14 16
f 17 18 19
f 19 18 20
f 19 20 21
f 21 20 22
f 21 22 23
f 23 22 24
f 23 24 25
f 25 24 26
f 25 26 27
f 27 26 28
f 27 28 29
f 29 28 30
f 29 30 31
f 31 30 32
f 33 34 35
f 33 35 36
f 36 35 37
f 36 37 38
f 38 37 39
f 38 39 40
f 40 39 41
f 40 41 42
f 42 41 43
f 42 43 44
f 45 46 47
f 47 46 48
f 47 48 49
f 49 48 50
f 49 50 51
f 51 50 52
f 51 52 53
f 51 53 54
f 54 53 55
f 54 55 56
f 56 55 57
f 56 57 58
f 58 57 59
f 58 59 60
f 60 59 61
f 60 61 62
f 62 61 34
f 62 34 33
f 63 44 64
f 64 44 43
f 63 64 65
f 63 65 66
f 66 65 67
f 66 67 68
f 68 67 69
f 68 69 70
f 70 69 71
f 70 71 72
f 72 71 73
f 72 73 74
f 74 73 75
f 74 75 76
f 76 75 77
f 76 77 78
f 78 77 79
f 78 79 80
f 80 79 81
f 80 81 82
f 82 81 83
f 82 83 84
f 84 83 85
f 85 83 86
f 85 86 87
f 87 86 88
f 87 88 89
f 89 88 90
f 45 89 46
f 46 89 90
f 13 15 17
f 9 63 7
f 7 63 66
f 7 66 5
f 5 66 68
f 5 68 3
f 3 68 70
f 3 70 1
f 1 70 72
f 1 72 91
f 91 72 74
f 91 74 92
f 93 60 94
f 94 60 62
f 94 62 31
f 31 62 33
f 31 33 29
f 74 76 92
f 92 76 78
f 92 78 95
f 95 78 80
f 95 80 96
f 96 80 82
f 96 82 97
f 97 82 84
f 97 84 98
f 98 84 85
f 98 85 15
f 15 85 87
f 33 36 29
f 29 36 38
f 29 38 27
f 27 38 40
f 27 40 25
f 25 40 42
f 25 42 23
f 23 42 44
f 23 44 21
f 21 44 63
f 21 63 19
f 19 63 9
f 19 9 17
f 17 9 11
f 17 11 13
f 87 89 15
f 15 89 45
f 15 45 17
f 17 45 47
f 17 47 99
f 99 47 49
f 99 49 100
f 100 49 51
f 100 51 101
f 101 51 54
f 101 54 102
f 102 54 56
f 102 56 93
f 93 56 58
f 93 58 60
f 28 26 41
f 46 16 18
f 46 90 16
f 16 90 88
f 16 88 103
f 103 88 86
f 103 86 104
f 104 86 83
f 104 83 105
f 105 83 81
f 105 81 106
f 106 81 79
f 106 79 107
f 41 26 43
f 24 22 12
f 12 22 20
f 26 24 43
f 43 24 12
f 43 12 64
f 64 12 10
f 64 10 65
f 65 10 8
f 65 8 67
f 67 8 6
f 67 6 69
f 69 6 4
f 69 4 71
f 71 4 2
f 71 2 73
f 73 2 108
f 73 108 75
f 75 108 107
f 75 107 77
f 77 107 79
f 41 39 28
f 28 39 37
f 28 37 30
f 30 37 35
f 30 35 32
f 32 35 34
f 32 34 109
f 109 34 61
f 109 61 110
f 18 16 20
f 20 16 14
f 20 14 12
f 61 59 110
f 110 59 57
f 110 57 111
f 111 57 55
f 111 55 112
f 112 55 53
f 112 53 113
f 113 53 52
f 113 52 114
f 114 52 50
f 114 50 18
f 18 50 48
f 18 48 46
f 31 32 94
f 94 32 109
f 94 109 93
f 93 109 110
f 93 110 102
f 102 110 111
f 102 111 101
f 101 111 112
f 101 112 100
f 100 112 113
f 100 113 99
f 99 113 114
f 99 114 17
f 17 114 18
f 15 16 98
f 98 16 103
f 98 103 97
f 97 103 104
f 97 104 96
f 96 104 105
f 96 105 95
f 95 105 106
f 95 106 92
f 92 106 107
f 92 107 91
f 91 107 108
f 91 108 1
f 1 108 2
f 115 116 117
f 117 116 118
f 117 118 119
f 119 118 120
f 119 120 121
f 121 120 122
f 121 122 123
f 123 122 124
f 123 124 125
f 125 124 126
f 125 126 127
f 127 126 128
f 127 128 129
f 129 128 130
f 131 132 133
f 133 132 134
f 133 134 135
f 135 134 136
f 135 136 137
f 137 136 138
f 137 138 139
f 139 138 140
f 139 140 141
f 141 140 142
f 141 142 143
f 143 142 144
f 143 144 145
f 145 144 146
f 147 148 149
f 147 149 150
f 150 149 151
f 150 151 152
f 152 151 153
f 152 153 154
f 154 153 155
f 154 155 156
f 156 155 157
f 156 157 158
f 159 160 161
f 161 160 162
f 161 162 163
f 163 162 164
f 163 164 165
f 165 164 166
f 165 166 167
f 165 167 168
f 168 167 169
f 168 169 170
f 170 169 171
f 170 171 172
f 172 171 173
f 172 173 174
f 174 173 175
f 174 175 176
f 176 175 148
f 176 148 147
f 177 158 178
f 178 158 157
f 177 178 179
f 177 179 180
f 180 179 181
f 180 181 182
f 182 181 183
f 182 183 184
f 184 183 185
f 184 185 186
f 186 185 187
f 186 187 188
f 188 187 189
f 188 189 190
f 190 189 191
f 190 191 192
f 192 191 193
f 192 193 194
f 194 193 195
f 194 195 196
f 196 195 197
f 196 197 198
f 198 197 199
f 199 197 200
f 199 200 201
f 201 200 202
f 201 202 203
f 203 202 204
f 159 203 160
f 160 203 204
f 127 129 131
f 123 177 121
f 121 177 180
f 121 180 119
f 119 180 182
f 119 182 117
f 117 182 184
f 117 184 115
f 115 184 186
f 115 186 205
f 205 186 188
f 205 188 206
f 207 174 208
f 208 174 176
f 208 176 145
f 145 176 147
f 145 147 143
f 188 190 206
f 206 190 192
f 206 192 209
f 209 192 194
f 209 194 210
f 210 194 196
f 210 196 211
f 211 196 198
f 211 198 212
f 212 198 199
f 212 199 129
f 129 199 201
f 147 150 143
f 143 150 152
f 143 152 141
f 141 152 154
f 141 154 139
f 139 154 156
f 139 156 137
f 137 156 158
f 137 158 135
f 135 158 177
f 135 177 133
f 133 177 123
f 133 123 131
f 131 123 125
f 131 125 127
f 201 203 129
f 129 203 159
f 129 159 131
f 131 159 161
f 131 161 213
f 213 161 163
f 213 163 214
f 214 163 165
f 214 165 215
f 215 165 168
f 215 168 216
f 216 168 170
f 216 170 207
f 207 170 172
f 207 172 174
f 142 140 155
f 160 130 132
f 160 204 130
f 130 204 202
f 130 202 217
f 217 202 200
f 217 200 218
f 218 200 197
f 218 197 219
f 219 197 195
f 219 195 220
f 220 195 193
f 220 193 221
f 155 140 157
f 138 136 126
f 126 136 134
f 140 138 157
f 157 138 126
f 157 126 178
f 178 126 124
f 178 124 179
f 179 124 122
f 179 122 181
f 181 122 120
f 181 120 183
f 183 120 118
f 183 118 185
f 185 118 116
f 185 116 187
f 187 116 222
f 187 222 189
f 189 222 221
f 189 221 191
f 191 221 193
f 155 153 142
f 142 153 151
f 142 151 144
f 144 151 149
f 144 149 146
f 146 149 148
f 146 148 223
f 223 148 175
f 223 175 224
f 132 130 134
f 134 130 128
f 134 128 126
f 175 173 224
f 224 173 171
f 224 171 225
f 225 171 169
f 225 169 226
f 226 169 167
f 226 167 227
f 227 167 166
f 227 166 228
f 228 166 164
f 228 164 132
f 132 164 162
f 132 162 160
f 145 146 208
f 208 146 223
f 208 223 207
f 207 223 224
f 207 224 216
f 216 224 225
f 216 225 215
f 215 225 226
f 215 226 214
f 214 226 227
f 214 227 213
f 213 227 228
f 213 228 131
f 131 228 132
f 129 130 212
f 212 130 217
f 212 217 211
f 211 217 218
f 211 218 210
f 210 218 219
f 210 219 209
f 209 219 220
f 209 220 206
f 206 220 221
f 206 221 205
f 205 221 222
f 205 222 115
f 115 222 116

