# https://github.com/mikedh/trimesh
v -0.00308088 -0.00070396 0.00927767
v -0.00265181 -0.00097278 0.00938531
v -0.00238016 -0.00001291 0.00945501
v -0.00214995 -0.00098440 0.00951163
v -0.00170978 -0.00073571 0.00962278
v -0.00305054 0.00070990 0.00928724
v -0.00331109 0.00026753 0.00922104
v -0.00332219 -0.00024997 0.00921754
v -0.00167945 0.00067815 0.00963234
v -0.00210852 0.00094696 0.00952470
v -0.00261037 0.00095859 0.00939838
v -0.00144924 -0.00029335 0.00968897
v -0.00143814 0.00022416 0.00969247
v -0.00138978 0.00096520 0.00454966
v -0.00088792 0.00095358 0.00467598
v -0.00045885 0.00068477 0.00478362
v -0.00021754 0.00023078 0.00484375
v -0.00022865 -0.00028673 0.00484025
v -0.00048919 -0.00072909 0.00477406
v -0.00092936 -0.00097778 0.00466291
v -0.00143121 -0.00096616 0.00453659
v -0.00186028 -0.00069734 0.00442895
v -0.00210159 -0.00024336 0.00436882
v -0.00209049 0.00027415 0.00437232
v -0.00182995 0.00071652 0.00443851
v -0.00961916 0.00375828 0.00248184
v -0.01000332 0.00265789 0.00238363
v -0.00279149 0.00934403 0.00420824
v -0.00389333 0.00906674 0.00393048
v -0.00008891 -0.00944227 0.00486293
v 0.00102742 -0.00923546 0.00514423
v 0.00211060 -0.00888875 0.00541738
v -0.00454518 -0.00884034 0.00374195
v -0.00346662 -0.00920278 0.00401296
v -0.00235309 -0.00942581 0.00429297
v -0.00122147 -0.00950604 0.00457773
v -0.00688679 0.00743679 0.00317470
v -0.00595662 0.00810584 0.00340977
v -0.00495374 0.00865191 0.00366298
v 0.00622937 0.00566513 0.00647409
v 0.00549720 0.00655871 0.00629099
v 0.00466412 0.00735278 0.00608236
v 0.00169218 0.00902612 0.00533650
v 0.00274708 0.00859591 0.00560147
v 0.00374275 0.00803530 0.00585135
v 0.00734829 0.00363488 0.00675299
v 0.00684953 0.00468557 0.00662887
v 0.00805034 0.00021929 0.00692506
v 0.00795328 0.00138469 0.00690221
v 0.00771807 0.00252900 0.00684456
v -0.00819576 -0.00613612 0.00282666
v -0.00741165 -0.00698155 0.00302289
v -0.00653276 -0.00772125 0.00324313
v -0.00557242 -0.00834399 0.00348403
v -0.01017190 -0.00197315 0.00233487
v -0.00986883 -0.00310038 0.00240963
v -0.00943374 -0.00418072 0.00251768
v -0.00887321 -0.00519777 0.00265740
v -0.00773014 0.00665492 0.00296133
v -0.00847389 0.00577206 0.00277290
v -0.00910676 0.00480161 0.00261225
v 0.00059405 0.00931941 0.00506046
v -0.00053066 0.00947133 0.00477754
v -0.00166490 0.00947957 0.00449202
v 0.00800779 -0.00094953 0.00691275
v 0.00782628 -0.00210405 0.00686548
v 0.00314421 -0.00840739 0.00567823
v 0.00411257 -0.00779867 0.00592284
v 0.00500102 -0.00707183 0.00614748
v 0.00579608 -0.00623788 0.00634876
v 0.00648569 -0.00530947 0.00652363
v 0.00705942 -0.00430067 0.00666944
v 0.00750855 -0.00322677 0.00678396
v -0.01025342 0.00151710 0.00231912
v -0.01036566 0.00035323 0.00228927
v -0.01033835 -0.00081610 0.00229455
v 0.00166142 -0.00100644 -0.00440991
v 0.00153683 -0.00106447 -0.00444135
v 0.00115957 0.00000629 -0.00460629
v 0.00177814 -0.00093307 -0.00438042
v 0.00188523 -0.00084546 -0.00435334
v 0.00198107 -0.00074494 -0.00432908
v 0.00206419 -0.00063303 -0.00430800
v 0.00213335 -0.00051143 -0.00429043
v 0.00218748 -0.00038199 -0.00427663
v 0.00222578 -0.00024666 -0.00426680
v 0.00224766 -0.00010750 -0.00426110
v 0.00225279 0.00003339 -0.00425962
v 0.00224109 0.00017386 -0.00426237
v 0.00221274 0.00031179 -0.00426932
v 0.00216817 0.00044509 -0.00428036
v 0.00210805 0.00057174 -0.00429532
v 0.00203330 0.00068981 -0.00431398
v 0.00194504 0.00079752 -0.00433605
v 0.00184463 0.00089323 -0.00436119
v 0.00173357 0.00097550 -0.00438904
v 0.00161355 0.00104308 -0.00441916
v 0.00148640 0.00109493 -0.00445110
v 0.00135403 0.00113028 -0.00448437
v 0.00121846 0.00114860 -0.00451847
v 0.00108175 0.00114959 -0.00455289
v 0.00094595 0.00113325 -0.00458710
v 0.00081314 0.00109983 -0.00462057
v 0.00068532 0.00104983 -0.00465282
v 0.00056444 0.00098400 -0.00468334
v 0.00045232 0.00090336 -0.00471167
v 0.00035066 0.00080912 -0.00473739
v 0.00026101 0.00070270 -0.00476011
v 0.00018473 0.00058572 -0.00477947
v 0.00012297 0.00045996 -0.00479519
v 0.00007666 0.00032733 -0.00480703
v 0.00004652 0.00018982 -0.00481480
v 0.00003299 0.00004953 -0.00481840
v 0.00003628 -0.00009142 -0.00481776
v 0.00005634 -0.00023088 -0.00481290
v 0.00009287 -0.00036676 -0.00480389
v 0.00014532 -0.00049698 -0.00479087
v 0.00021288 -0.00061957 -0.00477403
v 0.00029454 -0.00073267 -0.00475363
v 0.00038905 -0.00083458 -0.00472997
v 0.00049499 -0.00092374 -0.00470343
v 0.00061075 -0.00099880 -0.00467439
v 0.00073457 -0.00105863 -0.00464330
v 0.00086457 -0.00110232 -0.00461063
v 0.00099879 -0.00112920 -0.00457688
v 0.00113520 -0.00113887 -0.00454256
v 0.00127171 -0.00113119 -0.00450818
v 0.00140627 -0.00110626 -0.00447427
v 0.00236630 -0.00882247 0.00430101
v 0.00339237 -0.00834462 0.00455996
v 0.00435368 -0.00774034 0.00480278
v 0.00523564 -0.00701880 0.00502579
v 0.00602490 -0.00619093 0.00522561
v 0.00670949 -0.00526929 0.00539920
v 0.00727903 -0.00426784 0.00554394
v 0.00772489 -0.00320177 0.00565763
v 0.00804030 -0.00208724 0.00573856
v 0.00822049 -0.00094114 0.00578548
v 0.00826273 0.00021916 0.00579770
v 0.00816637 0.00137606 0.00577502
v 0.00793288 0.00251203 0.00571779
v 0.00756579 0.00360985 0.00562688
v 0.00707068 0.00465287 0.00550367
v 0.00645504 0.00562529 0.00535002
v 0.00572820 0.00651236 0.00516826
v 0.00490120 0.00730064 0.00496115
v 0.00398655 0.00797818 0.00473182
v 0.00299813 0.00853470 0.00448376
v 0.00195093 0.00896178 0.00422072
v 0.00086081 0.00925293 0.00394670
v -0.00025570 0.00940374 0.00366584
v -0.00138168 0.00941193 0.00338240
v -0.00250005 0.00927737 0.00310069
v -0.00359386 0.00900210 0.00282496
v -0.00464653 0.00859030 0.00255940
v -0.00564211 0.00804821 0.00230804
v -0.00656549 0.00738404 0.00207468
v -0.00740270 0.00660786 0.00186287
v -0.00814102 0.00573145 0.00167581
v -0.00876928 0.00476808 0.00151634
v -0.00927794 0.00373235 0.00138688
v -0.00965930 0.00263998 0.00128939
v -0.00990757 0.00150751 0.00122534
v -0.01001900 0.00035212 0.00119571
v -0.00999189 -0.00080868 0.00120095
v -0.00982665 -0.00195729 0.00124098
v -0.00952579 -0.00307631 0.00131519
v -0.00909387 -0.00414876 0.00142246
v -0.00853743 -0.00515840 0.00156115
v -0.00786492 -0.00608991 0.00172918
v -0.00708652 -0.00692918 0.00192398
v -0.00621404 -0.00766348 0.00214262
v -0.00526070 -0.00828168 0.00238176
v -0.00424096 -0.00877442 0.00263780
v -0.00317026 -0.00913421 0.00290684
v -0.00206485 -0.00935561 0.00318481
v -0.00094148 -0.00943526 0.00346749
v 0.00018283 -0.00937196 0.00375060
v 0.00129102 -0.00916666 0.00402986
v 0.00257058 -0.00862763 0.00318910
v 0.00357415 -0.00816026 0.00344237
v 0.00451438 -0.00756923 0.00367987
v 0.00537701 -0.00686351 0.00389798
v 0.00614896 -0.00605380 0.00409342
v 0.00681854 -0.00515236 0.00426321
v 0.00737559 -0.00417287 0.00440477
v 0.00781167 -0.00313018 0.00451597
v 0.00812017 -0.00204008 0.00459512
v 0.00829641 -0.00091911 0.00464102
v 0.00833772 0.00021574 0.00465297
v 0.00824348 0.00134728 0.00463078
v 0.00801511 0.00245834 0.00457481
v 0.00765607 0.00353209 0.00448589
v 0.00717181 0.00455224 0.00436538
v 0.00656967 0.00550333 0.00421510
v 0.00585877 0.00637096 0.00403733
v 0.00504990 0.00714195 0.00383476
v 0.00415531 0.00780463 0.00361046
v 0.00318856 0.00834895 0.00336784
v 0.00216432 0.00876666 0.00311057
v 0.00109810 0.00905143 0.00284255
v 0.00000607 0.00919893 0.00256785
v -0.00109521 0.00920694 0.00229063
v -0.00218906 0.00907533 0.00201509
v -0.00325889 0.00880610 0.00174541
v -0.00428848 0.00840333 0.00148567
v -0.00526222 0.00787312 0.00123982
v -0.00616537 0.00722352 0.00101158
v -0.00698421 0.00646436 0.00080442
v -0.00770635 0.00560716 0.00062146
v -0.00832083 0.00466492 0.00046548
v -0.00881834 0.00365190 0.00033886
v -0.00919133 0.00258348 0.00024351
v -0.00943416 0.00147585 0.00018087
v -0.00954315 0.00034579 0.00015189
v -0.00951663 -0.00078956 0.00015701
v -0.00935501 -0.00191299 0.00019616
v -0.00906075 -0.00300747 0.00026875
v -0.00863830 -0.00405641 0.00037366
v -0.00809407 -0.00504390 0.00050932
v -0.00743630 -0.00595499 0.00067366
v -0.00667497 -0.00677586 0.00086419
v -0.00582162 -0.00749406 0.00107803
v -0.00488918 -0.00809870 0.00131193
v -0.00389180 -0.00858063 0.00156235
v -0.00284458 -0.00893254 0.00182549
v -0.00176341 -0.00914908 0.00209737
v -0.00066467 -0.00922699 0.00237385
v 0.00043498 -0.00916507 0.00265076
v 0.00151888 -0.00896427 0.00292389
v 0.00272047 -0.00830707 0.00209785
v 0.00368691 -0.00785699 0.00234175
v 0.00459235 -0.00728783 0.00257046
v 0.00542306 -0.00660822 0.00278051
v 0.00616645 -0.00582847 0.00296871
v 0.00681125 -0.00496039 0.00313221
v 0.00734769 -0.00401715 0.00326854
v 0.00776764 -0.00301303 0.00337563
v 0.00806472 -0.00196327 0.00345185
v 0.00823444 -0.00088377 0.00349605
v 0.00827422 0.00020909 0.00350755
v 0.00818347 0.00129876 0.00348619
v 0.00796354 0.00236871 0.00343229
v 0.00761779 0.00340272 0.00334666
v 0.00715145 0.00438513 0.00323061
v 0.00657159 0.00530104 0.00308589
v 0.00588699 0.00613655 0.00291469
v 0.00510805 0.00687902 0.00271962
v 0.00424656 0.00751718 0.00250362
v 0.00331558 0.00804136 0.00226998
v 0.00232924 0.00844362 0.00202223
v 0.00130247 0.00871785 0.00176413
v 0.00025085 0.00885989 0.00149959
v -0.00080969 0.00886761 0.00123262
v -0.00186306 0.00874087 0.00096728
v -0.00289330 0.00848160 0.00070758
v -0.00388480 0.00809373 0.00045745
v -0.00482252 0.00758314 0.00022070
v -0.00569224 0.00695757 0.00000090
v -0.00648079 0.00622650 -0.00019860
v -0.00717620 0.00540102 -0.00037479
v -0.00776795 0.00449364 -0.00052499
v -0.00824705 0.00351811 -0.00064693
v -0.00860624 0.00248922 -0.00073875
v -0.00884009 0.00142257 -0.00079908
v -0.00894504 0.00033432 -0.00082698
v -0.00891950 -0.00075902 -0.00082205
v -0.00876387 -0.00184088 -0.00078434
v -0.00848049 -0.00289486 -0.00071445
v -0.00807367 -0.00390499 -0.00061341
v -0.00754958 -0.00485595 -0.00048278
v -0.00691615 -0.00573332 -0.00032452
v -0.00618299 -0.00652382 -0.00014104
v -0.00536121 -0.00721544 0.00006489
v -0.00446328 -0.00779772 0.00029014
v -0.00350280 -0.00826181 0.00053129
v -0.00249433 -0.00860070 0.00078470
v -0.00145316 -0.00880923 0.00104651
v -0.00039507 -0.00888425 0.00131277
v 0.00066389 -0.00882463 0.00157943
v 0.00170768 -0.00863126 0.00184245
v 0.00281378 -0.00786547 0.00104318
v 0.00372899 -0.00743925 0.00127415
v 0.00458644 -0.00690026 0.00149074
v 0.00537312 -0.00625667 0.00168965
v 0.00607711 -0.00551825 0.00186788
v 0.00668773 -0.00469618 0.00202272
v 0.00719574 -0.00380293 0.00215182
v 0.00759342 -0.00285204 0.00225323
v 0.00787476 -0.00185792 0.00232541
v 0.00803548 -0.00083564 0.00236726
v 0.00807316 0.00019929 0.00237816
v 0.00798721 0.00123120 0.00235793
v 0.00777894 0.00224444 0.00230689
v 0.00745152 0.00322365 0.00222580
v 0.00700989 0.00415399 0.00211590
v 0.00646077 0.00502134 0.00197885
v 0.00581246 0.00581258 0.00181672
v 0.00507480 0.00651569 0.00163199
v 0.00425898 0.00712002 0.00142744
v 0.00337735 0.00761642 0.00120618
v 0.00244328 0.00799735 0.00097156
v 0.00147094 0.00825705 0.00072715
v 0.00047506 0.00839157 0.00047663
v -0.00052926 0.00839887 0.00022382
v -0.00152680 0.00827885 -0.00002746
v -0.00250244 0.00803332 -0.00027340
v -0.00344138 0.00766601 -0.00051027
v -0.00432939 0.00718249 -0.00073447
v -0.00515302 0.00659008 -0.00094262
v -0.00589977 0.00589776 -0.00113155
v -0.00655833 0.00511603 -0.00129840
v -0.00711870 0.00425674 -0.00144064
v -0.00757241 0.00333292 -0.00155611
v -0.00791257 0.00235857 -0.00164307
v -0.00813402 0.00134845 -0.00170020
v -0.00823340 0.00031789 -0.00172662
v -0.00820922 -0.00071750 -0.00172195
v -0.00806184 -0.00174201 -0.00168624
v -0.00779348 -0.00274013 -0.00162005
v -0.00740822 -0.00369672 -0.00152438
v -0.00691191 -0.00459727 -0.00140066
v -0.00631205 -0.00542814 -0.00125079
v -0.00561776 -0.00617673 -0.00107704
v -0.00483954 -0.00683170 -0.00088202
v -0.00398920 -0.00738311 -0.00066872
v -0.00307963 -0.00782261 -0.00044034
v -0.00212461 -0.00814353 -0.00020037
v -0.00113863 -0.00834101 0.00004757
v -0.00013663 -0.00841206 0.00029971
v 0.00086621 -0.00835559 0.00055224
v 0.00185467 -0.00817247 0.00080132
v 0.00284915 -0.00730927 0.00004047
v 0.00369979 -0.00691311 0.00025514
v 0.00449674 -0.00641215 0.00045645
v 0.00522792 -0.00581397 0.00064133
v 0.00588223 -0.00512765 0.00080698
v 0.00644978 -0.00436358 0.00095089
v 0.00692194 -0.00353335 0.00107089
v 0.00729157 -0.00264955 0.00116514
v 0.00755306 -0.00172557 0.00123223
v 0.00770244 -0.00077542 0.00127113
v 0.00773746 0.00018650 0.00128126
v 0.00765757 0.00114561 0.00126246
v 0.00746400 0.00208736 0.00121502
v 0.00715968 0.00299748 0.00113965
v 0.00674921 0.00386218 0.00103750
v 0.00623883 0.00466834 0.00091012
v 0.00563626 0.00540375 0.00075944
v 0.00495065 0.00605725 0.00058773
v 0.00419238 0.00661895 0.00039762
v 0.00337296 0.00708032 0.00019197
v 0.00250479 0.00743438 -0.00002610
v 0.00160105 0.00767575 -0.00025327
v 0.00067543 0.00780078 -0.00048611
v -0.00025803 0.00780757 -0.00072109
v -0.00118519 0.00769601 -0.00095464
v -0.00209199 0.00746781 -0.00118323
v -0.00296469 0.00712642 -0.00140338
v -0.00379005 0.00667700 -0.00161177
v -0.00455556 0.00612639 -0.00180523
v -0.00524963 0.00548292 -0.00198082
v -0.00586172 0.00475634 -0.00213590
v -0.00638256 0.00395768 -0.00226811
v -0.00680426 0.00309904 -0.00237543
v -0.00712042 0.00219343 -0.00245626
v -0.00732624 0.00125458 -0.00250935
v -0.00741862 0.00029673 -0.00253392
v -0.00739614 -0.00066561 -0.00252957
v -0.00725915 -0.00161784 -0.00249639
v -0.00700973 -0.00254554 -0.00243486
v -0.00665166 -0.00343463 -0.00234594
v -0.00619036 -0.00427165 -0.00223095
v -0.00563282 -0.00504390 -0.00209166
v -0.00498751 -0.00573968 -0.00193016
v -0.00426420 -0.00634843 -0.00174891
v -0.00347385 -0.00686094 -0.00155065
v -0.00262846 -0.00726943 -0.00133839
v -0.00174082 -0.00756771 -0.00111535
v -0.00082440 -0.00775126 -0.00088490
v 0.00010691 -0.00781729 -0.00065055
v 0.00103899 -0.00776481 -0.00041584
v 0.00195771 -0.00759461 -0.00018433
v 0.00282606 -0.00664657 -0.00089567
v 0.00359973 -0.00628626 -0.00070042
v 0.00432456 -0.00583063 -0.00051733
v 0.00498957 -0.00528658 -0.00034918
v 0.00558468 -0.00466236 -0.00019851
v 0.00610086 -0.00396744 -0.00006762
v 0.00653030 -0.00321234 0.00004151
v 0.00686648 -0.00240851 0.00012724
v 0.00710431 -0.00156815 0.00018825
v 0.00724017 -0.00070398 0.00022364
v 0.00727202 0.00017090 0.00023285
v 0.00719936 0.00104321 0.00021575
v 0.00702331 0.00189974 0.00017260
v 0.00674652 0.00272751 0.00010405
v 0.00637320 0.00351395 0.00001114
v 0.00590900 0.00424717 -0.00010471
v 0.00536096 0.00491603 -0.00024176
v 0.00473739 0.00551039 -0.00039792
v 0.00404774 0.00602126 -0.00057083
v 0.00330247 0.00644089 -0.00075787
v 0.00251287 0.00676290 -0.00095620
v 0.00169091 0.00698243 -0.00116282
v 0.00084905 0.00709615 -0.00137459
v 0.00000005 0.00710232 -0.00158831
v -0.00084321 0.00700086 -0.00180072
v -0.00166795 0.00679331 -0.00200862
v -0.00246167 0.00648281 -0.00220886
v -0.00321235 0.00607406 -0.00239839
v -0.00390859 0.00557328 -0.00257434
v -0.00453985 0.00498803 -0.00273405
v -0.00509655 0.00432721 -0.00287509
v -0.00557026 0.00360082 -0.00299533
v -0.00595379 0.00281987 -0.00309295
v -0.00624134 0.00199621 -0.00316646
v -0.00642854 0.00114233 -0.00321475
v -0.00651256 0.00027115 -0.00323709
v -0.00649212 -0.00060410 -0.00323314
v -0.00636752 -0.00147017 -0.00320296
v -0.00614067 -0.00231391 -0.00314700
v -0.00581500 -0.00312255 -0.00306612
v -0.00539545 -0.00388383 -0.00296154
v -0.00488837 -0.00458620 -0.00283485
v -0.00430145 -0.00521901 -0.00268797
v -0.00364359 -0.00577268 -0.00252312
v -0.00292476 -0.00623881 -0.00234280
v -0.00215587 -0.00661033 -0.00214975
v -0.00134855 -0.00688162 -0.00194689
v -0.00051506 -0.00704856 -0.00173730
v 0.00033197 -0.00710862 -0.00152415
v 0.00117970 -0.00706089 -0.00131068
v 0.00201529 -0.00690609 -0.00110012
v 0.00274485 -0.00588704 -0.00175157
v 0.00343026 -0.00556783 -0.00157859
v 0.00407241 -0.00516418 -0.00141639
v 0.00466155 -0.00468220 -0.00126742
v 0.00518877 -0.00412919 -0.00113395
v 0.00564608 -0.00351354 -0.00101799
v 0.00602652 -0.00284458 -0.00092130
v 0.00632435 -0.00213245 -0.00084535
v 0.00653505 -0.00138795 -0.00079130
v 0.00665541 -0.00062236 -0.00075995
v 0.00668363 0.00015271 -0.00075179
v 0.00661926 0.00092551 -0.00076694
v 0.00646329 0.00168433 -0.00080517
v 0.00621808 0.00241767 -0.00086590
v 0.00588734 0.00311440 -0.00094820
v 0.00547610 0.00376397 -0.00105084
v 0.00499058 0.00435653 -0.00117226
v 0.00443815 0.00488309 -0.00131060
v 0.00382717 0.00533568 -0.00146379
v 0.00316691 0.00570744 -0.00162949
v 0.00246739 0.00599272 -0.00180520
v 0.00173919 0.00618720 -0.00198825
v 0.00099337 0.00628794 -0.00217586
v 0.00024123 0.00629342 -0.00236519
v -0.00050583 0.00620353 -0.00255338
v -0.00123649 0.00601966 -0.00273756
v -0.00193967 0.00574457 -0.00291495
v -0.00260471 0.00538246 -0.00308286
v -0.00322152 0.00493880 -0.00323874
v -0.00378077 0.00442032 -0.00338023
v -0.00427397 0.00383488 -0.00350519
v -0.00469364 0.00319135 -0.00361171
v -0.00503342 0.00249950 -0.00369819
v -0.00528816 0.00176980 -0.00376331
v -0.00545401 0.00101332 -0.00380610
v -0.00552844 0.00024153 -0.00382589
v -0.00551033 -0.00053388 -0.00382239
v -0.00539995 -0.00130115 -0.00379565
v -0.00519898 -0.00204864 -0.00374608
v -0.00491046 -0.00276503 -0.00367442
v -0.00453877 -0.00343946 -0.00358177
v -0.00408953 -0.00406171 -0.00346954
v -0.00356957 -0.00462233 -0.00333941
v -0.00298676 -0.00511284 -0.00319336
v -0.00234993 -0.00552579 -0.00303361
v -0.00166875 -0.00585494 -0.00286259
v -0.00095353 -0.00609528 -0.00268287
v -0.00021513 -0.00624317 -0.00249719
v 0.00053528 -0.00629638 -0.00230836
v 0.00128631 -0.00625409 -0.00211924
v 0.00202657 -0.00611695 -0.00193270
v 0.00260671 -0.00504175 -0.00251476
v 0.00319387 -0.00476831 -0.00236658
v 0.00374396 -0.00442252 -0.00222763
v 0.00424865 -0.00400962 -0.00210001
v 0.00470030 -0.00353589 -0.00198567
v 0.00509205 -0.00300849 -0.00188633
v 0.00541796 -0.00243543 -0.00180351
v 0.00567309 -0.00182538 -0.00173845
v 0.00585359 -0.00118760 -0.00169214
v 0.00595670 -0.00053176 -0.00166529
v 0.00598087 0.00013220 -0.00165830
v 0.00592573 0.00079423 -0.00167128
v 0.00579211 0.00144427 -0.00170402
v 0.00558205 0.00207248 -0.00175605
v 0.00529873 0.00266934 -0.00182655
v 0.00494644 0.00322579 -0.00191448
v 0.00453052 0.00373341 -0.00201849
v 0.00405727 0.00418449 -0.00213701
v 0.00353388 0.00457220 -0.00226823
v 0.00296827 0.00489066 -0.00241018
v 0.00236902 0.00513505 -0.00256070
v 0.00174521 0.00530166 -0.00271751
v 0.00110630 0.00538796 -0.00287823
v 0.00046198 0.00539265 -0.00304042
v -0.00017799 0.00531565 -0.00320163
v -0.00080391 0.00515813 -0.00335941
v -0.00140629 0.00492248 -0.00351137
v -0.00197600 0.00461227 -0.00365521
v -0.00250439 0.00423221 -0.00378875
v -0.00298347 0.00378806 -0.00390995
v -0.00340597 0.00328654 -0.00401700
v -0.00376548 0.00273526 -0.00410825
v -0.00405655 0.00214258 -0.00418233
v -0.00427478 0.00151749 -0.00423812
v -0.00441685 0.00086945 -0.00427477
v -0.00448062 0.00020829 -0.00429173
v -0.00446510 -0.00045596 -0.00428873
v -0.00437055 -0.00111324 -0.00426582
v -0.00419838 -0.00175359 -0.00422336
v -0.00395122 -0.00236728 -0.00416197
v -0.00363281 -0.00294504 -0.00408261
v -0.00324797 -0.00347808 -0.00398646
v -0.00280254 -0.00395834 -0.00387498
v -0.00230328 -0.00437854 -0.00374987
v -0.00175774 -0.00473229 -0.00361302
v -0.00117421 -0.00501425 -0.00346651
v -0.00056152 -0.00522014 -0.00331256
v 0.00007104 -0.00534684 -0.00315349
v 0.00071388 -0.00539241 -0.00299173
v 0.00135725 -0.00535619 -0.00282972
v 0.00199139 -0.00523871 -0.00266992
v 0.00241365 -0.00412304 -0.00317411
v 0.00289399 -0.00389934 -0.00305288
v 0.00334401 -0.00361645 -0.00293921
v 0.00375689 -0.00327867 -0.00283481
v 0.00412637 -0.00289112 -0.00274127
v 0.00444685 -0.00245967 -0.00266001
v 0.00471348 -0.00199085 -0.00259225
v 0.00492220 -0.00149179 -0.00253902
v 0.00506986 -0.00097003 -0.00250114
v 0.00515421 -0.00043350 -0.00247917
v 0.00517398 0.00010968 -0.00247345
v 0.00512887 0.00065127 -0.00248407
v 0.00501957 0.00118305 -0.00251086
v 0.00484772 0.00169698 -0.00255342
v 0.00461594 0.00218526 -0.00261110
v 0.00432773 0.00264048 -0.00268303
v 0.00398748 0.00305576 -0.00276812
v 0.00360032 0.00342478 -0.00286507
v 0.00317215 0.00374196 -0.00297243
v 0.00270943 0.00400249 -0.00308856
v 0.00221920 0.00420241 -0.00321169
v 0.00170887 0.00433871 -0.00333997
v 0.00118619 0.00440931 -0.00347145
v 0.00065908 0.00441315 -0.00360414
v 0.00013553 0.00435016 -0.00373602
v -0.00037652 0.00422129 -0.00386510
v -0.00086931 0.00402851 -0.00398942
v -0.00133538 0.00377474 -0.00410709
v -0.00176765 0.00346382 -0.00421633
v -0.00215958 0.00310046 -0.00431549
v -0.00250521 0.00269018 -0.00440306
v -0.00279932 0.00223919 -0.00447771
v -0.00303745 0.00175433 -0.00453832
v -0.00321597 0.00124295 -0.00458396
v -0.00333220 0.00071280 -0.00461394
v -0.00338436 0.00017192 -0.00462781
v -0.00337167 -0.00037149 -0.00462536
v -0.00329432 -0.00090920 -0.00460662
v -0.00315347 -0.00143305 -0.00457188
v -0.00295127 -0.00193511 -0.00452166
v -0.00269079 -0.00240775 -0.00445673
v -0.00237596 -0.00284383 -0.00437808
v -0.00201156 -0.00323672 -0.00428688
v -0.00160312 -0.00358047 -0.00418453
v -0.00115683 -0.00386988 -0.00407258
v -0.00067945 -0.00410054 -0.00395272
v -0.00017822 -0.00426898 -0.00382677
v 0.00033926 -0.00437262 -0.00369664
v 0.00086516 -0.00440991 -0.00356431
v 0.00139148 -0.00438027 -0.00343177
v 0.00191027 -0.00428416 -0.00330104
v 0.00216848 -0.00314429 -0.00372000
v 0.00253500 -0.00297360 -0.00362750
v 0.00287839 -0.00275775 -0.00354076
v 0.00319344 -0.00250001 -0.00346110
v 0.00347537 -0.00220428 -0.00338973
v 0.00371991 -0.00187506 -0.00332772
v 0.00392335 -0.00151734 -0.00327601
v 0.00408262 -0.00113653 -0.00323540
v 0.00419529 -0.00073841 -0.00320650
v 0.00425965 -0.00032901 -0.00318973
v 0.00427474 0.00008546 -0.00318537
v 0.00424032 0.00049872 -0.00319347
v 0.00415691 0.00090450 -0.00321391
v 0.00402579 0.00129665 -0.00324639
v 0.00384893 0.00166922 -0.00329040
v 0.00362901 0.00201658 -0.00334529
v 0.00336938 0.00233345 -0.00341021
v 0.00307397 0.00261503 -0.00348419
v 0.00274725 0.00285706 -0.00356611
v 0.00239418 0.00305585 -0.00365472
v 0.00202010 0.00320841 -0.00374868
v 0.00163070 0.00331241 -0.00384656
v 0.00123187 0.00336628 -0.00394689
v 0.00082967 0.00336920 -0.00404814
v 0.00043017 0.00332114 -0.00414877
v 0.00003945 0.00322281 -0.00424726
v -0.00033657 0.00307571 -0.00434212
v -0.00069220 0.00288207 -0.00443191
v -0.00102204 0.00264482 -0.00451527
v -0.00132110 0.00236757 -0.00459093
v -0.00158483 0.00205450 -0.00465775
v -0.00180925 0.00171038 -0.00471471
v -0.00199095 0.00134041 -0.00476096
v -0.00212718 0.00095020 -0.00479578
v -0.00221586 0.00054567 -0.00481866
v -0.00225567 0.00013296 -0.00482924
v -0.00224598 -0.00028169 -0.00482737
v -0.00218696 -0.00069199 -0.00481307
v -0.00207949 -0.00109171 -0.00478656
v -0.00192520 -0.00147480 -0.00474825
v -0.00172644 -0.00183545 -0.00469870
v -0.00148621 -0.00216820 -0.00463868
v -0.00120816 -0.00246799 -0.00456910
v -0.00089650 -0.00273029 -0.00449100
v -0.00055596 -0.00295112 -0.00440557
v -0.00019170 -0.00312713 -0.00431412
v 0.00019077 -0.00325565 -0.00421801
v 0.00058563 -0.00333474 -0.00411872
v 0.00098691 -0.00336319 -0.00401774
v 0.00138852 -0.00334058 -0.00391661
v 0.00178438 -0.00326724 -0.00381686
v 0.00187478 -0.00211979 -0.00414448
v 0.00212214 -0.00200459 -0.00408205
v 0.00235388 -0.00185892 -0.00402351
v 0.00256650 -0.00168497 -0.00396975
v 0.00275677 -0.00148540 -0.00392158
v 0.00292181 -0.00126321 -0.00387973
v 0.00305911 -0.00102179 -0.00384484
v 0.00316659 -0.00076479 -0.00381743
v 0.00324263 -0.00049611 -0.00379792
v 0.00328607 -0.00021981 -0.00378661
v 0.00329625 0.00005991 -0.00378367
v 0.00327302 0.00033880 -0.00378913
v 0.00321673 0.00061266 -0.00380293
v 0.00312824 0.00087731 -0.00382485
v 0.00300888 0.00112876 -0.00385455
v 0.00286047 0.00136318 -0.00389159
v 0.00268525 0.00157703 -0.00393541
v 0.00248588 0.00176706 -0.00398534
v 0.00226538 0.00193040 -0.00404062
v 0.00202710 0.00206456 -0.00410042
v 0.00177464 0.00216752 -0.00416383
v 0.00151185 0.00223771 -0.00422989
v 0.00124268 0.00227406 -0.00429760
v 0.00097124 0.00227604 -0.00436593
v 0.00070163 0.00224360 -0.00443384
v 0.00043794 0.00217724 -0.00450031
v 0.00018417 0.00207797 -0.00456433
v -0.00005583 0.00194728 -0.00462493
v -0.00027844 0.00178717 -0.00468119
v -0.00048027 0.00160005 -0.00473225
v -0.00065826 0.00138877 -0.00477734
v -0.00080971 0.00115653 -0.00481579
v -0.00093234 0.00090684 -0.00484700
v -0.00102427 0.00064350 -0.00487050
v -0.00108412 0.00037049 -0.00488594
v -0.00111099 0.00009196 -0.00489308
v -0.00110445 -0.00018788 -0.00489182
v -0.00106462 -0.00046478 -0.00488217
v -0.00099209 -0.00073454 -0.00486428
v -0.00088796 -0.00099308 -0.00483842
v -0.00075382 -0.00123648 -0.00480498
v -0.00059169 -0.00146104 -0.00476448
v -0.00040404 -0.00166337 -0.00471752
v -0.00019371 -0.00184039 -0.00466481
v 0.00003611 -0.00198942 -0.00460716
v 0.00028195 -0.00210821 -0.00454543
v 0.00054006 -0.00219494 -0.00448058
v 0.00080655 -0.00224832 -0.00441357
v 0.00107736 -0.00226752 -0.00434542
v 0.00134840 -0.00225226 -0.00427717
v 0.00161556 -0.00220276 -0.00420985
f 1 2 3
f 3 2 4
f 3 4 5
f 6 7 3
f 3 7 8
f 3 8 1
f 9 10 3
f 3 10 11
f 3 11 6
f 5 12 3
f 3 12 13
f 3 13 9
f 14 10 15
f 15 10 9
f 15 9 16
f 16 9 13
f 16 13 17
f 17 13 12
f 17 12 18
f 18 12 5
f 18 5 19
f 19 5 4
f 19 4 20
f 20 4 2
f 20 2 21
f 21 2 1
f 21 1 22
f 22 1 8
f 22 8 23
f 23 8 7
f 23 7 24
f 24 7 6
f 24 6 25
f 25 6 11
f 25 11 14
f 14 11 10
f 26 27 24
f 14 28 29
f 30 31 20
f 20 31 32
f 33 34 21
f 21 34 35
f 21 35 20
f 20 35 36
f 20 36 30
f 37 25 38
f 38 25 14
f 38 14 39
f 39 14 29
f 40 41 16
f 16 41 42
f 43 15 44
f 44 15 16
f 44 16 45
f 45 16 42
f 17 46 16
f 16 46 47
f 16 47 40
f 48 49 17
f 17 49 50
f 17 50 46
f 51 52 22
f 22 52 53
f 22 53 21
f 21 53 54
f 21 54 33
f 55 56 23
f 23 56 57
f 23 57 22
f 22 57 58
f 22 58 51
f 37 59 25
f 25 59 60
f 25 60 24
f 24 60 61
f 24 61 26
f 43 62 15
f 15 62 63
f 15 63 14
f 14 63 64
f 14 64 28
f 48 17 65
f 65 17 18
f 65 18 66
f 32 67 20
f 20 67 68
f 20 68 19
f 19 68 69
f 19 69 70
f 70 71 19
f 19 71 72
f 19 72 18
f 18 72 73
f 18 73 66
f 27 74 24
f 24 74 75
f 24 75 23
f 23 75 76
f 23 76 55
f 77 78 79
f 77 79 80
f 81 80 79
f 82 81 79
f 83 82 79
f 84 83 79
f 85 84 79
f 86 85 79
f 87 86 79
f 88 87 79
f 89 88 79
f 90 89 79
f 91 90 79
f 92 91 79
f 93 92 79
f 94 93 79
f 95 94 79
f 96 95 79
f 97 96 79
f 98 97 79
f 99 98 79
f 100 99 79
f 101 100 79
f 102 101 79
f 103 102 79
f 104 103 79
f 105 104 79
f 106 105 79
f 107 106 79
f 108 107 79
f 109 108 79
f 110 109 79
f 111 110 79
f 112 111 79
f 113 112 79
f 114 113 79
f 115 114 79
f 116 115 79
f 117 116 79
f 118 117 79
f 119 118 79
f 120 119 79
f 121 120 79
f 122 121 79
f 123 122 79
f 124 123 79
f 125 124 79
f 126 125 79
f 127 126 79
f 128 127 79
f 78 128 79
f 31 129 32
f 32 129 130
f 32 130 67
f 67 130 131
f 67 131 68
f 68 131 132
f 68 132 69
f 69 132 133
f 69 133 70
f 70 133 134
f 70 134 71
f 71 134 135
f 71 135 72
f 72 135 136
f 72 136 73
f 73 136 137
f 73 137 66
f 66 137 138
f 66 138 65
f 65 138 139
f 65 139 48
f 48 139 140
f 48 140 49
f 49 140 141
f 49 141 50
f 50 141 142
f 50 142 46
f 46 142 143
f 46 143 47
f 47 143 144
f 47 144 40
f 40 144 145
f 40 145 41
f 41 145 146
f 41 146 42
f 42 146 147
f 42 147 45
f 45 147 148
f 45 148 44
f 44 148 149
f 44 149 43
f 43 149 150
f 43 150 62
f 62 150 151
f 62 151 63
f 63 151 152
f 63 152 64
f 64 152 153
f 64 153 28
f 28 153 154
f 28 154 29
f 29 154 155
f 29 155 39
f 39 155 156
f 39 156 38
f 38 156 157
f 38 157 37
f 37 157 158
f 37 158 59
f 59 158 159
f 59 159 60
f 60 159 160
f 60 160 61
f 61 160 161
f 61 161 26
f 26 161 162
f 26 162 27
f 27 162 163
f 27 163 74
f 74 163 164
f 74 164 75
f 75 164 165
f 75 165 76
f 76 165 166
f 76 166 55
f 55 166 167
f 55 167 56
f 56 167 168
f 56 168 57
f 57 168 169
f 57 169 58
f 58 169 170
f 58 170 51
f 51 170 171
f 51 171 52
f 52 171 172
f 52 172 53
f 53 172 173
f 53 173 54
f 54 173 174
f 54 174 33
f 33 174 175
f 33 175 34
f 34 175 176
f 34 176 35
f 35 176 177
f 35 177 36
f 36 177 178
f 36 178 30
f 30 178 179
f 30 179 31
f 31 179 129
f 179 180 129
f 129 180 181
f 129 181 130
f 130 181 182
f 130 182 131
f 131 182 183
f 131 183 132
f 132 183 184
f 132 184 133
f 133 184 185
f 133 185 134
f 134 185 186
f 134 186 135
f 135 186 187
f 135 187 136
f 136 187 188
f 136 188 137
f 137 188 189
f 137 189 138
f 138 189 190
f 138 190 139
f 139 190 191
f 139 191 140
f 140 191 192
f 140 192 141
f 141 192 193
f 141 193 142
f 142 193 194
f 142 194 143
f 143 194 195
f 143 195 144
f 144 195 196
f 144 196 145
f 145 196 197
f 145 197 146
f 146 197 198
f 146 198 147
f 147 198 199
f 147 199 148
f 148 199 200
f 148 200 149
f 149 200 201
f 149 201 150
f 150 201 202
f 150 202 151
f 151 202 203
f 151 203 152
f 152 203 204
f 152 204 153
f 153 204 205
f 153 205 154
f 154 205 206
f 154 206 155
f 155 206 207
f 155 207 156
f 156 207 208
f 156 208 157
f 157 208 209
f 157 209 158
f 158 209 210
f 158 210 159
f 159 210 211
f 159 211 160
f 160 211 212
f 160 212 161
f 161 212 213
f 161 213 162
f 162 213 214
f 162 214 163
f 163 214 215
f 163 215 164
f 164 215 216
f 164 216 165
f 165 216 217
f 165 217 166
f 166 217 218
f 166 218 167
f 167 218 219
f 167 219 168
f 168 219 220
f 168 220 169
f 169 220 221
f 169 221 170
f 170 221 222
f 170 222 171
f 171 222 223
f 171 223 172
f 172 223 224
f 172 224 173
f 173 224 225
f 173 225 174
f 174 225 226
f 174 226 175
f 175 226 227
f 175 227 176
f 176 227 228
f 176 228 177
f 177 228 229
f 177 229 178
f 178 229 230
f 178 230 179
f 179 230 180
f 230 231 180
f 180 231 232
f 180 232 181
f 181 232 233
f 181 233 182
f 182 233 234
f 182 234 183
f 183 234 235
f 183 235 184
f 184 235 236
f 184 236 185
f 185 236 237
f 185 237 186
f 186 237 238
f 186 238 187
f 187 238 239
f 187 239 188
f 188 239 240
f 188 240 189
f 189 240 241
f 189 241 190
f 190 241 242
f 190 242 191
f 191 242 243
f 191 243 192
f 192 243 244
f 192 244 193
f 193 244 245
f 193 245 194
f 194 245 246
f 194 246 195
f 195 246 247
f 195 247 196
f 196 247 248
f 196 248 197
f 197 248 249
f 197 249 198
f 198 249 250
f 198 250 199
f 199 250 251
f 199 251 200
f 200 251 252
f 200 252 201
f 201 252 253
f 201 253 202
f 202 253 254
f 202 254 203
f 203 254 255
f 203 255 204
f 204 255 256
f 204 256 205
f 205 256 257
f 205 257 206
f 206 257 258
f 206 258 207
f 207 258 259
f 207 259 208
f 208 259 260
f 208 260 209
f 209 260 261
f 209 261 210
f 210 261 262
f 210 262 211
f 211 262 263
f 211 263 212
f 212 263 264
f 212 264 213
f 213 264 265
f 213 265 214
f 214 265 266
f 214 266 215
f 215 266 267
f 215 267 216
f 216 267 268
f 216 268 217
f 217 268 269
f 217 269 218
f 218 269 270
f 218 270 219
f 219 270 271
f 219 271 220
f 220 271 272
f 220 272 221
f 221 272 273
f 221 273 222
f 222 273 274
f 222 274 223
f 223 274 275
f 223 275 224
f 224 275 276
f 224 276 225
f 225 276 277
f 225 277 226
f 226 277 278
f 226 278 227
f 227 278 279
f 227 279 228
f 228 279 280
f 228 280 229
f 229 280 281
f 229 281 230
f 230 281 231
f 281 282 231
f 231 282 283
f 231 283 232
f 232 283 284
f 232 284 233
f 233 284 285
f 233 285 234
f 234 285 286
f 234 286 235
f 235 286 287
f 235 287 236
f 236 287 288
f 236 288 237
f 237 288 289
f 237 289 238
f 238 289 290
f 238 290 239
f 239 290 291
f 239 291 240
f 240 291 292
f 240 292 241
f 241 292 293
f 241 293 242
f 242 293 294
f 242 294 243
f 243 294 295
f 243 295 244
f 244 295 296
f 244 296 245
f 245 296 297
f 245 297 246
f 246 297 298
f 246 298 247
f 247 298 299
f 247 299 248
f 248 299 300
f 248 300 249
f 249 300 301
f 249 301 250
f 250 301 302
f 250 302 251
f 251 302 303
f 251 303 252
f 252 303 304
f 252 304 253
f 253 304 305
f 253 305 254
f 254 305 306
f 254 306 255
f 255 306 307
f 255 307 256
f 256 307 308
f 256 308 257
f 257 308 309
f 257 309 258
f 258 309 310
f 258 310 259
f 259 310 311
f 259 311 260
f 260 311 312
f 260 312 261
f 261 312 313
f 261 313 262
f 262 313 314
f 262 314 263
f 263 314 315
f 263 315 264
f 264 315 316
f 264 316 265
f 265 316 317
f 265 317 266
f 266 317 318
f 266 318 267
f 267 318 319
f 267 319 268
f 268 319 320
f 268 320 269
f 269 320 321
f 269 321 270
f 270 321 322
f 270 322 271
f 271 322 323
f 271 323 272
f 272 323 324
f 272 324 273
f 273 324 325
f 273 325 274
f 274 325 326
f 274 326 275
f 275 326 327
f 275 327 276
f 276 327 328
f 276 328 277
f 277 328 329
f 277 329 278
f 278 329 330
f 278 330 279
f 279 330 331
f 279 331 280
f 280 331 332
f 280 332 281
f 281 332 282
f 332 333 282
f 282 333 334
f 282 334 283
f 283 334 335
f 283 335 284
f 284 335 336
f 284 336 285
f 285 336 337
f 285 337 286
f 286 337 338
f 286 338 287
f 287 338 339
f 287 339 288
f 288 339 340
f 288 340 289
f 289 340 341
f 289 341 290
f 290 341 342
f 290 342 291
f 291 342 343
f 291 343 292
f 292 343 344
f 292 344 293
f 293 344 345
f 293 345 294
f 294 345 346
f 294 346 295
f 295 346 347
f 295 347 296
f 296 347 348
f 296 348 297
f 297 348 349
f 297 349 298
f 298 349 350
f 298 350 299
f 299 350 351
f 299 351 300
f 300 351 352
f 300 352 301
f 301 352 353
f 301 353 302
f 302 353 354
f 302 354 303
f 303 354 355
f 303 355 304
f 304 355 356
f 304 356 305
f 305 356 357
f 305 357 306
f 306 357 358
f 306 358 307
f 307 358 359
f 307 359 308
f 308 359 360
f 308 360 309
f 309 360 361
f 309 361 310
f 310 361 362
f 310 362 311
f 311 362 363
f 311 363 312
f 312 363 364
f 312 364 313
f 313 364 365
f 313 365 314
f 314 365 366
f 314 366 315
f 315 366 367
f 315 367 316
f 316 367 368
f 316 368 317
f 317 368 369
f 317 369 318
f 318 369 370
f 318 370 319
f 319 370 371
f 319 371 320
f 320 371 372
f 320 372 321
f 321 372 373
f 321 373 322
f 322 373 374
f 322 374 323
f 323 374 375
f 323 375 324
f 324 375 376
f 324 376 325
f 325 376 377
f 325 377 326
f 326 377 378
f 326 378 327
f 327 378 379
f 327 379 328
f 328 379 380
f 328 380 329
f 329 380 381
f 329 381 330
f 330 381 382
f 330 382 331
f 331 382 383
f 331 383 332
f 332 383 333
f 383 384 333
f 333 384 385
f 333 385 334
f 334 385 386
f 334 386 335
f 335 386 387
f 335 387 336
f 336 387 388
f 336 388 337
f 337 388 389
f 337 389 338
f 338 389 390
f 338 390 339
f 339 390 391
f 339 391 340
f 340 391 392
f 340 392 341
f 341 392 393
f 341 393 342
f 342 393 394
f 342 394 343
f 343 394 395
f 343 395 344
f 344 395 396
f 344 396 345
f 345 396 397
f 345 397 346
f 346 397 398
f 346 398 347
f 347 398 399
f 347 399 348
f 348 399 400
f 348 400 349
f 349 400 401
f 349 401 350
f 350 401 402
f 350 402 351
f 351 402 403
f 351 403 352
f 352 403 404
f 352 404 353
f 353 404 405
f 353 405 354
f 354 405 406
f 354 406 355
f 355 406 407
f 355 407 356
f 356 407 408
f 356 408 357
f 357 408 409
f 357 409 358
f 358 409 410
f 358 410 359
f 359 410 411
f 359 411 360
f 360 411 412
f 360 412 361
f 361 412 413
f 361 413 362
f 362 413 414
f 362 414 363
f 363 414 415
f 363 415 364
f 364 415 416
f 364 416 365
f 365 416 417
f 365 417 366
f 366 417 418
f 366 418 367
f 367 418 419
f 367 419 368
f 368 419 420
f 368 420 369
f 369 420 421
f 369 421 370
f 370 421 422
f 370 422 371
f 371 422 423
f 371 423 372
f 372 423 424
f 372 424 373
f 373 424 425
f 373 425 374
f 374 425 426
f 374 426 375
f 375 426 427
f 375 427 376
f 376 427 428
f 376 428 377
f 377 428 429
f 377 429 378
f 378 429 430
f 378 430 379
f 379 430 431
f 379 431 380
f 380 431 432
f 380 432 381
f 381 432 433
f 381 433 382
f 382 433 434
f 382 434 383
f 383 434 384
f 434 435 384
f 384 435 436
f 384 436 385
f 385 436 437
f 385 437 386
f 386 437 438
f 386 438 387
f 387 438 439
f 387 439 388
f 388 439 440
f 388 440 389
f 389 440 441
f 389 441 390
f 390 441 442
f 390 442 391
f 391 442 443
f 391 443 392
f 392 443 444
f 392 444 393
f 393 444 445
f 393 445 394
f 394 445 446
f 394 446 395
f 395 446 447
f 395 447 396
f 396 447 448
f 396 448 397
f 397 448 449
f 397 449 398
f 398 449 450
f 398 450 399
f 399 450 451
f 399 451 400
f 400 451 452
f 400 452 401
f 401 452 453
f 401 453 402
f 402 453 454
f 402 454 403
f 403 454 455
f 403 455 404
f 404 455 456
f 404 456 405
f 405 456 457
f 405 457 406
f 406 457 458
f 406 458 407
f 407 458 459
f 407 459 408
f 408 459 460
f 408 460 409
f 409 460 461
f 409 461 410
f 410 461 462
f 410 462 411
f 411 462 463
f 411 463 412
f 412 463 464
f 412 464 413
f 413 464 465
f 413 465 414
f 414 465 466
f 414 466 415
f 415 466 467
f 415 467 416
f 416 467 468
f 416 468 417
f 417 468 469
f 417 469 418
f 418 469 470
f 418 470 419
f 419 470 471
f 419 471 420
f 420 471 472
f 420 472 421
f 421 472 473
f 421 473 422
f 422 473 474
f 422 474 423
f 423 474 475
f 423 475 424
f 424 475 476
f 424 476 425
f 425 476 477
f 425 477 426
f 426 477 478
f 426 478 427
f 427 478 479
f 427 479 428
f 428 479 480
f 428 480 429
f 429 480 481
f 429 481 430
f 430 481 482
f 430 482 431
f 431 482 483
f 431 483 432
f 432 483 484
f 432 484 433
f 433 484 485
f 433 485 434
f 434 485 435
f 485 486 435
f 435 486 487
f 435 487 436
f 436 487 488
f 436 488 437
f 437 488 489
f 437 489 438
f 438 489 490
f 438 490 439
f 439 490 491
f 439 491 440
f 440 491 492
f 440 492 441
f 441 492 493
f 441 493 442
f 442 493 494
f 442 494 443
f 443 494 495
f 443 495 444
f 444 495 496
f 444 496 445
f 445 496 497
f 445 497 446
f 446 497 498
f 446 498 447
f 447 498 499
f 447 499 448
f 448 499 500
f 448 500 449
f 449 500 501
f 449 501 450
f 450 501 502
f 450 502 451
f 451 502 503
f 451 503 452
f 452 503 504
f 452 504 453
f 453 504 505
f 453 505 454
f 454 505 506
f 454 506 455
f 455 506 507
f 455 507 456
f 456 507 508
f 456 508 457
f 457 508 509
f 457 509 458
f 458 509 510
f 458 510 459
f 459 510 511
f 459 511 460
f 460 511 512
f 460 512 461
f 461 512 513
f 461 513 462
f 462 513 514
f 462 514 463
f 463 514 515
f 463 515 464
f 464 515 516
f 464 516 465
f 465 516 517
f 465 517 466
f 466 517 518
f 466 518 467
f 467 518 519
f 467 519 468
f 468 519 520
f 468 520 469
f 469 520 521
f 469 521 470
f 470 521 522
f 470 522 471
f 471 522 523
f 471 523 472
f 472 523 524
f 472 524 473
f 473 524 525
f 473 525 474
f 474 525 526
f 474 526 475
f 475 526 527
f 475 527 476
f 476 527 528
f 476 528 477
f 477 528 529
f 477 529 478
f 478 529 530
f 478 530 479
f 479 530 531
f 479 531 480
f 480 531 532
f 480 532 481
f 481 532 533
f 481 533 482
f 482 533 534
f 482 534 483
f 483 534 535
f 483 535 484
f 484 535 536
f 484 536 485
f 485 536 486
f 536 537 486
f 486 537 538
f 486 538 487
f 487 538 539
f 487 539 488
f 488 539 540
f 488 540 489
f 489 540 541
f 489 541 490
f 490 541 542
f 490 542 491
f 491 542 543
f 491 543 492
f 492 543 544
f 492 544 493
f 493 544 545
f 493 545 494
f 494 545 546
f 494 546 495
f 495 546 547
f 495 547 496
f 496 547 548
f 496 548 497
f 497 548 549
f 497 549 498
f 498 549 550
f 498 550 499
f 499 550 551
f 499 551 500
f 500 551 552
f 500 552 501
f 501 552 553
f 501 553 502
f 502 553 554
f 502 554 503
f 503 554 555
f 503 555 504
f 504 555 556
f 504 556 505
f 505 556 557
f 505 557 506
f 506 557 558
f 506 558 507
f 507 558 559
f 507 559 508
f 508 559 560
f 508 560 509
f 509 560 561
f 509 561 510
f 510 561 562
f 510 562 511
f 511 562 563
f 511 563 512
f 512 563 564
f 512 564 513
f 513 564 565
f 513 565 514
f 514 565 566
f 514 566 515
f 515 566 567
f 515 567 516
f 516 567 568
f 516 568 517
f 517 568 569
f 517 569 518
f 518 569 570
f 518 570 519
f 519 570 571
f 519 571 520
f 520 571 572
f 520 572 521
f 521 572 573
f 521 573 522
f 522 573 574
f 522 574 523
f 523 574 575
f 523 575 524
f 524 575 576
f 524 576 525
f 525 576 577
f 525 577 526
f 526 577 578
f 526 578 527
f 527 578 579
f 527 579 528
f 528 579 580
f 528 580 529
f 529 580 581
f 529 581 530
f 530 581 582
f 530 582 531
f 531 582 583
f 531 583 532
f 532 583 584
f 532 584 533
f 533 584 585
f 533 585 534
f 534 585 586
f 534 586 535
f 535 586 587
f 535 587 536
f 536 587 537
f 587 588 537
f 537 588 589
f 537 589 538
f 538 589 590
f 538 590 539
f 539 590 591
f 539 591 540
f 540 591 592
f 540 592 541
f 541 592 593
f 541 593 542
f 542 593 594
f 542 594 543
f 543 594 595
f 543 595 544
f 544 595 596
f 544 596 545
f 545 596 597
f 545 597 546
f 546 597 598
f 546 598 547
f 547 598 599
f 547 599 548
f 548 599 600
f 548 600 549
f 549 600 601
f 549 601 550
f 550 601 602
f 550 602 551
f 551 602 603
f 551 603 552
f 552 603 604
f 552 604 553
f 553 604 605
f 553 605 554
f 554 605 606
f 554 606 555
f 555 606 607
f 555 607 556
f 556 607 608
f 556 608 557
f 557 608 609
f 557 609 558
f 558 609 610
f 558 610 559
f 559 610 611
f 559 611 560
f 560 611 612
f 560 612 561
f 561 612 613
f 561 613 562
f 562 613 614
f 562 614 563
f 563 614 615
f 563 615 564
f 564 615 616
f 564 616 565
f 565 616 617
f 565 617 566
f 566 617 618
f 566 618 567
f 567 618 619
f 567 619 568
f 568 619 620
f 568 620 569
f 569 620 621
f 569 621 570
f 570 621 622
f 570 622 571
f 571 622 623
f 571 623 572
f 572 623 624
f 572 624 573
f 573 624 625
f 573 625 574
f 574 625 626
f 574 626 575
f 575 626 627
f 575 627 576
f 576 627 628
f 576 628 577
f 577 628 629
f 577 629 578
f 578 629 630
f 578 630 579
f 579 630 631
f 579 631 580
f 580 631 632
f 580 632 581
f 581 632 633
f 581 633 582
f 582 633 634
f 582 634 583
f 583 634 635
f 583 635 584
f 584 635 636
f 584 636 585
f 585 636 637
f 585 637 586
f 586 637 638
f 586 638 587
f 587 638 588
f 638 639 588
f 588 639 640
f 588 640 589
f 589 640 641
f 589 641 590
f 590 641 642
f 590 642 591
f 591 642 643
f 591 643 592
f 592 643 644
f 592 644 593
f 593 644 645
f 593 645 594
f 594 645 646
f 594 646 595
f 595 646 647
f 595 647 596
f 596 647 648
f 596 648 597
f 597 648 649
f 597 649 598
f 598 649 650
f 598 650 599
f 599 650 651
f 599 651 600
f 600 651 652
f 600 652 601
f 601 652 653
f 601 653 602
f 602 653 654
f 602 654 603
f 603 654 655
f 603 655 604
f 604 655 656
f 604 656 605
f 605 656 657
f 605 657 606
f 606 657 658
f 606 658 607
f 607 658 659
f 607 659 608
f 608 659 660
f 608 660 609
f 609 660 661
f 609 661 610
f 610 661 662
f 610 662 611
f 611 662 663
f 611 663 612
f 612 663 664
f 612 664 613
f 613 664 665
f 613 665 614
f 614 665 666
f 614 666 615
f 615 666 667
f 615 667 616
f 616 667 668
f 616 668 617
f 617 668 669
f 617 669 618
f 618 669 670
f 618 670 619
f 619 670 671
f 619 671 620
f 620 671 672
f 620 672 621
f 621 672 673
f 621 673 622
f 622 673 674
f 622 674 623
f 623 674 675
f 623 675 624
f 624 675 676
f 624 676 625
f 625 676 677
f 625 677 626
f 626 677 678
f 626 678 627
f 627 678 679
f 627 679 628
f 628 679 680
f 628 680 629
f 629 680 681
f 629 681 630
f 630 681 682
f 630 682 631
f 631 682 683
f 631 683 632
f 632 683 684
f 632 684 633
f 633 684 685
f 633 685 634
f 634 685 686
f 634 686 635
f 635 686 687
f 635 687 636
f 636 687 688
f 636 688 637
f 637 688 689
f 637 689 638
f 638 689 639
f 689 78 639
f 639 78 77
f 639 77 640
f 640 77 80
f 640 80 641
f 641 80 81
f 641 81 642
f 642 81 82
f 642 82 643
f 643 82 83
f 643 83 644
f 644 83 84
f 644 84 645
f 645 84 85
f 645 85 646
f 646 85 86
f 646 86 647
f 647 86 87
f 647 87 648
f 648 87 88
f 648 88 649
f 649 88 89
f 649 89 650
f 650 89 90
f 650 90 651
f 651 90 91
f 651 91 652
f 652 91 92
f 652 92 653
f 653 92 93
f 653 93 654
f 654 93 94
f 654 94 655
f 655 94 95
f 655 95 656
f 656 95 96
f 656 96 657
f 657 96 97
f 657 97 658
f 658 97 98
f 658 98 659
f 659 98 99
f 659 99 660
f 660 99 100
f 660 100 661
f 661 100 101
f 661 101 662
f 662 101 102
f 662 102 663
f 663 102 103
f 663 103 664
f 664 103 104
f 664 104 665
f 665 104 105
f 665 105 666
f 666 105 106
f 666 106 667
f 667 106 107
f 667 107 668
f 668 107 108
f 668 108 669
f 669 108 109
f 669 109 670
f 670 109 110
f 670 110 671
f 671 110 111
f 671 111 672
f 672 111 112
f 672 112 673
f 673 112 113
f 673 113 674
f 674 113 114
f 674 114 675
f 675 114 115
f 675 115 676
f 676 115 116
f 676 116 677
f 677 116 117
f 677 117 678
f 678 117 118
f 678 118 679
f 679 118 119
f 679 119 680
f 680 119 120
f 680 120 681
f 681 120 121
f 681 121 682
f 682 121 122
f 682 122 683
f 683 122 123
f 683 123 684
f 684 123 124
f 684 124 685
f 685 124 125
f 685 125 686
f 686 125 126
f 686 126 687
f 687 126 127
f 687 127 688
f 688 127 128
f 688 128 689
f 689 128 78

