# https://github.com/mikedh/trimesh
v -0.01147778 0.00498187 0.01328490
v -0.01140454 0.00468227 0.01299357
v -0.01295728 0.00468224 0.01301716
v -0.01287524 0.00498184 0.01330613
v -0.01429019 0.00468115 0.01381395
v -0.01407486 0.00498086 0.01402324
v -0.01504614 0.00467930 0.01517044
v -0.01475521 0.00497920 0.01524409
v -0.01502255 0.00467718 0.01672318
v -0.01473399 0.00497729 0.01664155
v -0.01422576 0.00467536 0.01805609
v -0.01401687 0.00497565 0.01784118
v -0.01286926 0.00467433 0.01881204
v -0.01279602 0.00497472 0.01852152
v 0.00065912 0.00500357 -0.00261148
v 0.00073236 0.00470397 -0.00290282
v -0.00082038 0.00470393 -0.00287923
v -0.00073834 0.00500354 -0.00259026
v -0.00215329 0.00470285 -0.00208244
v -0.00193796 0.00500256 -0.00187315
v -0.00290924 0.00470100 -0.00072594
v -0.00261831 0.00500089 -0.00065230
v -0.00288565 0.00469888 0.00082679
v -0.00259709 0.00499899 0.00074516
v -0.00208886 0.00469706 0.00215971
v -0.00187997 0.00499735 0.00194479
v -0.00073236 0.00469603 0.00291565
v -0.00065912 0.00499642 0.00262513
v -0.00065912 -0.01200356 0.00260193
v -0.00073236 -0.01170396 0.00289326
v -0.00208886 -0.01170293 0.00213732
v -0.00187997 -0.01200263 0.00192158
v -0.00288565 -0.01170111 0.00080441
v -0.00259709 -0.01200100 0.00072196
v -0.00290924 -0.01169899 -0.00074833
v -0.00261831 -0.01199909 -0.00067550
v -0.00215329 -0.01169714 -0.00210483
v -0.00193796 -0.01199742 -0.00189635
v -0.00082038 -0.01169605 -0.00290162
v -0.00073834 -0.01199644 -0.00261346
v 0.00073236 -0.01169602 -0.00292520
v 0.00065912 -0.01199641 -0.00263469
v -0.01279602 -0.01202526 0.01849832
v -0.01286926 -0.01172566 0.01878965
v -0.01422576 -0.01172463 0.01803371
v -0.01401687 -0.01202433 0.01781797
v -0.01502255 -0.01172281 0.01670080
v -0.01473399 -0.01202269 0.01661835
v -0.01504614 -0.01172069 0.01514806
v -0.01475521 -0.01202079 0.01522089
v -0.01429019 -0.01171884 0.01379156
v -0.01407486 -0.01201912 0.01400004
v -0.01295728 -0.01171775 0.01299477
v -0.01287524 -0.01201814 0.01328292
v -0.01140454 -0.01171772 0.01297119
v -0.01147778 -0.01201811 0.01326170
v -0.01244205 -0.00252335 0.01710516
v -0.01244205 0.00497664 0.01711540
v -0.01179508 -0.00252334 0.01709533
v -0.01179508 0.00497666 0.01710557
v -0.01123970 -0.00252288 0.01676334
v -0.01123970 0.00497711 0.01677357
v -0.01092472 -0.00252211 0.01619812
v -0.01092472 0.00497788 0.01620836
v -0.01093455 -0.00252123 0.01555115
v -0.01093455 0.00497876 0.01556139
v -0.01126654 -0.00252047 0.01499577
v -0.01126654 0.00497952 0.01500601
v -0.01183175 -0.00252004 0.01468080
v -0.01183175 0.00497995 0.01469103
v -0.01213690 -0.00327277 0.01589195
v -0.00030515 -0.00250165 0.00120877
v -0.00030515 0.00499834 0.00121901
v 0.00034182 -0.00250164 0.00119894
v 0.00034182 0.00499835 0.00120918
v 0.00089721 -0.00250119 0.00086694
v 0.00089721 0.00499881 0.00087718
v 0.00121218 -0.00250041 0.00030174
v 0.00121218 0.00499958 0.00031197
v 0.00120235 -0.00249953 -0.00034524
v 0.00120235 0.00500046 -0.00033500
v 0.00087036 -0.00249877 -0.00090062
v 0.00087036 0.00500122 -0.00089038
v 0.00030515 -0.00249834 -0.00121559
v 0.00030515 0.00500165 -0.00120536
v 0.00000000 -0.00325107 -0.00000444
v -0.01183175 -0.00452004 0.01467807
v -0.01183175 -0.01202003 0.01466783
v -0.01126654 -0.00452047 0.01499304
v -0.01126654 -0.01202046 0.01498280
v -0.01093455 -0.00452123 0.01554842
v -0.01093455 -0.01202122 0.01553818
v -0.01092472 -0.00452211 0.01619539
v -0.01092472 -0.01202210 0.01618516
v -0.01123970 -0.00452288 0.01676060
v -0.01123970 -0.01202288 0.01675037
v -0.01179508 -0.00452334 0.01709260
v -0.01179508 -0.01202333 0.01708236
v -0.01244205 -0.00452335 0.01710243
v -0.01244205 -0.01202334 0.01709219
v -0.01213690 -0.00377062 0.01589127
v 0.00030515 -0.00449834 -0.00121832
v 0.00030515 -0.01199833 -0.00122856
v 0.00087036 -0.00449877 -0.00090335
v 0.00087036 -0.01199876 -0.00091358
v 0.00120235 -0.00449953 -0.00034797
v 0.00120235 -0.01199952 -0.00035820
v 0.00121218 -0.00450041 0.00029901
v 0.00121218 -0.01200041 0.00028877
v 0.00089721 -0.00450118 0.00086421
v 0.00089721 -0.01200118 0.00085398
v 0.00034182 -0.00450164 0.00119621
v 0.00034182 -0.01200163 0.00118597
v -0.00030515 -0.00450165 0.00120604
v -0.00030515 -0.01200164 0.00119580
v 0.00000000 -0.00374892 -0.00000512
v 0.00847715 0.01204395 -0.04958950
v 0.01043011 0.01205454 -0.05734745
v 0.00927719 0.01182262 -0.04938840
v 0.01123015 0.01183321 -0.05714636
v 0.00986286 0.01121848 -0.04924179
v 0.01181582 0.01122907 -0.05699975
v 0.01007723 0.01039340 -0.04918895
v 0.01203019 0.01040399 -0.05694691
v 0.00986286 0.00956848 -0.04924405
v 0.01181582 0.00957907 -0.05700200
v 0.00927719 0.00896474 -0.04939230
v 0.01123015 0.00897533 -0.05715026
v 0.00847715 0.00874395 -0.04959400
v 0.01043011 0.00875454 -0.05735196
v 0.00823513 0.01039264 -0.04863033
v -0.00097648 -0.00700529 0.00386942
v -0.00097648 -0.00600529 0.00387079
v -0.00256280 -0.00600419 0.00306297
v -0.00256280 -0.00700419 0.00306160
v -0.00364153 -0.00600225 0.00164687
v -0.00364153 -0.00700225 0.00164551
v -0.00399901 -0.00599987 -0.00009703
v -0.00399901 -0.00699987 -0.00009839
v -0.00356444 -0.00599752 -0.00182334
v -0.00356444 -0.00699752 -0.00182470
v -0.00242389 -0.00599565 -0.00319013
v -0.00242389 -0.00699565 -0.00319150
v -0.00080325 -0.00599465 -0.00392671
v -0.00080325 -0.00699464 -0.00392807
v 0.00097648 -0.00599470 -0.00388717
v 0.00097648 -0.00699470 -0.00388853
v -0.00073236 -0.00700396 0.00289968
v -0.00208886 -0.00700293 0.00214374
v -0.00288565 -0.00700111 0.00081082
v -0.00290924 -0.00699899 -0.00074191
v -0.00215329 -0.00699714 -0.00209841
v -0.00082038 -0.00699605 -0.00289520
v 0.00073236 -0.00699602 -0.00291879
v -0.01311338 -0.00702699 0.01976581
v -0.01311338 -0.00602699 0.01976717
v -0.01469970 -0.00602588 0.01895936
v -0.01469970 -0.00702588 0.01895799
v -0.01577843 -0.00602395 0.01754326
v -0.01577843 -0.00702395 0.01754189
v -0.01613591 -0.00602157 0.01579936
v -0.01613591 -0.00702157 0.01579799
v -0.01570134 -0.00601922 0.01407305
v -0.01570134 -0.00701921 0.01407168
v -0.01456079 -0.00601735 0.01270625
v -0.01456079 -0.00701735 0.01270489
v -0.01294015 -0.00601634 0.01196968
v -0.01294015 -0.00701634 0.01196832
v -0.01116042 -0.00601640 0.01200922
v -0.01116042 -0.00701640 0.01200786
v -0.01286926 -0.00702566 0.01879607
v -0.01422576 -0.00702463 0.01804012
v -0.01502255 -0.00702281 0.01670721
v -0.01504614 -0.00702069 0.01515447
v -0.01429019 -0.00701884 0.01379798
v -0.01295728 -0.00701775 0.01300119
v -0.01140454 -0.00701772 0.01297760
v 0.00097648 0.00000529 -0.00387898
v 0.00097648 -0.00099470 -0.00388034
v -0.00080325 -0.00099465 -0.00391988
v -0.00080325 0.00000535 -0.00391852
v -0.00242389 -0.00099566 -0.00318331
v -0.00242389 0.00000434 -0.00318194
v -0.00356444 -0.00099752 -0.00181651
v -0.00356444 0.00000248 -0.00181515
v -0.00399901 -0.00099988 -0.00009020
v -0.00399901 0.00000012 -0.00008884
v -0.00364153 -0.00100226 0.00165370
v -0.00364153 -0.00000226 0.00165506
v -0.00256280 -0.00100419 0.00306979
v -0.00256280 -0.00000419 0.00307116
v -0.00097648 -0.00100529 0.00387761
v -0.00097648 -0.00000529 0.00387898
v 0.00073236 0.00000397 -0.00290923
v -0.00082038 0.00000394 -0.00288565
v -0.00215329 0.00000285 -0.00208886
v -0.00290924 0.00000100 -0.00073236
v -0.00288565 -0.00000112 0.00082038
v -0.00208886 -0.00000294 0.00215329
v -0.00073236 -0.00000397 0.00290923
v -0.01116042 -0.00001640 0.01201741
v -0.01116042 -0.00101640 0.01201605
v -0.01294015 -0.00101635 0.01197651
v -0.01294015 -0.00001635 0.01197787
v -0.01456079 -0.00101735 0.01271308
v -0.01456079 -0.00001735 0.01271444
v -0.01570134 -0.00101922 0.01407987
v -0.01570134 -0.00001922 0.01408124
v -0.01613591 -0.00102158 0.01580618
v -0.01613591 -0.00002158 0.01580755
v -0.01577843 -0.00102396 0.01755008
v -0.01577843 -0.00002396 0.01755145
v -0.01469970 -0.00102589 0.01896618
v -0.01469970 -0.00002589 0.01896755
v -0.01311338 -0.00102699 0.01977400
v -0.01311338 -0.00002699 0.01977536
v -0.01140454 -0.00001773 0.01298716
v -0.01295728 -0.00001776 0.01301074
v -0.01429019 -0.00001885 0.01380753
v -0.01504614 -0.00002070 0.01516403
v -0.01502255 -0.00002282 0.01671677
v -0.01422576 -0.00002464 0.01804968
v -0.01286926 -0.00002567 0.01880562
v -0.00972264 -0.00103097 0.02268996
v -0.00972264 -0.00603097 0.02268314
v -0.00712957 -0.00603138 0.02298453
v -0.00712957 -0.00103138 0.02299136
v -0.00454685 -0.00603086 0.02260453
v -0.00454685 -0.00103087 0.02261135
v -0.00215049 -0.00602945 0.02156901
v -0.00215049 -0.00102945 0.02157583
v -0.00010380 -0.00602723 0.01994855
v -0.00010380 -0.00102724 0.01995538
v 0.00145375 -0.00602438 0.01785359
v 0.00145375 -0.00102438 0.01786042
v 0.00241601 -0.00602106 0.01542689
v 0.00241601 -0.00102107 0.01543372
v 0.01915781 0.00579862 -0.05515892
v 0.00170240 0.00580462 -0.05955306
v 0.02012756 0.00684975 -0.05491336
v 0.02012756 0.01395267 -0.05490367
v 0.01915781 0.01500446 -0.05514635
v 0.00883003 0.01040509 -0.05775250
v 0.00904440 0.00958002 -0.05769967
v 0.00963007 0.00897588 -0.05755306
v 0.00170240 0.01501046 -0.05954050
v 0.00963007 0.01183376 -0.05754915
v 0.00904440 0.01123002 -0.05769741
v 0.00073265 0.01395933 -0.05978605
v 0.00073265 0.00685641 -0.05979574
v -0.01026554 -0.00098359 -0.01202056
v -0.00153784 -0.00098659 -0.00982349
v 0.00938694 0.00194660 -0.01635012
v 0.01060081 -0.00097669 -0.01707974
v 0.01060081 0.00122105 -0.01707674
v 0.01052958 -0.00597707 -0.01680360
v -0.01044530 -0.00097898 -0.01540284
v -0.00886533 -0.00597040 -0.02168598
v -0.01697890 -0.00101440 0.01055133
v -0.01697890 -0.00601440 0.01054451
v 0.00080325 -0.00600534 0.00391032
v 0.00242389 -0.00600434 0.00317375
v 0.00356444 -0.00600247 0.00180696
v 0.00399901 -0.00600012 0.00008065
v -0.00857246 -0.00602417 0.01770335
v -0.00971302 -0.00602604 0.01907014
v -0.01133365 -0.00602704 0.01980671
v -0.01214934 -0.00602965 0.02172088
v -0.01424430 -0.00602753 0.02016333
v -0.01586476 -0.00602473 0.01811664
v -0.00710559 -0.00596645 -0.02458002
v -0.00813789 -0.00602181 0.01597704
v 0.00364153 -0.00599774 -0.00166325
v 0.00256280 -0.00599580 -0.00307935
v 0.01034982 -0.00597245 -0.02018588
v -0.01728029 -0.00601794 0.01313757
v -0.01690028 -0.00602146 0.01572029
v -0.00957410 -0.00601750 0.01281704
v -0.00849537 -0.00601943 0.01423313
v 0.00242389 -0.00100434 0.00318058
v 0.00080325 -0.00100535 0.00391715
v 0.00256280 -0.00099581 -0.00307253
v 0.00364153 -0.00099774 -0.00165643
v 0.00399901 -0.00100012 0.00008748
v 0.00356444 -0.00100248 0.00181378
v -0.00957410 -0.00101751 0.01282386
v -0.00849537 -0.00101944 0.01423996
v -0.00971302 -0.00102604 0.01907696
v -0.00857246 -0.00102418 0.01771017
v -0.00813789 -0.00102182 0.01598386
v -0.01728029 -0.00101794 0.01314440
v -0.01690028 -0.00102147 0.01572711
v -0.01586476 -0.00102474 0.01812347
v -0.01424430 -0.00102753 0.02017016
v -0.01214934 -0.00102966 0.02172771
v -0.01133365 -0.00102705 0.01981354
v -0.01131652 -0.00002564 0.01878204
v -0.01131652 0.00467436 0.01878845
v -0.00998361 -0.00002455 0.01798525
v -0.00998361 0.00467545 0.01799166
v -0.00922767 -0.00002270 0.01662874
v -0.00922767 0.00467730 0.01663516
v -0.00925125 -0.00002058 0.01507601
v -0.00925125 0.00467942 0.01508243
v -0.01004804 -0.00001876 0.01374310
v -0.01004804 0.00468124 0.01374951
v -0.01334908 0.00497871 0.01559806
v -0.01333926 0.00497783 0.01624504
v -0.01300726 0.00497707 0.01680042
v -0.01139856 0.00497475 0.01850030
v -0.01019894 0.00497573 0.01778318
v -0.00951859 0.00497740 0.01656233
v -0.00953981 0.00497930 0.01516487
v -0.01025693 0.00498094 0.01396525
v -0.01247873 0.00497994 0.01470086
v -0.01303411 0.00497949 0.01503286
v -0.01133365 -0.00002705 0.01981490
v -0.00971302 -0.00002604 0.01907833
v -0.00857246 -0.00002418 0.01771154
v -0.00813789 -0.00002182 0.01598523
v -0.00849537 -0.00001944 0.01424132
v -0.00957410 -0.00001751 0.01282523
v 0.00082038 -0.00000394 0.00288565
v 0.00082038 0.00469606 0.00289206
v 0.00215329 -0.00000285 0.00208886
v 0.00215329 0.00469714 0.00209527
v 0.00290924 -0.00000100 0.00073236
v 0.00290924 0.00469900 0.00073877
v 0.00288565 0.00000112 -0.00082038
v 0.00288565 0.00470112 -0.00081396
v 0.00208886 0.00000294 -0.00215329
v 0.00208886 0.00470294 -0.00214687
v -0.00089721 0.00500118 -0.00086353
v -0.00121218 0.00500041 -0.00029832
v -0.00120235 0.00499953 0.00034865
v -0.00087036 0.00499877 0.00090403
v 0.00073834 0.00499645 0.00260391
v 0.00193796 0.00499743 0.00188679
v 0.00261831 0.00499910 0.00066595
v 0.00259709 0.00500100 -0.00073151
v 0.00187997 0.00500264 -0.00193114
v -0.00034182 0.00500164 -0.00119553
v 0.00080325 -0.00000535 0.00391851
v 0.00242389 -0.00000434 0.00318194
v 0.00356444 -0.00000248 0.00181515
v 0.00399901 -0.00000012 0.00008884
v 0.00364153 0.00000226 -0.00165506
v 0.00256280 0.00000419 -0.00307116
v -0.01004804 -0.00701875 0.01373354
v -0.01004804 -0.01171875 0.01372713
v -0.00925125 -0.00702057 0.01506646
v -0.00925125 -0.01172057 0.01506004
v -0.00922767 -0.00702269 0.01661919
v -0.00922767 -0.01172269 0.01661277
v -0.00998361 -0.00702454 0.01797569
v -0.00998361 -0.01172454 0.01796928
v -0.01131652 -0.00702563 0.01877248
v -0.01131652 -0.01172563 0.01876607
v -0.01334908 -0.01202127 0.01557486
v -0.01303411 -0.01202050 0.01500965
v -0.01247873 -0.01202005 0.01467765
v -0.01025693 -0.01201904 0.01394205
v -0.00953981 -0.01202068 0.01514167
v -0.00951859 -0.01202259 0.01653913
v -0.01019894 -0.01202425 0.01775998
v -0.01139856 -0.01202523 0.01847709
v -0.01300726 -0.01202291 0.01677721
v -0.01333926 -0.01202215 0.01622183
v -0.00957410 -0.00701750 0.01281567
v -0.00849537 -0.00701943 0.01423177
v -0.00813789 -0.00702181 0.01597567
v -0.00857246 -0.00702417 0.01770198
v -0.00971302 -0.00702603 0.01906877
v -0.01133365 -0.00702704 0.01980535
v 0.00208886 -0.00699705 -0.00216284
v 0.00208886 -0.01169705 -0.00216926
v 0.00288565 -0.00699887 -0.00082993
v 0.00288565 -0.01169887 -0.00083635
v 0.00290924 -0.00700099 0.00072280
v 0.00290924 -0.01170099 0.00071639
v 0.00215329 -0.00700284 0.00207930
v 0.00215329 -0.01170284 0.00207289
v 0.00082038 -0.00700393 0.00287609
v 0.00082038 -0.01170393 0.00286968
v 0.00259709 -0.01199898 -0.00075472
v 0.00261831 -0.01200089 0.00064274
v 0.00193796 -0.01200255 0.00186359
v 0.00073834 -0.01200353 0.00258070
v -0.00087036 -0.01200121 0.00088082
v -0.00120235 -0.01200046 0.00032544
v -0.00121218 -0.01199957 -0.00032153
v -0.00089721 -0.01199880 -0.00088674
v -0.00034182 -0.01199835 -0.00121873
v 0.00187997 -0.01199734 -0.00195434
v 0.00256280 -0.00699580 -0.00308072
v 0.00364153 -0.00699773 -0.00166462
v 0.00399901 -0.00700011 0.00007929
v 0.00356444 -0.00700247 0.00180559
v 0.00242389 -0.00700434 0.00317239
v 0.00080325 -0.00700534 0.00390896
v 0.00709144 0.00956943 -0.04994171
v 0.00687707 0.01039450 -0.04999455
v 0.00767711 0.00896529 -0.04979510
v 0.00767711 0.01182317 -0.04979120
v 0.00709144 0.01121943 -0.04993946
v -0.00120235 -0.00450046 0.00033568
v -0.00121218 -0.00449958 -0.00031129
v -0.00087036 -0.00450122 0.00089106
v -0.00034182 -0.00449835 -0.00120850
v -0.00089721 -0.00449881 -0.00087650
v -0.01333926 -0.00452216 0.01623207
v -0.01334908 -0.00452128 0.01558510
v -0.01300726 -0.00452292 0.01678745
v -0.01247873 -0.00452005 0.01468789
v -0.01303411 -0.00452051 0.01501989
v -0.00089721 -0.00249881 -0.00087377
v -0.00121218 -0.00249958 -0.00030856
v -0.00034182 -0.00249836 -0.00120577
v -0.00087036 -0.00250122 0.00089379
v -0.00120235 -0.00250046 0.00033841
v -0.01303411 -0.00252051 0.01502262
v -0.01334908 -0.00252128 0.01558783
v -0.01247873 -0.00252005 0.01469062
v -0.01300726 -0.00252292 0.01679018
v -0.01333926 -0.00252216 0.01623480
f 1 2 3
f 1 3 4
f 4 3 5
f 4 5 6
f 6 5 7
f 6 7 8
f 8 7 9
f 8 9 10
f 10 9 11
f 10 11 12
f 12 11 13
f 12 13 14
f 15 16 17
f 15 17 18
f 18 17 19
f 18 19 20
f 20 19 21
f 20 21 22
f 22 21 23
f 22 23 24
f 24 23 25
f 24 25 26
f 26 25 27
f 26 27 28
f 29 30 31
f 29 31 32
f 32 31 33
f 32 33 34
f 34 33 35
f 34 35 36
f 36 35 37
f 36 37 38
f 38 37 39
f 38 39 40
f 40 39 41
f 40 41 42
f 43 44 45
f 43 45 46
f 46 45 47
f 46 47 48
f 48 47 49
f 48 49 50
f 50 49 51
f 50 51 52
f 52 51 53
f 52 53 54
f 54 53 55
f 54 55 56
f 57 58 59
f 59 58 60
f 59 60 61
f 61 60 62
f 61 62 63
f 63 62 64
f 63 64 65
f 65 64 66
f 65 66 67
f 67 66 68
f 67 68 69
f 69 68 70
f 71 61 63
f 59 61 71
f 57 59 71
f 71 67 69
f 65 67 71
f 63 65 71
f 72 73 74
f 74 73 75
f 74 75 76
f 76 75 77
f 76 77 78
f 78 77 79
f 78 79 80
f 80 79 81
f 80 81 82
f 82 81 83
f 82 83 84
f 84 83 85
f 86 76 78
f 74 76 86
f 72 74 86
f 86 82 84
f 80 82 86
f 78 80 86
f 87 88 89
f 89 88 90
f 89 90 91
f 91 90 92
f 91 92 93
f 93 92 94
f 93 94 95
f 95 94 96
f 95 96 97
f 97 96 98
f 97 98 99
f 99 98 100
f 101 91 93
f 89 91 101
f 87 89 101
f 101 97 99
f 95 97 101
f 93 95 101
f 102 103 104
f 104 103 105
f 104 105 106
f 106 105 107
f 106 107 108
f 108 107 109
f 108 109 110
f 110 109 111
f 110 111 112
f 112 111 113
f 112 113 114
f 114 113 115
f 116 106 108
f 104 106 116
f 102 104 116
f 116 112 114
f 110 112 116
f 108 110 116
f 117 118 119
f 119 118 120
f 119 120 121
f 121 120 122
f 121 122 123
f 123 122 124
f 123 124 125
f 125 124 126
f 125 126 127
f 127 126 128
f 127 128 129
f 129 128 130
f 131 121 123
f 119 121 131
f 117 119 131
f 131 127 129
f 125 127 131
f 123 125 131
f 132 133 134
f 132 134 135
f 135 134 136
f 135 136 137
f 137 136 138
f 137 138 139
f 139 138 140
f 139 140 141
f 141 140 142
f 141 142 143
f 143 142 144
f 143 144 145
f 145 144 146
f 145 146 147
f 30 148 149
f 30 149 31
f 31 149 150
f 31 150 33
f 33 150 151
f 33 151 35
f 35 151 152
f 35 152 37
f 37 152 153
f 37 153 39
f 39 153 154
f 39 154 41
f 155 156 157
f 155 157 158
f 158 157 159
f 158 159 160
f 160 159 161
f 160 161 162
f 162 161 163
f 162 163 164
f 164 163 165
f 164 165 166
f 166 165 167
f 166 167 168
f 168 167 169
f 168 169 170
f 44 171 172
f 44 172 45
f 45 172 173
f 45 173 47
f 47 173 174
f 47 174 49
f 49 174 175
f 49 175 51
f 51 175 176
f 51 176 53
f 53 176 177
f 53 177 55
f 178 179 180
f 178 180 181
f 181 180 182
f 181 182 183
f 183 182 184
f 183 184 185
f 185 184 186
f 185 186 187
f 187 186 188
f 187 188 189
f 189 188 190
f 189 190 191
f 191 190 192
f 191 192 193
f 16 194 195
f 16 195 17
f 17 195 196
f 17 196 19
f 19 196 197
f 19 197 21
f 21 197 198
f 21 198 23
f 23 198 199
f 23 199 25
f 25 199 200
f 25 200 27
f 201 202 203
f 201 203 204
f 204 203 205
f 204 205 206
f 206 205 207
f 206 207 208
f 208 207 209
f 208 209 210
f 210 209 211
f 210 211 212
f 212 211 213
f 212 213 214
f 214 213 215
f 214 215 216
f 2 217 218
f 2 218 3
f 3 218 219
f 3 219 5
f 5 219 220
f 5 220 7
f 7 220 221
f 7 221 9
f 9 221 222
f 9 222 11
f 11 222 223
f 11 223 13
f 224 225 226
f 224 226 227
f 227 226 228
f 227 228 229
f 229 228 230
f 229 230 231
f 231 230 232
f 231 232 233
f 233 232 234
f 233 234 235
f 235 234 236
f 235 236 237
f 130 238 239
f 130 128 238
f 238 128 126
f 238 126 240
f 240 126 124
f 240 124 241
f 241 124 122
f 241 122 242
f 243 244 239
f 239 244 245
f 239 245 130
f 122 120 242
f 242 120 118
f 242 118 246
f 118 247 246
f 246 247 248
f 246 248 249
f 249 248 243
f 249 243 250
f 250 243 239
f 251 252 246
f 246 252 253
f 246 253 242
f 254 237 236
f 241 255 240
f 240 255 254
f 240 254 256
f 256 254 236
f 249 250 257
f 257 250 258
f 257 258 259
f 259 258 260
f 261 262 236
f 262 263 236
f 236 263 264
f 236 264 256
f 265 228 266
f 266 228 226
f 266 226 267
f 267 226 225
f 267 225 156
f 156 225 268
f 156 268 157
f 157 268 269
f 157 269 270
f 142 140 271
f 265 272 228
f 228 272 133
f 228 133 230
f 230 133 232
f 264 273 256
f 256 273 274
f 256 274 275
f 275 274 146
f 275 146 271
f 271 146 144
f 271 144 142
f 140 138 271
f 271 138 169
f 271 169 258
f 258 169 167
f 258 167 260
f 260 167 165
f 260 165 276
f 276 165 163
f 276 163 277
f 277 163 161
f 277 161 270
f 270 161 159
f 270 159 157
f 261 236 133
f 133 236 234
f 133 234 232
f 138 136 169
f 169 136 134
f 169 134 278
f 278 134 133
f 278 133 279
f 279 133 272
f 251 257 259
f 280 281 237
f 282 283 254
f 254 283 284
f 254 284 237
f 237 284 285
f 237 285 280
f 190 188 202
f 202 188 186
f 190 202 192
f 192 202 286
f 192 286 287
f 288 229 289
f 289 229 231
f 289 231 290
f 290 231 233
f 233 235 290
f 290 235 237
f 290 237 287
f 287 237 281
f 287 281 192
f 186 184 202
f 202 184 252
f 202 252 203
f 203 252 251
f 203 251 205
f 205 251 259
f 205 259 207
f 207 259 291
f 207 291 209
f 209 291 292
f 209 292 211
f 211 292 293
f 211 293 213
f 213 293 294
f 213 294 215
f 215 294 295
f 215 295 296
f 296 295 224
f 296 224 288
f 288 224 227
f 288 227 229
f 184 182 252
f 252 182 180
f 252 180 254
f 254 180 179
f 254 179 282
f 259 260 276
f 259 276 291
f 291 276 277
f 291 277 292
f 292 277 270
f 292 270 293
f 293 270 269
f 293 269 294
f 294 269 268
f 294 268 295
f 295 268 225
f 295 225 224
f 239 238 271
f 271 238 275
f 253 252 255
f 255 252 254
f 13 223 297
f 13 297 298
f 298 297 299
f 298 299 300
f 300 299 301
f 300 301 302
f 302 301 303
f 302 303 304
f 304 303 305
f 304 305 306
f 306 305 217
f 306 217 2
f 307 8 308
f 308 8 10
f 308 10 309
f 309 10 12
f 309 12 58
f 58 12 14
f 58 14 60
f 60 14 310
f 60 310 62
f 62 310 311
f 62 311 64
f 64 311 312
f 64 312 66
f 66 312 313
f 66 313 68
f 68 313 314
f 68 314 70
f 70 314 1
f 70 1 315
f 315 1 4
f 315 4 316
f 316 4 6
f 316 6 307
f 307 6 8
f 216 215 296
f 216 296 317
f 317 296 288
f 317 288 318
f 318 288 289
f 318 289 319
f 319 289 290
f 319 290 320
f 320 290 287
f 320 287 321
f 321 287 286
f 321 286 322
f 322 286 202
f 322 202 201
f 220 210 221
f 221 210 212
f 221 212 222
f 222 212 214
f 222 214 223
f 223 214 216
f 223 216 297
f 297 216 317
f 297 317 299
f 299 317 318
f 299 318 301
f 318 319 301
f 301 319 320
f 301 320 303
f 303 320 321
f 303 321 305
f 305 321 322
f 305 322 217
f 217 322 201
f 217 201 218
f 218 201 204
f 218 204 219
f 219 204 206
f 219 206 220
f 220 206 208
f 220 208 210
f 27 200 323
f 27 323 324
f 324 323 325
f 324 325 326
f 326 325 327
f 326 327 328
f 328 327 329
f 328 329 330
f 330 329 331
f 330 331 332
f 332 331 194
f 332 194 16
f 333 20 334
f 334 20 22
f 334 22 335
f 335 22 24
f 335 24 336
f 336 24 26
f 336 26 73
f 73 26 28
f 73 28 75
f 75 28 337
f 75 337 77
f 77 337 338
f 77 338 79
f 79 338 339
f 79 339 81
f 81 339 340
f 81 340 83
f 83 340 341
f 83 341 85
f 85 341 15
f 85 15 342
f 342 15 18
f 342 18 333
f 333 18 20
f 193 192 281
f 193 281 343
f 343 281 280
f 343 280 344
f 344 280 285
f 344 285 345
f 345 285 284
f 345 284 346
f 346 284 283
f 346 283 347
f 347 283 282
f 347 282 348
f 348 282 179
f 348 179 178
f 327 346 329
f 329 346 347
f 329 347 331
f 331 347 348
f 331 348 194
f 194 348 178
f 194 178 195
f 195 178 181
f 195 181 196
f 196 181 183
f 196 183 197
f 183 185 197
f 197 185 187
f 197 187 198
f 198 187 189
f 198 189 199
f 199 189 191
f 199 191 200
f 200 191 193
f 200 193 323
f 323 193 343
f 323 343 325
f 325 343 344
f 325 344 327
f 327 344 345
f 327 345 346
f 55 177 349
f 55 349 350
f 350 349 351
f 350 351 352
f 352 351 353
f 352 353 354
f 354 353 355
f 354 355 356
f 356 355 357
f 356 357 358
f 358 357 171
f 358 171 44
f 359 50 360
f 360 50 52
f 360 52 361
f 361 52 54
f 361 54 88
f 88 54 56
f 88 56 90
f 90 56 362
f 90 362 92
f 92 362 363
f 92 363 94
f 94 363 364
f 94 364 96
f 96 364 365
f 96 365 98
f 98 365 366
f 98 366 100
f 100 366 43
f 100 43 367
f 367 43 46
f 367 46 368
f 368 46 48
f 368 48 359
f 359 48 50
f 170 169 278
f 170 278 369
f 369 278 279
f 369 279 370
f 370 279 272
f 370 272 371
f 371 272 265
f 371 265 372
f 372 265 266
f 372 266 373
f 373 266 267
f 373 267 374
f 374 267 156
f 374 156 155
f 174 164 175
f 175 164 166
f 175 166 176
f 176 166 168
f 176 168 177
f 177 168 170
f 177 170 349
f 349 170 369
f 349 369 351
f 351 369 370
f 351 370 353
f 370 371 353
f 353 371 372
f 353 372 355
f 355 372 373
f 355 373 357
f 357 373 374
f 357 374 171
f 171 374 155
f 171 155 172
f 172 155 158
f 172 158 173
f 173 158 160
f 173 160 174
f 174 160 162
f 174 162 164
f 41 154 375
f 41 375 376
f 376 375 377
f 376 377 378
f 378 377 379
f 378 379 380
f 380 379 381
f 380 381 382
f 382 381 383
f 382 383 384
f 384 383 148
f 384 148 30
f 107 385 109
f 109 385 386
f 109 386 111
f 111 386 387
f 111 387 113
f 113 387 388
f 113 388 115
f 115 388 29
f 115 29 389
f 389 29 32
f 389 32 390
f 390 32 34
f 390 34 391
f 391 34 36
f 391 36 392
f 392 36 38
f 392 38 393
f 393 38 40
f 393 40 103
f 103 40 42
f 103 42 105
f 105 42 394
f 105 394 107
f 107 394 385
f 147 146 274
f 147 274 395
f 395 274 273
f 395 273 396
f 396 273 264
f 396 264 397
f 397 264 263
f 397 263 398
f 398 263 262
f 398 262 399
f 399 262 261
f 399 261 400
f 400 261 133
f 400 133 132
f 379 398 381
f 381 398 399
f 381 399 383
f 383 399 400
f 383 400 148
f 148 400 132
f 148 132 149
f 149 132 135
f 149 135 150
f 150 135 137
f 150 137 151
f 137 139 151
f 151 139 141
f 151 141 152
f 152 141 143
f 152 143 153
f 153 143 145
f 153 145 154
f 154 145 147
f 154 147 375
f 375 147 395
f 375 395 377
f 377 395 396
f 377 396 379
f 379 396 397
f 379 397 398
f 131 401 402
f 403 401 131
f 129 403 131
f 131 404 117
f 405 404 131
f 402 405 131
f 129 130 403
f 403 130 245
f 403 245 401
f 401 245 244
f 401 244 402
f 402 244 243
f 402 243 405
f 405 243 248
f 405 248 404
f 404 248 247
f 404 247 117
f 117 247 118
f 116 406 407
f 408 406 116
f 114 408 116
f 116 409 102
f 410 409 116
f 407 410 116
f 114 115 408
f 408 115 389
f 408 389 406
f 406 389 390
f 406 390 407
f 407 390 391
f 407 391 410
f 410 391 392
f 410 392 409
f 409 392 393
f 409 393 102
f 102 393 103
f 101 411 412
f 413 411 101
f 99 413 101
f 101 414 87
f 415 414 101
f 412 415 101
f 99 100 413
f 413 100 367
f 413 367 411
f 411 367 368
f 411 368 412
f 412 368 359
f 412 359 415
f 415 359 360
f 415 360 414
f 414 360 361
f 414 361 87
f 87 361 88
f 86 416 417
f 418 416 86
f 84 418 86
f 86 419 72
f 420 419 86
f 417 420 86
f 84 85 418
f 418 85 342
f 418 342 416
f 416 342 333
f 416 333 417
f 417 333 334
f 417 334 420
f 420 334 335
f 420 335 419
f 419 335 336
f 419 336 72
f 72 336 73
f 71 421 422
f 423 421 71
f 69 423 71
f 71 424 57
f 425 424 71
f 422 425 71
f 69 70 423
f 423 70 315
f 423 315 421
f 421 315 316
f 421 316 422
f 422 316 307
f 422 307 425
f 425 307 308
f 425 308 424
f 424 308 309
f 424 309 57
f 57 309 58
f 246 249 251
f 251 249 257
f 250 239 258
f 258 239 271
f 241 242 255
f 255 242 253
f 238 240 275
f 275 240 256
f 56 55 350
f 56 350 362
f 362 350 352
f 362 352 363
f 363 352 354
f 363 354 364
f 364 354 356
f 364 356 365
f 365 356 358
f 365 358 366
f 366 358 44
f 366 44 43
f 42 41 376
f 42 376 394
f 394 376 378
f 394 378 385
f 385 378 380
f 385 380 386
f 386 380 382
f 386 382 387
f 387 382 384
f 387 384 388
f 388 384 30
f 388 30 29
f 28 27 324
f 28 324 337
f 337 324 326
f 337 326 338
f 338 326 328
f 338 328 339
f 339 328 330
f 339 330 340
f 340 330 332
f 340 332 341
f 341 332 16
f 341 16 15
f 14 13 298
f 14 298 310
f 310 298 300
f 310 300 311
f 311 300 302
f 311 302 312
f 312 302 304
f 312 304 313
f 313 304 306
f 313 306 314
f 314 306 2
f 314 2 1

