# https://github.com/mikedh/trimesh
v 0.00097571 0.01289469 0.00389678
v 0.00097571 0.00689470 0.00388859
v -0.00080403 0.01289464 0.00393596
v -0.00080403 0.00689465 0.00392777
v -0.00242452 0.01289565 0.00319907
v -0.00242452 0.00689565 0.00319088
v -0.00356480 0.01289751 0.00183205
v -0.00356480 0.00689752 0.00182386
v -0.00399903 0.01289987 0.00010566
v -0.00399903 0.00689987 0.00009747
v -0.00364121 0.01290225 -0.00163818
v -0.00364121 0.00690225 -0.00164637
v -0.00256219 0.01290418 -0.00305406
v -0.00256219 0.00690419 -0.00306225
v -0.00097571 0.01290528 -0.00386156
v -0.00097571 0.00690529 -0.00386975
v -0.01853847 0.01300059 -0.07368663
v -0.01853847 0.00700060 -0.07369482
v -0.02031820 0.01300054 -0.07364745
v -0.02031820 0.00700054 -0.07365564
v -0.02193869 0.01300155 -0.07438434
v -0.02193869 0.00700155 -0.07439253
v -0.02307898 0.01300341 -0.07575136
v -0.02307898 0.00700342 -0.07575955
v -0.02351321 0.01300577 -0.07747775
v -0.02351321 0.00700577 -0.07748594
v -0.02315538 0.01300815 -0.07922158
v -0.02315538 0.00700815 -0.07922977
v -0.02207637 0.01301008 -0.08063747
v -0.02207637 0.00701009 -0.08064566
v -0.02048989 0.01301118 -0.08144497
v -0.02048989 0.00701119 -0.08145316
v -0.02097774 0.01301383 -0.08338456
v -0.02097774 0.00701384 -0.08339275
v -0.02270421 0.00701283 -0.08265569
v -0.02270421 0.01301282 -0.08264750
v -0.02411841 0.00701114 -0.08142120
v -0.02411841 0.01301114 -0.08141302
v -0.02508192 0.00700895 -0.07981013
v -0.02508192 0.01300894 -0.07980194
v -0.02550041 0.00700645 -0.07798015
v -0.02550041 0.01300644 -0.07797197
v -0.02533294 0.00700390 -0.07611043
v -0.02533294 0.01300389 -0.07610224
v -0.01489078 0.01298919 -0.06533372
v -0.01489078 0.00698920 -0.06534190
v -0.01533952 0.01299369 -0.06863119
v -0.01533952 0.00699370 -0.06863938
v -0.01505016 0.01299822 -0.07194645
v -0.01505016 0.00699822 -0.07195464
v -0.01403695 0.01300254 -0.07511632
v -0.01403695 0.00700255 -0.07512451
v -0.01352097 0.00700550 -0.07728864
v -0.01352097 0.01300550 -0.07728045
v -0.01382900 0.00700851 -0.07949201
v -0.01382900 0.01300851 -0.07948382
v -0.01491871 0.00701116 -0.08143166
v -0.01491871 0.01301115 -0.08142348
v -0.01664025 0.00701308 -0.08284092
v -0.01664025 0.01301308 -0.08283272
v -0.01875694 0.00701402 -0.08352602
v -0.01875694 0.01301401 -0.08351782
v -0.00581876 0.01289799 0.00148117
v -0.00581876 0.00689800 0.00147298
v -0.00485781 0.00689519 0.00353102
v -0.00485781 0.01289518 0.00353921
v -0.00320071 0.00689307 0.00508440
v -0.00320071 0.01289306 0.00509259
v -0.00108493 0.00689194 0.00591051
v -0.00108493 0.01289193 0.00591870
v 0.00118633 0.00689197 0.00589096
v 0.00118633 0.01289196 0.00589915
v 0.00328757 0.00689314 0.00502856
v 0.00328757 0.01289314 0.00503675
v 0.00491770 0.00689530 0.00344689
v 0.00491770 0.01289530 0.00345508
v 0.00584309 0.00689813 0.00137262
v 0.00584309 0.01289813 0.00138081
v 0.00593114 0.00690123 -0.00089701
v 0.00593114 0.01290123 -0.00088882
v 0.00516923 0.00690415 -0.00303674
v 0.00516923 0.01290415 -0.00302855
v 0.00366654 0.00690648 -0.00473994
v 0.00366654 0.01290647 -0.00473176
v 0.00127417 0.01290963 -0.00704504
v 0.00127417 0.00690963 -0.00705323
v -0.00054926 0.01291343 -0.00982888
v -0.00054926 0.00691343 -0.00983707
v -0.00171402 0.01291768 -0.01294626
v -0.00171402 0.00691769 -0.01295445
v 0.00256219 0.01289580 0.00308928
v 0.00364121 0.01289773 0.00167339
v -0.01708966 0.01301023 -0.08074726
v -0.01871015 0.01301124 -0.08148416
v 0.00399903 0.01290011 -0.00007044
v 0.00356480 0.01290246 -0.00179683
v 0.00242452 0.01290433 -0.00316386
v 0.00080403 0.01290534 -0.00390075
v -0.01695198 0.01300170 -0.07449413
v -0.01587297 0.01300363 -0.07591002
v -0.01551515 0.01300601 -0.07765385
v -0.01594938 0.01300836 -0.07938024
v 0.00080403 0.00690534 -0.00390894
v 0.00242452 0.00690434 -0.00317204
v 0.00356480 0.00690247 -0.00180502
v 0.00399903 0.00690011 -0.00007863
v 0.00364121 0.00689773 0.00166520
v 0.00256219 0.00689580 0.00308109
v -0.01871015 0.00701124 -0.08149235
v -0.01708966 0.00701024 -0.08075546
v -0.01594938 0.00700837 -0.07938843
v -0.01551515 0.00700601 -0.07766204
v -0.01587297 0.00700363 -0.07591821
v -0.01695198 0.00700170 -0.07450233
v 0.00097571 -0.00000529 0.00387917
v 0.00097571 -0.00600529 0.00387098
v -0.00080403 -0.00000535 0.00391835
v -0.00080403 -0.00600534 0.00391017
v -0.00242452 -0.00000434 0.00318146
v -0.00242452 -0.00600434 0.00317327
v -0.00356480 -0.00000248 0.00181444
v -0.00356480 -0.00600247 0.00180625
v -0.00399903 -0.00000012 0.00008805
v -0.00399903 -0.00600011 0.00007986
v -0.00364121 0.00000226 -0.00165578
v -0.00364121 -0.00599773 -0.00166397
v -0.00256219 0.00000419 -0.00307167
v -0.00256219 -0.00599580 -0.00307986
v -0.00097571 0.00000529 -0.00387917
v -0.00097571 -0.00599470 -0.00388736
v -0.01853847 0.00010060 -0.07370424
v -0.01853847 -0.00589939 -0.07371243
v -0.02031820 0.00010055 -0.07366505
v -0.02031820 -0.00589944 -0.07367324
v -0.02193869 0.00010156 -0.07440194
v -0.02193869 -0.00589844 -0.07441014
v -0.02307898 0.00010342 -0.07576897
v -0.02307898 -0.00589657 -0.07577716
v -0.02351321 0.00010578 -0.07749536
v -0.02351321 -0.00589421 -0.07750355
v -0.02315538 0.00010816 -0.07923920
v -0.02315538 -0.00589183 -0.07924739
v -0.02207637 0.00011009 -0.08065508
v -0.02207637 -0.00588990 -0.08066327
v -0.02048989 0.00011119 -0.08146258
v -0.02048989 -0.00588880 -0.08147077
v -0.02097774 0.00011384 -0.08340216
v -0.02097774 -0.00588615 -0.08341036
v -0.02270421 -0.00588716 -0.08267330
v -0.02270421 0.00011284 -0.08266511
v -0.02411841 -0.00588884 -0.08143881
v -0.02411841 0.00011115 -0.08143062
v -0.02508192 -0.00589104 -0.07982773
v -0.02508192 0.00010895 -0.07981955
v -0.02550041 -0.00589354 -0.07799777
v -0.02550041 0.00010645 -0.07798958
v -0.02533294 -0.00589609 -0.07612804
v -0.02533294 0.00010390 -0.07611985
v -0.01489078 0.00008920 -0.06535132
v -0.01489078 -0.00591079 -0.06535952
v -0.01533952 0.00009370 -0.06864880
v -0.01533952 -0.00590629 -0.06865699
v -0.01505016 0.00009823 -0.07196406
v -0.01505016 -0.00590177 -0.07197225
v -0.01403695 0.00010256 -0.07513393
v -0.01403695 -0.00589744 -0.07514212
v -0.01352097 -0.00589448 -0.07730626
v -0.01352097 0.00010551 -0.07729807
v -0.01382900 -0.00589148 -0.07950962
v -0.01382900 0.00010852 -0.07950143
v -0.01491871 -0.00588883 -0.08144927
v -0.01491871 0.00011117 -0.08144108
v -0.01664025 -0.00588691 -0.08285853
v -0.01664025 0.00011309 -0.08285034
v -0.01875694 -0.00588597 -0.08354362
v -0.01875694 0.00011402 -0.08353543
v -0.00581876 -0.00000200 0.00146356
v -0.00581876 -0.00600199 0.00145537
v -0.00485781 -0.00600480 0.00351341
v -0.00485781 -0.00000481 0.00352160
v -0.00320071 -0.00600692 0.00506679
v -0.00320071 -0.00000693 0.00507498
v -0.00108493 -0.00600805 0.00589290
v -0.00108493 -0.00000805 0.00590109
v 0.00118633 -0.00600802 0.00587335
v 0.00118633 -0.00000803 0.00588154
v 0.00328757 -0.00600685 0.00501095
v 0.00328757 -0.00000685 0.00501914
v 0.00491770 -0.00600469 0.00342929
v 0.00491770 -0.00000469 0.00343748
v 0.00584309 -0.00600186 0.00135501
v 0.00584309 -0.00000186 0.00136320
v 0.00593114 -0.00599876 -0.00091462
v 0.00593114 0.00000124 -0.00090643
v 0.00516923 -0.00599584 -0.00305435
v 0.00516923 0.00000416 -0.00304616
v 0.00366654 -0.00599351 -0.00475755
v 0.00366654 0.00000648 -0.00474936
v 0.00127417 0.00000964 -0.00706265
v 0.00127417 -0.00599035 -0.00707084
v -0.00054926 0.00001344 -0.00984649
v -0.00054926 -0.00598655 -0.00985468
v -0.00171402 0.00001770 -0.01296387
v -0.00171402 -0.00598230 -0.01297206
v 0.00256219 -0.00000419 0.00307167
v 0.00364121 -0.00000226 0.00165578
v -0.01708966 0.00011024 -0.08076487
v -0.01871015 0.00011125 -0.08150177
v 0.00399903 0.00000012 -0.00008805
v 0.00356480 0.00000248 -0.00181444
v 0.00242452 0.00000434 -0.00318146
v 0.00080403 0.00000535 -0.00391836
v -0.01695198 0.00010171 -0.07451174
v -0.01587297 0.00010364 -0.07592762
v -0.01551515 0.00010602 -0.07767146
v -0.01594938 0.00010838 -0.07939785
v 0.00080403 -0.00599465 -0.00392655
v 0.00242452 -0.00599565 -0.00318965
v 0.00356480 -0.00599752 -0.00182263
v 0.00399903 -0.00599987 -0.00009624
v 0.00364121 -0.00600225 0.00164759
v 0.00256219 -0.00600419 0.00306348
v -0.01871015 -0.00588875 -0.08150996
v -0.01708966 -0.00588975 -0.08077306
v -0.01594938 -0.00589162 -0.07940604
v -0.01551515 -0.00589397 -0.07767965
v -0.01587297 -0.00589636 -0.07593582
v -0.01695198 -0.00589829 -0.07451993
f 1 2 3
f 3 2 4
f 3 4 5
f 5 4 6
f 5 6 7
f 7 6 8
f 7 8 9
f 9 8 10
f 9 10 11
f 11 10 12
f 11 12 13
f 13 12 14
f 13 14 15
f 15 14 16
f 17 18 19
f 19 18 20
f 19 20 21
f 21 20 22
f 21 22 23
f 23 22 24
f 23 24 25
f 25 24 26
f 25 26 27
f 27 26 28
f 27 28 29
f 29 28 30
f 29 30 31
f 31 30 32
f 33 34 35
f 33 35 36
f 36 35 37
f 36 37 38
f 38 37 39
f 38 39 40
f 40 39 41
f 40 41 42
f 42 41 43
f 42 43 44
f 45 46 47
f 47 46 48
f 47 48 49
f 49 48 50
f 49 50 51
f 51 50 52
f 51 52 53
f 51 53 54
f 54 53 55
f 54 55 56
f 56 55 57
f 56 57 58
f 58 57 59
f 58 59 60
f 60 59 61
f 60 61 62
f 62 61 34
f 62 34 33
f 63 44 64
f 64 44 43
f 63 64 65
f 63 65 66
f 66 65 67
f 66 67 68
f 68 67 69
f 68 69 70
f 70 69 71
f 70 71 72
f 72 71 73
f 72 73 74
f 74 73 75
f 74 75 76
f 76 75 77
f 76 77 78
f 78 77 79
f 78 79 80
f 80 79 81
f 80 81 82
f 82 81 83
f 82 83 84
f 84 83 85
f 85 83 86
f 85 86 87
f 87 86 88
f 87 88 89
f 89 88 90
f 45 89 46
f 46 89 90
f 13 15 17
f 9 63 7
f 7 63 66
f 7 66 5
f 5 66 68
f 5 68 3
f 3 68 70
f 3 70 1
f 1 70 72
f 1 72 91
f 91 72 74
f 91 74 92
f 93 60 94
f 94 60 62
f 94 62 31
f 31 62 33
f 31 33 29
f 74 76 92
f 92 76 78
f 92 78 95
f 95 78 80
f 95 80 96
f 96 80 82
f 96 82 97
f 97 82 84
f 97 84 98
f 98 84 85
f 98 85 15
f 15 85 87
f 33 36 29
f 29 36 38
f 29 38 27
f 27 38 40
f 27 40 25
f 25 40 42
f 25 42 23
f 23 42 44
f 23 44 21
f 21 44 63
f 21 63 19
f 19 63 9
f 19 9 17
f 17 9 11
f 17 11 13
f 87 89 15
f 15 89 45
f 15 45 17
f 17 45 47
f 17 47 99
f 99 47 49
f 99 49 100
f 100 49 51
f 100 51 101
f 101 51 54
f 101 54 102
f 102 54 56
f 102 56 93
f 93 56 58
f 93 58 60
f 28 26 41
f 46 16 18
f 46 90 16
f 16 90 88
f 16 88 103
f 103 88 86
f 103 86 104
f 104 86 83
f 104 83 105
f 105 83 81
f 105 81 106
f 106 81 79
f 106 79 107
f 41 26 43
f 24 22 12
f 12 22 20
f 26 24 43
f 43 24 12
f 43 12 64
f 64 12 10
f 64 10 65
f 65 10 8
f 65 8 67
f 67 8 6
f 67 6 69
f 69 6 4
f 69 4 71
f 71 4 2
f 71 2 73
f 73 2 108
f 73 108 75
f 75 108 107
f 75 107 77
f 77 107 79
f 41 39 28
f 28 39 37
f 28 37 30
f 30 37 35
f 30 35 32
f 32 35 34
f 32 34 109
f 109 34 61
f 109 61 110
f 18 16 20
f 20 16 14
f 20 14 12
f 61 59 110
f 110 59 57
f 110 57 111
f 111 57 55
f 111 55 112
f 112 55 53
f 112 53 113
f 113 53 52
f 113 52 114
f 114 52 50
f 114 50 18
f 18 50 48
f 18 48 46
f 31 32 94
f 94 32 109
f 94 109 93
f 93 109 110
f 93 110 102
f 102 110 111
f 102 111 101
f 101 111 112
f 101 112 100
f 100 112 113
f 100 113 99
f 99 113 114
f 99 114 17
f 17 114 18
f 15 16 98
f 98 16 103
f 98 103 97
f 97 103 104
f 97 104 96
f 96 104 105
f 96 105 95
f 95 105 106
f 95 106 92
f 92 106 107
f 92 107 91
f 91 107 108
f 91 108 1
f 1 108 2
f 115 116 117
f 117 116 118
f 117 118 119
f 119 118 120
f 119 120 121
f 121 120 122
f 121 122 123
f 123 122 124
f 123 124 125
f 125 124 126
f 125 126 127
f 127 126 128
f 127 128 129
f 129 128 130
f 131 132 133
f 133 132 134
f 133 134 135
f 135 134 136
f 135 136 137
f 137 136 138
f 137 138 139
f 139 138 140
f 139 140 141
f 141 140 142
f 141 142 143
f 143 142 144
f 143 144 145
f 145 144 146
f 147 148 149
f 147 149 150
f 150 149 151
f 150 151 152
f 152 151 153
f 152 153 154
f 154 153 155
f 154 155 156
f 156 155 157
f 156 157 158
f 159 160 161
f 161 160 162
f 161 162 163
f 163 162 164
f 163 164 165
f 165 164 166
f 165 166 167
f 165 167 168
f 168 167 169
f 168 169 170
f 170 169 171
f 170 171 172
f 172 171 173
f 172 173 174
f 174 173 175
f 174 175 176
f 176 175 148
f 176 148 147
f 177 158 178
f 178 158 157
f 177 178 179
f 177 179 180
f 180 179 181
f 180 181 182
f 182 181 183
f 182 183 184
f 184 183 185
f 184 185 186
f 186 185 187
f 186 187 188
f 188 187 189
f 188 189 190
f 190 189 191
f 190 191 192
f 192 191 193
f 192 193 194
f 194 193 195
f 194 195 196
f 196 195 197
f 196 197 198
f 198 197 199
f 199 197 200
f 199 200 201
f 201 200 202
f 201 202 203
f 203 202 204
f 159 203 160
f 160 203 204
f 127 129 131
f 123 177 121
f 121 177 180
f 121 180 119
f 119 180 182
f 119 182 117
f 117 182 184
f 117 184 115
f 115 184 186
f 115 186 205
f 205 186 188
f 205 188 206
f 207 174 208
f 208 174 176
f 208 176 145
f 145 176 147
f 145 147 143
f 188 190 206
f 206 190 192
f 206 192 209
f 209 192 194
f 209 194 210
f 210 194 196
f 210 196 211
f 211 196 198
f 211 198 212
f 212 198 199
f 212 199 129
f 129 199 201
f 147 150 143
f 143 150 152
f 143 152 141
f 141 152 154
f 141 154 139
f 139 154 156
f 139 156 137
f 137 156 158
f 137 158 135
f 135 158 177
f 135 177 133
f 133 177 123
f 133 123 131
f 131 123 125
f 131 125 127
f 201 203 129
f 129 203 159
f 129 159 131
f 131 159 161
f 131 161 213
f 213 161 163
f 213 163 214
f 214 163 165
f 214 165 215
f 215 165 168
f 215 168 216
f 216 168 170
f 216 170 207
f 207 170 172
f 207 172 174
f 142 140 155
f 160 130 132
f 160 204 130
f 130 204 202
f 130 202 217
f 217 202 200
f 217 200 218
f 218 200 197
f 218 197 219
f 219 197 195
f 219 195 220
f 220 195 193
f 220 193 221
f 155 140 157
f 138 136 126
f 126 136 134
f 140 138 157
f 157 138 126
f 157 126 178
f 178 126 124
f 178 124 179
f 179 124 122
f 179 122 181
f 181 122 120
f 181 120 183
f 183 120 118
f 183 118 185
f 185 118 116
f 185 116 187
f 187 116 222
f 187 222 189
f 189 222 221
f 189 221 191
f 191 221 193
f 155 153 142
f 142 153 151
f 142 151 144
f 144 151 149
f 144 149 146
f 146 149 148
f 146 148 223
f 223 148 175
f 223 175 224
f 132 130 134
f 134 130 128
f 134 128 126
f 175 173 224
f 224 173 171
f 224 171 225
f 225 171 169
f 225 169 226
f 226 169 167
f 226 167 227
f 227 167 166
f 227 166 228
f 228 166 164
f 228 164 132
f 132 164 162
f 132 162 160
f 145 146 208
f 208 146 223
f 208 223 207
f 207 223 224
f 207 224 216
f 216 224 225
f 216 225 215
f 215 225 226
f 215 226 214
f 214 226 227
f 214 227 213
f 213 227 228
f 213 228 131
f 131 228 132
f 129 130 212
f 212 130 217
f 212 217 211
f 211 217 218
f 211 218 210
f 210 218 219
f 210 219 209
f 209 219 220
f 209 220 206
f 206 220 221
f 206 221 205
f 205 221 222
f 205 222 115
f 115 222 116

