# https://github.com/mikedh/trimesh
v -0.00304712 -0.00070564 0.00928868
v -0.00261708 -0.00097343 0.00939499
v -0.00234735 -0.00001292 0.00946321
v -0.00211476 -0.00098386 0.00951957
v -0.00167477 -0.00073412 0.00962905
v -0.00301992 0.00070829 0.00929736
v -0.00327970 0.00026530 0.00923232
v -0.00328965 -0.00025223 0.00922914
v -0.00164757 0.00067980 0.00963773
v -0.00207761 0.00094760 0.00953143
v -0.00257993 0.00095802 0.00940684
v -0.00141499 -0.00029114 0.00969410
v -0.00140504 0.00022639 0.00969727
v -0.00137616 0.00096465 0.00455391
v -0.00087385 0.00095422 0.00467850
v -0.00044381 0.00068643 0.00478480
v -0.00020127 0.00023302 0.00484435
v -0.00021123 -0.00028451 0.00484117
v -0.00047100 -0.00072750 0.00477613
v -0.00091100 -0.00097724 0.00466665
v -0.00141331 -0.00096681 0.00454206
v -0.00184335 -0.00069901 0.00443576
v -0.00208589 -0.00024560 0.00437621
v -0.00207593 0.00027193 0.00437939
v -0.00181615 0.00071491 0.00444443
v -0.00961891 0.00373812 0.00251309
v -0.01000093 0.00263681 0.00241682
v -0.00279783 0.00934012 0.00421270
v -0.00390001 0.00906020 0.00393893
v -0.00005088 -0.00943971 0.00486845
v 0.00106595 -0.00923024 0.00514576
v 0.00214929 -0.00888095 0.00541496
v -0.00451235 -0.00884840 0.00376259
v -0.00343205 -0.00920826 0.00403007
v -0.00231706 -0.00942864 0.00430634
v -0.00118428 -0.00950618 0.00458722
v -0.00689241 0.00742313 0.00319443
v -0.00596293 0.00809439 0.00342590
v -0.00496040 0.00864286 0.00367533
v 0.00623905 0.00568271 0.00644931
v 0.00550425 0.00657455 0.00626825
v 0.00466867 0.00736664 0.00606207
v 0.00169042 0.00903289 0.00532559
v 0.00274719 0.00860519 0.00558714
v 0.00374498 0.00804695 0.00583388
v 0.00736348 0.00365513 0.00672545
v 0.00686194 0.00470463 0.00660248
v 0.00807378 0.00024122 0.00689698
v 0.00797402 0.00140639 0.00687383
v 0.00773605 0.00255014 0.00681636
v -0.00817214 -0.00615288 0.00285846
v -0.00738546 -0.00699644 0.00305244
v -0.00650415 -0.00773404 0.00327004
v -0.00554159 -0.00835449 0.00350796
v -0.01015930 -0.00199462 0.00237122
v -0.00985344 -0.00312113 0.00244555
v -0.00941556 -0.00420042 0.00255269
v -0.00885228 -0.00521614 0.00269103
v -0.00773474 0.00663925 0.00298442
v -0.00847715 0.00575462 0.00279905
v -0.00910840 0.00478267 0.00264115
v 0.00059069 0.00932356 0.00505320
v -0.00053533 0.00947280 0.00477409
v -0.00167058 0.00947835 0.00449251
v 0.00803381 -0.00092770 0.00688547
v 0.00785472 -0.00208265 0.00683947
v 0.00318271 -0.00839712 0.00567196
v 0.00415055 -0.00778610 0.00591287
v 0.00503814 -0.00705715 0.00613403
v 0.00583202 -0.00622131 0.00633209
v 0.00652015 -0.00529126 0.00650405
v 0.00709211 -0.00428109 0.00664731
v 0.00753923 -0.00320612 0.00675968
v -0.01024870 0.00149543 0.00235381
v -0.01035843 0.00033129 0.00232500
v -0.01032848 -0.00083797 0.00233083
v 0.00164838 -0.00100520 -0.00441508
v 0.00152381 -0.00106352 -0.00444606
v 0.00114358 0.00000629 -0.00461028
v 0.00176504 -0.00093155 -0.00438604
v 0.00187203 -0.00084369 -0.00435938
v 0.00196772 -0.00074294 -0.00433551
v 0.00205066 -0.00063083 -0.00431478
v 0.00211961 -0.00050907 -0.00429752
v 0.00217350 -0.00037950 -0.00428397
v 0.00221153 -0.00024408 -0.00427435
v 0.00223312 -0.00010486 -0.00426881
v 0.00223793 0.00003604 -0.00426742
v 0.00222591 0.00017648 -0.00427021
v 0.00219722 0.00031434 -0.00427714
v 0.00215232 0.00044754 -0.00428810
v 0.00209186 0.00057404 -0.00430292
v 0.00201678 0.00069193 -0.00432138
v 0.00192821 0.00079943 -0.00434321
v 0.00182749 0.00089491 -0.00436806
v 0.00171615 0.00097691 -0.00439556
v 0.00159588 0.00104420 -0.00442530
v 0.00146850 0.00109575 -0.00445683
v 0.00133595 0.00113079 -0.00448966
v 0.00120022 0.00114878 -0.00452331
v 0.00106338 0.00114945 -0.00455725
v 0.00092751 0.00113279 -0.00459098
v 0.00079465 0.00109905 -0.00462398
v 0.00066684 0.00104874 -0.00465575
v 0.00054599 0.00098263 -0.00468581
v 0.00043396 0.00090172 -0.00471372
v 0.00033243 0.00080723 -0.00473903
v 0.00024294 0.00070060 -0.00476137
v 0.00016685 0.00058345 -0.00478041
v 0.00010532 0.00045754 -0.00479584
v 0.00005927 0.00032479 -0.00480744
v 0.00002940 0.00018721 -0.00481504
v 0.00001618 0.00004689 -0.00481851
v 0.00001979 -0.00009405 -0.00481781
v 0.00004018 -0.00023347 -0.00481294
v 0.00007704 -0.00036925 -0.00480398
v 0.00012983 -0.00049935 -0.00479107
v 0.00019772 -0.00062178 -0.00477439
v 0.00027970 -0.00073469 -0.00475421
v 0.00037453 -0.00083637 -0.00473083
v 0.00048076 -0.00092528 -0.00470460
v 0.00059678 -0.00100006 -0.00467592
v 0.00072084 -0.00105960 -0.00464523
v 0.00085106 -0.00110297 -0.00461299
v 0.00098546 -0.00112954 -0.00457969
v 0.00112200 -0.00113888 -0.00454583
v 0.00125861 -0.00113087 -0.00451193
v 0.00139323 -0.00110562 -0.00447851
v 0.00240097 -0.00881473 0.00429768
v 0.00342686 -0.00833443 0.00455281
v 0.00438764 -0.00772786 0.00479196
v 0.00526875 -0.00700422 0.00501150
v 0.00605684 -0.00617448 0.00520812
v 0.00673996 -0.00525121 0.00537883
v 0.00730775 -0.00424840 0.00552104
v 0.00775161 -0.00318127 0.00563259
v 0.00806480 -0.00206599 0.00571180
v 0.00824259 -0.00091946 0.00575747
v 0.00828226 0.00024093 0.00576889
v 0.00818323 0.00139760 0.00574591
v 0.00794700 0.00253301 0.00568886
v 0.00757714 0.00362996 0.00559861
v 0.00707926 0.00467180 0.00547654
v 0.00646091 0.00564275 0.00532448
v 0.00573146 0.00652809 0.00514475
v 0.00490198 0.00731440 0.00494007
v 0.00398503 0.00798975 0.00471354
v 0.00299451 0.00854392 0.00446860
v 0.00194544 0.00896850 0.00420896
v 0.00085373 0.00925705 0.00393855
v -0.00026408 0.00940520 0.00366148
v -0.00139105 0.00941071 0.00338195
v -0.00251008 0.00927349 0.00310418
v -0.00360422 0.00899562 0.00283240
v -0.00465688 0.00858131 0.00257073
v -0.00565211 0.00803684 0.00232312
v -0.00657481 0.00737048 0.00209333
v -0.00741099 0.00659231 0.00188485
v -0.00814800 0.00571414 0.00170084
v -0.00877464 0.00474927 0.00154409
v -0.00928142 0.00371234 0.00141696
v -0.00966067 0.00261906 0.00132140
v -0.00990662 0.00148600 0.00125885
v -0.01001556 0.00033035 0.00123025
v -0.00998583 -0.00083039 0.00123604
v -0.00981787 -0.00197860 0.00127613
v -0.00951425 -0.00309690 0.00134992
v -0.00907956 -0.00416833 0.00145628
v -0.00852038 -0.00517663 0.00159361
v -0.00784521 -0.00610654 0.00175982
v -0.00706426 -0.00694395 0.00195239
v -0.00618938 -0.00767618 0.00216840
v -0.00523383 -0.00829211 0.00240458
v -0.00421211 -0.00878241 0.00265735
v -0.00313968 -0.00913965 0.00292288
v -0.00203282 -0.00935842 0.00319714
v -0.00090830 -0.00943540 0.00347597
v 0.00021684 -0.00936941 0.00375515
v 0.00132553 -0.00916147 0.00403044
v 0.00260096 -0.00862006 0.00318495
v 0.00360435 -0.00815029 0.00343449
v 0.00454407 -0.00755702 0.00366839
v 0.00540586 -0.00684925 0.00388313
v 0.00617667 -0.00603770 0.00407543
v 0.00684481 -0.00513467 0.00424240
v 0.00740015 -0.00415386 0.00438149
v 0.00783428 -0.00311013 0.00449060
v 0.00814060 -0.00201930 0.00456807
v 0.00831449 -0.00089791 0.00461274
v 0.00835329 0.00023704 0.00462391
v 0.00825644 0.00136835 0.00460143
v 0.00802538 0.00247886 0.00454563
v 0.00766363 0.00355175 0.00445736
v 0.00717667 0.00457075 0.00433796
v 0.00657188 0.00552041 0.00418924
v 0.00585843 0.00638634 0.00401345
v 0.00504713 0.00715540 0.00381326
v 0.00415028 0.00781595 0.00359170
v 0.00318149 0.00835797 0.00335213
v 0.00215542 0.00877324 0.00309818
v 0.00108765 0.00905546 0.00283371
v -0.00000566 0.00920037 0.00256271
v -0.00110791 0.00920575 0.00228930
v -0.00220241 0.00907154 0.00201763
v -0.00327256 0.00879976 0.00175181
v -0.00430214 0.00839454 0.00149587
v -0.00527554 0.00786201 0.00125369
v -0.00617800 0.00721026 0.00102894
v -0.00699586 0.00644915 0.00082504
v -0.00771670 0.00559023 0.00064506
v -0.00832960 0.00464652 0.00049174
v -0.00882527 0.00363233 0.00036741
v -0.00919620 0.00256302 0.00027394
v -0.00943676 0.00145481 0.00021275
v -0.00954331 0.00032449 0.00018478
v -0.00951423 -0.00081079 0.00019044
v -0.00934996 -0.00193383 0.00022966
v -0.00905300 -0.00302761 0.00030183
v -0.00862784 -0.00407554 0.00040586
v -0.00808092 -0.00506174 0.00054017
v -0.00742055 -0.00597125 0.00070274
v -0.00665672 -0.00679031 0.00089109
v -0.00580103 -0.00750647 0.00110236
v -0.00486644 -0.00810890 0.00133337
v -0.00386711 -0.00858845 0.00158060
v -0.00281820 -0.00893786 0.00184030
v -0.00173561 -0.00915183 0.00210854
v -0.00063575 -0.00922712 0.00238126
v 0.00046472 -0.00916258 0.00265432
v 0.00154910 -0.00895920 0.00292358
v 0.00274634 -0.00829978 0.00209301
v 0.00371261 -0.00784739 0.00233331
v 0.00461756 -0.00727608 0.00255857
v 0.00544747 -0.00659449 0.00276535
v 0.00618975 -0.00581297 0.00295055
v 0.00683317 -0.00494336 0.00311133
v 0.00736797 -0.00399883 0.00324528
v 0.00778603 -0.00299372 0.00335035
v 0.00808102 -0.00194325 0.00342496
v 0.00824847 -0.00086336 0.00346797
v 0.00828584 0.00022960 0.00347873
v 0.00819257 0.00131905 0.00345708
v 0.00797006 0.00238847 0.00340335
v 0.00762169 0.00342166 0.00331834
v 0.00715275 0.00440296 0.00320336
v 0.00657034 0.00531748 0.00306014
v 0.00588328 0.00615137 0.00289086
v 0.00510200 0.00689198 0.00269807
v 0.00423834 0.00752809 0.00248471
v 0.00330539 0.00805005 0.00225400
v 0.00231729 0.00844995 0.00200945
v 0.00128903 0.00872173 0.00175476
v 0.00023618 0.00886128 0.00149379
v -0.00082529 0.00886646 0.00123050
v -0.00187929 0.00873722 0.00096888
v -0.00290985 0.00847549 0.00071290
v -0.00390133 0.00808526 0.00046643
v -0.00483871 0.00757244 0.00023321
v -0.00570779 0.00694480 0.00001678
v -0.00649538 0.00621186 -0.00017958
v -0.00718955 0.00538472 -0.00035290
v -0.00777978 0.00447593 -0.00050055
v -0.00825711 0.00349926 -0.00062028
v -0.00861431 0.00246951 -0.00071029
v -0.00884597 0.00140231 -0.00076921
v -0.00894858 0.00031382 -0.00079615
v -0.00892058 -0.00077946 -0.00079070
v -0.00876238 -0.00186095 -0.00075293
v -0.00847641 -0.00291425 -0.00068343
v -0.00806697 -0.00392341 -0.00058325
v -0.00754030 -0.00487312 -0.00045391
v -0.00690436 -0.00574898 -0.00029736
v -0.00616880 -0.00653773 -0.00011598
v -0.00534476 -0.00722740 0.00008748
v -0.00444475 -0.00780753 0.00030994
v -0.00348240 -0.00826934 0.00054802
v -0.00247230 -0.00860582 0.00079811
v -0.00142977 -0.00881187 0.00105643
v -0.00037060 -0.00888438 0.00131906
v 0.00068915 -0.00882223 0.00158201
v 0.00173340 -0.00862637 0.00184131
v 0.00283501 -0.00785856 0.00103778
v 0.00375006 -0.00743016 0.00126535
v 0.00460704 -0.00688912 0.00147866
v 0.00539296 -0.00624367 0.00167449
v 0.00609590 -0.00550357 0.00184986
v 0.00670521 -0.00468005 0.00200212
v 0.00721166 -0.00378559 0.00212897
v 0.00760756 -0.00283375 0.00222847
v 0.00788692 -0.00183896 0.00229912
v 0.00804549 -0.00081631 0.00233985
v 0.00808088 0.00021872 0.00235005
v 0.00799255 0.00125042 0.00232954
v 0.00778184 0.00226316 0.00227866
v 0.00745194 0.00324159 0.00219816
v 0.00700785 0.00417087 0.00208928
v 0.00645631 0.00503692 0.00195365
v 0.00580567 0.00582661 0.00179334
v 0.00506581 0.00652796 0.00161077
v 0.00424792 0.00713035 0.00140872
v 0.00336442 0.00762465 0.00119024
v 0.00242870 0.00800335 0.00095865
v 0.00145493 0.00826073 0.00071746
v 0.00045789 0.00839288 0.00047032
v -0.00054732 0.00839779 0.00022099
v -0.00154545 0.00827539 -0.00002677
v -0.00252138 0.00802754 -0.00026918
v -0.00346031 0.00765800 -0.00050259
v -0.00434801 0.00717236 -0.00072345
v -0.00517102 0.00657798 -0.00092840
v -0.00591687 0.00588389 -0.00111436
v -0.00657424 0.00510059 -0.00127849
v -0.00713318 0.00423997 -0.00141831
v -0.00758521 0.00331507 -0.00153170
v -0.00792348 0.00233991 -0.00161694
v -0.00814286 0.00132927 -0.00167273
v -0.00824003 0.00029847 -0.00169824
v -0.00821351 -0.00073685 -0.00169308
v -0.00806370 -0.00176102 -0.00165732
v -0.00779289 -0.00275850 -0.00159150
v -0.00740516 -0.00371416 -0.00149663
v -0.00690640 -0.00461353 -0.00137414
v -0.00630416 -0.00544297 -0.00122589
v -0.00560759 -0.00618991 -0.00105412
v -0.00482723 -0.00684302 -0.00086145
v -0.00397493 -0.00739241 -0.00065078
v -0.00306359 -0.00782974 -0.00042532
v -0.00210703 -0.00814838 -0.00018848
v -0.00111975 -0.00834351 0.00005614
v -0.00011672 -0.00841217 0.00030485
v 0.00088685 -0.00835332 0.00055387
v 0.00187576 -0.00816785 0.00079942
v 0.00286565 -0.00730284 0.00003464
v 0.00371614 -0.00690466 0.00024615
v 0.00451266 -0.00640180 0.00044441
v 0.00524313 -0.00580188 0.00062643
v 0.00589648 -0.00511400 0.00078943
v 0.00646280 -0.00434858 0.00093095
v 0.00693352 -0.00351723 0.00104884
v 0.00730149 -0.00263255 0.00114133
v 0.00756113 -0.00170795 0.00120699
v 0.00770852 -0.00075744 0.00124485
v 0.00774141 0.00020456 0.00125432
v 0.00765932 0.00116347 0.00123527
v 0.00746347 0.00210476 0.00118797
v 0.00715684 0.00301415 0.00111316
v 0.00674409 0.00387787 0.00101195
v 0.00623146 0.00468281 0.00088589
v 0.00562673 0.00541679 0.00073689
v 0.00493906 0.00606866 0.00056720
v 0.00417888 0.00662855 0.00037941
v 0.00335772 0.00708797 0.00017634
v 0.00248801 0.00743996 -0.00003891
v 0.00158295 0.00767917 -0.00026308
v 0.00065625 0.00780200 -0.00049278
v -0.00027804 0.00780656 -0.00072452
v -0.00120575 0.00769280 -0.00095480
v -0.00211282 0.00746244 -0.00118011
v -0.00298551 0.00711897 -0.00139705
v -0.00381057 0.00666759 -0.00160232
v -0.00457552 0.00611515 -0.00179282
v -0.00526874 0.00547003 -0.00196566
v -0.00587974 0.00474200 -0.00211821
v -0.00639924 0.00394210 -0.00224816
v -0.00681938 0.00308245 -0.00235355
v -0.00713379 0.00217609 -0.00243277
v -0.00733769 0.00123675 -0.00248464
v -0.00742800 0.00027868 -0.00250834
v -0.00740335 -0.00068360 -0.00250354
v -0.00726412 -0.00163550 -0.00247031
v -0.00701240 -0.00256260 -0.00240913
v -0.00665203 -0.00345084 -0.00232096
v -0.00618846 -0.00428676 -0.00220711
v -0.00562872 -0.00505768 -0.00206932
v -0.00498129 -0.00575192 -0.00190967
v -0.00425599 -0.00635895 -0.00173059
v -0.00346381 -0.00686958 -0.00153479
v -0.00261677 -0.00727605 -0.00132523
v -0.00172770 -0.00757222 -0.00110510
v -0.00081008 -0.00775358 -0.00087774
v 0.00012218 -0.00781740 -0.00064658
v 0.00105495 -0.00776269 -0.00041513
v 0.00197408 -0.00759030 -0.00018690
v 0.00283783 -0.00664072 -0.00090177
v 0.00361136 -0.00627857 -0.00070940
v 0.00433580 -0.00582122 -0.00052908
v 0.00500017 -0.00527559 -0.00036354
v 0.00559440 -0.00464995 -0.00021529
v 0.00610947 -0.00395380 -0.00008657
v 0.00653759 -0.00319768 0.00002065
v 0.00687226 -0.00239305 0.00010477
v 0.00710841 -0.00155212 0.00016449
v 0.00724246 -0.00068763 0.00019892
v 0.00727238 0.00018732 0.00020754
v 0.00719771 0.00105946 0.00019021
v 0.00701959 0.00191557 0.00014719
v 0.00674071 0.00274267 0.00007915
v 0.00636531 0.00352823 -0.00001290
v 0.00589907 0.00426033 -0.00012755
v 0.00534906 0.00492789 -0.00026307
v 0.00472362 0.00552077 -0.00041740
v 0.00403223 0.00602999 -0.00058821
v 0.00328537 0.00644784 -0.00077289
v 0.00249437 0.00676798 -0.00096866
v 0.00167121 0.00698555 -0.00117255
v 0.00082837 0.00709726 -0.00138147
v -0.00002138 0.00710141 -0.00159224
v -0.00086514 0.00699794 -0.00180167
v -0.00169013 0.00678842 -0.00200660
v -0.00248384 0.00647603 -0.00220391
v -0.00323425 0.00606550 -0.00239060
v -0.00392997 0.00556306 -0.00256386
v -0.00456047 0.00497631 -0.00272106
v -0.00511617 0.00431416 -0.00285981
v -0.00558867 0.00358664 -0.00297800
v -0.00597079 0.00280479 -0.00307385
v -0.00625674 0.00198044 -0.00314591
v -0.00644219 0.00112611 -0.00319308
v -0.00652433 0.00025474 -0.00321464
v -0.00650191 -0.00062046 -0.00321027
v -0.00637527 -0.00148623 -0.00318004
v -0.00614634 -0.00232944 -0.00312441
v -0.00581858 -0.00313730 -0.00304421
v -0.00539695 -0.00389757 -0.00294066
v -0.00488786 -0.00459873 -0.00281534
v -0.00429902 -0.00523015 -0.00267014
v -0.00363936 -0.00578225 -0.00250726
v -0.00291887 -0.00624666 -0.00232918
v -0.00214848 -0.00661636 -0.00213859
v -0.00133986 -0.00688572 -0.00193838
v -0.00050528 -0.00705067 -0.00173159
v 0.00034262 -0.00710871 -0.00152135
v 0.00119098 -0.00705896 -0.00131084
v 0.00202694 -0.00690217 -0.00110327
v 0.00275196 -0.00588186 -0.00175781
v 0.00343725 -0.00556102 -0.00158738
v 0.00407904 -0.00515584 -0.00142763
v 0.00466762 -0.00467245 -0.00128098
v 0.00519406 -0.00411819 -0.00114964
v 0.00565038 -0.00350145 -0.00103561
v 0.00602966 -0.00283159 -0.00094061
v 0.00632615 -0.00211875 -0.00086609
v 0.00653536 -0.00137375 -0.00081318
v 0.00665412 -0.00060788 -0.00078268
v 0.00668062 0.00016726 -0.00077505
v 0.00661447 0.00093991 -0.00079040
v 0.00645667 0.00169835 -0.00082851
v 0.00620960 0.00243110 -0.00088879
v 0.00587703 0.00312705 -0.00097034
v 0.00546397 0.00377563 -0.00107191
v 0.00497671 0.00436704 -0.00119197
v 0.00442262 0.00489228 -0.00132869
v 0.00381010 0.00534342 -0.00148001
v 0.00314844 0.00571360 -0.00164363
v 0.00244767 0.00599721 -0.00181707
v 0.00171842 0.00618996 -0.00199770
v 0.00097172 0.00628893 -0.00218278
v 0.00021892 0.00629261 -0.00236951
v -0.00052859 0.00620094 -0.00255505
v -0.00125947 0.00601533 -0.00273660
v -0.00196264 0.00573857 -0.00291140
v -0.00262744 0.00537487 -0.00307680
v -0.00324380 0.00492975 -0.00323029
v -0.00380236 0.00440994 -0.00336956
v -0.00429468 0.00382332 -0.00349247
v -0.00471327 0.00317880 -0.00359719
v -0.00505180 0.00248613 -0.00368210
v -0.00530513 0.00175583 -0.00374594
v -0.00546943 0.00099896 -0.00378773
v -0.00554219 0.00022699 -0.00380683
v -0.00552233 -0.00054837 -0.00380296
v -0.00541014 -0.00131538 -0.00377618
v -0.00520732 -0.00206239 -0.00372689
v -0.00491695 -0.00277809 -0.00365584
v -0.00454343 -0.00345164 -0.00356411
v -0.00409241 -0.00407281 -0.00345308
v -0.00357075 -0.00463220 -0.00332445
v -0.00298633 -0.00512131 -0.00318015
v -0.00234804 -0.00553275 -0.00302238
v -0.00166553 -0.00586027 -0.00285353
v -0.00094916 -0.00609891 -0.00267616
v -0.00020978 -0.00624504 -0.00249296
v 0.00054139 -0.00629646 -0.00230670
v 0.00129297 -0.00625239 -0.00212021
v 0.00203357 -0.00611348 -0.00193632
v 0.00260928 -0.00503731 -0.00252098
v 0.00319633 -0.00476247 -0.00237499
v 0.00374612 -0.00441537 -0.00223814
v 0.00425033 -0.00400128 -0.00211250
v 0.00470131 -0.00352647 -0.00199999
v 0.00509221 -0.00299814 -0.00190231
v 0.00541712 -0.00242430 -0.00182093
v 0.00567111 -0.00181364 -0.00175709
v 0.00585033 -0.00117544 -0.00171177
v 0.00595207 -0.00051935 -0.00168564
v 0.00597477 0.00014467 -0.00167910
v 0.00591810 0.00080656 -0.00169225
v 0.00578292 0.00145628 -0.00172490
v 0.00557127 0.00208399 -0.00177654
v 0.00528637 0.00268017 -0.00184640
v 0.00493253 0.00323579 -0.00193341
v 0.00451511 0.00374241 -0.00203626
v 0.00404045 0.00419237 -0.00215338
v 0.00351574 0.00457883 -0.00228301
v 0.00294892 0.00489595 -0.00242317
v 0.00234861 0.00513890 -0.00257175
v 0.00172389 0.00530403 -0.00272649
v 0.00108424 0.00538880 -0.00288504
v 0.00043935 0.00539195 -0.00304500
v -0.00020101 0.00531343 -0.00320394
v -0.00082711 0.00515442 -0.00335947
v -0.00142949 0.00491734 -0.00350921
v -0.00199899 0.00460578 -0.00365090
v -0.00252699 0.00422446 -0.00378239
v -0.00300549 0.00377916 -0.00390169
v -0.00342723 0.00327664 -0.00400699
v -0.00378582 0.00272451 -0.00409669
v -0.00407582 0.00213113 -0.00416943
v -0.00429284 0.00150552 -0.00422412
v -0.00443358 0.00085714 -0.00425991
v -0.00449592 0.00019584 -0.00427628
v -0.00447890 -0.00046838 -0.00427297
v -0.00438280 -0.00112543 -0.00425002
v -0.00420905 -0.00176536 -0.00420780
v -0.00396030 -0.00237847 -0.00414693
v -0.00364032 -0.00295546 -0.00406835
v -0.00325396 -0.00348759 -0.00397324
v -0.00280707 -0.00396679 -0.00386305
v -0.00230644 -0.00438579 -0.00373943
v -0.00175964 -0.00473825 -0.00360428
v -0.00117497 -0.00501882 -0.00345964
v -0.00056129 -0.00522325 -0.00330769
v 0.00007210 -0.00534844 -0.00315075
v 0.00071559 -0.00539248 -0.00299119
v 0.00135944 -0.00535473 -0.00283144
v 0.00199387 -0.00523574 -0.00267390
v 0.00241187 -0.00411941 -0.00318017
v 0.00289213 -0.00389456 -0.00306073
v 0.00334190 -0.00361061 -0.00294878
v 0.00375439 -0.00327184 -0.00284600
v 0.00412332 -0.00288341 -0.00275396
v 0.00444311 -0.00245119 -0.00267404
v 0.00470892 -0.00198175 -0.00260747
v 0.00491670 -0.00148218 -0.00255524
v 0.00506332 -0.00096008 -0.00251816
v 0.00514654 -0.00042335 -0.00249679
v 0.00516512 0.00011988 -0.00249144
v 0.00511876 0.00066136 -0.00250220
v 0.00500817 0.00119288 -0.00252890
v 0.00483502 0.00170640 -0.00257115
v 0.00460195 0.00219413 -0.00262830
v 0.00431248 0.00264866 -0.00269948
v 0.00397100 0.00306312 -0.00278362
v 0.00358269 0.00343122 -0.00287944
v 0.00315343 0.00374738 -0.00298549
v 0.00268973 0.00400681 -0.00310015
v 0.00219862 0.00420557 -0.00322170
v 0.00168755 0.00434065 -0.00334829
v 0.00116426 0.00441001 -0.00347799
v 0.00063669 0.00441258 -0.00360885
v 0.00011283 0.00434834 -0.00373888
v -0.00039938 0.00421826 -0.00386612
v -0.00089217 0.00402431 -0.00398862
v -0.00135807 0.00376943 -0.00410453
v -0.00179002 0.00345748 -0.00421210
v -0.00218147 0.00309319 -0.00430970
v -0.00252648 0.00268208 -0.00439584
v -0.00281984 0.00223039 -0.00446922
v -0.00305708 0.00174497 -0.00452873
v -0.00323462 0.00123316 -0.00457347
v -0.00334976 0.00070274 -0.00460276
v -0.00340076 0.00016173 -0.00461614
v -0.00338684 -0.00038165 -0.00461343
v -0.00330821 -0.00091917 -0.00459466
v -0.00316608 -0.00144269 -0.00456012
v -0.00296258 -0.00194426 -0.00451033
v -0.00270081 -0.00241628 -0.00444604
v -0.00238474 -0.00285161 -0.00436823
v -0.00201915 -0.00324363 -0.00427808
v -0.00160958 -0.00358641 -0.00417696
v -0.00116226 -0.00387475 -0.00406639
v -0.00068395 -0.00410428 -0.00394806
v -0.00018191 -0.00427152 -0.00382376
v 0.00033625 -0.00437393 -0.00369537
v 0.00086268 -0.00440997 -0.00356484
v 0.00138940 -0.00437908 -0.00343414
v 0.00190842 -0.00428173 -0.00330527
v 0.00216262 -0.00314152 -0.00372575
v 0.00252907 -0.00296995 -0.00363462
v 0.00287228 -0.00275328 -0.00354919
v 0.00318702 -0.00249479 -0.00347076
v 0.00346853 -0.00219840 -0.00340053
v 0.00371255 -0.00186860 -0.00333955
v 0.00391537 -0.00151039 -0.00328875
v 0.00407392 -0.00112920 -0.00324891
v 0.00418579 -0.00073081 -0.00322061
v 0.00424930 -0.00032126 -0.00320430
v 0.00426347 0.00009324 -0.00320022
v 0.00422810 0.00050642 -0.00320843
v 0.00414371 0.00091200 -0.00322881
v 0.00401159 0.00130384 -0.00326104
v 0.00383375 0.00167599 -0.00330465
v 0.00361287 0.00202282 -0.00335897
v 0.00335230 0.00233908 -0.00342317
v 0.00305600 0.00261995 -0.00349628
v 0.00272846 0.00286120 -0.00357720
v 0.00237464 0.00305915 -0.00366469
v 0.00199990 0.00321081 -0.00375744
v 0.00160993 0.00331389 -0.00385403
v 0.00121064 0.00336681 -0.00395300
v 0.00080808 0.00336877 -0.00405286
v 0.00040835 0.00331976 -0.00415208
v 0.00001751 0.00322050 -0.00424916
v -0.00035851 0.00307250 -0.00434263
v -0.00071402 0.00287802 -0.00443108
v -0.00104361 0.00263998 -0.00451316
v -0.00134231 0.00236202 -0.00458763
v -0.00160557 0.00204832 -0.00465336
v -0.00182941 0.00170366 -0.00470936
v -0.00201044 0.00133326 -0.00475477
v -0.00214591 0.00094273 -0.00478890
v -0.00223377 0.00053799 -0.00481125
v -0.00227268 0.00012518 -0.00482147
v -0.00226206 -0.00028944 -0.00481940
v -0.00220207 -0.00069960 -0.00480508
v -0.00209361 -0.00109906 -0.00477872
v -0.00193833 -0.00148178 -0.00474072
v -0.00173859 -0.00184196 -0.00469167
v -0.00149741 -0.00217413 -0.00463230
v -0.00121845 -0.00247326 -0.00456351
v -0.00090593 -0.00273482 -0.00448635
v -0.00056460 -0.00295484 -0.00440198
v -0.00019963 -0.00312998 -0.00431169
v 0.00018345 -0.00325759 -0.00421684
v 0.00057883 -0.00333573 -0.00411887
v 0.00098052 -0.00336323 -0.00401927
v 0.00138243 -0.00333966 -0.00391955
v 0.00177846 -0.00326538 -0.00382121
v 0.00186515 -0.00211792 -0.00414978
v 0.00211247 -0.00200213 -0.00408827
v 0.00234409 -0.00185590 -0.00403062
v 0.00255650 -0.00168145 -0.00397769
v 0.00274649 -0.00148142 -0.00393029
v 0.00291117 -0.00125885 -0.00388914
v 0.00304805 -0.00101710 -0.00385486
v 0.00315505 -0.00075984 -0.00382796
v 0.00323055 -0.00049098 -0.00380887
v 0.00327341 -0.00021458 -0.00379786
v 0.00328298 0.00006516 -0.00379510
v 0.00325910 0.00034400 -0.00380065
v 0.00320215 0.00061772 -0.00381440
v 0.00311299 0.00088216 -0.00383615
v 0.00299296 0.00113332 -0.00386558
v 0.00284390 0.00136739 -0.00390224
v 0.00266805 0.00158083 -0.00394557
v 0.00246808 0.00177038 -0.00399491
v 0.00224703 0.00193319 -0.00404952
v 0.00200824 0.00206679 -0.00410857
v 0.00175534 0.00216914 -0.00417116
v 0.00149216 0.00223871 -0.00423635
v 0.00122268 0.00227442 -0.00430314
v 0.00095100 0.00227575 -0.00437053
v 0.00068123 0.00224267 -0.00443749
v 0.00041746 0.00217568 -0.00450301
v 0.00016369 0.00207580 -0.00456610
v -0.00007623 0.00194455 -0.00462579
v -0.00029867 0.00178390 -0.00468118
v -0.00050025 0.00159631 -0.00473144
v -0.00067792 0.00138460 -0.00477580
v -0.00082899 0.00115200 -0.00481359
v -0.00095116 0.00090202 -0.00484424
v -0.00104259 0.00063846 -0.00486728
v -0.00110188 0.00036531 -0.00488236
v -0.00112814 0.00008672 -0.00488925
v -0.00112097 -0.00019311 -0.00488786
v -0.00108048 -0.00046991 -0.00487819
v -0.00100729 -0.00073950 -0.00486040
v -0.00090250 -0.00099779 -0.00483476
v -0.00076769 -0.00124087 -0.00480165
v -0.00060493 -0.00146505 -0.00476159
v -0.00041666 -0.00166692 -0.00471516
v -0.00020575 -0.00184344 -0.00466309
v 0.00002461 -0.00199193 -0.00460615
v 0.00027092 -0.00211013 -0.00454521
v 0.00052945 -0.00219625 -0.00448120
v 0.00079629 -0.00224899 -0.00441509
v 0.00106738 -0.00226754 -0.00434787
v 0.00133862 -0.00225164 -0.00428056
v 0.00160589 -0.00220151 -0.00421420
f 1 2 3
f 3 2 4
f 3 4 5
f 6 7 3
f 3 7 8
f 3 8 1
f 9 10 3
f 3 10 11
f 3 11 6
f 5 12 3
f 3 12 13
f 3 13 9
f 14 10 15
f 15 10 9
f 15 9 16
f 16 9 13
f 16 13 17
f 17 13 12
f 17 12 18
f 18 12 5
f 18 5 19
f 19 5 4
f 19 4 20
f 20 4 2
f 20 2 21
f 21 2 1
f 21 1 22
f 22 1 8
f 22 8 23
f 23 8 7
f 23 7 24
f 24 7 6
f 24 6 25
f 25 6 11
f 25 11 14
f 14 11 10
f 26 27 24
f 14 28 29
f 30 31 20
f 20 31 32
f 33 34 21
f 21 34 35
f 21 35 20
f 20 35 36
f 20 36 30
f 37 25 38
f 38 25 14
f 38 14 39
f 39 14 29
f 40 41 16
f 16 41 42
f 43 15 44
f 44 15 16
f 44 16 45
f 45 16 42
f 17 46 16
f 16 46 47
f 16 47 40
f 48 49 17
f 17 49 50
f 17 50 46
f 51 52 22
f 22 52 53
f 22 53 21
f 21 53 54
f 21 54 33
f 55 56 23
f 23 56 57
f 23 57 22
f 22 57 58
f 22 58 51
f 37 59 25
f 25 59 60
f 25 60 24
f 24 60 61
f 24 61 26
f 43 62 15
f 15 62 63
f 15 63 14
f 14 63 64
f 14 64 28
f 48 17 65
f 65 17 18
f 65 18 66
f 32 67 20
f 20 67 68
f 20 68 19
f 19 68 69
f 19 69 70
f 70 71 19
f 19 71 72
f 19 72 18
f 18 72 73
f 18 73 66
f 27 74 24
f 24 74 75
f 24 75 23
f 23 75 76
f 23 76 55
f 77 78 79
f 77 79 80
f 81 80 79
f 82 81 79
f 83 82 79
f 84 83 79
f 85 84 79
f 86 85 79
f 87 86 79
f 88 87 79
f 89 88 79
f 90 89 79
f 91 90 79
f 92 91 79
f 93 92 79
f 94 93 79
f 95 94 79
f 96 95 79
f 97 96 79
f 98 97 79
f 99 98 79
f 100 99 79
f 101 100 79
f 102 101 79
f 103 102 79
f 104 103 79
f 105 104 79
f 106 105 79
f 107 106 79
f 108 107 79
f 109 108 79
f 110 109 79
f 111 110 79
f 112 111 79
f 113 112 79
f 114 113 79
f 115 114 79
f 116 115 79
f 117 116 79
f 118 117 79
f 119 118 79
f 120 119 79
f 121 120 79
f 122 121 79
f 123 122 79
f 124 123 79
f 125 124 79
f 126 125 79
f 127 126 79
f 128 127 79
f 78 128 79
f 31 129 32
f 32 129 130
f 32 130 67
f 67 130 131
f 67 131 68
f 68 131 132
f 68 132 69
f 69 132 133
f 69 133 70
f 70 133 134
f 70 134 71
f 71 134 135
f 71 135 72
f 72 135 136
f 72 136 73
f 73 136 137
f 73 137 66
f 66 137 138
f 66 138 65
f 65 138 139
f 65 139 48
f 48 139 140
f 48 140 49
f 49 140 141
f 49 141 50
f 50 141 142
f 50 142 46
f 46 142 143
f 46 143 47
f 47 143 144
f 47 144 40
f 40 144 145
f 40 145 41
f 41 145 146
f 41 146 42
f 42 146 147
f 42 147 45
f 45 147 148
f 45 148 44
f 44 148 149
f 44 149 43
f 43 149 150
f 43 150 62
f 62 150 151
f 62 151 63
f 63 151 152
f 63 152 64
f 64 152 153
f 64 153 28
f 28 153 154
f 28 154 29
f 29 154 155
f 29 155 39
f 39 155 156
f 39 156 38
f 38 156 157
f 38 157 37
f 37 157 158
f 37 158 59
f 59 158 159
f 59 159 60
f 60 159 160
f 60 160 61
f 61 160 161
f 61 161 26
f 26 161 162
f 26 162 27
f 27 162 163
f 27 163 74
f 74 163 164
f 74 164 75
f 75 164 165
f 75 165 76
f 76 165 166
f 76 166 55
f 55 166 167
f 55 167 56
f 56 167 168
f 56 168 57
f 57 168 169
f 57 169 58
f 58 169 170
f 58 170 51
f 51 170 171
f 51 171 52
f 52 171 172
f 52 172 53
f 53 172 173
f 53 173 54
f 54 173 174
f 54 174 33
f 33 174 175
f 33 175 34
f 34 175 176
f 34 176 35
f 35 176 177
f 35 177 36
f 36 177 178
f 36 178 30
f 30 178 179
f 30 179 31
f 31 179 129
f 179 180 129
f 129 180 181
f 129 181 130
f 130 181 182
f 130 182 131
f 131 182 183
f 131 183 132
f 132 183 184
f 132 184 133
f 133 184 185
f 133 185 134
f 134 185 186
f 134 186 135
f 135 186 187
f 135 187 136
f 136 187 188
f 136 188 137
f 137 188 189
f 137 189 138
f 138 189 190
f 138 190 139
f 139 190 191
f 139 191 140
f 140 191 192
f 140 192 141
f 141 192 193
f 141 193 142
f 142 193 194
f 142 194 143
f 143 194 195
f 143 195 144
f 144 195 196
f 144 196 145
f 145 196 197
f 145 197 146
f 146 197 198
f 146 198 147
f 147 198 199
f 147 199 148
f 148 199 200
f 148 200 149
f 149 200 201
f 149 201 150
f 150 201 202
f 150 202 151
f 151 202 203
f 151 203 152
f 152 203 204
f 152 204 153
f 153 204 205
f 153 205 154
f 154 205 206
f 154 206 155
f 155 206 207
f 155 207 156
f 156 207 208
f 156 208 157
f 157 208 209
f 157 209 158
f 158 209 210
f 158 210 159
f 159 210 211
f 159 211 160
f 160 211 212
f 160 212 161
f 161 212 213
f 161 213 162
f 162 213 214
f 162 214 163
f 163 214 215
f 163 215 164
f 164 215 216
f 164 216 165
f 165 216 217
f 165 217 166
f 166 217 218
f 166 218 167
f 167 218 219
f 167 219 168
f 168 219 220
f 168 220 169
f 169 220 221
f 169 221 170
f 170 221 222
f 170 222 171
f 171 222 223
f 171 223 172
f 172 223 224
f 172 224 173
f 173 224 225
f 173 225 174
f 174 225 226
f 174 226 175
f 175 226 227
f 175 227 176
f 176 227 228
f 176 228 177
f 177 228 229
f 177 229 178
f 178 229 230
f 178 230 179
f 179 230 180
f 230 231 180
f 180 231 232
f 180 232 181
f 181 232 233
f 181 233 182
f 182 233 234
f 182 234 183
f 183 234 235
f 183 235 184
f 184 235 236
f 184 236 185
f 185 236 237
f 185 237 186
f 186 237 238
f 186 238 187
f 187 238 239
f 187 239 188
f 188 239 240
f 188 240 189
f 189 240 241
f 189 241 190
f 190 241 242
f 190 242 191
f 191 242 243
f 191 243 192
f 192 243 244
f 192 244 193
f 193 244 245
f 193 245 194
f 194 245 246
f 194 246 195
f 195 246 247
f 195 247 196
f 196 247 248
f 196 248 197
f 197 248 249
f 197 249 198
f 198 249 250
f 198 250 199
f 199 250 251
f 199 251 200
f 200 251 252
f 200 252 201
f 201 252 253
f 201 253 202
f 202 253 254
f 202 254 203
f 203 254 255
f 203 255 204
f 204 255 256
f 204 256 205
f 205 256 257
f 205 257 206
f 206 257 258
f 206 258 207
f 207 258 259
f 207 259 208
f 208 259 260
f 208 260 209
f 209 260 261
f 209 261 210
f 210 261 262
f 210 262 211
f 211 262 263
f 211 263 212
f 212 263 264
f 212 264 213
f 213 264 265
f 213 265 214
f 214 265 266
f 214 266 215
f 215 266 267
f 215 267 216
f 216 267 268
f 216 268 217
f 217 268 269
f 217 269 218
f 218 269 270
f 218 270 219
f 219 270 271
f 219 271 220
f 220 271 272
f 220 272 221
f 221 272 273
f 221 273 222
f 222 273 274
f 222 274 223
f 223 274 275
f 223 275 224
f 224 275 276
f 224 276 225
f 225 276 277
f 225 277 226
f 226 277 278
f 226 278 227
f 227 278 279
f 227 279 228
f 228 279 280
f 228 280 229
f 229 280 281
f 229 281 230
f 230 281 231
f 281 282 231
f 231 282 283
f 231 283 232
f 232 283 284
f 232 284 233
f 233 284 285
f 233 285 234
f 234 285 286
f 234 286 235
f 235 286 287
f 235 287 236
f 236 287 288
f 236 288 237
f 237 288 289
f 237 289 238
f 238 289 290
f 238 290 239
f 239 290 291
f 239 291 240
f 240 291 292
f 240 292 241
f 241 292 293
f 241 293 242
f 242 293 294
f 242 294 243
f 243 294 295
f 243 295 244
f 244 295 296
f 244 296 245
f 245 296 297
f 245 297 246
f 246 297 298
f 246 298 247
f 247 298 299
f 247 299 248
f 248 299 300
f 248 300 249
f 249 300 301
f 249 301 250
f 250 301 302
f 250 302 251
f 251 302 303
f 251 303 252
f 252 303 304
f 252 304 253
f 253 304 305
f 253 305 254
f 254 305 306
f 254 306 255
f 255 306 307
f 255 307 256
f 256 307 308
f 256 308 257
f 257 308 309
f 257 309 258
f 258 309 310
f 258 310 259
f 259 310 311
f 259 311 260
f 260 311 312
f 260 312 261
f 261 312 313
f 261 313 262
f 262 313 314
f 262 314 263
f 263 314 315
f 263 315 264
f 264 315 316
f 264 316 265
f 265 316 317
f 265 317 266
f 266 317 318
f 266 318 267
f 267 318 319
f 267 319 268
f 268 319 320
f 268 320 269
f 269 320 321
f 269 321 270
f 270 321 322
f 270 322 271
f 271 322 323
f 271 323 272
f 272 323 324
f 272 324 273
f 273 324 325
f 273 325 274
f 274 325 326
f 274 326 275
f 275 326 327
f 275 327 276
f 276 327 328
f 276 328 277
f 277 328 329
f 277 329 278
f 278 329 330
f 278 330 279
f 279 330 331
f 279 331 280
f 280 331 332
f 280 332 281
f 281 332 282
f 332 333 282
f 282 333 334
f 282 334 283
f 283 334 335
f 283 335 284
f 284 335 336
f 284 336 285
f 285 336 337
f 285 337 286
f 286 337 338
f 286 338 287
f 287 338 339
f 287 339 288
f 288 339 340
f 288 340 289
f 289 340 341
f 289 341 290
f 290 341 342
f 290 342 291
f 291 342 343
f 291 343 292
f 292 343 344
f 292 344 293
f 293 344 345
f 293 345 294
f 294 345 346
f 294 346 295
f 295 346 347
f 295 347 296
f 296 347 348
f 296 348 297
f 297 348 349
f 297 349 298
f 298 349 350
f 298 350 299
f 299 350 351
f 299 351 300
f 300 351 352
f 300 352 301
f 301 352 353
f 301 353 302
f 302 353 354
f 302 354 303
f 303 354 355
f 303 355 304
f 304 355 356
f 304 356 305
f 305 356 357
f 305 357 306
f 306 357 358
f 306 358 307
f 307 358 359
f 307 359 308
f 308 359 360
f 308 360 309
f 309 360 361
f 309 361 310
f 310 361 362
f 310 362 311
f 311 362 363
f 311 363 312
f 312 363 364
f 312 364 313
f 313 364 365
f 313 365 314
f 314 365 366
f 314 366 315
f 315 366 367
f 315 367 316
f 316 367 368
f 316 368 317
f 317 368 369
f 317 369 318
f 318 369 370
f 318 370 319
f 319 370 371
f 319 371 320
f 320 371 372
f 320 372 321
f 321 372 373
f 321 373 322
f 322 373 374
f 322 374 323
f 323 374 375
f 323 375 324
f 324 375 376
f 324 376 325
f 325 376 377
f 325 377 326
f 326 377 378
f 326 378 327
f 327 378 379
f 327 379 328
f 328 379 380
f 328 380 329
f 329 380 381
f 329 381 330
f 330 381 382
f 330 382 331
f 331 382 383
f 331 383 332
f 332 383 333
f 383 384 333
f 333 384 385
f 333 385 334
f 334 385 386
f 334 386 335
f 335 386 387
f 335 387 336
f 336 387 388
f 336 388 337
f 337 388 389
f 337 389 338
f 338 389 390
f 338 390 339
f 339 390 391
f 339 391 340
f 340 391 392
f 340 392 341
f 341 392 393
f 341 393 342
f 342 393 394
f 342 394 343
f 343 394 395
f 343 395 344
f 344 395 396
f 344 396 345
f 345 396 397
f 345 397 346
f 346 397 398
f 346 398 347
f 347 398 399
f 347 399 348
f 348 399 400
f 348 400 349
f 349 400 401
f 349 401 350
f 350 401 402
f 350 402 351
f 351 402 403
f 351 403 352
f 352 403 404
f 352 404 353
f 353 404 405
f 353 405 354
f 354 405 406
f 354 406 355
f 355 406 407
f 355 407 356
f 356 407 408
f 356 408 357
f 357 408 409
f 357 409 358
f 358 409 410
f 358 410 359
f 359 410 411
f 359 411 360
f 360 411 412
f 360 412 361
f 361 412 413
f 361 413 362
f 362 413 414
f 362 414 363
f 363 414 415
f 363 415 364
f 364 415 416
f 364 416 365
f 365 416 417
f 365 417 366
f 366 417 418
f 366 418 367
f 367 418 419
f 367 419 368
f 368 419 420
f 368 420 369
f 369 420 421
f 369 421 370
f 370 421 422
f 370 422 371
f 371 422 423
f 371 423 372
f 372 423 424
f 372 424 373
f 373 424 425
f 373 425 374
f 374 425 426
f 374 426 375
f 375 426 427
f 375 427 376
f 376 427 428
f 376 428 377
f 377 428 429
f 377 429 378
f 378 429 430
f 378 430 379
f 379 430 431
f 379 431 380
f 380 431 432
f 380 432 381
f 381 432 433
f 381 433 382
f 382 433 434
f 382 434 383
f 383 434 384
f 434 435 384
f 384 435 436
f 384 436 385
f 385 436 437
f 385 437 386
f 386 437 438
f 386 438 387
f 387 438 439
f 387 439 388
f 388 439 440
f 388 440 389
f 389 440 441
f 389 441 390
f 390 441 442
f 390 442 391
f 391 442 443
f 391 443 392
f 392 443 444
f 392 444 393
f 393 444 445
f 393 445 394
f 394 445 446
f 394 446 395
f 395 446 447
f 395 447 396
f 396 447 448
f 396 448 397
f 397 448 449
f 397 449 398
f 398 449 450
f 398 450 399
f 399 450 451
f 399 451 400
f 400 451 452
f 400 452 401
f 401 452 453
f 401 453 402
f 402 453 454
f 402 454 403
f 403 454 455
f 403 455 404
f 404 455 456
f 404 456 405
f 405 456 457
f 405 457 406
f 406 457 458
f 406 458 407
f 407 458 459
f 407 459 408
f 408 459 460
f 408 460 409
f 409 460 461
f 409 461 410
f 410 461 462
f 410 462 411
f 411 462 463
f 411 463 412
f 412 463 464
f 412 464 413
f 413 464 465
f 413 465 414
f 414 465 466
f 414 466 415
f 415 466 467
f 415 467 416
f 416 467 468
f 416 468 417
f 417 468 469
f 417 469 418
f 418 469 470
f 418 470 419
f 419 470 471
f 419 471 420
f 420 471 472
f 420 472 421
f 421 472 473
f 421 473 422
f 422 473 474
f 422 474 423
f 423 474 475
f 423 475 424
f 424 475 476
f 424 476 425
f 425 476 477
f 425 477 426
f 426 477 478
f 426 478 427
f 427 478 479
f 427 479 428
f 428 479 480
f 428 480 429
f 429 480 481
f 429 481 430
f 430 481 482
f 430 482 431
f 431 482 483
f 431 483 432
f 432 483 484
f 432 484 433
f 433 484 485
f 433 485 434
f 434 485 435
f 485 486 435
f 435 486 487
f 435 487 436
f 436 487 488
f 436 488 437
f 437 488 489
f 437 489 438
f 438 489 490
f 438 490 439
f 439 490 491
f 439 491 440
f 440 491 492
f 440 492 441
f 441 492 493
f 441 493 442
f 442 493 494
f 442 494 443
f 443 494 495
f 443 495 444
f 444 495 496
f 444 496 445
f 445 496 497
f 445 497 446
f 446 497 498
f 446 498 447
f 447 498 499
f 447 499 448
f 448 499 500
f 448 500 449
f 449 500 501
f 449 501 450
f 450 501 502
f 450 502 451
f 451 502 503
f 451 503 452
f 452 503 504
f 452 504 453
f 453 504 505
f 453 505 454
f 454 505 506
f 454 506 455
f 455 506 507
f 455 507 456
f 456 507 508
f 456 508 457
f 457 508 509
f 457 509 458
f 458 509 510
f 458 510 459
f 459 510 511
f 459 511 460
f 460 511 512
f 460 512 461
f 461 512 513
f 461 513 462
f 462 513 514
f 462 514 463
f 463 514 515
f 463 515 464
f 464 515 516
f 464 516 465
f 465 516 517
f 465 517 466
f 466 517 518
f 466 518 467
f 467 518 519
f 467 519 468
f 468 519 520
f 468 520 469
f 469 520 521
f 469 521 470
f 470 521 522
f 470 522 471
f 471 522 523
f 471 523 472
f 472 523 524
f 472 524 473
f 473 524 525
f 473 525 474
f 474 525 526
f 474 526 475
f 475 526 527
f 475 527 476
f 476 527 528
f 476 528 477
f 477 528 529
f 477 529 478
f 478 529 530
f 478 530 479
f 479 530 531
f 479 531 480
f 480 531 532
f 480 532 481
f 481 532 533
f 481 533 482
f 482 533 534
f 482 534 483
f 483 534 535
f 483 535 484
f 484 535 536
f 484 536 485
f 485 536 486
f 536 537 486
f 486 537 538
f 486 538 487
f 487 538 539
f 487 539 488
f 488 539 540
f 488 540 489
f 489 540 541
f 489 541 490
f 490 541 542
f 490 542 491
f 491 542 543
f 491 543 492
f 492 543 544
f 492 544 493
f 493 544 545
f 493 545 494
f 494 545 546
f 494 546 495
f 495 546 547
f 495 547 496
f 496 547 548
f 496 548 497
f 497 548 549
f 497 549 498
f 498 549 550
f 498 550 499
f 499 550 551
f 499 551 500
f 500 551 552
f 500 552 501
f 501 552 553
f 501 553 502
f 502 553 554
f 502 554 503
f 503 554 555
f 503 555 504
f 504 555 556
f 504 556 505
f 505 556 557
f 505 557 506
f 506 557 558
f 506 558 507
f 507 558 559
f 507 559 508
f 508 559 560
f 508 560 509
f 509 560 561
f 509 561 510
f 510 561 562
f 510 562 511
f 511 562 563
f 511 563 512
f 512 563 564
f 512 564 513
f 513 564 565
f 513 565 514
f 514 565 566
f 514 566 515
f 515 566 567
f 515 567 516
f 516 567 568
f 516 568 517
f 517 568 569
f 517 569 518
f 518 569 570
f 518 570 519
f 519 570 571
f 519 571 520
f 520 571 572
f 520 572 521
f 521 572 573
f 521 573 522
f 522 573 574
f 522 574 523
f 523 574 575
f 523 575 524
f 524 575 576
f 524 576 525
f 525 576 577
f 525 577 526
f 526 577 578
f 526 578 527
f 527 578 579
f 527 579 528
f 528 579 580
f 528 580 529
f 529 580 581
f 529 581 530
f 530 581 582
f 530 582 531
f 531 582 583
f 531 583 532
f 532 583 584
f 532 584 533
f 533 584 585
f 533 585 534
f 534 585 586
f 534 586 535
f 535 586 587
f 535 587 536
f 536 587 537
f 587 588 537
f 537 588 589
f 537 589 538
f 538 589 590
f 538 590 539
f 539 590 591
f 539 591 540
f 540 591 592
f 540 592 541
f 541 592 593
f 541 593 542
f 542 593 594
f 542 594 543
f 543 594 595
f 543 595 544
f 544 595 596
f 544 596 545
f 545 596 597
f 545 597 546
f 546 597 598
f 546 598 547
f 547 598 599
f 547 599 548
f 548 599 600
f 548 600 549
f 549 600 601
f 549 601 550
f 550 601 602
f 550 602 551
f 551 602 603
f 551 603 552
f 552 603 604
f 552 604 553
f 553 604 605
f 553 605 554
f 554 605 606
f 554 606 555
f 555 606 607
f 555 607 556
f 556 607 608
f 556 608 557
f 557 608 609
f 557 609 558
f 558 609 610
f 558 610 559
f 559 610 611
f 559 611 560
f 560 611 612
f 560 612 561
f 561 612 613
f 561 613 562
f 562 613 614
f 562 614 563
f 563 614 615
f 563 615 564
f 564 615 616
f 564 616 565
f 565 616 617
f 565 617 566
f 566 617 618
f 566 618 567
f 567 618 619
f 567 619 568
f 568 619 620
f 568 620 569
f 569 620 621
f 569 621 570
f 570 621 622
f 570 622 571
f 571 622 623
f 571 623 572
f 572 623 624
f 572 624 573
f 573 624 625
f 573 625 574
f 574 625 626
f 574 626 575
f 575 626 627
f 575 627 576
f 576 627 628
f 576 628 577
f 577 628 629
f 577 629 578
f 578 629 630
f 578 630 579
f 579 630 631
f 579 631 580
f 580 631 632
f 580 632 581
f 581 632 633
f 581 633 582
f 582 633 634
f 582 634 583
f 583 634 635
f 583 635 584
f 584 635 636
f 584 636 585
f 585 636 637
f 585 637 586
f 586 637 638
f 586 638 587
f 587 638 588
f 638 639 588
f 588 639 640
f 588 640 589
f 589 640 641
f 589 641 590
f 590 641 642
f 590 642 591
f 591 642 643
f 591 643 592
f 592 643 644
f 592 644 593
f 593 644 645
f 593 645 594
f 594 645 646
f 594 646 595
f 595 646 647
f 595 647 596
f 596 647 648
f 596 648 597
f 597 648 649
f 597 649 598
f 598 649 650
f 598 650 599
f 599 650 651
f 599 651 600
f 600 651 652
f 600 652 601
f 601 652 653
f 601 653 602
f 602 653 654
f 602 654 603
f 603 654 655
f 603 655 604
f 604 655 656
f 604 656 605
f 605 656 657
f 605 657 606
f 606 657 658
f 606 658 607
f 607 658 659
f 607 659 608
f 608 659 660
f 608 660 609
f 609 660 661
f 609 661 610
f 610 661 662
f 610 662 611
f 611 662 663
f 611 663 612
f 612 663 664
f 612 664 613
f 613 664 665
f 613 665 614
f 614 665 666
f 614 666 615
f 615 666 667
f 615 667 616
f 616 667 668
f 616 668 617
f 617 668 669
f 617 669 618
f 618 669 670
f 618 670 619
f 619 670 671
f 619 671 620
f 620 671 672
f 620 672 621
f 621 672 673
f 621 673 622
f 622 673 674
f 622 674 623
f 623 674 675
f 623 675 624
f 624 675 676
f 624 676 625
f 625 676 677
f 625 677 626
f 626 677 678
f 626 678 627
f 627 678 679
f 627 679 628
f 628 679 680
f 628 680 629
f 629 680 681
f 629 681 630
f 630 681 682
f 630 682 631
f 631 682 683
f 631 683 632
f 632 683 684
f 632 684 633
f 633 684 685
f 633 685 634
f 634 685 686
f 634 686 635
f 635 686 687
f 635 687 636
f 636 687 688
f 636 688 637
f 637 688 689
f 637 689 638
f 638 689 639
f 689 78 639
f 639 78 77
f 639 77 640
f 640 77 80
f 640 80 641
f 641 80 81
f 641 81 642
f 642 81 82
f 642 82 643
f 643 82 83
f 643 83 644
f 644 83 84
f 644 84 645
f 645 84 85
f 645 85 646
f 646 85 86
f 646 86 647
f 647 86 87
f 647 87 648
f 648 87 88
f 648 88 649
f 649 88 89
f 649 89 650
f 650 89 90
f 650 90 651
f 651 90 91
f 651 91 652
f 652 91 92
f 652 92 653
f 653 92 93
f 653 93 654
f 654 93 94
f 654 94 655
f 655 94 95
f 655 95 656
f 656 95 96
f 656 96 657
f 657 96 97
f 657 97 658
f 658 97 98
f 658 98 659
f 659 98 99
f 659 99 660
f 660 99 100
f 660 100 661
f 661 100 101
f 661 101 662
f 662 101 102
f 662 102 663
f 663 102 103
f 663 103 664
f 664 103 104
f 664 104 665
f 665 104 105
f 665 105 666
f 666 105 106
f 666 106 667
f 667 106 107
f 667 107 668
f 668 107 108
f 668 108 669
f 669 108 109
f 669 109 670
f 670 109 110
f 670 110 671
f 671 110 111
f 671 111 672
f 672 111 112
f 672 112 673
f 673 112 113
f 673 113 674
f 674 113 114
f 674 114 675
f 675 114 115
f 675 115 676
f 676 115 116
f 676 116 677
f 677 116 117
f 677 117 678
f 678 117 118
f 678 118 679
f 679 118 119
f 679 119 680
f 680 119 120
f 680 120 681
f 681 120 121
f 681 121 682
f 682 121 122
f 682 122 683
f 683 122 123
f 683 123 684
f 684 123 124
f 684 124 685
f 685 124 125
f 685 125 686
f 686 125 126
f 686 126 687
f 687 126 127
f 687 127 688
f 688 127 128
f 688 128 689
f 689 128 78

