# https://github.com/mikedh/trimesh
v -0.00223869 -0.00139475 -0.00042334
v -0.00223869 -0.00127887 -0.00069932
v -0.00279880 -0.00117629 -0.00054960
v -0.00072261 -0.00243518 -0.00133162
v -0.00060318 -0.00260021 -0.00151761
v -0.00106425 -0.00197756 -0.00115420
v -0.00036511 0.00222947 0.00311161
v -0.00036495 0.00177129 0.00339466
v -0.00045729 0.00193031 0.00280259
v -0.00045729 0.00131712 0.00313780
v -0.00045729 0.00289005 0.00179672
v -0.00036480 0.00302776 0.00234560
v -0.00045729 0.00246209 0.00234919
v -0.00036503 0.00265489 0.00275829
v -0.00036508 0.00247357 0.00292152
v -0.00289704 -0.00110744 0.00064618
v -0.00333524 -0.00086233 0.00090492
v -0.00289704 -0.00095209 0.00085877
v -0.00333524 -0.00072485 0.00101838
v -0.00289705 -0.00075660 0.00103515
v -0.00333525 -0.00061069 0.00109067
v -0.00289705 -0.00052919 0.00116787
v -0.00333525 -0.00035691 0.00119796
v -0.00289705 -0.00027947 0.00125134
v -0.00333525 -0.00004854 0.00124906
v -0.00289705 -0.00001797 0.00128205
v -0.00333525 0.00026265 0.00122210
v -0.00289705 0.00024430 0.00125868
v -0.00333525 0.00065154 0.00106677
v -0.00289705 0.00049626 0.00118224
v -0.00333525 0.00070904 0.00102945
v -0.00289705 0.00072729 0.00105594
v -0.00333525 0.00090438 0.00086290
v -0.00289705 0.00092765 0.00088511
v -0.00333525 0.00106157 0.00065997
v -0.00289705 0.00108890 0.00067696
v -0.00333525 0.00107957 0.00063009
v -0.00248822 0.00118499 0.00069162
v -0.00333524 -0.00117917 0.00041478
v -0.00333524 -0.00112088 0.00055330
v -0.00333524 -0.00105988 0.00066269
v -0.00289704 -0.00121608 0.00040633
v -0.00289704 -0.00127344 0.00014935
v -0.00333524 -0.00124523 0.00010907
v -0.00289704 -0.00127710 -0.00011392
v -0.00333524 -0.00124923 -0.00004392
v -0.00289704 -0.00122690 -0.00037239
v -0.00333523 -0.00115902 -0.00046816
v -0.00333524 -0.00123336 -0.00020327
v -0.00333523 -0.00107957 -0.00063009
v -0.00248821 -0.00118499 -0.00069162
v -0.00171011 -0.00149266 -0.00087119
v -0.00112269 -0.00195131 -0.00106703
v -0.00036468 -0.00347202 -0.00161864
v -0.00036443 -0.00330996 -0.00193185
v -0.00045728 -0.00298577 -0.00163270
v -0.00036679 -0.00381576 -0.00001626
v -0.00036636 -0.00378614 -0.00049873
v -0.00045728 -0.00338956 -0.00030235
v -0.00036588 -0.00372995 -0.00083507
v -0.00045728 -0.00325633 -0.00098837
v -0.00036557 -0.00368638 -0.00101839
v -0.00036483 -0.00352257 -0.00150276
v -0.00045728 -0.00337985 0.00039641
v -0.00036676 -0.00376868 0.00059933
v -0.00036682 -0.00381529 0.00004937
v -0.00036478 -0.00319109 0.00211828
v -0.00036575 -0.00345788 0.00163108
v -0.00045729 -0.00293926 0.00171503
v -0.00036582 -0.00347840 0.00158562
v -0.00045728 -0.00322761 0.00107846
v -0.00036641 -0.00365312 0.00111172
v -0.00036665 -0.00373156 0.00080207
v -0.00036441 -0.00306583 0.00230026
v -0.00045729 -0.00252696 0.00227927
v -0.00036458 -0.00291697 0.00248437
v -0.00045729 -0.00200809 0.00274739
v -0.00036607 -0.00217237 0.00314341
v -0.00036542 -0.00249694 0.00289840
v -0.00036521 -0.00259573 0.00281225
v -0.00036659 -0.00181384 0.00335887
v -0.00045729 -0.00140454 0.00309966
v -0.00036670 -0.00170172 0.00341616
v -0.00045729 -0.00074175 0.00332121
v -0.00036680 -0.00105147 0.00366810
v -0.00036685 -0.00125458 0.00360334
v -0.00045729 -0.00004769 0.00340269
v -0.00036620 -0.00024121 0.00381250
v -0.00036665 -0.00074821 0.00374284
v -0.00036464 0.00127128 0.00361414
v -0.00036445 0.00080528 0.00374692
v -0.00045729 0.00064839 0.00334069
v -0.00036534 0.00035674 0.00380955
v -0.00036615 -0.00019837 0.00381532
v -0.00072261 -0.00265584 -0.00080611
v -0.00072261 -0.00276451 -0.00024660
v -0.00072261 -0.00275659 0.00032331
v -0.00072261 -0.00263243 0.00087959
v -0.00072261 -0.00239725 0.00139877
v -0.00072262 -0.00206097 0.00185896
v -0.00072262 -0.00163779 0.00224076
v -0.00072262 -0.00114553 0.00252807
v -0.00072262 -0.00060497 0.00270876
v -0.00072262 -0.00003889 0.00277522
v -0.00072262 0.00052882 0.00272465
v -0.00072262 0.00107424 0.00255918
v -0.00072262 0.00157435 0.00228578
v -0.00072262 0.00200807 0.00191599
v -0.00072262 0.00235711 0.00146540
v -0.00112269 -0.00212813 -0.00064594
v -0.00112269 -0.00221521 -0.00019760
v -0.00112269 -0.00220886 0.00025907
v -0.00112269 -0.00210937 0.00070481
v -0.00112270 -0.00192092 0.00112084
v -0.00112270 -0.00165146 0.00148959
v -0.00112270 -0.00131236 0.00179553
v -0.00112270 -0.00091792 0.00202575
v -0.00112270 -0.00048476 0.00217054
v -0.00112270 -0.00003117 0.00222379
v -0.00112270 0.00042375 0.00218327
v -0.00112270 0.00086079 0.00205067
v -0.00112270 0.00126153 0.00183160
v -0.00112270 0.00160907 0.00153529
v -0.00112270 0.00188876 0.00117423
v -0.00163689 -0.00155913 -0.00085258
v -0.00163689 -0.00170042 -0.00051611
v -0.00163689 -0.00176999 -0.00015789
v -0.00163689 -0.00176492 0.00020700
v -0.00163689 -0.00168542 0.00056316
v -0.00163690 -0.00153485 0.00089557
v -0.00163690 -0.00131955 0.00119021
v -0.00163690 -0.00104860 0.00143466
v -0.00163690 -0.00073343 0.00161861
v -0.00163690 -0.00038733 0.00173430
v -0.00163690 -0.00002490 0.00177685
v -0.00163690 0.00033858 0.00174447
v -0.00163690 0.00068779 0.00163852
v -0.00163690 0.00100798 0.00146348
v -0.00163690 0.00128568 0.00122672
v -0.00163690 0.00150915 0.00093823
v -0.00106426 0.00197755 0.00115420
v -0.00060320 0.00260020 0.00151762
v -0.00036445 0.00330996 0.00193186
v -0.00223869 -0.00145182 -0.00012951
v -0.00223869 -0.00144766 0.00016979
v -0.00223869 -0.00138245 0.00046192
v -0.00223869 -0.00125895 0.00073458
v -0.00223869 -0.00108235 0.00097626
v -0.00223869 -0.00086011 0.00117676
v -0.00223869 -0.00060159 0.00132765
v -0.00223869 -0.00031771 0.00142254
v -0.00223869 -0.00002043 0.00145744
v -0.00223869 0.00027772 0.00143088
v -0.00223869 0.00056415 0.00134398
v -0.00223869 0.00082679 0.00120040
v -0.00223869 0.00105456 0.00100620
v -0.00223869 0.00123787 0.00076957
v -0.00171012 0.00149266 0.00087119
v 0.00002479 0.00138722 0.00645469
v 0.00002756 0.00160684 0.00642391
v 0.00004147 0.00192831 0.00643823
v 0.00003139 0.00656322 -0.00106456
v 0.00004936 0.00673063 -0.00079023
v -0.00036680 0.00381575 0.00001644
v 0.00006775 0.00687936 -0.00062443
v -0.00036582 0.00347844 -0.00158545
v 0.00004147 0.00643821 -0.00192816
v 0.00002757 0.00642391 -0.00160680
v -0.00036682 0.00381527 -0.00004932
v -0.00036676 0.00376866 -0.00059930
v 0.00002480 0.00645469 -0.00138722
v -0.00036666 0.00373157 -0.00080188
v -0.00036641 0.00365310 -0.00111168
v 0.00006775 -0.00062454 -0.00687925
v -0.00036618 0.00024126 -0.00381247
v 0.00004936 -0.00079033 -0.00673056
v -0.00036613 0.00019830 -0.00381530
v 0.00003140 -0.00106457 -0.00656322
v -0.00036532 -0.00035682 -0.00380953
v -0.00036442 -0.00080528 -0.00374692
v 0.00002482 -0.00138722 -0.00645469
v 0.00006775 -0.00012325 -0.00690644
v 0.00006775 0.00043624 -0.00689375
v -0.00036663 0.00074815 -0.00374282
v 0.00006775 0.00089574 -0.00684922
v -0.00036678 0.00105154 -0.00366804
v 0.00006775 0.00189517 -0.00664248
v 0.00006775 0.00652845 -0.00225711
v 0.00006775 0.00634727 -0.00272530
v 0.00006775 0.00628548 -0.00286494
v -0.00036575 0.00345786 -0.00163104
v 0.00006775 0.00587642 -0.00363079
v -0.00036477 0.00319106 -0.00211824
v 0.00006775 0.00552544 -0.00414540
v -0.00036440 0.00306589 -0.00230010
v 0.00006775 0.00527729 -0.00445702
v -0.00036458 0.00291696 -0.00248431
v 0.00006775 0.00456296 -0.00518595
v -0.00036521 0.00259571 -0.00281220
v 0.00006775 0.00450864 -0.00523323
v -0.00036541 0.00249702 -0.00289827
v 0.00006775 0.00374902 -0.00580167
v -0.00036606 0.00217235 -0.00314336
v 0.00006775 0.00328234 -0.00607788
v -0.00036657 0.00181392 -0.00335877
v 0.00006775 0.00285324 -0.00629074
v -0.00036668 0.00170170 -0.00341612
v -0.00036683 0.00125453 -0.00360331
v 0.00006775 0.00690655 -0.00012315
v 0.00006775 0.00690759 0.00002970
v -0.00036637 0.00378613 0.00049877
v 0.00006775 0.00684933 0.00089583
v -0.00036589 0.00372991 0.00083523
v 0.00006775 0.00674075 0.00150937
v -0.00036558 0.00368637 0.00101841
v 0.00006775 0.00664259 0.00189526
v -0.00036484 0.00352256 0.00150278
v 0.00006775 0.00629084 0.00285331
v -0.00036469 0.00347195 0.00161877
v 0.00006775 0.00626068 0.00291890
v 0.00006775 0.00580178 0.00374908
v 0.00006775 0.00445714 0.00527735
v 0.00006775 0.00518606 0.00456302
v 0.00006775 0.00548969 0.00419280
v 0.00006775 0.00225725 0.00652851
v 0.00006775 0.00272544 0.00634733
v 0.00006775 0.00323011 0.00610598
v 0.00006775 0.00363092 0.00587648
v -0.01354403 0.00050357 -0.01037858
v -0.01354444 0.00135916 -0.01030074
v -0.01334462 0.00117067 -0.01059025
v -0.01334452 0.00298226 0.01022907
v -0.01332292 0.00224298 0.01043648
v -0.01302321 0.00228172 0.01061675
v -0.01354040 0.00305366 0.00993909
v -0.01354019 0.00218482 0.01016588
v -0.01334452 0.00423331 0.00977787
v -0.01354102 0.00389957 0.00963741
v -0.01334453 0.00541842 0.00917434
v -0.01354204 0.00471587 0.00926319
v -0.01354137 0.00422362 0.00949913
v -0.01334453 0.00651911 0.00842787
v -0.01354434 0.00586900 0.00857386
v -0.01354348 0.00549634 0.00881932
v -0.01334453 0.00751823 0.00755010
v -0.01354584 0.00693445 0.00773376
v -0.01354516 0.00623519 0.00830945
v -0.01354155 0.00853980 0.00592766
v -0.01354342 0.00818751 0.00639978
v -0.01334453 0.00840021 0.00655469
v -0.01354527 0.00758946 0.00709367
v -0.01354567 0.00732128 0.00736908
v -0.01354029 0.00872425 0.00565706
v -0.01334454 0.00915132 0.00545717
v -0.01354015 0.00884654 0.00546433
v -0.01354121 0.00929413 0.00465808
v -0.01334454 0.00975986 0.00427463
v -0.01354181 0.00947068 0.00428500
v -0.01354263 0.00967639 0.00379349
v -0.01334455 0.01021634 0.00302548
v -0.01354381 0.00996332 0.00295119
v -0.01334456 0.01051365 0.00172921
v -0.01354439 0.01015774 0.00218509
v -0.01354422 0.01008516 0.00250017
v -0.01334457 0.01061478 -0.00092355
v -0.01354394 0.01038129 0.00044822
v -0.01334456 0.01064715 0.00040599
v -0.01354407 0.01037131 0.00063474
v -0.01354438 0.01030796 0.00130421
v -0.01354179 0.01030533 -0.00136239
v -0.01354197 0.01031897 -0.00125217
v -0.01354308 0.01038246 -0.00045865
v -0.01354021 0.01016191 -0.00220301
v -0.01334457 0.01041703 -0.00223870
v -0.01354069 0.00999350 -0.00286867
v -0.01334458 0.01005698 -0.00351897
v -0.01354099 0.00992402 -0.00309857
v -0.01354185 0.00972421 -0.00367334
v -0.01334459 0.00954024 -0.00474441
v -0.01354326 0.00935021 -0.00453567
v -0.01334459 0.00887487 -0.00589594
v -0.01354448 0.00849228 -0.00598599
v -0.01354421 0.00892482 -0.00532064
v -0.01354368 0.00919538 -0.00484016
v -0.01354438 0.00816718 -0.00642278
v -0.01334460 0.00807123 -0.00695560
v -0.01354425 0.00796903 -0.00666741
v -0.01354360 0.00735824 -0.00733767
v -0.01334460 0.00714184 -0.00790690
v -0.01354286 0.00687259 -0.00779626
v -0.01354254 0.00669177 -0.00795280
v -0.01334461 0.00610118 -0.00873500
v -0.01354105 0.00597458 -0.00850819
v -0.01354033 0.00535150 -0.00891486
v -0.01334462 0.00496547 -0.00942701
v -0.01354039 0.00529417 -0.00894889
v -0.01354124 0.00467513 -0.00928550
v -0.01334462 0.00375239 -0.00997215
v -0.01354261 0.00383429 -0.00966034
v -0.01334462 0.00248085 -0.01036192
v -0.01354443 0.00222664 -0.01014865
v -0.01354381 0.00299213 -0.00995110
v -0.01354292 0.00364899 -0.00973124
v -0.01354451 0.00182808 -0.01022781
v -0.01354356 -0.00005210 -0.01039154
v -0.01334463 -0.00015776 -0.01065358
v -0.01354319 -0.00040327 -0.01038454
v -0.01334463 -0.00148373 -0.01055093
v -0.01354193 -0.00130739 -0.01031219
v -0.01300861 -0.00151296 -0.01075877
v -0.01302331 -0.00228168 -0.01061657
v -0.01332301 -0.00224294 -0.01043630
v -0.01267828 0.00162864 -0.01080611
v -0.01267829 0.00120070 -0.01086199
v -0.01300861 0.00119373 -0.01079886
v -0.01267830 -0.00016181 -0.01092695
v -0.01300861 -0.00016087 -0.01086345
v -0.01267828 -0.00025351 -0.01092520
v -0.01267830 -0.00152180 -0.01082166
v -0.01267829 -0.00229621 -0.01068417
v -0.01267829 0.00254451 -0.01062780
v -0.01300861 0.00252972 -0.01056604
v -0.01267828 0.00346229 -0.01036520
v -0.01300861 0.00382631 -0.01016859
v -0.01267829 0.00384867 -0.01022803
v -0.01300860 0.00506328 -0.00961271
v -0.01267828 0.00509287 -0.00966890
v -0.01267828 0.00519283 -0.00961559
v -0.01300859 0.00622136 -0.00890707
v -0.01267828 0.00625773 -0.00895913
v -0.01267825 0.00927484 -0.00577957
v -0.01267826 0.00910259 -0.00604723
v -0.01300858 0.00904969 -0.00601208
v -0.01267827 0.00827832 -0.00713408
v -0.01300859 0.00823022 -0.00709262
v -0.01267826 0.00814303 -0.00728812
v -0.01300859 0.00728252 -0.00806265
v -0.01267827 0.00732509 -0.00810978
v -0.01267827 0.00676872 -0.00857961
v -0.01267825 0.00978503 -0.00486615
v -0.01300857 0.00972817 -0.00483787
v -0.01267825 0.01013042 -0.00409890
v -0.01300856 0.01025508 -0.00358829
v -0.01267825 0.01031502 -0.00360927
v -0.01300856 0.01062222 -0.00228280
v -0.01267824 0.01068431 -0.00229615
v -0.01300855 0.01082387 -0.00094175
v -0.01267824 0.01088714 -0.00094725
v -0.01267821 0.01041842 0.00329913
v -0.01267822 0.01047847 0.00310311
v -0.01300853 0.01041758 0.00308508
v -0.01267822 0.01078341 0.00177357
v -0.01300854 0.01072075 0.00176327
v -0.01267822 0.01083049 0.00145877
v -0.01300855 0.01085688 0.00041399
v -0.01267823 0.01092034 0.00041640
v -0.01267823 0.01092000 -0.00042502
v -0.01267821 0.01001028 0.00438430
v -0.01300853 0.00995211 0.00435883
v -0.01267821 0.00969608 0.00504123
v -0.01300852 0.00933159 0.00556467
v -0.01267821 0.00938613 0.00559719
v -0.01267820 0.00868498 0.00663319
v -0.01300852 0.00856568 0.00668381
v -0.01267820 0.00861575 0.00672287
v -0.01300852 0.00766632 0.00769882
v -0.01267820 0.00771113 0.00774382
v -0.01300851 0.00431670 0.00997048
v -0.01267819 0.00555745 0.00940973
v -0.01300851 0.00552515 0.00935506
v -0.01267819 0.00592464 0.00918297
v -0.01300851 0.00664752 0.00859388
v -0.01267819 0.00668637 0.00864411
v -0.01267819 0.00741523 0.00802762
v -0.01267819 0.00229625 0.01068435
v -0.01267819 0.00305877 0.01049153
v -0.01300851 0.00304100 0.01043056
v -0.01267819 0.00425761 0.01006484
v -0.01267819 0.00434193 0.01002875
v -0.01354029 -0.00218478 -0.01016570
v 0.00009694 0.00994754 -0.00213781
v 0.00001881 0.01032640 -0.00221923
v 0.00001881 0.01051872 -0.00095721
v -0.00020339 0.01064606 -0.00228793
v -0.00020339 0.01084433 -0.00098684
v -0.00053493 0.01085655 -0.00233317
v -0.00053493 0.01105875 -0.00100636
v -0.00092400 0.01092500 -0.00234788
v -0.00092400 0.01112847 -0.00101270
v -0.00092400 0.01116600 -0.00043459
v -0.00053493 0.01109940 0.00033516
v -0.00092400 0.01116937 0.00033727
v -0.00092400 0.01107447 0.00149164
v -0.00053493 0.01097790 0.00167178
v -0.00092400 0.01104711 0.00168232
v -0.00092400 0.01076347 0.00300279
v -0.00053493 0.01069604 0.00298398
v -0.00092400 0.01065312 0.00337345
v -0.00053493 0.01025793 0.00425259
v -0.00092400 0.01032260 0.00427939
v -0.00053493 0.00966997 0.00545907
v -0.00092400 0.00991451 0.00515479
v -0.00092400 0.00973093 0.00549349
v -0.00092400 0.00899711 0.00662734
v -0.00053493 0.00894075 0.00658582
v -0.00092400 0.00888063 0.00678262
v -0.00053493 0.00808092 0.00761636
v -0.00092400 0.00813186 0.00766437
v -0.00053493 0.00710304 0.00853563
v -0.00092400 0.00758228 0.00820846
v -0.00092400 0.00233271 0.01092834
v -0.00053493 0.00231810 0.01085988
v -0.00092400 0.00234799 0.01092507
v -0.00053493 0.00361133 0.01050089
v -0.00092400 0.00363410 0.01056709
v -0.00053493 0.00485181 0.00998851
v -0.00092400 0.00488239 0.01005148
v -0.00053493 0.00602140 0.00933022
v -0.00092400 0.00605936 0.00938904
v -0.00092400 0.00714782 0.00858944
v -0.00020339 0.01088419 0.00032866
v -0.00020339 0.01076505 0.00163936
v -0.00020339 0.01048866 0.00292612
v -0.00020339 0.01005904 0.00417013
v -0.00020339 0.00948248 0.00535323
v -0.00020339 0.00876740 0.00645813
v -0.00020339 0.00792424 0.00746868
v -0.00020339 0.00696532 0.00837014
v -0.00020339 0.00590466 0.00914932
v -0.00020339 0.00475773 0.00979485
v -0.00020339 0.00354131 0.01029729
v -0.00020339 0.00227315 0.01064932
v 0.00001881 0.01055738 0.00031879
v 0.00001881 0.01044182 0.00159014
v 0.00001881 0.01017372 0.00283826
v 0.00001881 0.00975701 0.00404492
v 0.00001881 0.00919776 0.00519250
v 0.00001881 0.00850415 0.00626422
v 0.00001881 0.00768631 0.00724443
v 0.00001881 0.00675618 0.00811882
v 0.00001881 0.00572736 0.00887460
v 0.00001881 0.00461488 0.00950075
v 0.00001881 0.00343498 0.00998811
v 0.00001881 0.00220490 0.01032956
v 0.00009694 0.01013280 -0.00092209
v 0.00009694 0.01017004 0.00030710
v 0.00009694 0.01005872 0.00153181
v 0.00009694 0.00980046 0.00273413
v 0.00009694 0.00939903 0.00389652
v 0.00009694 0.00886030 0.00500199
v 0.00009694 0.00819214 0.00603439
v 0.00009694 0.00740430 0.00697864
v 0.00009694 0.00650831 0.00782095
v 0.00009694 0.00551723 0.00854901
v 0.00009694 0.00444556 0.00915218
v 0.00009694 0.00330895 0.00962166
v 0.00009694 0.00212401 0.00995058
v -0.01267821 -0.00319275 0.01045152
v -0.01267821 -0.00346225 0.01036536
v -0.00092400 -0.00354025 0.01059889
v -0.01267819 0.00138435 0.01084028
v -0.00092400 0.00101415 0.01112841
v -0.00092400 -0.00234715 -0.01092506
v -0.01267828 -0.00242616 -0.01065541
v -0.00092400 -0.00278018 -0.01082297
v -0.01267828 -0.00327250 -0.01042664
v -0.00092400 -0.00387583 -0.01048065
v -0.01267828 -0.00414285 -0.01011241
v -0.00092400 -0.00435350 -0.01029141
v -0.00092400 -0.00593330 -0.00946901
v -0.01267828 -0.00555740 -0.00940954
v -0.00092400 -0.00493058 -0.01002774
v -0.01267828 -0.00498350 -0.00972568
v -0.01267828 -0.00425757 -0.01006465
v -0.00092400 -0.00888059 -0.00678245
v -0.01267827 -0.00868492 -0.00663300
v -0.01267827 -0.00854007 -0.00681849
v -0.00092400 -0.00835134 -0.00742439
v -0.01267827 -0.00793261 -0.00751652
v -0.00092400 -0.00758224 -0.00820829
v -0.01267827 -0.00771108 -0.00774362
v -0.01267827 -0.00741517 -0.00802742
v -0.00092400 -0.00740734 -0.00836646
v -0.01267827 -0.00726828 -0.00816066
v -0.00092400 -0.00635783 -0.00918935
v -0.01267827 -0.00655184 -0.00874629
v -0.00092400 -0.00605808 -0.00938967
v -0.01267828 -0.00592459 -0.00918278
v -0.01267828 -0.00578842 -0.00926922
v -0.01267826 -0.00908629 -0.00607157
v -0.00092400 -0.00917638 -0.00637657
v -0.01267826 -0.00938607 -0.00559699
v -0.00092400 -0.00987072 -0.00523791
v -0.01267826 -0.00956737 -0.00528111
v -0.01267826 -0.00969602 -0.00504104
v -0.00092400 -0.00991447 -0.00515461
v -0.01267826 -0.00997985 -0.00445280
v -0.00092400 -0.01042445 -0.00402465
v -0.01267825 -0.01032078 -0.00359255
v -0.00092400 -0.01065308 -0.00337327
v -0.01267825 -0.01041835 -0.00329894
v -0.00092400 -0.01107443 -0.00149146
v -0.01267825 -0.01083041 -0.00145859
v -0.01267825 -0.01077874 -0.00180114
v -0.00092400 -0.01082970 -0.00275406
v -0.01267825 -0.01058772 -0.00270655
v -0.01267825 -0.01047841 -0.00310292
v -0.01267825 -0.01089248 -0.00088282
v -0.00092400 -0.01108069 -0.00144424
v -0.01267825 -0.01092027 -0.00041622
v -0.00092400 -0.01117384 -0.00011384
v -0.01267824 -0.01092812 0.00004183
v -0.01267824 -0.01091993 0.00042519
v -0.00092400 -0.01116596 0.00043477
v -0.01267824 -0.01088542 0.00096619
v -0.00092400 -0.01110783 0.00121818
v -0.01267824 -0.01076466 0.00188361
v -0.00092400 -0.01092496 0.00234806
v -0.01267824 -0.01068424 0.00229632
v -0.01267824 -0.01056673 0.00278754
v -0.00092400 -0.01088360 0.00253284
v -0.01267823 -0.01029304 0.00367147
v -0.00092400 -0.01050435 0.00381143
v -0.01267823 -0.01013035 0.00409906
v -0.00092400 -0.01035859 0.00419141
v -0.01267823 -0.00994554 0.00452909
v -0.00092400 -0.00997547 0.00503574
v -0.01267823 -0.00978496 0.00486632
v -0.00092400 -0.00850099 0.00725274
v -0.00092400 -0.00832644 0.00745248
v -0.01267822 -0.00814298 0.00728828
v -0.01267822 -0.00827826 0.00713424
v -0.01267822 -0.00848772 0.00688371
v -0.00092400 -0.00930450 0.00618831
v -0.01267822 -0.00903964 0.00614099
v -0.00092400 -0.00948374 0.00590995
v -0.01267823 -0.00927477 0.00577973
v -0.01267823 -0.00952674 0.00535423
v -0.00092400 -0.00530978 0.00983239
v -0.01267821 -0.00519278 0.00961575
v -0.00092400 -0.00541816 0.00977308
v -0.01267821 -0.00571744 0.00931335
v -0.00092400 -0.00654388 0.00905798
v -0.01267821 -0.00625767 0.00895929
v -0.01267821 -0.00648483 0.00879627
v -0.00092400 -0.00692117 0.00877307
v -0.01267822 -0.00676867 0.00857977
v -0.00092400 -0.00757640 0.00821386
v -0.01267822 -0.00720572 0.00821613
v -0.01267822 -0.00787495 0.00757708
v -0.00092400 -0.00421526 0.01034898
v -0.01267821 -0.00384862 0.01022819
v -0.01267821 -0.00406547 0.01014394
v -0.01267821 -0.00490905 0.00976365
v -0.01267820 -0.00229713 0.01068415
v -0.00092400 -0.00295231 0.01077746
v -0.01267820 -0.00162860 0.01080627
v -0.00092400 -0.00166529 0.01104974
v -0.01267820 -0.00138504 0.01084018
v -0.00092400 -0.00164731 0.01105244
v -0.01267820 -0.00046302 0.01091850
v -0.00092400 -0.00031885 0.01116998
v -0.01267819 0.00016185 0.01092711
v -0.00092400 0.00025926 0.01117152
v -0.01267819 0.00025355 0.01092537
v -0.01267819 0.00046232 0.01091853
v -0.01801361 -0.00080636 -0.00181355
v -0.01801361 -0.00094682 -0.00174434
v -0.01807196 -0.00082860 -0.00152653
v -0.01801361 -0.00112110 -0.00163778
v -0.01801361 -0.00139990 -0.00140693
v -0.01807196 -0.00122510 -0.00123125
v -0.01801361 -0.00163045 -0.00113173
v -0.01801361 -0.00173958 -0.00095554
v -0.01807196 -0.00152236 -0.00083623
v -0.01801361 -0.00189454 0.00059153
v -0.01801361 -0.00186133 0.00068894
v -0.01807196 -0.00162891 0.00060291
v -0.01801361 -0.00131245 0.00148884
v -0.01801361 -0.00119338 0.00158588
v -0.01807196 -0.00104437 0.00138786
v -0.01801361 -0.00102150 0.00170168
v -0.01801361 -0.00069825 0.00185786
v -0.01807196 -0.00061106 0.00162587
v -0.01801361 -0.00034921 0.00195377
v -0.01801361 -0.00014654 0.00197932
v -0.01807196 -0.00012824 0.00173217
v -0.01801361 0.00036878 0.00195017
v -0.01801361 0.00041703 0.00194043
v -0.01807196 0.00036496 0.00169814
v -0.01757213 -0.00065154 -0.00106677
v -0.01757213 -0.00059631 -0.00109859
v -0.01781835 -0.00062724 -0.00115556
v -0.01757213 -0.00124923 -0.00004392
v -0.01757213 -0.00122076 -0.00026876
v -0.01781835 -0.00128407 -0.00028270
v -0.01757213 -0.00112088 0.00055330
v -0.01757213 -0.00117228 0.00043390
v -0.01781835 -0.00123307 0.00045640
v -0.01757213 -0.00100255 0.00074659
v -0.01757213 -0.00088167 -0.00088609
v -0.01757213 -0.00124703 0.00008605
v -0.01781835 -0.00131170 0.00009052
v -0.01800072 -0.00148894 0.00010275
v -0.01800072 -0.00145757 -0.00032090
v -0.01807196 -0.00173279 0.00011957
v -0.01807196 -0.00169629 -0.00037345
v -0.01801361 0.00000995 0.00198471
v -0.01800072 -0.00011020 0.00148841
v -0.01800072 0.00031360 0.00145916
v -0.01781835 -0.00009708 0.00131123
v -0.01781835 0.00027627 0.00128547
v -0.01757213 -0.00009229 0.00124659
v -0.01757213 0.00026265 0.00122209
v -0.01800072 -0.00052507 0.00139707
v -0.01781835 -0.00046256 0.00123077
v -0.01757213 -0.00015572 0.00124026
v -0.01800072 -0.00089740 0.00119255
v -0.01781835 -0.00079057 0.00105059
v -0.01801361 -0.00175629 0.00092446
v -0.01801361 -0.00159183 0.00118543
v -0.01807196 -0.00139307 0.00103741
v -0.01801361 -0.00156010 0.00122689
v -0.01800072 -0.00119703 0.00089142
v -0.01781835 -0.00105454 0.00078531
v -0.01800072 -0.00139968 0.00051807
v -0.01757213 -0.00075160 0.00099880
v -0.01757213 -0.00043976 0.00117009
v -0.01801361 -0.00198003 0.00013664
v -0.01801361 -0.00197028 0.00023909
v -0.01801361 -0.00180826 -0.00081815
v -0.01801361 -0.00192642 -0.00047757
v -0.01801361 -0.00193832 -0.00042674
v -0.01801361 -0.00198103 -0.00012124
v -0.01800072 -0.00130813 -0.00071855
v -0.01781835 -0.00115241 -0.00063301
v -0.01757213 -0.00109560 -0.00060180
v -0.01800072 -0.00105270 -0.00105798
v -0.01781835 -0.00092739 -0.00093204
v -0.01757213 -0.00107925 -0.00063064
v -0.01800072 -0.00071199 -0.00131170
v -0.01807196 -0.00036496 -0.00169814
v -0.01801361 -0.00041703 -0.00194043
v -0.01801361 -0.00046503 -0.00192949
v -0.01800072 -0.00031360 -0.00145916
v -0.01781835 -0.00027627 -0.00128547
v -0.01757213 -0.00026265 -0.00122209
v -0.01354146 -0.00422355 -0.00949899
v -0.01354384 -0.00996333 -0.00295095
v -0.01354425 -0.01008510 -0.00250016
v -0.01430020 0.00092605 0.00894722
v -0.01435473 0.00078285 0.00885809
v -0.01354348 0.00005210 0.01039170
v -0.01447944 0.00053174 0.00863619
v -0.01454041 0.00043820 0.00852234
v -0.01462467 0.00033406 0.00836217
v -0.01477138 0.00021099 0.00808156
v -0.01485081 0.00017066 0.00793129
v -0.01492631 0.00014703 0.00778880
v -0.01511100 0.00014657 0.00743412
v -0.01519045 0.00017193 0.00728200
v -0.01527628 0.00021687 0.00711996
v -0.01542369 0.00034018 0.00684691
v -0.01550174 0.00044158 0.00669353
v -0.01573404 0.00131786 0.00613196
v -0.01571105 0.00102159 0.00622928
v -0.01564525 0.00074559 0.00639134
v -0.01554083 0.00050553 0.00661427
v -0.01425564 0.00106486 0.00901418
v -0.01354310 0.00040282 0.01038472
v -0.01418123 0.00136978 0.00910570
v -0.01354184 0.00130696 0.01031242
v -0.01413502 0.00168201 0.00913062
v -0.01412095 0.00195532 0.00909802
v -0.01354395 -0.00050402 0.01037871
v -0.01354437 -0.00135962 0.01030082
v -0.01354443 -0.00182810 0.01022794
v -0.01354255 -0.00383457 0.00966035
v -0.01354285 -0.00364903 0.00973135
v -0.01354374 -0.00299243 0.00995114
v -0.01354435 -0.00222700 0.01014871
v -0.01354119 -0.00467534 0.00928552
v -0.01354033 -0.00529433 0.00894891
v -0.01354250 -0.00669189 0.00795280
v -0.01354101 -0.00597471 0.00850820
v -0.01354028 -0.00535155 0.00891494
v -0.01354435 -0.00816722 0.00642281
v -0.01354422 -0.00796913 0.00666738
v -0.01354357 -0.00735835 0.00733766
v -0.01354282 -0.00687264 0.00779632
v -0.01354446 -0.00849237 0.00598595
v -0.01354419 -0.00892489 0.00532059
v -0.01354367 -0.00919541 0.00484018
v -0.01529158 -0.00655853 0.00270685
v -0.01519058 -0.00670964 0.00283513
v -0.01512288 -0.00681846 0.00290893
v -0.01494753 -0.00712297 0.00305331
v -0.01485075 -0.00730118 0.00310307
v -0.01477912 -0.00743839 0.00312612
v -0.01462012 -0.00776213 0.00313102
v -0.01453297 -0.00795012 0.00310196
v -0.01447621 -0.00807669 0.00306845
v -0.01434459 -0.00838752 0.00293182
v -0.01354324 -0.00935026 0.00453562
v -0.01425427 -0.00862844 0.00275773
v -0.01423772 -0.00867618 0.00271357
v -0.01354098 -0.00992403 0.00309857
v -0.01428685 -0.00853790 0.00283183
v -0.01354184 -0.00972426 0.00367324
v -0.01418538 -0.00883595 0.00253203
v -0.01414934 -0.00895666 0.00234170
v -0.01354068 -0.00999350 0.00286870
v -0.01413926 -0.00899433 0.00226587
v -0.01354021 -0.01016190 0.00220310
v -0.01412095 -0.00909802 0.00195532
v -0.01354180 -0.01030529 0.00136270
v -0.01413505 -0.00913063 0.00168175
v -0.01354198 -0.01031896 0.00125217
v -0.01435484 -0.00885795 0.00078264
v -0.01354409 -0.01037128 -0.00063474
v -0.01430022 -0.00894722 0.00092605
v -0.01354396 -0.01038127 -0.00044791
v -0.01425573 -0.00901408 0.00106463
v -0.01354308 -0.01038243 0.00045896
v -0.01424618 -0.00902750 0.00109763
v -0.01418129 -0.00910566 0.00136952
v -0.01447956 -0.00863600 0.00053157
v -0.01454043 -0.00852234 0.00043820
v -0.01462481 -0.00836194 0.00033394
v -0.01477163 -0.00808109 0.00021084
v -0.01485081 -0.00793129 0.00017066
v -0.01492621 -0.00778901 0.00014705
v -0.01511093 -0.00743428 0.00014656
v -0.01519047 -0.00728200 0.00017193
v -0.01527622 -0.00712011 0.00021682
v -0.01542362 -0.00684705 0.00034010
v -0.01554083 -0.00661427 0.00050553
v -0.01564524 -0.00639134 0.00074559
v -0.01550174 -0.00669353 0.00044158
v -0.01354440 -0.01030796 -0.00130390
v -0.01354442 -0.01015774 -0.00218485
v -0.01354267 -0.00967641 -0.00379324
v -0.01354185 -0.00947062 -0.00428497
v -0.01354126 -0.00929416 -0.00465783
v -0.01354020 -0.00884640 -0.00546438
v -0.01354573 -0.00732120 -0.00736900
v -0.01354533 -0.00758941 -0.00709356
v -0.01354347 -0.00818746 -0.00639967
v -0.01354160 -0.00853973 -0.00592761
v -0.01354033 -0.00872421 -0.00565696
v -0.01354591 -0.00693440 -0.00773364
v -0.01354523 -0.00623514 -0.00830932
v -0.01354213 -0.00471582 -0.00926305
v -0.01354355 -0.00549629 -0.00881918
v -0.01354442 -0.00586892 -0.00857375
v -0.01571538 -0.00159635 -0.00609931
v -0.01565947 -0.00189155 -0.00612243
v -0.01556643 -0.00219128 -0.00620947
v -0.01550165 -0.00234778 -0.00628406
v -0.01544063 -0.00247194 -0.00636033
v -0.01529023 -0.00270867 -0.00656041
v -0.01519053 -0.00283513 -0.00670964
v -0.01512130 -0.00291050 -0.00682101
v -0.01494583 -0.00305436 -0.00712600
v -0.01485075 -0.00310306 -0.00730118
v -0.01477760 -0.00312648 -0.00744134
v -0.01461872 -0.00313075 -0.00776507
v -0.01453297 -0.00310196 -0.00795011
v -0.01447497 -0.00306757 -0.00807950
v -0.01434360 -0.00293038 -0.00838998
v -0.01428682 -0.00283183 -0.00853791
v -0.01354111 -0.00389952 -0.00963725
v -0.01425391 -0.00275691 -0.00862938
v -0.01354049 -0.00305362 -0.00993892
v -0.01418510 -0.00253106 -0.00883667
v -0.01414931 -0.00234170 -0.00895666
v -0.01413924 -0.00226587 -0.00899433
v -0.01412095 -0.00195532 -0.00909802
v -0.01573404 -0.00131786 -0.00613196
v -0.01571105 -0.00622928 0.00102159
v -0.01573404 -0.00613196 0.00131786
v -0.01571540 -0.00609932 0.00159616
v -0.01565957 -0.00612236 0.00189115
v -0.01556668 -0.00620921 0.00219066
v -0.01550167 -0.00628404 0.00234773
v -0.01544310 -0.00635716 0.00246728
v 0.00009694 0.00915386 -0.00255948
v 0.00009694 0.00938919 -0.00201790
v -0.01412095 0.00909802 -0.00195532
v -0.01413924 0.00899433 -0.00226588
v -0.01414931 0.00895666 -0.00234170
v 0.00009694 0.00883317 -0.00289460
v -0.01418510 0.00883668 -0.00253105
v -0.01423766 0.00867624 -0.00271351
v -0.01425391 0.00862938 -0.00275691
v -0.01428682 0.00853791 -0.00283183
v 0.00009694 0.00872443 -0.00297028
v -0.01434360 0.00838998 -0.00293038
v 0.00009694 0.00825048 -0.00316619
v -0.01447498 0.00807950 -0.00306757
v -0.01453297 0.00795011 -0.00310196
v 0.00009694 0.00817372 -0.00318128
v -0.01461872 0.00776507 -0.00313075
v 0.00009694 0.00759357 -0.00316584
v 0.00009694 0.00707537 -0.00294014
v -0.01512130 0.00682100 -0.00291049
v 0.00009694 0.00702254 -0.00290228
v -0.01519053 0.00670965 -0.00283513
v 0.00009694 0.00680726 -0.00270532
v -0.01477760 0.00744134 -0.00312648
v -0.01485075 0.00730118 -0.00310306
v -0.01494583 0.00712600 -0.00305436
v 0.00009124 0.00667918 -0.00254143
v -0.01529024 0.00656040 -0.00270866
v 0.00008215 0.00660252 -0.00241509
v -0.01573404 0.00613196 -0.00131786
v -0.01571538 0.00609932 -0.00159633
v -0.01565947 0.00612243 -0.00189152
v -0.01556645 0.00620945 -0.00219124
v -0.01550165 0.00628406 -0.00234778
v -0.01544061 0.00636036 -0.00247198
v 0.00009694 -0.00255948 -0.00915386
v 0.00009694 -0.00201790 -0.00938919
v 0.00009694 -0.00289460 -0.00883317
v 0.00009694 -0.00297028 -0.00872443
v 0.00009694 -0.00316619 -0.00825048
v 0.00009694 -0.00318128 -0.00817372
v 0.00009694 -0.00316584 -0.00759357
v 0.00009694 -0.00294014 -0.00707536
v 0.00009694 -0.00290228 -0.00702254
v 0.00009694 -0.00270526 -0.00680721
v 0.00009124 -0.00254133 -0.00667911
v 0.00008216 -0.00241509 -0.00660252
v 0.00002758 -0.00160677 -0.00642391
v 0.00004148 -0.00192804 -0.00643819
v 0.00006775 -0.00225700 -0.00652841
v 0.00009694 -0.00915386 0.00255948
v 0.00009694 -0.00938919 0.00201790
v 0.00009694 -0.00883317 0.00289460
v 0.00009694 -0.00872443 0.00297028
v 0.00009694 -0.00825048 0.00316619
v 0.00009694 -0.00817372 0.00318128
v 0.00009694 -0.00759357 0.00316584
v 0.00009694 -0.00707537 0.00294015
v 0.00009694 -0.00702254 0.00290228
v 0.00009694 -0.00680729 0.00270534
v 0.00009124 -0.00667920 0.00254146
v 0.00008215 -0.00660252 0.00241509
v 0.00002480 -0.00645469 0.00138722
v 0.00002757 -0.00642391 0.00160681
v 0.00004147 -0.00643821 0.00192819
v 0.00006775 -0.00652846 0.00225714
v 0.00009694 0.00255948 0.00915386
v 0.00009694 0.00201790 0.00938919
v -0.01413740 0.00226504 0.00899475
v -0.01414698 0.00234168 0.00895672
v 0.00009694 0.00289460 0.00883317
v -0.01417689 0.00250839 0.00885330
v -0.01424680 0.00274276 0.00864514
v -0.01428623 0.00283189 0.00853784
v 0.00009694 0.00297028 0.00872442
v -0.01434476 0.00293206 0.00838710
v 0.00009694 0.00316619 0.00825048
v -0.01447696 0.00306899 0.00807497
v -0.01453295 0.00310196 0.00795012
v 0.00009694 0.00318128 0.00817372
v -0.01462096 0.00313118 0.00776032
v 0.00009694 0.00316584 0.00759357
v 0.00009694 0.00294015 0.00707537
v -0.01512376 0.00290800 0.00681697
v 0.00009694 0.00290228 0.00702254
v -0.01519056 0.00283513 0.00670964
v 0.00009694 0.00270541 0.00680734
v -0.01478004 0.00312590 0.00743658
v -0.01485074 0.00310307 0.00730119
v -0.01494860 0.00305263 0.00712100
v 0.00009124 0.00254157 0.00667927
v -0.01529223 0.00270595 0.00655760
v 0.00008214 0.00241509 0.00660252
v -0.01571536 0.00159644 0.00609931
v -0.01565941 0.00189175 0.00612247
v -0.01556632 0.00219159 0.00620959
v -0.01550168 0.00234769 0.00628402
v -0.01544503 0.00246361 0.00635468
v -0.01757213 0.00065154 0.00106677
v -0.01757213 0.00059631 0.00109859
v -0.01757213 0.00109560 0.00060180
v -0.00333524 0.00124922 0.00004392
v -0.01757213 0.00107925 0.00063064
v -0.00333524 0.00124505 0.00011106
v -0.00333524 0.00119611 0.00036305
v -0.00333524 0.00109673 0.00059973
v -0.01757213 0.00088167 0.00088609
v -0.01757213 0.00122076 0.00026876
v -0.01757213 0.00124923 0.00004392
v -0.00333524 0.00124149 -0.00014561
v -0.01757213 0.00124703 -0.00008605
v -0.00333524 0.00118557 -0.00039614
v -0.01757213 0.00117228 -0.00043390
v -0.00333524 0.00112087 -0.00055329
v -0.01757213 0.00112088 -0.00055330
v -0.00333523 -0.00023817 -0.00122710
v -0.01757213 0.00015572 -0.00124026
v -0.00333523 -0.00026265 -0.00122210
v -0.01757213 0.00009229 -0.00124659
v -0.00333523 0.00001752 -0.00124988
v -0.00333523 0.00027246 -0.00121994
v -0.01757213 0.00043976 -0.00117009
v -0.00333524 0.00051591 -0.00113856
v -0.01757213 0.00072485 -0.00101838
v -0.00333524 0.00072485 -0.00101838
v -0.01757213 0.00075160 -0.00099880
v -0.00333524 0.00073761 -0.00100917
v -0.01757213 0.00100255 -0.00074659
v -0.00333524 0.00092820 -0.00083722
v -0.00333524 0.00107965 -0.00062996
v -0.00333523 -0.00048381 -0.00115257
v -0.00333523 -0.00070904 -0.00102944
v -0.00333524 -0.00106157 -0.00065997
v -0.00333524 -0.00090438 -0.00086290
v 0.00008510 0.00048551 0.00704604
v 0.00006775 0.00062435 0.00687945
v 0.00004935 0.00079016 0.00673069
v 0.00003137 0.00106456 0.00656322
v 0.00009694 0.00033033 0.00731779
v 0.00009694 0.00023925 0.00759488
v 0.00009694 0.00020330 0.00789461
v 0.00009694 0.00023653 0.00823779
v 0.00009694 0.00031019 0.00847936
v 0.00009694 0.00050316 0.00882281
v 0.00009694 0.00063245 0.00897331
v 0.00009694 0.00099017 0.00924247
v 0.00009694 0.00111133 0.00930106
v 0.00009694 0.00160808 0.00941967
v 0.00009694 0.00166327 0.00942214
v 0.00008510 -0.00704594 0.00048558
v 0.00006775 -0.00687934 0.00062446
v 0.00004936 -0.00673062 0.00079025
v 0.00003139 -0.00656322 0.00106456
v 0.00009694 -0.00731768 0.00033038
v 0.00009694 -0.00759488 0.00023925
v 0.00009694 -0.00789450 0.00020330
v 0.00009694 -0.00823779 0.00023653
v 0.00009694 -0.00847925 0.00031014
v 0.00009694 -0.00882281 0.00050316
v 0.00009694 -0.00897322 0.00063237
v 0.00009694 -0.00924247 0.00099017
v 0.00009694 -0.00930101 0.00111122
v 0.00009694 -0.00941967 0.00160808
v 0.00009694 -0.00942214 0.00166316
v -0.01550173 -0.00044158 -0.00669353
v 0.00008510 -0.00048562 -0.00704588
v -0.01554083 -0.00050554 -0.00661427
v -0.01564524 -0.00074559 -0.00639133
v -0.01571105 -0.00102159 -0.00622928
v -0.01542349 -0.00033995 -0.00684731
v -0.01527622 -0.00021683 -0.00712009
v 0.00009694 -0.00033041 -0.00731760
v -0.01519046 -0.00017193 -0.00728200
v 0.00009694 -0.00023925 -0.00759488
v -0.01511093 -0.00014656 -0.00743424
v -0.01492625 -0.00014704 -0.00778892
v 0.00009694 -0.00020330 -0.00789441
v -0.01485069 -0.00017070 -0.00793147
v 0.00009694 -0.00023653 -0.00823779
v -0.01475381 -0.00022116 -0.00811191
v -0.01458994 -0.00036291 -0.00841125
v 0.00009694 -0.00031011 -0.00847917
v -0.01452883 -0.00043813 -0.00852241
v 0.00009694 -0.00050316 -0.00882281
v -0.01445058 -0.00055829 -0.00866495
v -0.01433392 -0.00079870 -0.00886933
v 0.00009694 -0.00063231 -0.00897316
v -0.01428615 -0.00092614 -0.00894752
v 0.00009694 -0.00099017 -0.00924247
v -0.01424559 -0.00105544 -0.00901041
v 0.00009694 -0.00111115 -0.00930098
v -0.01417635 -0.00135329 -0.00910268
v 0.00009694 -0.00160808 -0.00941967
v -0.01413481 -0.00165757 -0.00913111
v 0.00009694 -0.00166308 -0.00942214
v -0.01550174 0.00669353 -0.00044158
v 0.00008510 0.00704597 -0.00048556
v -0.01554083 0.00661427 -0.00050554
v -0.01564524 0.00639133 -0.00074559
v -0.01571105 0.00622928 -0.00102159
v -0.01542356 0.00684717 -0.00034003
v -0.01527620 0.00712015 -0.00021681
v 0.00009694 0.00731771 -0.00033036
v -0.01519047 0.00728200 -0.00017193
v 0.00009694 0.00759488 -0.00023925
v -0.01511091 0.00743432 -0.00014655
v -0.01492619 0.00778905 -0.00014706
v 0.00009694 0.00789453 -0.00020330
v -0.01485069 0.00793147 -0.00017070
v 0.00009694 0.00823779 -0.00023653
v -0.01475387 0.00811180 -0.00022112
v -0.01459003 0.00841104 -0.00036278
v 0.00009694 0.00847928 -0.00031016
v -0.01452881 0.00852241 -0.00043813
v 0.00009694 0.00882281 -0.00050316
v -0.01445116 0.00866391 -0.00055729
v -0.01433442 0.00886851 -0.00079749
v 0.00009694 0.00897325 -0.00063239
v -0.01428616 0.00894752 -0.00092613
v 0.00009694 0.00924247 -0.00099017
v -0.01424583 0.00901005 -0.00105459
v -0.01423462 0.00902662 -0.00109480
v 0.00009694 0.00930103 -0.00111125
v -0.01417646 0.00910257 -0.00135271
v 0.00009694 0.00941967 -0.00160808
v -0.01413483 0.00913111 -0.00165728
v 0.00009694 0.00942214 -0.00166319
v -0.01801361 0.00094682 0.00174434
v -0.01801361 0.00080636 0.00181355
v -0.01801361 0.00192642 0.00047757
v -0.01801361 0.00193832 0.00042674
v -0.01801361 -0.00036878 -0.00195017
v -0.01801361 0.00197028 -0.00023909
v -0.01801361 0.00189454 -0.00059153
v -0.01801361 0.00198103 0.00012124
v -0.01801361 0.00198003 -0.00013664
v -0.01801361 0.00186133 -0.00068894
v -0.01801361 0.00175629 -0.00092446
v -0.01801361 -0.00000995 -0.00198471
v -0.01801361 0.00014654 -0.00197932
v -0.01801361 0.00034921 -0.00195377
v -0.01801361 0.00069825 -0.00185786
v -0.01801361 0.00102150 -0.00170168
v -0.01801361 0.00131245 -0.00148884
v -0.01801361 0.00119338 -0.00158588
v -0.01801361 0.00156010 -0.00122689
v -0.01801361 0.00159183 -0.00118543
v -0.01801361 0.00180826 0.00081815
v -0.01801361 0.00173958 0.00095554
v -0.01801361 0.00139990 0.00140693
v -0.01801361 0.00163045 0.00113173
v -0.01801361 0.00112110 0.00163778
v -0.01801361 0.00046503 0.00192949
v 0.00009694 -0.01011401 0.00110919
v 0.00009694 -0.01017411 -0.00010365
v 0.00009694 -0.00990984 0.00230624
v 0.00009694 -0.00956452 0.00347043
v 0.00009694 -0.00092256 -0.01013266
v 0.00009694 -0.00732397 0.00013061
v 0.00009694 0.00961733 -0.00332120
v 0.00009694 -0.00213715 -0.00994758
v 0.00009694 -0.00908296 0.00458519
v 0.00009694 -0.00847202 0.00563465
v 0.00009694 0.00030547 -0.01016998
v 0.00009694 -0.00472633 -0.00559629
v 0.00009694 -0.00549934 -0.00483880
v 0.00009694 -0.00760414 -0.00676012
v 0.00009694 -0.00288991 -0.00673089
v 0.00009694 -0.00385015 -0.00623161
v 0.00009694 -0.00898758 -0.00476927
v 0.00009694 -0.00835537 -0.00580605
v 0.00009694 -0.01008929 -0.00131501
v 0.00009694 -0.00986076 -0.00250764
v 0.00009694 -0.00949177 -0.00366456
v 0.00009694 -0.00029032 0.01017060
v 0.00009694 0.00914690 -0.00445618
v 0.00009694 0.00854309 -0.00552617
v 0.00009694 -0.00013070 -0.00732390
v 0.00009694 -0.00615230 -0.00397568
v 0.00009694 -0.00667096 -0.00302577
v 0.00009694 -0.00704399 -0.00200981
v 0.00009694 -0.00726326 -0.00094997
v 0.00009694 0.00092342 0.01013276
v 0.00009694 0.00559626 -0.00472642
v 0.00009694 0.00483875 -0.00549941
v 0.00009694 0.00697241 -0.00741000
v 0.00009694 -0.00674460 -0.00761790
v 0.00009694 -0.00578899 -0.00836717
v 0.00009694 -0.00540244 -0.00862181
v 0.00009694 -0.00448943 -0.00913054
v 0.00009694 -0.00352905 -0.00954294
v 0.00009694 -0.00253143 -0.00985463
v 0.00009694 0.00013050 0.00732408
v 0.00009694 0.00732400 -0.00013060
v 0.00009694 0.00673092 -0.00289003
v 0.00009694 0.00623161 -0.00385025
v 0.00009694 0.00499655 -0.00886322
v 0.00009694 0.00602843 -0.00819637
v 0.00009694 0.00152906 -0.01005902
v 0.00009694 0.00273034 -0.00980139
v 0.00009694 0.00389182 -0.00940084
v 0.00009694 -0.00559635 0.00472645
v 0.00009694 -0.00483886 0.00549946
v 0.00009694 -0.00689853 0.00747897
v 0.00009694 0.00781472 -0.00651559
v 0.00009694 -0.00673095 0.00289005
v 0.00009694 -0.00623166 0.00385028
v 0.00009694 -0.00493339 0.00889869
v 0.00009694 -0.00595840 0.00824757
v 0.00009694 -0.00149993 0.01006358
v 0.00009694 -0.00268817 0.00981321
v 0.00009694 -0.00383811 0.00942306
v 0.00009694 0.00472654 0.00559632
v 0.00009694 0.00549952 0.00483882
v 0.00009694 0.00289017 0.00673098
v 0.00009694 0.00385038 0.00623166
v 0.00009694 0.00397562 -0.00615235
v 0.00009694 0.00302569 -0.00667098
v 0.00009694 0.00200972 -0.00704398
v 0.00009694 -0.00774040 0.00660384
v 0.00009694 -0.00397575 0.00615241
v 0.00009694 -0.00302585 0.00667107
v 0.00009694 -0.00200990 0.00704410
v 0.00009694 0.00615245 0.00397569
v 0.00009694 0.00667108 0.00302577
v 0.00009694 0.00704408 0.00200981
v 0.00009694 0.00094988 -0.00726322
v 0.00009694 -0.00095007 0.00726336
v 0.00009694 0.00726332 0.00094997
v -0.01807196 0.00082860 0.00152653
v -0.01807196 0.00122510 0.00123125
v -0.01807196 0.00152236 0.00083623
v -0.01807196 0.00162891 -0.00060291
v -0.01807196 0.00104437 -0.00138786
v -0.01807196 0.00061106 -0.00162587
v -0.01807196 0.00012824 -0.00173217
v -0.01781835 0.00062724 0.00115556
v -0.01781835 0.00128407 0.00028270
v -0.01781835 0.00123307 -0.00045640
v -0.01781835 0.00079057 -0.00105059
v -0.01781835 0.00131170 -0.00009052
v -0.01800072 0.00148894 -0.00010275
v -0.01800072 0.00145757 0.00032090
v -0.01807196 0.00173279 -0.00011957
v -0.01807196 0.00169629 0.00037345
v -0.01800072 0.00011020 -0.00148841
v -0.01781835 0.00009708 -0.00131123
v -0.01800072 0.00052507 -0.00139707
v -0.01781835 0.00046256 -0.00123077
v -0.01800072 0.00089740 -0.00119255
v -0.01807196 0.00139307 -0.00103741
v -0.01800072 0.00119703 -0.00089142
v -0.01781835 0.00105454 -0.00078531
v -0.01800072 0.00139968 -0.00051807
v -0.01800072 0.00130813 0.00071855
v -0.01781835 0.00115241 0.00063301
v -0.01800072 0.00105270 0.00105798
v -0.01781835 0.00092739 0.00093204
v -0.01800072 0.00071199 0.00131170
v -0.00092400 0.00354029 -0.01059871
v -0.00092400 0.00530982 -0.00983221
v -0.00092400 0.00548752 -0.00973415
v -0.00092400 0.01056235 -0.00364756
v -0.00092400 0.01035863 -0.00419124
v -0.00092400 0.01004569 -0.00489406
v -0.00092400 0.00948377 -0.00590977
v -0.00092400 0.00938255 -0.00606919
v -0.00092400 0.00858261 -0.00715583
v -0.00092400 0.00832648 -0.00745230
v -0.00092400 0.00765753 -0.00813813
v -0.00092400 0.00692121 -0.00877289
v -0.00092400 0.00662079 -0.00900177
v -0.00092400 0.00427424 -0.01032460
v -0.00092400 -0.00101322 -0.01112832
v -0.00092400 -0.00025922 -0.01117134
v -0.00092400 0.00033549 -0.01116931
v -0.00092400 0.00166533 -0.01104956
v -0.00092400 0.00167930 -0.01104745
v -0.00092400 0.00299863 -0.01076450
v -0.00053493 -0.00276276 -0.01075517
v -0.00053493 -0.00233245 -0.01085662
v -0.00020339 -0.00270919 -0.01054663
v -0.00020339 -0.00228722 -0.01064612
v 0.00001881 -0.00262785 -0.01022996
v 0.00001881 -0.00221855 -0.01032645
v 0.00001881 -0.00095770 -0.01051857
v -0.00020339 -0.00098735 -0.01084419
v -0.00053493 -0.00100687 -0.01105860
v -0.00053493 0.00033338 -0.01109934
v -0.00053493 0.00166878 -0.01097824
v -0.00053493 0.00297985 -0.01069706
v -0.00053493 0.00424746 -0.01025992
v -0.00053493 0.00545314 -0.00967317
v -0.00053493 0.00657932 -0.00894537
v -0.00053493 0.00760956 -0.00808715
v -0.00053493 0.00852884 -0.00711100
v -0.00053493 0.00932377 -0.00603117
v -0.00053493 0.00998275 -0.00486340
v -0.00053493 0.01049617 -0.00362471
v -0.00020339 0.00032692 -0.01088413
v -0.00020339 0.00163643 -0.01076538
v -0.00020339 0.00292207 -0.01048966
v -0.00020339 0.00416511 -0.01006099
v -0.00020339 0.00534741 -0.00948561
v -0.00020339 0.00645175 -0.00877193
v -0.00020339 0.00746202 -0.00793034
v -0.00020339 0.00836348 -0.00697312
v -0.00020339 0.00914299 -0.00591423
v -0.00020339 0.00978920 -0.00476910
v -0.00020339 0.01029267 -0.00355443
v 0.00001881 0.00031711 -0.01055732
v 0.00001881 0.00158729 -0.01044214
v 0.00001881 0.00283433 -0.01017469
v 0.00001881 0.00404005 -0.00975889
v 0.00001881 0.00518685 -0.00920080
v 0.00001881 0.00625803 -0.00850854
v 0.00001881 0.00723796 -0.00769222
v 0.00001881 0.00811236 -0.00676375
v 0.00001881 0.00886847 -0.00573665
v 0.00001881 0.00949527 -0.00462590
v 0.00001881 0.00998362 -0.00344770
v -0.00053493 -0.00385155 -0.01041499
v -0.00053493 -0.00589613 -0.00940969
v -0.00053493 -0.00489969 -0.00996492
v -0.00020339 -0.00578181 -0.00922724
v -0.00020339 -0.00480469 -0.00977171
v 0.00001881 -0.00560820 -0.00895018
v 0.00001881 -0.00466042 -0.00947830
v 0.00001881 -0.00366346 -0.00990640
v -0.00020339 -0.00377687 -0.01021305
v 0.00001881 0.00095859 0.01051867
v -0.00020339 0.00098826 0.01084428
v -0.00053493 0.00100780 0.01105870
v -0.00053493 -0.00031685 0.01110000
v -0.00053493 -0.00163699 0.01098320
v -0.00053493 -0.00293382 0.01070995
v -0.00053493 -0.00418885 0.01028415
v -0.00053493 -0.00538421 0.00971186
v -0.00053493 -0.00650289 0.00900124
v -0.00053493 -0.00752893 0.00816240
v -0.00053493 -0.00844773 0.00720730
v -0.00053493 -0.00924621 0.00614954
v -0.00053493 -0.00991298 0.00500419
v -0.00053493 -0.01043854 0.00378756
v -0.00053493 -0.01081542 0.00251698
v -0.00053493 -0.01103824 0.00121054
v -0.00053493 -0.01110384 -0.00011313
v -0.00053493 -0.01101127 -0.00143519
v -0.00053493 -0.01076185 -0.00273681
v -0.00053493 -0.01035914 -0.00399944
v -0.00053493 -0.00980888 -0.00520510
v -0.00053493 -0.00911890 -0.00633662
v -0.00053493 -0.00829902 -0.00737788
v -0.00053493 -0.00736094 -0.00831405
v -0.00053493 -0.00631800 -0.00913178
v -0.00020339 -0.00031071 0.01088478
v -0.00020339 -0.00160525 0.01077024
v -0.00020339 -0.00287693 0.01050229
v -0.00020339 -0.00410763 0.01008475
v -0.00020339 -0.00527982 0.00952356
v -0.00020339 -0.00637680 0.00882671
v -0.00020339 -0.00738295 0.00800414
v -0.00020339 -0.00828394 0.00706756
v -0.00020339 -0.00906693 0.00603031
v -0.00020339 -0.00972077 0.00490716
v -0.00020339 -0.01023615 0.00371412
v -0.00020339 -0.01060572 0.00246818
v -0.00020339 -0.01082422 0.00118707
v -0.00020339 -0.01088855 -0.00011093
v -0.00020339 -0.01079777 -0.00140736
v -0.00020339 -0.01055319 -0.00268374
v -0.00020339 -0.01015829 -0.00392189
v -0.00020339 -0.00961869 -0.00510418
v -0.00020339 -0.00894209 -0.00621376
v -0.00020339 -0.00813811 -0.00723483
v -0.00020339 -0.00721821 -0.00815284
v -0.00020339 -0.00619550 -0.00895473
v 0.00001881 -0.00030138 0.01055796
v 0.00001881 -0.00155705 0.01044686
v 0.00001881 -0.00279055 0.01018695
v 0.00001881 -0.00398429 0.00978195
v 0.00001881 -0.00512129 0.00923761
v 0.00001881 -0.00618533 0.00856168
v 0.00001881 -0.00716127 0.00776381
v 0.00001881 -0.00803521 0.00685535
v 0.00001881 -0.00879469 0.00584925
v 0.00001881 -0.00942890 0.00475982
v 0.00001881 -0.00992880 0.00360260
v 0.00001881 -0.01028727 0.00239407
v 0.00001881 -0.01049921 0.00115143
v 0.00001881 -0.01056160 -0.00010760
v 0.00001881 -0.01047355 -0.00136510
v 0.00001881 -0.01023632 -0.00260316
v 0.00001881 -0.00985328 -0.00380413
v 0.00001881 -0.00932988 -0.00495092
v 0.00001881 -0.00867359 -0.00602718
v 0.00001881 -0.00789376 -0.00701759
v 0.00001881 -0.00700148 -0.00790804
v 0.00001881 -0.00600947 -0.00868585
v -0.01334450 -0.00117063 0.01059046
v -0.01334460 -0.00298222 -0.01022890
v -0.01334460 -0.00423328 -0.00977771
v -0.01334460 -0.00541839 -0.00917417
v -0.01334460 -0.00651908 -0.00842770
v -0.01334459 -0.00751820 -0.00754992
v -0.01334459 -0.00840019 -0.00655452
v -0.01334459 -0.00915130 -0.00545699
v -0.01334458 -0.00975984 -0.00427445
v -0.01334457 -0.01021632 -0.00302530
v -0.01334457 -0.01051363 -0.00172902
v -0.01334456 -0.01061476 0.00092374
v -0.01334456 -0.01064713 -0.00040580
v -0.01334455 -0.01041701 0.00223889
v -0.01334454 -0.01005696 0.00351917
v -0.01334454 -0.00954022 0.00474461
v -0.01334453 -0.00887485 0.00589614
v -0.01334453 -0.00807121 0.00695581
v -0.01334452 -0.00714181 0.00790710
v -0.01334452 -0.00610115 0.00873521
v -0.01334451 -0.00496544 0.00942722
v -0.01334451 -0.00375236 0.00997236
v -0.01334450 -0.00248082 0.01036213
v -0.01334450 0.00015780 0.01065379
v -0.01334450 0.00148377 0.01055114
v -0.01300849 0.00151300 0.01075897
v -0.01300849 0.00016091 0.01086364
v -0.01300849 -0.00119369 0.01079906
v -0.01300850 -0.00382627 0.01016878
v -0.01300849 -0.00252968 0.01056623
v -0.01300850 -0.00506324 0.00961290
v -0.01300851 -0.00622133 0.00890726
v -0.01300852 -0.00823018 0.00709281
v -0.01300851 -0.00728249 0.00806284
v -0.01300852 -0.00904966 0.00601227
v -0.01300853 -0.00972813 0.00483806
v -0.01300853 -0.01025505 0.00358848
v -0.01300854 -0.01062219 0.00228299
v -0.01300855 -0.01085685 -0.00041380
v -0.01300855 -0.01082384 0.00094193
v -0.01300856 -0.01072071 -0.00176308
v -0.01300857 -0.01041755 -0.00308490
v -0.01300858 -0.00933156 -0.00556448
v -0.01300857 -0.00995208 -0.00435864
v -0.01300858 -0.00856565 -0.00668363
v -0.01300859 -0.00766629 -0.00769864
v -0.01300859 -0.00552512 -0.00935488
v -0.01300859 -0.00664748 -0.00859370
v -0.01300859 -0.00304096 -0.01043038
v -0.01300859 -0.00431667 -0.00997030
v -0.00036461 -0.00127128 -0.00361413
v 0.00006775 0.00012306 0.00690662
v 0.00006775 -0.00043620 0.00689393
v 0.00006775 -0.00089591 0.00684937
v 0.00006775 -0.00189533 0.00664260
v 0.00006775 -0.00634730 0.00272533
v 0.00006775 -0.00628544 0.00286511
v 0.00006775 -0.00587647 0.00363082
v 0.00006775 -0.00552540 0.00414558
v 0.00006775 -0.00527736 0.00445706
v 0.00006775 -0.00456306 0.00518600
v 0.00006775 -0.00450861 0.00523341
v 0.00006775 -0.00374914 0.00580174
v 0.00006775 -0.00328230 0.00607806
v 0.00006775 -0.00285338 0.00629083
v 0.00006775 -0.00690652 0.00012317
v 0.00006775 -0.00690755 -0.00002953
v 0.00006775 -0.00684927 -0.00089582
v 0.00006775 -0.00674071 -0.00150919
v 0.00006775 -0.00664250 -0.00189525
v 0.00006775 -0.00629073 -0.00285330
v 0.00006775 -0.00626064 -0.00291873
v 0.00006775 -0.00580163 -0.00374907
v -0.00036478 -0.00302779 -0.00234556
v 0.00006775 -0.00445694 -0.00527730
v -0.00036501 -0.00265492 -0.00275825
v 0.00006775 -0.00518589 -0.00456299
v 0.00006775 -0.00548965 -0.00419263
v 0.00006775 -0.00272519 -0.00634724
v 0.00006775 -0.00323007 -0.00610580
v -0.00036493 -0.00177131 -0.00339464
v 0.00006775 -0.00363070 -0.00587641
v -0.00036508 -0.00222950 -0.00311158
v -0.00036506 -0.00247363 -0.00292145
v -0.00072225 0.00243575 0.00133195
v -0.00289694 0.00112498 0.00061517
v -0.00289694 0.00121610 -0.00040634
v -0.00289694 0.00127346 -0.00014936
v -0.00289693 -0.00108891 -0.00067696
v -0.00289693 -0.00092767 -0.00088512
v -0.00289693 -0.00072730 -0.00105595
v -0.00289693 -0.00049626 -0.00118226
v -0.00289693 -0.00024430 -0.00125870
v -0.00289693 0.00001797 -0.00128206
v -0.00289693 0.00027948 -0.00125136
v -0.00289693 0.00052920 -0.00116788
v -0.00289693 0.00075661 -0.00103516
v -0.00289694 0.00095211 -0.00085878
v -0.00289694 0.00110745 -0.00064618
v -0.00289694 0.00122692 0.00037240
v -0.00289694 0.00127712 0.00011392
v -0.00223844 0.00127895 0.00069937
v -0.00112230 0.00195170 0.00106725
v -0.00045703 0.00298654 0.00163314
v -0.00045703 0.00339043 0.00030245
v -0.00045703 0.00325716 0.00098864
v -0.00045703 0.00338072 -0.00039650
v -0.00045702 0.00294002 -0.00171545
v -0.00045702 0.00322844 -0.00107872
v -0.00045702 0.00252761 -0.00227984
v -0.00045702 0.00200860 -0.00274808
v -0.00045702 0.00140490 -0.00310044
v -0.00045702 0.00074194 -0.00332204
v -0.00045702 0.00004770 -0.00340355
v -0.00045702 -0.00064855 -0.00334153
v -0.00045702 -0.00131746 -0.00313859
v -0.00045702 -0.00193080 -0.00280329
v -0.00045702 -0.00289079 -0.00179717
v -0.00045702 -0.00246272 -0.00234978
v -0.00072225 0.00265647 0.00080631
v -0.00072225 0.00276516 0.00024667
v -0.00072224 0.00275724 -0.00032337
v -0.00072224 0.00263305 -0.00087978
v -0.00072224 0.00239781 -0.00139908
v -0.00072224 0.00206146 -0.00185939
v -0.00072224 0.00163817 -0.00224127
v -0.00072224 0.00114580 -0.00252865
v -0.00072224 0.00060511 -0.00270938
v -0.00072223 0.00003890 -0.00277586
v -0.00072223 -0.00052895 -0.00272528
v -0.00072223 -0.00107449 -0.00255976
v -0.00072224 -0.00157472 -0.00228630
v -0.00072224 -0.00200854 -0.00191642
v -0.00072224 -0.00235766 -0.00146573
v -0.00112230 0.00212855 0.00064607
v -0.00112230 0.00221564 0.00019765
v -0.00112230 0.00220930 -0.00025911
v -0.00112230 0.00210978 -0.00070494
v -0.00112229 0.00192130 -0.00112104
v -0.00112229 0.00165179 -0.00148987
v -0.00112229 0.00131262 -0.00179587
v -0.00112229 0.00091810 -0.00202613
v -0.00112229 0.00048486 -0.00217095
v -0.00112229 0.00003117 -0.00222422
v -0.00112229 -0.00042383 -0.00218368
v -0.00112229 -0.00086096 -0.00205106
v -0.00112229 -0.00126178 -0.00183195
v -0.00112229 -0.00160939 -0.00153557
v -0.00112229 -0.00188913 -0.00117445
v -0.00163654 0.00155935 0.00085270
v -0.00163654 0.00170065 0.00051619
v -0.00163654 0.00177023 0.00015792
v -0.00163654 0.00176516 -0.00020702
v -0.00163654 0.00168565 -0.00056323
v -0.00163654 0.00153506 -0.00089568
v -0.00163654 0.00131973 -0.00119036
v -0.00163654 0.00104874 -0.00143485
v -0.00163654 0.00073353 -0.00161882
v -0.00163654 0.00038739 -0.00173452
v -0.00163653 0.00002491 -0.00177708
v -0.00163653 -0.00033863 -0.00174470
v -0.00163653 -0.00068788 -0.00163874
v -0.00163654 -0.00100812 -0.00146367
v -0.00163654 -0.00128585 -0.00122688
v -0.00163654 -0.00150936 -0.00093835
v -0.00223844 0.00139484 0.00042337
v -0.00223844 0.00145191 0.00012952
v -0.00223844 0.00144776 -0.00016980
v -0.00223844 0.00138254 -0.00046195
v -0.00223844 0.00125903 -0.00073462
v -0.00223844 0.00108242 -0.00097632
v -0.00223844 0.00086016 -0.00117684
v -0.00223844 0.00060163 -0.00132773
v -0.00223844 0.00031773 -0.00142263
v -0.00223844 0.00002043 -0.00145753
v -0.00223844 -0.00027774 -0.00143097
v -0.00223844 -0.00056419 -0.00134407
v -0.00223844 -0.00082685 -0.00120048
v -0.00223844 -0.00105464 -0.00100627
v -0.00223844 -0.00123795 -0.00076962
f 1 2 3
f 4 5 6
f 7 8 9
f 9 8 10
f 11 12 13
f 13 12 14
f 13 14 9
f 9 14 15
f 9 15 7
f 16 17 18
f 18 17 19
f 18 19 20
f 20 19 21
f 20 21 22
f 22 21 23
f 22 23 24
f 24 23 25
f 24 25 26
f 26 25 27
f 26 27 28
f 28 27 29
f 28 29 30
f 30 29 31
f 30 31 32
f 32 31 33
f 32 33 34
f 34 33 35
f 34 35 36
f 36 35 37
f 36 37 38
f 39 40 16
f 16 40 41
f 16 41 17
f 16 42 39
f 39 42 43
f 39 43 44
f 44 43 45
f 44 45 46
f 47 48 45
f 45 48 49
f 45 49 46
f 50 3 51
f 51 3 2
f 51 2 52
f 53 6 52
f 54 55 56
f 56 55 5
f 57 58 59
f 59 58 60
f 59 60 61
f 61 60 62
f 61 62 56
f 56 62 63
f 56 63 54
f 64 65 59
f 59 65 66
f 59 66 57
f 67 68 69
f 69 68 70
f 69 70 71
f 71 70 72
f 71 72 64
f 64 72 73
f 64 73 65
f 67 69 74
f 74 69 75
f 74 75 76
f 77 78 79
f 77 79 75
f 75 79 80
f 75 80 76
f 78 77 81
f 81 77 82
f 81 82 83
f 84 85 82
f 82 85 86
f 82 86 83
f 87 88 84
f 84 88 89
f 84 89 85
f 8 90 10
f 10 90 91
f 10 91 92
f 92 91 93
f 92 93 87
f 87 93 94
f 87 94 88
f 5 4 56
f 56 4 95
f 56 95 61
f 61 95 96
f 61 96 59
f 59 96 97
f 59 97 64
f 64 97 98
f 64 98 71
f 71 98 99
f 71 99 69
f 69 99 100
f 69 100 75
f 75 100 101
f 75 101 77
f 77 101 102
f 77 102 82
f 82 102 103
f 82 103 84
f 84 103 104
f 84 104 87
f 87 104 105
f 87 105 92
f 92 105 106
f 92 106 10
f 10 106 107
f 10 107 9
f 9 107 108
f 9 108 13
f 13 108 109
f 13 109 11
f 6 53 4
f 4 53 110
f 4 110 95
f 95 110 111
f 95 111 96
f 96 111 112
f 96 112 97
f 97 112 113
f 97 113 98
f 98 113 114
f 98 114 99
f 99 114 115
f 99 115 100
f 100 115 116
f 100 116 101
f 101 116 117
f 101 117 102
f 102 117 118
f 102 118 103
f 103 118 119
f 103 119 104
f 104 119 120
f 104 120 105
f 105 120 121
f 105 121 106
f 106 121 122
f 106 122 107
f 107 122 123
f 107 123 108
f 108 123 124
f 108 124 109
f 52 125 53
f 53 125 126
f 53 126 110
f 110 126 127
f 110 127 111
f 111 127 128
f 111 128 112
f 112 128 129
f 112 129 113
f 113 129 130
f 113 130 114
f 114 130 131
f 114 131 115
f 115 131 132
f 115 132 116
f 116 132 133
f 116 133 117
f 117 133 134
f 117 134 118
f 118 134 135
f 118 135 119
f 119 135 136
f 119 136 120
f 120 136 137
f 120 137 121
f 121 137 138
f 121 138 122
f 122 138 139
f 122 139 123
f 123 139 140
f 123 140 124
f 124 140 141
f 124 141 109
f 109 141 142
f 109 142 11
f 11 142 143
f 11 143 12
f 52 2 125
f 125 2 1
f 125 1 126
f 126 1 144
f 126 144 127
f 127 144 145
f 127 145 128
f 128 145 146
f 128 146 129
f 129 146 147
f 129 147 130
f 130 147 148
f 130 148 131
f 131 148 149
f 131 149 132
f 132 149 150
f 132 150 133
f 133 150 151
f 133 151 134
f 134 151 152
f 134 152 135
f 135 152 153
f 135 153 136
f 136 153 154
f 136 154 137
f 137 154 155
f 137 155 138
f 138 155 156
f 138 156 139
f 139 156 157
f 139 157 140
f 140 157 158
f 140 158 141
f 50 48 3
f 3 48 47
f 3 47 1
f 1 47 45
f 1 45 144
f 144 45 43
f 144 43 145
f 145 43 42
f 145 42 146
f 146 42 16
f 146 16 147
f 147 16 18
f 147 18 148
f 148 18 20
f 148 20 149
f 149 20 22
f 149 22 150
f 150 22 24
f 150 24 151
f 151 24 26
f 151 26 152
f 152 26 28
f 152 28 153
f 153 28 30
f 153 30 154
f 154 30 32
f 154 32 155
f 155 32 34
f 155 34 156
f 156 34 36
f 156 36 157
f 157 36 38
f 157 38 158
f 159 91 160
f 160 91 90
f 160 90 161
f 162 163 164
f 164 163 165
f 166 167 168
f 164 169 162
f 162 169 170
f 162 170 171
f 171 170 172
f 171 172 168
f 168 172 173
f 168 173 166
f 174 175 176
f 176 175 177
f 176 177 178
f 177 179 178
f 178 179 180
f 178 180 181
f 174 182 175
f 175 182 183
f 175 183 184
f 184 183 185
f 184 185 186
f 186 185 187
f 188 167 189
f 189 167 166
f 189 166 190
f 190 166 191
f 190 191 192
f 192 191 193
f 192 193 194
f 194 193 195
f 194 195 196
f 196 195 197
f 196 197 198
f 198 197 199
f 198 199 200
f 200 199 201
f 200 201 202
f 202 201 203
f 202 203 204
f 204 203 205
f 204 205 206
f 206 205 207
f 206 207 187
f 187 207 208
f 187 208 186
f 165 209 164
f 164 209 210
f 164 210 211
f 211 210 212
f 211 212 213
f 213 212 214
f 213 214 215
f 215 214 216
f 215 216 217
f 217 216 218
f 217 218 219
f 219 218 220
f 219 220 143
f 143 220 221
f 143 221 12
f 222 14 223
f 223 14 12
f 223 12 224
f 224 12 221
f 225 161 226
f 226 161 90
f 226 90 227
f 227 90 8
f 227 8 228
f 228 8 7
f 228 7 222
f 222 7 15
f 222 15 14
f 229 230 231
f 232 233 234
f 235 236 233
f 233 232 235
f 235 232 237
f 235 237 238
f 239 240 237
f 237 240 241
f 237 241 238
f 242 243 239
f 239 243 244
f 239 244 240
f 245 246 242
f 242 246 247
f 242 247 243
f 248 249 250
f 250 249 251
f 250 251 245
f 245 251 252
f 245 252 246
f 248 250 253
f 253 250 254
f 253 254 255
f 255 254 256
f 256 254 257
f 256 257 258
f 258 257 259
f 259 257 260
f 259 260 261
f 262 263 260
f 260 263 264
f 260 264 261
f 265 266 267
f 267 266 268
f 267 268 262
f 262 268 269
f 262 269 263
f 270 271 265
f 265 271 272
f 265 272 266
f 270 265 273
f 273 265 274
f 273 274 275
f 275 274 276
f 275 276 277
f 277 276 278
f 278 276 279
f 278 279 280
f 281 282 283
f 281 283 279
f 279 283 284
f 279 284 280
f 282 281 285
f 285 281 286
f 285 286 287
f 287 286 288
f 288 286 289
f 288 289 290
f 290 289 291
f 291 289 292
f 291 292 293
f 293 292 294
f 294 292 295
f 294 295 296
f 296 295 297
f 297 295 298
f 297 298 299
f 300 301 302
f 300 302 298
f 298 302 303
f 298 303 299
f 231 230 300
f 300 230 304
f 300 304 301
f 229 231 305
f 305 231 306
f 305 306 307
f 307 306 308
f 307 308 309
f 310 311 312
f 313 314 315
f 315 314 316
f 315 316 317
f 317 316 318
f 317 318 310
f 310 318 319
f 310 319 311
f 311 319 320
f 313 315 321
f 321 315 322
f 321 322 323
f 323 322 324
f 323 324 325
f 325 324 326
f 325 326 327
f 327 326 328
f 328 326 329
f 328 329 330
f 331 332 333
f 333 332 334
f 333 334 335
f 335 334 336
f 335 336 337
f 337 336 338
f 337 338 329
f 329 338 339
f 329 339 330
f 331 333 340
f 340 333 341
f 340 341 342
f 342 341 343
f 342 343 344
f 344 343 345
f 344 345 346
f 346 345 347
f 346 347 348
f 349 350 351
f 351 350 352
f 351 352 353
f 353 352 354
f 353 354 355
f 355 354 356
f 355 356 347
f 347 356 357
f 347 357 348
f 349 351 358
f 358 351 359
f 358 359 360
f 360 359 361
f 360 361 362
f 362 361 363
f 363 361 364
f 363 364 365
f 365 364 366
f 365 366 367
f 368 369 370
f 370 369 371
f 370 371 372
f 372 371 373
f 372 373 366
f 366 373 374
f 366 374 367
f 375 376 377
f 377 376 378
f 377 378 368
f 368 378 379
f 368 379 369
f 380 309 312
f 312 309 308
f 312 308 310
f 310 308 306
f 310 306 317
f 317 306 231
f 317 231 315
f 315 231 300
f 315 300 322
f 322 300 298
f 322 298 324
f 324 298 295
f 324 295 326
f 326 295 292
f 326 292 329
f 329 292 289
f 329 289 337
f 337 289 286
f 337 286 335
f 335 286 281
f 335 281 333
f 333 281 279
f 333 279 341
f 341 279 276
f 341 276 343
f 343 276 274
f 343 274 345
f 345 274 265
f 345 265 347
f 347 265 267
f 347 267 355
f 355 267 262
f 355 262 353
f 353 262 260
f 353 260 351
f 351 260 257
f 351 257 359
f 359 257 254
f 359 254 361
f 361 254 250
f 361 250 364
f 364 250 245
f 364 245 366
f 366 245 242
f 366 242 372
f 372 242 239
f 372 239 370
f 370 239 237
f 370 237 368
f 368 237 232
f 368 232 377
f 377 232 234
f 377 234 375
f 381 382 383
f 382 384 385
f 384 386 387
f 386 388 389
f 386 389 387
f 387 389 390
f 387 390 391
f 390 392 391
f 391 392 393
f 391 393 394
f 393 395 394
f 394 395 396
f 394 396 397
f 397 396 398
f 397 398 399
f 399 398 400
f 399 400 401
f 401 400 402
f 402 403 401
f 401 403 404
f 401 404 405
f 405 404 406
f 405 406 407
f 407 406 408
f 407 408 409
f 409 408 410
f 411 412 413
f 413 412 414
f 413 414 415
f 415 414 416
f 415 416 417
f 417 416 418
f 417 418 419
f 419 418 409
f 419 409 420
f 420 409 410
f 384 387 385
f 385 387 391
f 385 391 421
f 421 391 394
f 421 394 422
f 422 394 397
f 422 397 423
f 423 397 399
f 423 399 424
f 424 399 401
f 424 401 425
f 425 401 405
f 425 405 426
f 426 405 407
f 426 407 427
f 427 407 409
f 427 409 428
f 428 409 418
f 428 418 429
f 429 418 416
f 429 416 430
f 430 416 414
f 430 414 431
f 431 414 412
f 431 412 432
f 382 385 383
f 383 385 421
f 383 421 433
f 433 421 422
f 433 422 434
f 434 422 423
f 434 423 435
f 435 423 424
f 435 424 436
f 436 424 425
f 436 425 437
f 437 425 426
f 437 426 438
f 438 426 427
f 438 427 439
f 439 427 428
f 439 428 440
f 440 428 429
f 440 429 441
f 441 429 430
f 441 430 442
f 442 430 431
f 442 431 443
f 443 431 432
f 443 432 444
f 381 383 445
f 445 383 433
f 445 433 446
f 446 433 434
f 446 434 447
f 447 434 435
f 447 435 448
f 448 435 436
f 448 436 449
f 449 436 437
f 449 437 450
f 450 437 438
f 450 438 451
f 451 438 439
f 451 439 452
f 452 439 440
f 452 440 453
f 453 440 441
f 453 441 454
f 454 441 442
f 454 442 455
f 455 442 443
f 455 443 456
f 456 443 444
f 456 444 457
f 458 459 460
f 413 375 411
f 411 375 461
f 411 461 462
f 320 463 464
f 464 463 465
f 464 465 466
f 466 465 467
f 466 467 468
f 468 467 469
f 470 471 472
f 472 471 473
f 472 473 469
f 469 473 474
f 469 474 468
f 475 476 477
f 475 477 478
f 478 477 479
f 478 479 480
f 479 481 480
f 480 481 482
f 480 482 483
f 483 482 484
f 483 484 485
f 485 484 486
f 485 486 487
f 487 486 488
f 487 488 470
f 470 488 489
f 470 489 471
f 476 475 490
f 490 475 491
f 490 491 492
f 492 491 493
f 492 493 494
f 494 493 495
f 495 493 496
f 495 496 497
f 497 496 498
f 497 498 499
f 499 498 500
f 499 500 501
f 502 503 504
f 502 504 505
f 505 504 506
f 505 506 500
f 500 506 507
f 500 507 501
f 503 502 508
f 508 502 509
f 508 509 510
f 510 509 511
f 510 511 512
f 512 511 513
f 513 511 514
f 513 514 515
f 515 514 516
f 515 516 517
f 517 516 518
f 517 518 519
f 519 518 520
f 520 518 521
f 520 521 522
f 522 521 523
f 522 523 524
f 524 523 525
f 524 525 526
f 526 525 527
f 526 527 528
f 529 530 531
f 531 532 529
f 529 532 533
f 529 533 534
f 534 533 535
f 534 535 536
f 536 535 537
f 536 537 527
f 527 537 538
f 527 538 528
f 539 540 541
f 541 540 542
f 541 542 543
f 542 544 543
f 543 544 545
f 543 545 546
f 546 545 547
f 546 547 548
f 548 547 549
f 548 549 530
f 530 549 550
f 530 550 531
f 460 459 551
f 459 552 551
f 551 552 553
f 551 553 539
f 539 553 554
f 539 554 540
f 458 460 555
f 555 460 556
f 555 556 557
f 557 556 558
f 557 558 559
f 559 558 560
f 559 560 561
f 561 560 562
f 561 562 563
f 563 562 564
f 563 564 565
f 462 461 564
f 564 461 566
f 564 566 565
f 567 568 569
f 570 571 572
f 573 574 575
f 576 577 578
f 579 580 581
f 582 583 584
f 585 586 587
f 588 589 590
f 591 592 593
f 594 595 596
f 597 598 599
f 597 599 600
f 591 593 601
f 602 594 603
f 603 594 596
f 603 596 604
f 604 596 605
f 604 605 606
f 606 605 607
f 588 590 608
f 586 608 587
f 587 608 590
f 587 590 609
f 609 590 610
f 609 610 611
f 611 610 612
f 611 612 613
f 613 612 614
f 583 585 584
f 584 585 587
f 584 587 615
f 615 587 609
f 615 609 616
f 616 609 611
f 616 611 617
f 617 611 613
f 580 582 581
f 581 582 584
f 581 584 618
f 618 584 615
f 618 615 619
f 619 615 616
f 620 621 622
f 622 621 623
f 623 579 622
f 622 579 581
f 622 581 624
f 624 581 618
f 624 618 625
f 625 618 619
f 577 620 578
f 578 620 622
f 578 622 626
f 626 622 624
f 626 624 599
f 599 624 625
f 599 625 600
f 600 625 619
f 600 619 627
f 627 619 616
f 627 616 628
f 628 616 617
f 606 629 630
f 630 576 606
f 606 576 578
f 606 578 604
f 604 578 626
f 604 626 603
f 603 626 599
f 603 599 602
f 602 599 598
f 631 632 607
f 607 632 633
f 607 633 606
f 606 633 634
f 606 634 629
f 574 631 575
f 575 631 607
f 575 607 635
f 635 607 605
f 635 605 636
f 636 605 596
f 636 596 637
f 637 596 595
f 571 573 572
f 572 573 575
f 572 575 638
f 638 575 635
f 638 635 639
f 639 635 636
f 639 636 640
f 640 636 637
f 568 570 569
f 569 570 572
f 569 572 641
f 641 572 638
f 641 638 593
f 593 638 639
f 593 639 601
f 601 639 640
f 642 643 644
f 644 567 642
f 642 567 569
f 642 569 645
f 645 569 641
f 645 641 646
f 646 641 593
f 646 593 647
f 647 593 592
f 568 567 648
f 649 650 632
f 632 650 633
f 651 652 653
f 652 654 653
f 653 654 655
f 653 655 656
f 656 657 653
f 653 657 658
f 653 658 659
f 608 660 661
f 661 662 608
f 608 662 663
f 608 663 664
f 665 589 666
f 666 589 588
f 666 588 667
f 667 588 608
f 667 608 668
f 668 608 664
f 651 653 669
f 669 653 670
f 669 670 671
f 671 670 672
f 671 672 673
f 673 672 236
f 673 236 674
f 659 660 653
f 653 660 608
f 653 608 675
f 675 608 586
f 675 586 676
f 676 586 585
f 676 585 677
f 678 679 583
f 583 679 680
f 583 680 585
f 585 680 681
f 585 681 677
f 678 583 682
f 682 583 582
f 682 582 683
f 579 684 580
f 580 684 685
f 580 685 582
f 582 685 686
f 582 686 683
f 687 688 623
f 623 688 689
f 623 689 579
f 579 689 690
f 579 690 684
f 687 623 691
f 691 623 621
f 691 621 692
f 692 621 620
f 692 620 693
f 694 695 620
f 620 695 696
f 620 696 693
f 693 696 697
f 693 697 698
f 698 699 693
f 693 699 700
f 693 700 701
f 701 702 693
f 693 702 703
f 693 703 704
f 705 706 707
f 703 708 704
f 704 708 705
f 704 705 709
f 709 705 707
f 706 710 707
f 707 710 711
f 707 711 712
f 712 711 713
f 712 713 714
f 714 713 715
f 714 715 716
f 716 715 717
f 716 717 718
f 719 720 721
f 721 720 722
f 721 722 723
f 723 722 724
f 723 724 725
f 725 724 718
f 725 718 726
f 726 718 717
f 719 727 720
f 720 727 728
f 720 728 729
f 729 730 720
f 720 730 731
f 720 731 732
f 733 734 634
f 634 734 735
f 634 735 736
f 737 738 630
f 736 739 634
f 634 739 737
f 634 737 629
f 629 737 630
f 732 733 720
f 720 733 634
f 720 634 740
f 740 634 633
f 740 633 741
f 741 633 650
f 649 632 742
f 742 632 631
f 742 631 743
f 743 631 744
f 744 631 574
f 744 574 745
f 746 747 571
f 571 747 748
f 571 748 573
f 573 748 749
f 573 749 574
f 574 749 750
f 574 750 745
f 746 571 751
f 751 571 570
f 751 570 752
f 648 753 568
f 568 753 754
f 568 754 570
f 570 754 755
f 570 755 752
f 756 757 567
f 567 757 758
f 567 758 759
f 759 760 567
f 567 760 761
f 567 761 762
f 762 763 567
f 567 763 764
f 567 764 648
f 648 764 765
f 648 765 766
f 766 767 648
f 648 767 768
f 648 768 769
f 769 770 648
f 648 770 771
f 648 771 772
f 772 771 773
f 772 773 774
f 774 773 775
f 774 775 776
f 776 777 774
f 774 777 778
f 774 778 380
f 567 644 756
f 756 644 643
f 756 643 779
f 738 780 630
f 630 780 781
f 630 781 576
f 576 781 782
f 782 783 576
f 576 783 784
f 576 784 577
f 577 784 785
f 577 785 620
f 620 785 786
f 620 786 694
f 787 788 789
f 789 790 787
f 787 790 791
f 787 791 792
f 792 791 793
f 792 793 794
f 794 795 792
f 792 795 796
f 792 796 797
f 797 796 798
f 797 798 799
f 798 800 799
f 799 800 801
f 799 801 802
f 802 801 803
f 802 803 804
f 805 806 807
f 807 806 808
f 807 808 809
f 803 810 804
f 804 810 811
f 804 811 805
f 805 811 812
f 805 812 806
f 809 808 813
f 813 808 814
f 813 814 815
f 816 171 817
f 817 171 168
f 817 168 818
f 818 168 167
f 818 167 819
f 819 167 188
f 819 188 820
f 820 188 815
f 820 815 821
f 821 815 814
f 822 823 778
f 778 777 822
f 822 777 776
f 822 776 824
f 824 776 775
f 775 773 824
f 824 773 771
f 824 771 825
f 825 771 770
f 825 770 826
f 770 769 826
f 826 769 768
f 826 768 827
f 827 768 767
f 827 767 828
f 829 763 830
f 830 763 762
f 830 762 831
f 767 766 828
f 828 766 765
f 828 765 829
f 829 765 764
f 829 764 763
f 831 762 832
f 832 762 761
f 832 761 833
f 779 181 756
f 756 181 834
f 756 834 757
f 757 834 835
f 757 835 758
f 758 835 836
f 758 836 759
f 759 836 833
f 759 833 760
f 760 833 761
f 837 838 715
f 715 713 837
f 837 713 711
f 837 711 839
f 839 711 710
f 839 710 706
f 706 705 839
f 839 705 708
f 839 708 840
f 840 708 703
f 840 703 841
f 703 702 841
f 841 702 701
f 841 701 842
f 842 701 700
f 842 700 843
f 844 696 845
f 845 696 695
f 845 695 846
f 700 699 843
f 843 699 698
f 843 698 844
f 844 698 697
f 844 697 696
f 846 695 847
f 847 695 694
f 847 694 848
f 781 849 782
f 782 849 850
f 782 850 783
f 783 850 851
f 783 851 784
f 784 851 852
f 784 852 785
f 785 852 848
f 785 848 786
f 786 848 694
f 853 854 674
f 674 855 853
f 853 855 856
f 853 856 857
f 857 856 858
f 858 859 857
f 857 859 860
f 857 860 861
f 861 860 862
f 861 862 863
f 862 864 863
f 863 864 865
f 863 865 866
f 866 865 867
f 866 867 868
f 869 870 871
f 871 870 872
f 871 872 873
f 867 874 868
f 868 874 875
f 868 875 869
f 869 875 876
f 869 876 870
f 873 872 877
f 877 872 878
f 877 878 879
f 665 159 880
f 880 159 160
f 880 160 881
f 881 160 161
f 881 161 882
f 882 161 225
f 882 225 883
f 883 225 879
f 883 879 884
f 884 879 878
f 31 29 885
f 885 29 886
f 886 29 27
f 886 27 614
f 887 888 889
f 889 888 890
f 889 890 891
f 891 892 889
f 889 892 37
f 889 37 893
f 893 37 35
f 893 35 885
f 885 35 33
f 885 33 31
f 887 894 888
f 888 894 895
f 888 895 896
f 896 895 897
f 896 897 898
f 898 897 899
f 898 899 900
f 900 899 901
f 902 903 904
f 904 903 905
f 904 905 647
f 902 906 903
f 903 906 907
f 903 907 908
f 908 907 909
f 908 909 910
f 910 909 911
f 910 911 912
f 912 911 913
f 912 913 914
f 914 913 915
f 914 915 901
f 901 915 916
f 901 916 900
f 614 27 613
f 613 27 25
f 613 25 617
f 617 25 23
f 617 23 628
f 628 23 21
f 628 21 627
f 904 647 917
f 917 647 592
f 917 592 918
f 918 592 591
f 21 19 627
f 627 19 17
f 627 17 600
f 600 17 41
f 600 41 597
f 597 41 40
f 597 40 598
f 598 40 39
f 598 39 602
f 602 39 44
f 602 44 594
f 594 44 46
f 594 46 595
f 595 46 49
f 595 49 637
f 637 49 48
f 637 48 640
f 640 48 50
f 640 50 601
f 601 50 919
f 601 919 591
f 591 919 920
f 591 920 918
f 664 921 922
f 664 922 668
f 668 922 923
f 668 923 667
f 667 923 924
f 667 924 666
f 666 924 159
f 666 159 665
f 664 663 921
f 921 663 662
f 921 662 925
f 925 662 661
f 925 661 926
f 661 660 926
f 926 660 659
f 926 659 927
f 927 659 658
f 927 658 928
f 658 657 928
f 928 657 656
f 928 656 929
f 929 656 655
f 929 655 930
f 655 654 930
f 930 654 652
f 930 652 931
f 931 652 651
f 931 651 932
f 932 651 669
f 932 669 933
f 933 669 671
f 933 671 934
f 934 671 673
f 934 673 935
f 935 673 674
f 935 674 854
f 739 936 937
f 739 937 737
f 737 937 938
f 737 938 738
f 738 938 939
f 738 939 780
f 780 939 849
f 780 849 781
f 739 736 936
f 936 736 735
f 936 735 940
f 940 735 734
f 940 734 941
f 734 733 941
f 941 733 732
f 941 732 942
f 942 732 731
f 942 731 943
f 731 730 943
f 943 730 729
f 943 729 944
f 944 729 728
f 944 728 945
f 728 727 945
f 945 727 719
f 945 719 946
f 946 719 721
f 946 721 947
f 721 723 947
f 947 723 725
f 947 725 948
f 948 725 726
f 948 726 949
f 949 726 717
f 949 717 950
f 950 717 715
f 950 715 838
f 951 952 174
f 951 174 953
f 953 174 176
f 953 176 954
f 954 176 178
f 954 178 955
f 955 178 181
f 955 181 779
f 951 956 952
f 952 956 957
f 952 957 958
f 958 957 959
f 958 959 960
f 959 961 960
f 960 961 962
f 960 962 963
f 963 962 964
f 963 964 965
f 964 966 965
f 965 966 967
f 965 967 968
f 968 967 969
f 968 969 970
f 969 971 970
f 970 971 972
f 970 972 973
f 973 972 974
f 973 974 975
f 975 974 976
f 975 976 977
f 977 976 978
f 977 978 979
f 979 978 980
f 979 980 981
f 981 980 778
f 981 778 823
f 982 983 165
f 982 165 984
f 984 165 163
f 984 163 985
f 985 163 162
f 985 162 986
f 986 162 171
f 986 171 816
f 982 987 983
f 983 987 988
f 983 988 989
f 989 988 990
f 989 990 991
f 990 992 991
f 991 992 993
f 991 993 994
f 994 993 995
f 994 995 996
f 995 997 996
f 996 997 998
f 996 998 999
f 999 998 1000
f 999 1000 1001
f 1000 1002 1001
f 1001 1002 1003
f 1001 1003 1004
f 1004 1003 1005
f 1004 1005 1006
f 1005 1007 1006
f 1006 1007 1008
f 1006 1008 1009
f 1009 1008 1010
f 1009 1010 1011
f 1011 1010 1012
f 1011 1012 1013
f 1013 1012 789
f 1013 789 788
f 1014 1015 241
f 261 264 1016
f 1016 264 1017
f 779 643 1018
f 985 986 1019
f 1019 986 816
f 1019 816 1020
f 1020 816 817
f 1003 268 1005
f 1005 268 266
f 1005 266 1007
f 1007 266 272
f 1007 272 1008
f 1008 272 271
f 1003 1002 268
f 268 1002 1000
f 268 1000 998
f 998 997 268
f 268 997 995
f 268 995 993
f 990 988 1021
f 990 1021 992
f 988 987 1021
f 1021 987 982
f 1021 982 984
f 985 1019 984
f 984 1019 1022
f 984 1022 1021
f 794 793 277
f 277 793 791
f 277 791 275
f 275 791 790
f 275 790 273
f 273 790 789
f 273 789 270
f 270 789 1012
f 270 1012 271
f 271 1012 1010
f 271 1010 1008
f 817 818 1020
f 1020 818 819
f 1020 819 1023
f 1023 819 820
f 1023 820 1024
f 1024 820 821
f 821 814 1024
f 1024 814 808
f 1024 808 806
f 284 812 811
f 811 810 284
f 284 810 803
f 284 803 801
f 801 800 284
f 284 800 798
f 284 798 280
f 280 798 796
f 280 796 795
f 794 277 795
f 795 277 278
f 795 278 280
f 974 972 305
f 972 971 305
f 305 971 969
f 305 969 967
f 967 966 305
f 305 966 964
f 305 964 962
f 1025 961 959
f 959 957 1025
f 1025 957 956
f 1025 956 951
f 951 953 1025
f 1025 953 954
f 1025 954 1018
f 1018 954 955
f 1018 955 779
f 974 305 976
f 976 305 307
f 976 307 978
f 978 307 309
f 978 309 980
f 980 309 380
f 980 380 778
f 962 961 305
f 305 961 1025
f 305 1025 229
f 229 1025 1026
f 229 1026 230
f 230 1026 1027
f 230 1027 304
f 299 303 1028
f 1028 303 302
f 1028 302 1027
f 1027 302 301
f 1027 301 304
f 299 1028 297
f 297 1028 1029
f 297 1029 296
f 1030 291 1031
f 1031 291 293
f 1031 293 1029
f 1029 293 294
f 1029 294 296
f 285 287 1032
f 1032 287 288
f 1032 288 1030
f 1030 288 290
f 1030 290 291
f 285 1032 282
f 282 1032 1033
f 282 1033 283
f 283 1033 1024
f 283 1024 284
f 284 1024 806
f 284 806 812
f 993 992 268
f 268 992 1021
f 268 1021 269
f 269 1021 1017
f 269 1017 263
f 263 1017 264
f 261 1016 259
f 259 1016 1034
f 259 1034 258
f 258 1034 256
f 256 1034 1035
f 256 1035 255
f 252 251 1036
f 1036 251 249
f 1036 249 1037
f 1037 249 248
f 1037 248 1035
f 1035 248 253
f 1035 253 255
f 252 1036 246
f 246 1036 1038
f 246 1038 247
f 241 240 1014
f 1014 240 244
f 1014 244 1038
f 1038 244 243
f 1038 243 247
f 880 881 1015
f 1015 881 882
f 1015 882 883
f 883 884 1015
f 1015 884 878
f 1015 878 872
f 872 870 1015
f 1015 870 876
f 1015 876 241
f 241 876 875
f 241 875 874
f 874 867 241
f 241 867 865
f 241 865 864
f 864 862 241
f 241 862 860
f 241 860 238
f 238 860 859
f 238 859 235
f 235 859 858
f 235 858 856
f 856 855 235
f 235 855 674
f 235 674 236
f 1015 1039 880
f 880 1039 589
f 880 589 665
f 948 1040 947
f 947 1040 1041
f 947 1041 946
f 948 949 1040
f 1040 949 950
f 1040 950 1042
f 1042 950 838
f 1042 838 1043
f 1044 977 979
f 1045 940 941
f 456 457 854
f 1046 381 788
f 1044 979 1047
f 838 837 1043
f 1043 837 839
f 1043 839 1048
f 1048 839 840
f 1048 840 1049
f 977 1044 975
f 975 1044 1050
f 975 1050 973
f 1051 1052 1053
f 831 1054 830
f 830 1054 1055
f 830 1055 829
f 943 1056 942
f 942 1056 1057
f 946 1041 945
f 945 1041 1058
f 945 1058 944
f 944 1058 1059
f 944 1059 943
f 943 1059 1060
f 943 1060 1056
f 1061 931 932
f 854 853 456
f 456 853 857
f 456 857 455
f 455 857 861
f 455 861 454
f 446 1004 1006
f 788 787 1046
f 1046 787 792
f 1046 792 1062
f 1062 792 797
f 1062 797 1063
f 1064 958 960
f 1052 1065 1053
f 1053 1065 1066
f 1053 1066 1067
f 1057 1053 942
f 942 1053 1067
f 942 1067 941
f 941 1067 1068
f 941 1068 1045
f 1061 932 1069
f 932 933 1069
f 1069 933 934
f 1069 934 457
f 457 934 935
f 457 935 854
f 446 1006 445
f 1006 1009 445
f 445 1009 1011
f 445 1011 381
f 381 1011 1013
f 381 1013 788
f 1070 1071 1072
f 1055 1051 829
f 829 1051 1053
f 829 1053 828
f 828 1053 1073
f 828 1073 827
f 827 1073 1074
f 827 1074 826
f 826 1074 1075
f 826 1075 825
f 825 1075 1076
f 825 1076 824
f 824 1076 1077
f 824 1077 822
f 822 1077 1078
f 822 1078 823
f 823 1078 1047
f 823 1047 981
f 981 1047 979
f 1079 925 926
f 1080 989 991
f 809 1081 807
f 807 1081 1082
f 807 1082 805
f 965 1083 963
f 963 1083 1084
f 973 1050 970
f 970 1050 1085
f 970 1085 968
f 968 1085 1086
f 968 1086 965
f 965 1086 1087
f 965 1087 1083
f 1088 1089 1090
f 1082 1070 805
f 805 1070 1072
f 805 1072 804
f 804 1072 1091
f 804 1091 802
f 802 1091 1063
f 802 1063 799
f 799 1063 797
f 846 1092 845
f 845 1092 1093
f 845 1093 844
f 928 1094 927
f 927 1094 1095
f 931 1061 930
f 930 1061 1096
f 930 1096 929
f 929 1096 1097
f 929 1097 928
f 928 1097 1098
f 928 1098 1094
f 1099 1100 452
f 873 1101 871
f 871 1101 1102
f 871 1102 869
f 1071 1103 1072
f 1072 1103 1104
f 1072 1104 1105
f 1093 1088 844
f 844 1088 1090
f 844 1090 843
f 843 1090 1106
f 843 1106 842
f 842 1106 1049
f 842 1049 841
f 841 1049 840
f 1089 1107 1090
f 1090 1107 1108
f 1090 1108 1109
f 1100 1110 452
f 452 1110 1111
f 452 1111 1112
f 1004 446 1001
f 1001 446 447
f 1001 447 999
f 999 447 448
f 999 448 996
f 996 448 449
f 996 449 994
f 994 449 450
f 994 450 451
f 1084 1072 963
f 963 1072 1105
f 963 1105 960
f 960 1105 1113
f 960 1113 1064
f 1095 1090 927
f 927 1090 1109
f 927 1109 926
f 926 1109 1114
f 926 1114 1079
f 1102 1099 869
f 869 1099 452
f 869 452 868
f 868 452 453
f 868 453 866
f 866 453 454
f 866 454 863
f 863 454 861
f 451 452 994
f 994 452 1112
f 994 1112 991
f 991 1112 1115
f 991 1115 1080
f 1015 1014 1116
f 1038 1036 1117
f 1037 1035 1118
f 1020 1023 1119
f 1030 1031 1120
f 1029 1028 1121
f 1027 1026 1122
f 1018 643 642
f 885 886 1123
f 895 894 1124
f 901 899 1125
f 908 910 1126
f 901 1125 914
f 885 1123 893
f 897 895 1127
f 1127 895 1124
f 1127 1124 1128
f 1128 1124 1129
f 1128 1129 1130
f 1130 1129 1131
f 1018 642 1025
f 1026 1025 1122
f 1122 1025 642
f 1122 642 1132
f 1132 642 645
f 1132 645 1133
f 1133 645 646
f 1133 646 905
f 905 646 647
f 1028 1027 1121
f 1121 1027 1122
f 1121 1122 1134
f 1134 1122 1132
f 1134 1132 1135
f 1135 1132 1133
f 1135 1133 903
f 903 1133 905
f 1031 1029 1120
f 1120 1029 1121
f 1120 1121 1136
f 1136 1121 1134
f 1136 1134 1126
f 1126 1134 1135
f 1126 1135 908
f 908 1135 903
f 1024 1033 1137
f 1137 1033 1032
f 1032 1030 1137
f 1137 1030 1120
f 1137 1120 1138
f 1138 1120 1136
f 1138 1136 1139
f 1139 1136 1126
f 1023 1024 1119
f 1119 1024 1137
f 1119 1137 1140
f 1140 1137 1138
f 1140 1138 1125
f 1125 1138 1139
f 1125 1139 914
f 914 1139 1126
f 914 1126 912
f 912 1126 910
f 1130 1022 1019
f 1019 1020 1130
f 1130 1020 1119
f 1130 1119 1128
f 1128 1119 1140
f 1128 1140 1127
f 1127 1140 1125
f 1127 1125 897
f 897 1125 899
f 1034 1016 1131
f 1131 1016 1017
f 1131 1017 1130
f 1130 1017 1021
f 1130 1021 1022
f 1035 1034 1118
f 1118 1034 1131
f 1118 1131 1141
f 1141 1131 1129
f 1141 1129 1142
f 1142 1129 1124
f 1142 1124 887
f 887 1124 894
f 1036 1037 1117
f 1117 1037 1118
f 1117 1118 1143
f 1143 1118 1141
f 1143 1141 1144
f 1144 1141 1142
f 1144 1142 889
f 889 1142 887
f 1014 1038 1116
f 1116 1038 1117
f 1116 1117 1145
f 1145 1117 1143
f 1145 1143 1123
f 1123 1143 1144
f 1123 1144 893
f 893 1144 889
f 590 589 1039
f 1039 1015 590
f 590 1015 1116
f 590 1116 610
f 610 1116 1145
f 610 1145 612
f 612 1145 1123
f 612 1123 614
f 614 1123 886
f 321 323 1146
f 376 375 413
f 413 415 376
f 376 415 417
f 376 417 378
f 419 371 369
f 419 369 417
f 417 369 379
f 417 379 378
f 1147 328 1148
f 1148 328 330
f 371 419 373
f 373 419 420
f 373 420 374
f 374 420 410
f 374 410 367
f 367 410 408
f 367 408 365
f 365 408 406
f 365 406 363
f 363 406 404
f 363 404 362
f 362 404 403
f 362 403 360
f 360 403 402
f 360 402 358
f 358 402 400
f 358 400 349
f 349 400 398
f 349 398 350
f 350 398 396
f 350 396 352
f 352 396 395
f 352 395 354
f 354 395 393
f 354 393 356
f 356 393 392
f 356 392 357
f 357 392 390
f 357 390 348
f 348 390 389
f 348 389 346
f 346 389 388
f 346 388 344
f 344 388 1149
f 344 1149 342
f 342 1149 1150
f 342 1150 340
f 340 1150 1151
f 340 1151 331
f 331 1151 1152
f 331 1152 332
f 332 1152 1153
f 332 1153 334
f 334 1153 1154
f 334 1154 336
f 336 1154 1155
f 336 1155 338
f 338 1155 1156
f 338 1156 339
f 339 1156 1157
f 339 1157 330
f 330 1157 1158
f 330 1158 1148
f 1146 323 1159
f 1159 323 325
f 1159 325 1147
f 1147 325 327
f 1147 327 328
f 463 320 319
f 463 319 1160
f 1160 319 318
f 1160 318 1161
f 1161 318 316
f 1161 316 1162
f 1162 316 314
f 1162 314 1163
f 1163 314 313
f 1163 313 1164
f 1164 313 321
f 1164 321 1165
f 1165 321 1146
f 465 463 1166
f 1166 463 1167
f 1166 1167 1168
f 1168 1167 1169
f 1168 1169 1170
f 1170 1169 1171
f 1170 1171 1078
f 1078 1171 1047
f 1047 1171 1172
f 1171 1169 1173
f 1167 463 1160
f 1169 1167 1174
f 1174 1167 1160
f 1174 1160 1175
f 1175 1160 1161
f 1161 1162 1175
f 1175 1162 1163
f 1175 1163 1176
f 1163 1164 1176
f 1176 1164 1165
f 1176 1165 1177
f 1177 1165 1146
f 1177 1146 1178
f 1146 1159 1178
f 1178 1159 1147
f 1178 1147 1179
f 1147 1148 1179
f 1179 1148 1158
f 1179 1158 1180
f 1180 1158 1157
f 1180 1157 1181
f 1181 1157 1156
f 1181 1156 1182
f 1182 1156 1155
f 1155 1154 1182
f 1182 1154 1153
f 1182 1153 1183
f 1183 1153 1152
f 1183 1152 1184
f 1184 1152 1151
f 1184 1151 1185
f 1185 1151 1150
f 1150 1149 1185
f 1185 1149 388
f 1185 388 386
f 1169 1174 1173
f 1173 1174 1175
f 1173 1175 1186
f 1186 1175 1176
f 1186 1176 1187
f 1187 1176 1177
f 1187 1177 1188
f 1188 1177 1178
f 1188 1178 1189
f 1189 1178 1179
f 1189 1179 1190
f 1190 1179 1180
f 1190 1180 1191
f 1191 1180 1181
f 1191 1181 1192
f 1192 1181 1182
f 1192 1182 1193
f 1193 1182 1183
f 1193 1183 1194
f 1194 1183 1184
f 1194 1184 1195
f 1195 1184 1185
f 1195 1185 1196
f 1196 1185 386
f 1196 386 384
f 1171 1173 1172
f 1172 1173 1186
f 1172 1186 1197
f 1197 1186 1187
f 1197 1187 1198
f 1198 1187 1188
f 1198 1188 1199
f 1199 1188 1189
f 1199 1189 1200
f 1200 1189 1190
f 1200 1190 1201
f 1201 1190 1191
f 1201 1191 1202
f 1202 1191 1192
f 1202 1192 1203
f 1203 1192 1193
f 1203 1193 1204
f 1204 1193 1194
f 1204 1194 1205
f 1205 1194 1195
f 1205 1195 1206
f 1206 1195 1196
f 1206 1196 1207
f 1207 1196 384
f 1207 384 382
f 1047 1172 1044
f 1044 1172 1197
f 1044 1197 1050
f 1050 1197 1198
f 1050 1198 1085
f 1085 1198 1199
f 1085 1199 1086
f 1086 1199 1200
f 1086 1200 1087
f 1087 1200 1201
f 1087 1201 1083
f 1083 1201 1202
f 1083 1202 1084
f 1084 1202 1203
f 1084 1203 1072
f 1072 1203 1204
f 1072 1204 1091
f 1091 1204 1205
f 1091 1205 1063
f 1063 1205 1206
f 1063 1206 1062
f 1062 1206 1207
f 1062 1207 1046
f 1046 1207 382
f 1046 382 381
f 469 467 1208
f 469 1208 472
f 1209 1210 1211
f 1211 1210 1212
f 1211 1212 1213
f 1213 1212 1214
f 1213 1214 1075
f 1075 1214 1076
f 1077 1076 1215
f 1215 1076 1214
f 1215 1214 1216
f 1216 1214 1212
f 1216 1212 1208
f 1208 1212 1210
f 1208 1210 472
f 472 1210 1209
f 472 1209 470
f 467 465 1208
f 1208 465 1166
f 1208 1166 1216
f 1216 1166 1168
f 1216 1168 1215
f 1215 1168 1170
f 1215 1170 1077
f 1077 1170 1078
f 457 444 1217
f 444 432 1218
f 412 411 462
f 432 412 1219
f 1219 412 462
f 1219 462 1220
f 1220 462 564
f 564 562 1220
f 1220 562 560
f 1220 560 1221
f 1221 560 558
f 1221 558 1222
f 558 556 1222
f 1222 556 460
f 1222 460 1223
f 460 551 1223
f 1223 551 539
f 1223 539 1224
f 539 541 1224
f 1224 541 543
f 1224 543 1225
f 1225 543 546
f 1225 546 1226
f 1226 546 548
f 1226 548 1227
f 1227 548 530
f 530 529 1227
f 1227 529 534
f 1227 534 1228
f 1228 534 536
f 1228 536 1229
f 1229 536 527
f 1229 527 1230
f 1230 527 525
f 525 523 1230
f 1230 523 521
f 1230 521 1231
f 1231 521 518
f 1231 518 1232
f 1232 518 516
f 1232 516 1233
f 1233 516 514
f 514 511 1233
f 1233 511 509
f 1233 509 1234
f 1234 509 502
f 1234 502 1235
f 502 505 1235
f 1235 505 500
f 1235 500 1236
f 500 498 1236
f 1236 498 496
f 1236 496 1237
f 496 493 1237
f 1237 493 491
f 1237 491 1238
f 1238 491 475
f 1238 475 1239
f 1239 475 478
f 1239 478 1240
f 1240 478 480
f 480 483 1240
f 1240 483 485
f 1240 485 1241
f 432 1219 1218
f 1218 1219 1220
f 1218 1220 1242
f 1242 1220 1221
f 1242 1221 1243
f 1243 1221 1222
f 1243 1222 1244
f 1244 1222 1223
f 1244 1223 1245
f 1245 1223 1224
f 1245 1224 1246
f 1246 1224 1225
f 1246 1225 1247
f 1247 1225 1226
f 1247 1226 1248
f 1248 1226 1227
f 1248 1227 1249
f 1249 1227 1228
f 1249 1228 1250
f 1250 1228 1229
f 1250 1229 1251
f 1251 1229 1230
f 1251 1230 1252
f 1252 1230 1231
f 1252 1231 1253
f 1253 1231 1232
f 1253 1232 1254
f 1254 1232 1233
f 1254 1233 1255
f 1255 1233 1234
f 1255 1234 1256
f 1256 1234 1235
f 1256 1235 1257
f 1257 1235 1236
f 1257 1236 1258
f 1258 1236 1237
f 1258 1237 1259
f 1259 1237 1238
f 1259 1238 1260
f 1260 1238 1239
f 1260 1239 1261
f 1261 1239 1240
f 1261 1240 1262
f 1262 1240 1241
f 1262 1241 1263
f 444 1218 1217
f 1217 1218 1242
f 1217 1242 1264
f 1264 1242 1243
f 1264 1243 1265
f 1265 1243 1244
f 1265 1244 1266
f 1266 1244 1245
f 1266 1245 1267
f 1267 1245 1246
f 1267 1246 1268
f 1268 1246 1247
f 1268 1247 1269
f 1269 1247 1248
f 1269 1248 1270
f 1270 1248 1249
f 1270 1249 1271
f 1271 1249 1250
f 1271 1250 1272
f 1272 1250 1251
f 1272 1251 1273
f 1273 1251 1252
f 1273 1252 1274
f 1274 1252 1253
f 1274 1253 1275
f 1275 1253 1254
f 1275 1254 1276
f 1276 1254 1255
f 1276 1255 1277
f 1277 1255 1256
f 1277 1256 1278
f 1278 1256 1257
f 1278 1257 1279
f 1279 1257 1258
f 1279 1258 1280
f 1280 1258 1259
f 1280 1259 1281
f 1281 1259 1260
f 1281 1260 1282
f 1282 1260 1261
f 1282 1261 1283
f 1283 1261 1262
f 1283 1262 1284
f 1284 1262 1263
f 1284 1263 1285
f 457 1217 1069
f 1069 1217 1264
f 1069 1264 1061
f 1061 1264 1265
f 1061 1265 1096
f 1096 1265 1266
f 1096 1266 1097
f 1097 1266 1267
f 1097 1267 1098
f 1098 1267 1268
f 1098 1268 1094
f 1094 1268 1269
f 1094 1269 1095
f 1095 1269 1270
f 1095 1270 1090
f 1090 1270 1271
f 1090 1271 1106
f 1106 1271 1272
f 1106 1272 1049
f 1049 1272 1273
f 1049 1273 1048
f 1048 1273 1274
f 1048 1274 1043
f 1043 1274 1275
f 1043 1275 1042
f 1042 1275 1276
f 1042 1276 1040
f 1040 1276 1277
f 1040 1277 1041
f 1041 1277 1278
f 1041 1278 1058
f 1058 1278 1279
f 1058 1279 1059
f 1059 1279 1280
f 1059 1280 1060
f 1060 1280 1281
f 1060 1281 1056
f 1056 1281 1282
f 1056 1282 1057
f 1057 1282 1283
f 1057 1283 1053
f 1053 1283 1284
f 1053 1284 1073
f 1073 1284 1285
f 1073 1285 1074
f 487 470 1209
f 485 487 1241
f 1241 487 1209
f 1241 1209 1263
f 1263 1209 1211
f 1263 1211 1285
f 1285 1211 1213
f 1285 1213 1074
f 1074 1213 1075
f 675 676 1286
f 1287 1288 774
f 774 1288 772
f 1289 753 1288
f 1288 753 648
f 1288 648 772
f 1290 755 1289
f 1289 755 754
f 1289 754 753
f 1291 751 1290
f 1290 751 752
f 1290 752 755
f 749 748 1292
f 1292 748 747
f 1292 747 1291
f 1291 747 746
f 1291 746 751
f 749 1292 750
f 750 1292 1293
f 750 1293 745
f 745 1293 744
f 744 1293 1294
f 744 1294 743
f 743 1294 742
f 742 1294 1295
f 742 1295 649
f 1296 741 1295
f 1295 741 650
f 1295 650 649
f 1297 722 1298
f 1298 722 720
f 1298 720 1296
f 1296 720 740
f 1296 740 741
f 716 718 1297
f 1297 718 724
f 1297 724 722
f 716 1297 714
f 714 1297 1299
f 714 1299 712
f 712 1299 1300
f 712 1300 707
f 707 1300 709
f 709 1300 1301
f 709 1301 704
f 1302 691 692
f 1302 692 1301
f 1301 692 693
f 1301 693 704
f 691 1302 687
f 687 1302 1303
f 687 1303 688
f 688 1303 689
f 689 1303 1304
f 689 1304 690
f 690 1304 684
f 684 1304 1305
f 684 1305 685
f 685 1305 686
f 686 1305 1306
f 686 1306 683
f 683 1306 682
f 682 1306 1307
f 682 1307 678
f 1308 681 680
f 1308 680 1307
f 1307 680 679
f 1307 679 678
f 1286 676 1308
f 1308 676 677
f 1308 677 681
f 675 1286 653
f 653 1286 1309
f 653 1309 670
f 670 1309 1310
f 670 1310 672
f 1311 234 233
f 375 234 461
f 461 234 1311
f 461 1311 566
f 566 1311 1312
f 566 1312 565
f 565 1312 563
f 1313 559 1312
f 1312 559 561
f 1312 561 563
f 1314 552 459
f 1314 459 1315
f 459 458 1315
f 1315 458 555
f 1315 555 1313
f 1313 555 557
f 1313 557 559
f 1316 554 1314
f 1314 554 553
f 1314 553 552
f 545 544 1317
f 1317 544 542
f 1317 542 1316
f 1316 542 540
f 1316 540 554
f 532 531 1318
f 1318 531 550
f 1318 550 1319
f 1319 550 549
f 1319 549 1317
f 1317 549 547
f 1317 547 545
f 1320 535 1318
f 1318 535 533
f 1318 533 532
f 526 528 1321
f 1321 528 538
f 1321 538 1320
f 1320 538 537
f 1320 537 535
f 526 1321 524
f 524 1321 1322
f 524 1322 522
f 522 1322 520
f 520 1322 1323
f 520 1323 519
f 1324 510 512
f 1324 512 1325
f 512 513 1325
f 1325 513 515
f 1325 515 1323
f 1323 515 517
f 1323 517 519
f 1326 503 1324
f 1324 503 508
f 1324 508 510
f 501 507 1327
f 1327 507 506
f 1327 506 1326
f 1326 506 504
f 1326 504 503
f 492 494 1328
f 1328 494 495
f 1328 495 1329
f 1329 495 497
f 1329 497 1327
f 1327 497 499
f 1327 499 501
f 1330 476 1328
f 1328 476 490
f 1328 490 492
f 482 481 1331
f 1331 481 479
f 1331 479 1330
f 1330 479 477
f 1330 477 476
f 471 489 1332
f 1332 489 488
f 1332 488 1333
f 1333 488 486
f 1333 486 1331
f 1331 486 484
f 1331 484 482
f 464 466 1334
f 1334 466 468
f 1334 468 1335
f 1335 468 474
f 1335 474 1332
f 1332 474 473
f 1332 473 471
f 774 380 1287
f 1287 380 312
f 1287 312 311
f 320 464 311
f 311 464 1334
f 311 1334 1287
f 1287 1334 1335
f 1287 1335 1288
f 1288 1335 1332
f 1288 1332 1289
f 1289 1332 1333
f 1289 1333 1290
f 1290 1333 1331
f 1290 1331 1291
f 1291 1331 1330
f 1291 1330 1292
f 1292 1330 1328
f 1292 1328 1293
f 1293 1328 1329
f 1293 1329 1294
f 1294 1329 1327
f 1294 1327 1295
f 1295 1327 1326
f 1295 1326 1296
f 1296 1326 1324
f 1296 1324 1298
f 1298 1324 1325
f 1298 1325 1297
f 1297 1325 1323
f 1297 1323 1299
f 1299 1323 1322
f 1299 1322 1300
f 1300 1322 1321
f 1300 1321 1301
f 1301 1321 1320
f 1301 1320 1302
f 1302 1320 1318
f 1302 1318 1303
f 1303 1318 1319
f 1303 1319 1304
f 1304 1319 1317
f 1304 1317 1305
f 1305 1317 1316
f 1305 1316 1306
f 1306 1316 1314
f 1306 1314 1307
f 1307 1314 1315
f 1307 1315 1308
f 1308 1315 1313
f 1308 1313 1286
f 1286 1313 1312
f 1286 1312 1309
f 1309 1312 1311
f 1309 1311 1310
f 1310 1311 233
f 1310 233 672
f 672 233 236
f 181 180 834
f 834 180 1336
f 834 1336 835
f 939 938 57
f 57 938 937
f 70 851 850
f 57 66 939
f 939 66 65
f 939 65 849
f 849 65 73
f 849 73 850
f 850 73 72
f 850 72 70
f 922 88 923
f 923 88 94
f 923 94 924
f 94 93 924
f 924 93 91
f 924 91 159
f 922 1337 88
f 88 1337 1338
f 88 1338 89
f 89 1338 1339
f 89 1339 85
f 85 1339 1340
f 852 851 1341
f 1341 851 70
f 1341 70 1342
f 1342 70 68
f 1342 68 1343
f 1343 68 67
f 1343 67 1344
f 1344 67 74
f 1344 74 1345
f 1345 74 76
f 1345 76 1346
f 1346 76 80
f 1346 80 1347
f 1347 80 79
f 1347 79 1348
f 1348 79 78
f 1348 78 1349
f 1349 78 81
f 1349 81 1350
f 1350 81 83
f 1350 83 1340
f 1340 83 86
f 1340 86 85
f 937 1351 57
f 57 1351 1352
f 57 1352 58
f 58 1352 1353
f 58 1353 60
f 60 1353 1354
f 60 1354 62
f 62 1354 1355
f 62 1355 63
f 63 1355 1356
f 63 1356 54
f 54 1356 1357
f 54 1357 55
f 55 1357 1358
f 55 1358 1359
f 1360 1361 1362
f 1362 1361 1359
f 1362 1359 1363
f 1363 1359 1358
f 836 835 1364
f 1364 835 1336
f 1364 1336 1365
f 1365 1336 1366
f 1365 1366 1367
f 1367 1366 1368
f 1367 1368 1360
f 1360 1368 1369
f 1360 1369 1361
f 921 925 1079
f 1349 1350 1108
f 1108 1350 1340
f 1108 1340 1109
f 1109 1340 1339
f 1109 1339 1114
f 1114 1339 1338
f 1114 1338 1079
f 1079 1338 1337
f 1079 1337 921
f 921 1337 922
f 1349 1108 1348
f 1348 1108 1107
f 1348 1107 1347
f 1347 1107 1089
f 1347 1089 1346
f 1346 1089 1088
f 1346 1088 1345
f 846 1341 1092
f 1092 1341 1342
f 1092 1342 1093
f 1093 1342 1343
f 1093 1343 1088
f 1088 1343 1344
f 1088 1344 1345
f 846 847 1341
f 1341 847 848
f 1341 848 852
f 1352 1351 1045
f 940 1045 936
f 936 1045 1351
f 936 1351 937
f 1352 1045 1353
f 1353 1045 1068
f 1353 1068 1354
f 1354 1068 1067
f 1354 1067 1355
f 1355 1067 1066
f 1355 1066 1356
f 1365 1367 1055
f 1055 1367 1360
f 1055 1360 1051
f 1051 1360 1362
f 1051 1362 1052
f 1052 1362 1363
f 1052 1363 1065
f 1065 1363 1358
f 1065 1358 1066
f 1066 1358 1357
f 1066 1357 1356
f 1365 1055 1364
f 1364 1055 1054
f 1364 1054 831
f 831 832 1364
f 1364 832 833
f 1364 833 836
f 952 958 1064
f 204 206 1104
f 1104 206 187
f 1104 187 1105
f 1105 187 185
f 1105 185 1113
f 1113 185 183
f 1113 183 1064
f 1064 183 182
f 1064 182 952
f 952 182 174
f 204 1104 202
f 202 1104 1103
f 202 1103 200
f 200 1103 1071
f 200 1071 198
f 198 1071 1070
f 198 1070 196
f 809 189 1081
f 1081 189 190
f 1081 190 1082
f 1082 190 192
f 1082 192 1070
f 1070 192 194
f 1070 194 196
f 809 813 189
f 189 813 815
f 189 815 188
f 210 209 1080
f 989 1080 983
f 983 1080 209
f 983 209 165
f 210 1080 212
f 212 1080 1115
f 212 1115 214
f 214 1115 1112
f 214 1112 216
f 216 1112 1111
f 216 1111 218
f 227 228 1102
f 1102 228 222
f 1102 222 1099
f 1099 222 223
f 1099 223 1100
f 1100 223 224
f 1100 224 1110
f 1110 224 221
f 1110 221 1111
f 1111 221 220
f 1111 220 218
f 227 1102 226
f 226 1102 1101
f 226 1101 873
f 873 877 226
f 226 877 879
f 226 879 225
f 1370 142 141
f 1371 38 37
f 898 1372 1373
f 50 51 1374
f 50 1374 919
f 919 1374 1375
f 919 1375 920
f 920 1375 1376
f 920 1376 918
f 918 1376 1377
f 918 1377 917
f 917 1377 904
f 904 1377 1378
f 904 1378 902
f 902 1378 1379
f 902 1379 906
f 906 1379 1380
f 906 1380 907
f 907 1380 1381
f 907 1381 909
f 909 1381 911
f 911 1381 1382
f 911 1382 913
f 913 1382 1383
f 913 1383 915
f 915 1383 1384
f 915 1384 916
f 1372 898 1384
f 1384 898 900
f 1384 900 916
f 37 892 1371
f 1371 892 891
f 1371 891 1385
f 1385 891 890
f 1385 890 1386
f 1386 890 888
f 1386 888 1373
f 1373 888 896
f 1373 896 898
f 158 38 1387
f 1388 141 158
f 219 143 1389
f 1389 143 142
f 164 211 1390
f 1390 211 213
f 1390 213 1391
f 1391 213 215
f 1391 215 1389
f 1389 215 217
f 1389 217 219
f 1392 170 1390
f 1390 170 169
f 1390 169 164
f 193 191 1393
f 1393 191 166
f 1393 166 1394
f 1394 166 173
f 1394 173 1392
f 1392 173 172
f 1392 172 170
f 193 1393 195
f 195 1393 1395
f 195 1395 197
f 1396 203 201
f 1396 201 1395
f 1395 201 199
f 1395 199 197
f 203 1396 205
f 205 1396 1397
f 205 1397 207
f 1398 184 186
f 1398 186 1397
f 1397 186 208
f 1397 208 207
f 184 1398 175
f 175 1398 1399
f 175 1399 177
f 177 1399 179
f 179 1399 1400
f 179 1400 180
f 180 1400 1401
f 180 1401 1336
f 1336 1401 1366
f 1366 1401 1402
f 1366 1402 1368
f 1403 1359 1404
f 1404 1359 1361
f 1404 1361 1402
f 1402 1361 1369
f 1402 1369 1368
f 142 1370 1389
f 1389 1370 1405
f 1389 1405 1391
f 1391 1405 1406
f 1391 1406 1390
f 1390 1406 1407
f 1390 1407 1392
f 1392 1407 1408
f 1392 1408 1394
f 1394 1408 1409
f 1394 1409 1393
f 1393 1409 1410
f 1393 1410 1395
f 1395 1410 1411
f 1395 1411 1396
f 1396 1411 1412
f 1396 1412 1397
f 1397 1412 1413
f 1397 1413 1398
f 1398 1413 1414
f 1398 1414 1399
f 1399 1414 1415
f 1399 1415 1400
f 1400 1415 1416
f 1400 1416 1401
f 1401 1416 1417
f 1401 1417 1402
f 1402 1417 1418
f 1402 1418 1404
f 1404 1418 1419
f 1404 1419 1403
f 141 1388 1370
f 1370 1388 1420
f 1370 1420 1405
f 1405 1420 1421
f 1405 1421 1406
f 1406 1421 1422
f 1406 1422 1407
f 1407 1422 1423
f 1407 1423 1408
f 1408 1423 1424
f 1408 1424 1409
f 1409 1424 1425
f 1409 1425 1410
f 1410 1425 1426
f 1410 1426 1411
f 1411 1426 1427
f 1411 1427 1412
f 1412 1427 1428
f 1412 1428 1413
f 1413 1428 1429
f 1413 1429 1414
f 1414 1429 1430
f 1414 1430 1415
f 1415 1430 1431
f 1415 1431 1416
f 1416 1431 1432
f 1416 1432 1417
f 1417 1432 1433
f 1417 1433 1418
f 1418 1433 1434
f 1418 1434 1419
f 158 1435 1388
f 1388 1435 1436
f 1388 1436 1420
f 1420 1436 1437
f 1420 1437 1421
f 1421 1437 1438
f 1421 1438 1422
f 1422 1438 1439
f 1422 1439 1423
f 1423 1439 1440
f 1423 1440 1424
f 1424 1440 1441
f 1424 1441 1425
f 1425 1441 1442
f 1425 1442 1426
f 1426 1442 1443
f 1426 1443 1427
f 1427 1443 1444
f 1427 1444 1428
f 1428 1444 1445
f 1428 1445 1429
f 1429 1445 1446
f 1429 1446 1430
f 1430 1446 1447
f 1430 1447 1431
f 1431 1447 1448
f 1431 1448 1432
f 1432 1448 1449
f 1432 1449 1433
f 1433 1449 1450
f 1433 1450 1434
f 1434 1450 6
f 1434 6 1419
f 1419 6 5
f 1419 5 1403
f 1403 5 55
f 1403 55 1359
f 158 1387 1435
f 1435 1387 1451
f 1435 1451 1436
f 1436 1451 1452
f 1436 1452 1437
f 1437 1452 1453
f 1437 1453 1438
f 1438 1453 1454
f 1438 1454 1439
f 1439 1454 1455
f 1439 1455 1440
f 1440 1455 1456
f 1440 1456 1441
f 1441 1456 1457
f 1441 1457 1442
f 1442 1457 1458
f 1442 1458 1443
f 1443 1458 1459
f 1443 1459 1444
f 1444 1459 1460
f 1444 1460 1445
f 1445 1460 1461
f 1445 1461 1446
f 1446 1461 1462
f 1446 1462 1447
f 1447 1462 1463
f 1447 1463 1448
f 1448 1463 1464
f 1448 1464 1449
f 1449 1464 1465
f 1449 1465 1450
f 1450 1465 52
f 1450 52 6
f 38 1371 1387
f 1387 1371 1385
f 1387 1385 1451
f 1451 1385 1386
f 1451 1386 1452
f 1452 1386 1373
f 1452 1373 1453
f 1453 1373 1372
f 1453 1372 1454
f 1454 1372 1384
f 1454 1384 1455
f 1455 1384 1383
f 1455 1383 1456
f 1456 1383 1382
f 1456 1382 1457
f 1457 1382 1381
f 1457 1381 1458
f 1458 1381 1380
f 1458 1380 1459
f 1459 1380 1379
f 1459 1379 1460
f 1460 1379 1378
f 1460 1378 1461
f 1461 1378 1377
f 1461 1377 1462
f 1462 1377 1376
f 1462 1376 1463
f 1463 1376 1375
f 1463 1375 1464
f 1464 1375 1374
f 1464 1374 1465
f 1465 1374 51
f 1465 51 52

