# https://github.com/mikedh/trimesh
v -0.00154195 -0.00112052 -0.00055408
v -0.00116262 -0.00115307 -0.00057017
v -0.00116262 -0.00099241 -0.00081840
v -0.00066626 -0.00049397 -0.00136533
v -0.00116262 -0.00043763 -0.00120961
v -0.00116262 -0.00052504 -0.00117431
v -0.00022984 -0.00059218 -0.00163679
v -0.00066626 -0.00059264 -0.00132549
v 0.00011677 -0.00072555 -0.00200541
v -0.00022984 -0.00071046 -0.00158903
v 0.00034984 -0.00088493 -0.00244594
v 0.00011677 -0.00087047 -0.00194688
v 0.00043858 -0.00101101 -0.00279443
v 0.00034984 -0.00106169 -0.00237457
v 0.00034984 -0.00157586 -0.00206939
v 0.00043858 -0.00173156 -0.00241509
v 0.00043858 -0.00121295 -0.00271288
v 0.00034984 -0.00200677 -0.00165487
v 0.00043858 -0.00220890 -0.00198789
v 0.00043858 -0.00180038 -0.00236423
v 0.00034984 -0.00233163 -0.00115291
v 0.00043858 -0.00258359 -0.00146832
v 0.00043858 -0.00229268 -0.00189065
v 0.00034984 -0.00253328 -0.00059002
v 0.00043858 -0.00283823 -0.00088052
v 0.00043858 -0.00266383 -0.00131716
v 0.00034984 -0.00260107 0.00000404
v 0.00043858 -0.00296098 -0.00025181
v 0.00043858 -0.00289421 -0.00067408
v 0.00043858 -0.00279440 0.00101096
v 0.00043858 -0.00289209 0.00068308
v 0.00034984 -0.00253142 0.00059789
v 0.00043858 -0.00294614 0.00038861
v 0.00043858 -0.00297166 0.00000462
v 0.00043858 -0.00265968 0.00132544
v 0.00034984 -0.00232800 0.00116014
v 0.00043858 -0.00251281 0.00158633
v 0.00034984 -0.00200157 0.00166108
v 0.00043858 -0.00228674 0.00189775
v 0.00043858 -0.00211446 0.00208799
v 0.00034984 -0.00156936 0.00207425
v 0.00043858 -0.00179296 0.00236979
v 0.00043858 -0.00161785 0.00249262
v 0.00034984 -0.00105423 0.00237781
v 0.00043858 -0.00120443 0.00271660
v 0.00043858 -0.00104606 0.00278142
v 0.00034984 -0.00048340 0.00255572
v 0.00043858 -0.00055227 0.00291985
v 0.00043858 -0.00042566 0.00294097
v 0.00034984 0.00011298 0.00259857
v 0.00043858 0.00012908 0.00296881
v 0.00043858 0.00021451 0.00296386
v 0.00034984 0.00070339 0.00250411
v 0.00043858 0.00080361 0.00286089
v 0.00034984 0.00088490 0.00244587
v 0.00043858 0.00101098 0.00279435
v -0.00116262 0.00005587 0.00128505
v -0.00154195 0.00033802 0.00120339
v -0.00116262 0.00034784 0.00123834
v -0.00154195 0.00042525 0.00117540
v -0.00116262 0.00043760 0.00120953
v -0.00116262 -0.00052136 0.00117588
v -0.00154195 -0.00023231 0.00122819
v -0.00116262 -0.00023906 0.00126386
v -0.00154195 -0.00012686 0.00124351
v -0.00154195 0.00005429 0.00124878
v -0.00116262 -0.00098984 0.00082144
v -0.00154195 -0.00075420 0.00099681
v -0.00116262 -0.00077610 0.00102576
v -0.00154195 -0.00065386 0.00106532
v -0.00154195 -0.00050664 0.00114269
v -0.00116262 -0.00125187 0.00029565
v -0.00154195 -0.00111878 0.00055751
v -0.00116262 -0.00115127 0.00057370
v -0.00154195 -0.00105135 0.00067613
v -0.00154195 -0.00096190 0.00079825
v -0.00154195 -0.00125001 0.00000192
v -0.00154195 -0.00124061 0.00015301
v -0.00154195 -0.00121654 0.00028731
v -0.00116262 -0.00128632 0.00000198
v -0.00116262 -0.00125279 -0.00029180
v -0.00154195 -0.00121743 -0.00028357
v -0.00154195 -0.00118416 -0.00040042
v -0.00154195 -0.00075732 -0.00099451
v -0.00154195 -0.00089317 -0.00087455
v -0.00154195 -0.00096440 -0.00079531
v -0.00116262 -0.00077932 -0.00102340
v -0.00154195 -0.00051023 -0.00114117
v -0.00154195 -0.00042528 -0.00117547
v 0.00011677 -0.00129203 -0.00169668
v 0.00011677 -0.00164532 -0.00135682
v 0.00011677 -0.00191167 -0.00094526
v 0.00011677 -0.00207701 -0.00048376
v 0.00011677 -0.00213259 0.00000331
v 0.00011677 -0.00207548 0.00049019
v 0.00011677 -0.00190870 0.00095118
v 0.00011677 -0.00164106 0.00136189
v 0.00011677 -0.00128670 0.00170065
v 0.00011677 -0.00086436 0.00194953
v 0.00011677 -0.00039633 0.00209539
v 0.00011677 0.00009263 0.00213053
v 0.00011677 0.00057670 0.00205308
v 0.00011677 0.00072552 0.00200533
v -0.00022984 -0.00105454 -0.00138481
v -0.00022984 -0.00134289 -0.00110742
v -0.00022984 -0.00156028 -0.00077152
v -0.00022984 -0.00169523 -0.00039484
v -0.00022984 -0.00174059 0.00000269
v -0.00022984 -0.00169398 0.00040008
v -0.00022984 -0.00155786 0.00077633
v -0.00022984 -0.00133941 0.00111155
v -0.00022984 -0.00105019 0.00138804
v -0.00022984 -0.00070548 0.00159117
v -0.00022984 -0.00032348 0.00171022
v -0.00022984 0.00007560 0.00173890
v -0.00022984 0.00047069 0.00167569
v -0.00022984 0.00059215 0.00163671
v -0.00066626 -0.00087965 -0.00115514
v -0.00066626 -0.00112017 -0.00092376
v -0.00066626 -0.00130151 -0.00064356
v -0.00066626 -0.00141407 -0.00032936
v -0.00066626 -0.00145191 0.00000224
v -0.00066626 -0.00141303 0.00033372
v -0.00066626 -0.00129949 0.00064757
v -0.00066626 -0.00111727 0.00092719
v -0.00066626 -0.00087602 0.00115782
v -0.00066626 -0.00058847 0.00132727
v -0.00066626 -0.00026984 0.00142657
v -0.00066626 0.00006306 0.00145049
v -0.00066626 0.00039262 0.00139777
v -0.00066626 0.00049394 0.00136526
v 0.00099935 0.00685167 -0.00123352
v 0.00100148 0.00686793 -0.00122813
v 0.00100148 0.00691694 -0.00091250
v 0.00090601 0.00214251 0.00592189
v 0.00090603 0.00216492 0.00591397
v 0.00043858 0.00121292 0.00271280
v 0.00091312 0.00248511 0.00584159
v 0.00100148 0.00385069 0.00581794
v 0.00100148 0.00345056 0.00606382
v 0.00096323 0.00315046 0.00591849
v 0.00100148 0.00406533 0.00567004
v 0.00043858 0.00173153 0.00241501
v 0.00093323 0.00282540 0.00584416
v 0.00093131 0.00628054 -0.00158598
v 0.00096134 0.00654852 -0.00137529
v 0.00043858 0.00294612 -0.00038868
v 0.00100148 0.00606384 -0.00345061
v 0.00096323 0.00591851 -0.00315052
v 0.00043858 0.00251278 -0.00158641
v 0.00093323 0.00584419 -0.00282545
v 0.00091312 0.00584162 -0.00248516
v 0.00043858 0.00265966 -0.00132551
v 0.00090603 0.00591400 -0.00216497
v 0.00043858 0.00279438 -0.00101103
v 0.00090601 0.00592192 -0.00214256
v 0.00043858 0.00289206 -0.00068315
v 0.00091240 0.00606954 -0.00184299
v 0.00091576 0.00611353 -0.00177883
v 0.00043858 -0.00021454 -0.00296394
v 0.00043858 -0.00080364 -0.00286097
v 0.00093131 -0.00158595 -0.00628059
v 0.00100148 -0.00122810 -0.00686798
v 0.00100148 -0.00076327 -0.00693504
v 0.00099935 -0.00123349 -0.00685172
v 0.00100148 -0.00050368 -0.00695871
v 0.00096134 -0.00137526 -0.00654857
v 0.00090601 -0.00214254 -0.00592197
v 0.00091240 -0.00184296 -0.00606959
v 0.00100148 0.00460902 0.00523768
v 0.00043858 0.00180036 0.00236415
v 0.00100148 0.00518603 0.00466706
v 0.00043858 0.00220887 0.00198781
v 0.00100148 0.00528101 0.00455930
v 0.00043858 0.00229265 0.00189057
v 0.00100148 0.00585408 0.00379553
v 0.00043858 0.00258356 0.00146824
v 0.00100148 0.00606574 0.00344721
v 0.00100148 0.00631751 0.00296067
v 0.00043858 0.00266380 0.00131709
v 0.00100148 0.00666259 0.00207034
v 0.00043858 0.00283820 0.00088044
v 0.00100148 0.00688289 0.00114124
v 0.00043858 0.00289419 0.00067400
v 0.00100148 0.00695178 0.00059107
v 0.00043858 0.00296096 0.00025173
v 0.00100148 0.00697425 0.00019076
v 0.00043858 0.00297164 -0.00000470
v 0.00100148 0.00693499 -0.00076329
v 0.00043858 0.00228671 -0.00189783
v 0.00100148 0.00581796 -0.00385075
v 0.00100148 0.00589956 -0.00372453
v 0.00043858 0.00055224 -0.00291993
v 0.00100148 0.00207037 -0.00666264
v 0.00043858 0.00104603 -0.00278150
v 0.00100148 0.00245590 -0.00653038
v 0.00043858 0.00120441 -0.00271667
v 0.00100148 0.00296069 -0.00631756
v 0.00043858 0.00161782 -0.00249270
v 0.00100148 0.00379556 -0.00585414
v 0.00043858 0.00179293 -0.00236986
v 0.00100148 0.00455933 -0.00528106
v 0.00043858 0.00211443 -0.00208807
v 0.00100148 0.00496429 -0.00490233
v 0.00100148 0.00523770 -0.00460907
v 0.00043858 -0.00012911 -0.00296889
v 0.00100148 0.00019078 -0.00697431
v 0.00043858 0.00042563 -0.00294105
v 0.00100148 0.00099932 -0.00690497
v 0.00100148 0.00114126 -0.00688294
v -0.01232345 0.00695949 -0.00719236
v -0.01232345 0.00713171 -0.00702163
v -0.01212099 0.00743737 -0.00708450
v -0.01232343 0.00498287 0.00867960
v -0.01232343 0.00420973 0.00907979
v -0.01212095 0.00454521 0.00921117
v -0.01232343 0.00140113 0.00990966
v -0.01232343 0.00136289 0.00991499
v -0.01210615 0.00140058 0.01018920
v -0.01212095 0.00212702 0.01004889
v -0.01180644 0.00142569 0.01037186
v -0.01232343 0.00207250 0.00979128
v -0.01212095 0.00336231 0.00970563
v -0.01232343 0.00327611 0.00945683
v -0.01232343 0.00340493 0.00941122
v -0.01232343 0.00526379 0.00851216
v -0.01212095 0.00565730 0.00857319
v -0.01232343 0.00571830 0.00821374
v -0.01212095 0.00668124 0.00780164
v -0.01232343 0.00641046 0.00768572
v -0.01212096 0.00760110 0.00690854
v -0.01232343 0.00705412 0.00709956
v -0.01232343 0.00671665 0.00741963
v -0.01212096 0.00840253 0.00590781
v -0.01232343 0.00794793 0.00608233
v -0.01232343 0.00764441 0.00645967
v -0.01232344 0.00905257 0.00426793
v -0.01232344 0.00891701 0.00454437
v -0.01212096 0.00907305 0.00481504
v -0.01232344 0.00864743 0.00503848
v -0.01232343 0.00817685 0.00577091
v -0.01232344 0.00938922 0.00346509
v -0.01212096 0.00960221 0.00364724
v -0.01232344 0.00959191 0.00285649
v -0.01212096 0.00998177 0.00242263
v -0.01232344 0.00965483 0.00263603
v -0.01212096 0.01020581 0.00116026
v -0.01212097 0.01027085 -0.00012018
v -0.01232344 0.01000807 0.00005497
v -0.01232344 0.00996542 0.00092450
v -0.01232344 0.00995038 0.00107438
v -0.01232344 0.00984738 0.00178702
v -0.01212097 0.00992235 -0.00265552
v -0.01232344 0.00986642 -0.00167874
v -0.01212097 0.01017587 -0.00139874
v -0.01232344 0.00997498 -0.00081496
v -0.01232344 0.00998059 -0.00074318
v -0.01232345 0.00906309 -0.00424558
v -0.01232345 0.00909892 -0.00416823
v -0.01212097 0.00951424 -0.00387092
v -0.01232345 0.00942673 -0.00336174
v -0.01232345 0.00968321 -0.00252981
v -0.01232345 0.00870227 -0.00494318
v -0.01212098 0.00895790 -0.00502601
v -0.01232345 0.00823977 -0.00568073
v -0.01212098 0.00826199 -0.00610280
v -0.01232345 0.00814565 -0.00581489
v -0.01232345 0.00771492 -0.00637530
v -0.01232345 0.00649453 -0.00761483
v -0.01212099 0.00649687 -0.00795583
v -0.01232345 0.00580821 -0.00815042
v -0.01212099 0.00545515 -0.00870321
v -0.01232345 0.00554374 -0.00833256
v -0.01212099 0.00313429 -0.00978165
v -0.01232346 0.00268012 -0.00964270
v -0.01232346 0.00350795 -0.00937331
v -0.01212099 0.00432844 -0.00931499
v -0.01232346 0.00394511 -0.00919787
v -0.01232346 0.00430925 -0.00903299
v -0.01232346 0.00507794 -0.00862433
v -0.01232346 0.00221632 -0.00975974
v -0.01212100 0.00189131 -0.01009590
v -0.01232346 0.00183200 -0.00983912
v -0.01232346 0.00097002 -0.00996111
v -0.01212100 0.00061887 -0.01025287
v -0.01232347 0.00041442 -0.00999964
v -0.01212100 -0.00066322 -0.01025009
v -0.01232347 -0.00076937 -0.00997861
v -0.01232347 0.00010071 -0.01000772
v -0.01178778 -0.00067646 -0.01045466
v -0.01180648 -0.00142569 -0.01037186
v -0.01210619 -0.00140058 -0.01018919
v -0.01146146 0.00370964 -0.00986405
v -0.01146146 0.00321577 -0.01003593
v -0.01178778 0.00319685 -0.00997687
v -0.01146146 0.00194048 -0.01035835
v -0.01178778 0.00192906 -0.01029740
v -0.01146147 0.00063495 -0.01051940
v -0.01178778 0.00063122 -0.01045750
v -0.01146146 0.00014900 -0.01053749
v -0.01146147 -0.00068046 -0.01051655
v -0.01146146 -0.00143510 -0.01044036
v -0.01146146 0.00444096 -0.00955714
v -0.01178777 0.00441483 -0.00950090
v -0.01146146 0.00535032 -0.00907938
v -0.01178777 0.00556402 -0.00887691
v -0.01146146 0.00559696 -0.00892946
v -0.01178777 0.00662653 -0.00811462
v -0.01146146 0.00666576 -0.00816265
v -0.01178776 0.00842689 -0.00622460
v -0.01146145 0.00810955 -0.00673026
v -0.01178777 0.00758580 -0.00722590
v -0.01146145 0.00763070 -0.00726867
v -0.01146145 0.00683167 -0.00802431
v -0.01146144 0.00990992 -0.00358536
v -0.01146145 0.00976156 -0.00397155
v -0.01178776 0.00970413 -0.00394817
v -0.01146145 0.00919076 -0.00515666
v -0.01178776 0.00913668 -0.00512632
v -0.01146145 0.00914592 -0.00523577
v -0.01146145 0.00847677 -0.00626144
v -0.01146144 0.01018028 -0.00272455
v -0.01178775 0.01012038 -0.00270852
v -0.01146144 0.01037878 -0.00182817
v -0.01178775 0.01037896 -0.00142666
v -0.01146144 0.01044039 -0.00143510
v -0.01178775 0.01047584 -0.00012258
v -0.01146143 0.01053784 -0.00012330
v -0.01146143 0.01053855 -0.00001653
v -0.01178775 0.01040950 0.00118342
v -0.01146143 0.01047111 0.00119042
v -0.01146142 0.00916230 0.00520706
v -0.01146143 0.00930890 0.00494020
v -0.01178774 0.00925413 0.00491113
v -0.01146143 0.00985182 0.00374205
v -0.01178774 0.00979385 0.00372003
v -0.01146143 0.00992112 0.00355425
v -0.01178774 0.01018098 0.00247098
v -0.01146143 0.01024124 0.00248560
v -0.01146143 0.01038447 0.00179560
v -0.01146142 0.00862095 0.00606139
v -0.01178774 0.00857022 0.00602572
v -0.01146142 0.00813062 0.00670478
v -0.01178774 0.00775280 0.00704642
v -0.01146142 0.00779869 0.00708813
v -0.01178774 0.00681459 0.00795735
v -0.01146142 0.00685492 0.00800445
v -0.01178773 0.00577020 0.00874429
v -0.01146142 0.00580436 0.00879605
v -0.01146142 0.00166492 0.01040620
v -0.01146142 0.00218231 0.01031011
v -0.01178773 0.00216947 0.01024944
v -0.01146142 0.00344971 0.00995793
v -0.01178773 0.00342941 0.00989934
v -0.01146142 0.00358535 0.00990989
v -0.01178773 0.00463592 0.00939500
v -0.01146142 0.00466336 0.00945061
v -0.01146142 0.00537878 0.00906255
v -0.01146142 0.00143510 0.01044036
v -0.01232347 -0.00136289 -0.00991499
v 0.00102094 -0.00919551 0.00332689
v 0.00094281 -0.00955991 0.00345873
v 0.00094281 -0.00990711 0.00228119
v 0.00072060 -0.00986736 0.00356996
v 0.00072060 -0.01022573 0.00235455
v 0.00038907 -0.01006982 0.00364321
v 0.00038907 -0.01043554 0.00240287
v -0.00000000 -0.01013565 0.00366703
v -0.00000000 -0.01050376 0.00241857
v -0.00000000 -0.01061519 0.00186981
v 0.00038907 -0.01064909 0.00112748
v -0.00000000 -0.01071871 0.00113485
v -0.00000000 -0.01077860 0.00001691
v 0.00038907 -0.01070735 -0.00016435
v -0.00000000 -0.01077734 -0.00016542
v -0.00000000 -0.01067883 -0.00146328
v 0.00038907 -0.01060947 -0.00145378
v -0.00000000 -0.01062101 -0.00183650
v 0.00038907 -0.01035688 -0.00272201
v -0.00000000 -0.01042459 -0.00273980
v 0.00038907 -0.00995327 -0.00395055
v -0.00000000 -0.01014710 -0.00363521
v -0.00000000 -0.01001833 -0.00397637
v -0.00000000 -0.00946599 -0.00515495
v 0.00038907 -0.00940451 -0.00512148
v -0.00000000 -0.00937101 -0.00532567
v 0.00038907 -0.00871862 -0.00621772
v -0.00000000 -0.00877561 -0.00625837
v 0.00038907 -0.00790558 -0.00722330
v -0.00000000 -0.00831583 -0.00685751
v -0.00000000 -0.00795726 -0.00727052
v -0.00000000 -0.00702288 -0.00817665
v 0.00038907 -0.00697727 -0.00812355
v -0.00000000 -0.00701300 -0.00818513
v 0.00038907 -0.00594721 -0.00890534
v -0.00000000 -0.00598609 -0.00896355
v -0.00000000 -0.00550131 -0.00926899
v 0.00038907 -0.00483043 -0.00955726
v -0.00000000 -0.00241857 -0.01050376
v 0.00038907 -0.00364321 -0.01006982
v -0.00000000 -0.00366703 -0.01013565
v -0.00000000 -0.00486201 -0.00961974
v -0.00000000 -0.00170284 -0.01064325
v 0.00038907 -0.00112748 -0.01064909
v 0.00038907 -0.00240287 -0.01043554
v -0.00000000 -0.00113485 -0.01071871
v -0.00000000 0.00016542 -0.01077734
v 0.00038907 0.00016435 -0.01070735
v -0.00000000 0.00146328 -0.01067883
v 0.00038907 0.00145378 -0.01060947
v -0.00000000 0.00200310 -0.01059085
v 0.00038907 0.00272201 -0.01035688
v -0.00000000 0.00273980 -0.01042459
v -0.00000000 0.00379415 -0.01008875
v 0.00038907 0.00395055 -0.00995327
v -0.00000000 0.00397637 -0.01001833
v -0.00000000 0.00515496 -0.00946599
v 0.00038907 0.00512148 -0.00940451
v -0.00000000 0.00547220 -0.00928620
v 0.00038907 0.00621772 -0.00871862
v -0.00000000 0.00625837 -0.00877561
v 0.00038907 0.00722330 -0.00790558
v -0.00000000 0.00698729 -0.00820709
v -0.00000000 0.00727052 -0.00795726
v -0.00000000 0.00817665 -0.00702288
v 0.00038907 0.00812355 -0.00697727
v -0.00000000 0.00829428 -0.00688357
v 0.00038907 0.00890533 -0.00594721
v -0.00000000 0.00896355 -0.00598609
v 0.00038907 0.00955726 -0.00483043
v -0.00000000 0.00935426 -0.00535504
v -0.00000000 0.00961974 -0.00486201
v -0.00000000 0.01013565 -0.00366703
v 0.00038907 0.01006982 -0.00364321
v 0.00072060 -0.01043498 0.00110481
v 0.00072060 -0.01049207 -0.00016104
v 0.00072060 -0.01039616 -0.00142455
v 0.00072060 -0.01014865 -0.00266728
v 0.00072060 -0.00975315 -0.00387112
v 0.00072060 -0.00921543 -0.00501850
v 0.00072060 -0.00854332 -0.00609271
v 0.00072060 -0.00774664 -0.00707807
v 0.00072060 -0.00683699 -0.00796022
v 0.00072060 -0.00582764 -0.00872629
v 0.00072060 -0.00473331 -0.00936511
v 0.00072060 -0.00356996 -0.00986736
v 0.00072060 -0.00235455 -0.01022573
v 0.00072060 -0.00110481 -0.01043498
v 0.00072060 0.00016104 -0.01049207
v 0.00072060 0.00142455 -0.01039616
v 0.00072060 0.00266728 -0.01014865
v 0.00072060 0.00387112 -0.00975315
v 0.00072060 0.00501850 -0.00921543
v 0.00072060 0.00609271 -0.00854332
v 0.00072060 0.00707807 -0.00774664
v 0.00072060 0.00796022 -0.00683699
v 0.00072060 0.00872629 -0.00582764
v 0.00072060 0.00936511 -0.00473331
v 0.00072060 0.00986736 -0.00356996
v 0.00094281 -0.01010984 0.00107039
v 0.00094281 -0.01016515 -0.00015602
v 0.00094281 -0.01007223 -0.00138016
v 0.00094281 -0.00983243 -0.00258417
v 0.00094281 -0.00944925 -0.00375050
v 0.00094281 -0.00892829 -0.00486213
v 0.00094281 -0.00827712 -0.00590287
v 0.00094281 -0.00750526 -0.00685753
v 0.00094281 -0.00662396 -0.00771219
v 0.00094281 -0.00564606 -0.00845439
v 0.00094281 -0.00458583 -0.00907330
v 0.00094281 -0.00345873 -0.00955991
v 0.00094281 -0.00228119 -0.00990711
v 0.00094281 -0.00107039 -0.01010984
v 0.00094281 0.00015602 -0.01016515
v 0.00094281 0.00138016 -0.01007223
v 0.00094281 0.00258417 -0.00983243
v 0.00094281 0.00375050 -0.00944925
v 0.00094281 0.00486213 -0.00892829
v 0.00094281 0.00590287 -0.00827712
v 0.00094281 0.00685753 -0.00750526
v 0.00094281 0.00771219 -0.00662396
v 0.00094281 0.00845439 -0.00564606
v 0.00094281 0.00907330 -0.00458583
v 0.00094281 0.00955991 -0.00345873
v 0.00102094 -0.00952948 0.00219424
v 0.00102094 -0.00972448 0.00102959
v 0.00102094 -0.00977768 -0.00015008
v 0.00102094 -0.00968830 -0.00132755
v 0.00102094 -0.00945764 -0.00248567
v 0.00102094 -0.00908907 -0.00360754
v 0.00102094 -0.00858796 -0.00467680
v 0.00102094 -0.00796162 -0.00567787
v 0.00102094 -0.00721918 -0.00659614
v 0.00102094 -0.00637147 -0.00741822
v 0.00102094 -0.00543085 -0.00813213
v 0.00102094 -0.00441103 -0.00872745
v 0.00102094 -0.00332689 -0.00919551
v 0.00102094 -0.00219424 -0.00952948
v 0.00102094 -0.00102959 -0.00972448
v 0.00102094 0.00015008 -0.00977768
v 0.00102094 0.00132755 -0.00968830
v 0.00102094 0.00248567 -0.00945764
v 0.00102094 0.00360754 -0.00908907
v 0.00102094 0.00467680 -0.00858796
v 0.00102094 0.00567787 -0.00796162
v 0.00102094 0.00659614 -0.00721918
v 0.00102094 0.00741822 -0.00637147
v 0.00102094 0.00813213 -0.00543085
v 0.00102094 0.00872745 -0.00441103
v 0.00102094 0.00919551 -0.00332689
v -0.00000000 0.00241857 0.01050376
v -0.00000000 0.00366703 0.01013565
v -0.01146146 -0.00466336 -0.00945061
v -0.01146146 -0.00358535 -0.00990989
v -0.01146146 -0.00537878 -0.00906254
v -0.01146146 -0.00580436 -0.00879605
v -0.01146146 -0.00685492 -0.00800444
v -0.01146145 -0.01053855 0.00001653
v -0.01146145 -0.01047111 -0.00119042
v -0.01146146 -0.00779869 -0.00708813
v -0.01146146 -0.00813062 -0.00670478
v -0.01146146 -0.00862095 -0.00606138
v -0.01146146 -0.00916230 -0.00520706
v -0.01146146 -0.00930890 -0.00494020
v -0.01146145 -0.00985182 -0.00374205
v -0.01146146 -0.00992112 -0.00355425
v -0.01146145 -0.01024124 -0.00248560
v -0.01146145 -0.01038446 -0.00179560
v -0.00000000 -0.00935426 0.00535504
v -0.01146144 -0.00914593 0.00523578
v -0.01146143 -0.00919076 0.00515667
v -0.00000000 -0.00961974 0.00486201
v -0.01146144 -0.00976156 0.00397155
v -0.01146144 -0.00990992 0.00358536
v -0.01146144 -0.01018028 0.00272455
v -0.01146145 -0.01037878 0.00182817
v -0.01146144 -0.01044039 0.00143511
v -0.01146145 -0.01053784 0.00012331
v -0.01146143 -0.00847677 0.00626145
v -0.00000000 -0.00896355 0.00598609
v -0.01146143 -0.00810955 0.00673026
v -0.00000000 -0.00829428 0.00688357
v -0.01146143 -0.00763070 0.00726867
v -0.00000000 -0.00817665 0.00702288
v -0.00000000 -0.00727052 0.00795726
v -0.01146143 -0.00683167 0.00802431
v -0.00000000 -0.00698729 0.00820709
v -0.01146143 -0.00666576 0.00816265
v -0.00000000 -0.00625837 0.00877561
v -0.01146142 -0.00559696 0.00892946
v -0.00000000 -0.00547220 0.00928620
v -0.01146143 -0.00535033 0.00907938
v -0.00000000 -0.00515496 0.00946599
v -0.01146142 -0.00444096 0.00955714
v -0.00000000 -0.00397637 0.01001833
v -0.01146142 -0.00370965 0.00986406
v -0.00000000 -0.00379415 0.01008875
v -0.01146142 -0.00321577 0.01003593
v -0.00000000 -0.00273980 0.01042459
v -0.01146142 -0.00194048 0.01035836
v -0.00000000 -0.00016542 0.01077734
v -0.01146142 -0.00063495 0.01051940
v -0.00000000 -0.00146328 0.01067883
v -0.00000000 -0.00200310 0.01059085
v -0.00000000 0.00170284 0.01064325
v -0.00000000 0.00113485 0.01071871
v -0.01146142 0.00068046 0.01051655
v -0.01146142 -0.00014900 0.01053749
v -0.01658961 -0.00104388 -0.00168809
v -0.01658961 -0.00117371 -0.00160055
v -0.01664796 -0.00102715 -0.00140070
v -0.01658961 -0.00133200 -0.00147143
v -0.01658961 -0.00157708 -0.00120505
v -0.01664796 -0.00138016 -0.00105458
v -0.01658961 -0.00176835 -0.00090124
v -0.01658961 -0.00185269 -0.00071193
v -0.01664796 -0.00162135 -0.00062304
v -0.01658961 -0.00179732 0.00084190
v -0.01658961 -0.00175126 0.00093393
v -0.01664796 -0.00153259 0.00081731
v -0.01658961 -0.00109940 0.00165239
v -0.01658961 -0.00096832 0.00173246
v -0.01664796 -0.00084741 0.00151613
v -0.01658961 -0.00078237 0.00182399
v -0.01658961 -0.00044099 0.00193509
v -0.01664796 -0.00038593 0.00169346
v -0.01658961 -0.00008220 0.00198300
v -0.01658961 0.00012206 0.00198094
v -0.01664796 0.00010682 0.00173359
v -0.01658961 0.00062873 0.00188248
v -0.01658961 0.00067522 0.00186630
v -0.01664796 0.00059091 0.00163326
v -0.01614814 -0.00089317 -0.00087455
v -0.01614814 -0.00073921 -0.00100805
v -0.01639435 -0.00077755 -0.00106032
v -0.01614814 -0.00124061 0.00015301
v -0.01614814 -0.00124589 -0.00010150
v -0.01639435 -0.00131050 -0.00010676
v -0.01614814 -0.00105135 0.00067613
v -0.01614814 -0.00110296 0.00058818
v -0.01639435 -0.00116016 0.00061869
v -0.01614814 0.00007687 0.00124760
v -0.01614814 -0.00012686 0.00124351
v -0.01639435 -0.00029215 0.00128192
v -0.01614814 -0.00089257 0.00087509
v -0.01614814 -0.00122401 0.00025362
v -0.01639435 -0.00128748 0.00026677
v -0.01657672 -0.00146144 0.00030282
v -0.01657672 -0.00148757 -0.00012118
v -0.01664796 -0.00170079 0.00035242
v -0.01664796 -0.00173119 -0.00014102
v -0.01658961 0.00027785 0.00196515
v -0.01657672 0.00009178 0.00148962
v -0.01657672 0.00050775 0.00140341
v -0.01639435 0.00008086 0.00131229
v -0.01639435 0.00044731 0.00123635
v -0.01657672 -0.00033162 0.00145514
v -0.01614814 0.00042525 0.00117540
v -0.01657672 -0.00072816 0.00130277
v -0.01639435 -0.00064148 0.00114769
v -0.01658961 -0.00161539 0.00115311
v -0.01658961 -0.00141720 0.00138948
v -0.01664796 -0.00124024 0.00121598
v -0.01658961 -0.00138016 0.00142628
v -0.01657672 -0.00106571 0.00104485
v -0.01639435 -0.00093885 0.00092047
v -0.01657672 -0.00131692 0.00070229
v -0.01614814 -0.00060986 0.00109110
v -0.01614814 -0.00027775 0.00121872
v -0.01658961 -0.00194346 0.00040271
v -0.01658961 -0.00191997 0.00050291
v -0.01658961 -0.00190219 -0.00056652
v -0.01658961 -0.00197328 -0.00021311
v -0.01658961 -0.00197820 -0.00016113
v -0.01658961 -0.00197927 0.00014733
v -0.01657672 -0.00139319 -0.00053536
v -0.01639435 -0.00122735 -0.00047164
v -0.01614814 -0.00116684 -0.00044839
v -0.01657672 -0.00118593 -0.00090618
v -0.01639435 -0.00104477 -0.00079832
v -0.01614814 -0.00099326 -0.00075896
v -0.01657672 -0.00088261 -0.00120359
v -0.01664796 -0.00059093 -0.00163334
v -0.01658961 -0.00067525 -0.00186638
v -0.01658961 -0.00072132 -0.00184906
v -0.01657672 -0.00050778 -0.00140349
v -0.01639435 -0.00044733 -0.00123643
v -0.01614814 -0.00042528 -0.00117547
v -0.01232343 -0.00041445 0.00999964
v -0.01232347 -0.00526378 -0.00851218
v -0.01232343 -0.00060300 0.00999005
v -0.01303255 0.00202489 0.00846148
v -0.01309319 0.00185434 0.00838378
v -0.01287092 0.00277514 0.00854474
v -0.01288493 0.00266239 0.00855686
v -0.01291808 0.00246654 0.00855749
v -0.01299220 0.00215741 0.00850522
v -0.01321644 0.00158183 0.00819777
v -0.01327174 0.00148417 0.00810642
v -0.01335949 0.00135441 0.00795523
v -0.01350289 0.00119884 0.00769898
v -0.01358144 0.00113924 0.00755688
v -0.01365888 0.00109562 0.00741513
v -0.01384041 0.00104829 0.00706959
v -0.01392098 0.00105282 0.00691341
v -0.01402391 0.00108215 0.00671404
v -0.01416664 0.00117060 0.00643604
v -0.01423340 0.00124033 0.00629423
v -0.01446765 0.00203295 0.00561907
v -0.01444525 0.00175754 0.00575241
v -0.01439224 0.00154129 0.00591536
v -0.01429818 0.00133281 0.00614887
v -0.01285455 0.00306509 0.00847189
v -0.01232343 -0.00184283 0.00983711
v -0.01232343 -0.00221637 0.00975974
v -0.01232343 -0.00305394 0.00953091
v -0.01232343 -0.00394516 0.00919785
v -0.01232343 -0.00421748 0.00907621
v -0.01232344 -0.00531531 0.00848012
v -0.01232344 -0.00554381 0.00833253
v -0.01232344 -0.00633032 0.00775190
v -0.01232344 -0.00695956 0.00719232
v -0.01232344 -0.00724671 0.00690290
v -0.01232344 -0.00805020 0.00594636
v -0.01232344 -0.00814572 0.00581483
v -0.01415850 -0.00570349 0.00323436
v -0.01400871 -0.00587115 0.00348787
v -0.01358140 -0.00653660 0.00395967
v -0.01350180 -0.00668492 0.00400502
v -0.01392119 -0.00598668 0.00361431
v -0.01383932 -0.00610576 0.00371928
v -0.01366500 -0.00638923 0.00389745
v -0.01334639 -0.00700000 0.00405005
v -0.01326443 -0.00717977 0.00404621
v -0.01320580 -0.00731464 0.00402926
v -0.01296027 -0.00797880 0.00373902
v -0.01232345 -0.00906314 0.00424552
v -0.01297956 -0.00791717 0.00378395
v -0.01232345 -0.00872827 0.00489718
v -0.01301886 -0.00779855 0.00385796
v -0.01307686 -0.00763628 0.00393661
v -0.01291012 -0.00815486 0.00357993
v -0.01288042 -0.00827976 0.00342882
v -0.01232345 -0.00927034 0.00377170
v -0.01287037 -0.00833070 0.00335344
v -0.01285455 -0.00847194 0.00306506
v -0.01232345 -0.00966799 0.00258745
v -0.01287091 -0.00854478 0.00277516
v -0.01288493 -0.00855691 0.00266237
v -0.01232345 -0.00968158 0.00253614
v -0.01291807 -0.00855755 0.00246655
v -0.01297131 -0.00852451 0.00223398
v -0.01232345 -0.00991501 0.00136289
v -0.01309317 -0.00838385 0.00185435
v -0.01232345 -0.00998062 0.00074310
v -0.01303253 -0.00846153 0.00202486
v -0.01299218 -0.00850528 0.00215742
v -0.01321642 -0.00819784 0.00158183
v -0.01327173 -0.00810647 0.00148415
v -0.01335947 -0.00795531 0.00135441
v -0.01350276 -0.00769926 0.00119893
v -0.01358144 -0.00755693 0.00113921
v -0.01365932 -0.00741437 0.00109539
v -0.01384079 -0.00706890 0.00104825
v -0.01392097 -0.00691346 0.00105280
v -0.01402423 -0.00671345 0.00108226
v -0.01416686 -0.00643565 0.00117077
v -0.01429831 -0.00614865 0.00133299
v -0.01439230 -0.00591528 0.00154142
v -0.01423340 -0.00629428 0.00124030
v -0.01232346 -0.01000756 0.00011710
v -0.01232346 -0.00995040 -0.00107445
v -0.01232346 -0.00972589 -0.00236052
v -0.01232346 -0.00994419 -0.00113051
v -0.01232347 -0.00891701 -0.00454443
v -0.01232347 -0.00935606 -0.00355374
v -0.01232346 -0.00959192 -0.00285656
v -0.01232347 -0.00818713 -0.00575636
v -0.01232347 -0.00884046 -0.00469160
v -0.01232347 -0.00740624 -0.00673144
v -0.01232347 -0.00794793 -0.00608238
v -0.01232347 -0.00551227 -0.00835341
v -0.01232347 -0.00650997 -0.00760164
v -0.01232347 -0.00671664 -0.00741966
v -0.01444548 -0.00232852 -0.00554560
v -0.01438237 -0.00263948 -0.00553445
v -0.01428234 -0.00295297 -0.00559009
v -0.01423352 -0.00307390 -0.00563078
v -0.01350249 -0.00400473 -0.00668358
v -0.01334701 -0.00405005 -0.00699863
v -0.01415862 -0.00323419 -0.00570340
v -0.01400917 -0.00348708 -0.00587049
v -0.01392108 -0.00361436 -0.00598671
v -0.01383993 -0.00371847 -0.00610471
v -0.01366586 -0.00389674 -0.00638770
v -0.01358138 -0.00395972 -0.00653663
v -0.01326441 -0.00404626 -0.00717979
v -0.01320635 -0.00402954 -0.00731334
v -0.01307773 -0.00393763 -0.00763395
v -0.01301948 -0.00385799 -0.00779860
v -0.01298568 -0.00379380 -0.00790278
v -0.01232347 -0.00442869 -0.00897503
v -0.01291847 -0.00360071 -0.00813486
v -0.01288277 -0.00342888 -0.00827971
v -0.01287218 -0.00335420 -0.00833023
v -0.01285455 -0.00306511 -0.00847196
v -0.01232347 -0.00340493 -0.00941122
v -0.01446765 -0.00203298 -0.00561915
v -0.01444525 -0.00575246 0.00175751
v -0.01446765 -0.00561912 0.00203293
v -0.01444543 -0.00554552 0.00232882
v -0.01438227 -0.00553445 0.00263980
v -0.01428220 -0.00559017 0.00295330
v -0.01423353 -0.00563076 0.00307385
v -0.01232343 0.00064622 0.00998734
v 0.00102094 0.00844545 -0.00366172
v 0.00102094 0.00874523 -0.00316402
v -0.01285455 0.00847191 -0.00306514
v -0.01287036 0.00833067 -0.00335351
v -0.01288042 0.00827974 -0.00342889
v 0.00102094 0.00803938 -0.00397770
v -0.01290998 0.00815536 -0.00357946
v -0.01296026 0.00797880 -0.00373908
v -0.01297925 0.00791811 -0.00378335
v -0.01301885 0.00779853 -0.00385804
v 0.00102094 0.00748432 -0.00414595
v -0.01307630 0.00763775 -0.00393607
v -0.01320509 0.00731625 -0.00402905
v -0.01326441 0.00717974 -0.00404629
v 0.00102094 0.00691702 -0.00409403
v -0.01334559 0.00700162 -0.00405018
v 0.00102094 0.00682450 -0.00406391
v -0.01350094 0.00668650 -0.00400550
v -0.01358138 0.00653658 -0.00395975
v 0.00102094 0.00662204 -0.00397322
v -0.01366403 0.00639081 -0.00389830
v 0.00102094 0.00624824 -0.00368753
v -0.01383827 0.00610716 -0.00372048
v -0.01392108 0.00598665 -0.00361438
v -0.01400776 0.00587220 -0.00348926
v -0.01415750 0.00570450 -0.00323640
v -0.01423352 0.00563072 -0.00307391
v -0.01428124 0.00559087 -0.00295587
v -0.01438160 0.00553460 -0.00264238
v -0.01444509 0.00554516 -0.00233129
v -0.01446765 0.00561909 -0.00203300
v 0.00102094 -0.00366170 -0.00844550
v 0.00102094 -0.00316400 -0.00874528
v 0.00102094 -0.00397768 -0.00803944
v 0.00102094 -0.00414593 -0.00748437
v 0.00102094 -0.00409401 -0.00691707
v 0.00102094 -0.00406389 -0.00682455
v 0.00102094 -0.00397320 -0.00662209
v 0.00102094 -0.00368751 -0.00624829
v 0.00100148 -0.00345058 -0.00606390
v 0.00096323 -0.00315049 -0.00591856
v 0.00093323 -0.00282543 -0.00584424
v 0.00091312 -0.00248513 -0.00584167
v 0.00090603 -0.00216495 -0.00591405
v 0.00102094 -0.00844547 0.00366165
v 0.00102094 -0.00874525 0.00316395
v 0.00102094 -0.00803941 0.00397763
v 0.00102094 -0.00748434 0.00414588
v 0.00102094 -0.00691705 0.00409396
v 0.00102094 -0.00682452 0.00406384
v 0.00102094 -0.00662206 0.00397315
v 0.00102094 -0.00624827 0.00368746
v 0.00100148 -0.00606387 0.00345053
v 0.00096323 -0.00591854 0.00315044
v 0.00093323 -0.00584421 0.00282538
v 0.00091312 -0.00584164 0.00248508
v 0.00090603 -0.00591402 0.00216490
v 0.00090601 -0.00592194 0.00214249
v 0.00102094 0.00366167 0.00844542
v 0.00102094 0.00316397 0.00874520
v -0.01287215 0.00335415 0.00833017
v -0.01288274 0.00342886 0.00827964
v 0.00102094 0.00397765 0.00803936
v -0.01291872 0.00360175 0.00813374
v -0.01298594 0.00379432 0.00790190
v -0.01301949 0.00385796 0.00779852
v 0.00102094 0.00414590 0.00748429
v -0.01307850 0.00393844 0.00763183
v -0.01320730 0.00402989 0.00731103
v -0.01326441 0.00404624 0.00717972
v 0.00102094 0.00409398 0.00691700
v -0.01334809 0.00404993 0.00699628
v 0.00102094 0.00406386 0.00682447
v -0.01350366 0.00400414 0.00668129
v -0.01358138 0.00395970 0.00653656
v 0.00102094 0.00397317 0.00662201
v -0.01366719 0.00389562 0.00638537
v 0.00102094 0.00368748 0.00624821
v -0.01384120 0.00371697 0.00610278
v -0.01392112 0.00361433 0.00598663
v -0.01401027 0.00348541 0.00586908
v -0.01415962 0.00323220 0.00570229
v -0.01423353 0.00307388 0.00563071
v -0.01428328 0.00295048 0.00558930
v -0.01438302 0.00263698 0.00553420
v -0.01444582 0.00232614 0.00554586
v -0.00154195 0.00050662 -0.00114277
v -0.01614814 0.00060983 -0.00109118
v -0.00154195 0.00023229 -0.00122826
v -0.01614814 0.00027772 -0.00121879
v -0.00154195 0.00012684 -0.00124359
v -0.01614814 0.00012684 -0.00124359
v -0.00154195 -0.00005432 -0.00124886
v -0.01614814 -0.00007690 -0.00124767
v -0.00154195 -0.00033805 -0.00120346
v -0.00154195 0.00121741 0.00028349
v -0.01614814 0.00116681 0.00044831
v -0.01614814 0.00124586 0.00010142
v -0.00154195 0.00065383 -0.00106540
v -0.00154195 0.00075417 -0.00099688
v -0.01614814 0.00089254 -0.00087517
v -0.00154195 0.00096188 -0.00079833
v -0.01614814 0.00105132 -0.00067620
v -0.00154195 0.00105132 -0.00067620
v -0.01614814 0.00110294 -0.00058826
v -0.00154195 0.00111875 -0.00055759
v -0.01614814 0.00122398 -0.00025369
v -0.00154195 0.00121651 -0.00028739
v -0.01614814 0.00124058 -0.00015308
v -0.00154195 0.00124058 -0.00015308
v -0.00154195 0.00124998 -0.00000200
v -0.00154195 0.00118413 0.00040035
v -0.00154195 0.00112050 0.00055400
v -0.01614814 0.00099323 0.00075888
v -0.00154195 0.00096438 0.00079523
v -0.01614814 0.00089314 0.00087448
v -0.00154195 0.00089314 0.00087448
v -0.01614814 0.00073918 0.00100797
v -0.00154195 0.00051020 0.00114109
v -0.00154195 0.00075730 0.00099444
v 0.00096134 0.00137523 0.00654849
v 0.00093131 0.00158593 0.00628052
v 0.00091240 0.00184294 0.00606951
v 0.00102094 0.00116398 0.00716120
v 0.00100148 0.00122808 0.00686790
v 0.00099935 0.00123346 0.00685164
v 0.00102094 0.00120995 0.00774056
v 0.00102094 0.00124344 0.00784489
v 0.00102094 0.00143199 0.00820453
v 0.00102094 0.00158662 0.00838855
v 0.00102094 0.00185339 0.00860313
v 0.00102094 0.00212583 0.00873860
v 0.00102094 0.00270244 0.00883385
v 0.00102094 0.00238405 0.00881017
v 0.00096134 -0.00654854 0.00137521
v 0.00093131 -0.00628057 0.00158590
v 0.00091240 -0.00606956 0.00184291
v 0.00102094 -0.00716126 0.00116396
v 0.00100148 -0.00686795 0.00122805
v 0.00099935 -0.00685169 0.00123344
v 0.00102094 -0.00774061 0.00120992
v 0.00102094 -0.00784494 0.00124341
v 0.00102094 -0.00820458 0.00143197
v 0.00102094 -0.00838860 0.00158660
v 0.00102094 -0.00860318 0.00185336
v 0.00102094 -0.00873865 0.00212581
v 0.00102094 -0.00883391 0.00270241
v 0.00102094 -0.00881022 0.00238402
v -0.01423339 -0.00124035 -0.00629431
v -0.01429794 -0.00133245 -0.00614949
v -0.01439214 -0.00154102 -0.00591571
v -0.01444525 -0.00175757 -0.00575248
v 0.00102094 -0.00116401 -0.00716128
v -0.01392088 -0.00105285 -0.00691348
v -0.01402334 -0.00108198 -0.00671505
v -0.01416621 -0.00117025 -0.00643701
v -0.01383973 -0.00104834 -0.00707079
v -0.01365833 -0.00109590 -0.00741618
v 0.00102094 -0.00120997 -0.00774064
v -0.01358143 -0.00113927 -0.00755696
v 0.00102094 -0.00124346 -0.00784496
v -0.01350107 -0.00120041 -0.00770226
v -0.01335836 -0.00135580 -0.00795711
v 0.00102094 -0.00143202 -0.00820461
v -0.01327162 -0.00148420 -0.00810649
v 0.00102094 -0.00158665 -0.00838862
v -0.01321541 -0.00158356 -0.00819931
v -0.01309545 -0.00184821 -0.00838056
v 0.00102094 -0.00185341 -0.00860320
v -0.01303241 -0.00202498 -0.00846158
v 0.00102094 -0.00212586 -0.00873868
v -0.01287253 -0.00276023 -0.00854692
v 0.00102094 -0.00270246 -0.00883393
v -0.01288489 -0.00266244 -0.00855694
v 0.00102094 -0.00238408 -0.00881024
v -0.01292107 -0.00245120 -0.00855653
v -0.01299644 -0.00214225 -0.00850097
v -0.01439446 0.00590934 -0.00154804
v -0.01444525 0.00575243 -0.00175759
v -0.01439228 0.00591531 -0.00154143
v -0.01429825 0.00614874 -0.00133298
v -0.01423340 0.00629425 -0.00124038
v 0.00102094 0.00716123 -0.00116403
v -0.01392096 0.00691343 -0.00105287
v -0.01402409 0.00671368 -0.00108228
v -0.01416676 0.00643582 -0.00117076
v -0.01384062 0.00706918 -0.00104833
v -0.01365914 0.00741466 -0.00109555
v 0.00102094 0.00774059 -0.00121000
v -0.01358144 0.00755690 -0.00113929
v 0.00102094 0.00784491 -0.00124349
v -0.01350267 0.00769939 -0.00119908
v -0.01335939 0.00795540 -0.00135457
v 0.00102094 0.00820456 -0.00143205
v -0.01327172 0.00810644 -0.00148423
v 0.00102094 0.00838857 -0.00158667
v -0.01321635 0.00819791 -0.00158202
v -0.01309311 0.00838389 -0.00185455
v 0.00102094 0.00860315 -0.00185344
v -0.01303253 0.00846151 -0.00202494
v 0.00102094 0.00873862 -0.00212589
v -0.01299214 0.00850530 -0.00215764
v -0.01287089 0.00854473 -0.00277537
v 0.00102094 0.00883388 -0.00270249
v -0.01288493 0.00855689 -0.00266244
v 0.00102094 0.00881019 -0.00238410
v -0.01291804 0.00855753 -0.00246677
v -0.01297130 0.00852448 -0.00223406
v -0.01658961 0.00117368 0.00160047
v -0.01658961 0.00104385 0.00168801
v -0.01658961 0.00109937 -0.00165247
v -0.01658961 0.00096829 -0.00173254
v -0.01658961 -0.00062876 -0.00188255
v -0.01658961 0.00191994 -0.00050299
v -0.01658961 0.00175124 -0.00093401
v -0.01658961 0.00197924 -0.00014741
v -0.01658961 0.00194343 -0.00040279
v -0.01658961 0.00161536 -0.00115318
v -0.01232347 -0.00140115 -0.00990966
v -0.01232347 -0.00207249 -0.00979128
v -0.01658961 -0.00027787 -0.00196523
v -0.01232347 -0.00327611 -0.00945683
v -0.01658961 -0.00012209 -0.00198102
v -0.01658961 0.00008217 -0.00198307
v -0.01658961 0.00044096 -0.00193516
v -0.01658961 0.00078235 -0.00182407
v -0.01658961 0.00138013 -0.00142635
v -0.01658961 0.00141717 -0.00138956
v -0.01658961 0.00197817 0.00016105
v -0.01658961 0.00197325 0.00021303
v -0.01658961 0.00190216 0.00056644
v -0.01658961 0.00176832 0.00090116
v -0.01658961 0.00185266 0.00071185
v -0.01658961 0.00157705 0.00120497
v -0.01658961 0.00133197 0.00147136
v -0.01658961 0.00072130 0.00184899
v 0.00102094 -0.00479292 -0.00544671
v 0.00102094 -0.00549173 -0.00474128
v 0.00102094 0.00721166 -0.00079374
v 0.00102094 -0.00400435 -0.00605013
v 0.00102094 0.00544666 -0.00479295
v 0.00102094 0.00474123 -0.00549175
v 0.00102094 -0.00608766 -0.00394704
v 0.00102094 -0.00656957 -0.00307886
v 0.00102094 -0.00692843 -0.00215302
v 0.00102094 -0.00872745 0.00441103
v 0.00102094 -0.00813213 0.00543085
v 0.00102094 -0.00741822 0.00637147
v 0.00102094 -0.00659614 0.00721918
v 0.00102094 -0.00567787 0.00796162
v 0.00102094 -0.00605010 0.00400430
v 0.00102094 -0.00360754 0.00908907
v 0.00102094 -0.00544669 0.00479287
v 0.00102094 -0.00474125 0.00549167
v 0.00102094 0.00796162 0.00567787
v 0.00102094 0.00721918 0.00659614
v 0.00102094 0.00637147 0.00741822
v 0.00102094 0.00543085 0.00813213
v 0.00102094 0.00441103 0.00872745
v 0.00102094 0.00332689 0.00919551
v 0.00102094 0.00219424 0.00952948
v 0.00102094 0.00952948 -0.00219424
v 0.00102094 0.00394698 -0.00608769
v 0.00102094 0.00307881 -0.00656960
v 0.00102094 0.00215297 -0.00692845
v 0.00102094 -0.00467680 0.00858796
v 0.00102094 -0.00394701 0.00608761
v 0.00102094 -0.00307884 0.00656952
v 0.00102094 -0.00215299 0.00692838
v 0.00102094 -0.00248567 0.00945764
v 0.00102094 -0.00132755 0.00968830
v 0.00102094 -0.00015008 0.00977768
v 0.00102094 0.00102959 0.00972448
v 0.00102094 0.00400432 0.00605005
v 0.00102094 0.00608764 0.00394696
v 0.00102094 0.00908907 0.00360754
v 0.00102094 0.00549170 0.00474120
v 0.00102094 0.00479290 0.00544664
v 0.00102094 0.00656955 0.00307879
v 0.00102094 0.00692840 0.00215294
v 0.00102094 0.00715748 0.00118677
v 0.00102094 0.00725250 0.00019837
v 0.00102094 0.00945764 0.00248567
v 0.00102094 0.00968830 0.00132755
v 0.00102094 0.00977768 0.00015008
v 0.00102094 0.00972448 -0.00102959
v 0.00102094 0.00605007 -0.00400437
v 0.00102094 -0.00715751 -0.00118685
v 0.00102094 -0.00725252 -0.00019845
v 0.00102094 -0.00721169 0.00079367
v 0.00102094 -0.00118682 0.00715746
v 0.00102094 -0.00019842 0.00725247
v 0.00102094 0.00079369 0.00721164
v 0.00102094 0.00858796 0.00467680
v 0.00102094 0.00118680 -0.00715753
v 0.00102094 0.00019840 -0.00725255
v 0.00102094 -0.00079372 -0.00721172
v -0.01664796 0.00102712 0.00140062
v -0.01664796 0.00138013 0.00105451
v -0.01664796 0.00162132 0.00062296
v -0.01664796 0.00153257 -0.00081739
v -0.01664796 0.00084738 -0.00151621
v -0.01664796 0.00038590 -0.00169353
v -0.01664796 -0.00010684 -0.00173366
v -0.01639435 0.00077752 0.00106025
v -0.01639435 0.00131047 0.00010668
v -0.01639435 0.00116013 -0.00061876
v -0.01639435 0.00029212 -0.00128200
v -0.01639435 0.00128745 -0.00026685
v -0.01657672 0.00146142 -0.00030290
v -0.01657672 0.00148754 0.00012110
v -0.01664796 0.00170076 -0.00035250
v -0.01664796 0.00173117 0.00014094
v -0.01657672 -0.00009181 -0.00148969
v -0.01639435 -0.00008088 -0.00131237
v -0.01657672 0.00033159 -0.00145521
v -0.01657672 0.00072813 -0.00130284
v -0.01639435 0.00064146 -0.00114776
v -0.01664796 0.00124021 -0.00121606
v -0.01657672 0.00106568 -0.00104493
v -0.01639435 0.00093882 -0.00092055
v -0.01657672 0.00131689 -0.00070236
v -0.01657672 0.00139316 0.00053529
v -0.01639435 0.00122732 0.00047156
v -0.01657672 0.00118591 0.00090610
v -0.01639435 0.00104474 0.00079824
v -0.01657672 0.00088258 0.00120351
v -0.00000000 0.00598609 0.00896355
v -0.00000000 0.00486201 0.00961974
v -0.00000000 0.01077860 -0.00001691
v -0.00000000 0.01077734 0.00016542
v -0.00000000 0.00702288 0.00817665
v -0.00000000 0.00795726 0.00727052
v -0.00000000 0.00831583 0.00685751
v -0.00000000 0.00877561 0.00625837
v -0.00000000 0.00937101 0.00532567
v -0.00000000 0.00946599 0.00515495
v -0.00000000 0.01001833 0.00397637
v -0.00000000 0.01014711 0.00363521
v -0.00000000 0.01042459 0.00273980
v -0.00000000 0.01062101 0.00183650
v -0.00000000 0.01067883 0.00146328
v -0.00000000 0.01050376 -0.00241857
v -0.00000000 0.01061519 -0.00186981
v -0.00000000 0.01071871 -0.00113485
v -0.01146146 -0.00344971 -0.00995793
v -0.01146146 -0.00218231 -0.01031011
v -0.01146146 -0.00166491 -0.01040619
v 0.00094281 0.00990711 -0.00228119
v 0.00072060 0.01022573 -0.00235455
v 0.00038907 0.01043554 -0.00240287
v 0.00038907 0.01064909 -0.00112748
v 0.00038907 0.01070735 0.00016435
v 0.00038907 0.01060947 0.00145378
v 0.00038907 0.01035688 0.00272201
v 0.00038907 0.00995327 0.00395055
v 0.00038907 0.00940451 0.00512148
v 0.00038907 0.00871862 0.00621772
v 0.00038907 0.00790558 0.00722330
v 0.00038907 0.00364321 0.01006982
v 0.00038907 0.00483043 0.00955726
v 0.00038907 0.00594721 0.00890534
v 0.00038907 0.00697727 0.00812355
v 0.00038907 0.00112748 0.01064909
v 0.00038907 0.00240287 0.01043554
v 0.00038907 -0.00016435 0.01070735
v 0.00038907 -0.00145378 0.01060947
v 0.00038907 -0.00272201 0.01035688
v 0.00038907 -0.00395055 0.00995327
v 0.00038907 -0.00512148 0.00940451
v 0.00038907 -0.00621772 0.00871862
v 0.00038907 -0.00722330 0.00790558
v 0.00038907 -0.00812355 0.00697727
v 0.00038907 -0.00890533 0.00594721
v 0.00038907 -0.00955726 0.00483043
v 0.00072060 0.01043498 -0.00110481
v 0.00072060 0.01049207 0.00016104
v 0.00072060 0.01039616 0.00142455
v 0.00072060 0.01014865 0.00266728
v 0.00072060 0.00975315 0.00387112
v 0.00072060 0.00921543 0.00501850
v 0.00072060 0.00854332 0.00609271
v 0.00072060 0.00774664 0.00707807
v 0.00072060 0.00683699 0.00796022
v 0.00072060 0.00582764 0.00872629
v 0.00072060 0.00473331 0.00936511
v 0.00072060 0.00356996 0.00986736
v 0.00072060 0.00235455 0.01022573
v 0.00072060 0.00110481 0.01043498
v 0.00072060 -0.00016104 0.01049207
v 0.00072060 -0.00142455 0.01039616
v 0.00072060 -0.00266728 0.01014865
v 0.00072060 -0.00387112 0.00975315
v 0.00072060 -0.00501850 0.00921543
v 0.00072060 -0.00609271 0.00854332
v 0.00072060 -0.00707807 0.00774664
v 0.00072060 -0.00796022 0.00683699
v 0.00072060 -0.00872629 0.00582764
v 0.00072060 -0.00936511 0.00473331
v 0.00094281 0.01010984 -0.00107039
v 0.00094281 0.01016515 0.00015602
v 0.00094281 0.01007223 0.00138016
v 0.00094281 0.00983243 0.00258417
v 0.00094281 0.00944925 0.00375050
v 0.00094281 0.00892829 0.00486213
v 0.00094281 0.00827712 0.00590287
v 0.00094281 0.00750526 0.00685753
v 0.00094281 0.00662396 0.00771219
v 0.00094281 0.00564606 0.00845439
v 0.00094281 0.00458583 0.00907330
v 0.00094281 0.00345873 0.00955991
v 0.00094281 0.00228119 0.00990711
v 0.00094281 0.00107039 0.01010984
v 0.00094281 -0.00015602 0.01016515
v 0.00094281 -0.00138016 0.01007223
v 0.00094281 -0.00258417 0.00983243
v 0.00094281 -0.00375050 0.00944925
v 0.00094281 -0.00486213 0.00892829
v 0.00094281 -0.00590287 0.00827712
v 0.00094281 -0.00685753 0.00750526
v 0.00094281 -0.00771219 0.00662396
v 0.00094281 -0.00845439 0.00564606
v 0.00094281 -0.00907330 0.00458583
v -0.01212100 -0.00336231 -0.00970563
v -0.01212100 -0.00454521 -0.00921116
v -0.01212100 -0.00565729 -0.00857318
v -0.01212100 -0.00668124 -0.00780164
v -0.01212099 -0.00907305 -0.00481503
v -0.01212099 -0.00840253 -0.00590781
v -0.01212099 -0.00760110 -0.00690854
v -0.01212099 -0.00960221 -0.00364724
v -0.01212099 -0.00998177 -0.00242262
v -0.01212098 -0.01020581 -0.00116026
v -0.01212098 -0.01017587 0.00139875
v -0.01212098 -0.01027085 0.00012018
v -0.01212097 -0.00951424 0.00387093
v -0.01212097 -0.00992235 0.00265552
v -0.01212097 -0.00895790 0.00502602
v -0.01212097 -0.00826199 0.00610281
v -0.01212096 -0.00743737 0.00708451
v -0.01212096 -0.00432844 0.00931500
v -0.01212096 -0.00545515 0.00870322
v -0.01212096 -0.00649687 0.00795584
v -0.01212096 -0.00313429 0.00978166
v -0.01212095 -0.00189131 0.01009591
v -0.01212095 -0.00061887 0.01025288
v -0.01212095 0.00066322 0.01025010
v -0.01178773 0.00067646 0.01045467
v -0.01178774 -0.00319684 0.00997688
v -0.01178774 -0.00192906 0.01029741
v -0.01178773 -0.00063122 0.01045750
v -0.01178774 -0.00441482 0.00950091
v -0.01178774 -0.00556402 0.00887692
v -0.01178774 -0.00662653 0.00811462
v -0.01178775 -0.00842689 0.00622460
v -0.01178775 -0.00758580 0.00722590
v -0.01178775 -0.00970412 0.00394818
v -0.01178775 -0.00913668 0.00512633
v -0.01178776 -0.01012038 0.00270852
v -0.01178776 -0.01037896 0.00142666
v -0.01178776 -0.01047583 0.00012258
v -0.01178777 -0.01040950 -0.00118341
v -0.01178777 -0.00925412 -0.00491113
v -0.01178777 -0.00979385 -0.00372003
v -0.01178777 -0.01018098 -0.00247097
v -0.01178777 -0.00857022 -0.00602572
v -0.01178778 -0.00775280 -0.00704642
v -0.01178778 -0.00681459 -0.00795734
v -0.01178778 -0.00577020 -0.00874429
v -0.01178778 -0.00216947 -0.01024944
v -0.01178778 -0.00342941 -0.00989933
v -0.01178778 -0.00463592 -0.00939500
v -0.01212100 -0.00212702 -0.01004888
v 0.00100148 -0.00691697 0.00091242
v 0.00100148 -0.00385072 -0.00581802
v 0.00100148 -0.00406536 -0.00567011
v 0.00100148 0.00076324 0.00693496
v 0.00100148 0.00050366 0.00695864
v 0.00100148 -0.00460905 -0.00523775
v 0.00100148 -0.00518606 -0.00466713
v 0.00100148 -0.00528104 -0.00455938
v 0.00100148 -0.00585411 -0.00379561
v 0.00100148 -0.00606576 -0.00344728
v 0.00100148 -0.00631753 -0.00296074
v 0.00100148 -0.00666262 -0.00207042
v 0.00100148 -0.00688291 -0.00114132
v 0.00100148 -0.00695181 -0.00059114
v 0.00100148 -0.00697428 -0.00019084
v 0.00100148 -0.00693502 0.00076322
v 0.00100148 -0.00581799 0.00385067
v 0.00100148 -0.00589959 0.00372446
v 0.00100148 -0.00207040 0.00666257
v 0.00100148 -0.00245592 0.00653030
v 0.00100148 -0.00296072 0.00631748
v 0.00100148 -0.00379558 0.00585406
v 0.00100148 -0.00455936 0.00528099
v 0.00100148 -0.00496432 0.00490225
v 0.00100148 -0.00523773 0.00460899
v 0.00100148 -0.00019081 0.00697423
v 0.00100148 -0.00099935 0.00690490
v 0.00100148 -0.00114129 0.00688286
v -0.00116262 0.00115304 0.00057009
v -0.00116262 0.00099238 0.00081833
v 0.00034984 0.00106166 0.00237449
v 0.00034984 0.00157584 0.00206932
v 0.00034984 0.00200674 0.00165480
v 0.00034984 0.00233160 0.00115283
v 0.00034984 0.00253326 0.00058994
v 0.00034984 0.00260105 -0.00000412
v 0.00034984 0.00253139 -0.00059796
v 0.00034984 0.00232797 -0.00116022
v 0.00034984 0.00200154 -0.00166116
v 0.00034984 0.00156934 -0.00207433
v 0.00034984 0.00105421 -0.00237789
v 0.00034984 0.00048337 -0.00255579
v 0.00034984 -0.00011301 -0.00259865
v 0.00034984 -0.00070342 -0.00250419
v -0.00116262 -0.00005589 -0.00128513
v -0.00116262 -0.00034787 -0.00123841
v -0.00116262 0.00052133 -0.00117595
v -0.00116262 0.00023903 -0.00126393
v -0.00116262 0.00098981 -0.00082151
v -0.00116262 0.00077608 -0.00102584
v -0.00116262 0.00125184 -0.00029573
v -0.00116262 0.00115124 -0.00057378
v -0.00116262 0.00128629 -0.00000206
v -0.00116262 0.00125276 0.00029173
v -0.00116262 0.00077929 0.00102332
v -0.00116262 0.00052502 0.00117424
v -0.00066626 0.00059261 0.00132541
v -0.00022984 0.00071044 0.00158895
v 0.00011677 0.00087044 0.00194681
v 0.00011677 0.00129200 0.00169660
v 0.00011677 0.00164530 0.00135674
v 0.00011677 0.00191165 0.00094518
v 0.00011677 0.00207698 0.00048368
v 0.00011677 0.00213256 -0.00000338
v 0.00011677 0.00207545 -0.00049027
v 0.00011677 0.00190867 -0.00095125
v 0.00011677 0.00164103 -0.00136197
v 0.00011677 0.00128668 -0.00170072
v 0.00011677 0.00086433 -0.00194960
v 0.00011677 0.00039631 -0.00209547
v 0.00011677 -0.00009266 -0.00213060
v 0.00011677 -0.00057673 -0.00205316
v -0.00022984 0.00105451 0.00138473
v -0.00022984 0.00134287 0.00110734
v -0.00022984 0.00156026 0.00077144
v -0.00022984 0.00169520 0.00039477
v -0.00022984 0.00174056 -0.00000277
v -0.00022984 0.00169395 -0.00040016
v -0.00022984 0.00155783 -0.00077641
v -0.00022984 0.00133938 -0.00111163
v -0.00022984 0.00105016 -0.00138811
v -0.00022984 0.00070545 -0.00159125
v -0.00022984 0.00032346 -0.00171030
v -0.00022984 -0.00007563 -0.00173898
v -0.00022984 -0.00047072 -0.00167576
v -0.00066626 0.00087962 0.00115507
v -0.00066626 0.00112015 0.00092368
v -0.00066626 0.00130148 0.00064349
v -0.00066626 0.00141405 0.00032929
v -0.00066626 0.00145189 -0.00000232
v -0.00066626 0.00141301 -0.00033380
v -0.00066626 0.00129946 -0.00064764
v -0.00066626 0.00111724 -0.00092727
v -0.00066626 0.00087599 -0.00115790
v -0.00066626 0.00058845 -0.00132734
v -0.00066626 0.00026981 -0.00142665
v -0.00066626 -0.00006309 -0.00145057
v -0.00066626 -0.00039265 -0.00139784
f 1 2 3
f 4 5 6
f 7 4 8
f 9 7 10
f 11 9 12
f 13 11 14
f 15 16 14
f 14 16 17
f 14 17 13
f 18 19 15
f 15 19 20
f 15 20 16
f 21 22 18
f 18 22 23
f 18 23 19
f 24 25 21
f 21 25 26
f 21 26 22
f 27 28 24
f 24 28 29
f 24 29 25
f 30 31 32
f 32 31 33
f 32 33 27
f 27 33 34
f 27 34 28
f 30 32 35
f 35 32 36
f 35 36 37
f 37 36 38
f 37 38 39
f 39 38 40
f 40 38 41
f 40 41 42
f 42 41 43
f 43 41 44
f 43 44 45
f 45 44 46
f 46 44 47
f 46 47 48
f 48 47 49
f 49 47 50
f 49 50 51
f 51 50 52
f 52 50 53
f 52 53 54
f 54 53 55
f 54 55 56
f 57 58 59
f 59 58 60
f 59 60 61
f 62 63 64
f 64 63 65
f 64 65 57
f 57 65 66
f 57 66 58
f 67 68 69
f 69 68 70
f 69 70 62
f 62 70 71
f 62 71 63
f 72 73 74
f 74 73 75
f 74 75 67
f 67 75 76
f 67 76 68
f 77 78 72
f 72 78 79
f 72 79 73
f 72 80 77
f 77 80 81
f 77 81 82
f 2 1 81
f 81 1 83
f 81 83 82
f 84 85 3
f 3 85 86
f 3 86 1
f 3 87 84
f 84 87 6
f 84 6 88
f 88 6 5
f 88 5 89
f 11 12 14
f 14 12 90
f 14 90 15
f 15 90 91
f 15 91 18
f 18 91 92
f 18 92 21
f 21 92 93
f 21 93 24
f 24 93 94
f 24 94 27
f 27 94 95
f 27 95 32
f 32 95 96
f 32 96 36
f 36 96 97
f 36 97 38
f 38 97 98
f 38 98 41
f 41 98 99
f 41 99 44
f 44 99 100
f 44 100 47
f 47 100 101
f 47 101 50
f 50 101 102
f 50 102 53
f 53 102 103
f 53 103 55
f 9 10 12
f 12 10 104
f 12 104 90
f 90 104 105
f 90 105 91
f 91 105 106
f 91 106 92
f 92 106 107
f 92 107 93
f 93 107 108
f 93 108 94
f 94 108 109
f 94 109 95
f 95 109 110
f 95 110 96
f 96 110 111
f 96 111 97
f 97 111 112
f 97 112 98
f 98 112 113
f 98 113 99
f 99 113 114
f 99 114 100
f 100 114 115
f 100 115 101
f 101 115 116
f 101 116 102
f 102 116 117
f 102 117 103
f 7 8 10
f 10 8 118
f 10 118 104
f 104 118 119
f 104 119 105
f 105 119 120
f 105 120 106
f 106 120 121
f 106 121 107
f 107 121 122
f 107 122 108
f 108 122 123
f 108 123 109
f 109 123 124
f 109 124 110
f 110 124 125
f 110 125 111
f 111 125 126
f 111 126 112
f 112 126 127
f 112 127 113
f 113 127 128
f 113 128 114
f 114 128 129
f 114 129 115
f 115 129 130
f 115 130 116
f 116 130 131
f 116 131 117
f 4 6 8
f 8 6 87
f 8 87 118
f 118 87 3
f 118 3 119
f 119 3 2
f 119 2 120
f 120 2 81
f 120 81 121
f 121 81 80
f 121 80 122
f 122 80 72
f 122 72 123
f 123 72 74
f 123 74 124
f 124 74 67
f 124 67 125
f 125 67 69
f 125 69 126
f 126 69 62
f 126 62 127
f 127 62 64
f 127 64 128
f 128 64 57
f 128 57 129
f 129 57 59
f 129 59 130
f 130 59 61
f 130 61 131
f 132 133 134
f 135 56 136
f 136 56 137
f 136 137 138
f 139 140 141
f 142 139 143
f 143 139 141
f 143 141 137
f 137 141 144
f 137 144 138
f 145 146 147
f 148 149 150
f 149 151 150
f 150 151 152
f 150 152 153
f 153 152 154
f 153 154 155
f 155 154 156
f 155 156 157
f 157 156 158
f 157 158 147
f 147 158 159
f 147 159 145
f 160 161 162
f 163 164 165
f 165 164 166
f 165 166 167
f 13 168 161
f 161 168 169
f 161 169 162
f 142 143 170
f 170 143 171
f 170 171 172
f 172 171 173
f 172 173 174
f 174 173 175
f 174 175 176
f 176 175 177
f 176 177 178
f 178 177 179
f 179 177 180
f 179 180 181
f 181 180 182
f 181 182 183
f 183 182 184
f 183 184 185
f 185 184 186
f 185 186 187
f 187 186 188
f 187 188 189
f 189 188 147
f 189 147 134
f 134 147 146
f 134 146 132
f 190 191 150
f 150 191 192
f 150 192 148
f 193 194 195
f 195 194 196
f 195 196 197
f 197 196 198
f 197 198 199
f 199 198 200
f 199 200 201
f 201 200 202
f 201 202 203
f 203 202 204
f 203 204 190
f 190 204 205
f 190 205 191
f 162 167 160
f 160 167 166
f 160 166 206
f 206 166 207
f 206 207 208
f 208 207 209
f 208 209 193
f 193 209 210
f 193 210 194
f 211 212 213
f 214 215 216
f 217 218 219
f 220 219 221
f 217 219 222
f 219 220 222
f 222 220 223
f 222 223 224
f 216 215 223
f 223 215 225
f 223 225 224
f 214 216 226
f 226 216 227
f 226 227 228
f 228 227 229
f 228 229 230
f 231 232 229
f 229 232 233
f 229 233 230
f 234 235 231
f 231 235 236
f 231 236 232
f 237 238 239
f 239 238 240
f 239 240 234
f 234 240 241
f 234 241 235
f 237 239 242
f 242 239 243
f 242 243 244
f 244 243 245
f 244 245 246
f 247 248 249
f 249 250 247
f 247 250 251
f 247 251 245
f 245 251 252
f 245 252 246
f 253 254 255
f 255 254 256
f 255 256 248
f 248 256 257
f 248 257 249
f 258 259 260
f 260 259 261
f 260 261 253
f 253 261 262
f 253 262 254
f 258 260 263
f 263 260 264
f 263 264 265
f 265 264 266
f 265 266 267
f 213 212 266
f 266 212 268
f 266 268 267
f 211 213 269
f 269 213 270
f 269 270 271
f 271 270 272
f 271 272 273
f 274 275 276
f 274 276 277
f 276 278 277
f 277 278 279
f 277 279 272
f 272 279 280
f 272 280 273
f 275 274 281
f 281 274 282
f 281 282 283
f 283 282 284
f 284 282 285
f 284 285 286
f 287 288 285
f 285 288 289
f 285 289 286
f 290 291 292
f 293 294 295
f 295 294 296
f 295 296 297
f 297 296 298
f 297 298 299
f 299 298 300
f 299 300 290
f 290 300 301
f 290 301 291
f 291 301 302
f 293 295 303
f 303 295 304
f 303 304 305
f 305 304 306
f 305 306 307
f 307 306 308
f 307 308 309
f 310 311 312
f 312 311 313
f 312 313 308
f 308 313 314
f 308 314 309
f 315 316 317
f 317 316 318
f 317 318 319
f 319 318 320
f 319 320 310
f 310 320 321
f 310 321 311
f 315 317 322
f 322 317 323
f 322 323 324
f 324 323 325
f 324 325 326
f 326 325 327
f 326 327 328
f 328 327 329
f 329 327 330
f 329 330 331
f 332 333 334
f 334 333 335
f 334 335 336
f 336 335 337
f 336 337 338
f 338 337 339
f 338 339 330
f 330 339 340
f 330 340 331
f 332 334 341
f 341 334 342
f 341 342 343
f 343 342 344
f 343 344 345
f 345 344 346
f 345 346 347
f 347 346 348
f 347 348 349
f 350 351 352
f 352 351 353
f 352 353 354
f 354 353 355
f 354 355 356
f 356 355 357
f 356 357 348
f 348 357 358
f 348 358 349
f 359 350 221
f 221 350 352
f 221 352 220
f 220 352 354
f 220 354 223
f 223 354 356
f 223 356 216
f 216 356 348
f 216 348 227
f 227 348 346
f 227 346 229
f 229 346 344
f 229 344 231
f 231 344 342
f 231 342 234
f 234 342 334
f 234 334 239
f 239 334 336
f 239 336 243
f 243 336 338
f 243 338 245
f 245 338 330
f 245 330 247
f 247 330 327
f 247 327 248
f 248 327 325
f 248 325 255
f 255 325 323
f 255 323 253
f 253 323 317
f 253 317 260
f 260 317 319
f 260 319 264
f 264 319 310
f 264 310 266
f 266 310 312
f 266 312 213
f 213 312 308
f 213 308 270
f 270 308 306
f 270 306 272
f 272 306 304
f 272 304 277
f 277 304 295
f 277 295 274
f 274 295 297
f 274 297 282
f 282 297 299
f 282 299 285
f 285 299 290
f 285 290 287
f 287 290 292
f 287 292 288
f 288 292 360
f 361 362 363
f 362 364 365
f 364 366 367
f 366 368 369
f 366 369 367
f 367 369 370
f 367 370 371
f 370 372 371
f 371 372 373
f 371 373 374
f 373 375 374
f 374 375 376
f 374 376 377
f 377 376 378
f 377 378 379
f 379 378 380
f 379 380 381
f 381 380 382
f 382 383 381
f 381 383 384
f 381 384 385
f 385 384 386
f 385 386 387
f 387 386 388
f 387 388 389
f 389 388 390
f 390 391 389
f 389 391 392
f 389 392 393
f 393 392 394
f 393 394 395
f 394 396 395
f 395 396 397
f 395 397 398
f 399 400 401
f 401 400 398
f 401 398 402
f 402 398 397
f 403 404 399
f 399 404 405
f 399 405 400
f 403 406 404
f 404 406 407
f 404 407 408
f 408 407 409
f 408 409 410
f 410 409 411
f 410 411 412
f 411 413 412
f 412 413 414
f 412 414 415
f 414 416 415
f 415 416 417
f 415 417 418
f 418 417 419
f 418 419 420
f 420 419 421
f 420 421 422
f 422 421 423
f 423 424 422
f 422 424 425
f 422 425 426
f 426 425 427
f 426 427 428
f 428 427 429
f 428 429 430
f 430 429 431
f 431 432 430
f 430 432 433
f 430 433 434
f 364 367 365
f 365 367 371
f 365 371 435
f 435 371 374
f 435 374 436
f 436 374 377
f 436 377 437
f 437 377 379
f 437 379 438
f 438 379 381
f 438 381 439
f 439 381 385
f 439 385 440
f 440 385 387
f 440 387 441
f 441 387 389
f 441 389 442
f 442 389 393
f 442 393 443
f 443 393 395
f 443 395 444
f 444 395 398
f 444 398 445
f 445 398 400
f 445 400 446
f 446 400 405
f 446 405 447
f 447 405 404
f 447 404 448
f 448 404 408
f 448 408 449
f 449 408 410
f 449 410 450
f 450 410 412
f 450 412 451
f 451 412 415
f 451 415 452
f 452 415 418
f 452 418 453
f 453 418 420
f 453 420 454
f 454 420 422
f 454 422 455
f 455 422 426
f 455 426 456
f 456 426 428
f 456 428 457
f 457 428 430
f 457 430 458
f 458 430 434
f 458 434 459
f 362 365 363
f 363 365 435
f 363 435 460
f 460 435 436
f 460 436 461
f 461 436 437
f 461 437 462
f 462 437 438
f 462 438 463
f 463 438 439
f 463 439 464
f 464 439 440
f 464 440 465
f 465 440 441
f 465 441 466
f 466 441 442
f 466 442 467
f 467 442 443
f 467 443 468
f 468 443 444
f 468 444 469
f 469 444 445
f 469 445 470
f 470 445 446
f 470 446 471
f 471 446 447
f 471 447 472
f 472 447 448
f 472 448 473
f 473 448 449
f 473 449 474
f 474 449 450
f 474 450 475
f 475 450 451
f 475 451 476
f 476 451 452
f 476 452 477
f 477 452 453
f 477 453 478
f 478 453 454
f 478 454 479
f 479 454 455
f 479 455 480
f 480 455 456
f 480 456 481
f 481 456 457
f 481 457 482
f 482 457 458
f 482 458 483
f 483 458 459
f 483 459 484
f 361 363 485
f 485 363 460
f 485 460 486
f 486 460 461
f 486 461 487
f 487 461 462
f 487 462 488
f 488 462 463
f 488 463 489
f 489 463 464
f 489 464 490
f 490 464 465
f 490 465 491
f 491 465 466
f 491 466 492
f 492 466 467
f 492 467 493
f 493 467 468
f 493 468 494
f 494 468 469
f 494 469 495
f 495 469 470
f 495 470 496
f 496 470 471
f 496 471 497
f 497 471 472
f 497 472 498
f 498 472 473
f 498 473 499
f 499 473 474
f 499 474 500
f 500 474 475
f 500 475 501
f 501 475 476
f 501 476 502
f 502 476 477
f 502 477 503
f 503 477 478
f 503 478 504
f 504 478 479
f 504 479 505
f 505 479 480
f 505 480 506
f 506 480 481
f 506 481 507
f 507 481 482
f 507 482 508
f 508 482 483
f 508 483 509
f 509 483 484
f 509 484 510
f 511 512 355
f 513 514 401
f 401 402 513
f 513 402 397
f 513 397 515
f 515 397 516
f 516 397 396
f 516 396 517
f 373 518 375
f 375 518 519
f 396 394 517
f 517 394 392
f 517 392 520
f 520 392 391
f 520 391 521
f 521 391 390
f 521 390 522
f 522 390 388
f 522 388 523
f 523 388 386
f 523 386 524
f 524 386 384
f 524 384 525
f 525 384 383
f 525 383 526
f 526 383 382
f 526 382 527
f 527 382 380
f 527 380 528
f 528 380 378
f 528 378 519
f 519 378 376
f 519 376 375
f 529 530 531
f 529 531 532
f 532 531 533
f 532 533 368
f 368 533 534
f 368 534 369
f 369 534 535
f 369 535 370
f 370 535 536
f 370 536 372
f 372 536 537
f 372 537 373
f 373 537 538
f 373 538 518
f 530 529 539
f 539 529 540
f 539 540 541
f 541 540 542
f 541 542 543
f 542 544 543
f 543 544 545
f 543 545 546
f 546 545 547
f 546 547 548
f 548 547 549
f 548 549 550
f 550 549 551
f 550 551 552
f 552 551 553
f 552 553 554
f 554 553 555
f 554 555 556
f 556 555 557
f 556 557 558
f 558 557 559
f 558 559 560
f 561 562 563
f 563 562 560
f 563 560 564
f 564 560 559
f 565 359 566
f 566 359 567
f 566 567 561
f 561 567 568
f 561 568 562
f 355 353 511
f 511 353 351
f 511 351 565
f 565 351 350
f 565 350 359
f 569 570 571
f 572 573 574
f 575 576 577
f 578 579 580
f 581 582 583
f 584 585 586
f 587 588 589
f 590 591 592
f 593 594 595
f 596 597 598
f 599 600 601
f 602 603 604
f 599 601 605
f 606 596 607
f 607 596 598
f 607 598 608
f 608 598 609
f 608 609 610
f 610 609 611
f 590 592 612
f 588 612 589
f 589 612 592
f 589 592 613
f 613 592 614
f 613 614 615
f 615 614 616
f 585 587 586
f 586 587 589
f 586 589 617
f 617 589 613
f 617 613 604
f 604 613 615
f 604 615 602
f 602 615 616
f 602 616 618
f 582 584 583
f 583 584 586
f 583 586 619
f 619 586 617
f 619 617 620
f 620 617 604
f 621 622 623
f 623 622 624
f 624 581 623
f 623 581 583
f 623 583 625
f 625 583 619
f 625 619 626
f 626 619 620
f 579 621 580
f 580 621 623
f 580 623 627
f 627 623 625
f 627 625 601
f 601 625 626
f 601 626 605
f 605 626 620
f 605 620 628
f 628 620 604
f 628 604 629
f 629 604 603
f 610 630 631
f 631 578 610
f 610 578 580
f 610 580 608
f 608 580 627
f 608 627 607
f 607 627 601
f 607 601 606
f 606 601 600
f 632 633 611
f 611 633 634
f 611 634 610
f 610 634 635
f 610 635 630
f 576 632 577
f 577 632 611
f 577 611 636
f 636 611 609
f 636 609 637
f 637 609 598
f 637 598 638
f 638 598 597
f 573 575 574
f 574 575 577
f 574 577 639
f 639 577 636
f 639 636 640
f 640 636 637
f 640 637 641
f 641 637 638
f 570 572 571
f 571 572 574
f 571 574 642
f 642 574 639
f 642 639 595
f 595 639 640
f 595 640 593
f 593 640 641
f 643 644 645
f 645 569 643
f 643 569 571
f 643 571 646
f 646 571 642
f 646 642 647
f 647 642 595
f 647 595 648
f 648 595 594
f 588 587 649
f 570 569 650
f 649 587 651
f 652 653 217
f 654 655 222
f 222 655 656
f 222 656 217
f 217 656 657
f 217 657 652
f 653 658 217
f 217 658 659
f 217 659 660
f 660 661 217
f 217 661 662
f 217 662 663
f 612 664 665
f 665 666 612
f 612 666 667
f 612 667 668
f 669 591 670
f 670 591 590
f 670 590 671
f 671 590 612
f 671 612 672
f 672 612 668
f 654 222 673
f 673 222 224
f 673 224 225
f 651 587 674
f 674 587 585
f 674 585 675
f 675 585 676
f 676 585 584
f 676 584 677
f 677 584 678
f 678 584 582
f 678 582 679
f 679 582 680
f 680 582 581
f 680 581 681
f 681 581 624
f 681 624 682
f 682 624 683
f 683 624 622
f 683 622 684
f 684 622 621
f 684 621 685
f 621 686 687
f 688 689 685
f 687 690 621
f 621 690 691
f 621 691 685
f 685 691 692
f 685 692 688
f 689 693 685
f 685 693 694
f 685 694 695
f 696 697 698
f 698 697 699
f 698 699 700
f 700 699 685
f 700 685 701
f 701 685 695
f 696 702 697
f 697 702 703
f 697 703 704
f 703 705 704
f 704 705 706
f 704 706 707
f 706 708 707
f 707 708 709
f 707 709 710
f 709 711 710
f 710 711 712
f 710 712 713
f 714 715 716
f 716 715 713
f 716 713 717
f 717 713 712
f 714 718 715
f 715 718 719
f 715 719 720
f 720 721 715
f 715 721 722
f 715 722 723
f 724 725 635
f 635 725 726
f 635 726 727
f 728 729 631
f 727 730 635
f 635 730 728
f 635 728 630
f 630 728 631
f 723 724 715
f 715 724 635
f 715 635 731
f 731 635 634
f 731 634 732
f 732 634 633
f 632 733 633
f 633 733 734
f 633 734 732
f 575 735 576
f 576 735 736
f 576 736 632
f 632 736 737
f 632 737 733
f 573 738 575
f 575 738 739
f 575 739 735
f 572 740 573
f 573 740 741
f 573 741 738
f 650 742 570
f 570 742 743
f 570 743 572
f 572 743 744
f 572 744 740
f 745 746 569
f 569 746 747
f 569 747 748
f 749 750 650
f 748 751 569
f 569 751 752
f 569 752 753
f 753 754 569
f 569 754 755
f 569 755 650
f 650 755 756
f 650 756 749
f 750 757 650
f 650 757 758
f 650 758 759
f 759 760 650
f 650 760 761
f 650 761 762
f 762 761 763
f 762 763 764
f 764 765 762
f 762 765 766
f 762 766 767
f 569 645 745
f 745 645 644
f 745 644 768
f 729 769 631
f 631 769 770
f 631 770 578
f 770 771 578
f 578 771 772
f 578 772 579
f 579 772 773
f 579 773 621
f 621 773 774
f 621 774 686
f 663 664 217
f 217 664 612
f 217 612 218
f 218 612 588
f 218 588 775
f 775 588 649
f 776 777 778
f 778 779 776
f 776 779 780
f 776 780 781
f 781 780 782
f 781 782 783
f 783 784 781
f 781 784 785
f 781 785 786
f 786 785 787
f 787 788 786
f 786 788 789
f 786 789 790
f 790 789 791
f 790 791 792
f 791 793 792
f 792 793 794
f 792 794 795
f 795 794 796
f 795 796 797
f 796 798 797
f 797 798 799
f 797 799 148
f 148 799 800
f 148 800 149
f 800 801 149
f 149 801 802
f 149 802 151
f 151 802 803
f 151 803 152
f 152 803 804
f 152 804 154
f 154 804 805
f 154 805 156
f 156 805 806
f 807 808 766
f 766 765 807
f 807 765 764
f 807 764 809
f 809 764 763
f 763 761 809
f 809 761 760
f 809 760 810
f 810 760 759
f 759 758 810
f 810 758 757
f 810 757 811
f 811 757 750
f 811 750 812
f 750 749 812
f 812 749 756
f 812 756 813
f 813 756 755
f 813 755 814
f 755 754 814
f 814 754 753
f 814 753 815
f 815 753 752
f 815 752 816
f 752 751 816
f 816 751 748
f 816 748 817
f 817 748 747
f 817 747 818
f 818 747 746
f 818 746 819
f 819 746 745
f 819 745 168
f 168 745 768
f 820 821 706
f 706 705 820
f 820 705 703
f 820 703 822
f 822 703 702
f 822 702 696
f 696 698 822
f 822 698 700
f 822 700 823
f 823 700 701
f 701 695 823
f 823 695 694
f 823 694 824
f 824 694 693
f 824 693 825
f 693 689 825
f 825 689 688
f 825 688 826
f 826 688 692
f 826 692 827
f 692 691 827
f 827 691 690
f 827 690 828
f 828 690 687
f 828 687 829
f 687 686 829
f 829 686 774
f 829 774 830
f 830 774 773
f 830 773 831
f 831 773 772
f 831 772 832
f 832 772 771
f 832 771 833
f 833 771 770
f 834 835 673
f 673 836 834
f 834 836 837
f 834 837 838
f 838 837 839
f 839 840 838
f 838 840 841
f 838 841 842
f 842 841 843
f 843 844 842
f 842 844 845
f 842 845 846
f 846 845 847
f 846 847 848
f 847 849 848
f 848 849 850
f 848 850 851
f 851 850 852
f 851 852 853
f 852 854 853
f 853 854 855
f 853 855 140
f 140 855 856
f 140 856 141
f 856 857 141
f 141 857 858
f 141 858 144
f 144 858 859
f 144 859 138
f 138 859 860
f 138 860 136
f 136 860 861
f 136 861 135
f 135 861 669
f 862 863 864
f 864 863 865
f 864 865 866
f 866 865 867
f 866 867 868
f 868 867 869
f 868 869 870
f 870 869 648
f 870 648 89
f 871 872 873
f 862 874 863
f 863 874 875
f 863 875 876
f 876 875 877
f 876 877 878
f 878 877 879
f 878 879 880
f 880 879 881
f 880 881 882
f 882 881 883
f 882 883 884
f 884 883 885
f 884 885 873
f 873 885 886
f 873 886 871
f 871 887 872
f 872 887 888
f 872 888 889
f 889 888 890
f 889 890 891
f 891 890 892
f 891 892 893
f 60 618 894
f 894 618 893
f 894 893 895
f 895 893 892
f 71 628 63
f 63 628 629
f 63 629 65
f 65 629 603
f 65 603 66
f 66 603 602
f 66 602 58
f 58 602 618
f 58 618 60
f 82 638 597
f 71 70 628
f 628 70 68
f 628 68 605
f 605 68 76
f 605 76 599
f 599 76 75
f 599 75 600
f 600 75 73
f 600 73 606
f 606 73 79
f 606 79 596
f 596 79 78
f 596 78 597
f 597 78 77
f 597 77 82
f 82 83 638
f 638 83 1
f 638 1 641
f 641 1 86
f 641 86 593
f 593 86 85
f 593 85 594
f 89 648 88
f 88 648 594
f 88 594 84
f 84 594 85
f 668 896 672
f 672 896 897
f 672 897 671
f 671 897 898
f 671 898 670
f 670 898 135
f 670 135 669
f 899 900 665
f 665 900 901
f 665 901 666
f 666 901 896
f 666 896 667
f 667 896 668
f 665 664 899
f 899 664 663
f 899 663 902
f 902 663 662
f 902 662 903
f 662 661 903
f 903 661 660
f 903 660 904
f 904 660 659
f 904 659 905
f 659 658 905
f 905 658 653
f 905 653 906
f 906 653 652
f 906 652 907
f 673 835 654
f 654 835 908
f 654 908 655
f 655 908 909
f 655 909 656
f 656 909 907
f 656 907 657
f 657 907 652
f 730 910 728
f 728 910 911
f 728 911 729
f 729 911 912
f 729 912 769
f 769 912 833
f 769 833 770
f 913 914 725
f 725 914 915
f 725 915 726
f 726 915 910
f 726 910 727
f 727 910 730
f 725 724 913
f 913 724 723
f 913 723 916
f 916 723 722
f 916 722 917
f 722 721 917
f 917 721 720
f 917 720 918
f 918 720 719
f 918 719 919
f 719 718 919
f 919 718 714
f 919 714 920
f 920 714 716
f 920 716 921
f 921 716 717
f 706 821 708
f 708 821 922
f 708 922 709
f 709 922 923
f 709 923 711
f 711 923 921
f 711 921 712
f 712 921 717
f 924 167 925
f 925 167 162
f 925 162 926
f 926 162 169
f 926 169 927
f 927 169 168
f 927 168 768
f 928 163 929
f 929 163 165
f 929 165 930
f 930 165 167
f 930 167 931
f 931 167 924
f 929 932 928
f 928 932 933
f 928 933 934
f 934 933 935
f 934 935 936
f 935 937 936
f 936 937 938
f 936 938 939
f 939 938 940
f 939 940 941
f 940 942 941
f 941 942 943
f 941 943 944
f 944 943 945
f 944 945 946
f 766 808 947
f 947 808 948
f 947 948 949
f 949 948 950
f 949 950 951
f 951 950 946
f 951 946 952
f 952 946 945
f 953 159 158
f 953 158 954
f 954 158 156
f 954 156 806
f 953 955 159
f 159 955 956
f 159 956 145
f 145 956 957
f 145 957 146
f 958 133 959
f 959 133 132
f 959 132 960
f 960 132 146
f 960 146 961
f 961 146 957
f 959 962 958
f 958 962 963
f 958 963 964
f 964 963 965
f 964 965 966
f 965 967 966
f 966 967 968
f 966 968 969
f 969 968 970
f 969 970 971
f 970 972 971
f 971 972 973
f 971 973 974
f 974 973 975
f 974 975 976
f 976 975 977
f 778 777 978
f 978 777 979
f 978 979 980
f 980 979 981
f 980 981 982
f 982 981 976
f 982 976 983
f 983 976 977
f 984 985 226
f 271 273 986
f 986 273 987
f 768 644 988
f 953 954 989
f 989 954 806
f 989 806 990
f 968 257 970
f 970 257 972
f 968 967 257
f 257 967 965
f 257 965 963
f 962 959 991
f 991 959 960
f 991 960 961
f 961 957 991
f 991 957 956
f 991 956 955
f 953 989 955
f 955 989 992
f 955 992 991
f 259 258 782
f 980 982 262
f 262 982 983
f 262 983 254
f 254 983 977
f 254 977 256
f 256 977 975
f 256 975 257
f 257 975 973
f 257 973 972
f 782 780 259
f 259 780 779
f 259 779 261
f 261 779 778
f 261 778 262
f 262 778 978
f 262 978 980
f 802 801 993
f 806 805 990
f 990 805 804
f 990 804 993
f 993 804 803
f 993 803 802
f 801 800 993
f 993 800 799
f 993 799 798
f 267 796 794
f 794 793 267
f 267 793 791
f 267 791 789
f 789 788 267
f 267 788 787
f 267 787 265
f 265 787 785
f 265 785 263
f 263 785 784
f 263 784 258
f 258 784 783
f 258 783 782
f 945 943 994
f 947 949 995
f 995 949 951
f 995 951 994
f 994 951 952
f 994 952 945
f 943 942 994
f 994 942 940
f 994 940 938
f 938 937 994
f 994 937 935
f 994 935 933
f 996 932 929
f 929 930 996
f 996 930 931
f 996 931 924
f 924 925 996
f 996 925 926
f 996 926 988
f 988 926 927
f 988 927 768
f 947 995 766
f 766 995 997
f 766 997 767
f 933 932 994
f 994 932 996
f 994 996 360
f 360 996 998
f 999 289 998
f 998 289 288
f 998 288 360
f 281 283 1000
f 1000 283 284
f 1000 284 999
f 999 284 286
f 999 286 289
f 281 1000 275
f 275 1000 1001
f 275 1001 276
f 273 280 987
f 987 280 279
f 987 279 1001
f 1001 279 278
f 1001 278 276
f 271 986 269
f 269 986 1002
f 269 1002 211
f 211 1002 212
f 212 1002 1003
f 212 1003 268
f 268 1003 993
f 268 993 267
f 267 993 798
f 267 798 796
f 963 962 257
f 257 962 991
f 257 991 249
f 249 991 1004
f 249 1004 250
f 250 1004 251
f 251 1004 1005
f 251 1005 252
f 252 1005 1006
f 252 1006 246
f 1007 237 1008
f 1008 237 242
f 1008 242 1006
f 1006 242 244
f 1006 244 246
f 235 241 1009
f 1009 241 240
f 1009 240 1007
f 1007 240 238
f 1007 238 237
f 235 1009 236
f 236 1009 1010
f 236 1010 232
f 226 228 984
f 984 228 230
f 984 230 1010
f 1010 230 233
f 1010 233 232
f 861 860 985
f 985 860 859
f 985 859 858
f 858 857 985
f 985 857 856
f 985 856 855
f 855 854 985
f 985 854 852
f 985 852 226
f 226 852 850
f 226 850 849
f 849 847 226
f 226 847 845
f 226 845 844
f 844 843 226
f 226 843 841
f 226 841 214
f 214 841 840
f 214 840 215
f 215 840 839
f 215 839 837
f 837 836 215
f 215 836 673
f 215 673 225
f 985 1011 861
f 861 1011 591
f 861 591 669
f 1012 1013 490
f 1014 958 964
f 812 492 811
f 811 492 493
f 811 493 810
f 810 493 494
f 810 494 809
f 809 494 495
f 809 495 807
f 807 495 496
f 807 496 808
f 808 496 497
f 808 497 948
f 948 497 498
f 948 498 950
f 813 814 1015
f 1016 1017 503
f 1015 1012 813
f 813 1012 490
f 813 490 812
f 812 490 491
f 812 491 492
f 1013 1018 490
f 490 1018 1019
f 490 1019 1020
f 490 916 489
f 489 916 917
f 489 917 488
f 488 917 918
f 488 918 487
f 487 918 919
f 487 919 486
f 486 919 920
f 486 920 485
f 485 920 921
f 921 923 485
f 485 923 922
f 485 922 361
f 361 922 821
f 361 821 1021
f 1021 821 820
f 1021 820 1022
f 1022 820 822
f 1022 822 1023
f 1023 822 823
f 1023 823 1024
f 1024 823 824
f 1024 824 1025
f 1025 824 825
f 826 827 1026
f 1027 1028 1029
f 848 1030 846
f 846 1030 1031
f 846 1031 842
f 842 1031 1032
f 842 1032 838
f 838 1032 1033
f 838 1033 834
f 834 1033 1034
f 834 1034 835
f 835 1034 1035
f 835 1035 908
f 908 1035 1036
f 908 1036 909
f 792 505 790
f 790 505 506
f 790 506 786
f 786 506 507
f 786 507 781
f 781 507 508
f 781 508 776
f 776 508 509
f 776 509 777
f 777 509 510
f 777 510 979
f 979 510 1037
f 979 1037 981
f 1017 1038 503
f 503 1038 1039
f 503 1039 1040
f 1026 1028 826
f 826 1028 1027
f 826 1027 825
f 825 1027 1041
f 825 1041 1025
f 1029 1042 1027
f 1027 1042 1043
f 1027 1043 1044
f 1027 902 1045
f 1045 902 903
f 1045 903 1046
f 1046 903 904
f 1046 904 1047
f 1047 904 905
f 1047 905 1048
f 1048 905 906
f 1048 906 1036
f 1036 906 907
f 1036 907 909
f 851 853 1049
f 1050 1051 1052
f 1052 1051 1053
f 1050 1054 1051
f 1051 1054 1055
f 1051 1055 1056
f 1014 964 1057
f 1056 1057 1051
f 1051 1057 964
f 1051 964 1058
f 1058 964 966
f 1058 966 1059
f 1059 966 969
f 1059 969 1060
f 1060 969 971
f 1060 971 1061
f 1061 971 974
f 1061 974 1037
f 1037 974 976
f 1037 976 981
f 795 797 1062
f 503 934 502
f 502 934 936
f 502 936 501
f 501 936 939
f 501 939 500
f 500 939 941
f 500 941 499
f 499 941 944
f 499 944 498
f 498 944 946
f 498 946 950
f 1020 1063 490
f 490 1063 1064
f 490 1064 916
f 916 1064 1065
f 916 1065 913
f 1044 1066 1027
f 1027 1066 1067
f 1027 1067 902
f 902 1067 1068
f 902 1068 899
f 1049 1053 851
f 851 1053 1051
f 851 1051 848
f 848 1051 1069
f 848 1069 1030
f 1062 1016 795
f 795 1016 503
f 795 503 792
f 792 503 504
f 792 504 505
f 1040 1070 503
f 503 1070 1071
f 503 1071 934
f 934 1071 1072
f 934 1072 928
f 985 984 1073
f 1010 1009 1074
f 1007 1008 1075
f 989 990 1076
f 986 987 1077
f 1001 1000 1078
f 999 998 1079
f 988 644 643
f 891 893 1080
f 884 873 1081
f 878 880 1082
f 869 867 1083
f 878 1082 876
f 882 884 1084
f 1084 884 1081
f 1084 1081 1085
f 1085 1081 1086
f 1085 1086 1087
f 1087 1086 1088
f 988 643 996
f 998 996 1079
f 1079 996 643
f 1079 643 1089
f 1089 643 646
f 1089 646 1090
f 1090 646 647
f 1000 999 1078
f 1078 999 1079
f 1078 1079 1091
f 1091 1079 1089
f 1091 1089 1083
f 1083 1089 1090
f 1083 1090 869
f 869 1090 647
f 869 647 648
f 987 1001 1077
f 1077 1001 1078
f 1077 1078 1092
f 1092 1078 1091
f 1092 1091 1093
f 1093 1091 1083
f 993 1003 1094
f 1094 1003 1002
f 1002 986 1094
f 1094 986 1077
f 1094 1077 1095
f 1095 1077 1092
f 1095 1092 1096
f 1096 1092 1093
f 990 993 1076
f 1076 993 1094
f 1076 1094 1097
f 1097 1094 1095
f 1097 1095 1082
f 1082 1095 1096
f 1082 1096 876
f 876 1096 1093
f 876 1093 863
f 863 1093 1083
f 863 1083 865
f 865 1083 867
f 992 989 1087
f 1087 989 1076
f 1087 1076 1085
f 1085 1076 1097
f 1085 1097 1084
f 1084 1097 1082
f 1084 1082 882
f 882 1082 880
f 1006 1005 1088
f 1088 1005 1004
f 1088 1004 1087
f 1087 1004 991
f 1087 991 992
f 1008 1006 1075
f 1075 1006 1088
f 1075 1088 1098
f 1098 1088 1086
f 1098 1086 1099
f 1099 1086 1081
f 1099 1081 872
f 872 1081 873
f 1009 1007 1074
f 1074 1007 1075
f 1074 1075 1100
f 1100 1075 1098
f 1100 1098 1101
f 1101 1098 1099
f 1101 1099 889
f 889 1099 872
f 984 1010 1073
f 1073 1010 1074
f 1073 1074 1102
f 1102 1074 1100
f 1102 1100 1080
f 1080 1100 1101
f 1080 1101 891
f 891 1101 889
f 592 591 1011
f 1011 985 592
f 592 985 1073
f 592 1073 614
f 614 1073 1102
f 614 1102 616
f 616 1102 1080
f 616 1080 618
f 618 1080 893
f 357 355 512
f 349 358 1103
f 1103 358 357
f 1103 357 1104
f 1104 357 512
f 1105 329 1106
f 1106 329 331
f 349 1103 347
f 347 1103 1107
f 347 1107 345
f 345 1107 1108
f 345 1108 343
f 343 1108 1109
f 343 1109 341
f 341 1109 1110
f 341 1110 332
f 332 1110 1111
f 332 1111 333
f 333 1111 1112
f 333 1112 335
f 335 1112 1113
f 335 1113 337
f 337 1113 1114
f 337 1114 339
f 339 1114 1115
f 339 1115 340
f 340 1115 1116
f 340 1116 331
f 331 1116 1117
f 331 1117 1106
f 431 320 318
f 431 318 432
f 432 318 316
f 432 316 433
f 433 316 315
f 433 315 1118
f 1118 315 322
f 1118 322 1119
f 1119 322 324
f 1119 324 1120
f 1120 324 326
f 1120 326 1105
f 1105 326 328
f 1105 328 329
f 320 431 321
f 321 431 429
f 321 429 311
f 311 429 427
f 311 427 313
f 399 401 514
f 427 425 313
f 313 425 424
f 313 424 314
f 314 424 423
f 314 423 309
f 309 423 421
f 309 421 307
f 307 421 419
f 307 419 305
f 305 419 417
f 305 417 303
f 303 417 416
f 303 416 293
f 293 416 414
f 293 414 294
f 294 414 413
f 294 413 296
f 407 298 409
f 409 298 296
f 409 296 411
f 411 296 413
f 403 302 406
f 406 302 301
f 406 301 407
f 407 301 300
f 407 300 298
f 514 1121 399
f 399 1121 1122
f 399 1122 403
f 403 1122 1123
f 403 1123 302
f 510 484 1124
f 484 459 1125
f 459 434 1126
f 434 433 1118
f 434 1118 1126
f 1126 1118 1119
f 1126 1119 1127
f 1119 1120 1127
f 1127 1120 1105
f 1127 1105 1128
f 1105 1106 1128
f 1128 1106 1117
f 1128 1117 1129
f 1129 1117 1116
f 1129 1116 1130
f 1130 1116 1115
f 1130 1115 1131
f 1131 1115 1114
f 1114 1113 1131
f 1131 1113 1112
f 1131 1112 1132
f 1132 1112 1111
f 1132 1111 1133
f 1133 1111 1110
f 1133 1110 1134
f 1134 1110 1109
f 511 1135 512
f 512 1135 1136
f 512 1136 1104
f 1104 1136 1137
f 1104 1137 1103
f 1103 1137 1138
f 1103 1138 1107
f 1107 1138 1134
f 1107 1134 1108
f 1108 1134 1109
f 565 1139 511
f 511 1139 1140
f 511 1140 1135
f 565 566 1139
f 1139 566 561
f 1139 561 1141
f 1141 561 563
f 1141 563 1142
f 1142 563 564
f 1142 564 1143
f 564 559 1143
f 1143 559 557
f 1143 557 1144
f 557 555 1144
f 1144 555 553
f 1144 553 1145
f 1145 553 551
f 1145 551 1146
f 1146 551 549
f 1146 549 1147
f 1147 549 547
f 547 545 1147
f 1147 545 544
f 1147 544 1148
f 1148 544 542
f 1148 542 1149
f 1149 542 540
f 1149 540 1150
f 1150 540 529
f 529 532 1150
f 1150 532 368
f 1150 368 366
f 459 1126 1125
f 1125 1126 1127
f 1125 1127 1151
f 1151 1127 1128
f 1151 1128 1152
f 1152 1128 1129
f 1152 1129 1153
f 1153 1129 1130
f 1153 1130 1154
f 1154 1130 1131
f 1154 1131 1155
f 1155 1131 1132
f 1155 1132 1156
f 1156 1132 1133
f 1156 1133 1157
f 1157 1133 1134
f 1157 1134 1158
f 1158 1134 1138
f 1158 1138 1159
f 1159 1138 1137
f 1159 1137 1160
f 1160 1137 1136
f 1160 1136 1161
f 1161 1136 1135
f 1161 1135 1162
f 1162 1135 1140
f 1162 1140 1163
f 1163 1140 1139
f 1163 1139 1164
f 1164 1139 1141
f 1164 1141 1165
f 1165 1141 1142
f 1165 1142 1166
f 1166 1142 1143
f 1166 1143 1167
f 1167 1143 1144
f 1167 1144 1168
f 1168 1144 1145
f 1168 1145 1169
f 1169 1145 1146
f 1169 1146 1170
f 1170 1146 1147
f 1170 1147 1171
f 1171 1147 1148
f 1171 1148 1172
f 1172 1148 1149
f 1172 1149 1173
f 1173 1149 1150
f 1173 1150 1174
f 1174 1150 366
f 1174 366 364
f 484 1125 1124
f 1124 1125 1151
f 1124 1151 1175
f 1175 1151 1152
f 1175 1152 1176
f 1176 1152 1153
f 1176 1153 1177
f 1177 1153 1154
f 1177 1154 1178
f 1178 1154 1155
f 1178 1155 1179
f 1179 1155 1156
f 1179 1156 1180
f 1180 1156 1157
f 1180 1157 1181
f 1181 1157 1158
f 1181 1158 1182
f 1182 1158 1159
f 1182 1159 1183
f 1183 1159 1160
f 1183 1160 1184
f 1184 1160 1161
f 1184 1161 1185
f 1185 1161 1162
f 1185 1162 1186
f 1186 1162 1163
f 1186 1163 1187
f 1187 1163 1164
f 1187 1164 1188
f 1188 1164 1165
f 1188 1165 1189
f 1189 1165 1166
f 1189 1166 1190
f 1190 1166 1167
f 1190 1167 1191
f 1191 1167 1168
f 1191 1168 1192
f 1192 1168 1169
f 1192 1169 1193
f 1193 1169 1170
f 1193 1170 1194
f 1194 1170 1171
f 1194 1171 1195
f 1195 1171 1172
f 1195 1172 1196
f 1196 1172 1173
f 1196 1173 1197
f 1197 1173 1174
f 1197 1174 1198
f 1198 1174 364
f 1198 364 362
f 510 1124 1037
f 1037 1124 1175
f 1037 1175 1061
f 1061 1175 1176
f 1061 1176 1060
f 1060 1176 1177
f 1060 1177 1059
f 1059 1177 1178
f 1059 1178 1058
f 1058 1178 1179
f 1058 1179 1051
f 1051 1179 1180
f 1051 1180 1069
f 1069 1180 1181
f 1069 1181 1030
f 1030 1181 1182
f 1030 1182 1031
f 1031 1182 1183
f 1031 1183 1032
f 1032 1183 1184
f 1032 1184 1033
f 1033 1184 1185
f 1033 1185 1034
f 1034 1185 1186
f 1034 1186 1035
f 1035 1186 1187
f 1035 1187 1036
f 1036 1187 1188
f 1036 1188 1048
f 1048 1188 1189
f 1048 1189 1047
f 1047 1189 1190
f 1047 1190 1046
f 1046 1190 1191
f 1046 1191 1045
f 1045 1191 1192
f 1045 1192 1027
f 1027 1192 1193
f 1027 1193 1041
f 1041 1193 1194
f 1041 1194 1025
f 1025 1194 1195
f 1025 1195 1024
f 1024 1195 1196
f 1024 1196 1023
f 1023 1196 1197
f 1023 1197 1022
f 1022 1197 1198
f 1022 1198 1021
f 1021 1198 362
f 1021 362 361
f 994 360 292
f 994 292 995
f 767 1199 762
f 762 1199 1200
f 762 1200 650
f 650 1200 1201
f 650 1201 742
f 742 1201 1202
f 742 1202 743
f 735 739 1203
f 1203 739 738
f 1203 738 1204
f 1204 738 741
f 1204 741 1205
f 1205 741 740
f 1205 740 1202
f 1202 740 744
f 1202 744 743
f 735 1203 736
f 736 1203 1206
f 736 1206 737
f 737 1206 1207
f 737 1207 733
f 733 1207 1208
f 733 1208 734
f 1209 715 1210
f 1210 715 731
f 1210 731 1208
f 1208 731 732
f 1208 732 734
f 697 704 1211
f 1211 704 707
f 1211 707 1212
f 1212 707 710
f 1212 710 1209
f 1209 710 713
f 1209 713 715
f 697 1211 699
f 699 1211 1213
f 699 1213 685
f 685 1213 1214
f 685 1214 684
f 684 1214 1215
f 684 1215 683
f 677 678 1216
f 1216 678 679
f 1216 679 1217
f 1217 679 680
f 1217 680 1218
f 1218 680 681
f 1218 681 1215
f 1215 681 682
f 1215 682 683
f 677 1216 676
f 676 1216 1219
f 676 1219 675
f 675 1219 1220
f 675 1220 674
f 674 1220 1221
f 674 1221 651
f 1222 775 1221
f 1221 775 649
f 1221 649 651
f 1223 221 219
f 556 558 1224
f 1224 558 560
f 1224 560 1225
f 1225 560 562
f 1225 562 1226
f 1226 562 568
f 1226 568 1223
f 1223 568 567
f 1223 567 221
f 221 567 359
f 556 1224 554
f 554 1224 1227
f 554 1227 552
f 552 1227 1228
f 552 1228 550
f 550 1228 1229
f 550 1229 548
f 1230 541 1231
f 1231 541 543
f 1231 543 1229
f 1229 543 546
f 1229 546 548
f 534 533 1232
f 1232 533 531
f 1232 531 1233
f 1233 531 530
f 1233 530 1230
f 1230 530 539
f 1230 539 541
f 534 1232 535
f 535 1232 1234
f 535 1234 536
f 536 1234 1235
f 536 1235 537
f 537 1235 1236
f 537 1236 538
f 538 1236 518
f 518 1236 1237
f 518 1237 519
f 523 524 1238
f 1238 524 525
f 1238 525 1239
f 1239 525 526
f 1239 526 1240
f 1240 526 527
f 1240 527 1237
f 1237 527 528
f 1237 528 519
f 523 1238 522
f 522 1238 1241
f 522 1241 521
f 521 1241 1242
f 521 1242 520
f 520 1242 1243
f 520 1243 517
f 517 1243 1244
f 517 1244 516
f 1123 1122 1245
f 1245 1122 1121
f 1245 1121 1246
f 1246 1121 514
f 1246 514 1247
f 1247 514 513
f 1247 513 1244
f 1244 513 515
f 1244 515 516
f 767 997 1199
f 1199 997 995
f 1199 995 1248
f 1248 995 292
f 1248 292 291
f 302 1123 291
f 291 1123 1245
f 291 1245 1248
f 1248 1245 1246
f 1248 1246 1199
f 1199 1246 1247
f 1199 1247 1200
f 1200 1247 1244
f 1200 1244 1201
f 1201 1244 1243
f 1201 1243 1202
f 1202 1243 1242
f 1202 1242 1205
f 1205 1242 1241
f 1205 1241 1204
f 1204 1241 1238
f 1204 1238 1203
f 1203 1238 1239
f 1203 1239 1206
f 1206 1239 1240
f 1206 1240 1207
f 1207 1240 1237
f 1207 1237 1208
f 1208 1237 1236
f 1208 1236 1210
f 1210 1236 1235
f 1210 1235 1209
f 1209 1235 1234
f 1209 1234 1212
f 1212 1234 1232
f 1212 1232 1211
f 1211 1232 1233
f 1211 1233 1213
f 1213 1233 1230
f 1213 1230 1214
f 1214 1230 1231
f 1214 1231 1215
f 1215 1231 1229
f 1215 1229 1218
f 1218 1229 1228
f 1218 1228 1217
f 1217 1228 1227
f 1217 1227 1216
f 1216 1227 1224
f 1216 1224 1219
f 1219 1224 1225
f 1219 1225 1220
f 1220 1225 1226
f 1220 1226 1221
f 1221 1226 1223
f 1221 1223 1222
f 1222 1223 219
f 1222 219 775
f 775 219 218
f 915 914 1249
f 168 13 819
f 819 13 17
f 819 17 818
f 1250 815 816
f 1251 1250 16
f 16 1250 816
f 16 816 17
f 17 816 817
f 17 817 818
f 828 829 37
f 829 830 37
f 37 830 831
f 37 831 35
f 35 831 832
f 35 832 30
f 30 832 833
f 30 833 31
f 31 833 912
f 31 912 33
f 33 912 911
f 33 911 910
f 52 54 897
f 900 1252 901
f 901 1252 1253
f 901 1253 896
f 56 135 54
f 54 135 898
f 54 898 897
f 1251 16 1254
f 1254 16 20
f 1254 20 1255
f 1255 20 19
f 1255 19 1256
f 1256 19 23
f 1256 23 1257
f 1257 23 22
f 1257 22 1258
f 1258 22 1259
f 1259 22 26
f 1259 26 1260
f 1260 26 25
f 1260 25 1261
f 1261 25 29
f 1261 29 1262
f 1262 29 28
f 1262 28 1263
f 1263 28 34
f 1263 34 1264
f 1264 34 33
f 1264 33 1249
f 1249 33 910
f 1249 910 915
f 39 1265 37
f 37 1265 1266
f 37 1266 828
f 48 1267 46
f 46 1267 1268
f 46 1268 45
f 45 1268 1269
f 45 1269 43
f 43 1269 1270
f 43 1270 42
f 42 1270 1271
f 42 1271 40
f 40 1271 1272
f 40 1272 39
f 39 1272 1273
f 39 1273 1265
f 897 896 52
f 52 896 1253
f 52 1253 51
f 51 1253 1274
f 51 1274 49
f 49 1274 1275
f 49 1275 48
f 48 1275 1276
f 48 1276 1267
f 133 958 134
f 134 958 1014
f 134 1014 189
f 189 1014 1057
f 183 185 1057
f 1057 185 187
f 1057 187 189
f 1054 181 1055
f 1055 181 183
f 1055 183 1056
f 1056 183 1057
f 172 174 1052
f 1052 174 176
f 1052 176 1050
f 1050 176 178
f 1050 178 1054
f 1054 178 179
f 1054 179 181
f 172 1052 170
f 170 1052 1053
f 170 1053 142
f 142 1053 1049
f 142 1049 139
f 139 1049 853
f 139 853 140
f 928 1072 163
f 163 1072 164
f 1040 210 1070
f 1070 210 209
f 1070 209 1071
f 1071 209 207
f 1071 207 1072
f 1072 207 166
f 1072 166 164
f 198 196 1040
f 1040 196 194
f 1040 194 210
f 1040 1039 198
f 198 1039 1038
f 198 1038 200
f 200 1038 1017
f 200 1017 202
f 202 1017 204
f 204 1017 1016
f 204 1016 205
f 205 1016 1062
f 205 1062 191
f 797 148 1062
f 1062 148 192
f 1062 192 191
f 899 1068 900
f 900 1068 1252
f 1044 1276 1066
f 1066 1276 1275
f 1066 1275 1067
f 1067 1275 1274
f 1067 1274 1068
f 1068 1274 1253
f 1068 1253 1252
f 1269 1268 1044
f 1044 1268 1267
f 1044 1267 1276
f 1044 1043 1269
f 1269 1043 1042
f 1269 1042 1270
f 1270 1042 1029
f 1270 1029 1271
f 1271 1029 1272
f 1272 1029 1028
f 1272 1028 1273
f 1273 1028 1026
f 1273 1026 1265
f 827 828 1026
f 1026 828 1266
f 1026 1266 1265
f 914 913 1249
f 1249 913 1065
f 1249 1065 1264
f 1264 1065 1064
f 1261 1262 1064
f 1064 1262 1263
f 1064 1263 1264
f 1019 1260 1020
f 1020 1260 1261
f 1020 1261 1063
f 1063 1261 1064
f 1255 1256 1013
f 1013 1256 1257
f 1013 1257 1018
f 1018 1257 1258
f 1018 1258 1019
f 1019 1258 1259
f 1019 1259 1260
f 1255 1013 1254
f 1254 1013 1012
f 1254 1012 1251
f 1251 1012 1015
f 1251 1015 1250
f 1250 1015 814
f 1250 814 815
f 888 1277 1278
f 137 56 1279
f 1279 56 55
f 137 1279 143
f 143 1279 1280
f 143 1280 171
f 171 1280 173
f 173 1280 1281
f 173 1281 175
f 175 1281 177
f 177 1281 1282
f 177 1282 180
f 180 1282 182
f 182 1282 1283
f 182 1283 184
f 184 1283 186
f 186 1283 1284
f 186 1284 188
f 188 1284 147
f 147 1284 1285
f 147 1285 157
f 157 1285 155
f 155 1285 1286
f 155 1286 153
f 153 1286 150
f 150 1286 1287
f 150 1287 190
f 190 1287 203
f 203 1287 1288
f 203 1288 201
f 201 1288 199
f 199 1288 1289
f 199 1289 197
f 197 1289 195
f 195 1289 1290
f 195 1290 193
f 193 1290 208
f 208 1290 1291
f 208 1291 206
f 206 1291 160
f 160 1291 1292
f 160 1292 161
f 161 1292 11
f 161 11 13
f 1293 870 1294
f 1294 870 89
f 1294 89 5
f 1295 864 1296
f 1296 864 866
f 1296 866 1293
f 1293 866 868
f 1293 868 870
f 1297 875 1298
f 1298 875 874
f 1298 874 1295
f 1295 874 862
f 1295 862 864
f 1299 881 1300
f 1300 881 879
f 1300 879 1297
f 1297 879 877
f 1297 877 875
f 886 885 1299
f 1299 885 883
f 1299 883 881
f 1299 1301 886
f 886 1301 1302
f 886 1302 871
f 1277 888 1302
f 1302 888 887
f 1302 887 871
f 895 892 1278
f 1278 892 890
f 1278 890 888
f 1278 1303 895
f 895 1303 1304
f 895 1304 894
f 60 894 61
f 61 894 1304
f 61 1304 131
f 117 131 1305
f 103 117 1306
f 55 103 1307
f 55 1307 1279
f 1279 1307 1308
f 1279 1308 1280
f 1280 1308 1309
f 1280 1309 1281
f 1281 1309 1310
f 1281 1310 1282
f 1282 1310 1311
f 1282 1311 1283
f 1283 1311 1312
f 1283 1312 1284
f 1284 1312 1313
f 1284 1313 1285
f 1285 1313 1314
f 1285 1314 1286
f 1286 1314 1315
f 1286 1315 1287
f 1287 1315 1316
f 1287 1316 1288
f 1288 1316 1317
f 1288 1317 1289
f 1289 1317 1318
f 1289 1318 1290
f 1290 1318 1319
f 1290 1319 1291
f 1291 1319 1320
f 1291 1320 1292
f 1292 1320 9
f 1292 9 11
f 103 1306 1307
f 1307 1306 1321
f 1307 1321 1308
f 1308 1321 1322
f 1308 1322 1309
f 1309 1322 1323
f 1309 1323 1310
f 1310 1323 1324
f 1310 1324 1311
f 1311 1324 1325
f 1311 1325 1312
f 1312 1325 1326
f 1312 1326 1313
f 1313 1326 1327
f 1313 1327 1314
f 1314 1327 1328
f 1314 1328 1315
f 1315 1328 1329
f 1315 1329 1316
f 1316 1329 1330
f 1316 1330 1317
f 1317 1330 1331
f 1317 1331 1318
f 1318 1331 1332
f 1318 1332 1319
f 1319 1332 1333
f 1319 1333 1320
f 1320 1333 7
f 1320 7 9
f 117 1305 1306
f 1306 1305 1334
f 1306 1334 1321
f 1321 1334 1335
f 1321 1335 1322
f 1322 1335 1336
f 1322 1336 1323
f 1323 1336 1337
f 1323 1337 1324
f 1324 1337 1338
f 1324 1338 1325
f 1325 1338 1339
f 1325 1339 1326
f 1326 1339 1340
f 1326 1340 1327
f 1327 1340 1341
f 1327 1341 1328
f 1328 1341 1342
f 1328 1342 1329
f 1329 1342 1343
f 1329 1343 1330
f 1330 1343 1344
f 1330 1344 1331
f 1331 1344 1345
f 1331 1345 1332
f 1332 1345 1346
f 1332 1346 1333
f 1333 1346 4
f 1333 4 7
f 131 1304 1305
f 1305 1304 1303
f 1305 1303 1334
f 1334 1303 1278
f 1334 1278 1335
f 1335 1278 1277
f 1335 1277 1336
f 1336 1277 1302
f 1336 1302 1337
f 1337 1302 1301
f 1337 1301 1338
f 1338 1301 1299
f 1338 1299 1339
f 1339 1299 1300
f 1339 1300 1340
f 1340 1300 1297
f 1340 1297 1341
f 1341 1297 1298
f 1341 1298 1342
f 1342 1298 1295
f 1342 1295 1343
f 1343 1295 1296
f 1343 1296 1344
f 1344 1296 1293
f 1344 1293 1345
f 1345 1293 1294
f 1345 1294 1346
f 1346 1294 5
f 1346 5 4

