# https://github.com/mikedh/trimesh
v -0.01299938 0.00101897 0.00109409
v -0.01299940 0.00102163 0.00109152
v -0.01300235 0.00098932 0.00102045
v -0.01300236 0.00030954 -0.00138709
v -0.01299791 0.00030796 -0.00146870
v -0.01299786 0.00028361 -0.00147377
v -0.01300236 -0.00007028 -0.00141945
v -0.01299864 0.00055627 -0.00139083
v -0.01300236 0.00066709 -0.00125494
v -0.01299868 0.00056745 -0.00138613
v -0.01299992 0.00080692 -0.00125635
v -0.01300236 0.00097666 -0.00103251
v -0.01300098 0.00101764 -0.00108722
v -0.01299876 0.00134532 -0.00065772
v -0.01299986 0.00122283 -0.00085717
v -0.01300236 0.00121597 -0.00073580
v -0.01300004 0.00120032 -0.00088735
v -0.01300089 0.00104723 -0.00105921
v -0.01300235 0.00142126 -0.00000874
v -0.01299774 0.00149783 -0.00010169
v -0.01299770 0.00149522 -0.00013638
v -0.01300235 0.00136781 -0.00038616
v -0.01299767 0.00145695 -0.00036327
v -0.01299776 0.00144569 -0.00040454
v -0.01299855 0.00136619 -0.00061509
v -0.01300235 0.00137247 0.00036932
v -0.01299922 0.00144043 0.00040300
v -0.01299831 0.00148961 0.00016853
v -0.01300068 0.00121234 0.00086668
v -0.01300090 0.00132243 0.00068530
v -0.01300235 0.00122496 0.00072081
v -0.01300068 0.00133887 0.00065450
v -0.01299943 0.00142684 0.00044612
v -0.01300060 0.00119863 0.00088606
v -0.01299820 0.00081288 0.00126006
v -0.01300235 0.00068252 0.00124668
v -0.01299819 0.00080978 0.00126211
v -0.01288349 0.00060808 0.00111069
v -0.01289288 0.00050612 0.00116543
v -0.01296310 0.00052908 0.00121830
v -0.01280441 0.00049792 0.00114655
v -0.01280443 0.00060026 0.00109640
v -0.01280443 0.00081179 0.00095048
v -0.01288349 0.00088142 0.00090914
v -0.01280443 0.00087007 0.00089744
v -0.01288349 0.00109135 0.00064219
v -0.01280443 0.00120704 0.00032480
v -0.01280443 0.00113516 0.00052331
v -0.01280443 0.00107730 0.00063392
v -0.01288349 0.00122277 0.00032904
v -0.01288349 0.00126624 -0.00000778
v -0.01280443 0.00124994 -0.00000768
v -0.01288349 0.00121862 -0.00034404
v -0.01280443 0.00081176 -0.00095044
v -0.01280443 0.00085893 -0.00090804
v -0.01288349 0.00087013 -0.00091988
v -0.01280443 0.00106940 -0.00064710
v -0.01288349 0.00108334 -0.00065554
v -0.01280443 0.00113513 -0.00052330
v -0.01280443 0.00120294 -0.00033961
v -0.01280443 0.00058668 -0.00110366
v -0.01288349 0.00059433 -0.00111805
v -0.01280443 0.00033926 -0.00120296
v -0.01288351 0.00027578 -0.00123578
v -0.01280443 0.00027223 -0.00121988
v -0.01280443 0.00000000 -0.00124982
v -0.01288351 -0.00006260 -0.00126461
v -0.01280443 -0.00006180 -0.00124834
v -0.01288351 -0.00039648 -0.00120246
v -0.01280443 -0.00039138 -0.00118699
v -0.01296314 -0.00052905 -0.00121823
v -0.01300236 -0.00044503 -0.00134969
v -0.01300060 -0.00056203 -0.00129417
v -0.01299761 -0.00056895 -0.00138982
v -0.01299761 -0.00059821 -0.00137747
v -0.01299761 0.00000000 -0.00150155
v -0.01299761 -0.00003724 -0.00150130
v -0.01299761 -0.00030818 -0.00146980
v -0.01280443 -0.00049792 -0.00114655
v -0.01289293 -0.00050608 -0.00116534
v -0.01296314 -0.00041590 -0.00126136
v -0.01296314 -0.00006567 -0.00132655
v -0.01296314 0.00028928 -0.00129631
v -0.01296314 0.00062343 -0.00117281
v -0.01296314 0.00091274 -0.00096494
v -0.01296314 0.00113639 -0.00068765
v -0.01296314 0.00127830 -0.00036089
v -0.01296314 0.00132825 -0.00000816
v -0.01296314 0.00128266 0.00034515
v -0.01296314 0.00114479 0.00067364
v -0.01296314 0.00092458 0.00095366
v -0.01296314 0.00063786 0.00116509
v -0.01300057 0.00056204 0.00129420
v -0.01299759 0.00059821 0.00137747
v -0.01143434 0.00301226 -0.00668901
v -0.01143416 0.00355766 -0.00641631
v -0.01134674 0.00345022 -0.00667431
v -0.01143449 0.00651258 0.00337547
v -0.01143464 0.00625736 0.00382685
v -0.01134674 0.00648271 0.00379795
v -0.01096425 0.00583117 0.00504080
v -0.01096425 0.00612736 0.00467629
v -0.01116086 0.00607660 0.00466617
v -0.01096425 0.00757638 0.00141793
v -0.01096425 0.00763285 0.00107314
v -0.01116085 0.00756937 0.00118482
v -0.01096424 0.00592163 -0.00493418
v -0.01096424 0.00582527 -0.00504758
v -0.01116085 0.00576504 -0.00504615
v -0.01143467 -0.00396082 -0.00617337
v -0.01143497 -0.00358931 -0.00639524
v -0.01134678 -0.00374665 -0.00651233
v -0.01143451 -0.00150533 -0.00717925
v -0.01143437 -0.00127084 -0.00722492
v -0.01134677 -0.00110328 -0.00743180
v -0.01143415 -0.00063783 -0.00730892
v -0.01134677 -0.00016888 -0.00751137
v -0.01143404 -0.00000000 -0.00733701
v -0.01134675 0.00076815 -0.00747392
v -0.01143476 -0.00189395 -0.00708566
v -0.01134677 -0.00202048 -0.00723645
v -0.01143528 -0.00250232 -0.00689225
v -0.01134678 -0.00290621 -0.00692836
v -0.01143541 -0.00277779 -0.00678540
v -0.01143531 -0.00307009 -0.00665869
v -0.01134680 -0.00452873 -0.00599485
v -0.01134462 -0.00494997 -0.00565571
v -0.01136875 -0.00492789 -0.00563047
v -0.01143454 -0.00411610 -0.00607149
v -0.01143421 -0.00460730 -0.00570932
v -0.01143413 -0.00483196 -0.00552083
v -0.01112811 -0.00505474 -0.00577550
v -0.01116091 -0.00504568 -0.00576514
v -0.01116091 -0.00461804 -0.00611307
v -0.01126076 -0.00500535 -0.00571902
v -0.01096427 -0.00507583 -0.00579964
v -0.01096425 -0.00485844 -0.00598312
v -0.01096425 -0.00464575 -0.00614974
v -0.01116089 -0.00382055 -0.00664076
v -0.01096424 -0.00384347 -0.00668060
v -0.01096421 -0.00268258 -0.00722602
v -0.01096421 -0.00298151 -0.00710789
v -0.01116089 -0.00296353 -0.00706499
v -0.01096421 -0.00316908 -0.00702627
v -0.01096421 -0.00375630 -0.00673018
v -0.01116088 -0.00112504 -0.00757836
v -0.01096421 -0.00137637 -0.00758401
v -0.01116089 -0.00206033 -0.00737916
v -0.01096421 -0.00192919 -0.00746256
v -0.01096421 -0.00255845 -0.00727090
v -0.01096421 -0.00002766 -0.00770784
v -0.01096421 -0.00017327 -0.00770595
v -0.01116088 -0.00017222 -0.00765950
v -0.01096421 -0.00063320 -0.00768184
v -0.01096421 -0.00128588 -0.00759988
v -0.01096423 0.00173706 -0.00750961
v -0.01096423 0.00133336 -0.00759169
v -0.01116086 0.00172660 -0.00746439
v -0.01096423 0.00132190 -0.00759370
v -0.01116086 0.00078329 -0.00762131
v -0.01096423 0.00068121 -0.00767773
v -0.01096421 0.00002409 -0.00770786
v -0.01116086 0.00264302 -0.00719118
v -0.01096423 0.00260386 -0.00725476
v -0.01096423 0.00197581 -0.00745036
v -0.01096423 0.00379863 -0.00670687
v -0.01096423 0.00353955 -0.00684714
v -0.01116085 0.00351825 -0.00680593
v -0.01096423 0.00321295 -0.00700633
v -0.01096423 0.00263064 -0.00724510
v -0.01096423 0.00512233 -0.00575964
v -0.01096423 0.00496657 -0.00589448
v -0.01116085 0.00509152 -0.00572500
v -0.01096423 0.00488295 -0.00596394
v -0.01116085 0.00433868 -0.00631465
v -0.01096423 0.00435666 -0.00635856
v -0.01096423 0.00385817 -0.00667280
v -0.01096423 0.00537368 -0.00552589
v -0.01096424 0.00623443 -0.00453252
v -0.01116083 0.00634874 -0.00428869
v -0.01096424 0.00638716 -0.00431464
v -0.01116083 0.00683354 -0.00346442
v -0.01096424 0.00669387 -0.00382152
v -0.01096424 0.00659819 -0.00398444
v -0.01096424 0.00725943 -0.00259088
v -0.01096424 0.00725552 -0.00260181
v -0.01116083 0.00721188 -0.00258617
v -0.01096424 0.00717924 -0.00280543
v -0.01096424 0.00691389 -0.00340735
v -0.01116083 0.00747786 -0.00166764
v -0.01096424 0.00755152 -0.00154484
v -0.01096424 0.00739230 -0.00218309
v -0.01096425 0.00770437 0.00023406
v -0.01096425 0.00770760 0.00006992
v -0.01116085 0.00765801 0.00023266
v -0.01096424 0.00770420 -0.00023933
v -0.01116083 0.00762735 -0.00072312
v -0.01096424 0.00765574 -0.00089535
v -0.01096424 0.00760085 -0.00128024
v -0.01096425 0.00769656 0.00041843
v -0.01096425 0.00751356 0.00172004
v -0.01116085 0.00736280 0.00211851
v -0.01096425 0.00740740 0.00213134
v -0.01116085 0.00704153 0.00301920
v -0.01096425 0.00721124 0.00272215
v -0.01096425 0.00733954 0.00235441
v -0.01096425 0.00662345 0.00394234
v -0.01096425 0.00665062 0.00389633
v -0.01116086 0.00661055 0.00387285
v -0.01096425 0.00683280 0.00356722
v -0.01096425 0.00711207 0.00297164
v -0.01096425 0.00650376 0.00413681
v -0.01126074 0.00500608 0.00571854
v -0.01116088 0.00504644 0.00576466
v -0.01116086 0.00544797 0.00538678
v -0.01112808 0.00505550 0.00577502
v -0.01096427 0.00570633 0.00518170
v -0.01096427 0.00524374 0.00564937
v -0.01096424 0.00507659 0.00579912
v -0.01134675 0.00534261 0.00528260
v -0.01134465 0.00495065 0.00565520
v -0.01143410 0.00483264 0.00552038
v -0.01136872 0.00492859 0.00563001
v -0.01143410 0.00501355 0.00535659
v -0.01143415 0.00529446 0.00507888
v -0.01143433 0.00571584 0.00459848
v -0.01134675 0.00595908 0.00457592
v -0.01143468 0.00615601 0.00398751
v -0.01143462 0.00609334 0.00408309
v -0.01143445 0.00589873 0.00436062
v -0.01143445 0.00659020 0.00322173
v -0.01134674 0.00690535 0.00296081
v -0.01143433 0.00674615 0.00288197
v -0.01143415 0.00696624 0.00230174
v -0.01134674 0.00722041 0.00207754
v -0.01143407 0.00706558 0.00197692
v -0.01143467 0.00733471 -0.00001790
v -0.01143449 0.00731593 0.00053391
v -0.01134672 0.00750991 0.00022816
v -0.01143443 0.00730530 0.00066617
v -0.01134674 0.00742298 0.00116190
v -0.01143424 0.00724564 0.00115006
v -0.01143407 0.00713085 0.00172658
v -0.01143471 0.00730947 -0.00060597
v -0.01134672 0.00747984 -0.00070914
v -0.01143471 0.00730426 -0.00066611
v -0.01143461 0.00723864 -0.00118468
v -0.01134672 0.00733325 -0.00163539
v -0.01143451 0.00711451 -0.00178639
v -0.01134672 0.00707241 -0.00253616
v -0.01134672 0.00670139 -0.00339742
v -0.01143442 0.00659031 -0.00322183
v -0.01143440 0.00675648 -0.00285713
v -0.01143443 0.00695384 -0.00233573
v -0.01143448 0.00706415 -0.00197657
v -0.01143473 0.00585359 -0.00441933
v -0.01143473 0.00589790 -0.00436005
v -0.01134672 0.00622596 -0.00420575
v -0.01143462 0.00620193 -0.00391624
v -0.01143445 0.00648854 -0.00342191
v -0.01143465 0.00544254 -0.00491709
v -0.01134672 0.00565355 -0.00494856
v -0.01143443 0.00502976 -0.00533973
v -0.01134674 0.00499306 -0.00561428
v -0.01143442 0.00501274 -0.00535576
v -0.01134674 0.00425478 -0.00619253
v -0.01143407 0.00396200 -0.00617522
v -0.01143407 0.00405856 -0.00611218
v -0.01143421 0.00456478 -0.00574338
v -0.01143439 0.00277924 -0.00678894
v -0.01134674 0.00259190 -0.00705210
v -0.01143443 0.00241440 -0.00692689
v -0.01134675 0.00169322 -0.00732003
v -0.01143446 0.00179806 -0.00711176
v -0.01143424 0.00052881 -0.00731725
v -0.01143439 0.00116793 -0.00724221
v -0.01143443 0.00150538 -0.00717949
v -0.01234898 -0.00000000 -0.00392253
v -0.01174639 -0.00003835 -0.00617128
v -0.01174622 0.00000000 -0.00617199
v -0.01143401 -0.00421167 0.00600797
v -0.01143398 -0.00396220 0.00617548
v -0.01299990 -0.00080692 0.00125634
v -0.01227086 -0.00069081 0.00415695
v -0.01231130 -0.00049443 0.00403283
v -0.01299791 -0.00030796 0.00146869
v -0.01232059 -0.00043368 0.00400499
v -0.01234896 0.00000000 0.00392253
v -0.01299759 -0.00000000 0.00150176
v -0.01234884 -0.00002950 0.00392286
v -0.01299786 -0.00028361 0.00147377
v -0.01234769 -0.00009686 0.00392603
v -0.01233895 -0.00026555 0.00395095
v -0.01198492 -0.00111871 0.00516128
v -0.01201781 -0.00112320 0.00503460
v -0.01143416 -0.00277955 0.00678965
v -0.01207524 -0.00109775 0.00482061
v -0.01208543 -0.00108912 0.00478359
v -0.01215645 -0.00099628 0.00453274
v -0.01175217 -0.00024393 0.00614490
v -0.01177012 -0.00047884 0.00606388
v -0.01143409 -0.00085467 0.00728690
v -0.01143403 -0.00147820 0.00718664
v -0.01179753 -0.00067924 0.00594176
v -0.01143403 -0.00150569 0.00718094
v -0.01180377 -0.00071369 0.00591430
v -0.01184582 -0.00089212 0.00573121
v -0.01189507 -0.00101981 0.00552309
v -0.01143413 -0.00258382 0.00686663
v -0.01143397 -0.00202358 0.00705272
v -0.01195390 -0.00110006 0.00528359
v -0.01190297 -0.00103448 0.00549034
v -0.01143407 -0.00021146 0.00733384
v -0.01143406 -0.00000000 0.00733700
v -0.01174621 -0.00000000 0.00617199
v -0.01143398 -0.00371204 0.00632898
v -0.01143412 -0.00317785 0.00661282
v -0.01299867 -0.00056746 0.00138612
v -0.01299862 -0.00055627 0.00139082
v -0.01221884 -0.00086111 0.00432320
v -0.01143406 -0.00468298 0.00564806
v -0.01300098 -0.00101765 0.00108719
v -0.01143409 -0.00501359 0.00535663
v -0.01143410 -0.00514751 0.00522801
v -0.01300089 -0.00104723 0.00105920
v -0.01143413 -0.00558373 0.00475915
v -0.01300004 -0.00120033 0.00088731
v -0.01143406 -0.00589990 0.00436148
v -0.01143403 -0.00595993 0.00427928
v -0.01299986 -0.00122283 0.00085715
v -0.01143369 -0.00629375 0.00377362
v -0.01299876 -0.00134533 0.00065768
v -0.01143413 -0.00658642 0.00323213
v -0.01143412 -0.00682452 0.00269336
v -0.01299855 -0.00136619 0.00061507
v -0.01143401 -0.00702159 0.00212865
v -0.01299774 -0.00144570 0.00040450
v -0.01143400 -0.00706586 0.00197700
v -0.01204520 -0.00493588 0.00109644
v -0.01201239 -0.00505959 0.00110393
v -0.01221111 -0.00435003 0.00087408
v -0.01214897 -0.00456114 0.00099723
v -0.01213516 -0.00460946 0.00101751
v -0.01208306 -0.00479608 0.00107409
v -0.01195704 -0.00527407 0.00108819
v -0.01194427 -0.00532477 0.00107836
v -0.01188848 -0.00555170 0.00099994
v -0.01178118 -0.00601596 0.00055477
v -0.01143391 -0.00730722 0.00066634
v -0.01180781 -0.00589691 0.00073162
v -0.01143392 -0.00726260 0.00104569
v -0.01184138 -0.00575080 0.00087411
v -0.01143395 -0.00716037 0.00160190
v -0.01176849 -0.00607391 0.00042671
v -0.01176124 -0.00610731 0.00032440
v -0.01143391 -0.00732252 0.00046963
v -0.01175218 -0.00614906 0.00009253
v -0.01143389 -0.00733663 -0.00011898
v -0.01175165 -0.00615145 0.00006231
v -0.01175349 -0.00614159 -0.00019953
v -0.01143389 -0.00730726 -0.00066639
v -0.01175560 -0.00613164 -0.00025623
v -0.01176713 -0.00607826 -0.00043699
v -0.01177895 -0.00602468 -0.00055128
v -0.01143389 -0.00730278 -0.00071389
v -0.01178930 -0.00597833 -0.00062782
v -0.01184500 -0.00573509 -0.00088740
v -0.01143392 -0.00706610 -0.00197711
v -0.01180377 -0.00591430 -0.00071369
v -0.01143392 -0.00708712 -0.00190043
v -0.01143391 -0.00721976 -0.00130947
v -0.01208367 -0.00479080 -0.00108701
v -0.01214693 -0.00456595 -0.00101102
v -0.01299922 -0.00144042 -0.00040304
v -0.01189373 -0.00552977 -0.00101130
v -0.01190362 -0.00548897 -0.00102893
v -0.01195041 -0.00529959 -0.00108702
v -0.01198570 -0.00516046 -0.00110880
v -0.01201529 -0.00504613 -0.00111476
v -0.01207537 -0.00482114 -0.00109338
v -0.01143394 -0.00690499 -0.00248173
v -0.01299943 -0.00142684 -0.00044613
v -0.01143397 -0.00667406 -0.00304854
v -0.01300068 -0.00133885 -0.00065454
v -0.01300060 -0.00119861 -0.00088609
v -0.01143404 -0.00589994 -0.00436156
v -0.01300069 -0.00121233 -0.00086670
v -0.01143403 -0.00607088 -0.00412042
v -0.01300090 -0.00132242 -0.00068532
v -0.01143400 -0.00639548 -0.00359624
v -0.01143397 -0.00659177 -0.00322254
v -0.01299941 -0.00102161 -0.00109154
v -0.01143410 -0.00529229 -0.00508146
v -0.01143406 -0.00570229 -0.00461687
v -0.01299822 -0.00081287 -0.00126007
v -0.01299940 -0.00101896 -0.00109410
v -0.01143412 -0.00501351 -0.00535658
v -0.01299820 -0.00080977 -0.00126213
v -0.01213537 -0.00102483 -0.00460706
v -0.01207673 -0.00109023 -0.00481671
v -0.01214693 -0.00100734 -0.00456674
v -0.01220892 -0.00088238 -0.00435672
v -0.01204483 -0.00110950 -0.00493437
v -0.01200950 -0.00111669 -0.00506789
v -0.01194655 -0.00108773 -0.00531417
v -0.01189008 -0.00100401 -0.00554494
v -0.01196622 -0.00110321 -0.00523600
v -0.01195660 -0.00109644 -0.00527409
v -0.01184134 -0.00087093 -0.00575145
v -0.01180064 -0.00068861 -0.00592906
v -0.01177327 -0.00049944 -0.00605051
v -0.01176598 -0.00043040 -0.00608307
v -0.01175364 -0.00026762 -0.00613849
v -0.01174718 -0.00009573 -0.00616773
v -0.01234000 -0.00024183 -0.00394858
v -0.01231350 -0.00047264 -0.00402730
v -0.01227413 -0.00067217 -0.00414771
v -0.01226389 -0.00071259 -0.00417973
v -0.01231808 -0.00401470 -0.00043079
v -0.01233015 -0.00397977 -0.00032097
v -0.01299832 -0.00148960 -0.00016854
v -0.01220808 -0.00435923 -0.00088574
v -0.01226435 -0.00417805 -0.00071206
v -0.01230183 -0.00406288 -0.00053864
v -0.01234363 -0.00394131 -0.00009471
v -0.01234425 -0.00393945 -0.00007137
v -0.01299774 -0.00149782 0.00010167
v -0.01234068 -0.00394913 0.00018522
v -0.01299770 -0.00149522 0.00013634
v -0.01233616 -0.00396208 0.00025582
v -0.01231853 -0.00401331 0.00042839
v -0.01299765 -0.00145695 0.00036324
v -0.01228511 -0.00411382 0.00062377
v -0.01226389 -0.00417974 0.00071259
v -0.01226389 0.00417974 -0.00071259
v -0.01228511 0.00411382 -0.00062377
v 0.00000000 0.00437423 -0.00074194
v 0.00000000 0.00427703 -0.00061111
v -0.01180377 0.00591430 0.00071369
v 0.00000000 0.00609995 0.00074194
v -0.01184500 0.00573509 0.00088740
v 0.00000000 0.00594508 0.00089100
v -0.01189373 0.00552977 0.00101130
v -0.01190361 0.00548897 0.00102893
v 0.00000000 0.00566333 0.00105516
v -0.01195041 0.00529959 0.00108702
v 0.00000000 0.00532975 0.00113405
v -0.01198570 0.00516046 0.00110880
v -0.01201529 0.00504613 0.00111476
v 0.00000000 0.00498561 0.00110985
v -0.01207537 0.00482114 0.00109338
v -0.01208367 0.00479080 0.00108701
v 0.00000000 0.00465281 0.00097609
v -0.01214692 0.00456595 0.00101102
v 0.00000000 0.00450003 0.00086704
v -0.01220808 0.00435923 0.00088574
v 0.00000000 0.00436773 0.00073375
v -0.01226435 0.00417805 0.00071206
v -0.01230183 0.00406288 0.00053864
v 0.00000000 0.00417837 0.00041729
v -0.01231808 0.00401470 0.00043079
v -0.01233015 0.00397977 0.00032097
v 0.00000000 0.00410173 0.00007504
v -0.01234363 0.00394131 0.00009471
v -0.01231853 0.00401331 -0.00042839
v -0.01233616 0.00396208 -0.00025582
v 0.00000000 0.00413521 -0.00028446
v -0.01234068 0.00394913 -0.00018522
v -0.01234425 0.00393945 0.00007137
v -0.01234886 0.00002950 -0.00392286
v 0.00000000 0.00007503 -0.00410173
v 0.00000000 -0.00028447 -0.00413521
v 0.00000000 -0.00061111 -0.00427703
v 0.00000000 -0.00074194 -0.00437423
v 0.00000000 0.00089100 -0.00594508
v -0.01184584 0.00089212 -0.00573121
v 0.00000000 0.00074194 -0.00609995
v -0.01180377 0.00071369 -0.00591430
v 0.00000000 0.00113405 -0.00532975
v -0.01195392 0.00110006 -0.00528359
v 0.00000000 0.00105516 -0.00566333
v -0.01190298 0.00103448 -0.00549034
v -0.01189509 0.00101981 -0.00552309
v 0.00000000 0.00110985 -0.00498561
v -0.01201783 0.00112320 -0.00503460
v -0.01198492 0.00111871 -0.00516128
v 0.00000000 0.00073375 -0.00436773
v -0.01221886 0.00086111 -0.00432320
v 0.00000000 0.00086704 -0.00450003
v -0.01215647 0.00099628 -0.00453274
v 0.00000000 0.00097608 -0.00465281
v -0.01208545 0.00108912 -0.00478359
v -0.01207526 0.00109775 -0.00482061
v 0.00000000 0.00041728 -0.00417837
v -0.01231132 0.00049443 -0.00403283
v -0.01227088 0.00069081 -0.00415695
v -0.01234771 0.00009686 -0.00392603
v -0.01233896 0.00026555 -0.00395095
v -0.01232060 0.00043368 -0.00400499
v 0.00000000 -0.00437423 0.00074194
v 0.00000000 -0.00427703 0.00061111
v 0.00000000 -0.00609995 -0.00074194
v 0.00000000 -0.00594508 -0.00089100
v 0.00000000 -0.00566333 -0.00105516
v 0.00000000 -0.00532975 -0.00113405
v 0.00000000 -0.00498561 -0.00110985
v 0.00000000 -0.00465281 -0.00097609
v 0.00000000 -0.00450003 -0.00086704
v 0.00000000 -0.00436773 -0.00073375
v 0.00000000 -0.00417837 -0.00041729
v 0.00000000 -0.00410173 -0.00007504
v 0.00000000 -0.00413521 0.00028446
v 0.00000000 -0.00007503 0.00410173
v 0.00000000 0.00028447 0.00413521
v -0.01233999 0.00024183 0.00394858
v 0.00000000 0.00061111 0.00427703
v -0.01231348 0.00047264 0.00402730
v -0.01227411 0.00067217 0.00414771
v 0.00000000 0.00074194 0.00437423
v -0.01226387 0.00071259 0.00417974
v 0.00000000 -0.00089100 0.00594508
v 0.00000000 -0.00074194 0.00609995
v 0.00000000 -0.00113405 0.00532975
v 0.00000000 -0.00105516 0.00566333
v 0.00000000 -0.00110985 0.00498561
v 0.00000000 -0.00073375 0.00436773
v 0.00000000 -0.00086704 0.00450003
v 0.00000000 -0.00097608 0.00465281
v 0.00000000 -0.00041728 0.00417837
v 0.00000000 0.00000000 0.00125000
v -0.01280441 0.00000000 0.00125000
v -0.01280443 0.00006184 0.00124844
v 0.00000000 0.00000000 -0.00125000
v 0.00000000 0.00033930 -0.00120307
v 0.00000000 0.00081181 -0.00095051
v 0.00000000 0.00113518 -0.00052332
v 0.00000000 0.00125000 0.00000000
v 0.00000000 0.00113518 0.00052332
v 0.00000000 0.00081181 0.00095051
v 0.00000000 0.00033930 0.00120307
v -0.01280443 0.00039142 0.00118709
v 0.00000000 0.00035162 0.00119953
v -0.00000001 -0.00503837 -0.00620470
v 0.00000000 -0.00402956 -0.00690205
v -0.00547814 -0.00389637 -0.00681522
v -0.00000001 -0.00604662 -0.00522703
v -0.01096430 -0.00583115 -0.00504076
v -0.01096430 -0.00570631 -0.00518166
v -0.01096430 -0.00524372 -0.00564933
v -0.01096428 -0.00665023 -0.00389693
v -0.01096428 -0.00662343 -0.00394230
v -0.00000001 -0.00686818 -0.00408798
v -0.01096428 -0.00650374 -0.00413678
v -0.01096428 -0.00612734 -0.00467625
v -0.01096427 -0.00733952 -0.00235437
v -0.01096427 -0.00721122 -0.00272212
v -0.00000001 -0.00747769 -0.00282271
v -0.01096427 -0.00711205 -0.00297160
v -0.01096428 -0.00683278 -0.00356718
v -0.00000001 -0.00785632 -0.00147028
v -0.01096425 -0.00757636 -0.00141789
v -0.01096427 -0.00751354 -0.00172000
v -0.01096427 -0.00740721 -0.00213187
v -0.01096425 -0.00770758 -0.00006988
v -0.01096425 -0.00770433 -0.00023447
v -0.00000001 -0.00799239 -0.00007247
v -0.01096425 -0.00769654 -0.00041839
v -0.01096425 -0.00763283 -0.00107311
v -0.00000001 -0.00788170 0.00132759
v -0.01096424 -0.00760083 0.00128028
v -0.01096424 -0.00765572 0.00089539
v -0.01096424 -0.00770418 0.00023937
v -0.01096423 -0.00725557 0.00260164
v -0.01096423 -0.00725941 0.00259092
v -0.00000001 -0.00752766 0.00268665
v -0.01096423 -0.00739228 0.00218313
v -0.01096424 -0.00755150 0.00154488
v -0.01096421 -0.00659817 0.00398448
v -0.01096421 -0.00669385 0.00382156
v -0.00000001 -0.00694120 0.00396277
v -0.01096423 -0.00691387 0.00340738
v -0.01096423 -0.00717922 0.00280547
v -0.00000001 -0.00614043 0.00511654
v -0.01096421 -0.00592162 0.00493421
v -0.01096421 -0.00623441 0.00453256
v -0.01096421 -0.00638718 0.00431461
v -0.01096420 -0.00496655 0.00589452
v -0.01096420 -0.00512226 0.00575973
v -0.00000001 -0.00515007 0.00611233
v -0.01096420 -0.00537366 0.00552592
v -0.01096421 -0.00582525 0.00504762
v -0.01096418 -0.00379861 0.00670691
v -0.01096418 -0.00385815 0.00667284
v -0.00000001 -0.00400071 0.00691941
v -0.01096420 -0.00435664 0.00635860
v -0.01096420 -0.00488293 0.00596398
v -0.00000001 -0.00272783 0.00751285
v -0.01096418 -0.00263062 0.00724513
v -0.01096418 -0.00321293 0.00700637
v -0.01096418 -0.00353934 0.00684727
v -0.01096415 -0.00068119 0.00767777
v -0.01096417 -0.00132188 0.00759374
v -0.00000001 -0.00137072 0.00787434
v -0.01096417 -0.00133334 0.00759173
v -0.01096417 -0.00173669 0.00750973
v -0.01096417 -0.00197578 0.00745040
v -0.01096418 -0.00260384 0.00725480
v -0.01096415 0.00063322 0.00768188
v -0.00000001 0.00002871 0.00799270
v -0.01096414 0.00128590 0.00759992
v -0.00000001 0.00142725 0.00786429
v -0.01096414 0.00137639 0.00758405
v -0.01096414 0.00192921 0.00746260
v -0.01096415 0.00017378 0.00770597
v -0.01096415 0.00002768 0.00770788
v -0.01096415 -0.00002407 0.00770789
v -0.01096414 0.00255847 0.00727093
v -0.00000001 0.00278172 0.00749307
v -0.01096414 0.00268260 0.00722606
v -0.00547869 0.00389637 0.00681525
v -0.01096412 0.00375642 0.00673041
v -0.01096412 0.00316910 0.00702631
v 0.00000000 0.00402969 0.00690228
v -0.01096414 0.00298217 0.00710767
v -0.01096424 0.00485885 0.00598363
v -0.00000001 0.00503839 0.00620474
v -0.01096421 0.00456417 0.00621133
v -0.01096415 0.00401795 0.00657787
v -0.00000001 0.00604664 0.00522707
v -0.00000001 0.00686820 0.00408801
v -0.00000001 0.00747771 0.00282274
v -0.00000001 0.00785635 0.00147032
v -0.00000001 0.00799242 0.00007250
v -0.00000001 0.00790229 0.00119907
v -0.00000001 0.00788172 -0.00132755
v -0.00000001 0.00752768 -0.00268662
v -0.00000001 0.00694122 -0.00396274
v -0.00000001 0.00614045 -0.00511650
v -0.00000001 0.00515010 -0.00611230
v -0.00000001 0.00400073 -0.00691937
v -0.00000001 0.00272785 -0.00751282
v -0.00000001 0.00137074 -0.00787430
v -0.00000001 -0.00002869 -0.00799266
v -0.00000001 -0.00142723 -0.00786425
v -0.00000001 -0.00119875 -0.00790231
v -0.00000001 -0.00278170 -0.00749303
v -0.01280443 -0.00027219 0.00121998
v 0.00000000 -0.00033930 0.00120307
v -0.01280443 -0.00033929 0.00120305
v 0.00000000 -0.00033930 -0.00120307
v 0.00000000 -0.00081181 0.00095051
v -0.01280443 -0.00081179 0.00095048
v -0.01280443 -0.00058664 0.00110376
v -0.01280443 -0.00120289 0.00033971
v -0.01280443 -0.00113513 0.00052330
v 0.00000000 -0.00113518 0.00052332
v -0.01280443 -0.00106935 0.00064721
v -0.01280443 -0.00085889 0.00090815
v -0.01280443 -0.00124990 0.00000778
v 0.00000000 -0.00125000 0.00000000
v -0.01280443 -0.00120699 -0.00032470
v 0.00000000 -0.00122535 -0.00024701
v -0.01280443 -0.00113508 -0.00052328
v 0.00000000 -0.00113518 -0.00052332
v -0.01280443 -0.00107726 -0.00063382
v 0.00000000 -0.00081181 -0.00095051
v -0.01280443 -0.00087003 -0.00089734
v -0.01280443 -0.00060021 -0.00109630
v -0.01280443 -0.00081173 -0.00095040
v -0.01174637 0.00003835 0.00617128
v -0.01174716 0.00009573 0.00616773
v 0.00000000 0.00007510 0.00637244
v -0.01220890 0.00088238 0.00435672
v 0.00000000 0.00089100 0.00452909
v -0.01214693 0.00100734 0.00456674
v 0.00000000 0.00105516 0.00481083
v -0.01200948 0.00111669 0.00506789
v -0.01204483 0.00110950 0.00493438
v 0.00000000 0.00113404 0.00514440
v -0.01207672 0.00109023 0.00481671
v -0.01213537 0.00102483 0.00460706
v -0.01189008 0.00100401 0.00554494
v -0.01194654 0.00108773 0.00531417
v 0.00000000 0.00110986 0.00548853
v -0.01195660 0.00109644 0.00527409
v -0.01196621 0.00110322 0.00523597
v 0.00000000 0.00097611 0.00582132
v 0.00000000 0.00086707 0.00597410
v -0.01184132 0.00087093 0.00575145
v 0.00000000 0.00073380 0.00610641
v -0.01180063 0.00068861 0.00592906
v 0.00000000 0.00041734 0.00629578
v -0.01175363 0.00026762 0.00613849
v -0.01176597 0.00043040 0.00608307
v -0.01177325 0.00049944 0.00605051
v 0.00000000 -0.00028440 0.00633898
v 0.00000000 -0.00061104 0.00619719
v 0.00000000 -0.00452909 0.00089100
v 0.00000000 -0.00481083 0.00105516
v 0.00000000 -0.00514440 0.00113404
v 0.00000000 -0.00548853 0.00110986
v 0.00000000 -0.00582132 0.00097611
v 0.00000000 -0.00597410 0.00086707
v 0.00000000 -0.00610641 0.00073380
v 0.00000000 -0.00629578 0.00041734
v 0.00000000 -0.00637244 0.00007510
v 0.00000000 -0.00633898 -0.00028440
v 0.00000000 -0.00619719 -0.00061104
v 0.00000000 -0.00007510 -0.00637244
v 0.00000000 -0.00089100 -0.00452909
v 0.00000000 -0.00105516 -0.00481083
v 0.00000000 -0.00113404 -0.00514440
v 0.00000000 -0.00110986 -0.00548853
v 0.00000000 -0.00097611 -0.00582132
v 0.00000000 -0.00086707 -0.00597410
v 0.00000000 -0.00073380 -0.00610641
v 0.00000000 -0.00041734 -0.00629578
v 0.00000000 0.00028440 -0.00633898
v -0.01175218 0.00024393 -0.00614490
v 0.00000000 0.00061104 -0.00619719
v -0.01177014 0.00047884 -0.00606388
v -0.01179754 0.00067924 -0.00594176
v -0.01221111 0.00435003 -0.00087408
v 0.00000000 0.00452909 -0.00089100
v -0.01214897 0.00456114 -0.00099723
v 0.00000000 0.00481083 -0.00105516
v -0.01213516 0.00460946 -0.00101751
v -0.01208306 0.00479608 -0.00107409
v 0.00000000 0.00514440 -0.00113404
v -0.01204520 0.00493588 -0.00109644
v -0.01188848 0.00555170 -0.00099994
v -0.01194427 0.00532477 -0.00107836
v 0.00000000 0.00548853 -0.00110986
v -0.01195706 0.00527407 -0.00108819
v -0.01201239 0.00505959 -0.00110393
v -0.01178118 0.00601596 -0.00055477
v -0.01180781 0.00589691 -0.00073162
v 0.00000000 0.00610641 -0.00073380
v -0.01184138 0.00575080 -0.00087411
v 0.00000000 0.00597410 -0.00086707
v 0.00000000 0.00582132 -0.00097611
v 0.00000000 0.00629578 -0.00041734
v -0.01176849 0.00607391 -0.00042671
v -0.01178053 0.00601897 -0.00054908
v -0.01175349 0.00614159 0.00019953
v -0.01175165 0.00615145 -0.00006231
v 0.00000000 0.00637244 -0.00007510
v -0.01175218 0.00614906 -0.00009253
v -0.01176124 0.00610731 -0.00032440
v -0.01175560 0.00613164 0.00025623
v 0.00000000 0.00633898 0.00028440
v -0.01176713 0.00607826 0.00043699
v 0.00000000 0.00619719 0.00061104
v -0.01177895 0.00602470 0.00055124
v -0.01178930 0.00597833 0.00062782
v 0.00000000 -0.00119716 0.00119716
v -0.01299759 0.00003724 0.00150130
v -0.01143407 0.00455165 0.00575441
v -0.01143404 0.00277972 0.00679007
v -0.01143401 0.00306087 0.00666818
v -0.01143400 0.00357264 0.00640862
v -0.01143401 0.00396212 0.00617535
v -0.01143403 0.00407705 0.00610006
v -0.01299759 0.00030819 0.00146980
v -0.01299759 0.00056897 0.00138981
v -0.01143410 0.00251089 0.00689377
v -0.01143415 0.00150560 0.00718049
v -0.01143418 0.00189617 0.00708726
v -0.01143410 0.00127283 0.00722555
v -0.01143403 0.00063879 0.00730922
v -0.01134464 0.00374870 0.00651443
v -0.01134464 -0.00742556 -0.00116278
v -0.01115942 -0.00544783 -0.00538786
v -0.01115940 -0.00756992 -0.00118539
v -0.01115939 -0.00576552 0.00504663
v -0.01115940 0.00382159 0.00664108
v -0.01115942 0.00461917 0.00611323
v -0.01115940 0.00296447 0.00706545
v -0.01115940 0.00112572 0.00757904
v -0.01115940 0.00206115 0.00737974
v -0.01115939 0.00017274 0.00766025
v -0.01115939 -0.00172640 0.00746519
v -0.01115939 -0.00078293 0.00762210
v -0.01115939 -0.00264297 0.00719196
v -0.01115939 -0.00351836 0.00680667
v -0.01115939 -0.00509189 0.00572559
v -0.01115939 -0.00433893 0.00631533
v -0.01115939 -0.00634932 0.00428904
v -0.01115939 -0.00683418 0.00346462
v -0.01115939 -0.00721256 0.00258622
v -0.01115939 -0.00747855 0.00166753
v -0.01115940 -0.00765864 -0.00023309
v -0.01115940 -0.00762802 0.00072285
v -0.01115940 -0.00736326 -0.00211923
v -0.01115942 -0.00704186 -0.00302004
v -0.01115942 -0.00661075 -0.00387379
v -0.01115942 -0.00607663 -0.00466719
v -0.01134465 -0.00534393 -0.00528510
v -0.01134465 -0.00596074 -0.00457817
v -0.01134465 -0.00648467 -0.00379991
v -0.01134464 -0.00690757 -0.00296244
v -0.01134464 -0.00722283 -0.00207881
v -0.01134464 -0.00751258 -0.00022864
v -0.01134462 -0.00748255 0.00070907
v -0.01134462 -0.00733593 0.00163573
v -0.01134462 -0.00670384 0.00339855
v -0.01134462 -0.00707500 0.00253690
v -0.01134462 -0.00622823 0.00420724
v -0.01134462 -0.00565557 0.00495039
v -0.01134462 -0.00499479 0.00561639
v -0.01134462 -0.00345126 0.00667686
v -0.01134462 -0.00425618 0.00619489
v -0.01134462 -0.00259256 0.00705480
v -0.01134462 -0.00169347 0.00732282
v -0.01134462 0.00016944 0.00751416
v -0.01134462 -0.00076800 0.00747674
v -0.01134462 0.00110424 0.00743450
v -0.01134464 0.00202184 0.00723900
v -0.01134464 0.00290793 0.00693071
v -0.01134464 0.00453107 0.00599664
v -0.01300236 -0.00098928 -0.00102034
v -0.01288349 -0.00060804 -0.00111059
v -0.01288349 -0.00088137 -0.00090904
v -0.01288349 -0.00109130 -0.00064208
v -0.01288349 -0.00122273 -0.00032893
v -0.01288349 -0.00126619 0.00000788
v -0.01288349 -0.00121857 0.00034414
v -0.01288349 -0.00087008 0.00091999
v -0.01288349 -0.00108329 0.00065564
v -0.01288349 -0.00059428 0.00111815
v -0.01288349 -0.00027574 0.00123588
v -0.01288349 0.00006265 0.00126471
v -0.01288349 0.00039652 0.00120257
v -0.01300235 0.00044508 0.00134980
v -0.01300235 -0.00030949 0.00138719
v -0.01300235 0.00007032 0.00141955
v -0.01300235 -0.00066704 0.00125504
v -0.01300235 -0.00097661 0.00103262
v -0.01300235 -0.00121592 0.00073591
v -0.01300235 -0.00142122 0.00000884
v -0.01300235 -0.00136777 0.00038627
v -0.01300236 -0.00137243 -0.00036921
v -0.01300236 -0.00122491 -0.00072070
v -0.01300236 -0.00068248 -0.00124657
v -0.01296314 0.00041595 0.00126146
v -0.01296314 0.00006572 0.00132665
v -0.01296314 -0.00028924 0.00129641
v -0.01296314 -0.00062339 0.00117291
v -0.01296314 -0.00091270 0.00096504
v -0.01296314 -0.00113635 0.00068775
v -0.01296314 -0.00127825 0.00036099
v -0.01296314 -0.00132821 0.00000827
v -0.01296314 -0.00128261 -0.00034505
v -0.01296314 -0.00114475 -0.00067353
v -0.01296314 -0.00092454 -0.00095356
v -0.01296314 -0.00063782 -0.00116499
f 1 2 3
f 4 5 6
f 4 6 7
f 5 4 8
f 8 4 9
f 8 9 10
f 10 9 11
f 11 9 12
f 11 12 13
f 14 15 16
f 16 15 17
f 16 17 12
f 12 17 18
f 12 18 13
f 19 20 21
f 19 21 22
f 21 23 22
f 22 23 24
f 22 24 16
f 16 24 25
f 16 25 14
f 26 27 19
f 19 27 28
f 19 28 20
f 29 30 31
f 31 30 32
f 31 32 26
f 26 32 33
f 26 33 27
f 3 2 31
f 31 2 34
f 31 34 29
f 1 3 35
f 35 3 36
f 35 36 37
f 38 39 40
f 41 39 42
f 42 39 38
f 42 38 43
f 43 38 44
f 43 44 45
f 45 44 46
f 47 48 46
f 46 48 49
f 46 49 45
f 46 50 47
f 47 50 51
f 47 51 52
f 52 51 53
f 54 55 56
f 56 55 57
f 56 57 58
f 58 57 59
f 58 59 53
f 53 59 60
f 53 60 52
f 54 56 61
f 61 56 62
f 61 62 63
f 63 62 64
f 63 64 65
f 65 64 66
f 66 64 67
f 66 67 68
f 68 67 69
f 68 69 70
f 71 72 73
f 73 72 74
f 73 74 75
f 6 76 7
f 7 76 77
f 7 77 72
f 72 77 78
f 72 78 74
f 79 70 80
f 80 70 69
f 80 69 81
f 81 69 67
f 81 67 82
f 82 67 64
f 82 64 83
f 83 64 62
f 83 62 84
f 84 62 56
f 84 56 85
f 85 56 58
f 85 58 86
f 86 58 53
f 86 53 87
f 87 53 51
f 87 51 88
f 88 51 50
f 88 50 89
f 89 50 46
f 89 46 90
f 90 46 44
f 90 44 91
f 91 44 38
f 91 38 92
f 92 38 40
f 92 40 93
f 94 37 93
f 93 37 36
f 93 36 92
f 92 36 3
f 92 3 91
f 91 3 31
f 91 31 90
f 90 31 26
f 90 26 89
f 89 26 19
f 89 19 88
f 88 19 22
f 88 22 87
f 87 22 16
f 87 16 86
f 86 16 12
f 86 12 85
f 85 12 9
f 85 9 84
f 84 9 4
f 84 4 83
f 83 4 7
f 83 7 82
f 82 7 72
f 82 72 81
f 81 72 71
f 81 71 80
f 95 96 97
f 98 99 100
f 101 102 103
f 104 105 106
f 107 108 109
f 110 111 112
f 113 114 115
f 115 114 116
f 115 116 117
f 117 116 118
f 117 118 119
f 113 115 120
f 120 115 121
f 120 121 122
f 122 121 123
f 122 123 124
f 112 111 123
f 123 111 125
f 123 125 124
f 126 127 128
f 110 112 129
f 129 112 126
f 129 126 130
f 130 126 128
f 130 128 131
f 132 133 134
f 134 133 135
f 136 132 137
f 137 132 134
f 137 134 138
f 138 134 139
f 138 139 140
f 141 142 143
f 143 142 144
f 143 144 139
f 139 144 145
f 139 145 140
f 146 147 148
f 148 147 149
f 148 149 143
f 143 149 150
f 143 150 141
f 151 152 153
f 153 152 154
f 153 154 146
f 146 154 155
f 146 155 147
f 156 157 158
f 158 157 159
f 158 159 160
f 160 159 161
f 160 161 153
f 153 161 162
f 153 162 151
f 163 164 158
f 158 164 165
f 158 165 156
f 166 167 168
f 168 167 169
f 168 169 163
f 163 169 170
f 163 170 164
f 171 172 173
f 173 172 174
f 173 174 175
f 175 174 176
f 175 176 168
f 168 176 177
f 168 177 166
f 109 108 173
f 173 108 178
f 173 178 171
f 107 109 179
f 179 109 180
f 179 180 181
f 182 183 180
f 180 183 184
f 180 184 181
f 185 186 187
f 187 186 188
f 187 188 182
f 182 188 189
f 182 189 183
f 190 191 187
f 187 191 192
f 187 192 185
f 193 194 195
f 195 194 196
f 195 196 197
f 197 196 198
f 197 198 190
f 190 198 199
f 190 199 191
f 106 105 195
f 195 105 200
f 195 200 193
f 104 106 201
f 201 106 202
f 201 202 203
f 204 205 202
f 202 205 206
f 202 206 203
f 207 208 209
f 209 208 210
f 209 210 204
f 204 210 211
f 204 211 205
f 103 102 209
f 209 102 212
f 209 212 207
f 213 214 215
f 215 214 216
f 101 103 217
f 217 103 215
f 217 215 218
f 218 215 216
f 218 216 219
f 220 221 213
f 222 223 224
f 224 223 221
f 224 221 225
f 225 221 220
f 225 220 226
f 226 220 227
f 99 228 100
f 100 228 229
f 100 229 227
f 227 229 230
f 227 230 226
f 98 100 231
f 231 100 232
f 231 232 233
f 233 232 234
f 234 232 235
f 234 235 236
f 237 238 239
f 239 238 240
f 239 240 241
f 241 240 242
f 241 242 235
f 235 242 243
f 235 243 236
f 237 239 244
f 244 239 245
f 244 245 246
f 246 245 247
f 247 245 248
f 247 248 249
f 250 251 252
f 252 253 250
f 250 253 254
f 250 254 248
f 248 254 255
f 248 255 249
f 256 257 258
f 258 257 259
f 258 259 251
f 251 259 260
f 251 260 252
f 256 258 261
f 261 258 262
f 261 262 263
f 263 262 264
f 263 264 265
f 97 96 266
f 96 267 266
f 266 267 268
f 266 268 264
f 264 268 269
f 264 269 265
f 95 97 270
f 270 97 271
f 270 271 272
f 272 271 273
f 272 273 274
f 118 275 119
f 119 275 276
f 119 276 273
f 273 276 277
f 273 277 274
f 213 215 220
f 220 215 103
f 220 103 227
f 227 103 209
f 227 209 100
f 100 209 204
f 100 204 232
f 232 204 202
f 232 202 235
f 235 202 106
f 235 106 241
f 241 106 195
f 241 195 239
f 239 195 197
f 239 197 245
f 245 197 190
f 245 190 248
f 248 190 187
f 248 187 250
f 250 187 182
f 250 182 251
f 251 182 180
f 251 180 258
f 258 180 109
f 258 109 262
f 262 109 173
f 262 173 264
f 264 173 175
f 264 175 266
f 266 175 168
f 266 168 97
f 97 168 163
f 97 163 271
f 271 163 158
f 271 158 273
f 273 158 160
f 273 160 119
f 119 160 153
f 119 153 117
f 117 153 146
f 117 146 115
f 115 146 148
f 115 148 121
f 121 148 143
f 121 143 123
f 123 143 139
f 123 139 112
f 112 139 134
f 112 134 126
f 126 134 135
f 126 135 127
f 278 77 76
f 279 280 118
f 281 282 283
f 284 285 286
f 286 285 287
f 288 289 290
f 290 289 291
f 290 291 292
f 292 291 286
f 292 286 293
f 293 286 287
f 294 295 296
f 295 297 296
f 296 297 298
f 296 298 299
f 300 301 302
f 302 301 303
f 303 301 304
f 303 304 305
f 304 306 305
f 305 306 307
f 305 307 308
f 296 309 294
f 294 309 310
f 294 310 311
f 311 310 305
f 311 305 312
f 312 305 308
f 302 313 300
f 300 313 314
f 300 314 315
f 282 316 283
f 283 316 317
f 283 317 318
f 318 317 296
f 318 296 319
f 319 296 299
f 319 299 286
f 286 299 320
f 286 320 284
f 281 283 321
f 321 283 322
f 321 322 323
f 323 322 324
f 324 322 325
f 324 325 326
f 326 325 327
f 326 327 328
f 328 327 329
f 329 327 330
f 329 330 331
f 331 330 332
f 331 332 333
f 333 332 334
f 334 332 335
f 334 335 336
f 336 335 337
f 336 337 338
f 339 340 338
f 341 342 337
f 337 342 343
f 337 343 338
f 338 343 344
f 338 344 339
f 340 345 338
f 338 345 346
f 338 346 347
f 348 349 350
f 350 349 351
f 347 352 338
f 338 352 350
f 338 350 353
f 353 350 351
f 348 354 349
f 349 354 355
f 349 355 356
f 356 355 357
f 356 357 358
f 357 359 358
f 358 359 360
f 358 360 361
f 361 360 362
f 362 363 361
f 361 363 364
f 361 364 365
f 365 364 366
f 367 368 369
f 369 368 370
f 369 370 366
f 366 370 371
f 366 371 365
f 372 373 374
f 367 375 368
f 368 375 376
f 368 376 377
f 377 378 368
f 368 378 379
f 368 379 380
f 380 372 368
f 368 372 374
f 368 374 381
f 381 374 382
f 381 382 383
f 383 382 384
f 385 386 387
f 387 386 388
f 387 388 389
f 389 388 390
f 389 390 384
f 384 390 391
f 384 391 383
f 392 393 385
f 385 393 394
f 385 394 386
f 395 130 396
f 396 130 131
f 396 131 392
f 392 131 397
f 392 397 393
f 124 125 75
f 75 125 111
f 75 111 398
f 398 111 110
f 398 110 395
f 395 110 129
f 395 129 130
f 399 400 124
f 399 124 401
f 402 401 78
f 78 401 124
f 78 124 74
f 74 124 75
f 400 403 124
f 124 403 404
f 124 404 122
f 405 406 113
f 122 404 120
f 120 404 407
f 120 407 113
f 113 407 408
f 113 408 405
f 406 409 113
f 113 409 410
f 113 410 114
f 410 411 114
f 114 411 412
f 114 412 116
f 116 412 413
f 116 413 118
f 118 413 414
f 118 414 279
f 77 278 78
f 78 278 415
f 78 415 416
f 416 417 78
f 78 417 418
f 78 418 402
f 419 420 421
f 373 422 374
f 374 422 423
f 374 423 421
f 421 423 424
f 421 424 419
f 420 425 421
f 421 425 426
f 421 426 427
f 427 426 428
f 427 428 429
f 428 430 429
f 429 430 431
f 429 431 432
f 432 431 433
f 432 433 337
f 337 433 434
f 337 434 341
f 435 436 437
f 437 436 438
f 439 440 441
f 441 440 442
f 441 442 443
f 443 442 444
f 444 442 445
f 444 445 446
f 446 445 447
f 446 447 448
f 448 447 449
f 449 447 450
f 449 450 451
f 451 450 452
f 452 450 453
f 452 453 454
f 454 453 455
f 454 455 456
f 456 455 457
f 456 457 458
f 458 457 459
f 459 457 460
f 459 460 461
f 461 460 462
f 462 460 463
f 462 463 464
f 436 465 438
f 438 465 466
f 438 466 467
f 467 466 468
f 467 468 463
f 463 468 469
f 463 469 464
f 470 471 278
f 278 471 472
f 278 472 415
f 415 472 473
f 415 473 416
f 416 473 417
f 417 473 474
f 417 474 418
f 475 476 477
f 477 476 478
f 479 480 481
f 481 480 482
f 481 482 475
f 475 482 483
f 475 483 476
f 484 485 479
f 479 485 486
f 479 486 480
f 487 488 489
f 489 488 490
f 489 490 491
f 491 490 492
f 491 492 484
f 484 492 493
f 484 493 485
f 494 495 487
f 487 495 496
f 487 496 488
f 470 497 471
f 471 497 498
f 471 498 494
f 494 498 499
f 494 499 495
f 434 433 500
f 500 433 501
f 369 502 367
f 367 502 503
f 367 503 375
f 375 503 376
f 376 503 504
f 376 504 377
f 377 504 505
f 377 505 378
f 378 505 379
f 379 505 506
f 379 506 380
f 380 506 372
f 372 506 507
f 372 507 373
f 373 507 508
f 373 508 422
f 422 508 509
f 422 509 423
f 423 509 424
f 424 509 510
f 424 510 419
f 419 510 420
f 420 510 511
f 420 511 425
f 433 431 501
f 501 431 430
f 501 430 512
f 512 430 428
f 512 428 511
f 511 428 426
f 511 426 425
f 290 513 288
f 288 513 514
f 288 514 515
f 515 514 516
f 515 516 517
f 517 516 518
f 518 516 519
f 518 519 520
f 521 307 522
f 522 307 306
f 523 311 524
f 524 311 312
f 524 312 521
f 521 312 308
f 521 308 307
f 525 295 523
f 523 295 294
f 523 294 311
f 526 320 527
f 527 320 299
f 527 299 528
f 528 299 298
f 528 298 525
f 525 298 297
f 525 297 295
f 529 285 526
f 526 285 284
f 526 284 320
f 290 292 513
f 513 292 293
f 513 293 529
f 529 293 287
f 529 287 285
f 530 531 532
f 66 533 65
f 65 533 534
f 55 54 535
f 535 54 61
f 535 61 534
f 534 61 63
f 534 63 65
f 55 535 57
f 57 535 536
f 57 536 59
f 59 536 60
f 60 536 537
f 60 537 52
f 52 537 47
f 47 537 538
f 47 538 48
f 539 45 538
f 538 45 49
f 538 49 48
f 530 532 540
f 540 532 541
f 540 541 542
f 541 41 542
f 542 41 42
f 542 42 539
f 539 42 43
f 539 43 45
f 136 137 543
f 543 137 138
f 543 138 544
f 544 138 140
f 544 140 545
f 545 140 145
f 546 547 548
f 546 548 543
f 543 548 549
f 543 549 136
f 550 551 552
f 552 551 553
f 552 553 546
f 546 553 554
f 546 554 547
f 555 556 557
f 557 556 558
f 557 558 552
f 552 558 559
f 552 559 550
f 560 561 562
f 560 562 557
f 557 562 563
f 557 563 555
f 564 565 566
f 566 565 567
f 566 567 560
f 560 567 568
f 560 568 561
f 569 570 571
f 569 571 566
f 566 571 572
f 566 572 564
f 573 574 575
f 575 574 576
f 575 576 569
f 569 576 577
f 569 577 570
f 578 579 580
f 580 579 581
f 580 581 575
f 575 581 582
f 575 582 573
f 583 584 585
f 583 585 580
f 580 585 586
f 580 586 578
f 587 588 589
f 589 588 590
f 589 590 583
f 583 590 591
f 583 591 584
f 592 593 594
f 594 593 595
f 594 595 589
f 589 595 596
f 589 596 587
f 597 598 599
f 597 599 594
f 594 599 600
f 594 600 592
f 601 602 603
f 603 602 604
f 604 605 603
f 603 605 606
f 603 606 597
f 597 606 607
f 597 607 598
f 608 609 610
f 610 609 611
f 610 611 612
f 612 611 613
f 608 614 609
f 609 614 615
f 609 615 603
f 603 615 616
f 603 616 601
f 613 611 617
f 617 611 618
f 617 618 619
f 620 621 622
f 618 623 620
f 620 622 618
f 618 622 624
f 618 624 619
f 219 625 626
f 626 625 627
f 626 627 623
f 623 627 628
f 623 628 620
f 620 628 621
f 629 101 217
f 629 217 626
f 626 217 218
f 626 218 219
f 630 212 629
f 629 212 102
f 629 102 101
f 210 630 211
f 211 630 631
f 210 208 630
f 630 208 207
f 630 207 212
f 632 201 631
f 631 201 203
f 203 206 631
f 631 206 205
f 631 205 211
f 194 193 633
f 633 193 200
f 633 200 634
f 634 200 105
f 634 105 632
f 632 105 104
f 632 104 201
f 635 199 198
f 635 198 633
f 633 198 196
f 633 196 194
f 186 185 636
f 636 185 192
f 636 192 635
f 635 192 191
f 635 191 199
f 184 183 637
f 637 183 189
f 637 189 636
f 636 189 188
f 636 188 186
f 638 107 179
f 638 179 637
f 637 179 181
f 637 181 184
f 172 171 639
f 639 171 178
f 639 178 638
f 638 178 108
f 638 108 107
f 166 177 640
f 640 177 176
f 640 176 639
f 639 176 174
f 639 174 172
f 641 170 169
f 641 169 640
f 640 169 167
f 640 167 166
f 161 159 642
f 642 159 157
f 157 156 642
f 642 156 165
f 642 165 641
f 641 165 164
f 641 164 170
f 643 151 642
f 642 151 162
f 642 162 161
f 149 147 644
f 644 147 155
f 644 155 645
f 645 155 154
f 645 154 643
f 643 154 152
f 643 152 151
f 149 644 150
f 150 644 646
f 150 646 141
f 545 145 144
f 646 544 545
f 545 144 646
f 646 144 142
f 646 142 141
f 531 530 647
f 647 530 648
f 647 648 649
f 70 650 68
f 68 650 533
f 68 533 66
f 651 652 648
f 648 652 653
f 648 653 649
f 654 655 656
f 656 655 657
f 656 657 651
f 651 657 658
f 651 658 652
f 654 656 659
f 659 656 660
f 659 660 661
f 661 660 662
f 661 662 663
f 663 662 664
f 663 664 665
f 665 664 666
f 665 666 667
f 70 79 650
f 650 79 668
f 650 668 666
f 666 668 669
f 666 669 667
f 670 671 672
f 520 519 673
f 673 519 674
f 673 674 675
f 675 674 676
f 677 678 679
f 679 678 680
f 679 680 676
f 676 680 681
f 676 681 675
f 682 683 684
f 684 683 685
f 684 685 679
f 679 685 686
f 679 686 677
f 684 687 682
f 682 687 688
f 682 688 689
f 689 688 690
f 689 690 691
f 672 671 692
f 671 693 692
f 692 693 694
f 692 694 690
f 690 694 695
f 690 695 691
f 670 672 315
f 315 672 696
f 315 696 300
f 300 696 697
f 300 697 301
f 522 306 697
f 697 306 304
f 697 304 301
f 434 500 341
f 341 500 698
f 341 698 342
f 342 698 699
f 342 699 343
f 343 699 344
f 344 699 700
f 344 700 339
f 347 346 701
f 701 346 345
f 701 345 700
f 700 345 340
f 700 340 339
f 701 702 347
f 347 702 703
f 347 703 352
f 352 703 704
f 352 704 350
f 705 354 704
f 704 354 348
f 704 348 350
f 360 359 706
f 706 359 357
f 706 357 705
f 705 357 355
f 705 355 354
f 360 706 362
f 362 706 707
f 362 707 363
f 363 707 708
f 363 708 364
f 364 708 366
f 366 708 502
f 366 502 369
f 279 414 709
f 418 474 402
f 402 474 710
f 402 710 401
f 401 710 711
f 404 403 712
f 712 403 400
f 712 400 711
f 711 400 399
f 711 399 401
f 406 405 713
f 713 405 408
f 713 408 712
f 712 408 407
f 712 407 404
f 713 714 406
f 406 714 715
f 406 715 409
f 409 715 716
f 409 716 410
f 709 414 717
f 414 413 717
f 717 413 412
f 717 412 716
f 716 412 411
f 716 411 410
f 279 709 280
f 280 709 718
f 280 718 719
f 719 718 720
f 719 720 721
f 477 478 720
f 720 478 722
f 720 722 721
f 435 437 723
f 723 437 724
f 723 724 725
f 725 724 726
f 725 726 727
f 727 726 728
f 728 726 729
f 728 729 730
f 731 732 733
f 733 732 734
f 733 734 729
f 729 734 735
f 729 735 730
f 736 737 738
f 738 737 739
f 738 739 740
f 740 739 731
f 740 731 741
f 741 731 733
f 742 743 738
f 738 743 744
f 738 744 736
f 745 746 747
f 747 746 748
f 747 748 742
f 742 748 749
f 742 749 743
f 745 747 750
f 750 747 751
f 750 751 752
f 752 751 753
f 752 753 754
f 754 753 755
f 755 753 440
f 755 440 439
f 566 706 569
f 569 706 705
f 569 705 704
f 510 509 645
f 506 505 546
f 512 511 662
f 509 508 645
f 645 508 507
f 645 507 644
f 546 505 552
f 552 505 504
f 552 504 557
f 704 703 569
f 569 703 702
f 569 702 701
f 700 699 756
f 756 699 698
f 546 543 506
f 506 543 544
f 506 544 507
f 507 544 646
f 507 646 644
f 698 500 756
f 756 500 501
f 756 501 512
f 504 503 557
f 557 503 502
f 557 502 560
f 560 502 708
f 560 708 566
f 566 708 707
f 566 707 706
f 583 580 756
f 701 700 569
f 569 700 756
f 569 756 575
f 575 756 580
f 756 603 597
f 597 594 756
f 756 594 589
f 756 589 583
f 662 660 512
f 512 660 656
f 512 656 756
f 756 656 651
f 756 651 648
f 529 526 648
f 648 526 527
f 527 528 648
f 648 528 525
f 648 525 756
f 756 525 523
f 756 523 603
f 603 523 524
f 603 524 521
f 603 696 609
f 609 696 672
f 609 672 611
f 529 648 513
f 513 648 530
f 513 530 514
f 521 522 603
f 603 522 697
f 603 697 696
f 632 676 634
f 634 676 674
f 530 540 514
f 514 540 542
f 514 542 516
f 516 542 519
f 672 692 611
f 611 692 690
f 611 690 618
f 618 690 688
f 618 688 623
f 623 688 687
f 623 687 626
f 626 687 684
f 626 684 629
f 629 684 679
f 629 679 630
f 630 679 676
f 630 676 631
f 631 676 632
f 650 666 712
f 712 666 664
f 712 664 662
f 536 726 537
f 537 726 724
f 537 724 437
f 637 733 729
f 437 438 537
f 537 438 467
f 537 467 538
f 538 467 463
f 538 463 539
f 539 463 460
f 539 460 457
f 641 640 534
f 534 640 535
f 447 445 634
f 634 445 442
f 634 751 633
f 633 751 747
f 633 747 635
f 635 747 742
f 635 742 636
f 674 519 634
f 634 519 542
f 634 542 447
f 447 542 539
f 447 539 450
f 729 726 637
f 637 726 536
f 637 536 638
f 638 536 535
f 638 535 639
f 639 535 640
f 457 455 539
f 539 455 453
f 539 453 450
f 442 440 634
f 634 440 753
f 634 753 751
f 742 738 636
f 636 738 740
f 636 740 637
f 637 740 741
f 637 741 733
f 511 510 662
f 662 510 645
f 662 645 712
f 712 645 713
f 712 711 650
f 650 711 710
f 650 710 474
f 474 473 650
f 650 473 472
f 650 472 533
f 533 472 471
f 533 471 534
f 642 718 643
f 643 718 709
f 643 709 645
f 645 709 717
f 645 717 716
f 716 715 645
f 645 715 714
f 645 714 713
f 471 494 534
f 534 494 487
f 534 487 489
f 489 491 534
f 534 491 484
f 534 484 641
f 641 484 479
f 641 479 481
f 481 475 641
f 641 475 477
f 641 477 642
f 642 477 720
f 642 720 718
f 288 757 289
f 670 315 314
f 95 270 10
f 278 76 6
f 723 725 24
f 24 725 727
f 255 728 730
f 730 735 255
f 255 735 734
f 255 734 732
f 744 246 736
f 736 246 247
f 736 247 737
f 737 247 249
f 737 249 739
f 739 249 255
f 739 255 731
f 731 255 732
f 462 464 28
f 28 464 469
f 28 469 20
f 20 469 468
f 20 468 21
f 468 466 21
f 21 466 465
f 21 465 23
f 23 465 436
f 23 436 24
f 24 436 435
f 24 435 723
f 441 236 439
f 439 236 243
f 439 243 755
f 755 243 242
f 755 242 754
f 754 242 240
f 454 456 27
f 454 27 452
f 441 443 236
f 236 443 444
f 236 444 446
f 446 448 236
f 236 448 449
f 236 449 451
f 456 458 27
f 27 458 459
f 27 459 28
f 28 459 461
f 28 461 462
f 744 743 246
f 246 743 749
f 246 749 244
f 244 749 748
f 244 748 237
f 237 748 746
f 237 746 238
f 746 745 238
f 238 745 750
f 238 750 240
f 240 750 752
f 240 752 754
f 496 495 5
f 5 495 499
f 499 498 5
f 5 498 497
f 5 497 6
f 6 497 470
f 6 470 278
f 486 485 270
f 485 493 270
f 270 493 492
f 270 492 490
f 10 270 8
f 8 270 490
f 8 490 5
f 5 490 488
f 5 488 496
f 722 277 721
f 721 277 276
f 721 276 719
f 722 478 277
f 277 478 476
f 277 476 483
f 270 272 486
f 486 272 274
f 486 274 480
f 480 274 277
f 480 277 482
f 482 277 483
f 276 275 719
f 719 275 118
f 719 118 280
f 95 10 96
f 96 10 11
f 96 11 267
f 13 269 11
f 11 269 268
f 11 268 267
f 17 261 18
f 18 261 263
f 18 263 13
f 13 263 265
f 13 265 269
f 252 260 14
f 14 260 259
f 14 259 15
f 15 259 257
f 15 257 17
f 17 257 256
f 17 256 261
f 252 14 253
f 253 14 25
f 253 25 254
f 254 25 24
f 254 24 255
f 255 24 727
f 255 727 728
f 451 452 236
f 236 452 27
f 236 27 234
f 234 27 33
f 234 33 233
f 233 33 32
f 233 32 231
f 231 32 98
f 98 32 30
f 98 30 99
f 99 30 29
f 99 29 228
f 34 230 29
f 29 230 229
f 29 229 228
f 2 225 34
f 34 225 226
f 34 226 230
f 35 758 1
f 1 758 222
f 1 222 2
f 2 222 224
f 2 224 225
f 759 760 94
f 94 760 761
f 94 761 37
f 37 761 762
f 37 762 35
f 35 762 763
f 35 763 758
f 681 680 759
f 681 759 675
f 673 675 764
f 764 675 759
f 764 759 765
f 765 759 94
f 680 678 759
f 759 678 677
f 759 677 766
f 683 682 767
f 766 677 768
f 768 677 686
f 768 686 767
f 767 686 685
f 767 685 683
f 682 689 767
f 767 689 691
f 767 691 769
f 691 695 769
f 769 695 694
f 769 694 770
f 770 694 693
f 770 693 314
f 314 693 671
f 314 671 670
f 757 288 764
f 764 288 515
f 764 515 517
f 517 518 764
f 764 518 520
f 764 520 673
f 762 761 771
f 365 371 772
f 549 548 773
f 561 568 774
f 584 591 775
f 625 219 216
f 776 628 777
f 777 628 627
f 777 627 625
f 619 624 778
f 778 624 622
f 778 622 776
f 776 622 621
f 776 621 628
f 779 612 780
f 780 612 613
f 780 613 778
f 778 613 617
f 778 617 619
f 615 614 781
f 781 614 608
f 781 608 779
f 779 608 610
f 779 610 612
f 605 604 782
f 782 604 602
f 782 602 783
f 783 602 601
f 783 601 781
f 781 601 616
f 781 616 615
f 784 607 782
f 782 607 606
f 782 606 605
f 592 600 785
f 785 600 599
f 785 599 784
f 784 599 598
f 784 598 607
f 588 587 786
f 786 587 596
f 786 596 787
f 787 596 595
f 787 595 785
f 785 595 593
f 785 593 592
f 775 591 786
f 786 591 590
f 786 590 588
f 584 775 585
f 585 775 788
f 585 788 586
f 789 579 788
f 788 579 578
f 788 578 586
f 574 573 790
f 790 573 582
f 790 582 789
f 789 582 581
f 789 581 579
f 791 577 790
f 790 577 576
f 790 576 574
f 565 564 792
f 792 564 572
f 792 572 793
f 793 572 571
f 793 571 791
f 791 571 570
f 791 570 577
f 774 568 792
f 792 568 567
f 792 567 565
f 561 774 562
f 562 774 794
f 562 794 563
f 795 556 794
f 794 556 555
f 794 555 563
f 551 550 796
f 796 550 559
f 796 559 795
f 795 559 558
f 795 558 556
f 773 548 797
f 548 547 797
f 797 547 554
f 797 554 796
f 796 554 553
f 796 553 551
f 136 549 132
f 132 549 773
f 132 773 133
f 133 773 135
f 798 127 135
f 131 128 397
f 397 128 127
f 397 127 393
f 393 127 798
f 393 798 394
f 394 798 799
f 394 799 386
f 386 799 388
f 388 799 390
f 390 799 800
f 390 800 391
f 391 800 801
f 391 801 383
f 772 371 802
f 371 370 802
f 802 370 368
f 802 368 801
f 801 368 381
f 801 381 383
f 365 772 361
f 361 772 803
f 361 803 358
f 358 803 356
f 356 803 804
f 356 804 349
f 805 353 804
f 804 353 351
f 804 351 349
f 806 334 807
f 807 334 336
f 807 336 805
f 805 336 338
f 805 338 353
f 328 329 808
f 808 329 331
f 808 331 806
f 806 331 333
f 806 333 334
f 328 808 326
f 326 808 809
f 326 809 324
f 324 809 810
f 324 810 323
f 811 317 316
f 811 316 812
f 316 282 812
f 812 282 281
f 812 281 810
f 810 281 321
f 810 321 323
f 317 811 296
f 296 811 813
f 296 813 309
f 309 813 310
f 310 813 814
f 310 814 305
f 815 313 816
f 816 313 302
f 816 302 814
f 814 302 303
f 814 303 305
f 767 769 817
f 817 769 770
f 817 770 815
f 815 770 314
f 815 314 313
f 767 817 768
f 768 817 818
f 768 818 766
f 766 818 819
f 766 819 759
f 771 761 819
f 819 761 760
f 819 760 759
f 820 221 223
f 762 771 763
f 763 771 820
f 763 820 758
f 758 820 223
f 758 223 222
f 625 216 777
f 777 216 214
f 777 214 213
f 135 773 798
f 798 773 797
f 798 797 799
f 799 797 796
f 799 796 800
f 800 796 795
f 800 795 801
f 801 795 794
f 801 794 802
f 802 794 774
f 802 774 772
f 772 774 792
f 772 792 803
f 803 792 793
f 803 793 804
f 804 793 791
f 804 791 805
f 805 791 790
f 805 790 807
f 807 790 789
f 807 789 806
f 806 789 788
f 806 788 808
f 808 788 775
f 808 775 809
f 809 775 786
f 809 786 810
f 810 786 787
f 810 787 812
f 812 787 785
f 812 785 811
f 811 785 784
f 811 784 813
f 813 784 782
f 813 782 814
f 814 782 783
f 814 783 816
f 816 783 781
f 816 781 815
f 815 781 779
f 815 779 817
f 817 779 780
f 817 780 818
f 818 780 778
f 818 778 819
f 819 778 776
f 819 776 771
f 771 776 777
f 771 777 820
f 820 777 213
f 820 213 221
f 396 392 821
f 668 822 669
f 669 822 823
f 669 823 667
f 667 823 824
f 661 663 824
f 824 663 665
f 824 665 667
f 824 825 661
f 661 825 826
f 661 826 659
f 659 826 827
f 652 658 828
f 828 658 657
f 828 657 829
f 829 657 655
f 829 655 827
f 827 655 654
f 827 654 659
f 652 828 653
f 653 828 830
f 653 830 649
f 649 830 831
f 649 831 647
f 647 831 531
f 531 831 832
f 531 832 532
f 532 832 833
f 532 833 541
f 40 834 93
f 93 834 765
f 93 765 94
f 835 286 291
f 835 291 836
f 291 289 836
f 836 289 757
f 836 757 834
f 834 757 764
f 834 764 765
f 286 835 319
f 319 835 837
f 319 837 318
f 318 837 283
f 283 837 838
f 283 838 322
f 332 330 839
f 839 330 327
f 839 327 838
f 838 327 325
f 838 325 322
f 840 427 429
f 840 429 841
f 429 432 841
f 841 432 337
f 841 337 839
f 839 337 335
f 839 335 332
f 842 374 840
f 840 374 421
f 840 421 427
f 387 389 843
f 843 389 384
f 843 384 842
f 842 384 382
f 842 382 374
f 821 392 843
f 843 392 385
f 843 385 387
f 396 821 395
f 395 821 844
f 395 844 398
f 668 79 822
f 822 79 80
f 822 80 71
f 41 541 39
f 39 541 833
f 39 833 845
f 845 833 832
f 845 832 846
f 846 832 831
f 846 831 847
f 847 831 830
f 847 830 848
f 848 830 828
f 848 828 849
f 849 828 829
f 849 829 850
f 850 829 827
f 850 827 851
f 851 827 826
f 851 826 852
f 852 826 825
f 852 825 853
f 853 825 824
f 853 824 854
f 854 824 823
f 854 823 855
f 855 823 822
f 855 822 856
f 856 822 71
f 856 71 73
f 75 398 73
f 73 398 844
f 73 844 856
f 856 844 821
f 856 821 855
f 855 821 843
f 855 843 854
f 854 843 842
f 854 842 853
f 853 842 840
f 853 840 852
f 852 840 841
f 852 841 851
f 851 841 839
f 851 839 850
f 850 839 838
f 850 838 849
f 849 838 837
f 849 837 848
f 848 837 835
f 848 835 847
f 847 835 836
f 847 836 846
f 846 836 834
f 846 834 845
f 845 834 40
f 845 40 39

