# https://github.com/mikedh/trimesh
v -0.00116262 -0.00043761 -0.00120955
v -0.00154195 -0.00042526 -0.00117542
v -0.00154195 -0.00049372 -0.00114834
v -0.00066626 -0.00049395 -0.00136528
v -0.00116262 -0.00050806 -0.00118169
v -0.00022984 -0.00059216 -0.00163673
v -0.00066626 -0.00057347 -0.00133383
v 0.00011677 -0.00072553 -0.00200535
v -0.00022984 -0.00068749 -0.00159903
v 0.00034984 -0.00088491 -0.00244589
v 0.00011677 -0.00084232 -0.00195916
v 0.00043858 -0.00101099 -0.00279437
v 0.00034984 -0.00102737 -0.00238955
v 0.00034984 -0.00151560 -0.00211386
v 0.00043858 -0.00166962 -0.00245825
v 0.00043858 -0.00117374 -0.00273001
v 0.00034984 -0.00193341 -0.00173993
v 0.00043858 -0.00213153 -0.00207056
v 0.00043858 -0.00173154 -0.00241503
v 0.00034984 -0.00226138 -0.00128516
v 0.00043858 -0.00250565 -0.00159761
v 0.00043858 -0.00220888 -0.00198783
v 0.00034984 -0.00248426 -0.00077066
v 0.00043858 -0.00277659 -0.00105886
v 0.00043858 -0.00258357 -0.00146826
v 0.00034984 -0.00259171 -0.00022035
v 0.00043858 -0.00293319 -0.00047652
v 0.00043858 -0.00283821 -0.00088046
v 0.00034984 -0.00257872 0.00034019
v 0.00043858 -0.00296900 0.00012546
v 0.00043858 -0.00296096 -0.00025175
v 0.00043858 -0.00267738 0.00128933
v 0.00043858 -0.00279438 0.00101101
v 0.00034984 -0.00244590 0.00088493
v 0.00043858 -0.00288254 0.00072226
v 0.00043858 -0.00294612 0.00038866
v 0.00043858 -0.00251279 0.00158639
v 0.00034984 -0.00219943 0.00138855
v 0.00043858 -0.00236196 0.00180330
v 0.00034984 -0.00185075 0.00182765
v 0.00043858 -0.00211444 0.00208805
v 0.00043858 -0.00194928 0.00224301
v 0.00034984 -0.00141607 0.00218182
v 0.00043858 -0.00161783 0.00249268
v 0.00043858 -0.00145632 0.00259035
v 0.00034984 -0.00091559 0.00243461
v 0.00043858 -0.00104604 0.00278148
v 0.00043858 -0.00090339 0.00283102
v 0.00034984 -0.00037256 0.00257426
v 0.00043858 -0.00042564 0.00294103
v 0.00043858 -0.00031326 0.00295511
v 0.00034984 0.00018778 0.00259430
v 0.00043858 0.00021453 0.00296392
v 0.00043858 0.00028977 0.00295751
v 0.00034984 0.00073940 0.00249378
v 0.00043858 0.00084474 0.00284908
v 0.00034984 0.00088492 0.00244592
v 0.00043858 0.00101100 0.00279441
v -0.00154195 -0.00072835 -0.00101585
v -0.00116262 -0.00074951 -0.00104535
v -0.00154195 -0.00092914 -0.00083615
v -0.00116262 -0.00095613 -0.00086044
v -0.00154195 -0.00108675 -0.00061760
v -0.00116262 -0.00111832 -0.00063554
v -0.00154195 -0.00119386 -0.00037035
v -0.00116262 -0.00122854 -0.00038111
v -0.00154195 -0.00124550 -0.00010589
v -0.00116262 -0.00128167 -0.00010896
v -0.00154195 -0.00123926 0.00016350
v -0.00116262 -0.00127525 0.00016825
v -0.00154195 -0.00117543 0.00042528
v -0.00116262 -0.00120957 0.00043764
v -0.00154195 -0.00105698 0.00066731
v -0.00116262 -0.00108768 0.00068669
v -0.00154195 -0.00088942 0.00087833
v -0.00116262 -0.00091525 0.00090384
v -0.00154195 -0.00068052 0.00104853
v -0.00116262 -0.00070028 0.00107898
v -0.00154195 -0.00044000 0.00117001
v -0.00116262 -0.00045278 0.00120399
v -0.00154195 -0.00017904 0.00123713
v -0.00116262 -0.00018424 0.00127306
v -0.00154195 0.00009025 0.00124676
v -0.00116262 0.00009287 0.00128296
v -0.00154195 0.00035534 0.00119845
v -0.00116262 0.00036566 0.00123326
v -0.00154195 0.00042527 0.00117545
v -0.00116262 0.00043762 0.00120959
v 0.00011677 -0.00124262 -0.00173312
v 0.00011677 -0.00158518 -0.00142654
v 0.00011677 -0.00185407 -0.00105368
v 0.00011677 -0.00203681 -0.00063185
v 0.00011677 -0.00212490 -0.00018066
v 0.00011677 -0.00211426 0.00027892
v 0.00011677 -0.00200536 0.00072555
v 0.00011677 -0.00180328 0.00113846
v 0.00011677 -0.00151740 0.00149847
v 0.00011677 -0.00116102 0.00178885
v 0.00011677 -0.00075068 0.00199611
v 0.00011677 -0.00030546 0.00211061
v 0.00011677 0.00015396 0.00212703
v 0.00011677 0.00060622 0.00204462
v 0.00011677 0.00072554 0.00200539
v -0.00022984 -0.00101421 -0.00141454
v -0.00022984 -0.00129380 -0.00116432
v -0.00022984 -0.00151327 -0.00086000
v -0.00022984 -0.00166242 -0.00051571
v -0.00022984 -0.00173432 -0.00014745
v -0.00022984 -0.00172562 0.00022766
v -0.00022984 -0.00163675 0.00059219
v -0.00022984 -0.00147181 0.00092920
v -0.00022984 -0.00123848 0.00122303
v -0.00022984 -0.00094760 0.00146004
v -0.00022984 -0.00061269 0.00162920
v -0.00022984 -0.00024931 0.00172265
v -0.00022984 0.00012566 0.00173606
v -0.00022984 0.00049479 0.00166879
v -0.00022984 0.00059218 0.00163677
v -0.00066626 -0.00084600 -0.00117994
v -0.00066626 -0.00107922 -0.00097121
v -0.00066626 -0.00126229 -0.00071736
v -0.00066626 -0.00138670 -0.00043017
v -0.00066626 -0.00144668 -0.00012299
v -0.00066626 -0.00143943 0.00018990
v -0.00066626 -0.00136529 0.00049397
v -0.00066626 -0.00122771 0.00077509
v -0.00066626 -0.00103308 0.00102019
v -0.00066626 -0.00079044 0.00121789
v -0.00066626 -0.00051107 0.00135899
v -0.00066626 -0.00020796 0.00143695
v -0.00066626 0.00010482 0.00144813
v -0.00066626 0.00041273 0.00139202
v -0.00066626 0.00049396 0.00136531
v 0.00043858 -0.00021452 -0.00296388
v 0.00043858 -0.00028976 -0.00295747
v 0.00100148 -0.00068030 -0.00694361
v 0.00082144 0.00193780 0.00535607
v 0.00082183 0.00202136 0.00532820
v 0.00043858 0.00117376 0.00273004
v 0.00095613 0.00347537 0.00567467
v 0.00091573 0.00322803 0.00548788
v 0.00043858 0.00166964 0.00245828
v 0.00100148 0.00391998 0.00577155
v 0.00100148 0.00368699 0.00592311
v 0.00096403 0.00351679 0.00571524
v 0.00087957 0.00294128 0.00535499
v 0.00085198 0.00265718 0.00528261
v 0.00083062 0.00233113 0.00526857
v 0.00043858 0.00288256 -0.00072223
v 0.00084590 0.00570324 -0.00138906
v 0.00043858 0.00294614 -0.00038863
v 0.00087519 0.00596138 -0.00118689
v 0.00043858 0.00296901 -0.00012542
v 0.00088333 0.00602825 -0.00114646
v 0.00091300 0.00626216 -0.00103711
v 0.00095219 0.00655585 -0.00096346
v 0.00100148 0.00697066 -0.00029449
v 0.00096403 0.00664237 -0.00095392
v 0.00099513 0.00686597 -0.00095267
v 0.00100148 0.00696352 -0.00043162
v 0.00100148 0.00691103 -0.00095632
v 0.00085198 0.00528260 -0.00265715
v 0.00083062 0.00526856 -0.00233110
v 0.00043858 0.00267739 -0.00128929
v 0.00082183 0.00532819 -0.00202134
v 0.00043858 0.00279440 -0.00101098
v 0.00082144 0.00535606 -0.00193778
v 0.00082764 0.00550163 -0.00163694
v 0.00100148 0.00592310 -0.00368696
v 0.00096403 0.00571523 -0.00351676
v 0.00100148 0.00562771 -0.00412378
v 0.00100148 0.00554546 -0.00423374
v 0.00095613 0.00567465 -0.00347535
v 0.00091573 0.00548787 -0.00322801
v 0.00043858 0.00236198 -0.00180326
v 0.00087957 0.00535498 -0.00294126
v 0.00043858 0.00251281 -0.00158635
v 0.00082764 -0.00163695 -0.00550161
v 0.00084590 -0.00138908 -0.00570321
v 0.00087519 -0.00118690 -0.00596136
v 0.00088333 -0.00114647 -0.00602822
v 0.00091300 -0.00103712 -0.00626213
v 0.00095219 -0.00096348 -0.00655583
v 0.00096403 -0.00095393 -0.00664235
v 0.00099513 -0.00095268 -0.00686594
v 0.00100148 -0.00095633 -0.00691100
v 0.00043858 -0.00084473 -0.00284904
v 0.00082144 -0.00193779 -0.00535604
v 0.00100148 0.00412381 0.00562773
v 0.00043858 0.00173156 0.00241507
v 0.00100148 0.00488325 0.00498306
v 0.00043858 0.00213154 0.00207060
v 0.00100148 0.00500444 0.00486134
v 0.00043858 0.00220889 0.00198787
v 0.00100148 0.00554315 0.00423681
v 0.00043858 0.00250566 0.00159764
v 0.00043858 0.00296098 0.00025179
v 0.00100148 0.00695401 0.00056450
v 0.00043858 0.00293320 0.00047655
v 0.00100148 0.00688659 0.00111883
v 0.00043858 0.00283822 0.00088050
v 0.00100148 0.00680273 0.00154912
v 0.00043858 0.00277660 0.00105890
v 0.00100148 0.00651277 0.00250216
v 0.00043858 0.00258358 0.00146830
v 0.00100148 0.00609004 0.00340418
v 0.00100148 0.00588281 0.00375094
v 0.00100148 0.00498305 -0.00488323
v 0.00043858 0.00211445 -0.00208801
v 0.00100148 0.00457656 -0.00526610
v 0.00043858 0.00194929 -0.00224297
v 0.00100148 0.00423680 -0.00554312
v 0.00043858 0.00161784 -0.00249264
v 0.00100148 0.00340417 -0.00609001
v 0.00043858 0.00145634 -0.00259032
v 0.00100148 0.00250214 -0.00651275
v 0.00043858 0.00104605 -0.00278144
v 0.00100148 0.00212102 -0.00664664
v 0.00043858 0.00090341 -0.00283099
v 0.00100148 0.00154911 -0.00680271
v 0.00043858 0.00042565 -0.00294099
v 0.00100148 0.00073550 -0.00693798
v 0.00043858 0.00031328 -0.00295508
v 0.00100148 0.00056449 -0.00695399
v 0.00100148 -0.00043163 -0.00696349
v 0.00102094 -0.00863130 0.00312276
v 0.00094281 -0.00899570 0.00325460
v 0.00094281 -0.00932241 0.00214656
v 0.00072061 -0.00930315 0.00336583
v 0.00072061 -0.00964103 0.00221992
v 0.00038907 -0.00950561 0.00343908
v 0.00038907 -0.00985084 0.00226823
v 0.00000000 -0.00957144 0.00346290
v 0.00000000 -0.00991906 0.00228394
v 0.00000000 -0.01002429 0.00176573
v 0.00038907 -0.01005242 0.00106431
v 0.00000000 -0.01012204 0.00107168
v 0.00000000 -0.01017860 0.00001597
v 0.00038907 -0.01010742 -0.00015514
v 0.00000000 -0.01017742 -0.00015621
v 0.00000000 -0.01008438 -0.00138183
v 0.00038907 -0.01001503 -0.00137232
v 0.00000000 -0.01002978 -0.00173427
v 0.00038907 -0.00977659 -0.00256949
v 0.00000000 -0.00984429 -0.00258729
v 0.00038907 -0.00939559 -0.00372920
v 0.00000000 -0.00958226 -0.00343286
v 0.00000000 -0.00946066 -0.00375502
v 0.00000000 -0.00893906 -0.00486800
v 0.00038907 -0.00887758 -0.00483452
v 0.00000000 -0.00884936 -0.00502921
v 0.00038907 -0.00823011 -0.00586935
v 0.00000000 -0.00828711 -0.00590999
v 0.00038907 -0.00746264 -0.00681858
v 0.00000000 -0.00785292 -0.00647578
v 0.00000000 -0.00228394 -0.00991906
v 0.00038907 -0.00343908 -0.00950561
v 0.00000000 -0.00346290 -0.00957144
v 0.00038907 -0.00455978 -0.00902177
v 0.00000000 -0.00459136 -0.00908425
v 0.00038907 -0.00561399 -0.00840637
v 0.00000000 -0.00565287 -0.00846459
v 0.00038907 -0.00658634 -0.00766839
v 0.00000000 -0.00663195 -0.00772149
v 0.00000000 -0.00751432 -0.00686580
v 0.00000000 -0.00160805 -0.01005079
v 0.00038907 -0.00106431 -0.01005242
v 0.00038907 -0.00226823 -0.00985084
v 0.00000000 -0.00107168 -0.01012204
v 0.00000000 0.00015621 -0.01017742
v 0.00038907 0.00015514 -0.01010742
v 0.00000000 0.00138183 -0.01008438
v 0.00038907 0.00137232 -0.01001502
v 0.00000000 0.00189160 -0.01000130
v 0.00038907 0.00256949 -0.00977659
v 0.00000000 0.00258729 -0.00984429
v 0.00000000 0.00358295 -0.00952716
v 0.00038907 0.00372920 -0.00939559
v 0.00000000 0.00375502 -0.00946066
v 0.00000000 0.00486800 -0.00893906
v 0.00038907 0.00483452 -0.00887758
v 0.00000000 0.00516759 -0.00876928
v 0.00038907 0.00586935 -0.00823011
v 0.00000000 0.00590999 -0.00828711
v 0.00038907 0.00681858 -0.00746264
v 0.00000000 0.00659833 -0.00775024
v 0.00000000 0.00686580 -0.00751432
v 0.00000000 0.00772149 -0.00663195
v 0.00038907 0.00766839 -0.00658634
v 0.00000000 0.00783257 -0.00650039
v 0.00038907 0.00840637 -0.00561399
v 0.00000000 0.00846459 -0.00565287
v 0.00038907 0.00902177 -0.00455978
v 0.00000000 0.00883354 -0.00505694
v 0.00000000 0.00908425 -0.00459136
v 0.00000000 0.00957144 -0.00346290
v 0.00038907 0.00950561 -0.00343908
v 0.00072061 -0.00983832 0.00104164
v 0.00072061 -0.00989214 -0.00015183
v 0.00072061 -0.00980171 -0.00134309
v 0.00072061 -0.00956836 -0.00251477
v 0.00072061 -0.00919547 -0.00364977
v 0.00072061 -0.00868849 -0.00473155
v 0.00072061 -0.00805482 -0.00574433
v 0.00072061 -0.00730369 -0.00667335
v 0.00072061 -0.00644605 -0.00750506
v 0.00072061 -0.00549442 -0.00822732
v 0.00072061 -0.00446266 -0.00882962
v 0.00072061 -0.00336583 -0.00930315
v 0.00072061 -0.00221992 -0.00964103
v 0.00072061 -0.00104164 -0.00983832
v 0.00072061 0.00015183 -0.00989214
v 0.00072061 0.00134309 -0.00980171
v 0.00072061 0.00251477 -0.00956836
v 0.00072061 0.00364977 -0.00919547
v 0.00072061 0.00473155 -0.00868849
v 0.00072061 0.00574433 -0.00805482
v 0.00072061 0.00667335 -0.00730369
v 0.00072061 0.00750506 -0.00644605
v 0.00072061 0.00822732 -0.00549442
v 0.00072061 0.00882962 -0.00446266
v 0.00072061 0.00930315 -0.00336583
v 0.00094281 -0.00951318 0.00100721
v 0.00094281 -0.00956522 -0.00014682
v 0.00094281 -0.00947778 -0.00129871
v 0.00094281 -0.00925214 -0.00243166
v 0.00094281 -0.00889158 -0.00352915
v 0.00094281 -0.00840135 -0.00457518
v 0.00094281 -0.00778862 -0.00555449
v 0.00094281 -0.00706231 -0.00645281
v 0.00094281 -0.00623302 -0.00725703
v 0.00094281 -0.00531284 -0.00795542
v 0.00094281 -0.00431518 -0.00853781
v 0.00094281 -0.00325460 -0.00899570
v 0.00094281 -0.00214656 -0.00932241
v 0.00094281 -0.00100721 -0.00951318
v 0.00094281 0.00014682 -0.00956522
v 0.00094281 0.00129871 -0.00947778
v 0.00094281 0.00243166 -0.00925214
v 0.00094281 0.00352915 -0.00889158
v 0.00094281 0.00457518 -0.00840135
v 0.00094281 0.00555449 -0.00778862
v 0.00094281 0.00645281 -0.00706231
v 0.00094281 0.00725703 -0.00623302
v 0.00094281 0.00795543 -0.00531284
v 0.00094281 0.00853781 -0.00431518
v 0.00094281 0.00899570 -0.00325460
v 0.00102094 -0.00894478 0.00205960
v 0.00102094 -0.00912782 0.00096641
v 0.00102094 -0.00917775 -0.00014087
v 0.00102094 -0.00909386 -0.00124610
v 0.00102094 -0.00887735 -0.00233316
v 0.00102094 -0.00853139 -0.00338619
v 0.00102094 -0.00806103 -0.00438985
v 0.00102094 -0.00747312 -0.00532949
v 0.00102094 -0.00677623 -0.00619142
v 0.00102094 -0.00598053 -0.00696306
v 0.00102094 -0.00509762 -0.00763316
v 0.00102094 -0.00414038 -0.00819196
v 0.00102094 -0.00312276 -0.00863130
v 0.00102094 -0.00205960 -0.00894478
v 0.00102094 -0.00096641 -0.00912782
v 0.00102094 0.00014087 -0.00917775
v 0.00102094 0.00124610 -0.00909386
v 0.00102094 0.00233316 -0.00887735
v 0.00102094 0.00338619 -0.00853139
v 0.00102094 0.00438985 -0.00806103
v 0.00102094 0.00532949 -0.00747312
v 0.00102094 0.00619142 -0.00677623
v 0.00102094 0.00696306 -0.00598053
v 0.00102094 0.00763317 -0.00509762
v 0.00102094 0.00819196 -0.00414038
v 0.00102094 0.00863130 -0.00312276
v -0.01163479 -0.00131915 -0.00932985
v -0.01163479 -0.00128314 -0.00933487
v -0.01141751 -0.00132084 -0.00960908
v -0.01163479 -0.00195123 -0.00921840
v -0.01163479 -0.00320571 -0.00886057
v -0.01163479 -0.00308443 -0.00890352
v -0.01143232 -0.00317062 -0.00915232
v -0.01143232 -0.00200576 -0.00947601
v -0.01111780 -0.00134595 -0.00979174
v -0.01163479 -0.00416958 -0.00844992
v -0.01143232 -0.00428609 -0.00868604
v -0.01163479 -0.00495581 -0.00801413
v -0.01143232 -0.00533478 -0.00808444
v -0.01163479 -0.00518976 -0.00786467
v -0.01143232 -0.00630035 -0.00735687
v -0.01163479 -0.00612908 -0.00715689
v -0.01163480 -0.00839530 -0.00427850
v -0.01163479 -0.00832322 -0.00441710
v -0.01143232 -0.00855580 -0.00454053
v -0.01163479 -0.00770811 -0.00541957
v -0.01143232 -0.00792350 -0.00557101
v -0.01163479 -0.00748292 -0.00572648
v -0.01143232 -0.00716776 -0.00651469
v -0.01163479 -0.00697292 -0.00633760
v -0.01163479 -0.00632368 -0.00698553
v -0.01163479 -0.00880865 -0.00334582
v -0.01143232 -0.00905479 -0.00343931
v -0.01163480 -0.00903072 -0.00268938
v -0.01143232 -0.00941271 -0.00228451
v -0.01163479 -0.00915684 -0.00222241
v -0.01143232 -0.00962398 -0.00109412
v -0.01163480 -0.00936237 -0.00106437
v -0.01143232 -0.00959575 0.00131900
v -0.01163480 -0.00939666 0.00069968
v -0.01143232 -0.00968531 0.00011333
v -0.01163480 -0.00942203 0.00011024
v -0.01163480 -0.00936822 -0.00101154
v -0.01163481 -0.00853284 0.00399717
v -0.01163480 -0.00872795 0.00355101
v -0.01143233 -0.00897184 0.00365024
v -0.01163480 -0.00910233 0.00243606
v -0.01143233 -0.00935668 0.00250413
v -0.01163480 -0.00911510 0.00238781
v -0.01163480 -0.00933490 0.00128315
v -0.01163480 -0.00821759 0.00461064
v -0.01143233 -0.00844721 0.00473948
v -0.01163481 -0.00766908 0.00547466
v -0.01143233 -0.00779098 0.00575488
v -0.01163481 -0.00757919 0.00559844
v -0.01143233 -0.00701337 0.00668062
v -0.01163481 -0.00682272 0.00649902
v -0.01163481 -0.00371430 0.00865971
v -0.01163481 -0.00397072 0.00854517
v -0.01143234 -0.00408168 0.00878395
v -0.01163481 -0.00500432 0.00798395
v -0.01143234 -0.00514415 0.00820705
v -0.01163481 -0.00521940 0.00784503
v -0.01143234 -0.00612649 0.00750228
v -0.01163481 -0.00595995 0.00729834
v -0.01163481 -0.00655232 0.00677154
v -0.01163481 -0.00287526 0.00897326
v -0.01143234 -0.00295561 0.00922400
v -0.01163482 -0.00208666 0.00918871
v -0.01143234 -0.00178349 0.00952034
v -0.01163482 -0.00173501 0.00926154
v -0.01143234 -0.00058359 0.00966836
v -0.01163482 -0.00056772 0.00940553
v -0.01143234 0.00062541 0.00966574
v -0.01163482 0.00060841 0.00940299
v -0.01163482 -0.00039018 0.00941457
v -0.01109913 0.00063865 0.00987031
v -0.01111783 0.00134594 0.00979174
v -0.01141753 0.00132084 0.00960908
v -0.01077281 -0.00350352 0.00931596
v -0.01077281 -0.00303708 0.00947828
v -0.01109912 -0.00301816 0.00941923
v -0.01077281 -0.00183265 0.00978279
v -0.01109913 -0.00182124 0.00972184
v -0.01077281 -0.00059967 0.00993488
v -0.01109913 -0.00059594 0.00987299
v -0.01077281 -0.00014072 0.00995197
v -0.01077281 0.00064265 0.00993219
v -0.01077281 0.00135536 0.00986024
v -0.01077281 -0.00419419 0.00902610
v -0.01109912 -0.00416806 0.00896986
v -0.01077281 -0.00505303 0.00857488
v -0.01109912 -0.00525303 0.00838075
v -0.01077281 -0.00528596 0.00843329
v -0.01109912 -0.00625615 0.00766106
v -0.01077281 -0.00629537 0.00770909
v -0.01109912 -0.00795587 0.00587668
v -0.01077280 -0.00765894 0.00635629
v -0.01109912 -0.00716180 0.00682201
v -0.01077280 -0.00720670 0.00686478
v -0.01077280 -0.00645206 0.00757843
v -0.01077280 -0.00935927 0.00338614
v -0.01077280 -0.00921916 0.00375087
v -0.01109911 -0.00916172 0.00372750
v -0.01077280 -0.00868007 0.00487013
v -0.01109911 -0.00862599 0.00483979
v -0.01077280 -0.00863773 0.00494485
v -0.01077280 -0.00800575 0.00591353
v -0.01077280 -0.00961461 0.00257316
v -0.01109911 -0.00955471 0.00255713
v -0.01077279 -0.00980208 0.00172659
v -0.01109911 -0.00979884 0.00134692
v -0.01077280 -0.00986027 0.00135536
v -0.01109911 -0.00989030 0.00011572
v -0.01077279 -0.00995231 0.00011645
v -0.01077279 -0.00995297 0.00001561
v -0.01109910 -0.00982767 -0.00111727
v -0.01077279 -0.00988929 -0.00112428
v -0.01077279 -0.00865320 -0.00491773
v -0.01077279 -0.00879165 -0.00466570
v -0.01109910 -0.00873687 -0.00463663
v -0.01077279 -0.00930440 -0.00353412
v -0.01109910 -0.00924643 -0.00351211
v -0.01077279 -0.00936985 -0.00335676
v -0.01109910 -0.00961193 -0.00233286
v -0.01077279 -0.00967219 -0.00234749
v -0.01077279 -0.00980745 -0.00169583
v -0.01077279 -0.00814193 -0.00572458
v -0.01109910 -0.00809120 -0.00568892
v -0.01077278 -0.00767884 -0.00633223
v -0.01109910 -0.00731946 -0.00665257
v -0.01077279 -0.00736535 -0.00669428
v -0.01109910 -0.00643369 -0.00751258
v -0.01077278 -0.00647403 -0.00755968
v -0.01109910 -0.00544768 -0.00825554
v -0.01077278 -0.00548184 -0.00830730
v -0.01077278 -0.00157240 -0.00982797
v -0.01077278 -0.00206105 -0.00973723
v -0.01109910 -0.00204821 -0.00967656
v -0.01077278 -0.00325803 -0.00940462
v -0.01109910 -0.00323773 -0.00934603
v -0.01077278 -0.00338613 -0.00935925
v -0.01109910 -0.00437680 -0.00886988
v -0.01077278 -0.00440424 -0.00892549
v -0.01077278 -0.00507991 -0.00855899
v -0.01077278 -0.00135536 -0.00986024
v -0.01163481 0.00128314 0.00933487
v 0.00000000 0.00228394 0.00991906
v 0.00000000 0.00346290 0.00957144
v -0.01077281 0.00338613 0.00935925
v 0.00000000 -0.00883354 0.00505694
v 0.00000000 -0.00908425 0.00459136
v 0.00000000 -0.00846459 0.00565287
v 0.00000000 -0.00783257 0.00650039
v 0.00000000 -0.00772149 0.00663195
v 0.00000000 -0.00686580 0.00751432
v 0.00000000 -0.00659833 0.00775024
v 0.00000000 -0.00590999 0.00828711
v 0.00000000 -0.00516759 0.00876928
v 0.00000000 -0.00486800 0.00893906
v 0.00000000 -0.00375502 0.00946066
v 0.00000000 -0.00358295 0.00952716
v 0.00000000 -0.00258729 0.00984429
v 0.00000000 -0.00015621 0.01017742
v 0.00000000 -0.00138183 0.01008438
v 0.00000000 -0.00189160 0.01000130
v 0.00000000 0.00160805 0.01005079
v 0.00000000 0.00107168 0.01012204
v -0.01077281 0.00325803 0.00940462
v -0.01077281 0.00206105 0.00973722
v -0.01077281 0.00157240 0.00982797
v -0.01558961 -0.00104386 -0.00168803
v -0.01558961 -0.00113526 -0.00162797
v -0.01564797 -0.00099351 -0.00142469
v -0.01558961 -0.00133198 -0.00147138
v -0.01558961 -0.00151793 -0.00127867
v -0.01564797 -0.00132840 -0.00111900
v -0.01558961 -0.00191995 0.00050297
v -0.01558961 -0.00186634 0.00067525
v -0.01564797 -0.00163330 0.00059094
v -0.01558961 -0.00138014 0.00142633
v -0.01558961 -0.00127868 0.00151796
v -0.01564797 -0.00111901 0.00132842
v -0.01558961 -0.00043952 0.00193548
v -0.01558961 -0.00034840 0.00195394
v -0.01564797 -0.00030489 0.00170996
v -0.01558961 0.00062875 0.00188253
v -0.01558961 0.00067524 0.00186636
v -0.01564797 0.00059093 0.00163332
v -0.01514814 -0.00089315 -0.00087450
v -0.01514814 -0.00071499 -0.00102530
v -0.01539435 -0.00075207 -0.00107847
v -0.01514814 -0.00118414 -0.00040037
v -0.01514814 -0.00113186 -0.00053043
v -0.01539435 -0.00119056 -0.00055794
v -0.01514814 -0.00105133 0.00067618
v -0.01514814 -0.00117543 0.00042528
v -0.01539435 -0.00123638 0.00044734
v -0.01514814 -0.00065384 0.00106538
v -0.01514814 -0.00080532 0.00095603
v -0.01539435 -0.00084708 0.00100560
v -0.01514814 -0.00012684 0.00124356
v -0.01514814 -0.00021942 0.00123061
v -0.01539435 -0.00023080 0.00129442
v -0.01514814 0.00010656 0.00124547
v -0.01514814 -0.00123058 -0.00021941
v -0.01564797 0.00014806 0.00173061
v -0.01557672 -0.00026198 0.00146932
v -0.01557672 0.00012723 0.00148707
v -0.01539435 0.00011208 0.00131005
v -0.01564797 -0.00157276 -0.00073706
v -0.01564797 -0.00170993 -0.00030488
v -0.01557672 -0.00135143 -0.00063333
v -0.01557672 -0.00146930 -0.00026197
v -0.01539435 -0.00129440 -0.00023079
v -0.01558961 0.00027787 0.00196521
v -0.01558961 0.00016919 0.00197753
v -0.01557672 0.00050777 0.00140347
v -0.01539435 0.00044733 0.00123641
v -0.01514814 0.00042527 0.00117545
v -0.01558961 -0.00008218 0.00198305
v -0.01558961 -0.00109938 0.00165245
v -0.01558961 -0.00084224 0.00179718
v -0.01564797 -0.00073707 0.00157278
v -0.01558961 -0.00078235 0.00182405
v -0.01557672 -0.00063334 0.00135145
v -0.01539435 -0.00055795 0.00119058
v -0.01514814 -0.00053044 0.00113189
v -0.01557672 -0.00096154 0.00114148
v -0.01558961 -0.00179730 0.00084195
v -0.01558961 -0.00162798 0.00113529
v -0.01564797 -0.00142470 0.00099353
v -0.01558961 -0.00161537 0.00115316
v -0.01557672 -0.00122421 0.00085372
v -0.01539435 -0.00107848 0.00075210
v -0.01514814 -0.00102531 0.00071502
v -0.01557672 -0.00140345 0.00050778
v -0.01514814 -0.00124544 0.00010657
v -0.01539435 -0.00131003 0.00011209
v -0.01557672 -0.00148704 0.00012724
v -0.01564797 -0.00173058 0.00014807
v -0.01558961 -0.00197326 -0.00021305
v -0.01558961 -0.00197925 0.00014739
v -0.01558961 -0.00197751 0.00016920
v -0.01558961 -0.00195391 -0.00034838
v -0.01558961 -0.00157615 -0.00120618
v -0.01558961 -0.00176833 -0.00090118
v -0.01558961 -0.00179716 -0.00084222
v -0.01558961 -0.00190217 -0.00056646
v -0.01557672 -0.00114145 -0.00096153
v -0.01539435 -0.00100558 -0.00084707
v -0.01514814 -0.00095600 -0.00080531
v -0.01557672 -0.00085369 -0.00122419
v -0.01564797 -0.00059091 -0.00163328
v -0.01558961 -0.00067523 -0.00186632
v -0.01558961 -0.00072130 -0.00184901
v -0.01557672 -0.00050776 -0.00140343
v -0.01539435 -0.00044731 -0.00123637
v -0.01514814 -0.00042526 -0.00117542
v -0.01333745 0.00088669 0.00614689
v -0.01347492 0.00097297 0.00588198
v -0.01354072 0.00104116 0.00574371
v -0.01377900 0.00183375 0.00506848
v -0.01375748 0.00156681 0.00519663
v -0.01370253 0.00134376 0.00536330
v -0.01360715 0.00113491 0.00559658
v -0.01288618 0.00094008 0.00700641
v -0.01298453 0.00088694 0.00682520
v -0.01281470 0.00099386 0.00713623
v -0.01279342 0.00101263 0.00717484
v -0.01163482 0.00131916 0.00932985
v -0.01315926 0.00084878 0.00649105
v -0.01322544 0.00085368 0.00636289
v -0.01163482 0.00195123 0.00921840
v -0.01223297 0.00224329 0.00800523
v -0.01230572 0.00194251 0.00795020
v -0.01234109 0.00182578 0.00791097
v -0.01240365 0.00164849 0.00782969
v -0.01252255 0.00138392 0.00764835
v -0.01257807 0.00128503 0.00755595
v -0.01266019 0.00116202 0.00741370
v -0.01163482 0.00320571 0.00886057
v -0.01216591 0.00286589 0.00792130
v -0.01163482 0.00308443 0.00890352
v -0.01216618 0.00283040 0.00793363
v -0.01218533 0.00254484 0.00799837
v -0.01366081 -0.00499536 0.00254922
v -0.01356236 -0.00506170 0.00282399
v -0.01354106 -0.00508000 0.00287427
v -0.01344177 -0.00517611 0.00307767
v -0.01328811 -0.00535249 0.00332656
v -0.01288614 -0.00598603 0.00376054
v -0.01279356 -0.00616013 0.00381213
v -0.01322557 -0.00543610 0.00341515
v -0.01312179 -0.00558860 0.00354589
v -0.01294756 -0.00587683 0.00371618
v -0.01264425 -0.00646688 0.00385148
v -0.01257102 -0.00662922 0.00384708
v -0.01250938 -0.00677255 0.00382864
v -0.01225990 -0.00747078 0.00350579
v -0.01229328 -0.00735849 0.00359029
v -0.01232868 -0.00724792 0.00365881
v -0.01238624 -0.00708344 0.00373839
v -0.01218229 -0.00778430 0.00314744
v -0.01219363 -0.00772902 0.00322969
v -0.01222873 -0.00758448 0.00340121
v -0.01216591 -0.00792128 0.00286590
v -0.01216618 -0.00793363 0.00283034
v -0.01218534 -0.00799836 0.00254478
v -0.01223299 -0.00800520 0.00224323
v -0.01226639 -0.00798548 0.00209202
v -0.01240369 -0.00782963 0.00164845
v -0.01234111 -0.00791095 0.00182579
v -0.01230575 -0.00795016 0.00194246
v -0.01252260 -0.00764828 0.00138388
v -0.01257809 -0.00755593 0.00128505
v -0.01266023 -0.00741363 0.00116200
v -0.01281473 -0.00713616 0.00099385
v -0.01288618 -0.00700639 0.00094009
v -0.01298458 -0.00682509 0.00088693
v -0.01315933 -0.00649092 0.00084879
v -0.01322545 -0.00636287 0.00085369
v -0.01333750 -0.00614678 0.00088672
v -0.01347497 -0.00588185 0.00097303
v -0.01354073 -0.00574369 0.00104117
v -0.01360719 -0.00559647 0.00113498
v -0.01322555 -0.00341512 -0.00543609
v -0.01312077 -0.00354700 -0.00559010
v -0.01328709 -0.00332805 -0.00535381
v -0.01294611 -0.00371730 -0.00587934
v -0.01288614 -0.00376052 -0.00598603
v -0.01250837 -0.00382820 -0.00677491
v -0.01238507 -0.00373706 -0.00708658
v -0.01257101 -0.00384706 -0.00662920
v -0.01279232 -0.00381266 -0.00616250
v -0.01264310 -0.00385152 -0.00646931
v -0.01232808 -0.00365878 -0.00724794
v -0.01228915 -0.00358453 -0.00736687
v -0.01222068 -0.00338071 -0.00760424
v -0.01219140 -0.00322965 -0.00772908
v -0.01218066 -0.00314682 -0.00778469
v -0.01216591 -0.00286587 -0.00792126
v -0.01377444 -0.00196188 -0.00502857
v -0.01373482 -0.00225468 -0.00498255
v -0.01365993 -0.00255191 -0.00499574
v -0.01355981 -0.00283004 -0.00506380
v -0.01354106 -0.00287417 -0.00507996
v -0.01344050 -0.00308008 -0.00517749
v -0.01377900 -0.00183374 -0.00506845
v -0.01373539 -0.00498272 0.00225195
v -0.01377459 -0.00502915 0.00195975
v -0.01370255 -0.00536324 0.00134382
v -0.01375748 -0.00519660 0.00156682
v -0.01377900 -0.00506846 0.00183376
v 0.00102094 0.00789205 -0.00344552
v 0.00102094 0.00818104 -0.00295984
v -0.01216591 0.00792129 -0.00286586
v -0.01218066 0.00778472 -0.00314681
v -0.01219140 0.00772910 -0.00322964
v 0.00102094 0.00747509 -0.00377357
v -0.01222067 0.00760431 -0.00338065
v -0.01225661 0.00747384 -0.00350328
v -0.01228912 0.00736698 -0.00358446
v -0.01232807 0.00724796 -0.00365877
v 0.00102094 0.00699926 -0.00393172
v -0.01238502 0.00708674 -0.00373699
v 0.00102094 0.00689770 -0.00394384
v -0.01250831 0.00677509 -0.00382816
v -0.01257100 0.00662923 -0.00384704
v 0.00102094 0.00646002 -0.00391670
v -0.01264303 0.00646948 -0.00385151
v 0.00102094 0.00626031 -0.00385973
v -0.01279224 0.00616268 -0.00381269
v -0.01288619 0.00598595 -0.00376047
v -0.01295995 0.00585570 -0.00370641
v 0.00101608 0.00604143 -0.00376006
v 0.00102094 0.00616672 -0.00382227
v -0.01323335 0.00543640 -0.00341548
v -0.01329422 0.00535522 -0.00332976
v -0.01311412 0.00560597 -0.00355869
v -0.01377900 0.00506847 -0.00183373
v -0.01377819 0.00505038 -0.00188685
v -0.01344267 0.00517662 -0.00307853
v -0.01354087 0.00508015 -0.00287460
v -0.01357849 0.00504860 -0.00278399
v -0.01368122 0.00498703 -0.00247935
v -0.01374913 0.00498913 -0.00217543
v 0.00102094 -0.00344554 -0.00789202
v 0.00102094 -0.00295985 -0.00818101
v 0.00102094 -0.00377359 -0.00747507
v 0.00102094 -0.00393173 -0.00699923
v 0.00102094 -0.00394385 -0.00689767
v 0.00102094 -0.00391671 -0.00646000
v 0.00102094 -0.00385974 -0.00626028
v 0.00096403 -0.00351677 -0.00571521
v 0.00100148 -0.00368697 -0.00592307
v 0.00101608 -0.00376007 -0.00604140
v 0.00102094 -0.00382228 -0.00616670
v 0.00087957 -0.00294127 -0.00535495
v 0.00091573 -0.00322802 -0.00548784
v 0.00095613 -0.00347536 -0.00567463
v 0.00083062 -0.00233111 -0.00526853
v 0.00085198 -0.00265716 -0.00528258
v 0.00082183 -0.00202135 -0.00532816
v 0.00102094 -0.00789203 0.00344556
v 0.00102094 -0.00818102 0.00295987
v 0.00102094 -0.00747508 0.00377361
v 0.00102094 -0.00699925 0.00393175
v 0.00102094 -0.00689769 0.00394388
v 0.00102094 -0.00646001 0.00391674
v 0.00102094 -0.00626029 0.00385977
v 0.00096403 -0.00571522 0.00351680
v 0.00100148 -0.00592308 0.00368700
v 0.00101608 -0.00604142 0.00376010
v 0.00102094 -0.00616671 0.00382231
v 0.00087957 -0.00535496 0.00294130
v 0.00091573 -0.00548785 0.00322804
v 0.00095613 -0.00567464 0.00347538
v 0.00083062 -0.00526854 0.00233114
v 0.00085198 -0.00528259 0.00265719
v 0.00082144 -0.00535605 0.00193781
v 0.00082183 -0.00532817 0.00202137
v 0.00102094 0.00344555 0.00789206
v 0.00102094 0.00295986 0.00818105
v -0.01218066 0.00314683 0.00778473
v -0.01219140 0.00322966 0.00772911
v 0.00102094 0.00377360 0.00747510
v -0.01222085 0.00338138 0.00760366
v -0.01228951 0.00358533 0.00736577
v -0.01232808 0.00365879 0.00724797
v 0.00102094 0.00393174 0.00699927
v -0.01238572 0.00373780 0.00708486
v 0.00102094 0.00394387 0.00689771
v -0.01250919 0.00382855 0.00677301
v -0.01257101 0.00384707 0.00662924
v 0.00102094 0.00391673 0.00646003
v -0.01264403 0.00385148 0.00646737
v 0.00102094 0.00385976 0.00626032
v -0.01279332 0.00381223 0.00616061
v -0.01288614 0.00376053 0.00598606
v -0.01294729 0.00371638 0.00587732
v 0.00101608 0.00376008 0.00604144
v 0.00102094 0.00382230 0.00616673
v -0.01322560 0.00341513 0.00543613
v -0.01328764 0.00332731 0.00535318
v -0.01344097 0.00307922 0.00517703
v -0.01354107 0.00287419 0.00508000
v -0.01312131 0.00354644 0.00558937
v -0.01356021 0.00282912 0.00506351
v -0.01377450 0.00196114 0.00502881
v -0.01373499 0.00225389 0.00498263
v -0.01366019 0.00255112 0.00499566
v -0.00154195 -0.00035532 -0.00119841
v -0.01514814 -0.00010654 -0.00124543
v -0.00154195 -0.00009023 -0.00124672
v -0.01514814 0.00012686 -0.00124353
v -0.00154195 0.00017905 -0.00123709
v -0.01514814 0.00021943 -0.00123057
v -0.01514814 0.00053046 -0.00113185
v -0.00154195 0.00044002 -0.00116998
v -0.01514814 0.00065385 -0.00106534
v -0.00154195 0.00068053 -0.00104850
v -0.01514814 0.00080533 -0.00095599
v -0.01514814 0.00102532 -0.00071498
v -0.00154195 0.00088943 -0.00087829
v -0.01514814 0.00105134 -0.00067615
v -0.00154195 0.00105699 -0.00066727
v -0.01514814 0.00117544 -0.00042525
v -0.00154195 0.00117544 -0.00042525
v -0.01514814 0.00124546 -0.00010653
v -0.00154195 0.00123927 -0.00016346
v -0.01514814 0.00123060 0.00021944
v -0.00154195 0.00124551 0.00010592
v -0.01514814 0.00118415 0.00040040
v -0.00154195 0.00119388 0.00037039
v -0.01514814 0.00113187 0.00053047
v -0.00154195 0.00108677 0.00061764
v -0.01514814 0.00095602 0.00080534
v -0.00154195 0.00092915 0.00083619
v -0.01514814 0.00089316 0.00087453
v -0.01514814 0.00071501 0.00102533
v -0.00154195 0.00072837 0.00101589
v -0.00154195 0.00049373 0.00114838
v 0.00088333 0.00114649 0.00602826
v 0.00087519 0.00118692 0.00596139
v 0.00084590 0.00138909 0.00570325
v 0.00082764 0.00163697 0.00550164
v 0.00096403 0.00095395 0.00664238
v 0.00095219 0.00096349 0.00655587
v 0.00091300 0.00103714 0.00626217
v 0.00101608 0.00097588 0.00704875
v 0.00100148 0.00095635 0.00691104
v 0.00099513 0.00095269 0.00686598
v 0.00102094 0.00103933 0.00728073
v 0.00102094 0.00100824 0.00718484
v 0.00102094 0.00126401 0.00768902
v 0.00102094 0.00138251 0.00782439
v 0.00102094 0.00165801 0.00804444
v 0.00102094 0.00192173 0.00817445
v 0.00102094 0.00212175 0.00823417
v 0.00102094 0.00255791 0.00826658
v 0.00102094 0.00266069 0.00825558
v 0.00088333 -0.00602823 0.00114650
v 0.00087519 -0.00596137 0.00118693
v 0.00084590 -0.00570322 0.00138910
v 0.00082764 -0.00550162 0.00163698
v 0.00096403 -0.00664236 0.00095396
v 0.00095219 -0.00655584 0.00096350
v 0.00091300 -0.00626214 0.00103715
v 0.00102094 -0.00728071 0.00103934
v 0.00102094 -0.00718482 0.00100825
v 0.00101608 -0.00704873 0.00097589
v 0.00100148 -0.00691102 0.00095636
v 0.00099513 -0.00686595 0.00095270
v 0.00102094 -0.00768899 0.00126402
v 0.00102094 -0.00782437 0.00138253
v 0.00102094 -0.00804442 0.00165802
v 0.00102094 -0.00817442 0.00192174
v 0.00102094 -0.00823415 0.00212176
v 0.00102094 -0.00826656 0.00255792
v 0.00102094 -0.00825555 0.00266070
v -0.01354070 -0.00104115 -0.00574368
v -0.01360648 -0.00113385 -0.00559800
v -0.01370223 -0.00134295 -0.00536400
v -0.01375747 -0.00156680 -0.00519658
v -0.01322544 -0.00085366 -0.00636285
v -0.01333642 -0.00088622 -0.00614886
v -0.01347407 -0.00097221 -0.00588368
v 0.00101608 -0.00097587 -0.00704871
v -0.01288618 -0.00094007 -0.00700638
v -0.01298321 -0.00088749 -0.00682762
v -0.01315803 -0.00084878 -0.00649337
v -0.01281374 -0.00099466 -0.00713792
v 0.00102094 -0.00103932 -0.00728070
v 0.00102094 -0.00100822 -0.00718481
v -0.01279326 -0.00101276 -0.00717507
v -0.01265932 -0.00116315 -0.00741516
v 0.00102094 -0.00126400 -0.00768898
v -0.01257805 -0.00128502 -0.00755591
v 0.00102094 -0.00138250 -0.00782436
v -0.01252179 -0.00138531 -0.00764951
v -0.01240302 -0.00165006 -0.00783050
v 0.00102094 -0.00165799 -0.00804440
v -0.01234107 -0.00182576 -0.00791094
v 0.00102094 -0.00192172 -0.00817441
v -0.01230522 -0.00194418 -0.00795065
v 0.00102094 -0.00212174 -0.00823414
v -0.01223261 -0.00224501 -0.00800533
v 0.00102094 -0.00255790 -0.00826655
v -0.01218513 -0.00254653 -0.00799812
v -0.01216615 -0.00283195 -0.00793307
v 0.00102094 -0.00266068 -0.00825554
v -0.01354072 0.00574370 -0.00104114
v -0.01360717 0.00559652 -0.00113492
v -0.01370254 0.00536327 -0.00134377
v -0.01375748 0.00519661 -0.00156678
v -0.01322543 0.00636288 -0.00085365
v -0.01333749 0.00614678 -0.00088668
v -0.01347495 0.00588190 -0.00097298
v 0.00102094 0.00728072 -0.00103930
v 0.00102094 0.00718483 -0.00100821
v -0.01288618 0.00700640 -0.00094006
v 0.00101608 0.00704874 -0.00097586
v -0.01298460 0.00682505 -0.00088688
v -0.01315931 0.00649092 -0.00084875
v -0.01281476 0.00713611 -0.00099378
v -0.01266023 0.00741360 -0.00116193
v 0.00102094 0.00768900 -0.00126399
v -0.01257806 0.00755594 -0.00128501
v 0.00102094 0.00782438 -0.00138249
v -0.01252258 0.00764827 -0.00138382
v -0.01240368 0.00782963 -0.00164838
v 0.00102094 0.00804443 -0.00165798
v -0.01234108 0.00791096 -0.00182575
v 0.00102094 0.00817444 -0.00192170
v -0.01230573 0.00795016 -0.00194240
v -0.01226638 0.00798549 -0.00209197
v 0.00102094 0.00823416 -0.00212173
v -0.01223299 0.00800521 -0.00224318
v 0.00102094 0.00826657 -0.00255789
v -0.01218534 0.00799837 -0.00254474
v -0.01216618 0.00793365 -0.00283030
v 0.00102094 0.00825556 -0.00266066
v -0.01558961 -0.00062873 -0.00188250
v -0.01558961 0.00179732 -0.00084192
v -0.01558961 0.00191996 -0.00050293
v -0.01558961 0.00186635 -0.00067522
v -0.01163481 0.00933489 -0.00128315
v -0.01163481 0.00911511 -0.00238777
v -0.01163481 0.00939666 -0.00069964
v -0.01558961 0.00197926 -0.00014735
v -0.01558961 0.00197752 -0.00016916
v -0.01163480 0.00872794 -0.00355102
v -0.01163480 0.00853286 -0.00399713
v -0.01163481 0.00910233 -0.00243606
v -0.01558961 0.00162799 -0.00113525
v -0.01558961 0.00161538 -0.00115313
v -0.01163480 0.00766910 -0.00547463
v -0.01163480 0.00821758 -0.00461065
v -0.01558961 -0.00027785 -0.00196517
v -0.01163479 0.00039020 -0.00941457
v -0.01163479 -0.00060841 -0.00940299
v -0.01558961 -0.00016917 -0.00197749
v -0.01558961 0.00109939 -0.00165241
v -0.01163480 0.00500431 -0.00798395
v -0.01558961 0.00084225 -0.00179715
v -0.01163480 0.00397072 -0.00854517
v -0.01558961 0.00078237 -0.00182401
v -0.01163480 0.00757919 -0.00559844
v -0.01163480 0.00682271 -0.00649902
v -0.01558961 0.00138015 -0.00142630
v -0.01163480 0.00655235 -0.00677152
v -0.01558961 0.00127869 -0.00151792
v -0.01163480 0.00595994 -0.00729834
v -0.01163480 0.00521943 -0.00784501
v -0.01163481 0.00942202 -0.00011025
v -0.01558961 0.00197327 0.00021309
v -0.01558961 0.00195392 0.00034842
v -0.01163481 0.00936236 0.00106437
v -0.01163481 0.00936821 0.00101157
v -0.01558961 0.00176834 0.00090122
v -0.01163482 0.00839529 0.00427853
v -0.01558961 0.00179717 0.00084226
v -0.01163481 0.00880864 0.00334581
v -0.01558961 0.00190218 0.00056650
v -0.01163481 0.00903071 0.00268941
v -0.01163481 0.00915683 0.00222240
v -0.01558961 0.00157616 0.00120621
v -0.01163482 0.00770811 0.00541956
v -0.01163482 0.00832321 0.00441710
v -0.01163482 0.00632366 0.00698554
v -0.01558961 0.00104387 0.00168807
v -0.01558961 0.00113528 0.00162800
v -0.01558961 0.00133199 0.00147141
v -0.01558961 0.00151795 0.00127870
v -0.01163482 0.00697291 0.00633759
v -0.01163482 0.00748290 0.00572649
v -0.01163482 0.00612908 0.00715688
v -0.01163482 0.00495581 0.00801414
v -0.01163482 0.00518975 0.00786466
v -0.01163482 0.00416957 0.00844991
v -0.01558961 0.00072132 0.00184904
v -0.01558961 0.00034841 -0.00195390
v -0.01163479 0.00056772 -0.00940554
v -0.01558961 0.00008219 -0.00198302
v -0.01163479 0.00371432 -0.00865970
v -0.01163479 0.00287526 -0.00897326
v -0.01558961 0.00043953 -0.00193544
v -0.01163479 0.00208668 -0.00918870
v -0.01163479 0.00173501 -0.00926154
v 0.00102094 0.00312276 0.00863130
v 0.00102094 0.00205960 0.00894478
v 0.00102094 0.00894478 -0.00205960
v 0.00102094 0.00096641 0.00912782
v 0.00102094 0.00912782 -0.00096641
v 0.00102094 -0.00819196 0.00414038
v 0.00102094 -0.00763316 0.00509762
v 0.00102094 -0.00696306 0.00598053
v 0.00102094 0.00044887 0.00724134
v 0.00102094 0.00414038 0.00819196
v 0.00102094 0.00509762 0.00763316
v 0.00102094 0.00598053 0.00696306
v 0.00102094 0.00724133 -0.00044884
v 0.00102094 -0.00724132 0.00044888
v 0.00102094 0.00707413 0.00161092
v 0.00102094 0.00723144 0.00058702
v 0.00102094 0.00887735 0.00233316
v 0.00102094 -0.00044885 -0.00724131
v 0.00102094 -0.00161090 0.00707414
v 0.00102094 -0.00058700 0.00723146
v 0.00102094 -0.00233316 0.00887735
v 0.00102094 0.00909386 0.00124610
v 0.00102094 0.00917775 0.00014087
v 0.00102094 -0.00619142 0.00677623
v 0.00102094 -0.00124610 0.00909386
v 0.00102094 -0.00014087 0.00917775
v 0.00102094 0.00161091 -0.00707411
v 0.00102094 0.00058701 -0.00723142
v 0.00102094 -0.00707412 -0.00161089
v 0.00102094 -0.00723143 -0.00058699
v 0.00102094 -0.00260195 0.00677261
v 0.00102094 -0.00338619 0.00853140
v 0.00102094 -0.00353997 0.00633301
v 0.00102094 -0.00438985 0.00806103
v 0.00102094 -0.00440581 0.00576431
v 0.00102094 -0.00532949 0.00747312
v 0.00102094 -0.00518184 0.00507809
v 0.00102094 -0.00585222 0.00428834
v 0.00102094 0.00677623 0.00619142
v 0.00102094 -0.00677259 -0.00260194
v 0.00102094 -0.00633299 -0.00353996
v 0.00102094 -0.00576428 -0.00440580
v 0.00102094 -0.00507806 -0.00518183
v 0.00102094 -0.00428831 -0.00585221
v 0.00102094 0.00677260 0.00260198
v 0.00102094 0.00853139 0.00338619
v 0.00102094 0.00633300 0.00353999
v 0.00102094 0.00806103 0.00438985
v 0.00102094 0.00576430 0.00440584
v 0.00102094 0.00747312 0.00532949
v 0.00102094 0.00507807 0.00518186
v 0.00102094 0.00428833 0.00585225
v 0.00102094 0.00260197 -0.00677258
v 0.00102094 0.00353998 -0.00633298
v 0.00102094 0.00440582 -0.00576427
v 0.00102094 0.00518185 -0.00507805
v 0.00102094 0.00585223 -0.00428830
v -0.01564797 0.00099352 0.00142472
v -0.01564797 0.00132841 0.00111904
v -0.01564797 0.00163331 -0.00059090
v -0.01564797 0.00111903 -0.00132838
v -0.01564797 0.00030491 -0.00170992
v -0.01539435 0.00075209 0.00107850
v -0.01539435 0.00119057 0.00055798
v -0.01539435 0.00123640 -0.00044730
v -0.01539435 0.00084709 -0.00100557
v -0.01539435 0.00023081 -0.00129439
v -0.01564797 -0.00014805 -0.00173057
v -0.01557672 0.00026200 -0.00146929
v -0.01557672 -0.00012721 -0.00148703
v -0.01539435 -0.00011207 -0.00131002
v -0.01564797 0.00157277 0.00073709
v -0.01564797 0.00170995 0.00030492
v -0.01557672 0.00135144 0.00063337
v -0.01557672 0.00146931 0.00026201
v -0.01539435 0.00129441 0.00023082
v -0.01564797 0.00073708 -0.00157274
v -0.01557672 0.00063336 -0.00135141
v -0.01539435 0.00055796 -0.00119055
v -0.01557672 0.00096155 -0.00114144
v -0.01564797 0.00142471 -0.00099350
v -0.01557672 0.00122422 -0.00085368
v -0.01539435 0.00107849 -0.00075206
v -0.01557672 0.00140346 -0.00050774
v -0.01539435 0.00131004 -0.00011206
v -0.01557672 0.00148706 -0.00012720
v -0.01564797 0.00173060 -0.00014804
v -0.01557672 0.00114147 0.00096156
v -0.01539435 0.00100559 0.00084710
v -0.01557672 0.00085371 0.00122423
v -0.01077281 0.00440424 0.00892548
v 0.00000000 0.00459136 0.00908425
v 0.00000000 0.00519507 0.00875302
v -0.01077281 0.00507990 0.00855898
v -0.01077281 0.00548184 0.00830729
v 0.00000000 0.00565287 0.00846459
v -0.01077281 0.00647403 0.00755967
v 0.00000000 0.01017860 -0.00001597
v -0.01077280 0.00995297 -0.00001561
v 0.00000000 0.01017742 0.00015621
v -0.01077280 0.00988928 0.00112427
v 0.00000000 0.00662261 0.00772950
v 0.00000000 0.00663195 0.00772149
v -0.01077281 0.00736535 0.00669428
v 0.00000000 0.00751432 0.00686580
v -0.01077281 0.00767884 0.00633223
v 0.00000000 0.00785292 0.00647578
v -0.01077281 0.00814193 0.00572458
v 0.00000000 0.00828711 0.00590999
v -0.01077281 0.00865320 0.00491772
v 0.00000000 0.00884936 0.00502921
v -0.01077281 0.00879165 0.00466570
v 0.00000000 0.00893906 0.00486800
v -0.01077281 0.00930440 0.00353412
v 0.00000000 0.00946066 0.00375502
v -0.01077281 0.00936985 0.00335676
v 0.00000000 0.00958226 0.00343286
v -0.01077280 0.00967219 0.00234748
v 0.00000000 0.00984429 0.00258729
v -0.01077280 0.00980745 0.00169583
v 0.00000000 0.01002978 0.00173427
v 0.00000000 0.01008438 0.00138183
v -0.01077279 0.00863773 -0.00494485
v -0.01077279 0.00868007 -0.00487014
v -0.01077279 0.00921916 -0.00375087
v -0.01077280 0.00935927 -0.00338614
v 0.00000000 0.00991906 -0.00228394
v -0.01077280 0.00961461 -0.00257316
v 0.00000000 0.01002429 -0.00176573
v -0.01077280 0.00980208 -0.00172659
v 0.00000000 0.01012204 -0.00107168
v -0.01077280 0.00986027 -0.00135537
v -0.01077280 0.00995231 -0.00011645
v -0.01077279 0.00800575 -0.00591353
v -0.01077279 0.00765895 -0.00635629
v -0.01077279 0.00720670 -0.00686479
v -0.01077279 0.00645207 -0.00757844
v -0.01077279 0.00629537 -0.00770909
v -0.01077279 0.00528596 -0.00843329
v -0.01077279 0.00505303 -0.00857488
v -0.01077278 0.00419419 -0.00902610
v -0.01077279 0.00350352 -0.00931596
v -0.01077278 0.00303708 -0.00947828
v -0.01077278 0.00183265 -0.00978279
v -0.01077278 0.00059967 -0.00993489
v -0.01077278 0.00014072 -0.00995197
v -0.01077278 -0.00064265 -0.00993220
v -0.01143234 0.00317062 0.00915232
v -0.01143234 0.00428609 0.00868604
v -0.01143234 0.00533478 0.00808443
v -0.01143234 0.00630035 0.00735687
v -0.01143234 0.00855580 0.00454053
v -0.01143234 0.00792350 0.00557101
v -0.01143234 0.00716776 0.00651469
v -0.01143233 0.00905479 0.00343931
v -0.01143233 0.00941271 0.00228451
v -0.01143233 0.00962398 0.00109411
v -0.01143233 0.00959575 -0.00131901
v -0.01143233 0.00968531 -0.00011333
v -0.01143232 0.00897184 -0.00365025
v -0.01143233 0.00935668 -0.00250413
v -0.01143232 0.00844721 -0.00473949
v -0.01143232 0.00779098 -0.00575489
v -0.01143232 0.00701337 -0.00668063
v -0.01143232 0.00408168 -0.00878396
v -0.01143232 0.00514415 -0.00820705
v -0.01143232 0.00612649 -0.00750228
v -0.01143232 0.00295561 -0.00922401
v -0.01143232 0.00178349 -0.00952035
v -0.01143232 0.00058359 -0.00966837
v -0.01143232 -0.00062541 -0.00966575
v -0.01109910 -0.00063865 -0.00987032
v -0.01109910 0.00301816 -0.00941923
v -0.01109910 0.00182124 -0.00972184
v -0.01109910 0.00059594 -0.00987299
v -0.01109910 0.00416806 -0.00896986
v -0.01109910 0.00525303 -0.00838075
v -0.01109910 0.00625615 -0.00766106
v -0.01109910 0.00795587 -0.00587669
v -0.01109910 0.00716180 -0.00682202
v -0.01109911 0.00916172 -0.00372750
v -0.01109911 0.00862599 -0.00483980
v -0.01109911 0.00955471 -0.00255713
v -0.01109911 0.00979884 -0.00134692
v -0.01109911 0.00989030 -0.00011573
v -0.01109912 0.00982767 0.00111727
v -0.01109912 0.00873687 0.00463663
v -0.01109912 0.00924643 0.00351210
v -0.01109912 0.00961193 0.00233286
v -0.01109912 0.00809120 0.00568891
v -0.01109912 0.00731946 0.00665257
v -0.01109912 0.00643369 0.00751257
v -0.01109912 0.00544768 0.00825553
v -0.01109913 0.00204821 0.00967656
v -0.01109913 0.00323773 0.00934602
v -0.01109913 0.00437680 0.00886987
v -0.01143234 0.00200576 0.00947600
v 0.00094281 0.00932241 -0.00214656
v 0.00072061 0.00964103 -0.00221992
v 0.00038907 0.00985084 -0.00226823
v 0.00038907 0.01005242 -0.00106431
v 0.00038907 0.01010742 0.00015514
v 0.00038907 0.01001503 0.00137232
v 0.00038907 0.00977659 0.00256949
v 0.00038907 0.00939559 0.00372920
v 0.00038907 0.00887758 0.00483452
v 0.00038907 0.00823011 0.00586935
v 0.00038907 0.00746264 0.00681858
v 0.00038907 0.00658634 0.00766839
v 0.00038907 0.00561399 0.00840637
v 0.00038907 0.00455978 0.00902177
v 0.00038907 0.00343908 0.00950561
v 0.00038907 0.00106431 0.01005242
v 0.00038907 0.00226823 0.00985084
v 0.00038907 -0.00015514 0.01010742
v 0.00038907 -0.00137232 0.01001502
v 0.00038907 -0.00256949 0.00977659
v 0.00038907 -0.00372920 0.00939559
v 0.00038907 -0.00483452 0.00887758
v 0.00038907 -0.00586935 0.00823011
v 0.00038907 -0.00681858 0.00746264
v 0.00038907 -0.00766839 0.00658634
v 0.00038907 -0.00840637 0.00561399
v 0.00038907 -0.00902177 0.00455978
v 0.00072061 0.00983832 -0.00104164
v 0.00072061 0.00989214 0.00015183
v 0.00072061 0.00980171 0.00134309
v 0.00072061 0.00956836 0.00251477
v 0.00072061 0.00919547 0.00364977
v 0.00072061 0.00868850 0.00473155
v 0.00072061 0.00805482 0.00574433
v 0.00072061 0.00730369 0.00667335
v 0.00072061 0.00644605 0.00750506
v 0.00072061 0.00549442 0.00822732
v 0.00072061 0.00446266 0.00882962
v 0.00072061 0.00336583 0.00930315
v 0.00072061 0.00221992 0.00964103
v 0.00072061 0.00104164 0.00983832
v 0.00072061 -0.00015183 0.00989214
v 0.00072061 -0.00134309 0.00980171
v 0.00072061 -0.00251477 0.00956836
v 0.00072061 -0.00364977 0.00919547
v 0.00072061 -0.00473155 0.00868850
v 0.00072061 -0.00574433 0.00805482
v 0.00072061 -0.00667335 0.00730369
v 0.00072061 -0.00750506 0.00644605
v 0.00072061 -0.00822732 0.00549442
v 0.00072061 -0.00882962 0.00446266
v 0.00094281 0.00951318 -0.00100721
v 0.00094281 0.00956522 0.00014682
v 0.00094281 0.00947778 0.00129871
v 0.00094281 0.00925214 0.00243166
v 0.00094281 0.00889158 0.00352915
v 0.00094281 0.00840135 0.00457518
v 0.00094281 0.00778862 0.00555449
v 0.00094281 0.00706231 0.00645281
v 0.00094281 0.00623302 0.00725703
v 0.00094281 0.00531284 0.00795542
v 0.00094281 0.00431518 0.00853781
v 0.00094281 0.00325460 0.00899570
v 0.00094281 0.00214656 0.00932241
v 0.00094281 0.00100721 0.00951318
v 0.00094281 -0.00014682 0.00956522
v 0.00094281 -0.00129871 0.00947778
v 0.00094281 -0.00243166 0.00925214
v 0.00094281 -0.00352915 0.00889158
v 0.00094281 -0.00457518 0.00840135
v 0.00094281 -0.00555449 0.00778862
v 0.00094281 -0.00645281 0.00706231
v 0.00094281 -0.00725703 0.00623302
v 0.00094281 -0.00795543 0.00531284
v 0.00094281 -0.00853781 0.00431518
v 0.00100148 0.00068032 0.00694365
v 0.00100148 -0.00391997 -0.00577152
v 0.00100148 -0.00697065 0.00029452
v 0.00100148 -0.00696351 0.00043166
v 0.00100148 -0.00562770 0.00412382
v 0.00100148 -0.00554545 0.00423378
v 0.00100148 -0.00412379 -0.00562769
v 0.00100148 -0.00488324 -0.00498302
v 0.00100148 -0.00500443 -0.00486131
v 0.00100148 -0.00554314 -0.00423677
v 0.00100148 -0.00695400 -0.00056447
v 0.00100148 -0.00688658 -0.00111879
v 0.00100148 -0.00680272 -0.00154908
v 0.00100148 -0.00651276 -0.00250212
v 0.00100148 -0.00609003 -0.00340414
v 0.00100148 -0.00588280 -0.00375090
v 0.00100148 -0.00498304 0.00488327
v 0.00100148 -0.00457655 0.00526613
v 0.00100148 -0.00423678 0.00554316
v 0.00100148 -0.00340416 0.00609005
v 0.00100148 -0.00250213 0.00651278
v 0.00100148 -0.00212101 0.00664668
v 0.00100148 -0.00154909 0.00680275
v 0.00100148 -0.00073549 0.00693802
v 0.00100148 -0.00056448 0.00695402
v 0.00100148 0.00043165 0.00696353
v 0.00101609 -0.00097587 -0.00704871
v 0.00101609 0.00604143 -0.00376006
v 0.00101609 0.00704874 -0.00097586
v 0.00101609 0.00376008 0.00604144
v 0.00101609 -0.00704873 0.00097590
v 0.00101609 -0.00376007 -0.00604141
v 0.00101609 0.00097589 0.00704875
v 0.00101609 -0.00604142 0.00376009
v -0.00116262 -0.00036564 -0.00123322
v 0.00034984 0.00102738 0.00238959
v 0.00034984 0.00151562 0.00211389
v 0.00034984 0.00193343 0.00173997
v 0.00034984 0.00226139 0.00128519
v 0.00034984 0.00248428 0.00077070
v 0.00034984 0.00259172 0.00022039
v 0.00034984 0.00257873 -0.00034016
v 0.00034984 0.00244591 -0.00088490
v 0.00034984 0.00219944 -0.00138852
v 0.00034984 0.00185076 -0.00182762
v 0.00034984 0.00141608 -0.00218179
v 0.00034984 0.00091560 -0.00243457
v 0.00034984 0.00037257 -0.00257423
v 0.00034984 -0.00018777 -0.00259426
v 0.00034984 -0.00073938 -0.00249374
v -0.00116262 -0.00009285 -0.00128293
v -0.00116262 0.00018425 -0.00127302
v -0.00116262 0.00045279 -0.00120396
v -0.00116262 0.00070030 -0.00107895
v -0.00116262 0.00091526 -0.00090380
v -0.00116262 0.00108769 -0.00068665
v -0.00116262 0.00120958 -0.00043760
v -0.00116262 0.00127526 -0.00016821
v -0.00116262 0.00128168 0.00010900
v -0.00116262 0.00122855 0.00038114
v -0.00116262 0.00111833 0.00063557
v -0.00116262 0.00095614 0.00086047
v -0.00116262 0.00074952 0.00104539
v -0.00116262 0.00050807 0.00118173
v -0.00066626 0.00057348 0.00133386
v -0.00022984 0.00068751 0.00159907
v 0.00011677 0.00084234 0.00195919
v 0.00011677 0.00124264 0.00173316
v 0.00011677 0.00158519 0.00142658
v 0.00011677 0.00185409 0.00105372
v 0.00011677 0.00203683 0.00063189
v 0.00011677 0.00212492 0.00018070
v 0.00011677 0.00211427 -0.00027889
v 0.00011677 0.00200537 -0.00072551
v 0.00011677 0.00180329 -0.00113843
v 0.00011677 0.00151742 -0.00149844
v 0.00011677 0.00116103 -0.00178881
v 0.00011677 0.00075069 -0.00199607
v 0.00011677 0.00030547 -0.00211057
v 0.00011677 -0.00015395 -0.00212700
v 0.00011677 -0.00060621 -0.00204458
v -0.00022984 0.00101422 0.00141458
v -0.00022984 0.00129381 0.00116436
v -0.00022984 0.00151328 0.00086003
v -0.00022984 0.00166243 0.00051574
v -0.00022984 0.00173433 0.00014749
v -0.00022984 0.00172564 -0.00022762
v -0.00022984 0.00163676 -0.00059215
v -0.00022984 0.00147182 -0.00092916
v -0.00022984 0.00123849 -0.00122300
v -0.00022984 0.00094762 -0.00146000
v -0.00022984 0.00061270 -0.00162916
v -0.00022984 0.00024932 -0.00172261
v -0.00022984 -0.00012565 -0.00173602
v -0.00022984 -0.00049478 -0.00166876
v -0.00066626 0.00084601 0.00117997
v -0.00066626 0.00107923 0.00097125
v -0.00066626 0.00126230 0.00071740
v -0.00066626 0.00138671 0.00043021
v -0.00066626 0.00144669 0.00012303
v -0.00066626 0.00143944 -0.00018987
v -0.00066626 0.00136530 -0.00049394
v -0.00066626 0.00122772 -0.00077506
v -0.00066626 0.00103309 -0.00102016
v -0.00066626 0.00079045 -0.00121785
v -0.00066626 0.00051109 -0.00135896
v -0.00066626 0.00020797 -0.00143691
v -0.00066626 -0.00010481 -0.00144810
v -0.00066626 -0.00041272 -0.00139199
f 1 2 3
f 4 1 5
f 6 4 7
f 8 6 9
f 10 8 11
f 12 10 13
f 14 15 13
f 13 15 16
f 13 16 12
f 17 18 14
f 14 18 19
f 14 19 15
f 20 21 17
f 17 21 22
f 17 22 18
f 23 24 20
f 20 24 25
f 20 25 21
f 26 27 23
f 23 27 28
f 23 28 24
f 29 30 26
f 26 30 31
f 26 31 27
f 32 33 34
f 34 33 35
f 34 35 29
f 29 35 36
f 29 36 30
f 32 34 37
f 37 34 38
f 37 38 39
f 39 38 40
f 39 40 41
f 41 40 42
f 42 40 43
f 42 43 44
f 44 43 45
f 45 43 46
f 45 46 47
f 47 46 48
f 48 46 49
f 48 49 50
f 50 49 51
f 51 49 52
f 51 52 53
f 53 52 54
f 54 52 55
f 54 55 56
f 56 55 57
f 56 57 58
f 1 3 5
f 5 3 59
f 5 59 60
f 60 59 61
f 60 61 62
f 62 61 63
f 62 63 64
f 64 63 65
f 64 65 66
f 66 65 67
f 66 67 68
f 68 67 69
f 68 69 70
f 70 69 71
f 70 71 72
f 72 71 73
f 72 73 74
f 74 73 75
f 74 75 76
f 76 75 77
f 76 77 78
f 78 77 79
f 78 79 80
f 80 79 81
f 80 81 82
f 82 81 83
f 82 83 84
f 84 83 85
f 84 85 86
f 86 85 87
f 86 87 88
f 10 11 13
f 13 11 89
f 13 89 14
f 14 89 90
f 14 90 17
f 17 90 91
f 17 91 20
f 20 91 92
f 20 92 23
f 23 92 93
f 23 93 26
f 26 93 94
f 26 94 29
f 29 94 95
f 29 95 34
f 34 95 96
f 34 96 38
f 38 96 97
f 38 97 40
f 40 97 98
f 40 98 43
f 43 98 99
f 43 99 46
f 46 99 100
f 46 100 49
f 49 100 101
f 49 101 52
f 52 101 102
f 52 102 55
f 55 102 103
f 55 103 57
f 8 9 11
f 11 9 104
f 11 104 89
f 89 104 105
f 89 105 90
f 90 105 106
f 90 106 91
f 91 106 107
f 91 107 92
f 92 107 108
f 92 108 93
f 93 108 109
f 93 109 94
f 94 109 110
f 94 110 95
f 95 110 111
f 95 111 96
f 96 111 112
f 96 112 97
f 97 112 113
f 97 113 98
f 98 113 114
f 98 114 99
f 99 114 115
f 99 115 100
f 100 115 116
f 100 116 101
f 101 116 117
f 101 117 102
f 102 117 118
f 102 118 103
f 6 7 9
f 9 7 119
f 9 119 104
f 104 119 120
f 104 120 105
f 105 120 121
f 105 121 106
f 106 121 122
f 106 122 107
f 107 122 123
f 107 123 108
f 108 123 124
f 108 124 109
f 109 124 125
f 109 125 110
f 110 125 126
f 110 126 111
f 111 126 127
f 111 127 112
f 112 127 128
f 112 128 113
f 113 128 129
f 113 129 114
f 114 129 130
f 114 130 115
f 115 130 131
f 115 131 116
f 116 131 132
f 116 132 117
f 117 132 133
f 117 133 118
f 4 5 7
f 7 5 60
f 7 60 119
f 119 60 62
f 119 62 120
f 120 62 64
f 120 64 121
f 121 64 66
f 121 66 122
f 122 66 68
f 122 68 123
f 123 68 70
f 123 70 124
f 124 70 72
f 124 72 125
f 125 72 74
f 125 74 126
f 126 74 76
f 126 76 127
f 127 76 78
f 127 78 128
f 128 78 80
f 128 80 129
f 129 80 82
f 129 82 130
f 130 82 84
f 130 84 131
f 131 84 86
f 131 86 132
f 132 86 88
f 132 88 133
f 134 135 136
f 137 58 138
f 138 58 139
f 140 141 142
f 143 144 145
f 141 146 142
f 142 146 147
f 142 147 139
f 139 147 148
f 139 148 138
f 149 150 151
f 151 150 152
f 151 152 153
f 153 152 154
f 155 156 157
f 156 158 157
f 157 158 159
f 157 159 160
f 160 159 161
f 162 163 164
f 164 163 165
f 164 165 166
f 166 165 167
f 166 167 149
f 149 167 168
f 149 168 150
f 169 170 171
f 171 170 172
f 173 174 175
f 175 174 176
f 162 164 176
f 176 164 177
f 176 177 175
f 178 179 135
f 135 179 180
f 180 181 135
f 135 181 182
f 135 182 136
f 136 182 183
f 183 184 136
f 136 184 185
f 136 185 186
f 135 187 178
f 178 187 12
f 178 12 188
f 145 140 143
f 143 140 142
f 143 142 189
f 189 142 190
f 189 190 191
f 191 190 192
f 191 192 193
f 193 192 194
f 193 194 195
f 195 194 196
f 154 155 153
f 153 155 157
f 153 157 197
f 197 157 198
f 197 198 199
f 199 198 200
f 199 200 201
f 201 200 202
f 201 202 203
f 203 202 204
f 203 204 205
f 205 204 206
f 205 206 196
f 196 206 207
f 196 207 195
f 170 173 172
f 172 173 175
f 172 175 208
f 208 175 209
f 208 209 210
f 210 209 211
f 210 211 212
f 212 211 213
f 212 213 214
f 214 213 215
f 214 215 216
f 216 215 217
f 216 217 218
f 218 217 219
f 218 219 220
f 220 219 221
f 220 221 222
f 222 221 223
f 222 223 224
f 224 223 134
f 224 134 225
f 225 134 136
f 226 227 228
f 227 229 230
f 229 231 232
f 231 233 234
f 231 234 232
f 232 234 235
f 232 235 236
f 235 237 236
f 236 237 238
f 236 238 239
f 238 240 239
f 239 240 241
f 239 241 242
f 242 241 243
f 242 243 244
f 244 243 245
f 244 245 246
f 246 245 247
f 247 248 246
f 246 248 249
f 246 249 250
f 250 249 251
f 250 251 252
f 252 251 253
f 252 253 254
f 254 253 255
f 256 257 258
f 258 257 259
f 258 259 260
f 260 259 261
f 260 261 262
f 262 261 263
f 262 263 264
f 264 263 254
f 264 254 265
f 265 254 255
f 266 267 256
f 256 267 268
f 256 268 257
f 266 269 267
f 267 269 270
f 267 270 271
f 271 270 272
f 271 272 273
f 273 272 274
f 273 274 275
f 274 276 275
f 275 276 277
f 275 277 278
f 277 279 278
f 278 279 280
f 278 280 281
f 281 280 282
f 281 282 283
f 283 282 284
f 283 284 285
f 285 284 286
f 286 287 285
f 285 287 288
f 285 288 289
f 289 288 290
f 289 290 291
f 291 290 292
f 291 292 293
f 293 292 294
f 294 295 293
f 293 295 296
f 293 296 297
f 229 232 230
f 230 232 236
f 230 236 298
f 298 236 239
f 298 239 299
f 299 239 242
f 299 242 300
f 300 242 244
f 300 244 301
f 301 244 246
f 301 246 302
f 302 246 250
f 302 250 303
f 303 250 252
f 303 252 304
f 304 252 254
f 304 254 305
f 305 254 263
f 305 263 306
f 306 263 261
f 306 261 307
f 307 261 259
f 307 259 308
f 308 259 257
f 308 257 309
f 309 257 268
f 309 268 310
f 310 268 267
f 310 267 311
f 311 267 271
f 311 271 312
f 312 271 273
f 312 273 313
f 313 273 275
f 313 275 314
f 314 275 278
f 314 278 315
f 315 278 281
f 315 281 316
f 316 281 283
f 316 283 317
f 317 283 285
f 317 285 318
f 318 285 289
f 318 289 319
f 319 289 291
f 319 291 320
f 320 291 293
f 320 293 321
f 321 293 297
f 321 297 322
f 227 230 228
f 228 230 298
f 228 298 323
f 323 298 299
f 323 299 324
f 324 299 300
f 324 300 325
f 325 300 301
f 325 301 326
f 326 301 302
f 326 302 327
f 327 302 303
f 327 303 328
f 328 303 304
f 328 304 329
f 329 304 305
f 329 305 330
f 330 305 306
f 330 306 331
f 331 306 307
f 331 307 332
f 332 307 308
f 332 308 333
f 333 308 309
f 333 309 334
f 334 309 310
f 334 310 335
f 335 310 311
f 335 311 336
f 336 311 312
f 336 312 337
f 337 312 313
f 337 313 338
f 338 313 314
f 338 314 339
f 339 314 315
f 339 315 340
f 340 315 316
f 340 316 341
f 341 316 317
f 341 317 342
f 342 317 318
f 342 318 343
f 343 318 319
f 343 319 344
f 344 319 320
f 344 320 345
f 345 320 321
f 345 321 346
f 346 321 322
f 346 322 347
f 226 228 348
f 348 228 323
f 348 323 349
f 349 323 324
f 349 324 350
f 350 324 325
f 350 325 351
f 351 325 326
f 351 326 352
f 352 326 327
f 352 327 353
f 353 327 328
f 353 328 354
f 354 328 329
f 354 329 355
f 355 329 330
f 355 330 356
f 356 330 331
f 356 331 357
f 357 331 332
f 357 332 358
f 358 332 333
f 358 333 359
f 359 333 334
f 359 334 360
f 360 334 335
f 360 335 361
f 361 335 336
f 361 336 362
f 362 336 337
f 362 337 363
f 363 337 338
f 363 338 364
f 364 338 339
f 364 339 365
f 365 339 340
f 365 340 366
f 366 340 341
f 366 341 367
f 367 341 342
f 367 342 368
f 368 342 343
f 368 343 369
f 369 343 344
f 369 344 370
f 370 344 345
f 370 345 371
f 371 345 346
f 371 346 372
f 372 346 347
f 372 347 373
f 374 375 376
f 374 376 377
f 378 379 380
f 380 379 377
f 380 377 381
f 381 377 376
f 381 376 382
f 378 380 383
f 383 380 384
f 383 384 385
f 385 384 386
f 385 386 387
f 387 386 388
f 387 388 389
f 390 391 392
f 392 391 393
f 392 393 394
f 394 393 395
f 394 395 396
f 396 395 397
f 396 397 388
f 388 397 398
f 388 398 389
f 390 392 399
f 399 392 400
f 399 400 401
f 401 400 402
f 401 402 403
f 403 402 404
f 403 404 405
f 406 407 408
f 408 407 409
f 408 409 404
f 404 409 410
f 404 410 405
f 411 412 413
f 413 412 414
f 413 414 415
f 415 414 416
f 415 416 406
f 406 416 417
f 406 417 407
f 411 413 418
f 418 413 419
f 418 419 420
f 420 419 421
f 420 421 422
f 422 421 423
f 422 423 424
f 425 426 427
f 427 426 428
f 427 428 429
f 429 428 430
f 429 430 431
f 431 430 432
f 431 432 423
f 423 432 433
f 423 433 424
f 425 427 434
f 434 427 435
f 434 435 436
f 436 435 437
f 436 437 438
f 438 437 439
f 438 439 440
f 441 442 439
f 439 442 443
f 439 443 440
f 444 445 446
f 447 448 449
f 449 448 450
f 449 450 451
f 451 450 452
f 451 452 453
f 453 452 454
f 453 454 444
f 444 454 455
f 444 455 445
f 445 455 456
f 447 449 457
f 457 449 458
f 457 458 459
f 459 458 460
f 459 460 461
f 461 460 462
f 461 462 463
f 464 465 466
f 466 465 467
f 466 467 462
f 462 467 468
f 462 468 463
f 469 470 471
f 471 470 472
f 471 472 473
f 473 472 474
f 473 474 464
f 464 474 475
f 464 475 465
f 469 471 476
f 476 471 477
f 476 477 478
f 478 477 479
f 478 479 480
f 480 479 481
f 480 481 482
f 482 481 483
f 483 481 484
f 483 484 485
f 486 487 488
f 488 487 489
f 488 489 490
f 490 489 491
f 490 491 492
f 492 491 493
f 492 493 484
f 484 493 494
f 484 494 485
f 486 488 495
f 495 488 496
f 495 496 497
f 497 496 498
f 497 498 499
f 499 498 500
f 499 500 501
f 501 500 502
f 501 502 503
f 504 505 506
f 506 505 507
f 506 507 508
f 508 507 509
f 508 509 510
f 510 509 511
f 510 511 502
f 502 511 512
f 502 512 503
f 513 504 382
f 382 504 506
f 382 506 381
f 381 506 508
f 381 508 380
f 380 508 510
f 380 510 384
f 384 510 502
f 384 502 386
f 386 502 500
f 386 500 388
f 388 500 498
f 388 498 396
f 396 498 496
f 396 496 394
f 394 496 488
f 394 488 392
f 392 488 490
f 392 490 400
f 400 490 492
f 400 492 402
f 402 492 484
f 402 484 404
f 404 484 481
f 404 481 408
f 408 481 479
f 408 479 406
f 406 479 477
f 406 477 415
f 415 477 471
f 415 471 413
f 413 471 473
f 413 473 419
f 419 473 464
f 419 464 421
f 421 464 466
f 421 466 423
f 423 466 462
f 423 462 431
f 431 462 460
f 431 460 429
f 429 460 458
f 429 458 427
f 427 458 449
f 427 449 435
f 435 449 451
f 435 451 437
f 437 451 453
f 437 453 439
f 439 453 444
f 439 444 441
f 441 444 446
f 441 446 442
f 442 446 514
f 515 516 517
f 511 509 258
f 503 512 262
f 262 512 511
f 262 511 260
f 260 511 258
f 238 483 240
f 240 483 485
f 503 262 501
f 501 262 264
f 501 264 499
f 499 264 265
f 499 265 497
f 497 265 255
f 497 255 495
f 495 255 253
f 495 253 486
f 486 253 251
f 486 251 487
f 487 251 249
f 487 249 489
f 489 249 248
f 489 248 491
f 491 248 247
f 491 247 493
f 493 247 245
f 493 245 494
f 494 245 243
f 494 243 485
f 485 243 241
f 485 241 240
f 518 474 472
f 518 472 519
f 519 472 470
f 519 470 233
f 233 470 469
f 233 469 234
f 234 469 476
f 234 476 235
f 235 476 478
f 235 478 237
f 237 478 480
f 237 480 238
f 238 480 482
f 238 482 483
f 474 518 475
f 475 518 520
f 475 520 465
f 465 520 521
f 465 521 467
f 521 522 467
f 467 522 523
f 467 523 468
f 468 523 524
f 468 524 463
f 463 524 525
f 463 525 461
f 461 525 526
f 461 526 459
f 459 526 527
f 459 527 457
f 457 527 528
f 457 528 447
f 447 528 529
f 447 529 448
f 448 529 530
f 448 530 450
f 531 452 532
f 532 452 450
f 532 450 533
f 533 450 530
f 534 456 535
f 535 456 455
f 535 455 531
f 531 455 454
f 531 454 452
f 517 536 515
f 515 536 537
f 515 537 534
f 534 537 538
f 534 538 456
f 539 540 541
f 542 543 544
f 545 546 547
f 548 549 550
f 551 552 553
f 554 555 556
f 557 558 559
f 560 561 562
f 563 564 565
f 566 567 568
f 569 570 571
f 569 571 572
f 560 562 573
f 553 574 575
f 575 574 576
f 575 576 571
f 571 576 577
f 571 577 572
f 578 579 580
f 580 579 581
f 580 581 562
f 562 581 582
f 562 582 573
f 554 556 583
f 584 583 574
f 574 583 556
f 574 556 576
f 576 556 585
f 576 585 577
f 577 585 586
f 577 586 572
f 572 586 587
f 553 552 574
f 574 552 588
f 574 588 584
f 589 590 591
f 591 590 592
f 592 551 591
f 591 551 553
f 591 553 593
f 593 553 575
f 593 575 594
f 594 575 571
f 594 571 595
f 595 571 570
f 549 589 550
f 550 589 591
f 550 591 596
f 596 591 593
f 596 593 568
f 568 593 594
f 568 594 566
f 566 594 595
f 597 598 599
f 599 598 600
f 600 548 599
f 599 548 550
f 599 550 601
f 601 550 596
f 601 596 602
f 602 596 568
f 602 568 603
f 603 568 567
f 546 597 547
f 547 597 599
f 547 599 604
f 604 599 601
f 604 601 565
f 565 601 602
f 565 602 563
f 563 602 603
f 564 605 565
f 565 605 606
f 565 606 604
f 604 606 607
f 604 607 547
f 547 607 608
f 547 608 545
f 609 610 608
f 608 610 611
f 608 611 545
f 612 609 579
f 579 609 608
f 579 608 581
f 581 608 607
f 581 607 582
f 582 607 606
f 582 606 573
f 573 606 605
f 613 614 578
f 578 614 615
f 578 615 579
f 579 615 616
f 579 616 612
f 543 613 544
f 544 613 578
f 544 578 617
f 617 578 580
f 617 580 618
f 618 580 562
f 618 562 619
f 619 562 561
f 540 542 541
f 541 542 544
f 541 544 620
f 620 544 617
f 620 617 559
f 559 617 618
f 559 618 557
f 557 618 619
f 621 622 623
f 623 539 621
f 621 539 541
f 621 541 624
f 624 541 620
f 624 620 625
f 625 620 559
f 625 559 626
f 626 559 558
f 627 628 583
f 583 628 629
f 630 555 631
f 631 555 554
f 631 554 632
f 632 554 583
f 632 583 633
f 633 583 629
f 634 635 443
f 634 443 636
f 636 443 442
f 636 442 637
f 637 442 514
f 637 514 638
f 584 639 583
f 583 639 640
f 583 640 627
f 641 642 638
f 638 642 643
f 643 644 638
f 638 644 645
f 638 645 646
f 646 647 638
f 638 647 648
f 638 648 637
f 649 650 651
f 651 650 652
f 651 652 641
f 641 652 653
f 641 653 642
f 552 440 588
f 588 440 443
f 588 443 584
f 584 443 635
f 584 635 639
f 592 434 551
f 551 434 436
f 551 436 552
f 552 436 438
f 552 438 440
f 589 428 590
f 590 428 426
f 590 426 592
f 592 426 425
f 592 425 434
f 420 422 600
f 600 422 424
f 600 424 548
f 548 424 433
f 548 433 549
f 549 433 432
f 549 432 589
f 589 432 430
f 589 430 428
f 654 655 600
f 655 656 600
f 600 656 657
f 600 657 658
f 659 660 420
f 658 661 600
f 600 661 662
f 600 662 420
f 420 662 663
f 420 663 659
f 660 664 420
f 420 664 665
f 420 665 666
f 667 411 668
f 668 411 418
f 668 418 669
f 669 418 420
f 669 420 670
f 670 420 666
f 671 412 672
f 672 412 411
f 672 411 673
f 673 411 667
f 671 674 412
f 412 674 675
f 412 675 414
f 414 675 676
f 414 676 416
f 676 677 416
f 416 677 678
f 416 678 417
f 679 407 680
f 680 407 417
f 680 417 681
f 681 417 678
f 679 682 407
f 407 682 683
f 407 683 684
f 684 685 407
f 407 685 686
f 407 686 687
f 688 689 610
f 610 689 690
f 610 690 691
f 691 692 610
f 610 692 693
f 610 693 611
f 611 693 545
f 687 688 407
f 407 688 610
f 407 610 409
f 409 610 609
f 612 405 609
f 609 405 410
f 609 410 409
f 614 390 615
f 615 390 399
f 615 399 616
f 616 399 401
f 616 401 612
f 612 401 403
f 612 403 405
f 613 393 614
f 614 393 391
f 614 391 390
f 694 695 398
f 539 696 540
f 540 696 694
f 540 694 542
f 542 694 398
f 542 398 543
f 543 398 397
f 543 397 613
f 613 397 395
f 613 395 393
f 695 697 398
f 398 697 698
f 398 698 389
f 699 700 385
f 699 385 701
f 389 698 387
f 387 698 702
f 387 702 385
f 385 702 703
f 385 703 701
f 700 704 385
f 385 704 705
f 385 705 383
f 383 705 706
f 383 706 707
f 707 708 383
f 383 708 709
f 383 709 378
f 710 711 539
f 539 711 712
f 539 712 713
f 713 714 539
f 539 714 715
f 539 715 696
f 539 623 710
f 710 623 622
f 710 622 716
f 600 598 654
f 654 598 597
f 654 597 717
f 717 597 718
f 693 719 545
f 545 719 720
f 545 720 721
f 718 597 721
f 721 597 546
f 721 546 545
f 722 723 724
f 724 725 722
f 722 725 726
f 722 726 727
f 727 726 728
f 727 728 729
f 729 730 727
f 727 730 731
f 727 731 732
f 732 731 733
f 732 733 734
f 733 735 734
f 734 735 736
f 734 736 737
f 737 736 738
f 737 738 739
f 739 738 740
f 739 740 741
f 742 170 741
f 741 170 169
f 169 743 741
f 741 743 744
f 741 744 739
f 174 745 176
f 176 745 746
f 742 747 170
f 170 747 745
f 170 745 173
f 173 745 174
f 748 167 749
f 749 167 165
f 746 750 176
f 176 750 751
f 176 751 162
f 162 751 752
f 162 752 163
f 163 752 753
f 163 753 165
f 165 753 754
f 165 754 749
f 755 756 709
f 709 708 755
f 755 708 707
f 755 707 757
f 757 707 706
f 706 705 757
f 757 705 704
f 757 704 758
f 758 704 700
f 758 700 759
f 700 699 759
f 759 699 701
f 759 701 760
f 760 701 703
f 760 703 761
f 761 703 702
f 761 702 698
f 697 762 698
f 698 762 763
f 763 764 698
f 698 764 765
f 698 765 761
f 766 767 694
f 694 696 766
f 766 696 715
f 766 715 714
f 697 695 762
f 762 695 694
f 762 694 768
f 768 694 767
f 713 769 714
f 714 769 770
f 714 770 766
f 716 188 710
f 710 188 771
f 710 771 711
f 711 771 769
f 711 769 712
f 712 769 713
f 772 773 674
f 674 671 772
f 772 671 672
f 772 672 774
f 774 672 673
f 774 673 667
f 667 668 774
f 774 668 669
f 774 669 775
f 775 669 670
f 775 670 776
f 670 666 776
f 776 666 665
f 776 665 777
f 777 665 664
f 777 664 778
f 778 664 660
f 778 660 659
f 663 779 659
f 659 779 780
f 780 781 659
f 659 781 782
f 659 782 778
f 783 784 661
f 661 658 783
f 783 658 657
f 783 657 656
f 663 662 779
f 779 662 661
f 779 661 785
f 785 661 784
f 655 786 656
f 656 786 787
f 656 787 783
f 721 788 718
f 718 788 789
f 718 789 717
f 717 789 786
f 717 786 654
f 654 786 655
f 790 791 650
f 650 792 790
f 790 792 793
f 790 793 794
f 794 793 795
f 795 796 794
f 794 796 797
f 794 797 798
f 798 797 799
f 798 799 800
f 799 801 800
f 800 801 802
f 800 802 803
f 803 802 804
f 803 804 805
f 805 804 806
f 805 806 807
f 808 145 807
f 807 145 144
f 144 809 807
f 807 809 810
f 807 810 805
f 146 141 811
f 811 812 146
f 146 812 813
f 146 813 814
f 808 815 145
f 145 815 811
f 145 811 140
f 140 811 141
f 816 148 814
f 814 148 147
f 814 147 146
f 630 137 817
f 817 137 138
f 817 138 818
f 818 138 148
f 818 148 819
f 819 148 816
f 626 2 820
f 626 820 821
f 821 820 822
f 821 822 823
f 823 822 824
f 823 824 825
f 825 824 826
f 826 824 827
f 826 827 828
f 828 827 829
f 828 829 830
f 830 829 831
f 831 829 832
f 831 832 833
f 833 832 834
f 833 834 835
f 835 834 836
f 835 836 837
f 837 836 838
f 837 838 839
f 839 838 840
f 839 840 841
f 841 840 842
f 841 842 843
f 843 842 844
f 843 844 845
f 845 844 846
f 845 846 847
f 847 846 848
f 848 846 849
f 848 849 587
f 587 849 850
f 587 850 87
f 587 87 85
f 587 85 572
f 572 85 83
f 572 83 569
f 569 83 81
f 569 81 570
f 570 81 595
f 595 81 79
f 595 79 566
f 566 79 77
f 566 77 567
f 567 77 603
f 603 77 75
f 603 75 563
f 563 75 73
f 563 73 564
f 564 73 71
f 564 71 605
f 605 71 69
f 605 69 573
f 573 69 67
f 573 67 560
f 560 67 65
f 560 65 561
f 561 65 63
f 561 63 619
f 619 63 61
f 619 61 557
f 557 61 558
f 558 61 59
f 558 59 626
f 626 59 3
f 626 3 2
f 629 851 852
f 629 852 633
f 633 852 853
f 633 853 632
f 632 853 854
f 632 854 631
f 631 854 137
f 631 137 630
f 855 856 640
f 640 856 857
f 640 857 627
f 627 857 851
f 627 851 628
f 628 851 629
f 858 859 634
f 634 859 860
f 634 860 635
f 635 860 855
f 635 855 639
f 639 855 640
f 636 861 634
f 634 861 862
f 634 862 858
f 636 637 861
f 861 637 648
f 861 648 863
f 863 648 647
f 863 647 864
f 647 646 864
f 864 646 645
f 864 645 865
f 865 645 644
f 865 644 866
f 866 644 643
f 866 643 867
f 867 643 642
f 867 642 868
f 642 653 868
f 868 653 652
f 868 652 869
f 869 652 650
f 869 650 791
f 692 870 871
f 692 871 693
f 693 871 872
f 693 872 719
f 719 872 873
f 719 873 720
f 720 873 788
f 720 788 721
f 874 875 689
f 689 875 876
f 689 876 690
f 690 876 870
f 690 870 691
f 691 870 692
f 877 878 686
f 686 878 879
f 879 880 686
f 686 880 881
f 686 881 687
f 687 881 874
f 687 874 688
f 688 874 689
f 686 685 877
f 877 685 684
f 877 684 882
f 882 684 683
f 882 683 883
f 683 682 883
f 883 682 679
f 883 679 884
f 884 679 680
f 884 680 885
f 680 681 885
f 885 681 678
f 885 678 886
f 886 678 677
f 886 677 887
f 677 676 887
f 887 676 675
f 887 675 888
f 888 675 674
f 888 674 773
f 889 181 180
f 889 180 890
f 890 180 179
f 890 179 891
f 891 179 178
f 891 178 892
f 892 178 188
f 892 188 716
f 184 183 893
f 893 183 182
f 893 182 894
f 894 182 181
f 894 181 895
f 895 181 889
f 896 186 897
f 897 186 185
f 897 185 898
f 898 185 184
f 898 184 899
f 899 184 893
f 900 901 897
f 897 901 902
f 897 902 896
f 900 903 901
f 901 903 904
f 901 904 905
f 905 904 906
f 905 906 907
f 906 908 907
f 907 908 909
f 907 909 910
f 910 909 911
f 910 911 912
f 912 911 913
f 912 913 914
f 914 913 915
f 914 915 916
f 915 917 916
f 916 917 918
f 916 918 919
f 919 918 709
f 919 709 756
f 920 154 152
f 920 152 921
f 921 152 150
f 921 150 922
f 922 150 168
f 922 168 923
f 923 168 167
f 923 167 748
f 158 156 924
f 924 156 155
f 924 155 925
f 925 155 154
f 925 154 926
f 926 154 920
f 927 928 929
f 929 928 930
f 930 161 929
f 929 161 159
f 929 159 931
f 931 159 158
f 931 158 932
f 932 158 924
f 929 933 927
f 927 933 934
f 927 934 935
f 935 934 936
f 935 936 937
f 936 938 937
f 937 938 939
f 937 939 940
f 940 939 941
f 940 941 942
f 941 943 942
f 942 943 944
f 942 944 945
f 945 944 946
f 945 946 947
f 946 948 947
f 947 948 949
f 947 949 950
f 950 949 724
f 950 724 723
f 716 622 951
f 748 749 952
f 922 923 953
f 953 923 748
f 953 748 954
f 954 748 952
f 955 956 944
f 939 957 941
f 941 957 955
f 941 955 943
f 943 955 944
f 939 938 957
f 957 938 936
f 957 936 934
f 934 933 957
f 957 933 929
f 957 929 931
f 925 958 924
f 924 958 932
f 925 926 958
f 958 926 920
f 958 920 921
f 922 953 921
f 921 953 959
f 921 959 958
f 725 960 726
f 726 960 961
f 726 961 728
f 725 724 960
f 960 724 949
f 960 949 962
f 962 949 948
f 962 948 956
f 956 948 946
f 956 946 944
f 749 754 952
f 952 754 753
f 952 753 963
f 963 753 752
f 963 752 964
f 752 751 964
f 964 751 750
f 964 750 746
f 741 740 965
f 746 745 964
f 964 745 747
f 964 747 965
f 965 747 742
f 965 742 741
f 740 738 965
f 965 738 736
f 965 736 735
f 735 733 965
f 965 733 731
f 965 731 966
f 966 731 730
f 966 730 961
f 961 730 729
f 961 729 728
f 894 895 967
f 967 895 889
f 889 890 967
f 967 890 891
f 967 891 951
f 951 891 892
f 951 892 716
f 897 898 968
f 897 968 900
f 900 968 969
f 900 969 903
f 903 969 375
f 903 375 374
f 970 899 967
f 967 899 893
f 967 893 894
f 377 915 374
f 374 915 913
f 913 911 374
f 374 911 909
f 374 909 908
f 908 906 374
f 374 906 904
f 374 904 903
f 378 709 379
f 379 709 918
f 379 918 377
f 377 918 917
f 377 917 915
f 971 972 973
f 973 972 974
f 973 974 975
f 965 976 964
f 964 976 977
f 964 977 978
f 978 977 979
f 978 979 980
f 980 979 981
f 980 981 971
f 971 981 982
f 971 982 972
f 931 932 957
f 957 932 958
f 957 958 983
f 983 958 984
f 985 986 984
f 984 986 987
f 984 987 983
f 988 989 990
f 990 989 991
f 990 991 992
f 992 991 993
f 992 993 985
f 985 993 994
f 985 994 986
f 995 996 988
f 988 996 997
f 988 997 989
f 811 815 998
f 999 812 1000
f 1000 812 811
f 1000 811 1001
f 1001 811 998
f 1001 998 1002
f 1002 998 1003
f 1002 1003 995
f 995 1003 1004
f 995 1004 996
f 815 808 998
f 998 808 807
f 998 807 1005
f 801 799 1006
f 801 1006 802
f 1005 807 1007
f 1007 807 806
f 1007 806 1006
f 1006 806 804
f 1006 804 802
f 799 797 1006
f 1006 797 796
f 1006 796 1008
f 1008 796 795
f 1008 795 793
f 793 792 1008
f 1008 792 650
f 1008 650 649
f 817 818 999
f 999 818 819
f 999 819 816
f 816 814 999
f 999 814 813
f 999 813 812
f 999 1009 817
f 817 1009 555
f 817 555 630
f 1010 1011 1012
f 1012 1011 968
f 1012 968 970
f 970 968 898
f 970 898 899
f 974 1013 975
f 975 1013 1014
f 975 1014 1015
f 1015 1014 1016
f 1015 1016 1010
f 1010 1016 1017
f 1010 1017 1011
f 1018 1019 868
f 373 1020 947
f 226 348 887
f 1021 866 1019
f 1019 866 867
f 1019 867 868
f 1022 942 1020
f 1020 942 945
f 1020 945 947
f 360 361 916
f 349 885 348
f 348 885 886
f 348 886 887
f 887 888 226
f 226 888 773
f 226 773 1023
f 1023 773 772
f 1023 772 1024
f 1024 772 774
f 1024 774 1025
f 1026 862 861
f 868 869 1018
f 1018 869 791
f 1018 791 1027
f 1027 791 790
f 1027 790 1028
f 1028 790 794
f 1028 794 1029
f 1030 928 927
f 362 912 361
f 361 912 914
f 361 914 916
f 916 919 360
f 360 919 756
f 360 756 359
f 359 756 755
f 359 755 358
f 358 755 757
f 358 757 357
f 1031 878 877
f 1032 1033 1034
f 947 950 373
f 373 950 723
f 373 723 372
f 372 723 722
f 372 722 371
f 371 722 727
f 371 727 370
f 1035 902 901
f 1036 1037 1038
f 1033 1030 1034
f 1034 1030 927
f 1034 927 1039
f 1039 927 935
f 1039 935 1040
f 1040 935 937
f 1040 937 1022
f 1022 937 940
f 1022 940 942
f 774 775 1025
f 1025 775 776
f 1025 776 1041
f 1041 776 777
f 1041 777 778
f 1037 1026 1038
f 1038 1026 861
f 1038 861 1042
f 1042 861 863
f 1042 863 1043
f 1043 863 864
f 1043 864 1021
f 1021 864 865
f 1021 865 866
f 365 1044 1045
f 757 758 357
f 357 758 759
f 357 759 356
f 356 759 760
f 356 760 761
f 352 1046 1047
f 1036 1038 1048
f 1048 1038 1049
f 1048 1049 1050
f 1050 1049 1051
f 1050 1051 1052
f 1052 1051 1053
f 1052 1053 1054
f 1054 1053 1041
f 1054 1041 1055
f 1055 1041 778
f 1055 778 782
f 794 798 1029
f 1029 798 800
f 1029 800 1056
f 1056 800 803
f 1056 803 805
f 727 732 370
f 370 732 734
f 370 734 369
f 369 734 737
f 369 737 739
f 1046 352 1057
f 1057 352 353
f 1057 353 1058
f 1058 353 354
f 1058 354 1059
f 1059 354 355
f 1059 355 1060
f 1060 355 356
f 1060 356 1061
f 1061 356 761
f 1061 761 765
f 1032 1034 1062
f 1062 1034 1063
f 1062 1063 1064
f 1064 1063 1065
f 1064 1065 1066
f 1066 1065 1067
f 1066 1067 1068
f 1068 1067 1056
f 1068 1056 1069
f 1069 1056 805
f 1069 805 810
f 1044 365 1070
f 1070 365 366
f 1070 366 1071
f 1071 366 367
f 1071 367 1072
f 1072 367 368
f 1072 368 1073
f 1073 368 369
f 1073 369 1074
f 1074 369 739
f 1074 739 744
f 1045 1035 365
f 365 1035 901
f 365 901 364
f 364 901 905
f 364 905 363
f 363 905 907
f 363 907 362
f 362 907 910
f 362 910 912
f 1047 1031 352
f 352 1031 877
f 352 877 351
f 351 877 882
f 351 882 350
f 350 882 883
f 350 883 349
f 349 883 884
f 349 884 885
f 999 1000 1075
f 1001 1002 1076
f 953 954 1077
f 978 980 1078
f 1015 1010 1079
f 951 622 621
f 847 848 1080
f 841 843 1081
f 833 835 1082
f 828 830 1083
f 823 825 1084
f 823 1084 821
f 841 1081 839
f 1079 1085 1086
f 1086 1085 1087
f 1086 1087 1084
f 1084 1087 1088
f 1084 1088 821
f 1089 1090 1091
f 1091 1090 1092
f 1091 1092 1081
f 1081 1092 1093
f 1081 1093 839
f 951 621 967
f 970 967 1085
f 1085 967 621
f 1085 621 1087
f 1087 621 624
f 1087 624 1088
f 1088 624 625
f 1088 625 821
f 821 625 626
f 1079 1010 1085
f 1085 1010 1012
f 1085 1012 970
f 971 973 1094
f 1094 973 975
f 975 1015 1094
f 1094 1015 1079
f 1094 1079 1095
f 1095 1079 1086
f 1095 1086 1096
f 1096 1086 1084
f 1096 1084 826
f 826 1084 825
f 980 971 1078
f 1078 971 1094
f 1078 1094 1097
f 1097 1094 1095
f 1097 1095 1083
f 1083 1095 1096
f 1083 1096 828
f 828 1096 826
f 952 963 1098
f 1098 963 964
f 964 978 1098
f 1098 978 1078
f 1098 1078 1099
f 1099 1078 1097
f 1099 1097 1100
f 1100 1097 1083
f 1100 1083 831
f 831 1083 830
f 954 952 1077
f 1077 952 1098
f 1077 1098 1101
f 1101 1098 1099
f 1101 1099 1082
f 1082 1099 1100
f 1082 1100 833
f 833 1100 831
f 835 837 1082
f 1082 837 1102
f 1082 1102 1101
f 1101 1102 1103
f 1101 1103 1077
f 1077 1103 1104
f 1077 1104 953
f 984 958 1104
f 1104 958 959
f 1104 959 953
f 985 984 1090
f 1090 984 1104
f 1090 1104 1092
f 1092 1104 1103
f 1092 1103 1093
f 1093 1103 1102
f 1093 1102 839
f 839 1102 837
f 995 988 1089
f 1089 988 990
f 1089 990 1090
f 1090 990 992
f 1090 992 985
f 1002 995 1076
f 1076 995 1089
f 1076 1089 1105
f 1105 1089 1091
f 1105 1091 1106
f 1106 1091 1081
f 1106 1081 845
f 845 1081 843
f 1000 1001 1075
f 1075 1001 1076
f 1075 1076 1107
f 1107 1076 1105
f 1107 1105 1080
f 1080 1105 1106
f 1080 1106 847
f 847 1106 845
f 556 555 1009
f 1009 999 556
f 556 999 1075
f 556 1075 585
f 585 1075 1107
f 585 1107 586
f 586 1107 1080
f 586 1080 587
f 587 1080 848
f 1108 517 516
f 516 1109 1108
f 1108 1109 1110
f 1108 1110 1111
f 1111 1110 1112
f 1112 1110 1113
f 1112 1113 1114
f 1115 1116 1117
f 1117 1116 1118
f 1113 1119 1114
f 1114 1119 1120
f 1114 1120 1121
f 1121 1120 1122
f 1121 1122 1123
f 1123 1122 1124
f 1123 1124 1125
f 1125 1124 1126
f 1125 1126 1127
f 1127 1126 1128
f 1127 1128 1129
f 1129 1128 1130
f 1129 1130 1131
f 1131 1130 1132
f 1131 1132 1133
f 1133 1132 1134
f 1133 1134 1135
f 1135 1134 1136
f 1135 1136 1137
f 1137 1136 1138
f 1137 1138 1118
f 1118 1138 1139
f 1118 1139 1117
f 294 1140 1141
f 294 1141 295
f 295 1141 1142
f 295 1142 296
f 296 1142 1143
f 296 1143 1144
f 1144 1143 1145
f 1144 1145 1146
f 1146 1145 1147
f 1146 1147 1148
f 1148 1147 1149
f 1148 1149 1115
f 1115 1149 1150
f 1115 1150 1116
f 1140 294 1151
f 1151 294 292
f 1151 292 1152
f 1152 292 290
f 1152 290 1153
f 290 288 1153
f 1153 288 287
f 1153 287 1154
f 1154 287 286
f 1154 286 1155
f 1155 286 284
f 1155 284 1156
f 1156 284 282
f 1156 282 1157
f 1157 282 280
f 1157 280 1158
f 1158 280 279
f 1158 279 1159
f 1159 279 277
f 1159 277 1160
f 1160 277 276
f 1160 276 1161
f 276 274 1161
f 1161 274 272
f 1161 272 1162
f 1162 272 270
f 1162 270 1163
f 1163 270 1164
f 1164 270 269
f 1164 269 513
f 513 269 266
f 513 266 504
f 504 266 505
f 505 266 256
f 505 256 507
f 507 256 258
f 507 258 509
f 638 514 446
f 638 446 641
f 649 1165 1008
f 1008 1165 1166
f 1008 1166 1006
f 1006 1166 1167
f 1006 1167 1007
f 1007 1167 1168
f 1007 1168 1005
f 989 997 1169
f 1169 997 996
f 1169 996 1170
f 1170 996 1004
f 1170 1004 1171
f 1171 1004 1003
f 1171 1003 1168
f 1168 1003 998
f 1168 998 1005
f 989 1169 991
f 991 1169 1172
f 991 1172 993
f 993 1172 1173
f 993 1173 994
f 994 1173 1174
f 994 1174 986
f 1175 957 1176
f 1176 957 983
f 1176 983 1174
f 1174 983 987
f 1174 987 986
f 961 960 1177
f 1177 960 962
f 1177 962 1178
f 1178 962 956
f 1178 956 1175
f 1175 956 955
f 1175 955 957
f 961 1177 966
f 966 1177 1179
f 966 1179 965
f 965 1179 1180
f 965 1180 976
f 976 1180 1181
f 976 1181 977
f 1013 974 1182
f 1182 974 972
f 1182 972 1183
f 1183 972 982
f 1183 982 1184
f 1184 982 981
f 1184 981 1181
f 1181 981 979
f 1181 979 977
f 1013 1182 1014
f 1014 1182 1185
f 1014 1185 1016
f 1016 1185 1186
f 1016 1186 1017
f 1017 1186 1187
f 1017 1187 1011
f 1188 969 1187
f 1187 969 968
f 1187 968 1011
f 1189 382 376
f 1159 1160 1190
f 1190 1160 1161
f 1190 1161 1191
f 1191 1161 1162
f 1191 1162 1192
f 1192 1162 1163
f 1192 1163 1189
f 1189 1163 1164
f 1189 1164 382
f 382 1164 513
f 1159 1190 1158
f 1158 1190 1193
f 1158 1193 1157
f 1157 1193 1194
f 1157 1194 1156
f 1156 1194 1195
f 1156 1195 1155
f 1196 1152 1197
f 1197 1152 1153
f 1197 1153 1195
f 1195 1153 1154
f 1195 1154 1155
f 1143 1142 1198
f 1198 1142 1141
f 1198 1141 1199
f 1199 1141 1140
f 1199 1140 1196
f 1196 1140 1151
f 1196 1151 1152
f 1143 1198 1145
f 1145 1198 1200
f 1145 1200 1147
f 1147 1200 1201
f 1147 1201 1149
f 1149 1201 1202
f 1149 1202 1150
f 1150 1202 1116
f 1116 1202 1203
f 1116 1203 1118
f 1127 1129 1204
f 1204 1129 1131
f 1204 1131 1205
f 1205 1131 1133
f 1205 1133 1206
f 1206 1133 1135
f 1206 1135 1203
f 1203 1135 1137
f 1203 1137 1118
f 1127 1204 1125
f 1125 1204 1207
f 1125 1207 1123
f 1123 1207 1208
f 1123 1208 1121
f 1121 1208 1209
f 1121 1209 1114
f 1114 1209 1210
f 1114 1210 1112
f 538 537 1211
f 1211 537 536
f 1211 536 1212
f 1212 536 517
f 1212 517 1213
f 1213 517 1108
f 1213 1108 1210
f 1210 1108 1111
f 1210 1111 1112
f 649 651 1165
f 1165 651 641
f 1165 641 1214
f 1214 641 446
f 1214 446 445
f 456 538 445
f 445 538 1211
f 445 1211 1214
f 1214 1211 1212
f 1214 1212 1165
f 1165 1212 1213
f 1165 1213 1166
f 1166 1213 1210
f 1166 1210 1167
f 1167 1210 1209
f 1167 1209 1168
f 1168 1209 1208
f 1168 1208 1171
f 1171 1208 1207
f 1171 1207 1170
f 1170 1207 1204
f 1170 1204 1169
f 1169 1204 1205
f 1169 1205 1172
f 1172 1205 1206
f 1172 1206 1173
f 1173 1206 1203
f 1173 1203 1174
f 1174 1203 1202
f 1174 1202 1176
f 1176 1202 1201
f 1176 1201 1175
f 1175 1201 1200
f 1175 1200 1178
f 1178 1200 1198
f 1178 1198 1177
f 1177 1198 1199
f 1177 1199 1179
f 1179 1199 1196
f 1179 1196 1180
f 1180 1196 1197
f 1180 1197 1181
f 1181 1197 1195
f 1181 1195 1184
f 1184 1195 1194
f 1184 1194 1183
f 1183 1194 1193
f 1183 1193 1182
f 1182 1193 1190
f 1182 1190 1185
f 1185 1190 1191
f 1185 1191 1186
f 1186 1191 1192
f 1186 1192 1187
f 1187 1192 1189
f 1187 1189 1188
f 1188 1189 376
f 1188 376 969
f 969 376 375
f 373 347 1215
f 347 322 1216
f 322 297 1217
f 297 296 1144
f 297 1144 1217
f 1217 1144 1146
f 1217 1146 1218
f 1146 1148 1218
f 1218 1148 1115
f 1218 1115 1219
f 1115 1117 1219
f 1219 1117 1139
f 1219 1139 1220
f 1220 1139 1138
f 1220 1138 1221
f 1221 1138 1136
f 1221 1136 1222
f 1222 1136 1134
f 1134 1132 1222
f 1222 1132 1130
f 1222 1130 1223
f 1223 1130 1128
f 1223 1128 1224
f 1224 1128 1126
f 1224 1126 1225
f 1225 1126 1124
f 1124 1122 1225
f 1225 1122 1120
f 1225 1120 1226
f 1226 1120 1119
f 1226 1119 1227
f 1119 1113 1227
f 1227 1113 1110
f 1227 1110 1228
f 515 1229 516
f 516 1229 1228
f 516 1228 1109
f 1109 1228 1110
f 534 1230 515
f 515 1230 1231
f 515 1231 1229
f 534 535 1230
f 1230 535 531
f 1230 531 1232
f 1232 531 532
f 1232 532 1233
f 1233 532 533
f 1233 533 1234
f 533 530 1234
f 1234 530 529
f 1234 529 1235
f 529 528 1235
f 1235 528 527
f 1235 527 1236
f 1236 527 526
f 1236 526 1237
f 1237 526 525
f 1237 525 1238
f 1238 525 524
f 524 523 1238
f 1238 523 522
f 1238 522 1239
f 1239 522 521
f 1239 521 1240
f 1240 521 520
f 1240 520 1241
f 1241 520 518
f 518 519 1241
f 1241 519 233
f 1241 233 231
f 322 1217 1216
f 1216 1217 1218
f 1216 1218 1242
f 1242 1218 1219
f 1242 1219 1243
f 1243 1219 1220
f 1243 1220 1244
f 1244 1220 1221
f 1244 1221 1245
f 1245 1221 1222
f 1245 1222 1246
f 1246 1222 1223
f 1246 1223 1247
f 1247 1223 1224
f 1247 1224 1248
f 1248 1224 1225
f 1248 1225 1249
f 1249 1225 1226
f 1249 1226 1250
f 1250 1226 1227
f 1250 1227 1251
f 1251 1227 1228
f 1251 1228 1252
f 1252 1228 1229
f 1252 1229 1253
f 1253 1229 1231
f 1253 1231 1254
f 1254 1231 1230
f 1254 1230 1255
f 1255 1230 1232
f 1255 1232 1256
f 1256 1232 1233
f 1256 1233 1257
f 1257 1233 1234
f 1257 1234 1258
f 1258 1234 1235
f 1258 1235 1259
f 1259 1235 1236
f 1259 1236 1260
f 1260 1236 1237
f 1260 1237 1261
f 1261 1237 1238
f 1261 1238 1262
f 1262 1238 1239
f 1262 1239 1263
f 1263 1239 1240
f 1263 1240 1264
f 1264 1240 1241
f 1264 1241 1265
f 1265 1241 231
f 1265 231 229
f 347 1216 1215
f 1215 1216 1242
f 1215 1242 1266
f 1266 1242 1243
f 1266 1243 1267
f 1267 1243 1244
f 1267 1244 1268
f 1268 1244 1245
f 1268 1245 1269
f 1269 1245 1246
f 1269 1246 1270
f 1270 1246 1247
f 1270 1247 1271
f 1271 1247 1248
f 1271 1248 1272
f 1272 1248 1249
f 1272 1249 1273
f 1273 1249 1250
f 1273 1250 1274
f 1274 1250 1251
f 1274 1251 1275
f 1275 1251 1252
f 1275 1252 1276
f 1276 1252 1253
f 1276 1253 1277
f 1277 1253 1254
f 1277 1254 1278
f 1278 1254 1255
f 1278 1255 1279
f 1279 1255 1256
f 1279 1256 1280
f 1280 1256 1257
f 1280 1257 1281
f 1281 1257 1258
f 1281 1258 1282
f 1282 1258 1259
f 1282 1259 1283
f 1283 1259 1260
f 1283 1260 1284
f 1284 1260 1261
f 1284 1261 1285
f 1285 1261 1262
f 1285 1262 1286
f 1286 1262 1263
f 1286 1263 1287
f 1287 1263 1264
f 1287 1264 1288
f 1288 1264 1265
f 1288 1265 1289
f 1289 1265 229
f 1289 229 227
f 373 1215 1020
f 1020 1215 1266
f 1020 1266 1022
f 1022 1266 1267
f 1022 1267 1040
f 1040 1267 1268
f 1040 1268 1039
f 1039 1268 1269
f 1039 1269 1034
f 1034 1269 1270
f 1034 1270 1063
f 1063 1270 1271
f 1063 1271 1065
f 1065 1271 1272
f 1065 1272 1067
f 1067 1272 1273
f 1067 1273 1056
f 1056 1273 1274
f 1056 1274 1029
f 1029 1274 1275
f 1029 1275 1028
f 1028 1275 1276
f 1028 1276 1027
f 1027 1276 1277
f 1027 1277 1018
f 1018 1277 1278
f 1018 1278 1019
f 1019 1278 1279
f 1019 1279 1021
f 1021 1279 1280
f 1021 1280 1043
f 1043 1280 1281
f 1043 1281 1042
f 1042 1281 1282
f 1042 1282 1038
f 1038 1282 1283
f 1038 1283 1049
f 1049 1283 1284
f 1049 1284 1051
f 1051 1284 1285
f 1051 1285 1053
f 1053 1285 1286
f 1053 1286 1041
f 1041 1286 1287
f 1041 1287 1025
f 1025 1287 1288
f 1025 1288 1024
f 1024 1288 1289
f 1024 1289 1023
f 1023 1289 227
f 1023 227 226
f 53 54 1290
f 188 12 771
f 771 12 16
f 768 767 15
f 1291 763 762
f 767 766 15
f 15 766 770
f 15 770 16
f 16 770 769
f 16 769 771
f 35 872 36
f 36 872 871
f 36 871 30
f 30 871 870
f 876 875 1292
f 875 874 1292
f 1292 874 881
f 1292 881 1293
f 1293 881 880
f 787 786 32
f 32 786 789
f 32 789 33
f 33 789 788
f 33 788 35
f 35 788 873
f 35 873 872
f 780 779 1294
f 1294 779 1295
f 785 784 39
f 39 784 783
f 787 32 783
f 783 32 37
f 783 37 39
f 854 853 54
f 54 853 852
f 852 851 54
f 54 851 857
f 54 857 1290
f 1290 857 856
f 856 855 1290
f 1290 855 860
f 1290 860 859
f 54 56 854
f 854 56 58
f 854 58 137
f 762 768 1291
f 1291 768 15
f 1291 15 1296
f 1296 15 19
f 1296 19 1297
f 1297 19 18
f 1297 18 1298
f 1298 18 22
f 1298 22 1299
f 1299 22 21
f 870 876 30
f 30 876 1292
f 30 1292 31
f 31 1292 1300
f 31 1300 27
f 27 1300 1301
f 27 1301 28
f 28 1301 1302
f 28 1302 24
f 24 1302 1303
f 24 1303 25
f 25 1303 1304
f 25 1304 21
f 21 1304 1305
f 21 1305 1299
f 779 785 1295
f 1295 785 39
f 1295 39 1306
f 1306 39 41
f 1306 41 1307
f 1307 41 42
f 1307 42 1308
f 1308 42 44
f 1308 44 1309
f 1309 44 45
f 1309 45 1310
f 1310 45 47
f 1310 47 1311
f 1311 47 48
f 1311 48 1312
f 1312 48 50
f 1312 50 1313
f 1313 50 51
f 1313 51 1314
f 1314 51 53
f 1314 53 1315
f 1315 53 1290
f 1316 902 1035
f 186 1316 136
f 136 1316 1035
f 136 1035 225
f 225 1035 1045
f 225 1045 224
f 210 212 1072
f 1072 212 214
f 1072 214 1071
f 1071 214 216
f 1071 216 1070
f 1070 216 218
f 1070 218 1044
f 1044 218 220
f 1044 220 1045
f 1045 220 222
f 1045 222 224
f 1074 744 1317
f 210 1072 208
f 208 1072 1073
f 208 1073 172
f 172 1073 1074
f 172 1074 171
f 171 1074 1317
f 171 1317 169
f 160 161 1030
f 1030 161 1318
f 1030 1318 928
f 207 206 1064
f 1064 206 204
f 1064 204 1062
f 1062 204 202
f 1062 202 1032
f 1032 202 200
f 1032 200 1033
f 1033 200 198
f 1033 198 1030
f 1030 198 157
f 1030 157 160
f 207 1064 195
f 195 1064 1066
f 195 1066 193
f 193 1066 1068
f 193 1068 191
f 191 1068 1069
f 191 1069 189
f 1069 810 1319
f 1319 144 1069
f 1069 144 143
f 1069 143 189
f 1293 880 1031
f 1031 880 1320
f 1031 1320 878
f 1305 1304 1058
f 1058 1304 1303
f 1058 1303 1057
f 1057 1303 1302
f 1057 1302 1046
f 1046 1302 1301
f 1046 1301 1047
f 1047 1301 1300
f 1047 1300 1031
f 1031 1300 1292
f 1031 1292 1293
f 1305 1058 1299
f 1299 1058 1059
f 1299 1059 1298
f 1298 1059 1060
f 1298 1060 1297
f 1297 1060 1061
f 1297 1061 1296
f 1061 765 1321
f 1321 763 1061
f 1061 763 1291
f 1061 1291 1296
f 1322 862 1026
f 859 1322 1290
f 1290 1322 1026
f 1290 1026 1315
f 1315 1026 1037
f 1315 1037 1314
f 1307 1308 1052
f 1052 1308 1309
f 1052 1309 1050
f 1050 1309 1310
f 1050 1310 1048
f 1048 1310 1311
f 1048 1311 1036
f 1036 1311 1312
f 1036 1312 1037
f 1037 1312 1313
f 1037 1313 1314
f 1055 782 1323
f 1307 1052 1306
f 1306 1052 1054
f 1306 1054 1295
f 1295 1054 1055
f 1295 1055 1294
f 1294 1055 1323
f 1294 1323 780
f 2 1 1324
f 58 57 1325
f 1326 142 1325
f 1325 142 139
f 1325 139 58
f 1327 192 1326
f 1326 192 190
f 1326 190 142
f 1328 196 1327
f 1327 196 194
f 1327 194 192
f 1329 203 1328
f 1328 203 205
f 1328 205 196
f 1330 199 1329
f 1329 199 201
f 1329 201 203
f 1331 153 1330
f 1330 153 197
f 1330 197 199
f 164 166 1332
f 1332 166 149
f 1332 149 1331
f 1331 149 151
f 1331 151 153
f 164 1332 177
f 177 1332 1333
f 177 1333 175
f 175 1333 1334
f 175 1334 209
f 209 1334 211
f 211 1334 1335
f 211 1335 213
f 213 1335 215
f 215 1335 1336
f 215 1336 217
f 217 1336 219
f 219 1336 1337
f 219 1337 221
f 221 1337 223
f 223 1337 1338
f 223 1338 134
f 134 1338 135
f 135 1338 1339
f 135 1339 187
f 187 1339 10
f 187 10 12
f 2 1324 820
f 820 1324 1340
f 820 1340 822
f 822 1340 1341
f 822 1341 824
f 824 1341 1342
f 824 1342 827
f 827 1342 1343
f 827 1343 829
f 829 1343 1344
f 829 1344 832
f 832 1344 1345
f 832 1345 834
f 834 1345 1346
f 834 1346 836
f 836 1346 1347
f 836 1347 838
f 838 1347 1348
f 838 1348 840
f 840 1348 1349
f 840 1349 842
f 842 1349 1350
f 842 1350 844
f 844 1350 1351
f 844 1351 846
f 846 1351 1352
f 846 1352 849
f 849 1352 1353
f 849 1353 850
f 87 850 88
f 88 850 1353
f 88 1353 133
f 118 133 1354
f 103 118 1355
f 57 103 1356
f 57 1356 1325
f 1325 1356 1357
f 1325 1357 1326
f 1326 1357 1358
f 1326 1358 1327
f 1327 1358 1359
f 1327 1359 1328
f 1328 1359 1360
f 1328 1360 1329
f 1329 1360 1361
f 1329 1361 1330
f 1330 1361 1362
f 1330 1362 1331
f 1331 1362 1363
f 1331 1363 1332
f 1332 1363 1364
f 1332 1364 1333
f 1333 1364 1365
f 1333 1365 1334
f 1334 1365 1366
f 1334 1366 1335
f 1335 1366 1367
f 1335 1367 1336
f 1336 1367 1368
f 1336 1368 1337
f 1337 1368 1369
f 1337 1369 1338
f 1338 1369 1370
f 1338 1370 1339
f 1339 1370 8
f 1339 8 10
f 103 1355 1356
f 1356 1355 1371
f 1356 1371 1357
f 1357 1371 1372
f 1357 1372 1358
f 1358 1372 1373
f 1358 1373 1359
f 1359 1373 1374
f 1359 1374 1360
f 1360 1374 1375
f 1360 1375 1361
f 1361 1375 1376
f 1361 1376 1362
f 1362 1376 1377
f 1362 1377 1363
f 1363 1377 1378
f 1363 1378 1364
f 1364 1378 1379
f 1364 1379 1365
f 1365 1379 1380
f 1365 1380 1366
f 1366 1380 1381
f 1366 1381 1367
f 1367 1381 1382
f 1367 1382 1368
f 1368 1382 1383
f 1368 1383 1369
f 1369 1383 1384
f 1369 1384 1370
f 1370 1384 6
f 1370 6 8
f 118 1354 1355
f 1355 1354 1385
f 1355 1385 1371
f 1371 1385 1386
f 1371 1386 1372
f 1372 1386 1387
f 1372 1387 1373
f 1373 1387 1388
f 1373 1388 1374
f 1374 1388 1389
f 1374 1389 1375
f 1375 1389 1390
f 1375 1390 1376
f 1376 1390 1391
f 1376 1391 1377
f 1377 1391 1392
f 1377 1392 1378
f 1378 1392 1393
f 1378 1393 1379
f 1379 1393 1394
f 1379 1394 1380
f 1380 1394 1395
f 1380 1395 1381
f 1381 1395 1396
f 1381 1396 1382
f 1382 1396 1397
f 1382 1397 1383
f 1383 1397 1398
f 1383 1398 1384
f 1384 1398 4
f 1384 4 6
f 133 1353 1354
f 1354 1353 1352
f 1354 1352 1385
f 1385 1352 1351
f 1385 1351 1386
f 1386 1351 1350
f 1386 1350 1387
f 1387 1350 1349
f 1387 1349 1388
f 1388 1349 1348
f 1388 1348 1389
f 1389 1348 1347
f 1389 1347 1390
f 1390 1347 1346
f 1390 1346 1391
f 1391 1346 1345
f 1391 1345 1392
f 1392 1345 1344
f 1392 1344 1393
f 1393 1344 1343
f 1393 1343 1394
f 1394 1343 1342
f 1394 1342 1395
f 1395 1342 1341
f 1395 1341 1396
f 1396 1341 1340
f 1396 1340 1397
f 1397 1340 1324
f 1397 1324 1398
f 1398 1324 1
f 1398 1 4

