# https://github.com/mikedh/trimesh
v 0.00097200 -0.00115743 -0.00155811
v 0.00082997 -0.00099120 -0.00133432
v 0.00082997 -0.00128173 -0.00105834
v 0.00060873 -0.00085928 -0.00115673
v 0.00060873 -0.00111113 -0.00091748
v 0.00032996 -0.00117043 -0.00056331
v 0.00002094 -0.00112633 -0.00054208
v 0.00002094 -0.00122333 -0.00025678
v 0.00002094 -0.00048359 -0.00115264
v 0.00002094 -0.00071031 -0.00102855
v 0.00032996 -0.00077458 -0.00104271
v 0.00002094 -0.00074539 -0.00100342
v 0.00002094 -0.00096387 -0.00079588
v 0.00032996 -0.00100161 -0.00082704
v 0.00002094 -0.00108625 -0.00061850
v 0.00002094 -0.00124704 -0.00008594
v 0.00032996 -0.00129816 0.00004515
v 0.00032996 -0.00127123 -0.00026683
v 0.00002094 -0.00124924 0.00004345
v 0.00002094 -0.00120255 0.00034115
v 0.00032996 -0.00124963 0.00035451
v 0.00002094 -0.00116084 0.00046365
v 0.00032996 -0.00112849 0.00064326
v 0.00002094 -0.00108597 0.00061903
v 0.00002094 -0.00090627 0.00086093
v 0.00032996 -0.00094176 0.00089464
v 0.00002094 -0.00084472 0.00092140
v 0.00032996 -0.00070030 0.00109402
v 0.00002094 -0.00067391 0.00105280
v 0.00002094 -0.00040238 0.00118348
v 0.00032996 -0.00041813 0.00122982
v 0.00002094 -0.00036129 0.00119667
v 0.00032996 -0.00011167 0.00129415
v 0.00002094 -0.00010747 0.00124539
v 0.00002094 0.00019369 0.00123492
v 0.00032996 0.00020128 0.00128327
v 0.00060873 -0.00129842 -0.00062491
v 0.00060873 -0.00141024 -0.00029601
v 0.00060873 -0.00144011 0.00005008
v 0.00060873 -0.00138628 0.00039327
v 0.00060873 -0.00125189 0.00071360
v 0.00060873 -0.00104474 0.00099246
v 0.00060873 -0.00077687 0.00121365
v 0.00060873 -0.00046386 0.00136430
v 0.00060873 -0.00012389 0.00143567
v 0.00060873 0.00022329 0.00142360
v 0.00082997 -0.00149776 -0.00072085
v 0.00082997 -0.00162676 -0.00034146
v 0.00082997 -0.00166121 0.00005777
v 0.00082997 -0.00159912 0.00045364
v 0.00082997 -0.00144409 0.00082316
v 0.00082997 -0.00120514 0.00114483
v 0.00082997 -0.00089615 0.00139998
v 0.00082997 -0.00053507 0.00157376
v 0.00082997 -0.00014291 0.00165608
v 0.00082997 0.00025757 0.00164216
v 0.00097200 -0.00149668 -0.00123584
v 0.00097200 -0.00174895 -0.00084175
v 0.00097200 -0.00189958 -0.00039873
v 0.00097200 -0.00193981 0.00006745
v 0.00097200 -0.00186730 0.00052972
v 0.00097200 -0.00168628 0.00096121
v 0.00097200 -0.00140725 0.00133683
v 0.00097200 -0.00104644 0.00163476
v 0.00097200 -0.00062481 0.00183769
v 0.00097200 -0.00016687 0.00193382
v 0.00097200 0.00030076 0.00191756
v 0.00032996 -0.00020127 -0.00128323
v 0.00032996 -0.00050253 -0.00119778
v 0.00060873 -0.00022328 -0.00142356
v 0.00060873 -0.00055748 -0.00132876
v 0.00082997 -0.00025756 -0.00164212
v 0.00082997 -0.00064307 -0.00153276
v 0.00097200 -0.00030076 -0.00191752
v 0.00097200 -0.00075092 -0.00178982
v 0.00102094 -0.00034864 -0.00222280
v 0.00102094 -0.00087047 -0.00207478
v 0.00102094 -0.00134170 -0.00180617
v 0.00002094 -0.00019369 -0.00123488
v 0.00102094 -0.00162257 -0.00155874
v 0.00102094 -0.00173497 -0.00143259
v 0.00102094 -0.00202740 -0.00097576
v 0.00102094 -0.00220200 -0.00046222
v 0.00102094 -0.00224864 0.00007819
v 0.00102094 -0.00216459 0.00061405
v 0.00102094 -0.00195474 0.00111423
v 0.00102094 -0.00163129 0.00154966
v 0.00102094 -0.00121304 0.00189502
v 0.00102094 -0.00072429 0.00213026
v 0.00102094 -0.00019344 0.00224169
v 0.00102094 0.00034865 0.00222284
v 0.00102094 0.00691546 -0.00108465
v -0.01107347 0.00666517 -0.00104539
v 0.00102094 0.00690527 -0.00114136
v -0.01108378 0.00659420 -0.00131007
v 0.00102094 0.00674288 -0.00155699
v -0.01109064 0.00656184 -0.00138651
v 0.00102094 0.00647695 -0.00187029
v -0.01111416 0.00646153 -0.00156509
v -0.01112389 0.00642220 -0.00162052
v -0.01116170 0.00627476 -0.00178571
v -0.01117498 0.00622436 -0.00183088
v 0.00102094 0.00644615 -0.00189586
v 0.00102094 0.00606362 -0.00210894
v -0.01122121 0.00605317 -0.00195409
v 0.00102094 0.00598594 -0.00213362
v -0.01129289 0.00579972 -0.00207213
v -0.01131324 0.00573042 -0.00209366
v 0.00102094 0.00559710 -0.00218248
v -0.01137547 0.00552613 -0.00213385
v 0.00102094 0.00542976 -0.00216723
v -0.01146793 0.00524514 -0.00213612
v -0.01149414 0.00517068 -0.00212659
v 0.00102094 0.00512598 -0.00208075
v -0.01157227 0.00495672 -0.00207442
v 0.00102094 0.00491058 -0.00196495
v -0.01166755 0.00471165 -0.00196354
v -0.01169419 0.00464749 -0.00192370
v -0.01176265 0.00449362 -0.00180472
v 0.00102094 0.00452378 -0.00156394
v 0.00102094 0.00474875 -0.00183759
v -0.01185179 0.00431739 -0.00161125
v -0.01188330 0.00425703 -0.00152254
v 0.00102094 0.00448288 -0.00149247
v -0.01192664 0.00417911 -0.00137752
v 0.00102094 0.00434936 -0.00109979
v -0.01202707 0.00407684 -0.00063942
v 0.00102094 0.00434686 -0.00068177
v -0.01201637 0.00406170 -0.00087022
v -0.01198132 0.00409489 -0.00113100
v 0.00102094 -0.00183761 -0.00474873
v 0.00102094 -0.00196497 -0.00491056
v -0.01169422 -0.00192371 -0.00464745
v 0.00102094 -0.00108467 -0.00691543
v -0.01107348 -0.00104541 -0.00666515
v 0.00102094 -0.00114138 -0.00690524
v -0.01108223 -0.00130987 -0.00659429
v 0.00102094 -0.00155700 -0.00674285
v -0.01108825 -0.00138647 -0.00656190
v 0.00102094 -0.00187031 -0.00647693
v -0.01110385 -0.00152555 -0.00648711
v -0.01114181 -0.00173483 -0.00632588
v -0.01116764 -0.00183100 -0.00622440
v 0.00102094 -0.00189588 -0.00644612
v 0.00102094 -0.00210895 -0.00606359
v -0.01119500 -0.00190986 -0.00612175
v 0.00102094 -0.00213363 -0.00598592
v -0.01126528 -0.00204343 -0.00587616
v -0.01130935 -0.00209370 -0.00573044
v 0.00102094 -0.00218250 -0.00559708
v -0.01134236 -0.00211875 -0.00562443
v 0.00102094 -0.00216724 -0.00542974
v -0.01143475 -0.00214212 -0.00534133
v -0.01149416 -0.00212660 -0.00517060
v 0.00102094 -0.00208076 -0.00512595
v -0.01152338 -0.00211129 -0.00508967
v -0.01161979 -0.00202546 -0.00483176
v 0.00102094 -0.00156396 -0.00452375
v -0.01171616 -0.00188815 -0.00459636
v -0.01180690 -0.00171529 -0.00440328
v -0.01187001 -0.00156145 -0.00428216
v -0.01188338 -0.00152235 -0.00425688
v 0.00102094 -0.00149249 -0.00448286
v -0.01194127 -0.00132052 -0.00415458
v 0.00102094 -0.00109981 -0.00434933
v -0.01202707 -0.00063944 -0.00407682
v 0.00102094 -0.00068179 -0.00434684
v -0.01202197 -0.00079708 -0.00406197
v -0.01199295 -0.00106138 -0.00408067
v 0.00102094 -0.00691545 0.00108469
v -0.01107347 -0.00666517 0.00104543
v 0.00102094 -0.00690526 0.00114140
v -0.01108378 -0.00659420 0.00131011
v 0.00102094 -0.00674287 0.00155703
v -0.01109064 -0.00656183 0.00138655
v 0.00102094 -0.00647694 0.00187033
v -0.01111415 -0.00646153 0.00156512
v -0.01112388 -0.00642221 0.00162054
v -0.01116168 -0.00627477 0.00178573
v -0.01117496 -0.00622435 0.00183092
v 0.00102094 -0.00644614 0.00189590
v 0.00102094 -0.00606361 0.00210898
v -0.01122118 -0.00605318 0.00195412
v 0.00102094 -0.00598594 0.00213366
v -0.01129286 -0.00579973 0.00207217
v -0.01131321 -0.00573041 0.00209370
v 0.00102094 -0.00559710 0.00218252
v -0.01137544 -0.00552613 0.00213389
v 0.00102094 -0.00542976 0.00216727
v -0.01146792 -0.00524514 0.00213616
v -0.01149413 -0.00517067 0.00212663
v 0.00102094 -0.00512597 0.00208079
v -0.01157215 -0.00495702 0.00207456
v 0.00102094 -0.00491058 0.00196499
v -0.01166743 -0.00471186 0.00196371
v -0.01169418 -0.00464748 0.00192374
v -0.01176257 -0.00449370 0.00180483
v 0.00102094 -0.00452377 0.00156398
v 0.00102094 -0.00474874 0.00183763
v -0.01185119 -0.00431856 0.00161287
v -0.01188330 -0.00425703 0.00152259
v 0.00102094 -0.00448288 0.00149251
v -0.01192677 -0.00417887 0.00137705
v 0.00102094 -0.00434935 0.00109983
v -0.01202707 -0.00407684 0.00063946
v 0.00102094 -0.00434685 0.00068181
v -0.01201637 -0.00406170 0.00087027
v -0.01198143 -0.00409476 0.00113054
v 0.00102094 0.00108467 0.00691547
v -0.01107347 0.00104542 0.00666519
v 0.00102094 0.00114138 0.00690528
v -0.01108377 0.00131009 0.00659422
v 0.00102094 0.00155701 0.00674289
v -0.01109064 0.00138654 0.00656186
v 0.00102094 0.00187031 0.00647697
v -0.01111416 0.00156512 0.00646154
v -0.01116170 0.00178575 0.00627476
v -0.01117498 0.00183090 0.00622438
v 0.00102094 0.00189588 0.00644616
v 0.00102094 0.00210896 0.00606363
v -0.01122123 0.00195412 0.00605317
v 0.00102094 0.00213364 0.00598596
v -0.01129290 0.00207216 0.00579972
v -0.01131324 0.00209369 0.00573043
v 0.00102094 0.00218251 0.00559712
v -0.01135263 0.00212326 0.00559974
v 0.00102094 0.00216725 0.00542978
v -0.01137547 0.00213387 0.00552614
v -0.01146792 0.00213614 0.00524517
v -0.01149413 0.00212661 0.00517070
v 0.00102094 0.00208077 0.00512599
v -0.01157243 0.00207430 0.00495632
v 0.00102094 0.00196497 0.00491060
v -0.01166771 0.00196335 0.00471130
v -0.01169421 0.00192372 0.00464750
v -0.01176277 0.00180455 0.00449342
v 0.00102094 0.00156396 0.00452379
v 0.00102094 0.00183762 0.00474877
v -0.01185226 0.00161000 0.00431646
v -0.01188330 0.00152255 0.00425704
v 0.00102094 0.00149249 0.00448290
v -0.01192659 0.00137767 0.00417918
v 0.00102094 0.00109981 0.00434937
v -0.01202705 0.00063944 0.00407686
v 0.00102094 0.00068180 0.00434688
v -0.01201636 0.00087026 0.00406172
v -0.01198131 0.00113113 0.00409493
v 0.00000000 -0.00016258 0.00857707
v 0.00000000 -0.00073755 0.00854685
v 0.00031398 -0.00073379 0.00850333
v 0.00000000 -0.00164951 0.00841854
v 0.00000000 -0.00176238 0.00839563
v 0.00031398 -0.00175340 0.00835288
v 0.00000000 -0.00308631 0.00800421
v 0.00000000 -0.00372037 0.00772991
v 0.00031398 -0.00370143 0.00769055
v 0.00000000 -0.00563778 0.00646591
v 0.00000000 -0.00621967 0.00590833
v 0.00031398 -0.00618800 0.00587824
v 0.00000000 -0.00750926 0.00414774
v 0.00000000 -0.00791061 0.00331885
v 0.00031398 -0.00787034 0.00330196
v 0.00000000 -0.00857707 -0.00016258
v 0.00000000 -0.00854685 -0.00073755
v 0.00031398 -0.00850333 -0.00073379
v 0.00000000 -0.00841854 -0.00164951
v 0.00000000 -0.00839563 -0.00176238
v 0.00031398 -0.00835288 -0.00175340
v 0.00000000 -0.00800421 -0.00308631
v 0.00000000 -0.00772991 -0.00372037
v 0.00031398 -0.00769055 -0.00370143
v 0.00000000 -0.00646591 -0.00563778
v 0.00000000 -0.00590833 -0.00621967
v 0.00031398 -0.00587824 -0.00618800
v 0.00000000 -0.00414774 -0.00750925
v 0.00000000 -0.00331885 -0.00791061
v 0.00031398 -0.00330196 -0.00787034
v 0.00102094 -0.00755367 -0.00061713
v 0.00102094 -0.00757426 0.00026331
v 0.00097069 -0.00788707 0.00027418
v 0.00102094 -0.00206829 -0.00729115
v 0.00102094 -0.00293206 -0.00698869
v 0.00097069 -0.00215371 -0.00759227
v 0.00097069 -0.00305316 -0.00727731
v 0.00082500 -0.00223055 -0.00786313
v 0.00082500 -0.00316208 -0.00753693
v 0.00059852 -0.00229108 -0.00807650
v 0.00059852 -0.00324789 -0.00774146
v 0.00031398 -0.00232922 -0.00821096
v 0.00102094 -0.00451937 -0.00608392
v 0.00102094 -0.00521975 -0.00549481
v 0.00097069 -0.00470601 -0.00633518
v 0.00097069 -0.00543532 -0.00572174
v 0.00082500 -0.00487390 -0.00656119
v 0.00082500 -0.00562923 -0.00592586
v 0.00059852 -0.00500616 -0.00673923
v 0.00059852 -0.00578198 -0.00608667
v 0.00031398 -0.00508950 -0.00685143
v 0.00102094 -0.00638307 -0.00408597
v 0.00102094 -0.00682904 -0.00328679
v 0.00097069 -0.00664668 -0.00425472
v 0.00097069 -0.00711107 -0.00342253
v 0.00082500 -0.00688380 -0.00440651
v 0.00082500 -0.00736476 -0.00354463
v 0.00059852 -0.00707061 -0.00452609
v 0.00059852 -0.00756461 -0.00364082
v 0.00031398 -0.00718832 -0.00460143
v 0.00102094 -0.00729115 0.00206829
v 0.00102094 -0.00698869 0.00293206
v 0.00097069 -0.00759227 0.00215371
v 0.00097069 -0.00727731 0.00305316
v 0.00082500 -0.00786312 0.00223055
v 0.00082500 -0.00753693 0.00316208
v 0.00059852 -0.00807650 0.00229108
v 0.00059852 -0.00774146 0.00324789
v 0.00031398 -0.00821096 0.00232922
v 0.00102094 -0.00608392 0.00451937
v 0.00102094 -0.00549481 0.00521975
v 0.00097069 -0.00633518 0.00470601
v 0.00097069 -0.00572174 0.00543532
v 0.00082500 -0.00656119 0.00487390
v 0.00082500 -0.00592586 0.00562923
v 0.00059852 -0.00673924 0.00500616
v 0.00059852 -0.00608667 0.00578198
v 0.00031398 -0.00685143 0.00508950
v 0.00102094 -0.00408597 0.00638307
v 0.00102094 -0.00328679 0.00682904
v 0.00097069 -0.00425472 0.00664668
v 0.00097069 -0.00342253 0.00711107
v 0.00082500 -0.00440651 0.00688380
v 0.00082500 -0.00354463 0.00736476
v 0.00059852 -0.00452609 0.00707061
v 0.00059852 -0.00364082 0.00756461
v 0.00031398 -0.00460143 0.00718832
v 0.00102094 -0.00117436 -0.00748730
v 0.00097069 -0.00122286 -0.00779651
v 0.00082500 -0.00126649 -0.00807466
v 0.00059852 -0.00130086 -0.00829377
v 0.00031398 -0.00132251 -0.00843185
v 0.00000000 -0.00132928 -0.00847500
v 0.00000000 -0.00234114 -0.00825298
v 0.00000000 -0.00278075 -0.00811542
v 0.00000000 -0.00424818 -0.00745289
v 0.00031398 -0.00422654 -0.00741495
v 0.00059852 -0.00415733 -0.00729352
v 0.00082500 -0.00404750 -0.00710083
v 0.00097069 -0.00390808 -0.00685623
v 0.00102094 -0.00375308 -0.00658431
v 0.00000000 -0.00511555 -0.00688649
v 0.00000000 -0.00538869 -0.00667493
v 0.00000000 -0.00661495 -0.00546215
v 0.00031398 -0.00658126 -0.00543434
v 0.00059852 -0.00647350 -0.00534535
v 0.00082500 -0.00630247 -0.00520413
v 0.00097069 -0.00608537 -0.00502487
v 0.00102094 -0.00584402 -0.00482557
v 0.00000000 -0.00722511 -0.00462498
v 0.00000000 -0.00734667 -0.00442934
v 0.00000000 -0.00812199 -0.00276151
v 0.00031398 -0.00808063 -0.00274745
v 0.00059852 -0.00794831 -0.00270246
v 0.00082500 -0.00773832 -0.00263106
v 0.00097069 -0.00747176 -0.00254043
v 0.00102094 -0.00717542 -0.00243967
v 0.00102094 -0.00741718 -0.00155698
v 0.00097069 -0.00772350 -0.00162129
v 0.00082500 -0.00799904 -0.00167913
v 0.00059852 -0.00821610 -0.00172469
v 0.00059852 -0.00836409 -0.00072177
v 0.00082500 -0.00814311 -0.00070271
v 0.00097069 -0.00786261 -0.00067850
v 0.00102094 -0.00755077 -0.00065159
v 0.00000000 -0.00857344 0.00029804
v 0.00031398 -0.00852978 0.00029652
v 0.00059852 -0.00839010 0.00029167
v 0.00082500 -0.00816844 0.00028396
v 0.00102094 -0.00748730 0.00117436
v 0.00097069 -0.00779651 0.00122286
v 0.00082500 -0.00807466 0.00126649
v 0.00059852 -0.00829377 0.00130086
v 0.00031398 -0.00843185 0.00132251
v 0.00000000 -0.00847500 0.00132928
v 0.00000000 -0.00825298 0.00234114
v 0.00000000 -0.00811542 0.00278075
v 0.00000000 -0.00745289 0.00424818
v 0.00031398 -0.00741495 0.00422654
v 0.00059852 -0.00729352 0.00415733
v 0.00082500 -0.00710083 0.00404750
v 0.00097069 -0.00685623 0.00390808
v 0.00102094 -0.00658431 0.00375308
v 0.00000000 -0.00688649 0.00511555
v 0.00000000 -0.00667493 0.00538869
v 0.00000000 -0.00546215 0.00661495
v 0.00031398 -0.00543434 0.00658126
v 0.00059852 -0.00534535 0.00647349
v 0.00082500 -0.00520413 0.00630247
v 0.00097069 -0.00502487 0.00608537
v 0.00102094 -0.00482558 0.00584402
v 0.00000000 -0.00462498 0.00722511
v 0.00000000 -0.00442934 0.00734667
v 0.00000000 -0.00276151 0.00812199
v 0.00031398 -0.00274745 0.00808063
v 0.00059852 -0.00270246 0.00794831
v 0.00082500 -0.00263106 0.00773832
v 0.00097069 -0.00254043 0.00747176
v 0.00102094 -0.00243967 0.00717542
v 0.00102094 -0.00155698 0.00741718
v 0.00097069 -0.00162129 0.00772350
v 0.00082500 -0.00167913 0.00799904
v 0.00059852 -0.00172469 0.00821610
v 0.00059852 -0.00072177 0.00836409
v 0.00082500 -0.00070271 0.00814311
v 0.00097069 -0.00067850 0.00786261
v 0.00102094 -0.00065159 0.00755077
v 0.00000000 0.00029804 0.00857344
v 0.00031398 0.00029652 0.00852978
v 0.00059852 0.00029167 0.00839010
v 0.00082500 0.00028396 0.00816844
v 0.00097069 0.00027418 0.00788707
v 0.00102094 0.00026331 0.00757426
v 0.00102094 0.00117436 0.00748730
v 0.00097069 0.00122286 0.00779651
v 0.00082500 0.00126649 0.00807466
v 0.00059852 0.00130086 0.00829377
v 0.00031398 0.00132251 0.00843185
v 0.00000000 0.00132928 0.00847500
v -0.01072083 -0.00178139 0.00750707
v -0.01072083 -0.00262443 0.00725546
v -0.01057768 -0.00271374 0.00750239
v -0.01072083 -0.00769942 0.00049838
v -0.01072083 -0.00771135 -0.00025392
v -0.01057768 -0.00797379 -0.00026256
v -0.01072083 -0.00737292 -0.00227364
v -0.01072083 -0.00707636 -0.00307482
v -0.01057768 -0.00731719 -0.00317947
v -0.01072083 -0.00399423 -0.00660118
v -0.01072083 -0.00391756 -0.00664696
v -0.01057768 -0.00405088 -0.00687318
v -0.01072083 -0.00273432 -0.00721477
v -0.01072083 -0.00214145 -0.00741239
v -0.01057768 -0.00221433 -0.00766466
v -0.01057768 -0.00778857 0.00172869
v -0.01036326 -0.00799212 0.00177387
v -0.01036326 -0.00770677 0.00276156
v -0.01036326 -0.00415675 -0.00705280
v -0.01036326 -0.00500792 -0.00647621
v -0.01009679 -0.00422569 -0.00716977
v -0.01009679 -0.00509098 -0.00658362
v -0.00980209 -0.00015869 0.00837179
v -0.00980209 0.00025046 0.00836954
v -0.01009679 0.00024894 0.00831866
v -0.00980209 -0.00827216 0.00129747
v -0.00980209 -0.00817436 0.00181432
v -0.01009679 -0.00812467 0.00180329
v -0.00980209 -0.00821704 -0.00161003
v -0.00980209 -0.00826823 -0.00132227
v -0.01009679 -0.00821796 -0.00131424
v -0.00980209 -0.00331390 -0.00768961
v -0.00980209 -0.00404846 -0.00732952
v -0.00980209 -0.00425154 -0.00721363
v -0.00980209 -0.00512212 -0.00662389
v -0.00980209 -0.00525972 -0.00651517
v -0.01009679 -0.00587598 -0.00589364
v -0.00980209 -0.00591192 -0.00592968
v -0.01009679 -0.00656832 -0.00511071
v -0.00980209 -0.00631116 -0.00550285
v -0.00980209 -0.00660849 -0.00514197
v -0.00980209 -0.00717083 -0.00432332
v -0.01009679 -0.00715706 -0.00424718
v -0.00980209 -0.00720084 -0.00427316
v -0.00980209 -0.00767963 -0.00333696
v -0.01009679 -0.00763294 -0.00331667
v -0.00980209 -0.00803730 -0.00234813
v -0.00980209 -0.00833730 0.00077549
v -0.00980209 -0.00792118 0.00271420
v -0.01009679 -0.00783459 0.00280736
v -0.00980209 -0.00788251 0.00282453
v -0.00980209 -0.00746635 0.00379020
v -0.01009679 -0.00742096 0.00376716
v -0.00980209 -0.00732952 0.00404846
v -0.01009679 -0.00689029 0.00466754
v -0.00980209 -0.00693244 0.00469609
v -0.01009679 -0.00625096 0.00549432
v -0.00980209 -0.00651516 0.00525972
v -0.00980209 -0.00628920 0.00552793
v -0.00980209 -0.00554677 0.00627258
v -0.01009679 -0.00551305 0.00623445
v -0.00980209 -0.00550284 0.00631115
v -0.01009679 -0.00468819 0.00687626
v -0.00980209 -0.00471687 0.00691832
v -0.00980209 -0.00432332 0.00717083
v -0.01009679 -0.00378940 0.00740962
v -0.00980209 -0.00284816 0.00787400
v -0.01009679 -0.00283085 0.00782613
v -0.00980209 -0.00301244 0.00781263
v -0.00980209 -0.00381258 0.00745495
v -0.00980209 -0.00080050 0.00833494
v -0.01036326 -0.00578012 -0.00579748
v -0.01036326 -0.00646116 -0.00502733
v -0.01036326 -0.00704030 -0.00417789
v -0.01036326 -0.00750841 -0.00326256
v -0.01036326 -0.00729989 0.00370570
v -0.01036326 -0.00677788 0.00459140
v -0.01036326 -0.00614898 0.00540469
v -0.01036326 -0.00542311 0.00613274
v -0.01036326 -0.00461171 0.00676408
v -0.01036326 -0.00372758 0.00728874
v -0.01036326 -0.00278467 0.00769846
v -0.01057768 -0.00488038 -0.00631127
v -0.01057768 -0.00563291 -0.00564983
v -0.01057768 -0.00629660 -0.00489929
v -0.01057768 -0.00686099 -0.00407148
v -0.00980209 -0.00836875 -0.00027556
v -0.01009679 -0.00831788 -0.00027389
v -0.01036326 -0.00808389 -0.00129279
v -0.01036326 -0.00818218 -0.00026942
v -0.01057768 -0.00787800 -0.00125987
v -0.01057768 -0.00751049 0.00269123
v -0.01057768 -0.00711397 0.00361132
v -0.01057768 -0.00660526 0.00447446
v -0.01057768 -0.00599237 0.00526704
v -0.01057768 -0.00528499 0.00597655
v -0.01057768 -0.00449425 0.00659180
v -0.01057768 -0.00363264 0.00710311
v -0.00980209 -0.00183883 0.00816888
v -0.00980209 -0.00161003 0.00821704
v -0.01009679 -0.00182765 0.00811922
v -0.01009679 -0.00079563 0.00828427
v -0.01036326 -0.00179783 0.00798676
v -0.01036326 -0.00078265 0.00814911
v -0.01057768 -0.00175205 0.00778335
v -0.01057768 -0.00076272 0.00794157
v -0.01072083 -0.00169438 0.00752718
v -0.00980209 0.00129747 0.00827216
v -0.01009679 0.00128958 0.00822187
v -0.01036326 0.00024487 0.00818295
v -0.01036326 0.00126854 0.00808773
v -0.01057768 0.00023864 0.00797454
v -0.01057768 0.00123623 0.00788175
v -0.00980209 -0.00129747 -0.00827216
v -0.00980209 -0.00232401 -0.00804431
v -0.01009679 -0.00128958 -0.00822187
v -0.01009679 -0.00230988 -0.00799541
v -0.01036326 -0.00126854 -0.00808773
v -0.01036326 -0.00227220 -0.00786497
v -0.01057768 -0.00123623 -0.00788175
v -0.01072083 -0.00119554 -0.00762234
v -0.01072083 -0.00305358 -0.00708555
v -0.01057768 -0.00315750 -0.00732669
v -0.01036326 -0.00324002 -0.00751817
v -0.01009679 -0.00329376 -0.00764286
v -0.00980209 -0.00271420 -0.00792118
v -0.01072083 -0.00471975 -0.00610355
v -0.01072083 -0.00512237 -0.00576981
v -0.01072083 -0.00544751 -0.00546388
v -0.01072083 -0.00608936 -0.00473804
v -0.01072083 -0.00663518 -0.00393748
v -0.01072083 -0.00684005 -0.00356976
v -0.01072083 -0.00740594 -0.00216368
v -0.01057768 -0.00765798 -0.00223731
v -0.01036326 -0.00785812 -0.00229578
v -0.01009679 -0.00798844 -0.00233386
v -0.00980209 -0.00781263 -0.00301244
v -0.01072083 -0.00761872 -0.00121840
v -0.01072083 -0.00766256 -0.00090252
v -0.01072083 -0.00768237 0.00071457
v -0.01057768 -0.00794382 0.00073889
v -0.01036326 -0.00815142 0.00075820
v -0.01009679 -0.00828662 0.00077078
v -0.00980209 -0.00837179 -0.00015869
v -0.01072083 -0.00753223 0.00167179
v -0.01072083 -0.00632276 0.00442177
v -0.01072083 -0.00638786 0.00432719
v -0.01072083 -0.00687983 0.00349246
v -0.01072083 -0.00701828 0.00320517
v -0.01072083 -0.00726331 0.00260265
v -0.01072083 -0.00748227 0.00188283
v -0.01072083 -0.00579515 0.00509368
v -0.01072083 -0.00541866 0.00549250
v -0.01072083 -0.00511105 0.00577984
v -0.01072083 -0.00434634 0.00637485
v -0.01072083 -0.00351308 0.00686932
v -0.01072083 -0.00310989 0.00706102
v -0.01072083 0.00023078 0.00771208
v -0.01072083 -0.00039412 0.00770546
v -0.01072083 -0.00073762 0.00768019
v -0.01072083 0.00119554 0.00762234
v -0.00980209 -0.00331390 -0.00768960
v -0.00980209 -0.00183883 0.00816889
v -0.01302907 -0.00007017 0.00137194
v -0.01184450 -0.00022554 0.00462259
v -0.01188330 -0.00014603 0.00451870
v -0.01302905 0.00021286 0.00135715
v -0.01201297 0.00038196 0.00414518
v -0.01302907 0.00017914 0.00136201
v -0.01197368 0.00014107 0.00426686
v -0.01191272 -0.00007203 0.00443851
v -0.01137374 -0.00034150 0.00590971
v -0.01146705 -0.00042729 0.00564911
v -0.01149410 -0.00044141 0.00557354
v -0.01157173 -0.00045727 0.00535527
v -0.01166288 -0.00042948 0.00509938
v -0.01175518 -0.00035081 0.00484984
v -0.01302907 -0.00031717 0.00133662
v -0.01169416 -0.00040845 0.00501330
v -0.01108518 0.00072758 0.00667542
v -0.01108816 0.00068916 0.00667132
v -0.01111329 0.00045943 0.00662187
v -0.01115744 0.00020760 0.00651277
v -0.01116754 0.00016274 0.00648620
v -0.01121697 -0.00001845 0.00635084
v -0.01128565 -0.00019633 0.00615664
v -0.01134875 -0.00030772 0.00597934
v -0.01130697 -0.00023874 0.00609630
v -0.01107371 0.00100006 0.00667148
v -0.01302907 -0.00048684 -0.00128458
v -0.01302907 -0.00071117 -0.00117533
v -0.01302907 -0.00024646 -0.00135145
v -0.01302905 -0.00021286 -0.00135715
v -0.01302907 -0.00137087 0.00008873
v -0.01201297 -0.00414516 0.00038197
v -0.01302907 -0.00133221 0.00033523
v -0.01121691 -0.00635099 -0.00001824
v -0.01128557 -0.00615683 -0.00019615
v -0.01130697 -0.00609627 -0.00023873
v -0.01137367 -0.00590991 -0.00034138
v -0.01146696 -0.00564936 -0.00042722
v -0.01149411 -0.00557351 -0.00044139
v -0.01157162 -0.00535560 -0.00045726
v -0.01166262 -0.00510012 -0.00042962
v -0.01169416 -0.00501327 -0.00040844
v -0.01302907 -0.00136431 -0.00016069
v -0.01175491 -0.00485054 -0.00035111
v -0.01184438 -0.00462290 -0.00022576
v -0.01188332 -0.00451868 -0.00014602
v -0.01191272 -0.00443848 -0.00007200
v -0.01197369 -0.00426684 0.00014109
v -0.01107372 -0.00667143 0.00100035
v -0.01108517 -0.00667542 0.00072788
v -0.01108816 -0.00667130 0.00068917
v -0.01111326 -0.00662194 0.00045972
v -0.01111783 -0.00661147 0.00042767
v -0.01115739 -0.00651289 0.00020787
v -0.01116756 -0.00648618 0.00016276
v -0.01302907 -0.00124959 0.00057068
v -0.01302907 -0.00091203 -0.00102731
v -0.01302907 -0.00108281 -0.00084539
v -0.01302907 -0.00121786 -0.00063559
v -0.01302907 -0.00131274 -0.00040482
v -0.01302907 -0.00112576 0.00078729
v -0.01302907 -0.00096478 0.00097793
v -0.01302907 -0.00077198 0.00113631
v -0.01302907 -0.00055371 0.00125720
v -0.01302905 -0.00019369 -0.00123488
v 0.00002094 0.00010747 -0.00124535
v 0.00002094 0.00067392 -0.00105276
v 0.00002094 0.00084472 -0.00092136
v -0.01302905 0.00084472 -0.00092136
v -0.01302905 0.00036130 -0.00119663
v 0.00002094 0.00036130 -0.00119663
v 0.00002094 0.00040239 -0.00118344
v 0.00002094 0.00116084 -0.00046361
v -0.01302905 0.00116084 -0.00046361
v 0.00002094 0.00108597 -0.00061899
v 0.00002094 0.00090628 -0.00086089
v 0.00002094 0.00124704 0.00008598
v -0.01302905 0.00124704 0.00008598
v 0.00002094 0.00124925 -0.00004341
v 0.00002094 0.00120255 -0.00034111
v 0.00002094 0.00108625 0.00061854
v -0.01302905 0.00108625 0.00061854
v 0.00002094 0.00112634 0.00054212
v 0.00002094 0.00122334 0.00025682
v 0.00002094 0.00096387 0.00079592
v 0.00002094 0.00074540 0.00100346
v -0.01302905 0.00071032 0.00102859
v -0.01302905 0.00019369 0.00123492
v 0.00002094 0.00048360 0.00115269
v 0.00002094 0.00071032 0.00102859
v 0.00102094 0.00106743 -0.00198066
v 0.00102094 0.00148252 -0.00203406
v 0.00102094 0.00121304 -0.00189498
v 0.00102094 0.00197779 0.00107281
v 0.00102094 -0.00019850 0.00635175
v 0.00102094 -0.00007115 0.00651358
v 0.00102094 0.00066665 0.00691298
v 0.00102094 -0.00451943 0.00020947
v 0.00102094 -0.00691295 0.00066667
v 0.00102094 0.00173497 0.00143263
v 0.00102094 0.00134171 0.00180621
v 0.00102094 0.00087047 0.00207482
v 0.00102094 -0.00435704 0.00062510
v 0.00102094 -0.00613633 -0.00031429
v 0.00102094 -0.00635173 -0.00019849
v 0.00102094 0.00020946 0.00451946
v 0.00102094 -0.00036717 0.00527639
v 0.00102094 -0.00041604 0.00566523
v 0.00102094 -0.00481616 -0.00012940
v 0.00102094 -0.00519869 -0.00034247
v 0.00102094 -0.00651356 -0.00007113
v 0.00102094 -0.00673853 0.00020252
v 0.00102094 -0.00677943 0.00027399
v 0.00102094 0.00290016 0.00700198
v 0.00102094 -0.00040078 0.00583257
v 0.00102094 -0.00031430 0.00613636
v 0.00102094 -0.00527636 -0.00036715
v 0.00102094 -0.00566521 -0.00041602
v 0.00102094 -0.00583255 -0.00040077
v 0.00102094 0.00062508 0.00435706
v 0.00102094 0.00206829 0.00729115
v 0.00102094 -0.00478536 -0.00010383
v 0.00102094 0.00020251 0.00673856
v 0.00102094 0.00027398 0.00677945
v 0.00102094 -0.00010384 0.00478538
v 0.00102094 -0.00012941 0.00481619
v 0.00102094 -0.00034249 0.00519872
v 0.00102094 0.00451937 0.00608392
v 0.00102094 0.00375308 0.00658431
v 0.00102094 0.00527637 0.00036719
v 0.00102094 0.00163130 -0.00154962
v 0.00102094 0.00481617 0.00012944
v 0.00102094 0.00519870 0.00034251
v 0.00102094 0.00748730 -0.00117436
v 0.00102094 0.00757426 -0.00026331
v 0.00102094 0.00691296 -0.00066663
v 0.00102094 0.00451944 -0.00020943
v 0.00102094 0.00220201 0.00046226
v 0.00102094 0.00224864 -0.00007815
v 0.00102094 0.00583255 0.00040081
v 0.00102094 0.00613634 0.00031433
v 0.00102094 0.00717542 0.00243967
v 0.00102094 0.00741718 0.00155698
v 0.00102094 0.00435705 -0.00062506
v 0.00102094 0.00478537 0.00010387
v 0.00102094 0.00202740 0.00097580
v 0.00102094 0.00293206 0.00698868
v 0.00102094 0.00682904 0.00328679
v 0.00102094 0.00638307 0.00408597
v 0.00102094 0.00566521 0.00041606
v 0.00102094 0.00584402 0.00482557
v 0.00102094 0.00521975 0.00549481
v 0.00102094 0.00635173 0.00019853
v 0.00102094 0.00651356 0.00007117
v 0.00102094 0.00755077 0.00065159
v 0.00102094 0.00673854 -0.00020248
v 0.00102094 0.00677943 -0.00027395
v 0.00102094 0.00698869 -0.00293206
v 0.00102094 0.00216460 -0.00061401
v 0.00102094 0.00195475 -0.00111419
v 0.00102094 0.00729115 -0.00206829
v 0.00102094 0.00328679 -0.00682904
v 0.00102094 0.00408597 -0.00638307
v 0.00102094 0.00658431 -0.00375308
v 0.00102094 0.00608392 -0.00451937
v 0.00102094 0.00065159 -0.00755077
v 0.00102094 0.00155698 -0.00741718
v 0.00102094 0.00243967 -0.00717542
v 0.00102094 0.00482558 -0.00584402
v 0.00102094 0.00549481 -0.00521975
v 0.00102094 0.00072429 -0.00213022
v 0.00102094 -0.00020945 -0.00451942
v 0.00102094 0.00019345 -0.00224165
v 0.00102094 -0.00062508 -0.00435702
v 0.00102094 -0.00026331 -0.00757426
v 0.00102094 -0.00066665 -0.00691294
v 0.00102094 0.00031431 -0.00613632
v 0.00102094 0.00019851 -0.00635171
v 0.00102094 0.00012942 -0.00481615
v 0.00102094 0.00034250 -0.00519868
v 0.00102094 0.00007115 -0.00651354
v 0.00102094 -0.00020250 -0.00673852
v 0.00102094 -0.00027397 -0.00677941
v 0.00102094 0.00036718 -0.00527635
v 0.00102094 0.00041605 -0.00566519
v 0.00102094 0.00040079 -0.00583253
v 0.00102094 0.00010385 -0.00478534
v -0.01302905 -0.00055371 0.00125720
v -0.01302905 -0.00031717 0.00133662
v -0.01302905 -0.00036129 0.00119667
v -0.01302905 0.00017914 0.00136201
v -0.01302905 -0.00017914 -0.00136201
v -0.01302905 0.00112576 -0.00078729
v -0.01302905 0.00124959 -0.00057068
v -0.01302905 0.00133221 -0.00033524
v -0.01302905 0.00137087 -0.00008874
v -0.01302905 0.00136431 0.00016069
v -0.01302905 0.00131274 0.00040482
v -0.01302905 0.00121786 0.00063559
v -0.01302905 -0.00007017 0.00137194
v -0.01302905 -0.00077198 0.00113631
v -0.01302905 -0.00084472 0.00092140
v -0.01302905 -0.00096478 0.00097793
v -0.01302905 -0.00108625 -0.00061850
v -0.01302905 -0.00121786 -0.00063559
v -0.01302905 -0.00131274 -0.00040482
v -0.01302905 -0.00124704 -0.00008594
v -0.01302905 0.00031717 -0.00133662
v -0.01302905 0.00007017 -0.00137195
v -0.01302905 0.00096478 -0.00097793
v -0.01302905 0.00077198 -0.00113631
v -0.01302905 0.00055371 -0.00125720
v -0.01302905 0.00091203 0.00102731
v -0.01302905 0.00108281 0.00084539
v -0.01302905 0.00024646 0.00135145
v -0.01302905 0.00048684 0.00128458
v -0.01302905 0.00071117 0.00117533
v -0.01302905 -0.00116084 0.00046365
v -0.01302905 -0.00124959 0.00057068
v -0.01302905 -0.00112576 0.00078729
v -0.01302905 -0.00071031 -0.00102855
v -0.01302905 -0.00091203 -0.00102731
v -0.01302905 -0.00108281 -0.00084539
v -0.01302905 -0.00024646 -0.00135145
v -0.01302905 -0.00048684 -0.00128458
v -0.01302905 -0.00071117 -0.00117533
v -0.01302905 -0.00136431 -0.00016069
v -0.01302905 -0.00137087 0.00008873
v -0.01302905 -0.00133221 0.00033523
v -0.01072083 0.00391756 0.00664696
v -0.01072083 0.00399423 0.00660118
v -0.01302907 -0.00017914 -0.00136201
v -0.01302907 0.00137087 -0.00008874
v -0.01201297 0.00414516 -0.00038193
v -0.01302907 0.00133221 -0.00033524
v -0.01121700 0.00635075 0.00001856
v -0.01128568 0.00615653 0.00019642
v -0.01072083 0.00766256 0.00090252
v -0.01130697 0.00609628 0.00023877
v -0.01137379 0.00590958 0.00034158
v -0.01146710 0.00564897 0.00042734
v -0.01149411 0.00557352 0.00044143
v -0.01157178 0.00535515 0.00045729
v -0.01166305 0.00509894 0.00042941
v -0.01169418 0.00501328 0.00040848
v -0.01302907 0.00136431 0.00016069
v -0.01175535 0.00484941 0.00035066
v -0.01184457 0.00462239 0.00022544
v -0.01188332 0.00451868 0.00014606
v -0.01191272 0.00443849 0.00007206
v -0.01197369 0.00426685 -0.00014105
v -0.01072083 0.00748227 -0.00188283
v -0.01072083 0.00753223 -0.00167180
v -0.01072083 0.00768237 -0.00071457
v -0.01107372 0.00667148 -0.00099993
v -0.01108520 0.00667539 -0.00072746
v -0.01072083 0.00769942 -0.00049838
v -0.01108816 0.00667130 -0.00068913
v -0.01111330 0.00662183 -0.00045931
v -0.01111782 0.00661150 -0.00042769
v -0.01072083 0.00771135 0.00025392
v -0.01115747 0.00651271 -0.00020749
v -0.01116756 0.00648619 -0.00016272
v -0.01302907 0.00124959 -0.00057068
v -0.01072083 0.00701828 -0.00320517
v -0.01072083 0.00726331 -0.00260265
v -0.01302907 0.00007017 -0.00137195
v -0.01184423 0.00022608 -0.00462331
v -0.01188332 0.00014604 -0.00451866
v -0.01191273 0.00007202 -0.00443845
v -0.01197369 -0.00014107 -0.00426682
v -0.01201297 -0.00038195 -0.00414514
v -0.01072083 0.00178139 -0.00750707
v -0.01137358 0.00034127 -0.00591019
v -0.01146686 0.00042717 -0.00564964
v -0.01149411 0.00044142 -0.00557350
v -0.01157148 0.00045729 -0.00535595
v -0.01166227 0.00042984 -0.00510103
v -0.01175457 0.00035151 -0.00485143
v -0.01302907 0.00031717 -0.00133662
v -0.01169416 0.00040846 -0.00501326
v -0.01108515 -0.00072810 -0.00667542
v -0.01108818 -0.00068915 -0.00667128
v -0.01072083 -0.00023078 -0.00771208
v -0.01111323 -0.00045993 -0.00662199
v -0.01072083 0.00039412 -0.00770546
v -0.01115735 -0.00020806 -0.00651299
v -0.01116756 -0.00016273 -0.00648616
v -0.01121685 0.00001806 -0.00635116
v -0.01128551 0.00019601 -0.00615703
v -0.01072083 0.00169438 -0.00752718
v -0.01072083 0.00073762 -0.00768019
v -0.01134877 0.00030770 -0.00597934
v -0.01130699 0.00023875 -0.00609626
v -0.01107372 -0.00100056 -0.00667138
v -0.01072083 0.00214145 0.00741239
v -0.01072083 0.00273432 0.00721477
v -0.01302907 0.00071117 0.00117533
v -0.01302907 0.00048684 0.00128458
v -0.01072083 0.00305358 0.00708555
v -0.01302907 0.00024646 0.00135145
v -0.01072083 0.00471975 0.00610355
v -0.01302907 0.00091203 0.00102731
v -0.01072083 0.00512237 0.00576981
v -0.01072083 0.00544751 0.00546388
v -0.01302907 0.00108281 0.00084539
v -0.01072083 0.00608936 0.00473804
v -0.01072083 0.00663518 0.00393748
v -0.01302907 0.00121786 0.00063559
v -0.01072083 0.00737292 0.00227364
v -0.01302907 0.00131274 0.00040482
v -0.01072083 0.00707636 0.00307482
v -0.01072083 0.00684005 0.00356975
v -0.01072083 0.00761872 0.00121840
v -0.01072083 0.00740594 0.00216367
v -0.01072083 0.00638786 -0.00432720
v -0.01302907 0.00112576 -0.00078729
v -0.01072083 0.00687983 -0.00349246
v -0.01072083 0.00632276 -0.00442177
v -0.01072083 0.00579515 -0.00509369
v -0.01302907 0.00096478 -0.00097793
v -0.01072083 0.00541866 -0.00549250
v -0.01072083 0.00511105 -0.00577985
v -0.01302907 0.00077198 -0.00113631
v -0.01072083 0.00434634 -0.00637485
v -0.01072083 0.00351308 -0.00686933
v -0.01302907 0.00055371 -0.00125720
v -0.01072083 0.00262443 -0.00725547
v -0.01072083 0.00310989 -0.00706102
v -0.00980209 0.00803730 0.00234813
v -0.00980209 0.00781263 0.00301244
v 0.00000000 0.00800421 0.00308631
v 0.00000000 0.00734667 0.00442934
v -0.00980209 0.00717083 0.00432332
v 0.00000000 0.00722511 0.00462498
v -0.00980209 0.00660849 0.00514197
v -0.00980209 0.00232401 0.00804431
v 0.00000000 0.00234114 0.00825298
v -0.00980209 0.00271420 0.00792118
v 0.00000000 0.00278075 0.00811542
v -0.00980209 0.00331390 0.00768961
v 0.00000000 0.00331885 0.00791061
v -0.00980209 0.00404846 0.00732952
v 0.00000000 0.00414774 0.00750925
v -0.00980209 0.00425154 0.00721363
v 0.00000000 0.00424818 0.00745289
v -0.00980209 0.00512212 0.00662389
v 0.00000000 0.00511555 0.00688649
v -0.00980209 0.00525972 0.00651516
v 0.00000000 0.00538869 0.00667493
v -0.00980209 0.00591192 0.00592968
v 0.00000000 0.00590833 0.00621967
v -0.00980209 0.00631116 0.00550284
v 0.00000000 0.00646591 0.00563778
v 0.00000000 0.00661495 0.00546215
v 0.00000000 0.00772991 0.00372037
v -0.00980209 0.00767963 0.00333696
v -0.00980209 0.00720084 0.00427316
v 0.00000000 0.00857707 0.00016258
v -0.00980209 0.00836875 0.00027556
v 0.00000000 0.00854685 0.00073755
v -0.00980209 0.00826823 0.00132227
v 0.00000000 0.00841854 0.00164951
v -0.00980209 0.00821704 0.00161003
v 0.00000000 0.00839563 0.00176238
v 0.00000000 0.00812199 0.00276151
v 0.00000000 -0.00029804 -0.00857344
v -0.00980209 -0.00025046 -0.00836954
v 0.00000000 0.00016258 -0.00857707
v -0.00980209 0.00015869 -0.00837179
v 0.00000000 0.00073755 -0.00854685
v -0.00980209 0.00080050 -0.00833494
v 0.00000000 0.00164951 -0.00841854
v -0.00980209 0.00161003 -0.00821704
v 0.00000000 0.00176238 -0.00839563
v -0.00980209 0.00183883 -0.00816889
v 0.00000000 0.00276151 -0.00812199
v -0.00980209 0.00284816 -0.00787400
v 0.00000000 0.00308631 -0.00800421
v -0.00980209 0.00301244 -0.00781263
v 0.00000000 0.00372037 -0.00772991
v -0.00980209 0.00381258 -0.00745495
v 0.00000000 0.00442934 -0.00734667
v -0.00980209 0.00432332 -0.00717083
v 0.00000000 0.00462498 -0.00722511
v -0.00980209 0.00471687 -0.00691832
v 0.00000000 0.00546215 -0.00661495
v -0.00980209 0.00550284 -0.00631116
v 0.00000000 0.00563778 -0.00646591
v -0.00980209 0.00554677 -0.00627259
v 0.00000000 0.00621967 -0.00590833
v -0.00980209 0.00628920 -0.00552793
v 0.00000000 0.00667493 -0.00538869
v -0.00980209 0.00651516 -0.00525972
v 0.00000000 0.00688649 -0.00511555
v -0.00980209 0.00693244 -0.00469609
v 0.00000000 0.00745289 -0.00424818
v -0.00980209 0.00732952 -0.00404846
v 0.00000000 0.00750926 -0.00414774
v -0.00980209 0.00746635 -0.00379020
v 0.00000000 0.00791061 -0.00331885
v -0.00980209 0.00788251 -0.00282453
v 0.00000000 0.00811542 -0.00278075
v -0.00980209 0.00792118 -0.00271420
v 0.00000000 0.00825298 -0.00234114
v -0.00980209 0.00817436 -0.00181432
v 0.00000000 0.00847500 -0.00132928
v -0.00980209 0.00827216 -0.00129747
v 0.00000000 0.00857344 -0.00029804
v -0.00980209 0.00833730 -0.00077549
v -0.00980209 0.00837179 0.00015869
v -0.01057768 0.00271374 -0.00750239
v -0.01057768 0.00797379 0.00026256
v -0.01057768 0.00731719 0.00317947
v -0.01057768 0.00405088 0.00687318
v -0.01057768 0.00221433 0.00766466
v -0.01057768 0.00778857 -0.00172869
v -0.01036326 0.00799212 -0.00177387
v -0.01036326 0.00770677 -0.00276156
v -0.01036326 0.00415675 0.00705280
v -0.01036326 0.00500792 0.00647621
v -0.01009679 0.00422569 0.00716977
v -0.01009679 0.00509098 0.00658362
v -0.01009679 -0.00024894 -0.00831866
v -0.01009679 0.00812467 -0.00180329
v -0.01009679 0.00828662 -0.00077078
v -0.01009679 0.00821796 0.00131423
v -0.00980209 0.00331390 0.00768960
v -0.01009679 0.00587598 0.00589363
v -0.01009679 0.00656832 0.00511071
v -0.01009679 0.00715706 0.00424718
v -0.01009679 0.00763294 0.00331667
v -0.01009679 0.00783459 -0.00280736
v -0.01009679 0.00742096 -0.00376716
v -0.01009679 0.00689029 -0.00466755
v -0.01009679 0.00625096 -0.00549432
v -0.01009679 0.00551305 -0.00623445
v -0.01009679 0.00468819 -0.00687626
v -0.01009679 0.00378940 -0.00740962
v -0.01009679 0.00283085 -0.00782614
v -0.01036326 0.00578012 0.00579748
v -0.01036326 0.00646116 0.00502733
v -0.01036326 0.00704030 0.00417789
v -0.01036326 0.00750841 0.00326256
v -0.01036326 0.00729989 -0.00370570
v -0.01036326 0.00677788 -0.00459140
v -0.01036326 0.00614898 -0.00540469
v -0.01036326 0.00542311 -0.00613274
v -0.01036326 0.00461171 -0.00676408
v -0.01036326 0.00372758 -0.00728874
v -0.01036326 0.00278467 -0.00769846
v -0.01057768 0.00488038 0.00631127
v -0.01057768 0.00563291 0.00564983
v -0.01057768 0.00629660 0.00489929
v -0.01057768 0.00686099 0.00407148
v -0.01009679 0.00831788 0.00027389
v -0.01036326 0.00808389 0.00129279
v -0.01036326 0.00818218 0.00026942
v -0.01057768 0.00787800 0.00125987
v -0.01057768 0.00751049 -0.00269123
v -0.01057768 0.00711397 -0.00361132
v -0.01057768 0.00660526 -0.00447446
v -0.01057768 0.00599237 -0.00526704
v -0.01057768 0.00528499 -0.00597655
v -0.01057768 0.00449425 -0.00659181
v -0.01057768 0.00363264 -0.00710311
v -0.01009679 0.00182765 -0.00811922
v -0.01009679 0.00079563 -0.00828427
v -0.01036326 0.00179783 -0.00798676
v -0.01036326 0.00078265 -0.00814911
v -0.01057768 0.00175205 -0.00778335
v -0.01057768 0.00076272 -0.00794157
v -0.01036326 -0.00024487 -0.00818295
v -0.01057768 -0.00023864 -0.00797454
v -0.01009679 0.00230988 0.00799541
v -0.01036326 0.00227220 0.00786497
v -0.01057768 0.00315750 0.00732669
v -0.01036326 0.00324002 0.00751817
v -0.01009679 0.00329376 0.00764286
v -0.01057768 0.00765798 0.00223731
v -0.01036326 0.00785812 0.00229578
v -0.01009679 0.00798844 0.00233386
v -0.01057768 0.00794382 -0.00073889
v -0.01036326 0.00815142 -0.00075820
v 0.00031398 0.00073379 -0.00850333
v 0.00031398 0.00175340 -0.00835288
v 0.00031398 0.00370143 -0.00769055
v 0.00031398 0.00618800 -0.00587824
v 0.00031398 0.00787034 -0.00330196
v 0.00031398 0.00850333 0.00073379
v 0.00031398 0.00835288 0.00175340
v 0.00031398 0.00769055 0.00370143
v 0.00031398 0.00587824 0.00618800
v 0.00031398 0.00330196 0.00787034
v 0.00097069 0.00305316 0.00727731
v 0.00031398 0.00232922 0.00821096
v 0.00059852 0.00324789 0.00774146
v 0.00059852 0.00229108 0.00807650
v 0.00082500 0.00316208 0.00753693
v 0.00082500 0.00223055 0.00786312
v 0.00097069 0.00215371 0.00759227
v 0.00097069 0.00470601 0.00633518
v 0.00097069 0.00543532 0.00572174
v 0.00082500 0.00487390 0.00656119
v 0.00082500 0.00562923 0.00592586
v 0.00059852 0.00500616 0.00673924
v 0.00059852 0.00578198 0.00608667
v 0.00031398 0.00508950 0.00685143
v 0.00097069 0.00664668 0.00425472
v 0.00097069 0.00711107 0.00342253
v 0.00082500 0.00688380 0.00440651
v 0.00082500 0.00736476 0.00354463
v 0.00059852 0.00707061 0.00452609
v 0.00059852 0.00756461 0.00364082
v 0.00031398 0.00718832 0.00460143
v 0.00097069 0.00759227 -0.00215371
v 0.00097069 0.00727731 -0.00305316
v 0.00082500 0.00786312 -0.00223055
v 0.00082500 0.00753693 -0.00316208
v 0.00059852 0.00807650 -0.00229108
v 0.00059852 0.00774146 -0.00324789
v 0.00031398 0.00821096 -0.00232922
v 0.00097069 0.00633518 -0.00470601
v 0.00097069 0.00572174 -0.00543532
v 0.00082500 0.00656119 -0.00487390
v 0.00082500 0.00592586 -0.00562923
v 0.00059852 0.00673924 -0.00500616
v 0.00059852 0.00608667 -0.00578198
v 0.00031398 0.00685143 -0.00508950
v 0.00097069 0.00425472 -0.00664668
v 0.00097069 0.00342253 -0.00711107
v 0.00082500 0.00440651 -0.00688380
v 0.00082500 0.00354463 -0.00736476
v 0.00059852 0.00452609 -0.00707061
v 0.00059852 0.00364082 -0.00756461
v 0.00031398 0.00460143 -0.00718832
v 0.00031398 0.00422654 0.00741495
v 0.00059852 0.00415733 0.00729352
v 0.00082500 0.00404750 0.00710083
v 0.00097069 0.00390808 0.00685623
v 0.00031398 0.00658126 0.00543434
v 0.00059852 0.00647350 0.00534535
v 0.00082500 0.00630247 0.00520413
v 0.00097069 0.00608537 0.00502487
v 0.00031398 0.00808063 0.00274745
v 0.00059852 0.00794831 0.00270246
v 0.00082500 0.00773832 0.00263106
v 0.00097069 0.00747176 0.00254043
v 0.00097069 0.00772350 0.00162129
v 0.00082500 0.00799904 0.00167913
v 0.00059852 0.00821610 0.00172469
v 0.00059852 0.00836409 0.00072177
v 0.00082500 0.00814311 0.00070271
v 0.00097069 0.00786261 0.00067850
v 0.00031398 0.00852978 -0.00029652
v 0.00059852 0.00839010 -0.00029167
v 0.00082500 0.00816844 -0.00028396
v 0.00097069 0.00788707 -0.00027418
v 0.00097069 0.00779651 -0.00122286
v 0.00082500 0.00807466 -0.00126649
v 0.00059852 0.00829377 -0.00130086
v 0.00031398 0.00843185 -0.00132251
v 0.00031398 0.00741495 -0.00422655
v 0.00059852 0.00729352 -0.00415733
v 0.00082500 0.00710083 -0.00404750
v 0.00097069 0.00685623 -0.00390808
v 0.00031398 0.00543434 -0.00658126
v 0.00059852 0.00534535 -0.00647349
v 0.00082500 0.00520413 -0.00630247
v 0.00097069 0.00502487 -0.00608537
v 0.00031398 0.00274745 -0.00808063
v 0.00059852 0.00270246 -0.00794831
v 0.00082500 0.00263106 -0.00773832
v 0.00097069 0.00254043 -0.00747176
v 0.00097069 0.00162129 -0.00772350
v 0.00082500 0.00167913 -0.00799904
v 0.00059852 0.00172469 -0.00821610
v 0.00059852 0.00072177 -0.00836409
v 0.00082500 0.00070271 -0.00814311
v 0.00097069 0.00067850 -0.00786261
v 0.00031398 -0.00029652 -0.00852978
v 0.00059852 -0.00029167 -0.00839010
v 0.00082500 -0.00028396 -0.00816844
v 0.00097069 -0.00027418 -0.00788707
v 0.00097200 0.00115744 0.00155815
v 0.00097200 0.00149669 0.00123588
v 0.00082997 0.00099121 0.00133436
v 0.00082997 0.00128173 0.00105838
v 0.00060873 0.00085928 0.00115677
v 0.00060873 0.00111114 0.00091752
v 0.00032996 0.00011168 -0.00129411
v 0.00032996 0.00117044 0.00056335
v 0.00032996 0.00077458 0.00104275
v 0.00032996 0.00100161 0.00082708
v 0.00032996 0.00129816 -0.00004511
v 0.00032996 0.00127124 0.00026687
v 0.00032996 0.00124964 -0.00035447
v 0.00032996 0.00112849 -0.00064322
v 0.00032996 0.00070030 -0.00109398
v 0.00032996 0.00094176 -0.00089460
v 0.00060873 0.00129843 0.00062495
v 0.00060873 0.00141025 0.00029605
v 0.00060873 0.00144012 -0.00005004
v 0.00060873 0.00138629 -0.00039323
v 0.00060873 0.00125189 -0.00071356
v 0.00060873 0.00104475 -0.00099242
v 0.00060873 0.00077688 -0.00121361
v 0.00082997 0.00149777 0.00072089
v 0.00082997 0.00162676 0.00034150
v 0.00082997 0.00166121 -0.00005773
v 0.00082997 0.00159912 -0.00045360
v 0.00082997 0.00144410 -0.00082312
v 0.00082997 0.00120514 -0.00114479
v 0.00082997 0.00089615 -0.00139994
v 0.00097200 0.00174896 0.00084179
v 0.00097200 0.00189959 0.00039877
v 0.00097200 0.00193981 -0.00006741
v 0.00097200 0.00186731 -0.00052968
v 0.00097200 0.00168628 -0.00096117
v 0.00097200 0.00140726 -0.00133679
v 0.00097200 0.00104644 -0.00163472
v 0.00032996 0.00050253 0.00119782
v 0.00060873 0.00055748 0.00132880
v 0.00082997 0.00064307 0.00153280
v 0.00097200 0.00075092 0.00178986
v 0.00097200 0.00062482 -0.00183765
v 0.00082997 0.00053508 -0.00157372
v 0.00060873 0.00046386 -0.00136426
v 0.00032996 0.00041814 -0.00122978
v 0.00060873 0.00012389 -0.00143563
v 0.00082997 0.00014291 -0.00165604
v 0.00097200 0.00016688 -0.00193378
f 1 2 3
f 2 4 5
f 6 7 8
f 9 10 11
f 11 10 12
f 11 12 13
f 4 11 14
f 14 11 13
f 14 13 6
f 6 13 15
f 6 15 7
f 16 17 8
f 8 17 18
f 8 18 6
f 16 19 17
f 17 19 20
f 17 20 21
f 21 20 22
f 21 22 23
f 22 24 23
f 23 24 25
f 23 25 26
f 26 25 27
f 26 27 28
f 27 29 28
f 28 29 30
f 28 30 31
f 31 30 32
f 31 32 33
f 32 34 33
f 33 34 35
f 33 35 36
f 4 14 5
f 5 14 6
f 5 6 37
f 37 6 18
f 37 18 38
f 38 18 17
f 38 17 39
f 39 17 21
f 39 21 40
f 40 21 23
f 40 23 41
f 41 23 26
f 41 26 42
f 42 26 28
f 42 28 43
f 43 28 31
f 43 31 44
f 44 31 33
f 44 33 45
f 45 33 36
f 45 36 46
f 2 5 3
f 3 5 37
f 3 37 47
f 47 37 38
f 47 38 48
f 48 38 39
f 48 39 49
f 49 39 40
f 49 40 50
f 50 40 41
f 50 41 51
f 51 41 42
f 51 42 52
f 52 42 43
f 52 43 53
f 53 43 44
f 53 44 54
f 54 44 45
f 54 45 55
f 55 45 46
f 55 46 56
f 1 3 57
f 57 3 47
f 57 47 58
f 58 47 48
f 58 48 59
f 59 48 49
f 59 49 60
f 60 49 50
f 60 50 61
f 61 50 51
f 61 51 62
f 62 51 52
f 62 52 63
f 63 52 53
f 63 53 64
f 64 53 54
f 64 54 65
f 65 54 55
f 65 55 66
f 66 55 56
f 66 56 67
f 68 69 70
f 70 69 71
f 70 71 72
f 72 71 73
f 72 73 74
f 74 73 75
f 74 75 76
f 76 75 77
f 78 77 1
f 1 77 75
f 1 75 2
f 2 75 73
f 2 73 4
f 4 73 71
f 4 71 11
f 11 71 69
f 11 69 9
f 9 69 68
f 9 68 79
f 78 1 80
f 80 1 57
f 80 57 81
f 81 57 58
f 81 58 82
f 82 58 59
f 82 59 83
f 83 59 60
f 83 60 84
f 84 60 61
f 84 61 85
f 85 61 62
f 85 62 86
f 86 62 63
f 86 63 87
f 87 63 64
f 87 64 88
f 88 64 65
f 88 65 89
f 89 65 66
f 89 66 90
f 90 66 67
f 90 67 91
f 92 93 94
f 94 93 95
f 94 95 96
f 96 95 97
f 96 97 98
f 98 97 99
f 98 99 100
f 100 101 98
f 98 101 102
f 98 102 103
f 103 102 104
f 104 102 105
f 104 105 106
f 105 107 106
f 106 107 108
f 106 108 109
f 109 108 110
f 109 110 111
f 110 112 111
f 111 112 113
f 111 113 114
f 114 113 115
f 114 115 116
f 116 115 117
f 116 117 118
f 119 120 118
f 118 120 121
f 118 121 116
f 119 122 120
f 120 122 123
f 120 123 124
f 124 123 125
f 124 125 126
f 127 128 129
f 129 128 126
f 129 126 130
f 130 126 125
f 131 132 133
f 134 135 136
f 136 135 137
f 136 137 138
f 138 137 139
f 138 139 140
f 140 139 141
f 141 142 140
f 140 142 143
f 140 143 144
f 144 143 145
f 145 143 146
f 145 146 147
f 146 148 147
f 147 148 149
f 147 149 150
f 150 149 151
f 150 151 152
f 151 153 152
f 152 153 154
f 152 154 155
f 155 154 156
f 155 156 132
f 132 156 157
f 132 157 133
f 131 133 158
f 158 133 159
f 158 159 160
f 160 161 158
f 158 161 162
f 158 162 163
f 163 162 164
f 163 164 165
f 166 167 168
f 168 167 165
f 168 165 169
f 169 165 164
f 170 171 172
f 172 171 173
f 172 173 174
f 174 173 175
f 174 175 176
f 176 175 177
f 176 177 178
f 178 179 176
f 176 179 180
f 176 180 181
f 181 180 182
f 182 180 183
f 182 183 184
f 183 185 184
f 184 185 186
f 184 186 187
f 187 186 188
f 187 188 189
f 188 190 189
f 189 190 191
f 189 191 192
f 192 191 193
f 192 193 194
f 194 193 195
f 194 195 196
f 197 198 196
f 196 198 199
f 196 199 194
f 197 200 198
f 198 200 201
f 198 201 202
f 202 201 203
f 202 203 204
f 205 206 207
f 207 206 204
f 207 204 208
f 208 204 203
f 209 210 211
f 211 210 212
f 211 212 213
f 213 212 214
f 213 214 215
f 215 214 216
f 216 217 215
f 215 217 218
f 215 218 219
f 219 218 220
f 220 218 221
f 220 221 222
f 221 223 222
f 222 223 224
f 222 224 225
f 225 224 226
f 225 226 227
f 227 226 228
f 228 229 227
f 227 229 230
f 227 230 231
f 231 230 232
f 231 232 233
f 233 232 234
f 233 234 235
f 236 237 235
f 235 237 238
f 235 238 233
f 236 239 237
f 237 239 240
f 237 240 241
f 241 240 242
f 241 242 243
f 244 245 246
f 246 245 243
f 246 243 247
f 247 243 242
f 248 249 250
f 251 252 253
f 254 255 256
f 257 258 259
f 260 261 262
f 263 264 265
f 266 267 268
f 269 270 271
f 272 273 274
f 275 276 277
f 278 279 280
f 281 282 283
f 283 282 284
f 283 284 285
f 285 284 286
f 285 286 287
f 287 286 288
f 287 288 289
f 289 288 277
f 290 291 292
f 292 291 293
f 292 293 294
f 294 293 295
f 294 295 296
f 296 295 297
f 296 297 298
f 298 297 274
f 299 300 301
f 301 300 302
f 301 302 303
f 303 302 304
f 303 304 305
f 305 304 306
f 305 306 307
f 307 306 271
f 308 309 310
f 310 309 311
f 310 311 312
f 312 311 313
f 312 313 314
f 314 313 315
f 314 315 316
f 316 315 262
f 317 318 319
f 319 318 320
f 319 320 321
f 321 320 322
f 321 322 323
f 323 322 324
f 323 324 325
f 325 324 259
f 326 327 328
f 328 327 329
f 328 329 330
f 330 329 331
f 330 331 332
f 332 331 333
f 332 333 334
f 334 333 256
f 335 281 336
f 336 281 283
f 336 283 337
f 337 283 285
f 337 285 338
f 338 285 287
f 338 287 339
f 339 287 289
f 339 289 340
f 340 289 341
f 277 276 289
f 289 276 342
f 289 342 341
f 343 275 344
f 344 275 277
f 344 277 345
f 345 277 288
f 345 288 346
f 346 288 286
f 346 286 347
f 347 286 284
f 347 284 348
f 348 284 282
f 348 290 347
f 347 290 292
f 347 292 346
f 346 292 294
f 346 294 345
f 345 294 296
f 345 296 344
f 344 296 298
f 344 298 343
f 343 298 349
f 274 273 298
f 298 273 350
f 298 350 349
f 351 272 352
f 352 272 274
f 352 274 353
f 353 274 297
f 353 297 354
f 354 297 295
f 354 295 355
f 355 295 293
f 355 293 356
f 356 293 291
f 356 299 355
f 355 299 301
f 355 301 354
f 354 301 303
f 354 303 353
f 353 303 305
f 353 305 352
f 352 305 307
f 352 307 351
f 351 307 357
f 271 270 307
f 307 270 358
f 307 358 357
f 359 269 360
f 360 269 271
f 360 271 361
f 361 271 306
f 361 306 362
f 362 306 304
f 362 304 363
f 363 304 302
f 363 302 364
f 364 302 300
f 364 365 363
f 363 365 366
f 363 366 362
f 362 366 367
f 362 367 361
f 361 367 368
f 361 368 360
f 360 368 268
f 360 268 359
f 359 268 267
f 264 266 265
f 265 266 268
f 265 268 369
f 369 268 368
f 369 368 370
f 370 368 367
f 370 367 371
f 371 367 366
f 371 366 372
f 372 366 365
f 373 263 374
f 374 263 265
f 374 265 375
f 375 265 369
f 375 369 376
f 376 369 370
f 376 370 280
f 280 370 371
f 280 371 278
f 278 371 372
f 279 377 280
f 280 377 378
f 280 378 376
f 376 378 379
f 376 379 375
f 375 379 380
f 375 380 374
f 374 380 381
f 374 381 373
f 373 381 382
f 377 308 378
f 378 308 310
f 378 310 379
f 379 310 312
f 379 312 380
f 380 312 314
f 380 314 381
f 381 314 316
f 381 316 382
f 382 316 383
f 262 261 316
f 316 261 384
f 316 384 383
f 385 260 386
f 386 260 262
f 386 262 387
f 387 262 315
f 387 315 388
f 388 315 313
f 388 313 389
f 389 313 311
f 389 311 390
f 390 311 309
f 390 317 389
f 389 317 319
f 389 319 388
f 388 319 321
f 388 321 387
f 387 321 323
f 387 323 386
f 386 323 325
f 386 325 385
f 385 325 391
f 259 258 325
f 325 258 392
f 325 392 391
f 393 257 394
f 394 257 259
f 394 259 395
f 395 259 324
f 395 324 396
f 396 324 322
f 396 322 397
f 397 322 320
f 397 320 398
f 398 320 318
f 398 326 397
f 397 326 328
f 397 328 396
f 396 328 330
f 396 330 395
f 395 330 332
f 395 332 394
f 394 332 334
f 394 334 393
f 393 334 399
f 256 255 334
f 334 255 400
f 334 400 399
f 401 254 402
f 402 254 256
f 402 256 403
f 403 256 333
f 403 333 404
f 404 333 331
f 404 331 405
f 405 331 329
f 405 329 406
f 406 329 327
f 406 407 405
f 405 407 408
f 405 408 404
f 404 408 409
f 404 409 403
f 403 409 410
f 403 410 402
f 402 410 253
f 402 253 401
f 401 253 252
f 249 251 250
f 250 251 253
f 250 253 411
f 411 253 410
f 411 410 412
f 412 410 409
f 412 409 413
f 413 409 408
f 413 408 414
f 414 408 407
f 415 248 416
f 416 248 250
f 416 250 417
f 417 250 411
f 417 411 418
f 418 411 412
f 418 412 419
f 419 412 413
f 419 413 420
f 420 413 414
f 420 421 419
f 419 421 422
f 419 422 418
f 418 422 423
f 418 423 417
f 417 423 424
f 417 424 416
f 416 424 425
f 416 425 415
f 415 425 426
f 427 428 429
f 430 431 432
f 433 434 435
f 436 437 438
f 439 440 441
f 442 443 444
f 438 445 446
f 445 447 448
f 449 450 451
f 452 453 454
f 455 456 457
f 458 459 447
f 459 460 447
f 447 460 461
f 447 461 448
f 448 461 462
f 448 462 463
f 463 462 464
f 463 464 465
f 465 464 466
f 466 467 465
f 465 467 468
f 465 468 469
f 468 470 469
f 469 470 471
f 469 471 472
f 455 457 473
f 452 454 474
f 453 475 454
f 454 475 476
f 454 476 443
f 475 477 476
f 476 477 478
f 476 478 479
f 479 478 480
f 479 480 481
f 481 480 482
f 481 482 483
f 483 482 484
f 484 485 483
f 483 485 486
f 483 486 487
f 487 486 488
f 487 488 489
f 488 490 489
f 489 490 491
f 489 491 492
f 493 494 495
f 495 494 492
f 495 492 496
f 496 492 491
f 449 451 497
f 445 448 446
f 446 448 463
f 446 463 498
f 498 463 465
f 498 465 499
f 499 465 469
f 499 469 500
f 500 469 472
f 500 472 501
f 443 476 444
f 444 476 479
f 444 479 502
f 502 479 481
f 502 481 503
f 503 481 483
f 503 483 504
f 504 483 487
f 504 487 505
f 505 487 489
f 505 489 506
f 506 489 492
f 506 492 507
f 507 492 494
f 507 494 508
f 438 446 509
f 509 446 498
f 509 498 510
f 510 498 499
f 510 499 511
f 511 499 500
f 511 500 512
f 512 500 501
f 512 501 435
f 456 513 457
f 457 513 514
f 457 514 515
f 515 514 516
f 515 516 517
f 517 516 432
f 442 444 518
f 518 444 502
f 518 502 519
f 519 502 503
f 519 503 520
f 520 503 504
f 520 504 521
f 521 504 505
f 521 505 522
f 522 505 506
f 522 506 523
f 523 506 507
f 523 507 524
f 524 507 508
f 524 508 429
f 525 526 527
f 527 526 528
f 527 528 529
f 529 528 530
f 529 530 531
f 531 530 532
f 531 532 533
f 450 534 451
f 451 534 535
f 451 535 536
f 536 535 537
f 536 537 538
f 538 537 539
f 540 541 542
f 542 541 543
f 542 543 544
f 544 543 545
f 544 545 546
f 546 545 441
f 546 441 547
f 547 441 440
f 548 439 549
f 549 439 441
f 549 441 550
f 550 441 545
f 550 545 551
f 551 545 543
f 551 543 552
f 552 543 541
f 552 458 551
f 551 458 447
f 551 447 550
f 550 447 445
f 550 445 549
f 549 445 438
f 549 438 548
f 548 438 437
f 436 438 553
f 553 438 509
f 553 509 554
f 554 509 510
f 554 510 555
f 555 510 511
f 555 511 556
f 556 511 512
f 556 512 557
f 435 434 512
f 512 434 558
f 512 558 557
f 559 433 560
f 560 433 435
f 560 435 561
f 561 435 501
f 561 501 562
f 562 501 472
f 562 472 563
f 563 472 471
f 563 473 562
f 562 473 457
f 562 457 561
f 561 457 515
f 561 515 560
f 560 515 517
f 560 517 559
f 559 517 564
f 432 431 517
f 517 431 565
f 517 565 564
f 566 430 567
f 567 430 432
f 567 432 568
f 568 432 516
f 568 516 569
f 569 516 514
f 569 514 570
f 570 514 513
f 570 474 569
f 569 474 454
f 569 454 568
f 568 454 443
f 568 443 567
f 567 443 442
f 567 442 566
f 566 442 571
f 572 573 520
f 520 573 574
f 520 574 519
f 519 574 575
f 519 575 518
f 518 575 576
f 518 576 442
f 442 576 577
f 442 577 571
f 572 520 578
f 578 520 521
f 578 521 579
f 579 521 522
f 579 522 580
f 580 522 523
f 580 523 581
f 581 523 524
f 581 524 582
f 429 428 524
f 524 428 583
f 524 583 582
f 533 427 531
f 531 427 429
f 531 429 529
f 529 429 508
f 529 508 527
f 527 508 494
f 527 494 525
f 525 494 493
f 584 585 532
f 532 585 586
f 532 586 533
f 526 497 528
f 528 497 451
f 528 451 530
f 530 451 536
f 530 536 532
f 532 536 538
f 532 538 584
f 584 538 539
f 584 539 587
f 473 563 269
f 358 468 357
f 357 468 467
f 540 340 541
f 541 340 341
f 541 341 552
f 552 341 342
f 552 342 588
f 588 342 276
f 588 276 459
f 459 276 275
f 459 275 460
f 460 275 343
f 460 343 461
f 461 343 349
f 461 349 462
f 462 349 350
f 462 350 464
f 464 350 273
f 464 273 466
f 466 273 272
f 466 272 467
f 467 272 351
f 467 351 357
f 269 563 270
f 270 563 471
f 270 471 358
f 358 471 470
f 358 470 468
f 263 513 264
f 264 513 456
f 264 456 266
f 266 456 455
f 266 455 267
f 267 455 473
f 267 473 359
f 359 473 269
f 426 534 415
f 415 534 450
f 415 450 248
f 248 450 449
f 248 449 249
f 249 449 497
f 249 497 251
f 251 497 526
f 251 526 252
f 252 526 589
f 252 589 401
f 401 589 493
f 401 493 254
f 254 493 495
f 254 495 255
f 255 495 496
f 255 496 400
f 400 496 491
f 400 491 399
f 399 491 490
f 399 490 393
f 393 490 488
f 393 488 257
f 257 488 486
f 257 486 258
f 258 486 485
f 258 485 392
f 392 485 484
f 392 484 391
f 391 484 482
f 391 482 385
f 385 482 480
f 385 480 260
f 260 480 478
f 260 478 261
f 261 478 477
f 261 477 384
f 384 477 475
f 384 475 383
f 383 475 453
f 383 453 382
f 382 453 452
f 382 452 373
f 373 452 474
f 373 474 263
f 263 474 570
f 263 570 513
f 590 591 592
f 244 593 594
f 594 593 595
f 594 595 596
f 596 595 590
f 596 590 597
f 597 590 592
f 427 598 599
f 599 600 427
f 427 600 601
f 427 601 602
f 591 590 603
f 603 590 604
f 603 604 605
f 606 607 584
f 584 607 608
f 584 608 585
f 585 608 609
f 609 610 585
f 585 610 611
f 585 611 612
f 427 533 598
f 598 533 586
f 598 586 613
f 613 586 585
f 613 585 614
f 614 585 612
f 606 584 615
f 615 584 587
f 615 587 210
f 135 547 137
f 137 547 440
f 137 440 139
f 151 149 439
f 439 149 148
f 439 148 146
f 146 143 439
f 439 143 142
f 439 142 440
f 440 142 141
f 440 141 139
f 133 157 436
f 436 157 156
f 156 154 436
f 436 154 153
f 436 153 437
f 151 439 153
f 153 439 548
f 153 548 437
f 168 169 616
f 616 169 164
f 616 164 162
f 162 161 616
f 616 161 160
f 616 160 617
f 617 160 159
f 617 159 133
f 616 618 168
f 168 618 619
f 168 619 166
f 620 621 205
f 620 205 622
f 623 624 565
f 565 624 625
f 565 625 626
f 626 627 565
f 565 627 628
f 565 628 629
f 630 631 632
f 632 631 633
f 632 633 634
f 634 635 632
f 632 635 636
f 632 636 620
f 620 636 637
f 620 637 621
f 177 175 577
f 577 175 571
f 175 173 571
f 571 173 171
f 571 171 566
f 171 638 566
f 566 638 639
f 566 639 430
f 430 639 640
f 640 641 430
f 430 641 642
f 430 642 431
f 431 642 643
f 431 643 565
f 565 643 644
f 565 644 623
f 201 200 645
f 205 207 622
f 622 207 208
f 622 208 645
f 645 208 203
f 645 203 201
f 200 197 645
f 645 197 196
f 645 196 195
f 190 575 191
f 191 575 193
f 190 188 575
f 575 188 186
f 575 186 185
f 185 183 575
f 575 183 180
f 575 180 576
f 576 180 179
f 576 179 577
f 577 179 178
f 577 178 177
f 133 436 617
f 617 436 553
f 617 553 646
f 553 554 646
f 646 554 555
f 646 555 647
f 555 556 647
f 647 556 557
f 647 557 648
f 433 649 434
f 434 649 648
f 434 648 558
f 558 648 557
f 629 630 565
f 565 630 632
f 565 632 564
f 564 632 649
f 564 649 559
f 559 649 433
f 573 650 574
f 574 650 645
f 574 645 575
f 575 645 195
f 575 195 193
f 573 572 650
f 650 572 578
f 650 578 651
f 578 579 651
f 651 579 580
f 651 580 652
f 580 581 652
f 652 581 582
f 652 582 653
f 602 605 427
f 427 605 604
f 427 604 428
f 428 604 653
f 428 653 583
f 583 653 582
f 654 79 655
f 656 657 658
f 654 655 659
f 659 655 660
f 659 660 658
f 658 660 661
f 658 661 656
f 662 663 664
f 664 663 658
f 664 658 665
f 665 658 657
f 666 667 668
f 668 667 663
f 668 663 669
f 669 663 662
f 670 671 672
f 672 671 667
f 672 667 673
f 673 667 666
f 670 674 671
f 671 674 675
f 671 675 676
f 35 677 678
f 678 677 676
f 678 676 679
f 679 676 675
f 680 681 682
f 78 80 165
f 233 238 683
f 684 685 199
f 421 420 686
f 83 84 687
f 377 279 688
f 238 237 683
f 683 237 241
f 683 241 689
f 689 241 243
f 689 243 690
f 690 243 691
f 687 84 692
f 278 693 694
f 390 309 181
f 87 88 695
f 695 88 89
f 695 89 90
f 696 697 199
f 698 699 80
f 694 700 278
f 278 700 701
f 278 701 279
f 279 701 702
f 279 702 688
f 688 170 377
f 377 170 172
f 377 172 308
f 308 172 174
f 308 174 309
f 309 174 176
f 309 176 181
f 181 182 390
f 390 182 184
f 390 184 317
f 317 184 187
f 317 187 318
f 219 220 703
f 703 220 222
f 222 225 703
f 703 225 227
f 703 227 683
f 683 227 231
f 683 231 233
f 318 187 398
f 398 187 189
f 398 189 326
f 326 189 192
f 326 192 327
f 697 704 199
f 199 704 705
f 199 705 684
f 699 706 80
f 80 706 707
f 80 707 278
f 278 707 708
f 278 708 693
f 691 243 91
f 91 243 245
f 91 245 90
f 90 245 709
f 90 709 695
f 692 84 206
f 206 84 85
f 206 85 204
f 204 85 86
f 204 86 202
f 686 209 421
f 421 209 211
f 421 211 710
f 710 211 213
f 710 213 703
f 703 213 215
f 703 215 219
f 327 192 406
f 406 192 194
f 406 194 407
f 698 80 711
f 711 80 81
f 711 81 687
f 687 81 82
f 687 82 83
f 194 199 407
f 407 199 685
f 407 685 414
f 414 685 712
f 414 712 420
f 420 712 713
f 420 713 686
f 714 715 199
f 199 715 716
f 199 716 696
f 199 198 714
f 714 198 202
f 714 202 695
f 695 202 86
f 695 86 87
f 717 718 719
f 682 681 720
f 721 722 703
f 723 724 725
f 726 727 728
f 729 730 731
f 731 730 732
f 111 114 681
f 681 114 116
f 681 116 121
f 126 720 124
f 124 720 681
f 124 681 120
f 120 681 121
f 726 728 733
f 721 703 734
f 734 703 683
f 734 683 726
f 726 683 735
f 726 735 727
f 719 718 722
f 722 718 736
f 722 736 703
f 731 737 729
f 729 737 738
f 729 738 739
f 739 738 740
f 739 740 719
f 719 740 741
f 719 741 717
f 730 742 732
f 732 742 743
f 732 743 744
f 744 743 745
f 744 745 724
f 724 745 746
f 724 746 725
f 103 104 747
f 747 104 106
f 747 106 109
f 733 728 128
f 128 728 748
f 128 748 126
f 126 748 749
f 126 749 720
f 725 92 723
f 723 92 94
f 723 94 750
f 750 94 96
f 750 96 747
f 747 96 98
f 747 98 103
f 681 751 752
f 109 111 747
f 747 111 681
f 747 681 753
f 753 681 754
f 755 756 681
f 681 756 757
f 681 757 751
f 752 758 681
f 681 758 759
f 681 759 754
f 680 760 761
f 761 760 762
f 761 762 763
f 335 764 765
f 763 762 167
f 167 762 76
f 167 76 165
f 165 76 77
f 165 77 78
f 755 766 767
f 768 769 681
f 767 770 755
f 755 770 771
f 755 771 764
f 764 771 772
f 764 772 765
f 132 365 364
f 769 773 681
f 681 773 774
f 681 774 755
f 755 774 775
f 755 775 766
f 132 364 155
f 365 132 372
f 372 132 131
f 372 131 278
f 278 131 158
f 278 158 80
f 80 158 163
f 80 163 165
f 680 761 681
f 681 761 776
f 681 776 768
f 348 282 144
f 364 300 155
f 155 300 299
f 155 299 152
f 152 299 356
f 152 356 150
f 765 134 335
f 335 134 136
f 335 136 281
f 281 136 138
f 281 138 282
f 282 138 140
f 282 140 144
f 144 145 348
f 348 145 147
f 348 147 290
f 290 147 150
f 290 150 291
f 291 150 356
f 777 778 779
f 780 593 677
f 781 619 654
f 782 658 783
f 783 658 663
f 783 663 784
f 784 663 785
f 785 663 667
f 785 667 786
f 786 667 787
f 787 667 671
f 787 671 788
f 779 778 677
f 677 778 789
f 677 789 780
f 777 779 790
f 790 779 791
f 790 791 792
f 793 794 795
f 793 795 796
f 659 797 654
f 654 797 798
f 654 798 781
f 782 799 658
f 658 799 800
f 658 800 659
f 659 800 801
f 659 801 797
f 676 802 671
f 671 802 803
f 671 803 788
f 593 804 677
f 677 804 805
f 677 805 676
f 676 805 806
f 676 806 802
f 807 808 791
f 791 808 809
f 791 809 792
f 810 811 793
f 793 811 812
f 793 812 794
f 619 813 654
f 654 813 814
f 654 814 810
f 810 814 815
f 810 815 811
f 795 816 796
f 796 816 817
f 796 817 807
f 807 817 818
f 807 818 808
f 677 35 34
f 29 27 791
f 677 34 779
f 779 34 32
f 779 32 791
f 791 32 30
f 791 30 29
f 22 807 24
f 24 807 791
f 24 791 25
f 25 791 27
f 16 796 19
f 19 796 807
f 19 807 20
f 20 807 22
f 15 793 7
f 7 793 796
f 7 796 8
f 8 796 16
f 15 13 793
f 793 13 12
f 793 12 810
f 79 654 9
f 9 654 810
f 9 810 10
f 10 810 12
f 819 820 228
f 166 619 821
f 822 823 127
f 822 127 824
f 825 826 827
f 827 826 828
f 827 828 829
f 829 830 827
f 827 830 831
f 827 831 832
f 833 834 835
f 835 834 836
f 835 836 837
f 837 838 835
f 835 838 839
f 835 839 822
f 822 839 840
f 822 840 823
f 99 97 841
f 841 97 842
f 97 95 842
f 842 95 93
f 842 93 843
f 93 844 843
f 843 844 845
f 843 845 846
f 846 845 847
f 847 848 846
f 846 848 849
f 846 849 850
f 850 849 851
f 850 851 827
f 827 851 852
f 827 852 825
f 123 122 853
f 127 129 824
f 824 129 130
f 824 130 853
f 853 130 125
f 853 125 123
f 122 119 853
f 853 119 118
f 853 118 117
f 112 854 113
f 113 854 115
f 112 110 854
f 854 110 108
f 854 108 107
f 107 105 854
f 854 105 102
f 854 102 855
f 855 102 101
f 855 101 841
f 841 101 100
f 841 100 99
f 856 857 858
f 858 859 856
f 856 859 860
f 856 860 821
f 821 860 861
f 821 861 166
f 862 863 864
f 864 865 862
f 862 865 866
f 862 866 867
f 857 856 868
f 868 856 869
f 868 869 870
f 871 872 873
f 873 872 874
f 873 874 875
f 875 874 876
f 876 877 875
f 875 877 878
f 875 878 879
f 862 880 863
f 863 880 881
f 863 881 882
f 882 881 875
f 882 875 883
f 883 875 879
f 871 873 884
f 884 873 547
f 884 547 135
f 210 587 212
f 212 587 885
f 212 885 214
f 226 224 886
f 886 224 223
f 886 223 221
f 221 218 886
f 886 218 217
f 886 217 885
f 885 217 216
f 885 216 214
f 234 232 820
f 234 820 235
f 235 887 236
f 236 887 888
f 232 230 820
f 820 230 229
f 820 229 228
f 226 886 228
f 228 886 889
f 228 889 819
f 246 247 888
f 888 247 242
f 242 240 888
f 888 240 239
f 888 239 236
f 888 890 246
f 246 890 593
f 246 593 244
f 235 820 887
f 887 820 891
f 887 891 892
f 891 893 892
f 892 893 894
f 892 894 895
f 894 896 895
f 895 896 897
f 895 897 898
f 899 900 901
f 901 900 898
f 901 898 902
f 902 898 897
f 832 833 827
f 827 833 835
f 827 835 903
f 903 835 900
f 903 900 904
f 904 900 899
f 905 906 907
f 907 906 853
f 907 853 854
f 854 853 117
f 854 117 115
f 905 908 906
f 906 908 909
f 906 909 910
f 909 911 910
f 910 911 912
f 910 912 913
f 912 914 913
f 913 914 915
f 913 915 916
f 867 870 862
f 862 870 869
f 862 869 917
f 917 869 916
f 917 916 918
f 918 916 915
f 919 920 921
f 922 923 924
f 924 923 925
f 534 426 926
f 926 426 927
f 926 927 928
f 928 927 929
f 928 929 930
f 930 929 931
f 930 931 932
f 932 931 933
f 932 933 934
f 934 933 935
f 934 935 936
f 936 935 937
f 936 937 938
f 938 937 939
f 938 939 940
f 940 939 941
f 940 941 942
f 942 941 943
f 942 943 925
f 925 943 944
f 925 944 924
f 921 920 945
f 945 920 946
f 945 946 922
f 922 946 947
f 922 947 923
f 948 949 950
f 950 949 951
f 950 951 952
f 952 951 953
f 952 953 954
f 954 953 919
f 954 919 955
f 955 919 921
f 340 540 956
f 956 540 957
f 956 957 958
f 958 957 959
f 958 959 960
f 960 959 961
f 960 961 962
f 962 961 963
f 962 963 964
f 964 963 965
f 964 965 966
f 966 965 967
f 966 967 968
f 968 967 969
f 968 969 970
f 970 969 971
f 970 971 972
f 972 971 973
f 972 973 974
f 974 973 975
f 974 975 976
f 976 975 977
f 976 977 978
f 978 977 979
f 978 979 980
f 980 979 981
f 980 981 982
f 982 981 983
f 982 983 984
f 984 983 985
f 984 985 986
f 986 985 987
f 986 987 988
f 988 987 989
f 988 989 990
f 990 989 991
f 990 991 992
f 992 991 993
f 992 993 994
f 994 993 995
f 994 995 996
f 996 995 997
f 996 997 998
f 998 997 999
f 998 999 948
f 948 999 1000
f 948 1000 949
f 862 917 1001
f 846 850 1002
f 899 901 1003
f 820 819 1004
f 886 885 1005
f 1006 1007 1008
f 1004 1009 1010
f 1009 1011 1012
f 959 957 1013
f 997 995 1014
f 1000 999 1015
f 953 951 1016
f 1017 932 1011
f 932 934 1011
f 1011 934 936
f 1011 936 1012
f 1012 936 938
f 1012 938 1018
f 1018 938 940
f 1018 940 1019
f 1019 940 942
f 942 925 1019
f 1019 925 923
f 1019 923 1020
f 923 947 1020
f 1020 947 946
f 1020 946 1021
f 953 1016 919
f 995 993 1014
f 1014 993 1022
f 1014 1022 1007
f 993 991 1022
f 1022 991 989
f 1022 989 1023
f 1023 989 987
f 1023 987 1024
f 1024 987 985
f 1024 985 1025
f 1025 985 983
f 983 981 1025
f 1025 981 979
f 1025 979 1026
f 1026 979 977
f 1026 977 1027
f 977 975 1027
f 1027 975 973
f 1027 973 1028
f 967 1029 969
f 969 1029 1028
f 969 1028 971
f 971 1028 973
f 959 1013 961
f 1009 1012 1010
f 1010 1012 1018
f 1010 1018 1030
f 1030 1018 1019
f 1030 1019 1031
f 1031 1019 1020
f 1031 1020 1032
f 1032 1020 1021
f 1032 1021 1033
f 1007 1022 1008
f 1008 1022 1023
f 1008 1023 1034
f 1034 1023 1024
f 1034 1024 1035
f 1035 1024 1025
f 1035 1025 1036
f 1036 1025 1026
f 1036 1026 1037
f 1037 1026 1027
f 1037 1027 1038
f 1038 1027 1028
f 1038 1028 1039
f 1039 1028 1029
f 1039 1029 1040
f 1004 1010 1041
f 1041 1010 1030
f 1041 1030 1042
f 1042 1030 1031
f 1042 1031 1043
f 1043 1031 1032
f 1043 1032 1044
f 1044 1032 1033
f 1044 1033 1003
f 951 949 1016
f 1016 949 1045
f 1016 1045 1046
f 1046 1045 1047
f 1046 1047 1048
f 1048 1047 1002
f 1006 1008 1049
f 1049 1008 1034
f 1049 1034 1050
f 1050 1034 1035
f 1050 1035 1051
f 1051 1035 1036
f 1051 1036 1052
f 1052 1036 1037
f 1052 1037 1053
f 1053 1037 1038
f 1053 1038 1054
f 1054 1038 1039
f 1054 1039 1055
f 1055 1039 1040
f 1055 1040 1001
f 965 963 1056
f 1056 963 1057
f 1056 1057 1058
f 1058 1057 1059
f 1058 1059 1060
f 1060 1059 1061
f 1060 1061 880
f 957 540 1013
f 1013 540 542
f 1013 542 1062
f 1062 542 544
f 1062 544 1063
f 1063 544 546
f 534 926 535
f 535 926 1064
f 535 1064 537
f 537 1064 1065
f 537 1065 539
f 539 1065 1005
f 539 1005 587
f 587 1005 885
f 889 886 1066
f 1066 886 1005
f 1066 1005 1067
f 1067 1005 1065
f 1067 1065 1068
f 1068 1065 1064
f 1068 1064 928
f 928 1064 926
f 928 1017 1068
f 1068 1017 1011
f 1068 1011 1067
f 1067 1011 1009
f 1067 1009 1066
f 1066 1009 1004
f 1066 1004 889
f 889 1004 819
f 820 1004 891
f 891 1004 1041
f 891 1041 893
f 893 1041 1042
f 893 1042 894
f 894 1042 1043
f 894 1043 896
f 896 1043 1044
f 896 1044 897
f 1003 901 1044
f 1044 901 902
f 1044 902 897
f 904 899 1069
f 1069 899 1003
f 1069 1003 1070
f 1070 1003 1033
f 1070 1033 1071
f 1071 1033 1021
f 1071 1021 920
f 920 1021 946
f 920 919 1071
f 1071 919 1016
f 1071 1016 1070
f 1070 1016 1046
f 1070 1046 1069
f 1069 1046 1048
f 1069 1048 904
f 904 1048 903
f 1002 850 1048
f 1048 850 827
f 1048 827 903
f 843 846 1072
f 1072 846 1002
f 1072 1002 1073
f 1073 1002 1047
f 1073 1047 1015
f 1015 1047 1045
f 1015 1045 1000
f 1000 1045 949
f 999 997 1015
f 1015 997 1014
f 1015 1014 1073
f 1073 1014 1007
f 1073 1007 1072
f 1072 1007 1006
f 1072 1006 843
f 843 1006 842
f 908 905 1051
f 1051 905 907
f 1051 907 1050
f 1050 907 854
f 1050 854 1049
f 1049 854 855
f 1049 855 1006
f 1006 855 841
f 1006 841 842
f 908 1051 909
f 909 1051 1052
f 909 1052 911
f 911 1052 1053
f 911 1053 912
f 912 1053 1054
f 912 1054 914
f 914 1054 1055
f 914 1055 915
f 1001 917 1055
f 1055 917 918
f 1055 918 915
f 880 862 1060
f 1060 862 1001
f 1060 1001 1058
f 1058 1001 1040
f 1058 1040 1056
f 1056 1040 1029
f 1056 1029 965
f 965 1029 967
f 873 875 1061
f 1061 875 881
f 1061 881 880
f 963 961 1057
f 1057 961 1013
f 1057 1013 1059
f 1059 1013 1062
f 1059 1062 1061
f 1061 1062 1063
f 1061 1063 873
f 873 1063 546
f 873 546 547
f 958 960 1074
f 962 964 1075
f 968 970 1076
f 978 980 1077
f 988 990 1078
f 948 950 1079
f 952 954 1080
f 921 945 1081
f 943 941 1082
f 933 931 1083
f 703 736 1084
f 703 1084 710
f 1083 1085 1086
f 1086 1085 1087
f 1086 1087 1088
f 1088 1087 1089
f 1088 1089 1084
f 1084 1089 1090
f 1084 1090 710
f 717 741 1091
f 1091 741 1092
f 1091 1092 1093
f 1093 1092 1094
f 1093 1094 1095
f 1095 1094 1096
f 1095 1096 1097
f 1097 1096 1082
f 738 737 1098
f 1098 737 1099
f 1098 1099 1100
f 1100 1099 1101
f 1100 1101 1102
f 1102 1101 1103
f 1102 1103 1104
f 1104 1103 1081
f 750 747 1105
f 1105 747 1106
f 1105 1106 1107
f 1107 1106 1108
f 1107 1108 1109
f 1109 1108 1110
f 1109 1110 1111
f 1111 1110 1078
f 754 759 1112
f 1112 759 1113
f 1112 1113 1114
f 1114 1113 1115
f 1114 1115 1116
f 1116 1115 1117
f 1116 1117 1118
f 1118 1117 1077
f 752 751 1119
f 1119 751 1120
f 1119 1120 1121
f 1121 1120 1122
f 1121 1122 1123
f 1123 1122 1124
f 1123 1124 1125
f 1125 1124 1076
f 421 710 422
f 422 710 1090
f 422 1090 423
f 423 1090 1089
f 423 1089 424
f 424 1089 1087
f 424 1087 425
f 425 1087 1085
f 425 1085 426
f 426 1085 927
f 1083 931 1085
f 1085 931 929
f 1085 929 927
f 935 933 1126
f 1126 933 1083
f 1126 1083 1127
f 1127 1083 1086
f 1127 1086 1128
f 1128 1086 1088
f 1128 1088 1129
f 1129 1088 1084
f 1129 1084 718
f 718 1084 736
f 718 717 1129
f 1129 717 1091
f 1129 1091 1128
f 1128 1091 1093
f 1128 1093 1127
f 1127 1093 1095
f 1127 1095 1126
f 1126 1095 1097
f 1126 1097 935
f 935 1097 937
f 1082 941 1097
f 1097 941 939
f 1097 939 937
f 944 943 1130
f 1130 943 1082
f 1130 1082 1131
f 1131 1082 1096
f 1131 1096 1132
f 1132 1096 1094
f 1132 1094 1133
f 1133 1094 1092
f 1133 1092 740
f 740 1092 741
f 740 738 1133
f 1133 738 1098
f 1133 1098 1132
f 1132 1098 1100
f 1132 1100 1131
f 1131 1100 1102
f 1131 1102 1130
f 1130 1102 1104
f 1130 1104 944
f 944 1104 924
f 1081 945 1104
f 1104 945 922
f 1104 922 924
f 955 921 1134
f 1134 921 1081
f 1134 1081 1135
f 1135 1081 1103
f 1135 1103 1136
f 1136 1103 1101
f 1136 1101 1137
f 1137 1101 1099
f 1137 1099 731
f 731 1099 737
f 731 732 1137
f 1137 732 1138
f 1137 1138 1136
f 1136 1138 1139
f 1136 1139 1135
f 1135 1139 1140
f 1135 1140 1134
f 1134 1140 1080
f 1134 1080 955
f 955 1080 954
f 950 952 1079
f 1079 952 1080
f 1079 1080 1141
f 1141 1080 1140
f 1141 1140 1142
f 1142 1140 1139
f 1142 1139 1143
f 1143 1139 1138
f 1143 1138 744
f 744 1138 732
f 998 948 1144
f 1144 948 1079
f 1144 1079 1145
f 1145 1079 1141
f 1145 1141 1146
f 1146 1141 1142
f 1146 1142 1147
f 1147 1142 1143
f 1147 1143 724
f 724 1143 744
f 724 723 1147
f 1147 723 1148
f 1147 1148 1146
f 1146 1148 1149
f 1146 1149 1145
f 1145 1149 1150
f 1145 1150 1144
f 1144 1150 1151
f 1144 1151 998
f 998 1151 996
f 723 750 1148
f 1148 750 1105
f 1148 1105 1149
f 1149 1105 1107
f 1149 1107 1150
f 1150 1107 1109
f 1150 1109 1151
f 1151 1109 1111
f 1151 1111 996
f 996 1111 994
f 1078 990 1111
f 1111 990 992
f 1111 992 994
f 986 988 1152
f 1152 988 1078
f 1152 1078 1153
f 1153 1078 1110
f 1153 1110 1154
f 1154 1110 1108
f 1154 1108 1155
f 1155 1108 1106
f 1155 1106 753
f 753 1106 747
f 753 754 1155
f 1155 754 1112
f 1155 1112 1154
f 1154 1112 1114
f 1154 1114 1153
f 1153 1114 1116
f 1153 1116 1152
f 1152 1116 1118
f 1152 1118 986
f 986 1118 984
f 1077 980 1118
f 1118 980 982
f 1118 982 984
f 976 978 1156
f 1156 978 1077
f 1156 1077 1157
f 1157 1077 1117
f 1157 1117 1158
f 1158 1117 1115
f 1158 1115 1159
f 1159 1115 1113
f 1159 1113 758
f 758 1113 759
f 758 752 1159
f 1159 752 1119
f 1159 1119 1158
f 1158 1119 1121
f 1158 1121 1157
f 1157 1121 1123
f 1157 1123 1156
f 1156 1123 1125
f 1156 1125 976
f 976 1125 974
f 1076 970 1125
f 1125 970 972
f 1125 972 974
f 966 968 1160
f 1160 968 1076
f 1160 1076 1161
f 1161 1076 1124
f 1161 1124 1162
f 1162 1124 1122
f 1162 1122 1163
f 1163 1122 1120
f 1163 1120 757
f 757 1120 751
f 757 756 1163
f 1163 756 1164
f 1163 1164 1162
f 1162 1164 1165
f 1162 1165 1161
f 1161 1165 1166
f 1161 1166 1160
f 1160 1166 1075
f 1160 1075 966
f 966 1075 964
f 960 962 1074
f 1074 962 1075
f 1074 1075 1167
f 1167 1075 1166
f 1167 1166 1168
f 1168 1166 1165
f 1168 1165 1169
f 1169 1165 1164
f 1169 1164 755
f 755 1164 756
f 956 958 1170
f 1170 958 1074
f 1170 1074 1171
f 1171 1074 1167
f 1171 1167 1172
f 1172 1167 1168
f 1172 1168 1173
f 1173 1168 1169
f 1173 1169 764
f 764 1169 755
f 764 335 1173
f 1173 335 336
f 1173 336 1172
f 1172 336 337
f 1172 337 1171
f 1171 337 338
f 1171 338 1170
f 1170 338 339
f 1170 339 956
f 956 339 340
f 245 244 709
f 709 244 594
f 709 594 695
f 715 603 716
f 716 603 605
f 716 605 696
f 594 596 695
f 695 596 597
f 695 597 714
f 714 597 592
f 714 592 715
f 715 592 591
f 715 591 603
f 605 602 696
f 696 602 601
f 696 601 697
f 697 601 600
f 697 600 704
f 704 600 599
f 599 598 704
f 704 598 613
f 704 613 705
f 705 613 614
f 705 614 684
f 614 612 684
f 684 612 611
f 684 611 685
f 685 611 610
f 685 610 712
f 610 609 712
f 712 609 608
f 712 608 713
f 713 608 607
f 713 607 686
f 210 209 615
f 615 209 686
f 615 686 606
f 606 686 607
f 206 205 692
f 692 205 621
f 692 621 687
f 698 633 699
f 699 633 631
f 699 631 706
f 621 637 687
f 687 637 636
f 687 636 711
f 711 636 635
f 711 635 698
f 698 635 634
f 698 634 633
f 631 630 706
f 706 630 629
f 706 629 707
f 707 629 628
f 707 628 708
f 628 627 708
f 708 627 626
f 708 626 693
f 693 626 625
f 693 625 694
f 625 624 694
f 694 624 623
f 694 623 700
f 700 623 644
f 700 644 701
f 641 640 688
f 701 644 702
f 702 644 643
f 702 643 688
f 688 643 642
f 688 642 641
f 171 170 638
f 638 170 688
f 638 688 639
f 639 688 640
f 167 166 763
f 763 166 861
f 763 861 761
f 768 868 769
f 769 868 870
f 769 870 773
f 861 860 761
f 761 860 859
f 761 859 776
f 776 859 858
f 776 858 768
f 768 858 857
f 768 857 868
f 870 867 773
f 773 867 866
f 773 866 774
f 774 866 865
f 774 865 775
f 775 865 864
f 864 863 775
f 775 863 882
f 775 882 766
f 766 882 883
f 766 883 767
f 883 879 767
f 767 879 878
f 767 878 770
f 770 878 877
f 770 877 771
f 877 876 771
f 771 876 874
f 771 874 772
f 772 874 872
f 772 872 765
f 135 134 884
f 884 134 765
f 884 765 871
f 871 765 872
f 128 127 733
f 733 127 823
f 733 823 726
f 721 836 722
f 722 836 834
f 722 834 719
f 823 840 726
f 726 840 839
f 726 839 734
f 734 839 838
f 734 838 721
f 721 838 837
f 721 837 836
f 834 833 719
f 719 833 832
f 719 832 739
f 739 832 831
f 739 831 729
f 831 830 729
f 729 830 829
f 729 829 730
f 730 829 828
f 730 828 742
f 828 826 742
f 742 826 825
f 742 825 743
f 743 825 852
f 743 852 745
f 848 847 725
f 745 852 746
f 746 852 851
f 746 851 725
f 725 851 849
f 725 849 848
f 93 92 844
f 844 92 725
f 844 725 845
f 845 725 847
f 690 1174 1175
f 1174 1176 1177
f 1176 1178 1179
f 660 655 1180
f 1181 672 673
f 678 679 1182
f 1182 679 675
f 1182 675 674
f 1178 1182 1183
f 1183 1182 674
f 1183 674 1181
f 1181 674 670
f 1181 670 672
f 666 1184 673
f 673 1184 1185
f 673 1185 1181
f 666 668 1184
f 1184 668 669
f 1184 669 1186
f 1186 669 662
f 1186 662 1187
f 656 1188 657
f 657 1188 1189
f 657 1189 665
f 665 1189 1187
f 665 1187 664
f 664 1187 662
f 1178 1183 1179
f 1179 1183 1181
f 1179 1181 1190
f 1190 1181 1185
f 1190 1185 1191
f 1191 1185 1184
f 1191 1184 1192
f 1192 1184 1186
f 1192 1186 1193
f 1193 1186 1187
f 1193 1187 1194
f 1194 1187 1189
f 1194 1189 1195
f 1195 1189 1188
f 1195 1188 1196
f 1176 1179 1177
f 1177 1179 1190
f 1177 1190 1197
f 1197 1190 1191
f 1197 1191 1198
f 1198 1191 1192
f 1198 1192 1199
f 1199 1192 1193
f 1199 1193 1200
f 1200 1193 1194
f 1200 1194 1201
f 1201 1194 1195
f 1201 1195 1202
f 1202 1195 1196
f 1202 1196 1203
f 1174 1177 1175
f 1175 1177 1197
f 1175 1197 1204
f 1204 1197 1198
f 1204 1198 1205
f 1205 1198 1199
f 1205 1199 1206
f 1206 1199 1200
f 1206 1200 1207
f 1207 1200 1201
f 1207 1201 1208
f 1208 1201 1202
f 1208 1202 1209
f 1209 1202 1203
f 1209 1203 1210
f 36 1211 46
f 46 1211 1212
f 46 1212 56
f 56 1212 1213
f 56 1213 67
f 67 1213 1214
f 67 1214 91
f 91 1214 691
f 690 691 1174
f 1174 691 1214
f 1174 1214 1176
f 1176 1214 1213
f 1176 1213 1178
f 1178 1213 1212
f 1178 1212 1182
f 1182 1212 1211
f 1182 1211 678
f 678 1211 36
f 678 36 35
f 680 682 1210
f 1210 682 720
f 1210 720 1209
f 1209 720 749
f 1209 749 1208
f 1208 749 748
f 1208 748 1207
f 1207 748 728
f 1207 728 1206
f 1206 728 727
f 1206 727 1205
f 1205 727 735
f 1205 735 1204
f 1204 735 683
f 1204 683 1175
f 1175 683 689
f 1175 689 690
f 760 680 1215
f 1215 680 1210
f 1215 1210 1216
f 1216 1210 1203
f 1216 1203 1217
f 1217 1203 1196
f 1217 1196 1218
f 1218 1196 1188
f 1218 1188 661
f 661 1188 656
f 661 660 1218
f 1218 660 1180
f 1218 1180 1217
f 1217 1180 1219
f 1217 1219 1216
f 1216 1219 1220
f 1216 1220 1215
f 1215 1220 1221
f 1215 1221 760
f 760 1221 762
f 655 79 1180
f 1180 79 68
f 1180 68 1219
f 1219 68 70
f 1219 70 1220
f 1220 70 72
f 1220 72 1221
f 1221 72 74
f 1221 74 762
f 762 74 76

