# https://github.com/mikedh/trimesh
v -0.00066626 -0.00049396 -0.00136529
v -0.00116262 -0.00043762 -0.00120957
v -0.00116262 -0.00050807 -0.00118171
v -0.00022984 -0.00059217 -0.00163675
v -0.00066626 -0.00057348 -0.00133385
v 0.00011677 -0.00072553 -0.00200537
v -0.00022984 -0.00068750 -0.00159905
v 0.00034984 -0.00088492 -0.00244591
v 0.00011677 -0.00084233 -0.00195918
v 0.00043858 -0.00101100 -0.00279439
v 0.00034984 -0.00102737 -0.00238957
v 0.00043858 -0.00117375 -0.00273002
v 0.00034984 -0.00151561 -0.00211387
v 0.00043858 -0.00173155 -0.00241505
v 0.00034984 -0.00193342 -0.00173995
v 0.00043858 -0.00220889 -0.00198785
v 0.00034984 -0.00226139 -0.00128517
v 0.00043858 -0.00258358 -0.00146828
v 0.00034984 -0.00248427 -0.00077068
v 0.00043858 -0.00283822 -0.00088048
v 0.00034984 -0.00259171 -0.00022037
v 0.00043858 -0.00296097 -0.00025177
v 0.00034984 -0.00257872 0.00034018
v 0.00043858 -0.00294613 0.00038864
v 0.00034984 -0.00244591 0.00088492
v 0.00043858 -0.00279439 0.00101100
v 0.00034984 -0.00219943 0.00138854
v 0.00043858 -0.00251280 0.00158637
v 0.00034984 -0.00185075 0.00182763
v 0.00043858 -0.00211444 0.00208803
v 0.00034984 -0.00141608 0.00218180
v 0.00043858 -0.00161783 0.00249266
v 0.00034984 -0.00091559 0.00243459
v 0.00043858 -0.00104604 0.00278146
v 0.00034984 -0.00037257 0.00257424
v 0.00043858 -0.00042565 0.00294101
v 0.00034984 0.00018777 0.00259428
v 0.00043858 0.00021453 0.00296390
v 0.00034984 0.00073939 0.00249376
v 0.00043858 0.00084473 0.00284906
v 0.00034984 0.00088492 0.00244591
v 0.00043858 0.00101100 0.00279439
v -0.00116262 -0.00045279 0.00120398
v -0.00154195 -0.00017904 0.00123711
v -0.00116262 -0.00018424 0.00127304
v -0.00154195 0.00009024 0.00124674
v -0.00116262 0.00009286 0.00128295
v -0.00154195 0.00035533 0.00119843
v -0.00116262 0.00036565 0.00123324
v -0.00154195 0.00042527 0.00117544
v -0.00116262 0.00043762 0.00120957
v -0.00116262 -0.00122854 -0.00038112
v -0.00154195 -0.00124551 -0.00010590
v -0.00116262 -0.00128168 -0.00010898
v -0.00154195 -0.00123926 0.00016348
v -0.00116262 -0.00127525 0.00016823
v -0.00154195 -0.00117544 0.00042527
v -0.00116262 -0.00120957 0.00043762
v -0.00154195 -0.00105699 0.00066729
v -0.00116262 -0.00108768 0.00068667
v -0.00154195 -0.00088942 0.00087831
v -0.00116262 -0.00091525 0.00090382
v -0.00154195 -0.00068053 0.00104851
v -0.00116262 -0.00070029 0.00107897
v -0.00154195 -0.00065384 0.00106536
v -0.00154195 -0.00044001 0.00117000
v -0.00154195 -0.00108676 -0.00061762
v -0.00154195 -0.00118414 -0.00040039
v -0.00154195 -0.00119387 -0.00037037
v -0.00116262 -0.00111832 -0.00063556
v -0.00116262 -0.00095613 -0.00086046
v -0.00154195 -0.00092915 -0.00083617
v -0.00116262 -0.00074951 -0.00104537
v -0.00154195 -0.00072836 -0.00101587
v -0.00154195 -0.00049373 -0.00114836
v -0.00154195 -0.00042527 -0.00117544
v 0.00011677 -0.00124263 -0.00173314
v 0.00011677 -0.00158519 -0.00142656
v 0.00011677 -0.00185408 -0.00105370
v 0.00011677 -0.00203682 -0.00063187
v 0.00011677 -0.00212491 -0.00018068
v 0.00011677 -0.00211426 0.00027891
v 0.00011677 -0.00200537 0.00072553
v 0.00011677 -0.00180329 0.00113844
v 0.00011677 -0.00151741 0.00149845
v 0.00011677 -0.00116102 0.00178883
v 0.00011677 -0.00075068 0.00199609
v 0.00011677 -0.00030546 0.00211059
v 0.00011677 0.00015395 0.00212701
v 0.00011677 0.00060622 0.00204460
v 0.00011677 0.00072553 0.00200537
v -0.00022984 -0.00101422 -0.00141456
v -0.00022984 -0.00129381 -0.00116434
v -0.00022984 -0.00151327 -0.00086001
v -0.00022984 -0.00166242 -0.00051572
v -0.00022984 -0.00173432 -0.00014747
v -0.00022984 -0.00172563 0.00022764
v -0.00022984 -0.00163675 0.00059217
v -0.00022984 -0.00147182 0.00092918
v -0.00022984 -0.00123849 0.00122302
v -0.00022984 -0.00094761 0.00146002
v -0.00022984 -0.00061270 0.00162918
v -0.00022984 -0.00024931 0.00172263
v -0.00022984 0.00012566 0.00173604
v -0.00022984 0.00049478 0.00166877
v -0.00022984 0.00059217 0.00163675
v -0.00066626 -0.00084601 -0.00117995
v -0.00066626 -0.00107923 -0.00097123
v -0.00066626 -0.00126229 -0.00071738
v -0.00066626 -0.00138671 -0.00043019
v -0.00066626 -0.00144668 -0.00012301
v -0.00066626 -0.00143943 0.00018988
v -0.00066626 -0.00136529 0.00049396
v -0.00066626 -0.00122771 0.00077507
v -0.00066626 -0.00103308 0.00102018
v -0.00066626 -0.00079045 0.00121787
v -0.00066626 -0.00051108 0.00135898
v -0.00066626 -0.00020796 0.00143693
v -0.00066626 0.00010481 0.00144811
v -0.00066626 0.00041272 0.00139201
v -0.00066626 0.00049396 0.00136529
v 0.00098947 0.00680771 -0.00107154
v 0.00100148 0.00689590 -0.00105990
v 0.00100148 0.00691695 -0.00091246
v 0.00086373 0.00204016 0.00563899
v 0.00086418 0.00212875 0.00560970
v 0.00043858 0.00117375 0.00273002
v 0.00100148 0.00405976 0.00567408
v 0.00100148 0.00359772 0.00597773
v 0.00095810 0.00333715 0.00577324
v 0.00092323 0.00306432 0.00564176
v 0.00043858 0.00173155 0.00241505
v 0.00089249 0.00274106 0.00556283
v 0.00087356 0.00244660 0.00555160
v 0.00087337 0.00582946 -0.00167545
v 0.00088590 0.00596534 -0.00151445
v 0.00043858 0.00294613 -0.00038864
v 0.00091399 0.00621925 -0.00130362
v 0.00092490 0.00630998 -0.00124719
v 0.00094638 0.00648132 -0.00116317
v 0.00043858 0.00251280 -0.00158637
v 0.00100148 0.00589957 -0.00372449
v 0.00100148 0.00597773 -0.00359772
v 0.00095810 0.00577324 -0.00333715
v 0.00092323 0.00564176 -0.00306432
v 0.00089249 0.00556283 -0.00274106
v 0.00087356 0.00555160 -0.00244660
v 0.00086418 0.00560970 -0.00212875
v 0.00043858 0.00279439 -0.00101100
v 0.00086373 0.00563899 -0.00204016
v 0.00087001 0.00578555 -0.00173997
v 0.00092490 -0.00124719 -0.00630998
v 0.00094638 -0.00116317 -0.00648132
v 0.00043858 -0.00021453 -0.00296390
v 0.00100148 -0.00050367 -0.00695867
v 0.00098947 -0.00107154 -0.00680771
v 0.00100148 -0.00051052 -0.00695817
v 0.00100148 -0.00105990 -0.00689590
v 0.00043858 -0.00084473 -0.00284906
v 0.00086373 -0.00204016 -0.00563899
v 0.00087001 -0.00173997 -0.00578555
v 0.00088590 -0.00151445 -0.00596534
v 0.00091399 -0.00130362 -0.00621925
v 0.00100148 0.00406535 0.00567008
v 0.00100148 0.00484275 0.00502241
v 0.00043858 0.00220889 0.00198785
v 0.00100148 0.00518604 0.00466710
v 0.00100148 0.00552250 0.00426366
v 0.00043858 0.00258358 0.00146828
v 0.00100148 0.00606575 0.00344724
v 0.00043858 0.00283822 0.00088048
v 0.00100148 0.00651681 0.00249159
v 0.00100148 0.00608451 0.00341402
v 0.00100148 0.00695835 0.00050818
v 0.00100148 0.00695179 0.00059111
v 0.00043858 0.00296097 0.00025177
v 0.00100148 0.00681017 0.00151604
v 0.00100148 0.00666359 0.00206720
v 0.00100148 0.00695817 -0.00051052
v 0.00100148 0.00567408 -0.00405976
v 0.00043858 0.00211444 -0.00208803
v 0.00100148 0.00502241 -0.00484275
v 0.00043858 0.00161783 -0.00249266
v 0.00100148 0.00426366 -0.00552250
v 0.00100148 0.00496431 -0.00490229
v 0.00100148 0.00245591 -0.00653034
v 0.00100148 0.00249159 -0.00651681
v 0.00043858 0.00104604 -0.00278146
v 0.00100148 0.00341402 -0.00608451
v 0.00100148 0.00379836 -0.00585229
v 0.00100148 0.00151604 -0.00681017
v 0.00043858 0.00042565 -0.00294101
v 0.00100148 0.00099934 -0.00690494
v 0.00100148 0.00050818 -0.00695835
v 0.00102094 -0.00891341 0.00322482
v 0.00094281 -0.00927780 0.00335666
v 0.00094281 -0.00961476 0.00221387
v 0.00072061 -0.00958526 0.00346790
v 0.00072061 -0.00993338 0.00228724
v 0.00038906 -0.00978772 0.00354115
v 0.00038906 -0.01014319 0.00233555
v 0.00000000 -0.00985355 0.00356496
v 0.00000000 -0.01021141 0.00235126
v 0.00000000 -0.01032290 0.00179975
v 0.00038906 -0.01035076 0.00109589
v 0.00000000 -0.01042037 0.00110326
v 0.00000000 -0.01047859 -0.00002014
v 0.00038906 -0.01040738 -0.00015974
v 0.00000000 -0.01047738 -0.00016082
v 0.00000000 -0.01038160 -0.00142255
v 0.00038906 -0.01031225 -0.00141305
v 0.00000000 -0.01031590 -0.00183942
v 0.00038906 -0.01006674 -0.00264575
v 0.00000000 -0.01013444 -0.00266355
v 0.00038906 -0.00967443 -0.00383987
v 0.00000000 -0.00983977 -0.00360282
v 0.00000000 -0.00973949 -0.00386570
v 0.00000000 -0.00920252 -0.00501148
v 0.00038906 -0.00914104 -0.00497800
v 0.00000000 -0.00906466 -0.00525674
v 0.00038906 -0.00847436 -0.00604353
v 0.00000000 -0.00853136 -0.00608418
v 0.00038906 -0.00768411 -0.00702094
v 0.00000000 -0.00801412 -0.00675094
v 0.00000000 -0.00773579 -0.00706816
v 0.00000000 -0.00682741 -0.00794907
v 0.00038906 -0.00678180 -0.00789597
v 0.00000000 -0.00672008 -0.00804002
v 0.00038906 -0.00578060 -0.00865585
v 0.00000000 -0.00581948 -0.00871407
v 0.00038906 -0.00469511 -0.00928952
v 0.00000000 -0.00522185 -0.00908480
v 0.00000000 -0.00472669 -0.00935199
v 0.00000000 -0.00356496 -0.00985355
v 0.00038906 -0.00354115 -0.00978772
v 0.00000000 -0.00235126 -0.01021141
v 0.00038906 -0.00233555 -0.01014319
v 0.00000000 -0.00179975 -0.01032290
v 0.00038906 -0.00109589 -0.01035076
v 0.00000000 -0.00110326 -0.01042037
v 0.00000000 0.00002014 -0.01047859
v 0.00038906 0.00015974 -0.01040738
v 0.00000000 0.00016082 -0.01047738
v 0.00000000 0.00142255 -0.01038160
v 0.00038906 0.00141305 -0.01031225
v 0.00000000 0.00183942 -0.01031590
v 0.00038906 0.00264575 -0.01006674
v 0.00000000 0.00266355 -0.01013444
v 0.00038906 0.00383987 -0.00967443
v 0.00000000 0.00360282 -0.00983977
v 0.00000000 0.00386570 -0.00973949
v 0.00000000 0.00501148 -0.00920252
v 0.00038906 0.00497800 -0.00914104
v 0.00000000 0.00525674 -0.00906466
v 0.00038906 0.00604353 -0.00847436
v 0.00000000 0.00608418 -0.00853136
v 0.00038906 0.00702094 -0.00768411
v 0.00000000 0.00675094 -0.00801412
v 0.00000000 0.00706816 -0.00773579
v 0.00000000 0.00794907 -0.00682741
v 0.00038906 0.00789597 -0.00678180
v 0.00000000 0.00804002 -0.00672008
v 0.00038906 0.00865585 -0.00578060
v 0.00000000 0.00871407 -0.00581948
v 0.00038906 0.00928952 -0.00469511
v 0.00000000 0.00908480 -0.00522185
v 0.00000000 0.00935199 -0.00472669
v 0.00000000 0.00985355 -0.00356496
v 0.00038906 0.00978772 -0.00354115
v 0.00072061 -0.01013665 0.00107322
v 0.00072061 -0.01019211 -0.00015644
v 0.00072061 -0.01009894 -0.00138382
v 0.00072061 -0.00985850 -0.00259102
v 0.00072061 -0.00947431 -0.00376044
v 0.00072061 -0.00895196 -0.00487503
v 0.00072061 -0.00829907 -0.00591852
v 0.00072061 -0.00752516 -0.00687571
v 0.00072061 -0.00664152 -0.00773264
v 0.00072061 -0.00566103 -0.00847681
v 0.00072061 -0.00459799 -0.00909736
v 0.00072061 -0.00346790 -0.00958526
v 0.00072061 -0.00228724 -0.00993338
v 0.00072061 -0.00107322 -0.01013665
v 0.00072061 0.00015644 -0.01019211
v 0.00072061 0.00138382 -0.01009894
v 0.00072061 0.00259102 -0.00985850
v 0.00072061 0.00376044 -0.00947431
v 0.00072061 0.00487503 -0.00895196
v 0.00072061 0.00591852 -0.00829907
v 0.00072061 0.00687571 -0.00752516
v 0.00072061 0.00773264 -0.00664152
v 0.00072061 0.00847681 -0.00566103
v 0.00072061 0.00909736 -0.00459799
v 0.00072061 0.00958526 -0.00346790
v 0.00094281 -0.00981151 0.00103880
v 0.00094281 -0.00986519 -0.00015142
v 0.00094281 -0.00977501 -0.00133943
v 0.00094281 -0.00954229 -0.00250791
v 0.00094281 -0.00917042 -0.00363982
v 0.00094281 -0.00866482 -0.00471866
v 0.00094281 -0.00803287 -0.00572868
v 0.00094281 -0.00728379 -0.00665517
v 0.00094281 -0.00642849 -0.00748461
v 0.00094281 -0.00547945 -0.00820491
v 0.00094281 -0.00445050 -0.00880556
v 0.00094281 -0.00335666 -0.00927780
v 0.00094281 -0.00221387 -0.00961476
v 0.00094281 -0.00103880 -0.00981151
v 0.00094281 0.00015142 -0.00986519
v 0.00094281 0.00133943 -0.00977501
v 0.00094281 0.00250791 -0.00954229
v 0.00094281 0.00363982 -0.00917042
v 0.00094281 0.00471866 -0.00866482
v 0.00094281 0.00572868 -0.00803287
v 0.00094281 0.00665517 -0.00728379
v 0.00094281 0.00748461 -0.00642849
v 0.00094281 0.00820491 -0.00547945
v 0.00094281 0.00880556 -0.00445050
v 0.00094281 0.00927780 -0.00335666
v 0.00102094 -0.00923713 0.00212692
v 0.00102094 -0.00942615 0.00099800
v 0.00102094 -0.00947772 -0.00014547
v 0.00102094 -0.00939108 -0.00128683
v 0.00102094 -0.00916750 -0.00240941
v 0.00102094 -0.00881023 -0.00349686
v 0.00102094 -0.00832450 -0.00453332
v 0.00102094 -0.00771737 -0.00550368
v 0.00102094 -0.00699771 -0.00639378
v 0.00102094 -0.00617600 -0.00719064
v 0.00102094 -0.00526423 -0.00788265
v 0.00102094 -0.00427570 -0.00845971
v 0.00102094 -0.00322482 -0.00891341
v 0.00102094 -0.00212692 -0.00923713
v 0.00102094 -0.00099800 -0.00942615
v 0.00102094 0.00014547 -0.00947772
v 0.00102094 0.00128683 -0.00939108
v 0.00102094 0.00240941 -0.00916750
v 0.00102094 0.00349686 -0.00881023
v 0.00102094 0.00453332 -0.00832450
v 0.00102094 0.00550368 -0.00771737
v 0.00102094 0.00639378 -0.00699771
v 0.00102094 0.00719064 -0.00617600
v 0.00102094 0.00788265 -0.00526423
v 0.00102094 0.00845971 -0.00427570
v 0.00102094 0.00891341 -0.00322482
v -0.01197912 -0.00334042 0.00912312
v -0.01176184 -0.00343558 0.00938302
v -0.01176184 -0.00260472 0.00964675
v -0.01197912 -0.00625926 0.00743044
v -0.01176184 -0.00643757 0.00764212
v -0.01176184 -0.00574702 0.00817411
v -0.01197912 -0.00842313 0.00484154
v -0.01176184 -0.00866310 0.00497946
v -0.01176184 -0.00819614 0.00571556
v -0.01197912 -0.00555724 -0.00796911
v -0.01176184 -0.00571556 -0.00819614
v -0.01176184 -0.00640815 -0.00766681
v -0.01197912 -0.00330532 -0.00913589
v -0.01176184 -0.00339948 -0.00939616
v -0.01176184 -0.00420548 -0.00906412
v -0.01146213 -0.00346221 -0.00956954
v -0.01146213 -0.00428308 -0.00923138
v -0.01111712 -0.00348574 -0.00963457
v -0.01111712 -0.00431218 -0.00929410
v -0.01197912 -0.00408899 -0.00881305
v -0.01176184 -0.00497946 -0.00866310
v -0.01197912 -0.00484154 -0.00842313
v -0.01197912 -0.00510980 -0.00826315
v -0.01197912 -0.00685663 -0.00688304
v -0.01197912 -0.00652015 -0.00720259
v -0.01197912 -0.00623064 -0.00745445
v -0.01176184 -0.00705197 -0.00707913
v -0.01176184 -0.00764212 -0.00643757
v -0.01197912 -0.00743044 -0.00625926
v -0.01197912 -0.00771541 -0.00590441
v -0.01176184 -0.00817411 -0.00574702
v -0.01197912 -0.00794769 -0.00558783
v -0.01176184 -0.00864389 -0.00501273
v -0.01197912 -0.00840446 -0.00487388
v -0.01197912 -0.00865614 -0.00441145
v -0.01176184 -0.00904789 -0.00424029
v -0.01197912 -0.00879727 -0.00412284
v -0.01176184 -0.00938302 -0.00343558
v -0.01197912 -0.00912312 -0.00334042
v -0.01197912 -0.00931130 -0.00277296
v -0.01176184 -0.00964675 -0.00260472
v -0.01197912 -0.00937954 -0.00253257
v -0.01176184 -0.00983706 -0.00175404
v -0.01197912 -0.00956457 -0.00170546
v -0.01197912 -0.00965929 -0.00104298
v -0.01176184 -0.00995250 -0.00089001
v -0.01197912 -0.00967682 -0.00086536
v -0.01176184 -0.00999220 -0.00001921
v -0.01197912 -0.00971542 -0.00001867
v -0.01197912 -0.00968861 0.00072140
v -0.01176184 -0.00995585 0.00085174
v -0.01197912 -0.00968007 0.00082815
v -0.01176184 -0.00984373 0.00171621
v -0.01197912 -0.00957106 0.00166867
v -0.01197912 -0.00939832 0.00246198
v -0.01176184 -0.00965669 0.00256762
v -0.01197912 -0.00938920 0.00249650
v -0.01176184 -0.00939616 0.00339948
v -0.01197912 -0.00913589 0.00330532
v -0.01176184 -0.00906412 0.00420548
v -0.01197912 -0.00881305 0.00408899
v -0.01197912 -0.00879797 0.00412134
v -0.01197912 -0.00745445 0.00623064
v -0.01197912 -0.00790737 0.00564474
v -0.01197912 -0.00796911 0.00555724
v -0.01176184 -0.00766681 0.00640815
v -0.01176184 -0.00707913 0.00705197
v -0.01197912 -0.00688304 0.00685663
v -0.01197912 -0.00675592 0.00698192
v -0.01197912 -0.00487388 0.00840446
v -0.01197912 -0.00538159 0.00808877
v -0.01197912 -0.00558783 0.00794769
v -0.01176184 -0.00501273 0.00864389
v -0.01176184 -0.00424029 0.00904789
v -0.01197912 -0.00412284 0.00879727
v -0.01197912 -0.00382972 0.00892877
v -0.01197912 -0.00170546 0.00956457
v -0.01197912 -0.00215150 0.00947421
v -0.01197912 -0.00253257 0.00937954
v -0.01176184 -0.00175404 0.00983706
v -0.01176184 -0.00089001 0.00995250
v -0.01197912 -0.00086536 0.00967682
v -0.01197912 -0.00040231 0.00970710
v -0.01176184 -0.00001921 0.00999220
v -0.01197912 -0.00001867 0.00971542
v -0.01176184 0.00085174 0.00995585
v -0.01197912 0.00082815 0.00968007
v -0.01111712 -0.00510581 -0.00888290
v -0.01146213 -0.00507135 -0.00882295
v -0.01111712 -0.00586057 -0.00840410
v -0.01146213 -0.00582102 -0.00834738
v -0.01111712 -0.00657074 -0.00786134
v -0.01146213 -0.00652639 -0.00780828
v -0.01111712 -0.00723090 -0.00725875
v -0.01146213 -0.00718209 -0.00720976
v -0.01111712 -0.00783602 -0.00660091
v -0.01146213 -0.00778313 -0.00655636
v -0.01111712 -0.00838151 -0.00589284
v -0.01146213 -0.00832494 -0.00585307
v -0.01111712 -0.00886321 -0.00513992
v -0.01146213 -0.00880339 -0.00510523
v -0.01111712 -0.00927746 -0.00434788
v -0.01146213 -0.00921484 -0.00431853
v -0.01111712 -0.00962110 -0.00352275
v -0.01146213 -0.00955616 -0.00349898
v -0.01111712 -0.00989151 -0.00267081
v -0.01146213 -0.00982475 -0.00265279
v -0.01111712 -0.01008665 -0.00179855
v -0.01146213 -0.01001857 -0.00178641
v -0.01111712 -0.01020502 -0.00091259
v -0.01146213 -0.01013615 -0.00090643
v -0.01111712 -0.01024572 -0.00001969
v -0.01146213 -0.01017658 -0.00001956
v -0.01111712 -0.01020845 0.00087335
v -0.01146213 -0.01013955 0.00086746
v -0.01111712 -0.01009349 0.00175976
v -0.01146213 -0.01002537 0.00174788
v -0.01111712 -0.00990171 0.00263277
v -0.01146213 -0.00983488 0.00261500
v -0.01111712 -0.00963457 0.00348574
v -0.01146213 -0.00956954 0.00346221
v -0.01111712 -0.00929410 0.00431218
v -0.01146213 -0.00923138 0.00428308
v -0.01111712 -0.00888290 0.00510581
v -0.01146213 -0.00882295 0.00507135
v -0.01111712 -0.00840410 0.00586057
v -0.01146213 -0.00834738 0.00582102
v -0.01111712 -0.00786134 0.00657074
v -0.01146213 -0.00780828 0.00652639
v -0.01111712 -0.00725875 0.00723090
v -0.01146213 -0.00720976 0.00718209
v -0.01111712 -0.00660091 0.00783602
v -0.01146213 -0.00655636 0.00778313
v -0.01111712 -0.00589284 0.00838151
v -0.01146213 -0.00585307 0.00832494
v -0.01111712 -0.00513992 0.00886321
v -0.01146213 -0.00510523 0.00880339
v -0.01111712 -0.00434788 0.00927746
v -0.01146213 -0.00431853 0.00921484
v -0.01111712 -0.00352275 0.00962110
v -0.01146213 -0.00349898 0.00955616
v -0.01111712 -0.00267081 0.00989151
v -0.01146213 -0.00265279 0.00982475
v -0.01111712 -0.00179855 0.01008665
v -0.01146213 -0.00178641 0.01001857
v -0.01111712 -0.00091259 0.01020502
v -0.01146213 -0.00090643 0.01013615
v -0.01111712 -0.00001969 0.01024572
v -0.01146213 -0.00001956 0.01017658
v -0.01111712 0.00087335 0.01020845
v -0.01146213 0.00086746 0.01013955
v -0.01111712 0.00175976 0.01009349
v -0.01146213 0.00174788 0.01002537
v -0.01111712 0.00263277 0.00990171
v -0.01146213 0.00261500 0.00983488
v -0.01111712 0.00348574 0.00963457
v -0.01146213 0.00346221 0.00956954
v -0.01176184 0.00171621 0.00984373
v -0.01176184 0.00256762 0.00965669
v -0.01176184 0.00339948 0.00939616
v -0.01197912 0.00136015 0.00961975
v -0.01197912 0.00166867 0.00957106
v -0.01197912 0.00249650 0.00938920
v -0.01197912 0.00330532 0.00913589
v 0.00000000 -0.00935199 0.00472669
v 0.00000000 -0.00908480 0.00522185
v 0.00000000 -0.00871407 0.00581948
v 0.00000000 -0.00804002 0.00672008
v 0.00000000 -0.00794907 0.00682741
v 0.00000000 -0.00706816 0.00773579
v 0.00000000 -0.00675094 0.00801412
v 0.00000000 -0.00608418 0.00853136
v 0.00000000 -0.00525674 0.00906466
v 0.00000000 -0.00501148 0.00920252
v 0.00000000 -0.00386570 0.00973949
v 0.00000000 -0.00360282 0.00983977
v 0.00000000 -0.00266355 0.01013444
v 0.00000000 -0.00183942 0.01031590
v 0.00000000 -0.00142255 0.01038160
v 0.00000000 -0.00016082 0.01047738
v 0.00000000 -0.00002014 0.01047859
v 0.00000000 0.00110326 0.01042037
v 0.00000000 0.00179975 0.01032290
v 0.00000000 0.00235126 0.01021141
v 0.00000000 0.00356496 0.00985355
v -0.01608961 -0.00104386 -0.00168805
v -0.01608961 -0.00117369 -0.00160051
v -0.01614796 -0.00102714 -0.00140066
v -0.01608961 -0.00133198 -0.00147139
v -0.01608961 -0.00157706 -0.00120501
v -0.01614796 -0.00138014 -0.00105455
v -0.01608961 -0.00176834 -0.00090120
v -0.01608961 -0.00185267 -0.00071189
v -0.01614796 -0.00162134 -0.00062300
v -0.01608961 -0.00179731 0.00084194
v -0.01608961 -0.00175125 0.00093397
v -0.01614796 -0.00153258 0.00081735
v -0.01608961 -0.00109939 0.00165243
v -0.01608961 -0.00096830 0.00173250
v -0.01614796 -0.00084740 0.00151617
v -0.01608961 -0.00078236 0.00182403
v -0.01608961 -0.00044098 0.00193513
v -0.01614796 -0.00038592 0.00169350
v -0.01608961 -0.00008219 0.00198303
v -0.01608961 0.00012207 0.00198098
v -0.01614796 0.00010683 0.00173362
v -0.01608961 0.00062874 0.00188251
v -0.01608961 0.00067523 0.00186634
v -0.01614796 0.00059092 0.00163330
v -0.01564814 -0.00089315 -0.00087451
v -0.01564814 -0.00073920 -0.00100801
v -0.01589435 -0.00077753 -0.00106028
v -0.01564814 -0.00124060 0.00015305
v -0.01564814 -0.00124588 -0.00010146
v -0.01589435 -0.00131048 -0.00010672
v -0.01564814 -0.00105133 0.00067616
v -0.01564814 -0.00110295 0.00058822
v -0.01589435 -0.00116015 0.00061872
v -0.01564814 0.00007688 0.00124763
v -0.01564814 -0.00012685 0.00124355
v -0.01589435 -0.00029213 0.00128196
v -0.01564814 -0.00089255 0.00087513
v -0.01564814 -0.00122399 0.00025366
v -0.01589435 -0.00128747 0.00026681
v -0.01607672 -0.00146143 0.00030286
v -0.01607672 -0.00148756 -0.00012114
v -0.01614796 -0.00170077 0.00035246
v -0.01614796 -0.00173118 -0.00014098
v -0.01608961 0.00027786 0.00196519
v -0.01607672 0.00009180 0.00148966
v -0.01607672 0.00050776 0.00140345
v -0.01589435 0.00008087 0.00131233
v -0.01589435 0.00044732 0.00123639
v -0.01607672 -0.00033161 0.00145518
v -0.01564814 0.00042527 0.00117544
v -0.01607672 -0.00072814 0.00130281
v -0.01589435 -0.00064147 0.00114773
v -0.01608961 -0.00161537 0.00115315
v -0.01608961 -0.00141718 0.00138952
v -0.01614796 -0.00124023 0.00121602
v -0.01608961 -0.00138015 0.00142632
v -0.01607672 -0.00106569 0.00104489
v -0.01589435 -0.00093884 0.00092051
v -0.01607672 -0.00131690 0.00070233
v -0.01564814 -0.00060984 0.00109114
v -0.01564814 -0.00027773 0.00121876
v -0.01608961 -0.00194344 0.00040275
v -0.01608961 -0.00191995 0.00050295
v -0.01608961 -0.00190218 -0.00056648
v -0.01608961 -0.00197327 -0.00021307
v -0.01608961 -0.00197819 -0.00016109
v -0.01608961 -0.00197926 0.00014737
v -0.01607672 -0.00139317 -0.00053532
v -0.01589435 -0.00122733 -0.00047160
v -0.01564814 -0.00116683 -0.00044835
v -0.01607672 -0.00118592 -0.00090614
v -0.01589435 -0.00104475 -0.00079828
v -0.01564814 -0.00099325 -0.00075892
v -0.01607672 -0.00088259 -0.00120355
v -0.01614796 -0.00059092 -0.00163330
v -0.01608961 -0.00067523 -0.00186634
v -0.01608961 -0.00072131 -0.00184902
v -0.01607672 -0.00050776 -0.00140345
v -0.01589435 -0.00044732 -0.00123639
v -0.01564814 -0.00042527 -0.00117544
v -0.01367873 0.00098352 0.00643446
v -0.01382042 0.00107137 0.00615999
v -0.01388716 0.00114074 0.00601899
v -0.01412333 0.00193335 0.00534379
v -0.01410138 0.00166214 0.00547454
v -0.01404744 0.00144257 0.00563931
v -0.01395279 0.00123394 0.00587263
v -0.01349755 0.00094854 0.00678502
v -0.01357335 0.00095325 0.00663816
v -0.01265249 0.00203774 0.00822420
v -0.01268685 0.00192536 0.00818625
v -0.01275298 0.00173986 0.00810049
v -0.01287501 0.00147263 0.00791422
v -0.01292497 0.00138463 0.00783121
v -0.01301624 0.00124987 0.00767335
v -0.01315602 0.00109884 0.00742286
v -0.01331919 0.00099236 0.00712517
v -0.01327751 0.00101341 0.00720235
v -0.01323395 0.00103966 0.00728164
v -0.01257805 0.00234240 0.00828048
v -0.01254029 0.00256287 0.00828158
v -0.01252948 0.00264779 0.00827325
v -0.01251024 0.00296549 0.00819660
v -0.01251024 -0.00296549 -0.00819660
v -0.01252551 -0.00325016 -0.00805770
v -0.01253591 -0.00332925 -0.00800442
v -0.01323390 -0.00386011 -0.00626131
v -0.01314638 -0.00390929 -0.00642517
v -0.01299411 -0.00395088 -0.00673617
v -0.01291780 -0.00394666 -0.00690448
v -0.01285651 -0.00392849 -0.00704628
v -0.01273051 -0.00383630 -0.00736279
v -0.01267350 -0.00375839 -0.00752325
v -0.01263410 -0.00368365 -0.00764291
v -0.01256529 -0.00347984 -0.00788003
v -0.01327433 -0.00383190 -0.00618913
v -0.01330470 -0.00380832 -0.00613588
v -0.01411870 -0.00206333 -0.00530343
v -0.01408043 -0.00235038 -0.00525810
v -0.01400523 -0.00265235 -0.00527118
v -0.01391121 -0.00291723 -0.00533483
v -0.01388744 -0.00297391 -0.00535531
v -0.01378875 -0.00317764 -0.00545162
v -0.01363443 -0.00342838 -0.00562972
v -0.01357349 -0.00351472 -0.00571137
v -0.01346566 -0.00365017 -0.00587019
v -0.01412333 -0.00193335 -0.00534379
v -0.01404743 -0.00563935 0.00144252
v -0.01410137 -0.00547453 0.00166214
v -0.01412333 -0.00534379 0.00193335
v -0.01411866 -0.00530329 0.00206390
v -0.01273027 -0.00811332 0.00176340
v -0.01267348 -0.00818645 0.00192530
v -0.01263396 -0.00823070 0.00205971
v -0.01260827 -0.00825500 0.00216062
v -0.01285330 -0.00792923 0.00148992
v -0.01291384 -0.00783123 0.00138451
v -0.01299130 -0.00770325 0.00127257
v -0.01315121 -0.00742933 0.00110196
v -0.01323381 -0.00728186 0.00103973
v -0.01331900 -0.00712555 0.00099245
v -0.01357338 -0.00663816 0.00095325
v -0.01367861 -0.00643474 0.00098346
v -0.01349741 -0.00678533 0.00094855
v -0.01382035 -0.00616013 0.00107131
v -0.01388715 -0.00601899 0.00114074
v -0.01395274 -0.00587272 0.00123387
v -0.01256533 -0.00787989 0.00347999
v -0.01253591 -0.00800442 0.00332925
v -0.01252551 -0.00805770 0.00325016
v -0.01251024 -0.00819660 0.00296549
v -0.01252398 -0.00826974 0.00267399
v -0.01253590 -0.00828166 0.00256291
v -0.01256522 -0.00828243 0.00236786
v -0.01408089 -0.00525824 0.00234812
v -0.01400596 -0.00527085 0.00265010
v -0.01391210 -0.00533412 0.00291512
v -0.01388745 -0.00535532 0.00297394
v -0.01378969 -0.00545058 0.00317581
v -0.01363521 -0.00562868 0.00342719
v -0.01357348 -0.00571138 0.00351473
v -0.01346644 -0.00586899 0.00364928
v -0.01330492 -0.00613551 0.00380815
v -0.01323390 -0.00626130 0.00386011
v -0.01314662 -0.00642473 0.00390918
v -0.01299432 -0.00673571 0.00395087
v -0.01291781 -0.00690448 0.00394666
v -0.01285670 -0.00704583 0.00392857
v -0.01273066 -0.00736238 0.00383647
v -0.01267350 -0.00752325 0.00375839
v -0.01263419 -0.00764264 0.00368384
v -0.01260830 -0.00772651 0.00362139
v -0.01357349 0.00571137 -0.00351472
v 0.00102094 0.00816870 -0.00355370
v 0.00102094 0.00846313 -0.00306192
v -0.01251024 0.00819660 -0.00296549
v -0.01252721 0.00805726 -0.00325080
v -0.01253818 0.00800435 -0.00332927
v 0.00102094 0.00779383 -0.00385551
v -0.01257352 0.00785985 -0.00350075
v -0.01261150 0.00772334 -0.00362386
v -0.01263938 0.00763093 -0.00369183
v -0.01267411 0.00752323 -0.00375839
v 0.00102094 0.00774608 -0.00388150
v 0.00102094 0.00725080 -0.00403819
v -0.01273282 0.00735658 -0.00383886
v 0.00102094 0.00717980 -0.00404593
v -0.01285887 0.00704070 -0.00392947
v -0.01291780 0.00690449 -0.00394665
v 0.00102094 0.00669533 -0.00400809
v -0.01299678 0.00673043 -0.00395070
v 0.00102094 0.00654240 -0.00396181
v -0.01314929 0.00641955 -0.00390793
v -0.01323390 0.00626131 -0.00386012
v 0.00102094 0.00619260 -0.00378020
v -0.01330805 0.00613007 -0.00380560
v -0.01346570 0.00587012 -0.00365013
v -0.01378882 0.00545154 -0.00317751
v -0.01388744 0.00535531 -0.00297391
v -0.01363449 0.00562963 -0.00342828
v -0.01391128 0.00533478 -0.00291707
v -0.01412333 0.00534379 -0.00193335
v -0.01411870 0.00530343 -0.00206336
v -0.01408046 0.00525811 -0.00235026
v -0.01400527 0.00527116 -0.00265224
v 0.00095810 -0.00333715 -0.00577324
v 0.00100148 -0.00359772 -0.00597773
v 0.00102094 -0.00355370 -0.00816870
v 0.00102094 -0.00306192 -0.00846313
v 0.00102094 -0.00385551 -0.00779383
v 0.00102094 -0.00388150 -0.00774608
v 0.00102094 -0.00403819 -0.00725080
v 0.00102094 -0.00404593 -0.00717980
v 0.00102094 -0.00400809 -0.00669533
v 0.00102094 -0.00396181 -0.00654240
v 0.00102094 -0.00378020 -0.00619260
v 0.00092323 -0.00306432 -0.00564176
v 0.00087356 -0.00244660 -0.00555160
v 0.00089249 -0.00274106 -0.00556283
v 0.00086418 -0.00212875 -0.00560970
v 0.00095810 -0.00577324 0.00333715
v 0.00100148 -0.00597773 0.00359772
v 0.00102094 -0.00816870 0.00355370
v 0.00102094 -0.00846313 0.00306192
v 0.00102094 -0.00779383 0.00385551
v 0.00102094 -0.00774608 0.00388150
v 0.00102094 -0.00725080 0.00403819
v 0.00102094 -0.00717980 0.00404593
v 0.00102094 -0.00669533 0.00400809
v 0.00102094 -0.00654240 0.00396181
v 0.00102094 -0.00619260 0.00378020
v 0.00092323 -0.00564176 0.00306432
v 0.00087356 -0.00555160 0.00244660
v 0.00089249 -0.00556283 0.00274106
v 0.00086373 -0.00563899 0.00204016
v 0.00086418 -0.00560970 0.00212875
v -0.01357350 0.00351472 0.00571137
v -0.01346574 0.00365009 0.00587008
v 0.00102094 0.00355370 0.00816870
v 0.00102094 0.00306192 0.00846313
v -0.01252551 0.00325016 0.00805770
v -0.01253592 0.00332926 0.00800442
v 0.00102094 0.00385551 0.00779383
v -0.01256554 0.00348082 0.00787910
v -0.01263465 0.00368484 0.00764118
v -0.01267350 0.00375839 0.00752324
v 0.00102094 0.00388150 0.00774608
v 0.00102094 0.00403819 0.00725080
v -0.01273150 0.00383740 0.00736012
v 0.00102094 0.00404593 0.00717980
v -0.01285775 0.00392901 0.00704332
v -0.01291778 0.00394666 0.00690449
v 0.00102094 0.00400809 0.00669533
v -0.01299551 0.00395079 0.00673315
v 0.00102094 0.00396181 0.00654240
v -0.01314791 0.00390857 0.00642222
v -0.01323390 0.00386011 0.00626131
v 0.00102094 0.00378020 0.00619260
v -0.01327478 0.00383157 0.00618834
v -0.01330640 0.00380694 0.00613294
v -0.01378883 0.00317751 0.00545154
v -0.01388744 0.00297391 0.00535531
v -0.01363452 0.00342826 0.00562961
v -0.01391130 0.00291701 0.00533475
v -0.01411870 0.00206331 0.00530344
v -0.01408042 0.00235047 0.00525810
v -0.01400520 0.00265245 0.00527119
v -0.00154195 -0.00035533 -0.00119843
v -0.01564814 -0.00007688 -0.00124763
v -0.00154195 -0.00009024 -0.00124674
v -0.01564814 0.00012685 -0.00124355
v -0.00154195 0.00017904 -0.00123711
v -0.01564814 0.00027773 -0.00121876
v -0.00154195 0.00044001 -0.00117000
v -0.01564814 0.00060984 -0.00109114
v -0.00154195 0.00065384 -0.00106536
v -0.01564814 0.00089255 -0.00087513
v -0.00154195 0.00068053 -0.00104851
v -0.00154195 0.00088942 -0.00087831
v -0.01564814 0.00105133 -0.00067616
v -0.00154195 0.00105699 -0.00066729
v -0.01564814 0.00110295 -0.00058822
v -0.00154195 0.00117544 -0.00042527
v -0.01564814 0.00122399 -0.00025366
v -0.00154195 0.00123926 -0.00016348
v -0.01564814 0.00124060 -0.00015305
v -0.00154195 0.00119387 0.00037037
v -0.01564814 0.00116683 0.00044835
v -0.01564814 0.00124588 0.00010146
v -0.00154195 0.00124551 0.00010590
v -0.00154195 0.00118414 0.00040039
v -0.00154195 0.00108676 0.00061762
v -0.01564814 0.00099325 0.00075892
v -0.00154195 0.00092915 0.00083617
v -0.01564814 0.00089315 0.00087451
v -0.00154195 0.00049373 0.00114836
v -0.01564814 0.00073920 0.00100801
v -0.00154195 0.00072836 0.00101587
v 0.00092490 0.00124719 0.00630998
v 0.00091399 0.00130362 0.00621925
v 0.00088590 0.00151445 0.00596534
v 0.00087001 0.00173997 0.00578555
v 0.00094638 0.00116317 0.00648132
v 0.00098947 0.00107154 0.00680771
v 0.00100525 0.00105717 0.00692496
v 0.00100148 0.00105990 0.00689590
v 0.00102094 0.00105714 0.00717779
v 0.00102094 0.00114139 0.00756282
v 0.00102094 0.00121335 0.00772946
v 0.00102094 0.00148457 0.00810648
v 0.00102094 0.00153602 0.00815616
v 0.00102094 0.00197317 0.00843644
v 0.00102094 0.00202379 0.00845653
v 0.00102094 0.00251720 0.00855218
v 0.00092490 -0.00630998 0.00124719
v 0.00091399 -0.00621925 0.00130362
v 0.00088590 -0.00596534 0.00151445
v 0.00087001 -0.00578555 0.00173997
v 0.00100525 -0.00692496 0.00105717
v 0.00100148 -0.00689590 0.00105990
v 0.00098947 -0.00680771 0.00107154
v 0.00094638 -0.00648132 0.00116317
v 0.00102094 -0.00717779 0.00105714
v 0.00102094 -0.00756282 0.00114139
v 0.00102094 -0.00772946 0.00121335
v 0.00102094 -0.00810648 0.00148457
v 0.00102094 -0.00815616 0.00153602
v 0.00102094 -0.00845653 0.00202379
v 0.00102094 -0.00843644 0.00197317
v 0.00102094 -0.00855218 0.00251720
v -0.01388713 -0.00114074 -0.00601899
v -0.01395208 -0.00123281 -0.00587419
v -0.01404713 -0.00144170 -0.00564009
v -0.01410136 -0.00166215 -0.00547453
v -0.01381917 -0.00107027 -0.00616256
v -0.01365263 -0.00097146 -0.00649531
v -0.01357955 -0.00095318 -0.00663834
v -0.01347750 -0.00095009 -0.00683440
v 0.00100525 -0.00105717 -0.00692496
v -0.01331827 -0.00099364 -0.00713038
v -0.01328172 -0.00101162 -0.00719634
v 0.00102094 -0.00105714 -0.00717779
v -0.01323367 -0.00103965 -0.00728162
v 0.00102094 -0.00114139 -0.00756282
v -0.01315553 -0.00109741 -0.00741988
v -0.01300601 -0.00125694 -0.00768284
v 0.00102094 -0.00121335 -0.00772946
v -0.01291910 -0.00138460 -0.00783126
v 0.00102094 -0.00148457 -0.00810648
v -0.01286437 -0.00148089 -0.00792144
v -0.01274580 -0.00174240 -0.00810197
v 0.00102094 -0.00153602 -0.00815616
v -0.01268131 -0.00192541 -0.00818636
v 0.00102094 -0.00197317 -0.00843644
v 0.00102094 -0.00202379 -0.00845653
v -0.01264879 -0.00203333 -0.00822298
v -0.01257550 -0.00233985 -0.00828034
v 0.00102094 -0.00251720 -0.00855218
v -0.01252839 -0.00264781 -0.00827327
v -0.01253870 -0.00256289 -0.00828161
v -0.01405621 0.00561530 -0.00146972
v -0.01410138 0.00547453 -0.00166214
v -0.01388716 0.00601899 -0.00114074
v -0.01395275 0.00587271 -0.00123389
v -0.01404743 0.00563934 -0.00144253
v -0.01357337 0.00663816 -0.00095325
v 0.00100525 0.00692496 -0.00105717
v -0.01367864 0.00643467 -0.00098347
v -0.01382036 0.00616011 -0.00107132
v -0.01349745 0.00678525 -0.00094854
v -0.01331905 0.00712545 -0.00099243
v 0.00102094 0.00717779 -0.00105714
v -0.01323395 0.00728164 -0.00103966
v 0.00102094 0.00756282 -0.00114139
v -0.01315626 0.00742244 -0.00109864
v -0.01301636 0.00767317 -0.00124973
v 0.00102094 0.00772946 -0.00121335
v -0.01292499 0.00783121 -0.00138463
v 0.00102094 0.00810648 -0.00148457
v -0.01287511 0.00791407 -0.00147245
v -0.01275307 0.00810038 -0.00173966
v 0.00102094 0.00815616 -0.00153602
v -0.01268686 0.00818625 -0.00192536
v -0.01265257 0.00822414 -0.00203752
v 0.00102094 0.00845653 -0.00202379
v 0.00102094 0.00843644 -0.00197317
v -0.01261878 0.00825522 -0.00216272
v -0.01257810 0.00828046 -0.00234218
v 0.00102094 0.00855218 -0.00251720
v -0.01252951 0.00827328 -0.00264756
v -0.01254030 0.00828158 -0.00256287
v -0.01608961 -0.00062874 -0.00188251
v -0.01608961 0.00191995 -0.00050295
v -0.01608961 0.00175125 -0.00093397
v -0.01197912 0.00968861 -0.00072140
v -0.01197912 0.00968007 -0.00082815
v -0.01197912 0.00957106 -0.00166867
v -0.01197912 0.00939832 -0.00246198
v -0.01608961 0.00197926 -0.00014737
v -0.01608961 0.00194344 -0.00040275
v -0.01197912 0.00881305 -0.00408899
v -0.01197912 0.00879797 -0.00412134
v -0.01197912 0.00913589 -0.00330532
v -0.01197912 0.00938920 -0.00249650
v -0.01608961 0.00161537 -0.00115315
v -0.01197912 0.00790737 -0.00564474
v -0.01197912 0.00796911 -0.00555724
v -0.01197912 0.00842313 -0.00484154
v -0.01608961 -0.00027786 -0.00196519
v -0.01608961 -0.00012207 -0.00198098
v -0.01197912 -0.00136015 -0.00961975
v -0.01197912 0.00040231 -0.00970710
v -0.01197912 0.00001867 -0.00971542
v -0.01197912 -0.00082815 -0.00968007
v -0.01197912 -0.00166867 -0.00957106
v -0.01197912 -0.00249650 -0.00938920
v -0.01197912 0.00408899 0.00881305
v -0.01197912 0.00510980 0.00826315
v -0.01197912 0.00484154 0.00842313
v -0.01197912 0.00555724 0.00796911
v -0.01608961 0.00104386 0.00168805
v -0.01608961 0.00117369 0.00160051
v -0.01608961 0.00133198 0.00147139
v -0.01608961 0.00072131 0.00184902
v -0.01197912 0.00623064 0.00745445
v -0.01197912 0.00652015 0.00720259
v -0.01197912 0.00685663 0.00688304
v -0.01608961 0.00157706 0.00120501
v -0.01197912 0.00743044 0.00625926
v -0.01197912 0.00771541 0.00590441
v -0.01197912 0.00794769 0.00558783
v -0.01197912 0.00840446 0.00487388
v -0.01608961 0.00176834 0.00090120
v -0.01197912 0.00931130 0.00277296
v -0.01608961 0.00190218 0.00056648
v -0.01197912 0.00912312 0.00334042
v -0.01608961 0.00185267 0.00071189
v -0.01197912 0.00879727 0.00412284
v -0.01197912 0.00865614 0.00441145
v -0.01197912 0.00971542 0.00001867
v -0.01608961 0.00197819 0.00016109
v -0.01197912 0.00937954 0.00253257
v -0.01197912 0.00956457 0.00170546
v -0.01608961 0.00197327 0.00021307
v -0.01197912 0.00965929 0.00104298
v -0.01197912 0.00967682 0.00086536
v -0.01608961 0.00138015 -0.00142632
v -0.01608961 0.00141718 -0.00138952
v -0.01197912 0.00688304 -0.00685663
v -0.01197912 0.00745445 -0.00623064
v -0.01197912 0.00675592 -0.00698192
v -0.01197912 0.00625926 -0.00743044
v -0.01608961 0.00109939 -0.00165243
v -0.01197912 0.00412284 -0.00879727
v -0.01608961 0.00078236 -0.00182403
v -0.01608961 0.00096830 -0.00173250
v -0.01197912 0.00558783 -0.00794769
v -0.01197912 0.00538159 -0.00808877
v -0.01197912 0.00487388 -0.00840446
v -0.01197912 0.00382972 -0.00892877
v -0.01197912 0.00334042 -0.00912312
v -0.01608961 0.00044098 -0.00193513
v -0.01197912 0.00253257 -0.00937954
v -0.01197912 0.00215150 -0.00947421
v -0.01197912 0.00170546 -0.00956457
v -0.01197912 0.00086536 -0.00967682
v -0.01608961 0.00008219 -0.00198303
v 0.00102094 -0.00845971 0.00427570
v 0.00102094 0.00212692 0.00923713
v 0.00102094 0.00322482 0.00891341
v 0.00102094 0.00427570 0.00845971
v 0.00102094 0.00923713 -0.00212692
v 0.00102094 -0.00014547 0.00947772
v 0.00102094 -0.00128683 0.00939108
v 0.00102094 0.00947772 0.00014547
v 0.00102094 0.00939108 0.00128683
v 0.00102094 -0.00240941 0.00916750
v 0.00102094 -0.00349686 0.00881023
v 0.00102094 0.00099800 0.00942615
v 0.00102094 -0.00708187 -0.00157653
v 0.00102094 -0.00723595 -0.00052845
v 0.00102094 -0.00788265 0.00526423
v 0.00102094 -0.00719064 0.00617600
v 0.00102094 -0.00590045 0.00422173
v 0.00102094 0.00916750 0.00240941
v 0.00102094 0.00881023 0.00349686
v 0.00102094 0.00942615 -0.00099800
v 0.00102094 -0.00422173 -0.00590045
v 0.00102094 -0.00639378 0.00699771
v 0.00102094 -0.00550368 0.00771737
v 0.00102094 -0.00453332 0.00832450
v 0.00102094 -0.00522278 0.00503596
v 0.00102094 0.00526423 0.00788265
v 0.00102094 0.00617600 0.00719064
v 0.00102094 0.00708187 0.00157653
v 0.00102094 0.00723595 0.00052845
v 0.00102094 0.00157653 -0.00708187
v 0.00102094 0.00052845 -0.00723595
v 0.00102094 -0.00503596 -0.00522278
v 0.00102094 -0.00723577 0.00053089
v 0.00102094 0.00422173 0.00590045
v 0.00102094 0.00590045 -0.00422173
v 0.00102094 -0.00259099 0.00677680
v 0.00102094 -0.00355022 0.00632726
v 0.00102094 -0.00443376 0.00574282
v 0.00102094 0.00699771 0.00639378
v 0.00102094 0.00771737 0.00550368
v 0.00102094 0.00832450 0.00453332
v 0.00102094 0.00503596 0.00522278
v 0.00102094 0.00723577 -0.00053089
v 0.00102094 0.00522278 -0.00503596
v 0.00102094 -0.00053089 -0.00723577
v 0.00102094 -0.00574282 -0.00443376
v 0.00102094 -0.00632726 -0.00355022
v 0.00102094 -0.00677680 -0.00259099
v 0.00102094 -0.00157653 0.00708187
v 0.00102094 -0.00052845 0.00723595
v 0.00102094 0.00053089 0.00723577
v 0.00102094 0.00574282 0.00443376
v 0.00102094 0.00632726 0.00355022
v 0.00102094 0.00677680 0.00259099
v 0.00102094 0.00443376 -0.00574282
v 0.00102094 0.00355022 -0.00632726
v 0.00102094 0.00259099 -0.00677680
v -0.01614796 0.00102714 0.00140066
v -0.01614796 0.00138014 0.00105455
v -0.01614796 0.00162134 0.00062300
v -0.01614796 0.00153258 -0.00081735
v -0.01614796 0.00084740 -0.00151617
v -0.01614796 0.00038592 -0.00169350
v -0.01614796 -0.00010683 -0.00173362
v -0.01589435 0.00077753 0.00106028
v -0.01589435 0.00131048 0.00010672
v -0.01589435 0.00116015 -0.00061872
v -0.01589435 0.00029213 -0.00128196
v -0.01589435 0.00128747 -0.00026681
v -0.01607672 0.00146143 -0.00030286
v -0.01607672 0.00148756 0.00012114
v -0.01614796 0.00170077 -0.00035246
v -0.01614796 0.00173118 0.00014098
v -0.01607672 -0.00009180 -0.00148966
v -0.01589435 -0.00008087 -0.00131233
v -0.01607672 0.00033161 -0.00145518
v -0.01607672 0.00072814 -0.00130281
v -0.01589435 0.00064147 -0.00114773
v -0.01614796 0.00124023 -0.00121602
v -0.01607672 0.00106569 -0.00104489
v -0.01589435 0.00093884 -0.00092051
v -0.01607672 0.00131690 -0.00070233
v -0.01607672 0.00139317 0.00053532
v -0.01589435 0.00122733 0.00047160
v -0.01607672 0.00118592 0.00090614
v -0.01589435 0.00104475 0.00079828
v -0.01607672 0.00088259 0.00120355
v -0.01111712 0.00431218 0.00929410
v 0.00000000 0.00472669 0.00935199
v -0.01111712 0.00510581 0.00888290
v 0.00000000 0.00522185 0.00908480
v -0.01111712 0.00586057 0.00840410
v 0.00000000 0.00581948 0.00871407
v -0.01111712 0.00657074 0.00786134
v 0.00000000 0.00672008 0.00804002
v 0.00000000 0.00682741 0.00794907
v -0.01111712 0.00723090 0.00725875
v 0.00000000 0.00773579 0.00706816
v -0.01111712 0.00783602 0.00660091
v 0.00000000 0.00801412 0.00675094
v -0.01111712 0.00838151 0.00589284
v 0.00000000 0.00853136 0.00608418
v -0.01111712 0.00886321 0.00513992
v 0.00000000 0.00906466 0.00525674
v 0.00000000 0.00920252 0.00501148
v -0.01111712 0.00927746 0.00434788
v 0.00000000 0.00973949 0.00386570
v -0.01111712 0.00962110 0.00352275
v 0.00000000 0.00983977 0.00360282
v -0.01111712 0.00989151 0.00267081
v 0.00000000 0.01013444 0.00266355
v -0.01111712 0.01008665 0.00179855
v 0.00000000 0.01031590 0.00183942
v -0.01111712 0.01020502 0.00091259
v 0.00000000 0.01038160 0.00142255
v 0.00000000 0.01047738 0.00016082
v -0.01111712 0.01024572 0.00001969
v 0.00000000 0.01047859 0.00002014
v -0.01111712 0.01020845 -0.00087335
v 0.00000000 0.01042037 -0.00110326
v -0.01111712 0.01009349 -0.00175976
v 0.00000000 0.01032290 -0.00179975
v -0.01111712 0.00990171 -0.00263277
v 0.00000000 0.01021141 -0.00235126
v -0.01111712 0.00963457 -0.00348574
v -0.01111712 0.00929410 -0.00431218
v -0.01111712 0.00888290 -0.00510581
v -0.01111712 0.00840410 -0.00586057
v -0.01111712 0.00786134 -0.00657074
v -0.01111712 0.00725875 -0.00723090
v -0.01111712 0.00660091 -0.00783602
v -0.01111712 0.00589284 -0.00838151
v -0.01111712 0.00513992 -0.00886321
v -0.01111712 0.00434788 -0.00927746
v -0.01111712 0.00352275 -0.00962110
v -0.01111712 0.00267081 -0.00989151
v -0.01111712 0.00179855 -0.01008665
v -0.01111712 0.00091259 -0.01020502
v -0.01111712 0.00001969 -0.01024572
v -0.01111712 -0.00087335 -0.01020845
v -0.01111712 -0.00175976 -0.01009349
v -0.01111712 -0.00263277 -0.00990171
v -0.01176184 0.00343558 -0.00938302
v -0.01176184 0.00260472 -0.00964675
v -0.01176184 0.00643757 -0.00764212
v -0.01176184 0.00574702 -0.00817411
v -0.01176184 0.00866310 -0.00497946
v -0.01176184 0.00819614 -0.00571556
v -0.01176184 0.00571556 0.00819614
v -0.01176184 0.00640815 0.00766681
v -0.01176184 0.00420548 0.00906412
v -0.01146213 0.00428308 0.00923138
v -0.01176184 0.00497946 0.00866310
v -0.01176184 0.00705197 0.00707913
v -0.01176184 0.00764212 0.00643757
v -0.01176184 0.00817411 0.00574702
v -0.01176184 0.00864389 0.00501273
v -0.01176184 0.00904789 0.00424029
v -0.01176184 0.00938302 0.00343558
v -0.01176184 0.00964675 0.00260472
v -0.01176184 0.00983706 0.00175404
v -0.01176184 0.00995250 0.00089001
v -0.01176184 0.00999220 0.00001921
v -0.01176184 0.00995585 -0.00085174
v -0.01176184 0.00984373 -0.00171621
v -0.01176184 0.00965669 -0.00256762
v -0.01176184 0.00939616 -0.00339948
v -0.01176184 0.00906412 -0.00420548
v -0.01176184 0.00766681 -0.00640815
v -0.01176184 0.00707913 -0.00705197
v -0.01176184 0.00501273 -0.00864389
v -0.01176184 0.00424029 -0.00904789
v -0.01176184 0.00175404 -0.00983706
v -0.01176184 0.00089001 -0.00995250
v -0.01176184 0.00001921 -0.00999220
v -0.01176184 -0.00085174 -0.00995585
v -0.01146213 0.00507135 0.00882295
v -0.01146213 0.00582102 0.00834738
v -0.01146213 0.00652639 0.00780828
v -0.01146213 0.00718209 0.00720976
v -0.01146213 0.00778313 0.00655636
v -0.01146213 0.00832494 0.00585307
v -0.01146213 0.00880339 0.00510523
v -0.01146213 0.00921484 0.00431853
v -0.01146213 0.00955616 0.00349898
v -0.01146213 0.00982475 0.00265279
v -0.01146213 0.01001857 0.00178641
v -0.01146213 0.01013615 0.00090643
v -0.01146213 0.01017658 0.00001956
v -0.01146213 0.01013955 -0.00086746
v -0.01146213 0.01002537 -0.00174788
v -0.01146213 0.00983488 -0.00261500
v -0.01146213 0.00956954 -0.00346221
v -0.01146213 0.00923138 -0.00428308
v -0.01146213 0.00882295 -0.00507135
v -0.01146213 0.00834738 -0.00582102
v -0.01146213 0.00780828 -0.00652639
v -0.01146213 0.00720976 -0.00718209
v -0.01146213 0.00655636 -0.00778313
v -0.01146213 0.00585307 -0.00832494
v -0.01146213 0.00510523 -0.00880339
v -0.01146213 0.00431853 -0.00921484
v -0.01146213 0.00349898 -0.00955616
v -0.01146213 0.00265279 -0.00982475
v -0.01146213 0.00178641 -0.01001857
v -0.01146213 0.00090643 -0.01013615
v -0.01146213 0.00001956 -0.01017658
v -0.01146213 -0.00086746 -0.01013955
v -0.01146213 -0.00174788 -0.01002537
v -0.01146213 -0.00261500 -0.00983488
v -0.01176184 -0.00171621 -0.00984373
v -0.01176184 -0.00256762 -0.00965669
v 0.00094281 0.00961476 -0.00221387
v 0.00072061 0.00993338 -0.00228724
v 0.00038906 0.01014319 -0.00233555
v 0.00038906 0.01035076 -0.00109589
v 0.00038906 0.01040738 0.00015974
v 0.00038906 0.01031225 0.00141305
v 0.00038906 0.01006674 0.00264575
v 0.00038906 0.00967443 0.00383987
v 0.00038906 0.00914104 0.00497800
v 0.00038906 0.00847436 0.00604353
v 0.00038906 0.00768411 0.00702094
v 0.00038906 0.00678180 0.00789597
v 0.00038906 0.00578060 0.00865585
v 0.00038906 0.00469511 0.00928952
v 0.00038906 0.00354115 0.00978772
v 0.00038906 0.00233555 0.01014319
v 0.00038906 0.00109589 0.01035076
v 0.00038906 -0.00015974 0.01040738
v 0.00038906 -0.00141305 0.01031225
v 0.00038906 -0.00264575 0.01006674
v 0.00038906 -0.00383987 0.00967443
v 0.00038906 -0.00497800 0.00914104
v 0.00038906 -0.00604353 0.00847436
v 0.00038906 -0.00702094 0.00768411
v 0.00038906 -0.00789597 0.00678180
v 0.00038906 -0.00865585 0.00578060
v 0.00038906 -0.00928952 0.00469511
v 0.00072061 0.01013665 -0.00107322
v 0.00072061 0.01019211 0.00015644
v 0.00072061 0.01009894 0.00138382
v 0.00072061 0.00985850 0.00259102
v 0.00072061 0.00947431 0.00376044
v 0.00072061 0.00895196 0.00487503
v 0.00072061 0.00829907 0.00591852
v 0.00072061 0.00752516 0.00687571
v 0.00072061 0.00664152 0.00773264
v 0.00072061 0.00566103 0.00847681
v 0.00072061 0.00459799 0.00909736
v 0.00072061 0.00346790 0.00958526
v 0.00072061 0.00228724 0.00993338
v 0.00072061 0.00107322 0.01013665
v 0.00072061 -0.00015644 0.01019211
v 0.00072061 -0.00138382 0.01009894
v 0.00072061 -0.00259102 0.00985850
v 0.00072061 -0.00376044 0.00947431
v 0.00072061 -0.00487503 0.00895196
v 0.00072061 -0.00591852 0.00829907
v 0.00072061 -0.00687571 0.00752516
v 0.00072061 -0.00773264 0.00664152
v 0.00072061 -0.00847681 0.00566103
v 0.00072061 -0.00909736 0.00459799
v 0.00094281 0.00981151 -0.00103880
v 0.00094281 0.00986519 0.00015142
v 0.00094281 0.00977501 0.00133943
v 0.00094281 0.00954229 0.00250791
v 0.00094281 0.00917042 0.00363982
v 0.00094281 0.00866482 0.00471866
v 0.00094281 0.00803287 0.00572868
v 0.00094281 0.00728379 0.00665517
v 0.00094281 0.00642849 0.00748461
v 0.00094281 0.00547945 0.00820491
v 0.00094281 0.00445050 0.00880556
v 0.00094281 0.00335666 0.00927780
v 0.00094281 0.00221387 0.00961476
v 0.00094281 0.00103880 0.00981151
v 0.00094281 -0.00015142 0.00986519
v 0.00094281 -0.00133943 0.00977501
v 0.00094281 -0.00250791 0.00954229
v 0.00094281 -0.00363982 0.00917042
v 0.00094281 -0.00471866 0.00866482
v 0.00094281 -0.00572868 0.00803287
v 0.00094281 -0.00665517 0.00728379
v 0.00094281 -0.00748461 0.00642849
v 0.00094281 -0.00820491 0.00547945
v 0.00094281 -0.00880556 0.00445050
v 0.00100148 -0.00691695 0.00091246
v 0.00100148 -0.00405976 -0.00567408
v 0.00100148 -0.00589957 0.00372449
v 0.00100148 0.00050367 0.00695867
v 0.00100148 0.00051052 0.00695817
v 0.00100148 -0.00406535 -0.00567008
v 0.00100148 -0.00484275 -0.00502241
v 0.00100148 -0.00518604 -0.00466710
v 0.00100148 -0.00552250 -0.00426366
v 0.00100148 -0.00606575 -0.00344724
v 0.00100148 -0.00651681 -0.00249159
v 0.00100148 -0.00608451 -0.00341402
v 0.00100148 -0.00695835 -0.00050818
v 0.00100148 -0.00695179 -0.00059111
v 0.00100148 -0.00681017 -0.00151604
v 0.00100148 -0.00666359 -0.00206720
v 0.00100148 -0.00695817 0.00051052
v 0.00100148 -0.00567408 0.00405976
v 0.00100148 -0.00502241 0.00484275
v 0.00100148 -0.00426366 0.00552250
v 0.00100148 -0.00496431 0.00490229
v 0.00100148 -0.00245591 0.00653034
v 0.00100148 -0.00249159 0.00651681
v 0.00100148 -0.00341402 0.00608451
v 0.00100148 -0.00379836 0.00585229
v 0.00100148 -0.00151604 0.00681017
v 0.00100148 -0.00099934 0.00690494
v 0.00100148 -0.00050818 0.00695835
v 0.00034984 0.00102737 0.00238957
v 0.00034984 0.00151561 0.00211387
v 0.00034984 0.00193342 0.00173995
v 0.00034984 0.00226139 0.00128517
v 0.00034984 0.00248427 0.00077068
v 0.00034984 0.00259171 0.00022037
v 0.00034984 0.00257872 -0.00034018
v 0.00034984 0.00244591 -0.00088492
v 0.00034984 0.00219943 -0.00138854
v 0.00034984 0.00185075 -0.00182763
v 0.00034984 0.00141608 -0.00218180
v 0.00034984 0.00091559 -0.00243459
v 0.00034984 0.00037257 -0.00257424
v 0.00034984 -0.00018777 -0.00259428
v 0.00034984 -0.00073939 -0.00249376
v -0.00116262 0.00045279 -0.00120398
v -0.00116262 0.00018424 -0.00127304
v -0.00116262 -0.00009286 -0.00128295
v -0.00116262 -0.00036565 -0.00123324
v -0.00116262 0.00122854 0.00038112
v -0.00116262 0.00128168 0.00010898
v -0.00116262 0.00127525 -0.00016823
v -0.00116262 0.00120957 -0.00043762
v -0.00116262 0.00108768 -0.00068667
v -0.00116262 0.00091525 -0.00090382
v -0.00116262 0.00070029 -0.00107897
v -0.00116262 0.00111832 0.00063556
v -0.00116262 0.00095613 0.00086046
v -0.00116262 0.00074951 0.00104537
v -0.00116262 0.00050807 0.00118171
v -0.00066626 0.00057348 0.00133385
v -0.00022984 0.00068750 0.00159905
v 0.00011677 0.00084233 0.00195918
v 0.00011677 0.00124263 0.00173314
v 0.00011677 0.00158519 0.00142656
v 0.00011677 0.00185408 0.00105370
v 0.00011677 0.00203682 0.00063187
v 0.00011677 0.00212491 0.00018068
v 0.00011677 0.00211426 -0.00027891
v 0.00011677 0.00200537 -0.00072553
v 0.00011677 0.00180329 -0.00113844
v 0.00011677 0.00151741 -0.00149845
v 0.00011677 0.00116102 -0.00178883
v 0.00011677 0.00075068 -0.00199609
v 0.00011677 0.00030546 -0.00211059
v 0.00011677 -0.00015395 -0.00212701
v 0.00011677 -0.00060622 -0.00204460
v -0.00022984 0.00101422 0.00141456
v -0.00022984 0.00129381 0.00116434
v -0.00022984 0.00151327 0.00086001
v -0.00022984 0.00166242 0.00051572
v -0.00022984 0.00173432 0.00014747
v -0.00022984 0.00172563 -0.00022764
v -0.00022984 0.00163675 -0.00059217
v -0.00022984 0.00147182 -0.00092918
v -0.00022984 0.00123849 -0.00122302
v -0.00022984 0.00094761 -0.00146002
v -0.00022984 0.00061270 -0.00162918
v -0.00022984 0.00024931 -0.00172263
v -0.00022984 -0.00012566 -0.00173604
v -0.00022984 -0.00049478 -0.00166877
v -0.00066626 0.00084601 0.00117995
v -0.00066626 0.00107923 0.00097123
v -0.00066626 0.00126229 0.00071738
v -0.00066626 0.00138671 0.00043019
v -0.00066626 0.00144668 0.00012301
v -0.00066626 0.00143943 -0.00018988
v -0.00066626 0.00136529 -0.00049396
v -0.00066626 0.00122771 -0.00077507
v -0.00066626 0.00103308 -0.00102018
v -0.00066626 0.00079045 -0.00121787
v -0.00066626 0.00051108 -0.00135898
v -0.00066626 0.00020796 -0.00143693
v -0.00066626 -0.00010481 -0.00144811
v -0.00066626 -0.00041272 -0.00139201
f 1 2 3
f 4 1 5
f 6 4 7
f 8 6 9
f 10 8 11
f 10 11 12
f 12 11 13
f 12 13 14
f 14 13 15
f 14 15 16
f 16 15 17
f 16 17 18
f 18 17 19
f 18 19 20
f 20 19 21
f 20 21 22
f 22 21 23
f 22 23 24
f 24 23 25
f 24 25 26
f 26 25 27
f 26 27 28
f 28 27 29
f 28 29 30
f 30 29 31
f 30 31 32
f 32 31 33
f 32 33 34
f 34 33 35
f 34 35 36
f 36 35 37
f 36 37 38
f 38 37 39
f 38 39 40
f 40 39 41
f 40 41 42
f 43 44 45
f 45 44 46
f 45 46 47
f 47 46 48
f 47 48 49
f 49 48 50
f 49 50 51
f 52 53 54
f 54 53 55
f 54 55 56
f 56 55 57
f 56 57 58
f 58 57 59
f 58 59 60
f 60 59 61
f 60 61 62
f 62 61 63
f 62 63 64
f 64 63 65
f 64 65 43
f 43 65 66
f 43 66 44
f 67 68 52
f 52 68 69
f 52 69 53
f 52 70 67
f 67 70 71
f 67 71 72
f 72 71 73
f 72 73 74
f 74 73 3
f 74 3 75
f 75 3 2
f 75 2 76
f 8 9 11
f 11 9 77
f 11 77 13
f 13 77 78
f 13 78 15
f 15 78 79
f 15 79 17
f 17 79 80
f 17 80 19
f 19 80 81
f 19 81 21
f 21 81 82
f 21 82 23
f 23 82 83
f 23 83 25
f 25 83 84
f 25 84 27
f 27 84 85
f 27 85 29
f 29 85 86
f 29 86 31
f 31 86 87
f 31 87 33
f 33 87 88
f 33 88 35
f 35 88 89
f 35 89 37
f 37 89 90
f 37 90 39
f 39 90 91
f 39 91 41
f 6 7 9
f 9 7 92
f 9 92 77
f 77 92 93
f 77 93 78
f 78 93 94
f 78 94 79
f 79 94 95
f 79 95 80
f 80 95 96
f 80 96 81
f 81 96 97
f 81 97 82
f 82 97 98
f 82 98 83
f 83 98 99
f 83 99 84
f 84 99 100
f 84 100 85
f 85 100 101
f 85 101 86
f 86 101 102
f 86 102 87
f 87 102 103
f 87 103 88
f 88 103 104
f 88 104 89
f 89 104 105
f 89 105 90
f 90 105 106
f 90 106 91
f 4 5 7
f 7 5 107
f 7 107 92
f 92 107 108
f 92 108 93
f 93 108 109
f 93 109 94
f 94 109 110
f 94 110 95
f 95 110 111
f 95 111 96
f 96 111 112
f 96 112 97
f 97 112 113
f 97 113 98
f 98 113 114
f 98 114 99
f 99 114 115
f 99 115 100
f 100 115 116
f 100 116 101
f 101 116 117
f 101 117 102
f 102 117 118
f 102 118 103
f 103 118 119
f 103 119 104
f 104 119 120
f 104 120 105
f 105 120 121
f 105 121 106
f 1 3 5
f 5 3 73
f 5 73 107
f 107 73 71
f 107 71 108
f 108 71 70
f 108 70 109
f 109 70 52
f 109 52 110
f 110 52 54
f 110 54 111
f 111 54 56
f 111 56 112
f 112 56 58
f 112 58 113
f 113 58 60
f 113 60 114
f 114 60 62
f 114 62 115
f 115 62 64
f 115 64 116
f 116 64 43
f 116 43 117
f 117 43 45
f 117 45 118
f 118 45 47
f 118 47 119
f 119 47 49
f 119 49 120
f 120 49 51
f 120 51 121
f 122 123 124
f 125 42 126
f 126 42 127
f 128 129 130
f 130 131 132
f 132 131 133
f 132 133 127
f 127 133 134
f 127 134 126
f 135 136 137
f 136 138 137
f 137 138 139
f 137 139 140
f 141 142 143
f 143 144 141
f 141 144 145
f 141 145 146
f 146 147 141
f 141 147 148
f 141 148 149
f 149 148 150
f 149 150 137
f 137 150 151
f 137 151 135
f 152 153 154
f 155 156 157
f 157 156 158
f 159 10 160
f 160 161 159
f 159 161 162
f 159 162 154
f 154 162 163
f 154 163 152
f 128 130 164
f 164 130 132
f 164 132 165
f 165 132 166
f 165 166 167
f 167 166 168
f 168 166 169
f 168 169 170
f 171 172 169
f 169 172 173
f 169 173 170
f 174 175 176
f 176 175 177
f 176 177 171
f 171 177 178
f 171 178 172
f 174 176 179
f 179 176 137
f 179 137 124
f 124 137 140
f 124 140 122
f 142 141 180
f 180 141 181
f 180 181 182
f 183 184 181
f 181 184 185
f 181 185 182
f 186 187 188
f 188 187 189
f 188 189 183
f 183 189 190
f 183 190 184
f 186 188 191
f 191 188 192
f 191 192 193
f 193 192 194
f 194 192 154
f 194 154 155
f 155 154 153
f 155 153 156
f 195 196 197
f 196 198 199
f 198 200 201
f 200 202 203
f 200 203 201
f 201 203 204
f 201 204 205
f 204 206 205
f 205 206 207
f 205 207 208
f 207 209 208
f 208 209 210
f 208 210 211
f 211 210 212
f 211 212 213
f 213 212 214
f 213 214 215
f 215 214 216
f 216 217 215
f 215 217 218
f 215 218 219
f 219 218 220
f 219 220 221
f 221 220 222
f 221 222 223
f 223 222 224
f 224 225 223
f 223 225 226
f 223 226 227
f 227 226 228
f 227 228 229
f 229 228 230
f 229 230 231
f 231 230 232
f 232 233 231
f 231 233 234
f 231 234 235
f 235 234 236
f 235 236 237
f 237 236 238
f 237 238 239
f 238 240 239
f 239 240 241
f 239 241 242
f 241 243 242
f 242 243 244
f 242 244 245
f 245 244 246
f 245 246 247
f 247 246 248
f 247 248 249
f 249 248 250
f 250 251 249
f 249 251 252
f 249 252 253
f 253 252 254
f 253 254 255
f 255 254 256
f 255 256 257
f 257 256 258
f 258 259 257
f 257 259 260
f 257 260 261
f 261 260 262
f 261 262 263
f 263 262 264
f 263 264 265
f 265 264 266
f 266 267 265
f 265 267 268
f 265 268 269
f 198 201 199
f 199 201 205
f 199 205 270
f 270 205 208
f 270 208 271
f 271 208 211
f 271 211 272
f 272 211 213
f 272 213 273
f 273 213 215
f 273 215 274
f 274 215 219
f 274 219 275
f 275 219 221
f 275 221 276
f 276 221 223
f 276 223 277
f 277 223 227
f 277 227 278
f 278 227 229
f 278 229 279
f 279 229 231
f 279 231 280
f 280 231 235
f 280 235 281
f 281 235 237
f 281 237 282
f 282 237 239
f 282 239 283
f 283 239 242
f 283 242 284
f 284 242 245
f 284 245 285
f 285 245 247
f 285 247 286
f 286 247 249
f 286 249 287
f 287 249 253
f 287 253 288
f 288 253 255
f 288 255 289
f 289 255 257
f 289 257 290
f 290 257 261
f 290 261 291
f 291 261 263
f 291 263 292
f 292 263 265
f 292 265 293
f 293 265 269
f 293 269 294
f 196 199 197
f 197 199 270
f 197 270 295
f 295 270 271
f 295 271 296
f 296 271 272
f 296 272 297
f 297 272 273
f 297 273 298
f 298 273 274
f 298 274 299
f 299 274 275
f 299 275 300
f 300 275 276
f 300 276 301
f 301 276 277
f 301 277 302
f 302 277 278
f 302 278 303
f 303 278 279
f 303 279 304
f 304 279 280
f 304 280 305
f 305 280 281
f 305 281 306
f 306 281 282
f 306 282 307
f 307 282 283
f 307 283 308
f 308 283 284
f 308 284 309
f 309 284 285
f 309 285 310
f 310 285 286
f 310 286 311
f 311 286 287
f 311 287 312
f 312 287 288
f 312 288 313
f 313 288 289
f 313 289 314
f 314 289 290
f 314 290 315
f 315 290 291
f 315 291 316
f 316 291 292
f 316 292 317
f 317 292 293
f 317 293 318
f 318 293 294
f 318 294 319
f 195 197 320
f 320 197 295
f 320 295 321
f 321 295 296
f 321 296 322
f 322 296 297
f 322 297 323
f 323 297 298
f 323 298 324
f 324 298 299
f 324 299 325
f 325 299 300
f 325 300 326
f 326 300 301
f 326 301 327
f 327 301 302
f 327 302 328
f 328 302 303
f 328 303 329
f 329 303 304
f 329 304 330
f 330 304 305
f 330 305 331
f 331 305 306
f 331 306 332
f 332 306 307
f 332 307 333
f 333 307 308
f 333 308 334
f 334 308 309
f 334 309 335
f 335 309 310
f 335 310 336
f 336 310 311
f 336 311 337
f 337 311 312
f 337 312 338
f 338 312 313
f 338 313 339
f 339 313 314
f 339 314 340
f 340 314 315
f 340 315 341
f 341 315 316
f 341 316 342
f 342 316 317
f 342 317 343
f 343 317 318
f 343 318 344
f 344 318 319
f 344 319 345
f 346 347 348
f 349 350 351
f 352 353 354
f 355 356 357
f 358 359 360
f 359 361 362
f 361 363 364
f 358 360 365
f 365 360 366
f 365 366 367
f 356 355 366
f 366 355 368
f 366 368 367
f 369 370 357
f 357 370 371
f 357 371 355
f 357 372 369
f 369 372 373
f 369 373 374
f 374 373 375
f 375 373 376
f 375 376 377
f 377 376 378
f 377 378 379
f 379 378 380
f 380 378 381
f 380 381 382
f 382 381 383
f 382 383 384
f 384 383 385
f 385 383 386
f 385 386 387
f 387 386 388
f 387 388 389
f 389 388 390
f 390 388 391
f 390 391 392
f 392 391 393
f 392 393 394
f 394 393 395
f 395 393 396
f 395 396 397
f 397 396 398
f 397 398 399
f 399 398 400
f 400 398 401
f 400 401 402
f 402 401 403
f 402 403 404
f 404 403 405
f 404 405 406
f 353 352 405
f 405 352 407
f 405 407 406
f 408 409 354
f 354 409 410
f 354 410 352
f 354 411 408
f 408 411 412
f 408 412 413
f 350 349 412
f 412 349 414
f 412 414 413
f 415 416 351
f 351 416 417
f 351 417 349
f 351 418 415
f 415 418 419
f 415 419 420
f 347 346 419
f 419 346 421
f 419 421 420
f 422 423 348
f 348 423 424
f 348 424 346
f 348 425 422
f 422 425 426
f 422 426 427
f 427 426 428
f 428 426 429
f 428 429 430
f 430 429 431
f 430 431 432
f 361 364 362
f 362 364 433
f 362 433 434
f 434 433 435
f 434 435 436
f 436 435 437
f 436 437 438
f 438 437 439
f 438 439 440
f 440 439 441
f 440 441 442
f 442 441 443
f 442 443 444
f 444 443 445
f 444 445 446
f 446 445 447
f 446 447 448
f 448 447 449
f 448 449 450
f 450 449 451
f 450 451 452
f 452 451 453
f 452 453 454
f 454 453 455
f 454 455 456
f 456 455 457
f 456 457 458
f 458 457 459
f 458 459 460
f 460 459 461
f 460 461 462
f 462 461 463
f 462 463 464
f 464 463 465
f 464 465 466
f 466 465 467
f 466 467 468
f 468 467 469
f 468 469 470
f 470 469 471
f 470 471 472
f 472 471 473
f 472 473 474
f 474 473 475
f 474 475 476
f 476 475 477
f 476 477 478
f 478 477 479
f 478 479 480
f 480 479 481
f 480 481 482
f 482 481 483
f 482 483 484
f 484 483 485
f 484 485 486
f 486 485 487
f 486 487 488
f 488 487 489
f 488 489 490
f 490 489 491
f 490 491 492
f 492 491 493
f 492 493 494
f 494 493 495
f 494 495 496
f 496 495 497
f 496 497 498
f 498 497 499
f 498 499 500
f 500 499 501
f 500 501 502
f 359 362 360
f 360 362 434
f 360 434 366
f 366 434 436
f 366 436 356
f 356 436 438
f 356 438 357
f 357 438 440
f 357 440 372
f 372 440 442
f 372 442 373
f 373 442 444
f 373 444 376
f 376 444 446
f 376 446 378
f 378 446 448
f 378 448 381
f 381 448 450
f 381 450 383
f 383 450 452
f 383 452 386
f 386 452 454
f 386 454 388
f 388 454 456
f 388 456 391
f 391 456 458
f 391 458 393
f 393 458 460
f 393 460 396
f 396 460 462
f 396 462 398
f 398 462 464
f 398 464 401
f 401 464 466
f 401 466 403
f 403 466 468
f 403 468 405
f 405 468 470
f 405 470 353
f 353 470 472
f 353 472 354
f 354 472 474
f 354 474 411
f 411 474 476
f 411 476 412
f 412 476 478
f 412 478 350
f 350 478 480
f 350 480 351
f 351 480 482
f 351 482 418
f 418 482 484
f 418 484 419
f 419 484 486
f 419 486 347
f 347 486 488
f 347 488 348
f 348 488 490
f 348 490 425
f 425 490 492
f 425 492 426
f 426 492 494
f 426 494 429
f 429 494 496
f 429 496 431
f 431 496 498
f 431 498 503
f 503 498 500
f 503 500 504
f 504 500 502
f 504 502 505
f 432 431 506
f 506 431 503
f 506 503 507
f 507 503 504
f 507 504 508
f 508 504 505
f 508 505 509
f 363 234 364
f 364 234 233
f 364 233 433
f 433 233 232
f 433 232 435
f 435 232 230
f 435 230 437
f 230 228 437
f 437 228 226
f 437 226 439
f 439 226 225
f 439 225 441
f 441 225 224
f 441 224 443
f 443 224 222
f 443 222 445
f 222 220 445
f 445 220 218
f 445 218 447
f 447 218 217
f 447 217 449
f 449 217 216
f 449 216 451
f 451 216 214
f 451 214 453
f 453 214 212
f 453 212 455
f 212 210 455
f 455 210 209
f 455 209 457
f 457 209 207
f 457 207 459
f 459 207 206
f 459 206 461
f 461 206 204
f 461 204 463
f 463 204 203
f 463 203 465
f 465 203 202
f 465 202 467
f 467 202 510
f 467 510 469
f 469 510 511
f 469 511 471
f 471 511 512
f 471 512 473
f 512 513 473
f 473 513 514
f 473 514 475
f 475 514 515
f 475 515 477
f 477 515 516
f 477 516 479
f 479 516 517
f 479 517 481
f 517 518 481
f 481 518 519
f 481 519 483
f 483 519 520
f 483 520 485
f 485 520 521
f 485 521 487
f 487 521 522
f 487 522 489
f 489 522 523
f 489 523 491
f 523 524 491
f 491 524 525
f 491 525 493
f 493 525 526
f 493 526 495
f 495 526 527
f 495 527 497
f 497 527 528
f 497 528 499
f 499 528 529
f 499 529 501
f 501 529 530
f 531 532 533
f 534 535 536
f 537 538 539
f 540 541 542
f 543 544 545
f 546 547 548
f 549 550 551
f 552 553 554
f 555 556 557
f 558 559 560
f 561 562 563
f 564 565 566
f 561 563 567
f 568 558 569
f 569 558 560
f 569 560 570
f 570 560 571
f 570 571 572
f 572 571 573
f 552 554 574
f 550 574 551
f 551 574 554
f 551 554 575
f 575 554 576
f 575 576 577
f 577 576 578
f 547 549 548
f 548 549 551
f 548 551 579
f 579 551 575
f 579 575 566
f 566 575 577
f 566 577 564
f 564 577 578
f 564 578 580
f 544 546 545
f 545 546 548
f 545 548 581
f 581 548 579
f 581 579 582
f 582 579 566
f 583 584 585
f 585 584 586
f 586 543 585
f 585 543 545
f 585 545 587
f 587 545 581
f 587 581 588
f 588 581 582
f 541 583 542
f 542 583 585
f 542 585 589
f 589 585 587
f 589 587 563
f 563 587 588
f 563 588 567
f 567 588 582
f 567 582 590
f 590 582 566
f 590 566 591
f 591 566 565
f 572 592 593
f 593 540 572
f 572 540 542
f 572 542 570
f 570 542 589
f 570 589 569
f 569 589 563
f 569 563 568
f 568 563 562
f 594 595 573
f 573 595 596
f 573 596 572
f 572 596 597
f 572 597 592
f 538 594 539
f 539 594 573
f 539 573 598
f 598 573 571
f 598 571 599
f 599 571 560
f 599 560 600
f 600 560 559
f 535 537 536
f 536 537 539
f 536 539 601
f 601 539 598
f 601 598 602
f 602 598 599
f 602 599 603
f 603 599 600
f 532 534 533
f 533 534 536
f 533 536 604
f 604 536 601
f 604 601 557
f 557 601 602
f 557 602 555
f 555 602 603
f 605 606 607
f 607 531 605
f 605 531 533
f 605 533 608
f 608 533 604
f 608 604 609
f 609 604 557
f 609 557 610
f 610 557 556
f 611 612 574
f 574 612 613
f 614 553 615
f 615 553 552
f 615 552 616
f 616 552 574
f 616 574 617
f 617 574 613
f 550 618 574
f 574 618 619
f 574 619 611
f 620 621 506
f 506 621 622
f 506 622 623
f 623 624 506
f 506 624 625
f 506 625 626
f 428 430 627
f 627 430 432
f 627 432 628
f 628 432 506
f 628 506 629
f 629 506 626
f 620 506 630
f 630 506 507
f 630 507 631
f 631 507 508
f 631 508 632
f 632 508 509
f 632 509 633
f 634 358 635
f 635 358 365
f 635 365 636
f 637 638 368
f 638 639 368
f 368 639 640
f 368 640 641
f 641 642 368
f 368 642 643
f 368 643 367
f 367 643 644
f 367 644 365
f 365 644 645
f 365 645 636
f 637 368 646
f 646 368 355
f 646 355 647
f 648 649 531
f 531 649 650
f 531 650 651
f 651 652 531
f 531 652 653
f 531 653 654
f 654 655 531
f 531 655 656
f 531 656 532
f 532 656 647
f 532 647 534
f 531 607 648
f 648 607 606
f 648 606 657
f 658 659 593
f 593 659 660
f 593 660 540
f 540 660 661
f 662 395 663
f 663 395 397
f 663 397 664
f 664 397 399
f 664 399 665
f 665 399 400
f 662 666 395
f 395 666 667
f 395 667 668
f 668 669 395
f 395 669 670
f 395 670 671
f 672 673 597
f 672 597 674
f 673 675 597
f 597 675 676
f 597 676 677
f 658 593 677
f 677 593 592
f 677 592 597
f 406 407 678
f 678 679 406
f 406 679 680
f 406 680 404
f 404 680 681
f 404 681 402
f 681 682 402
f 402 682 683
f 402 683 400
f 400 683 684
f 400 684 665
f 661 685 540
f 540 685 686
f 540 686 541
f 541 686 687
f 541 687 583
f 583 687 688
f 583 688 689
f 689 690 583
f 583 690 691
f 583 691 692
f 409 693 694
f 694 695 409
f 409 695 696
f 409 696 697
f 697 698 409
f 409 698 699
f 409 699 410
f 410 699 700
f 410 700 352
f 352 700 701
f 352 701 407
f 407 701 702
f 407 702 678
f 355 371 647
f 647 371 370
f 647 370 534
f 534 370 369
f 534 369 535
f 535 369 374
f 535 374 375
f 375 377 535
f 535 377 379
f 535 379 537
f 385 594 384
f 384 594 538
f 384 538 382
f 382 538 537
f 382 537 380
f 380 537 379
f 671 674 395
f 395 674 597
f 395 597 394
f 394 597 596
f 385 387 594
f 594 387 389
f 594 389 595
f 595 389 390
f 595 390 596
f 596 390 392
f 596 392 394
f 586 584 413
f 413 584 408
f 408 584 583
f 408 583 409
f 409 583 692
f 409 692 693
f 413 414 586
f 586 414 349
f 586 349 543
f 420 546 544
f 349 417 543
f 543 417 416
f 543 416 544
f 544 416 415
f 544 415 420
f 420 421 546
f 546 421 346
f 546 346 547
f 547 346 424
f 547 424 423
f 423 422 547
f 547 422 427
f 547 427 549
f 549 427 428
f 549 428 550
f 550 428 627
f 550 627 618
f 144 143 703
f 704 705 706
f 706 707 704
f 704 707 708
f 704 708 709
f 709 708 710
f 709 710 711
f 711 712 709
f 709 712 713
f 709 713 714
f 714 713 715
f 715 713 716
f 715 716 717
f 716 718 717
f 717 718 719
f 717 719 720
f 720 719 721
f 720 721 722
f 721 723 722
f 722 723 724
f 722 724 725
f 725 724 726
f 725 726 143
f 143 726 727
f 143 727 703
f 728 729 145
f 144 703 145
f 145 703 730
f 145 730 728
f 731 147 729
f 729 147 146
f 729 146 145
f 732 150 733
f 733 150 148
f 733 148 734
f 734 148 147
f 734 147 735
f 735 147 731
f 736 737 655
f 655 737 656
f 738 739 634
f 634 635 738
f 738 635 636
f 738 636 740
f 740 636 645
f 645 644 740
f 740 644 643
f 740 643 741
f 741 643 742
f 742 643 642
f 742 642 743
f 642 641 743
f 743 641 640
f 743 640 744
f 744 640 639
f 744 639 745
f 639 638 745
f 745 638 637
f 745 637 746
f 746 637 646
f 746 646 737
f 737 646 647
f 737 647 656
f 653 652 747
f 736 655 747
f 747 655 654
f 747 654 653
f 651 748 652
f 652 748 749
f 652 749 747
f 657 160 648
f 648 160 750
f 648 750 649
f 649 750 748
f 649 748 650
f 650 748 651
f 751 752 691
f 753 754 681
f 681 680 753
f 753 680 679
f 753 679 755
f 755 679 678
f 755 678 702
f 702 701 755
f 755 701 700
f 755 700 756
f 756 700 757
f 757 700 699
f 757 699 758
f 699 698 758
f 758 698 697
f 758 697 759
f 759 697 696
f 759 696 760
f 696 695 760
f 760 695 694
f 760 694 761
f 761 694 693
f 761 693 752
f 752 693 692
f 752 692 691
f 689 688 762
f 751 691 762
f 762 691 690
f 762 690 689
f 687 763 688
f 688 763 764
f 688 764 762
f 660 765 661
f 661 765 766
f 661 766 685
f 685 766 763
f 685 763 686
f 686 763 687
f 130 129 767
f 767 129 768
f 769 770 633
f 633 771 769
f 769 771 772
f 769 772 773
f 773 772 774
f 774 775 773
f 773 775 776
f 773 776 777
f 777 776 778
f 778 776 779
f 778 779 780
f 779 781 780
f 780 781 782
f 780 782 783
f 783 782 784
f 783 784 785
f 784 786 785
f 785 786 787
f 785 787 788
f 788 787 789
f 788 789 129
f 129 789 790
f 129 790 768
f 791 792 131
f 130 767 131
f 131 767 793
f 131 793 791
f 794 134 792
f 792 134 133
f 792 133 131
f 614 125 795
f 795 125 126
f 795 126 796
f 796 126 134
f 796 134 797
f 797 134 794
f 610 76 798
f 610 798 799
f 799 798 800
f 799 800 801
f 801 800 802
f 801 802 803
f 803 802 804
f 803 804 805
f 805 804 806
f 805 806 807
f 806 808 807
f 807 808 809
f 807 809 810
f 810 809 811
f 810 811 812
f 812 811 813
f 812 813 814
f 814 813 815
f 814 815 816
f 817 818 819
f 816 815 819
f 819 815 820
f 819 820 817
f 817 821 818
f 818 821 822
f 818 822 823
f 823 822 824
f 823 824 825
f 50 580 826
f 826 580 827
f 825 824 827
f 827 824 828
f 827 828 826
f 580 50 48
f 580 48 564
f 564 48 46
f 564 46 565
f 565 46 44
f 565 44 591
f 591 44 66
f 591 66 590
f 590 66 65
f 590 65 567
f 65 63 567
f 567 63 61
f 567 61 561
f 561 61 59
f 561 59 562
f 562 59 57
f 562 57 568
f 568 57 55
f 568 55 558
f 69 600 559
f 558 55 559
f 559 55 53
f 559 53 69
f 69 68 600
f 600 68 67
f 600 67 603
f 603 67 72
f 603 72 555
f 76 610 75
f 75 610 556
f 555 72 556
f 556 72 74
f 556 74 75
f 613 829 830
f 613 830 617
f 617 830 831
f 617 831 616
f 616 831 832
f 616 832 615
f 615 832 125
f 615 125 614
f 613 612 829
f 829 612 611
f 829 611 833
f 833 611 619
f 833 619 834
f 618 835 619
f 619 835 836
f 619 836 834
f 618 627 835
f 835 627 628
f 835 628 837
f 837 628 629
f 837 629 838
f 629 626 838
f 838 626 625
f 838 625 839
f 839 625 624
f 839 624 840
f 624 623 840
f 840 623 622
f 840 622 841
f 841 622 621
f 841 621 842
f 842 621 843
f 621 620 843
f 843 620 630
f 843 630 844
f 633 770 632
f 632 770 844
f 632 844 631
f 631 844 630
f 676 845 846
f 676 846 677
f 677 846 847
f 677 847 658
f 658 847 848
f 658 848 659
f 659 848 765
f 659 765 660
f 672 849 850
f 850 851 672
f 672 851 852
f 672 852 673
f 673 852 845
f 673 845 675
f 675 845 676
f 672 674 849
f 849 674 671
f 849 671 853
f 853 671 670
f 853 670 854
f 670 669 854
f 854 669 668
f 854 668 855
f 855 668 667
f 855 667 856
f 667 666 856
f 856 666 662
f 856 662 857
f 857 662 663
f 664 858 663
f 663 858 859
f 663 859 857
f 664 665 858
f 858 665 684
f 858 684 860
f 681 754 682
f 682 754 860
f 682 860 683
f 683 860 684
f 861 152 163
f 861 163 862
f 862 163 162
f 862 162 863
f 863 162 161
f 863 161 864
f 864 161 160
f 864 160 657
f 861 865 152
f 152 865 866
f 152 866 153
f 153 866 867
f 153 867 156
f 868 869 867
f 867 869 158
f 867 158 156
f 868 870 869
f 869 870 871
f 869 871 872
f 872 871 873
f 872 873 874
f 873 875 874
f 874 875 876
f 874 876 877
f 877 876 878
f 877 878 879
f 878 880 879
f 879 880 881
f 879 881 882
f 882 881 883
f 882 883 884
f 884 883 885
f 883 886 885
f 885 886 887
f 885 887 888
f 634 739 889
f 889 739 888
f 889 888 890
f 890 888 887
f 891 135 151
f 891 151 892
f 892 151 150
f 892 150 732
f 139 138 893
f 893 138 136
f 893 136 894
f 894 136 135
f 894 135 895
f 895 135 891
f 896 897 123
f 123 122 896
f 896 122 140
f 896 140 898
f 898 140 139
f 898 139 899
f 899 139 893
f 896 900 897
f 897 900 901
f 897 901 902
f 902 901 903
f 902 903 904
f 903 905 904
f 904 905 906
f 904 906 907
f 907 906 908
f 907 908 909
f 908 910 909
f 909 910 911
f 909 911 912
f 912 911 913
f 914 915 913
f 913 915 916
f 913 916 912
f 914 917 915
f 915 917 918
f 915 918 919
f 706 705 920
f 920 705 919
f 920 919 921
f 921 919 918
f 657 606 922
f 891 892 923
f 923 892 732
f 923 732 924
f 924 732 733
f 911 925 913
f 913 925 926
f 913 926 914
f 914 926 927
f 914 927 917
f 917 927 928
f 911 910 925
f 925 910 908
f 925 908 906
f 906 905 925
f 925 905 903
f 925 903 901
f 900 896 929
f 929 896 898
f 929 898 899
f 899 893 929
f 929 893 894
f 929 894 895
f 891 923 895
f 895 923 930
f 895 930 929
f 931 932 710
f 710 708 931
f 931 708 707
f 931 707 933
f 933 707 706
f 933 706 934
f 706 920 934
f 934 920 921
f 934 921 928
f 928 921 918
f 928 918 917
f 729 728 935
f 733 734 924
f 924 734 735
f 924 735 935
f 935 735 731
f 935 731 729
f 728 730 935
f 935 730 703
f 935 703 727
f 936 726 724
f 724 723 936
f 936 723 721
f 936 721 719
f 719 718 936
f 936 718 716
f 936 716 937
f 937 716 713
f 937 713 938
f 938 713 712
f 938 712 932
f 932 712 711
f 932 711 710
f 866 865 939
f 939 865 861
f 861 862 939
f 939 862 863
f 939 863 922
f 922 863 864
f 922 864 657
f 940 868 939
f 939 868 867
f 939 867 866
f 886 883 941
f 941 883 881
f 941 881 880
f 880 878 941
f 941 878 876
f 941 876 875
f 942 943 870
f 870 943 944
f 870 944 871
f 871 944 941
f 871 941 873
f 873 941 875
f 886 941 887
f 887 941 945
f 887 945 890
f 890 945 946
f 890 946 889
f 889 946 358
f 889 358 634
f 633 509 771
f 771 509 947
f 771 947 772
f 787 786 948
f 786 784 948
f 948 784 782
f 948 782 781
f 781 779 948
f 948 779 776
f 948 776 949
f 949 776 775
f 949 775 947
f 947 775 774
f 947 774 772
f 787 948 789
f 789 948 950
f 789 950 790
f 795 796 951
f 951 796 797
f 951 797 794
f 794 792 951
f 951 792 791
f 951 791 793
f 793 767 951
f 951 767 768
f 951 768 952
f 952 768 790
f 952 790 953
f 951 954 795
f 795 954 553
f 795 553 614
f 950 955 790
f 790 955 956
f 790 956 953
f 953 956 957
f 953 957 958
f 958 957 959
f 958 959 960
f 960 961 958
f 958 961 962
f 958 962 963
f 964 965 966
f 966 965 967
f 966 967 968
f 968 967 963
f 968 963 969
f 969 963 962
f 901 900 925
f 925 900 929
f 925 929 970
f 970 929 971
f 964 972 965
f 965 972 973
f 965 973 974
f 974 973 975
f 974 975 971
f 971 975 976
f 971 976 970
f 977 978 979
f 979 978 980
f 980 978 935
f 980 935 936
f 936 935 727
f 936 727 726
f 979 981 977
f 977 981 982
f 977 982 983
f 984 985 986
f 982 987 983
f 983 987 988
f 983 988 986
f 986 988 989
f 986 989 984
f 984 990 985
f 985 990 991
f 985 991 992
f 992 991 993
f 992 993 994
f 994 995 992
f 992 995 996
f 992 996 997
f 997 996 942
f 997 942 940
f 940 942 870
f 940 870 868
f 320 860 195
f 195 860 754
f 195 754 998
f 999 844 1000
f 1000 844 770
f 1000 770 1001
f 1002 919 345
f 345 919 705
f 345 705 344
f 333 888 332
f 332 888 739
f 332 739 331
f 322 323 855
f 1003 1004 839
f 1005 1006 907
f 335 336 877
f 855 323 854
f 854 323 324
f 854 324 325
f 855 856 322
f 322 856 857
f 322 857 321
f 321 857 859
f 321 859 320
f 320 859 858
f 320 858 860
f 839 1004 838
f 838 1004 1007
f 838 1007 1008
f 839 840 1003
f 1003 840 841
f 1003 841 1009
f 1009 841 842
f 1009 842 999
f 999 842 843
f 999 843 844
f 739 738 331
f 331 738 740
f 331 740 330
f 330 740 741
f 330 741 329
f 325 1010 1011
f 754 753 998
f 998 753 755
f 998 755 1012
f 1012 755 756
f 1012 756 1013
f 760 761 1014
f 907 1006 904
f 904 1006 1015
f 904 1015 1016
f 907 909 1005
f 1005 909 912
f 1005 912 1017
f 1017 912 916
f 1017 916 1002
f 1002 916 915
f 1002 915 919
f 877 336 874
f 874 336 337
f 874 337 338
f 877 879 335
f 335 879 882
f 335 882 334
f 334 882 884
f 334 884 333
f 333 884 885
f 333 885 888
f 745 746 1018
f 756 757 1013
f 1013 757 758
f 1013 758 1019
f 1019 758 759
f 1019 759 1020
f 1020 759 760
f 1020 760 1021
f 1021 760 1014
f 1021 1014 1022
f 770 769 1001
f 1001 769 773
f 1001 773 1023
f 1023 773 777
f 1023 777 1024
f 1025 1026 1016
f 705 704 344
f 344 704 709
f 344 709 343
f 343 709 714
f 343 714 342
f 1027 1028 338
f 741 742 329
f 329 742 743
f 329 743 328
f 328 743 744
f 328 744 327
f 327 744 745
f 327 745 326
f 326 745 1018
f 326 1018 1029
f 325 1011 854
f 854 1011 1030
f 854 1030 853
f 785 788 1031
f 722 725 1032
f 1033 1008 1034
f 1034 1008 1021
f 1034 1021 1035
f 1035 1021 1022
f 777 778 1024
f 1024 778 780
f 1024 780 1036
f 1036 780 783
f 1036 783 1037
f 1037 783 785
f 1037 785 1038
f 1038 785 1031
f 1038 1031 1039
f 1016 1026 904
f 904 1026 1040
f 904 1040 902
f 714 715 342
f 342 715 717
f 342 717 341
f 341 717 720
f 341 720 340
f 340 720 722
f 340 722 339
f 339 722 1032
f 339 1032 1041
f 338 1028 874
f 874 1028 1042
f 874 1042 872
f 1029 1043 326
f 326 1043 1044
f 326 1044 325
f 325 1044 1045
f 325 1045 1010
f 1033 1046 1008
f 1008 1046 1047
f 1008 1047 838
f 838 1047 1048
f 838 1048 837
f 1039 1049 1038
f 1038 1049 1050
f 1038 1050 1016
f 1016 1050 1051
f 1016 1051 1025
f 1041 1052 339
f 339 1052 1053
f 339 1053 338
f 338 1053 1054
f 338 1054 1027
f 951 952 1055
f 953 958 1056
f 963 967 1057
f 923 924 1058
f 983 986 1059
f 985 992 1060
f 997 940 1061
f 922 606 605
f 825 827 1062
f 816 819 1063
f 810 812 1064
f 799 801 1065
f 810 1064 807
f 814 816 1066
f 1066 816 1063
f 1066 1063 1067
f 1067 1063 1068
f 1067 1068 1069
f 1069 1068 1070
f 922 605 939
f 940 939 1061
f 1061 939 605
f 1061 605 1071
f 1071 605 608
f 1071 608 1072
f 1072 608 609
f 992 997 1060
f 1060 997 1061
f 1060 1061 1073
f 1073 1061 1071
f 1073 1071 1065
f 1065 1071 1072
f 1065 1072 799
f 799 1072 609
f 799 609 610
f 986 985 1059
f 1059 985 1060
f 1059 1060 1074
f 1074 1060 1073
f 1074 1073 1075
f 1075 1073 1065
f 935 978 1076
f 1076 978 977
f 977 983 1076
f 1076 983 1059
f 1076 1059 1077
f 1077 1059 1074
f 1077 1074 1078
f 1078 1074 1075
f 924 935 1058
f 1058 935 1076
f 1058 1076 1079
f 1079 1076 1077
f 1079 1077 1064
f 1064 1077 1078
f 1064 1078 807
f 807 1078 1075
f 807 1075 805
f 805 1075 1065
f 805 1065 803
f 803 1065 801
f 930 923 1069
f 1069 923 1058
f 1069 1058 1067
f 1067 1058 1079
f 1067 1079 1066
f 1066 1079 1064
f 1066 1064 814
f 814 1064 812
f 965 974 1070
f 1070 974 971
f 1070 971 1069
f 1069 971 929
f 1069 929 930
f 967 965 1057
f 1057 965 1070
f 1057 1070 1080
f 1080 1070 1068
f 1080 1068 1081
f 1081 1068 1063
f 1081 1063 818
f 818 1063 819
f 958 963 1056
f 1056 963 1057
f 1056 1057 1082
f 1082 1057 1080
f 1082 1080 1083
f 1083 1080 1081
f 1083 1081 823
f 823 1081 818
f 952 953 1055
f 1055 953 1056
f 1055 1056 1084
f 1084 1056 1082
f 1084 1082 1062
f 1062 1082 1083
f 1062 1083 825
f 825 1083 823
f 554 553 954
f 954 951 554
f 554 951 1055
f 554 1055 576
f 576 1055 1084
f 576 1084 578
f 578 1084 1062
f 578 1062 580
f 580 1062 827
f 501 530 1085
f 1085 530 1086
f 1085 1086 1087
f 1087 1086 1088
f 1087 1088 1089
f 1089 1088 1090
f 1089 1090 1091
f 1090 1092 1091
f 1091 1092 1093
f 1091 1093 1094
f 1094 1093 1095
f 1094 1095 1096
f 1096 1095 1097
f 1096 1097 1098
f 1098 1097 1099
f 1098 1099 1100
f 1099 1101 1100
f 1100 1101 1102
f 1100 1102 1103
f 1103 1102 1104
f 1103 1104 1105
f 1105 1104 1106
f 1105 1106 1107
f 1107 1106 1108
f 1107 1108 1109
f 1109 1108 1110
f 1109 1110 1111
f 1110 1112 1111
f 1111 1112 1113
f 1111 1113 1114
f 1114 1113 1115
f 1114 1115 1116
f 1116 1115 1117
f 1116 1117 1118
f 1118 1117 1119
f 1118 1119 1120
f 1120 1119 1121
f 1120 1121 1122
f 1122 1121 268
f 1122 268 1123
f 1123 268 267
f 1123 267 1124
f 1124 267 266
f 1124 266 1125
f 1125 266 264
f 1125 264 1126
f 264 262 1126
f 1126 262 260
f 1126 260 1127
f 1127 260 259
f 1127 259 1128
f 1128 259 258
f 1128 258 1129
f 1129 258 256
f 1129 256 1130
f 256 254 1130
f 1130 254 252
f 1130 252 1131
f 1131 252 251
f 1131 251 1132
f 1132 251 250
f 1132 250 1133
f 1133 250 248
f 1133 248 1134
f 1134 248 246
f 1134 246 1135
f 246 244 1135
f 1135 244 243
f 1135 243 1136
f 1136 243 241
f 1136 241 1137
f 1137 241 240
f 1137 240 1138
f 1138 240 238
f 1138 238 1139
f 1139 238 236
f 1139 236 363
f 363 236 234
f 991 1140 1141
f 982 1142 1143
f 938 1144 1145
f 950 1146 1147
f 509 505 1148
f 505 502 1149
f 502 501 1085
f 509 1148 947
f 947 1148 1150
f 947 1150 949
f 1146 950 1150
f 1150 950 948
f 1150 948 949
f 957 956 1147
f 1147 956 955
f 1147 955 950
f 1147 1151 957
f 957 1151 1152
f 957 1152 959
f 959 1152 960
f 960 1152 1153
f 960 1153 961
f 961 1153 1154
f 961 1154 962
f 962 1154 969
f 969 1154 1155
f 969 1155 968
f 968 1155 1156
f 968 1156 966
f 966 1156 964
f 964 1156 1157
f 964 1157 972
f 972 1157 1158
f 972 1158 973
f 973 1158 975
f 975 1158 1159
f 975 1159 976
f 976 1159 1160
f 976 1160 970
f 970 1160 925
f 925 1160 1161
f 925 1161 926
f 926 1161 1162
f 926 1162 927
f 927 1162 928
f 928 1162 1163
f 928 1163 934
f 934 1163 1164
f 934 1164 933
f 933 1164 1165
f 933 1165 931
f 1144 938 1165
f 1165 938 932
f 1165 932 931
f 980 936 1145
f 1145 936 937
f 1145 937 938
f 1145 1166 980
f 980 1166 1167
f 980 1167 979
f 1142 982 1167
f 1167 982 981
f 1167 981 979
f 989 988 1143
f 1143 988 987
f 1143 987 982
f 1143 1168 989
f 989 1168 1169
f 989 1169 984
f 1140 991 1169
f 1169 991 990
f 1169 990 984
f 995 994 1141
f 1141 994 993
f 1141 993 991
f 1141 1170 995
f 995 1170 1171
f 995 1171 996
f 996 1171 942
f 942 1171 1172
f 942 1172 943
f 943 1172 1173
f 943 1173 944
f 502 1085 1149
f 1149 1085 1087
f 1149 1087 1174
f 1174 1087 1089
f 1174 1089 1175
f 1175 1089 1091
f 1175 1091 1176
f 1176 1091 1094
f 1176 1094 1177
f 1177 1094 1096
f 1177 1096 1178
f 1178 1096 1098
f 1178 1098 1179
f 1179 1098 1100
f 1179 1100 1180
f 1180 1100 1103
f 1180 1103 1181
f 1181 1103 1105
f 1181 1105 1182
f 1182 1105 1107
f 1182 1107 1183
f 1183 1107 1109
f 1183 1109 1184
f 1184 1109 1111
f 1184 1111 1185
f 1185 1111 1114
f 1185 1114 1186
f 1186 1114 1116
f 1186 1116 1187
f 1187 1116 1118
f 1187 1118 1188
f 1188 1118 1120
f 1188 1120 1189
f 1189 1120 1122
f 1189 1122 1190
f 1190 1122 1123
f 1190 1123 1191
f 1191 1123 1124
f 1191 1124 1192
f 1192 1124 1125
f 1192 1125 1193
f 1193 1125 1126
f 1193 1126 1194
f 1194 1126 1127
f 1194 1127 1195
f 1195 1127 1128
f 1195 1128 1196
f 1196 1128 1129
f 1196 1129 1197
f 1197 1129 1130
f 1197 1130 1198
f 1198 1130 1131
f 1198 1131 1199
f 1199 1131 1132
f 1199 1132 1200
f 1200 1132 1133
f 1200 1133 1201
f 1201 1133 1134
f 1201 1134 1202
f 1202 1134 1135
f 1202 1135 1203
f 1203 1135 1136
f 1203 1136 1204
f 1204 1136 1137
f 1204 1137 1205
f 1205 1137 1138
f 1205 1138 1206
f 1206 1138 1139
f 1206 1139 1207
f 1207 1139 363
f 1207 363 361
f 505 1149 1148
f 1148 1149 1174
f 1148 1174 1150
f 1150 1174 1175
f 1150 1175 1146
f 1146 1175 1176
f 1146 1176 1147
f 1147 1176 1177
f 1147 1177 1151
f 1151 1177 1178
f 1151 1178 1152
f 1152 1178 1179
f 1152 1179 1153
f 1153 1179 1180
f 1153 1180 1154
f 1154 1180 1181
f 1154 1181 1155
f 1155 1181 1182
f 1155 1182 1156
f 1156 1182 1183
f 1156 1183 1157
f 1157 1183 1184
f 1157 1184 1158
f 1158 1184 1185
f 1158 1185 1159
f 1159 1185 1186
f 1159 1186 1160
f 1160 1186 1187
f 1160 1187 1161
f 1161 1187 1188
f 1161 1188 1162
f 1162 1188 1189
f 1162 1189 1163
f 1163 1189 1190
f 1163 1190 1164
f 1164 1190 1191
f 1164 1191 1165
f 1165 1191 1192
f 1165 1192 1144
f 1144 1192 1193
f 1144 1193 1145
f 1145 1193 1194
f 1145 1194 1166
f 1166 1194 1195
f 1166 1195 1167
f 1167 1195 1196
f 1167 1196 1142
f 1142 1196 1197
f 1142 1197 1143
f 1143 1197 1198
f 1143 1198 1168
f 1168 1198 1199
f 1168 1199 1169
f 1169 1199 1200
f 1169 1200 1140
f 1140 1200 1201
f 1140 1201 1141
f 1141 1201 1202
f 1141 1202 1170
f 1170 1202 1203
f 1170 1203 1171
f 1171 1203 1204
f 1171 1204 1172
f 1172 1204 1205
f 1172 1205 1173
f 1173 1205 1206
f 1173 1206 1208
f 1208 1206 1207
f 1208 1207 1209
f 1209 1207 361
f 1209 361 359
f 944 1173 941
f 941 1173 1208
f 941 1208 945
f 945 1208 1209
f 945 1209 946
f 946 1209 359
f 946 359 358
f 345 319 1210
f 319 294 1211
f 294 269 1212
f 269 268 1121
f 269 1121 1212
f 1212 1121 1119
f 1212 1119 1213
f 1119 1117 1213
f 1213 1117 1115
f 1213 1115 1214
f 1115 1113 1214
f 1214 1113 1112
f 1214 1112 1215
f 1215 1112 1110
f 1215 1110 1216
f 1216 1110 1108
f 1216 1108 1217
f 1217 1108 1106
f 1106 1104 1217
f 1217 1104 1102
f 1217 1102 1218
f 1218 1102 1101
f 1218 1101 1219
f 1219 1101 1099
f 1219 1099 1220
f 1220 1099 1097
f 1097 1095 1220
f 1220 1095 1093
f 1220 1093 1221
f 1221 1093 1092
f 1221 1092 1222
f 1222 1092 1090
f 1222 1090 1223
f 1223 1090 1088
f 1088 1086 1223
f 1223 1086 530
f 1223 530 1224
f 1224 530 529
f 1224 529 1225
f 1225 529 528
f 1225 528 1226
f 528 527 1226
f 1226 527 526
f 1226 526 1227
f 526 525 1227
f 1227 525 524
f 1227 524 1228
f 1228 524 523
f 1228 523 1229
f 1229 523 522
f 1229 522 1230
f 1230 522 521
f 521 520 1230
f 1230 520 519
f 1230 519 1231
f 1231 519 518
f 1231 518 1232
f 1232 518 517
f 1232 517 1233
f 1233 517 516
f 516 515 1233
f 1233 515 514
f 1233 514 1234
f 1234 514 513
f 1234 513 1235
f 1235 513 512
f 1235 512 1236
f 1236 512 511
f 511 510 1236
f 1236 510 202
f 1236 202 200
f 294 1212 1211
f 1211 1212 1213
f 1211 1213 1237
f 1237 1213 1214
f 1237 1214 1238
f 1238 1214 1215
f 1238 1215 1239
f 1239 1215 1216
f 1239 1216 1240
f 1240 1216 1217
f 1240 1217 1241
f 1241 1217 1218
f 1241 1218 1242
f 1242 1218 1219
f 1242 1219 1243
f 1243 1219 1220
f 1243 1220 1244
f 1244 1220 1221
f 1244 1221 1245
f 1245 1221 1222
f 1245 1222 1246
f 1246 1222 1223
f 1246 1223 1247
f 1247 1223 1224
f 1247 1224 1248
f 1248 1224 1225
f 1248 1225 1249
f 1249 1225 1226
f 1249 1226 1250
f 1250 1226 1227
f 1250 1227 1251
f 1251 1227 1228
f 1251 1228 1252
f 1252 1228 1229
f 1252 1229 1253
f 1253 1229 1230
f 1253 1230 1254
f 1254 1230 1231
f 1254 1231 1255
f 1255 1231 1232
f 1255 1232 1256
f 1256 1232 1233
f 1256 1233 1257
f 1257 1233 1234
f 1257 1234 1258
f 1258 1234 1235
f 1258 1235 1259
f 1259 1235 1236
f 1259 1236 1260
f 1260 1236 200
f 1260 200 198
f 319 1211 1210
f 1210 1211 1237
f 1210 1237 1261
f 1261 1237 1238
f 1261 1238 1262
f 1262 1238 1239
f 1262 1239 1263
f 1263 1239 1240
f 1263 1240 1264
f 1264 1240 1241
f 1264 1241 1265
f 1265 1241 1242
f 1265 1242 1266
f 1266 1242 1243
f 1266 1243 1267
f 1267 1243 1244
f 1267 1244 1268
f 1268 1244 1245
f 1268 1245 1269
f 1269 1245 1246
f 1269 1246 1270
f 1270 1246 1247
f 1270 1247 1271
f 1271 1247 1248
f 1271 1248 1272
f 1272 1248 1249
f 1272 1249 1273
f 1273 1249 1250
f 1273 1250 1274
f 1274 1250 1251
f 1274 1251 1275
f 1275 1251 1252
f 1275 1252 1276
f 1276 1252 1253
f 1276 1253 1277
f 1277 1253 1254
f 1277 1254 1278
f 1278 1254 1255
f 1278 1255 1279
f 1279 1255 1256
f 1279 1256 1280
f 1280 1256 1257
f 1280 1257 1281
f 1281 1257 1258
f 1281 1258 1282
f 1282 1258 1259
f 1282 1259 1283
f 1283 1259 1260
f 1283 1260 1284
f 1284 1260 198
f 1284 198 196
f 345 1210 1002
f 1002 1210 1261
f 1002 1261 1017
f 1017 1261 1262
f 1017 1262 1005
f 1005 1262 1263
f 1005 1263 1006
f 1006 1263 1264
f 1006 1264 1015
f 1015 1264 1265
f 1015 1265 1016
f 1016 1265 1266
f 1016 1266 1038
f 1038 1266 1267
f 1038 1267 1037
f 1037 1267 1268
f 1037 1268 1036
f 1036 1268 1269
f 1036 1269 1024
f 1024 1269 1270
f 1024 1270 1023
f 1023 1270 1271
f 1023 1271 1001
f 1001 1271 1272
f 1001 1272 1000
f 1000 1272 1273
f 1000 1273 999
f 999 1273 1274
f 999 1274 1009
f 1009 1274 1275
f 1009 1275 1003
f 1003 1275 1276
f 1003 1276 1004
f 1004 1276 1277
f 1004 1277 1007
f 1007 1277 1278
f 1007 1278 1008
f 1008 1278 1279
f 1008 1279 1021
f 1021 1279 1280
f 1021 1280 1020
f 1020 1280 1281
f 1020 1281 1019
f 1019 1281 1282
f 1019 1282 1013
f 1013 1282 1283
f 1013 1283 1012
f 1012 1283 1284
f 1012 1284 998
f 998 1284 196
f 998 196 195
f 851 850 1285
f 160 10 750
f 750 10 12
f 1286 737 736
f 736 747 14
f 14 747 749
f 14 749 12
f 12 749 748
f 12 748 750
f 847 846 24
f 24 846 845
f 24 845 852
f 28 1287 752
f 752 751 28
f 28 751 762
f 28 762 764
f 764 763 28
f 28 763 766
f 28 766 26
f 26 766 765
f 26 765 24
f 24 765 848
f 24 848 847
f 829 833 38
f 1288 834 1289
f 1289 834 836
f 40 42 125
f 125 832 40
f 40 832 831
f 40 831 38
f 38 831 830
f 38 830 829
f 1286 736 1290
f 1290 736 14
f 1290 14 1291
f 1291 14 16
f 1291 16 1292
f 1292 16 1293
f 1293 16 18
f 1293 18 1294
f 20 1295 18
f 18 1295 1296
f 18 1296 1294
f 1297 1298 22
f 22 1298 1299
f 22 1299 20
f 20 1299 1300
f 20 1300 1295
f 1297 22 1301
f 1301 22 24
f 1301 24 1285
f 1285 24 852
f 1285 852 851
f 1287 28 1302
f 1302 28 30
f 1302 30 1303
f 32 1304 30
f 30 1304 1305
f 30 1305 1303
f 1306 1307 34
f 34 1307 1308
f 34 1308 32
f 32 1308 1309
f 32 1309 1304
f 1306 34 1310
f 1310 34 36
f 1310 36 1311
f 1311 36 1312
f 1312 36 38
f 1312 38 1288
f 1288 38 833
f 1288 833 834
f 124 123 897
f 897 902 124
f 124 902 1040
f 124 1040 179
f 179 1040 1026
f 179 1026 174
f 170 173 1050
f 1050 173 172
f 1050 172 1051
f 1051 172 178
f 1051 178 1025
f 1025 178 177
f 1025 177 1026
f 1026 177 175
f 1026 175 174
f 170 1050 168
f 168 1050 1049
f 168 1049 167
f 167 1049 1039
f 167 1039 165
f 165 1039 164
f 164 1039 1031
f 164 1031 128
f 128 1031 788
f 128 788 129
f 869 872 1042
f 1042 1028 194
f 158 869 157
f 157 869 1042
f 157 1042 155
f 155 1042 194
f 190 189 1053
f 1053 189 187
f 1053 187 1054
f 1054 187 186
f 1054 186 1027
f 1027 186 191
f 1027 191 1028
f 1028 191 193
f 1028 193 194
f 190 1053 184
f 184 1053 1052
f 184 1052 185
f 185 1052 1041
f 185 1041 182
f 182 1041 1032
f 182 1032 180
f 180 1032 142
f 142 1032 725
f 142 725 143
f 1285 850 849
f 849 853 1285
f 1285 853 1030
f 1285 1030 1301
f 1301 1030 1011
f 1301 1011 1297
f 1294 1296 1044
f 1044 1296 1295
f 1044 1295 1045
f 1045 1295 1300
f 1045 1300 1010
f 1010 1300 1299
f 1010 1299 1011
f 1011 1299 1298
f 1011 1298 1297
f 1294 1044 1293
f 1293 1044 1043
f 1293 1043 1292
f 1292 1043 1029
f 1292 1029 1291
f 1291 1029 1290
f 1290 1029 1018
f 1290 1018 1286
f 1286 1018 746
f 1286 746 737
f 835 837 1048
f 1048 1047 1312
f 836 835 1289
f 1289 835 1048
f 1289 1048 1288
f 1288 1048 1312
f 1309 1308 1034
f 1034 1308 1307
f 1034 1307 1033
f 1033 1307 1306
f 1033 1306 1046
f 1046 1306 1310
f 1046 1310 1047
f 1047 1310 1311
f 1047 1311 1312
f 1309 1034 1304
f 1304 1034 1035
f 1304 1035 1305
f 1305 1035 1022
f 1305 1022 1303
f 1303 1022 1014
f 1303 1014 1302
f 1302 1014 1287
f 1287 1014 761
f 1287 761 752
f 42 41 1313
f 42 1313 127
f 127 1313 1314
f 127 1314 132
f 132 1314 1315
f 132 1315 166
f 166 1315 1316
f 166 1316 169
f 169 1316 1317
f 169 1317 171
f 171 1317 1318
f 171 1318 176
f 176 1318 1319
f 176 1319 137
f 137 1319 1320
f 137 1320 149
f 149 1320 1321
f 149 1321 141
f 141 1321 1322
f 141 1322 181
f 181 1322 1323
f 181 1323 183
f 183 1323 1324
f 183 1324 188
f 188 1324 1325
f 188 1325 192
f 192 1325 1326
f 192 1326 154
f 154 1326 1327
f 154 1327 159
f 159 1327 8
f 159 8 10
f 1328 802 1329
f 1329 802 800
f 1329 800 1330
f 1330 800 798
f 1330 798 1331
f 1331 798 76
f 1331 76 2
f 1332 820 1333
f 1333 820 815
f 1333 815 1334
f 1334 815 813
f 1334 813 1335
f 1335 813 811
f 1335 811 1336
f 1336 811 809
f 1336 809 1337
f 1337 809 808
f 1337 808 1338
f 1338 808 806
f 1338 806 1328
f 1328 806 804
f 1328 804 802
f 822 821 1332
f 1332 821 817
f 1332 817 820
f 1332 1339 822
f 822 1339 1340
f 822 1340 824
f 824 1340 1341
f 824 1341 828
f 828 1341 1342
f 828 1342 826
f 50 826 51
f 51 826 1342
f 51 1342 121
f 106 121 1343
f 91 106 1344
f 41 91 1345
f 41 1345 1313
f 1313 1345 1346
f 1313 1346 1314
f 1314 1346 1347
f 1314 1347 1315
f 1315 1347 1348
f 1315 1348 1316
f 1316 1348 1349
f 1316 1349 1317
f 1317 1349 1350
f 1317 1350 1318
f 1318 1350 1351
f 1318 1351 1319
f 1319 1351 1352
f 1319 1352 1320
f 1320 1352 1353
f 1320 1353 1321
f 1321 1353 1354
f 1321 1354 1322
f 1322 1354 1355
f 1322 1355 1323
f 1323 1355 1356
f 1323 1356 1324
f 1324 1356 1357
f 1324 1357 1325
f 1325 1357 1358
f 1325 1358 1326
f 1326 1358 1359
f 1326 1359 1327
f 1327 1359 6
f 1327 6 8
f 91 1344 1345
f 1345 1344 1360
f 1345 1360 1346
f 1346 1360 1361
f 1346 1361 1347
f 1347 1361 1362
f 1347 1362 1348
f 1348 1362 1363
f 1348 1363 1349
f 1349 1363 1364
f 1349 1364 1350
f 1350 1364 1365
f 1350 1365 1351
f 1351 1365 1366
f 1351 1366 1352
f 1352 1366 1367
f 1352 1367 1353
f 1353 1367 1368
f 1353 1368 1354
f 1354 1368 1369
f 1354 1369 1355
f 1355 1369 1370
f 1355 1370 1356
f 1356 1370 1371
f 1356 1371 1357
f 1357 1371 1372
f 1357 1372 1358
f 1358 1372 1373
f 1358 1373 1359
f 1359 1373 4
f 1359 4 6
f 106 1343 1344
f 1344 1343 1374
f 1344 1374 1360
f 1360 1374 1375
f 1360 1375 1361
f 1361 1375 1376
f 1361 1376 1362
f 1362 1376 1377
f 1362 1377 1363
f 1363 1377 1378
f 1363 1378 1364
f 1364 1378 1379
f 1364 1379 1365
f 1365 1379 1380
f 1365 1380 1366
f 1366 1380 1381
f 1366 1381 1367
f 1367 1381 1382
f 1367 1382 1368
f 1368 1382 1383
f 1368 1383 1369
f 1369 1383 1384
f 1369 1384 1370
f 1370 1384 1385
f 1370 1385 1371
f 1371 1385 1386
f 1371 1386 1372
f 1372 1386 1387
f 1372 1387 1373
f 1373 1387 1
f 1373 1 4
f 121 1342 1343
f 1343 1342 1341
f 1343 1341 1374
f 1374 1341 1340
f 1374 1340 1375
f 1375 1340 1339
f 1375 1339 1376
f 1376 1339 1332
f 1376 1332 1377
f 1377 1332 1333
f 1377 1333 1378
f 1378 1333 1334
f 1378 1334 1379
f 1379 1334 1335
f 1379 1335 1380
f 1380 1335 1336
f 1380 1336 1381
f 1381 1336 1337
f 1381 1337 1382
f 1382 1337 1338
f 1382 1338 1383
f 1383 1338 1328
f 1383 1328 1384
f 1384 1328 1329
f 1384 1329 1385
f 1385 1329 1330
f 1385 1330 1386
f 1386 1330 1331
f 1386 1331 1387
f 1387 1331 2
f 1387 2 1

