# https://github.com/mikedh/trimesh
v -0.00066626 -0.00049395 -0.00136527
v -0.00116262 -0.00043761 -0.00120955
v -0.00116262 -0.00050806 -0.00118169
v -0.00022984 -0.00059216 -0.00163673
v -0.00066626 -0.00057347 -0.00133382
v 0.00011677 -0.00072552 -0.00200534
v -0.00022984 -0.00068749 -0.00159903
v 0.00034984 -0.00088491 -0.00244588
v 0.00011677 -0.00084232 -0.00195915
v 0.00043858 -0.00101099 -0.00279436
v 0.00034984 -0.00102737 -0.00238954
v 0.00034984 -0.00151560 -0.00211385
v 0.00043858 -0.00166962 -0.00245824
v 0.00043858 -0.00117374 -0.00273000
v 0.00034984 -0.00193341 -0.00173993
v 0.00043858 -0.00213152 -0.00207055
v 0.00043858 -0.00173154 -0.00241502
v 0.00034984 -0.00226138 -0.00128515
v 0.00043858 -0.00250565 -0.00159760
v 0.00043858 -0.00220888 -0.00198783
v 0.00034984 -0.00248426 -0.00077065
v 0.00043858 -0.00277659 -0.00105886
v 0.00043858 -0.00258357 -0.00146826
v 0.00034984 -0.00259170 -0.00022035
v 0.00043858 -0.00293319 -0.00047651
v 0.00043858 -0.00283821 -0.00088046
v 0.00034984 -0.00257871 0.00034020
v 0.00043858 -0.00296900 0.00012546
v 0.00043858 -0.00296096 -0.00025174
v 0.00043858 -0.00267738 0.00128934
v 0.00043858 -0.00279438 0.00101102
v 0.00034984 -0.00244590 0.00088494
v 0.00043858 -0.00288254 0.00072227
v 0.00043858 -0.00294612 0.00038867
v 0.00043858 -0.00251279 0.00158639
v 0.00034984 -0.00219942 0.00138856
v 0.00043858 -0.00236196 0.00180331
v 0.00034984 -0.00185075 0.00182766
v 0.00043858 -0.00211443 0.00208805
v 0.00043858 -0.00194928 0.00224302
v 0.00034984 -0.00141607 0.00218183
v 0.00043858 -0.00161782 0.00249268
v 0.00043858 -0.00145632 0.00259036
v 0.00034984 -0.00091558 0.00243461
v 0.00043858 -0.00104603 0.00278149
v 0.00043858 -0.00090339 0.00283103
v 0.00034984 -0.00037256 0.00257427
v 0.00043858 -0.00042564 0.00294104
v 0.00043858 -0.00031326 0.00295512
v 0.00034984 0.00018778 0.00259430
v 0.00043858 0.00021454 0.00296393
v 0.00043858 0.00028977 0.00295752
v 0.00034984 0.00073940 0.00249379
v 0.00043858 0.00084474 0.00284909
v 0.00034984 0.00088493 0.00244593
v 0.00043858 0.00101101 0.00279441
v -0.00116262 -0.00045278 0.00120400
v -0.00154195 -0.00017904 0.00123714
v -0.00116262 -0.00018424 0.00127306
v -0.00154195 0.00009025 0.00124676
v -0.00116262 0.00009287 0.00128297
v -0.00154195 0.00035534 0.00119846
v -0.00116262 0.00036566 0.00123326
v -0.00154195 0.00042528 0.00117546
v -0.00116262 0.00043763 0.00120960
v -0.00116262 -0.00122853 -0.00038110
v -0.00154195 -0.00124550 -0.00010588
v -0.00116262 -0.00128167 -0.00010895
v -0.00154195 -0.00123925 0.00016350
v -0.00116262 -0.00127525 0.00016825
v -0.00154195 -0.00117543 0.00042529
v -0.00116262 -0.00120956 0.00043764
v -0.00154195 -0.00105698 0.00066732
v -0.00116262 -0.00108767 0.00068670
v -0.00154195 -0.00088941 0.00087834
v -0.00116262 -0.00091524 0.00090384
v -0.00154195 -0.00068052 0.00104854
v -0.00116262 -0.00070028 0.00107899
v -0.00154195 -0.00065383 0.00106538
v -0.00154195 -0.00044000 0.00117002
v -0.00154195 -0.00108675 -0.00061759
v -0.00154195 -0.00118413 -0.00040036
v -0.00154195 -0.00119386 -0.00037034
v -0.00116262 -0.00111831 -0.00063553
v -0.00116262 -0.00095612 -0.00086043
v -0.00154195 -0.00092914 -0.00083615
v -0.00116262 -0.00074950 -0.00104535
v -0.00154195 -0.00072835 -0.00101584
v -0.00154195 -0.00049372 -0.00114834
v -0.00154195 -0.00042526 -0.00117541
v 0.00011677 -0.00124262 -0.00173311
v 0.00011677 -0.00158518 -0.00142654
v 0.00011677 -0.00185407 -0.00105367
v 0.00011677 -0.00203681 -0.00063184
v 0.00011677 -0.00212490 -0.00018065
v 0.00011677 -0.00211425 0.00027893
v 0.00011677 -0.00200536 0.00072556
v 0.00011677 -0.00180328 0.00113847
v 0.00011677 -0.00151740 0.00149848
v 0.00011677 -0.00116101 0.00178886
v 0.00011677 -0.00075067 0.00199611
v 0.00011677 -0.00030545 0.00211061
v 0.00011677 0.00015396 0.00212704
v 0.00011677 0.00060622 0.00204463
v 0.00011677 0.00072554 0.00200539
v -0.00022984 -0.00101421 -0.00141454
v -0.00022984 -0.00129380 -0.00116431
v -0.00022984 -0.00151327 -0.00085999
v -0.00022984 -0.00166241 -0.00051570
v -0.00022984 -0.00173431 -0.00014744
v -0.00022984 -0.00172562 0.00022766
v -0.00022984 -0.00163674 0.00059219
v -0.00022984 -0.00147181 0.00092921
v -0.00022984 -0.00123848 0.00122304
v -0.00022984 -0.00094760 0.00146005
v -0.00022984 -0.00061269 0.00162920
v -0.00022984 -0.00024930 0.00172266
v -0.00022984 0.00012566 0.00173606
v -0.00022984 0.00049479 0.00166880
v -0.00022984 0.00059218 0.00163678
v -0.00066626 -0.00084600 -0.00117993
v -0.00066626 -0.00107922 -0.00097121
v -0.00066626 -0.00126229 -0.00071735
v -0.00066626 -0.00138670 -0.00043016
v -0.00066626 -0.00144667 -0.00012299
v -0.00066626 -0.00143942 0.00018991
v -0.00066626 -0.00136528 0.00049398
v -0.00066626 -0.00122770 0.00077510
v -0.00066626 -0.00103307 0.00102020
v -0.00066626 -0.00079044 0.00121790
v -0.00066626 -0.00051107 0.00135900
v -0.00066626 -0.00020796 0.00143696
v -0.00066626 0.00010482 0.00144814
v -0.00066626 0.00041273 0.00139203
v -0.00066626 0.00049397 0.00136532
v 0.00043858 -0.00021452 -0.00296387
v 0.00043858 -0.00028975 -0.00295747
v 0.00100147 -0.00068030 -0.00694360
v 0.00100147 0.00391998 0.00577156
v 0.00100147 0.00371863 0.00590330
v 0.00095808 0.00354919 0.00564517
v 0.00093668 0.00344437 0.00553120
v 0.00091555 0.00332650 0.00542727
v 0.00043858 0.00166964 0.00245829
v 0.00087520 0.00305577 0.00525453
v 0.00085652 0.00290427 0.00518796
v 0.00079325 0.00186956 0.00516746
v 0.00079740 0.00213150 0.00509715
v 0.00043858 0.00117376 0.00273005
v 0.00081298 0.00243845 0.00508092
v 0.00083835 0.00273638 0.00513240
v 0.00085640 0.00584446 -0.00108703
v 0.00043858 0.00296901 -0.00012541
v 0.00084583 0.00575803 -0.00113848
v 0.00043858 0.00294614 -0.00038862
v 0.00081720 0.00550630 -0.00133463
v 0.00043858 0.00288256 -0.00072222
v 0.00079932 0.00530955 -0.00157595
v 0.00088284 0.00605261 -0.00098836
v 0.00092565 0.00637391 -0.00090199
v 0.00100147 0.00697067 -0.00029448
v 0.00093663 0.00645427 -0.00089163
v 0.00097091 0.00670089 -0.00088753
v 0.00100147 0.00696353 -0.00043153
v 0.00100147 0.00691605 -0.00091932
v 0.00079325 0.00516744 -0.00186953
v 0.00043858 0.00279440 -0.00101097
v 0.00079740 0.00509714 -0.00213147
v 0.00043858 0.00267740 -0.00128929
v 0.00081298 0.00508091 -0.00243842
v 0.00093668 0.00553119 -0.00344434
v 0.00100147 0.00554547 -0.00423374
v 0.00095808 0.00564515 -0.00354916
v 0.00100147 0.00562767 -0.00412384
v 0.00100147 0.00590328 -0.00371860
v 0.00091555 0.00542725 -0.00332646
v 0.00087520 0.00525452 -0.00305574
v 0.00043858 0.00236198 -0.00180326
v 0.00085652 0.00518794 -0.00290424
v 0.00083835 0.00513239 -0.00273635
v 0.00043858 0.00251281 -0.00158634
v 0.00079932 -0.00157596 -0.00530952
v 0.00081720 -0.00133464 -0.00550626
v 0.00084583 -0.00113850 -0.00575799
v 0.00085640 -0.00108705 -0.00584443
v 0.00088284 -0.00098837 -0.00605258
v 0.00092565 -0.00090200 -0.00637388
v 0.00093663 -0.00089164 -0.00645424
v 0.00097091 -0.00088754 -0.00670086
v 0.00100147 -0.00091933 -0.00691602
v 0.00043858 -0.00084473 -0.00284904
v 0.00079325 -0.00186954 -0.00516741
v 0.00100147 0.00412388 0.00562768
v 0.00043858 0.00173156 0.00241507
v 0.00100147 0.00488330 0.00498302
v 0.00043858 0.00213154 0.00207060
v 0.00100147 0.00500444 0.00486135
v 0.00043858 0.00220889 0.00198788
v 0.00100147 0.00554317 0.00423679
v 0.00043858 0.00250567 0.00159765
v 0.00043858 0.00296098 0.00025179
v 0.00100147 0.00695401 0.00056457
v 0.00043858 0.00293321 0.00047656
v 0.00100147 0.00688660 0.00111884
v 0.00043858 0.00283823 0.00088051
v 0.00100147 0.00680273 0.00154916
v 0.00043858 0.00277661 0.00105891
v 0.00100147 0.00651277 0.00250217
v 0.00043858 0.00258359 0.00146831
v 0.00100147 0.00609005 0.00340418
v 0.00100147 0.00588281 0.00375095
v 0.00100147 0.00498301 -0.00488327
v 0.00043858 0.00211445 -0.00208800
v 0.00100147 0.00457656 -0.00526609
v 0.00043858 0.00194930 -0.00224297
v 0.00100147 0.00423677 -0.00554314
v 0.00043858 0.00161784 -0.00249263
v 0.00100147 0.00340416 -0.00609001
v 0.00043858 0.00145634 -0.00259031
v 0.00100147 0.00250216 -0.00651274
v 0.00043858 0.00104605 -0.00278143
v 0.00100147 0.00212102 -0.00664664
v 0.00043858 0.00090341 -0.00283098
v 0.00100147 0.00154915 -0.00680269
v 0.00043858 0.00042566 -0.00294099
v 0.00100147 0.00073550 -0.00693798
v 0.00043858 0.00031328 -0.00295507
v 0.00100147 0.00056456 -0.00695397
v 0.00100147 -0.00043154 -0.00696349
v -0.01123671 -0.00641903 0.00663380
v -0.01123671 -0.00657015 0.00648415
v -0.01103424 -0.00687459 0.00654843
v -0.01123670 -0.00459673 -0.00800507
v -0.01123670 -0.00388324 -0.00837446
v -0.01103422 -0.00420128 -0.00851417
v -0.01123670 -0.00129232 -0.00914008
v -0.01123669 -0.00125705 -0.00914500
v -0.01101942 -0.00129474 -0.00941920
v -0.01103422 -0.00196607 -0.00928850
v -0.01071971 -0.00131985 -0.00960187
v -0.01123670 -0.00191155 -0.00903090
v -0.01103422 -0.00310788 -0.00897122
v -0.01123670 -0.00302169 -0.00872242
v -0.01123669 -0.00314050 -0.00868034
v -0.01123670 -0.00485501 -0.00785111
v -0.01103422 -0.00522921 -0.00792446
v -0.01123670 -0.00527539 -0.00757504
v -0.01103422 -0.00617568 -0.00721130
v -0.01123670 -0.00591409 -0.00708763
v -0.01103422 -0.00702593 -0.00638578
v -0.01123670 -0.00650799 -0.00654653
v -0.01123670 -0.00619504 -0.00684343
v -0.01103422 -0.00776672 -0.00546077
v -0.01123670 -0.00733070 -0.00560998
v -0.01123670 -0.00705259 -0.00595583
v -0.01123670 -0.00835138 -0.00393261
v -0.01123670 -0.00822452 -0.00419146
v -0.01103423 -0.00838650 -0.00445069
v -0.01123670 -0.00797779 -0.00464390
v -0.01123670 -0.00754377 -0.00532002
v -0.01123671 -0.00866171 -0.00319152
v -0.01103423 -0.00887562 -0.00337126
v -0.01123671 -0.00884701 -0.00263466
v -0.01103423 -0.00922646 -0.00223931
v -0.01123671 -0.00890642 -0.00242626
v -0.01103423 -0.00943355 -0.00107247
v -0.01103423 -0.00949367 0.00011108
v -0.01123671 -0.00923088 -0.00004403
v -0.01123671 -0.00919208 -0.00084652
v -0.01123671 -0.00917764 -0.00099095
v -0.01123671 -0.00908366 -0.00164261
v -0.01103424 -0.00879431 0.00357801
v -0.01123671 -0.00892916 0.00234119
v -0.01103424 -0.00917154 0.00245458
v -0.01123671 -0.00909891 0.00155589
v -0.01103424 -0.00940587 0.00129290
v -0.01123671 -0.00919974 0.00075881
v -0.01123671 -0.00920550 0.00068545
v -0.01123671 -0.00835925 0.00391586
v -0.01123671 -0.00838852 0.00385277
v -0.01123671 -0.00869176 0.00310875
v -0.01123671 -0.00802173 0.00456759
v -0.01103424 -0.00828006 0.00464570
v -0.01123671 -0.00759418 0.00524782
v -0.01103424 -0.00763682 0.00564101
v -0.01123671 -0.00751307 0.00536329
v -0.01123671 -0.00710909 0.00588829
v -0.01123671 -0.00598144 0.00703090
v -0.01103424 -0.00600526 0.00735382
v -0.01123671 -0.00534742 0.00752438
v -0.01103424 -0.00504236 0.00804465
v -0.01123671 -0.00511322 0.00768545
v -0.01103425 -0.00289712 0.00904148
v -0.01123672 -0.00245864 0.00889754
v -0.01123672 -0.00322301 0.00865005
v -0.01103425 -0.00400091 0.00861014
v -0.01123672 -0.00363874 0.00848356
v -0.01123672 -0.00396296 0.00833703
v -0.01123671 -0.00467289 0.00796086
v -0.01123672 -0.00204421 0.00900180
v -0.01103425 -0.00174820 0.00933196
v -0.01123672 -0.00167565 0.00907763
v -0.01123672 -0.00087996 0.00918895
v -0.01103425 -0.00057204 0.00947704
v -0.01123672 -0.00038224 0.00922307
v -0.01103425 0.00061303 0.00947448
v -0.01123672 0.00072533 0.00920245
v -0.01123672 -0.00007761 0.00923066
v -0.01070103 0.00062627 0.00967905
v -0.01071974 0.00131984 0.00960186
v -0.01101944 0.00129474 0.00941920
v -0.01037471 -0.00343605 0.00913656
v -0.01037472 -0.00297860 0.00929576
v -0.01070103 -0.00295968 0.00923670
v -0.01037472 -0.00179736 0.00959440
v -0.01070103 -0.00178595 0.00953345
v -0.01037472 -0.00058812 0.00974357
v -0.01070103 -0.00058439 0.00968167
v -0.01037472 -0.00013801 0.00976033
v -0.01037472 0.00063028 0.00974093
v -0.01037472 0.00132926 0.00967036
v -0.01037472 -0.00411343 0.00885228
v -0.01070103 -0.00408730 0.00879605
v -0.01037471 -0.00495573 0.00840976
v -0.01070103 -0.00515124 0.00821835
v -0.01037472 -0.00518417 0.00827089
v -0.01070102 -0.00613492 0.00751261
v -0.01037471 -0.00617414 0.00756064
v -0.01070102 -0.00780171 0.00576281
v -0.01037471 -0.00751146 0.00623389
v -0.01070102 -0.00702303 0.00668982
v -0.01037471 -0.00706793 0.00673259
v -0.01037471 -0.00632782 0.00743250
v -0.01037470 -0.00917904 0.00332093
v -0.01037470 -0.00904163 0.00367864
v -0.01070102 -0.00898419 0.00365527
v -0.01037471 -0.00851292 0.00477635
v -0.01070102 -0.00845884 0.00474601
v -0.01037470 -0.00847140 0.00484963
v -0.01037471 -0.00785159 0.00579965
v -0.01037470 -0.00942947 0.00252361
v -0.01070102 -0.00936957 0.00250758
v -0.01037470 -0.00961333 0.00169334
v -0.01070102 -0.00960896 0.00132082
v -0.01037470 -0.00967039 0.00132926
v -0.01070102 -0.00969865 0.00011348
v -0.01037470 -0.00976066 0.00011421
v -0.01037470 -0.00976131 0.00001531
v -0.01070101 -0.00963723 -0.00109562
v -0.01037470 -0.00969885 -0.00110263
v -0.01037469 -0.00848657 -0.00482303
v -0.01037470 -0.00862235 -0.00457585
v -0.01070101 -0.00856758 -0.00454679
v -0.01037470 -0.00912523 -0.00346607
v -0.01070101 -0.00906726 -0.00344405
v -0.01037470 -0.00918942 -0.00329212
v -0.01070101 -0.00942567 -0.00228766
v -0.01037470 -0.00948593 -0.00230228
v -0.01037470 -0.00961859 -0.00166317
v -0.01037469 -0.00798514 -0.00561435
v -0.01070101 -0.00793441 -0.00557868
v -0.01037469 -0.00753098 -0.00621029
v -0.01070100 -0.00717763 -0.00652366
v -0.01037469 -0.00722352 -0.00656537
v -0.01070100 -0.00630902 -0.00736700
v -0.01037469 -0.00634936 -0.00741410
v -0.01070100 -0.00534212 -0.00809557
v -0.01037469 -0.00537628 -0.00814733
v -0.01037469 -0.00154212 -0.00963872
v -0.01037469 -0.00202136 -0.00954972
v -0.01070100 -0.00200852 -0.00948905
v -0.01037469 -0.00319529 -0.00922352
v -0.01070100 -0.00317499 -0.00916492
v -0.01037469 -0.00332092 -0.00917902
v -0.01070100 -0.00429199 -0.00869800
v -0.01037469 -0.00431943 -0.00875361
v -0.01037469 -0.00498208 -0.00839417
v -0.01037469 -0.00132926 -0.00967036
v -0.01123672 0.00125704 0.00914500
v 0.00102094 -0.00844323 0.00305472
v 0.00097070 -0.00873756 0.00316120
v 0.00097070 -0.00905489 0.00208496
v 0.00082501 -0.00900231 0.00325699
v 0.00082501 -0.00932926 0.00214813
v 0.00059852 -0.00921087 0.00333245
v 0.00059852 -0.00954540 0.00219790
v 0.00031398 -0.00934230 0.00338000
v 0.00031398 -0.00968160 0.00222926
v -0.00000000 -0.00938337 0.00339486
v -0.00000000 -0.00972416 0.00223906
v -0.00000000 -0.00982732 0.00173103
v 0.00031398 -0.00987971 0.00104602
v -0.00000000 -0.00992315 0.00105062
v -0.00000000 -0.00997860 0.00001565
v 0.00031398 -0.00993376 -0.00015247
v -0.00000000 -0.00997744 -0.00015314
v -0.00000000 -0.00988623 -0.00135467
v 0.00031398 -0.00984296 -0.00134874
v -0.00000000 -0.00983271 -0.00170019
v 0.00031398 -0.00960862 -0.00252535
v -0.00000000 -0.00965086 -0.00253645
v 0.00031398 -0.00923416 -0.00366513
v -0.00000000 -0.00939398 -0.00336540
v -0.00000000 -0.00927476 -0.00368124
v -0.00000000 -0.00876341 -0.00477235
v 0.00031398 -0.00872505 -0.00475146
v -0.00000000 -0.00867548 -0.00493039
v 0.00031398 -0.00808871 -0.00576850
v -0.00000000 -0.00812428 -0.00579387
v 0.00031398 -0.00733442 -0.00670143
v -0.00000000 -0.00769862 -0.00634854
v -0.00000000 -0.00223906 -0.00972416
v 0.00031398 -0.00338000 -0.00934230
v -0.00000000 -0.00339486 -0.00938337
v 0.00031398 -0.00448144 -0.00886677
v -0.00000000 -0.00450115 -0.00890575
v 0.00031398 -0.00551754 -0.00826194
v -0.00000000 -0.00554180 -0.00829827
v 0.00031398 -0.00647318 -0.00753664
v -0.00000000 -0.00650164 -0.00756977
v -0.00000000 -0.00736667 -0.00673090
v -0.00000000 -0.00157646 -0.00985330
v 0.00031398 -0.00104602 -0.00987971
v 0.00031398 -0.00222926 -0.00968160
v -0.00000000 -0.00105062 -0.00992315
v -0.00000000 0.00015314 -0.00997744
v 0.00031398 0.00015247 -0.00993376
v -0.00000000 0.00135467 -0.00988623
v 0.00031398 0.00134874 -0.00984296
v -0.00000000 0.00185443 -0.00980479
v 0.00031398 0.00252535 -0.00960862
v -0.00000000 0.00253645 -0.00965086
v -0.00000000 0.00351254 -0.00933996
v 0.00031398 0.00366513 -0.00923416
v -0.00000000 0.00368124 -0.00927476
v -0.00000000 0.00477235 -0.00876341
v 0.00031398 0.00475146 -0.00872505
v -0.00000000 0.00506605 -0.00859697
v 0.00031398 0.00576850 -0.00808871
v -0.00000000 0.00579387 -0.00812428
v 0.00031398 0.00670143 -0.00733442
v -0.00000000 0.00646868 -0.00759795
v -0.00000000 0.00673090 -0.00736667
v -0.00000000 0.00756977 -0.00650164
v 0.00031398 0.00753664 -0.00647318
v -0.00000000 0.00767867 -0.00637266
v 0.00031398 0.00826194 -0.00551754
v -0.00000000 0.00829827 -0.00554180
v 0.00031398 0.00886677 -0.00448144
v -0.00000000 0.00865997 -0.00495758
v -0.00000000 0.00890575 -0.00450115
v -0.00000000 0.00938337 -0.00339486
v 0.00031398 0.00934230 -0.00338000
v 0.00059852 -0.00974073 0.00103131
v 0.00059852 -0.00979402 -0.00015033
v 0.00059852 -0.00970449 -0.00132977
v 0.00059852 -0.00947345 -0.00248982
v 0.00059852 -0.00910426 -0.00361357
v 0.00059852 -0.00860231 -0.00468462
v 0.00059852 -0.00797492 -0.00568736
v 0.00059852 -0.00723124 -0.00660716
v 0.00059852 -0.00638211 -0.00743061
v 0.00059852 -0.00543992 -0.00814572
v 0.00059852 -0.00441840 -0.00874203
v 0.00059852 -0.00333245 -0.00921087
v 0.00059852 -0.00219790 -0.00954540
v 0.00059852 -0.00103131 -0.00974073
v 0.00059852 0.00015033 -0.00979402
v 0.00059852 0.00132977 -0.00970449
v 0.00059852 0.00248982 -0.00947345
v 0.00059852 0.00361357 -0.00910426
v 0.00059852 0.00468462 -0.00860231
v 0.00059852 0.00568735 -0.00797492
v 0.00059852 0.00660716 -0.00723124
v 0.00059852 0.00743061 -0.00638211
v 0.00059852 0.00814572 -0.00543992
v 0.00059852 0.00874203 -0.00441840
v 0.00059852 0.00921087 -0.00333245
v 0.00082501 -0.00952017 0.00100795
v 0.00082501 -0.00957225 -0.00014692
v 0.00082501 -0.00948475 -0.00129966
v 0.00082501 -0.00925894 -0.00243344
v 0.00082501 -0.00889811 -0.00353174
v 0.00082501 -0.00840753 -0.00457854
v 0.00082501 -0.00779434 -0.00555857
v 0.00082501 -0.00706750 -0.00645755
v 0.00082501 -0.00623760 -0.00726236
v 0.00082501 -0.00531674 -0.00796127
v 0.00082501 -0.00431835 -0.00854408
v 0.00082501 -0.00325699 -0.00900231
v 0.00082501 -0.00214813 -0.00932926
v 0.00082501 -0.00100795 -0.00952017
v 0.00082501 0.00014692 -0.00957225
v 0.00082501 0.00129966 -0.00948475
v 0.00082501 0.00243344 -0.00925894
v 0.00082501 0.00353174 -0.00889811
v 0.00082501 0.00457854 -0.00840753
v 0.00082501 0.00555857 -0.00779434
v 0.00082501 0.00645755 -0.00706750
v 0.00082501 0.00726236 -0.00623760
v 0.00082501 0.00796127 -0.00531674
v 0.00082501 0.00854408 -0.00431835
v 0.00082501 0.00900231 -0.00325699
v 0.00097070 -0.00924019 0.00097831
v 0.00097070 -0.00929074 -0.00014260
v 0.00097070 -0.00920581 -0.00126144
v 0.00097070 -0.00898664 -0.00236188
v 0.00097070 -0.00863642 -0.00342788
v 0.00097070 -0.00816027 -0.00444389
v 0.00097070 -0.00756512 -0.00539510
v 0.00097070 -0.00685965 -0.00626764
v 0.00097070 -0.00605416 -0.00704878
v 0.00097070 -0.00516038 -0.00772713
v 0.00097070 -0.00419135 -0.00829281
v 0.00097070 -0.00316120 -0.00873756
v 0.00097070 -0.00208496 -0.00905489
v 0.00097070 -0.00097831 -0.00924019
v 0.00097070 0.00014260 -0.00929074
v 0.00097070 0.00126144 -0.00920581
v 0.00097070 0.00236188 -0.00898664
v 0.00097070 0.00342788 -0.00863642
v 0.00097070 0.00444389 -0.00816027
v 0.00097070 0.00539510 -0.00756512
v 0.00097070 0.00626764 -0.00685965
v 0.00097070 0.00704878 -0.00605416
v 0.00097070 0.00772713 -0.00516038
v 0.00097070 0.00829281 -0.00419135
v 0.00097070 0.00873756 -0.00316120
v 0.00102094 -0.00874988 0.00201473
v 0.00102094 -0.00892893 0.00094536
v 0.00102094 -0.00897778 -0.00013780
v 0.00102094 -0.00889571 -0.00121895
v 0.00102094 -0.00868392 -0.00228232
v 0.00102094 -0.00834550 -0.00331241
v 0.00102094 -0.00788539 -0.00429420
v 0.00102094 -0.00731029 -0.00521336
v 0.00102094 -0.00662858 -0.00605651
v 0.00102094 -0.00585022 -0.00681134
v 0.00102094 -0.00498655 -0.00746684
v 0.00102094 -0.00405016 -0.00801347
v 0.00102094 -0.00305472 -0.00844323
v 0.00102094 -0.00201473 -0.00874988
v 0.00102094 -0.00094536 -0.00892893
v 0.00102094 0.00013780 -0.00897778
v 0.00102094 0.00121895 -0.00889571
v 0.00102094 0.00228232 -0.00868392
v 0.00102094 0.00331241 -0.00834550
v 0.00102094 0.00429420 -0.00788539
v 0.00102094 0.00521336 -0.00731029
v 0.00102094 0.00605651 -0.00662858
v 0.00102094 0.00681134 -0.00585022
v 0.00102094 0.00746684 -0.00498655
v 0.00102094 0.00801346 -0.00405016
v 0.00102094 0.00844323 -0.00305472
v -0.00000000 0.00223906 0.00972416
v -0.00000000 0.00339486 0.00938337
v -0.01037472 0.00332092 0.00917902
v -0.00000000 -0.00865997 0.00495758
v -0.00000000 -0.00890575 0.00450115
v -0.00000000 -0.00829827 0.00554180
v -0.00000000 -0.00767867 0.00637266
v -0.00000000 -0.00756977 0.00650164
v -0.00000000 -0.00673090 0.00736667
v -0.00000000 -0.00646868 0.00759795
v -0.00000000 -0.00579387 0.00812428
v -0.00000000 -0.00506605 0.00859697
v -0.00000000 -0.00477235 0.00876341
v -0.00000000 -0.00368124 0.00927476
v -0.00000000 -0.00351254 0.00933996
v -0.00000000 -0.00253645 0.00965086
v -0.00000000 -0.00015314 0.00997744
v -0.00000000 -0.00135467 0.00988623
v -0.00000000 -0.00185443 0.00980479
v -0.00000000 0.00157646 0.00985330
v -0.00000000 0.00105062 0.00992315
v -0.01037472 0.00319529 0.00922351
v -0.01037472 0.00202136 0.00954972
v -0.01037472 0.00154212 0.00963872
v -0.01508961 -0.00104386 -0.00168803
v -0.01508961 -0.00113526 -0.00162796
v -0.01514796 -0.00099351 -0.00142468
v -0.01508961 -0.00133197 -0.00147137
v -0.01508961 -0.00151793 -0.00127866
v -0.01514796 -0.00132839 -0.00111900
v -0.01508961 -0.00191994 0.00050298
v -0.01508961 -0.00186633 0.00067526
v -0.01514796 -0.00163329 0.00059095
v -0.01508961 -0.00138014 0.00142634
v -0.01508961 -0.00127867 0.00151797
v -0.01514796 -0.00111901 0.00132843
v -0.01508961 -0.00043951 0.00193548
v -0.01508961 -0.00034839 0.00195394
v -0.01514796 -0.00030489 0.00170997
v -0.01508961 0.00062875 0.00188254
v -0.01508961 0.00067524 0.00186637
v -0.01514796 0.00059093 0.00163333
v -0.01464813 -0.00089315 -0.00087449
v -0.01464813 -0.00071499 -0.00102529
v -0.01489435 -0.00075207 -0.00107846
v -0.01464813 -0.00118413 -0.00040036
v -0.01464813 -0.00113186 -0.00053042
v -0.01489435 -0.00119055 -0.00055793
v -0.01464813 -0.00105132 0.00067619
v -0.01464813 -0.00117543 0.00042529
v -0.01489435 -0.00123638 0.00044735
v -0.01464813 -0.00065383 0.00106538
v -0.01464813 -0.00080531 0.00095603
v -0.01489435 -0.00084708 0.00100561
v -0.01464813 -0.00012684 0.00124357
v -0.01464813 -0.00021942 0.00123062
v -0.01489435 -0.00023080 0.00129443
v -0.01464813 0.00010656 0.00124548
v -0.01464813 -0.00123058 -0.00021940
v -0.01514796 0.00014806 0.00173062
v -0.01507672 -0.00026198 0.00146933
v -0.01507672 0.00012723 0.00148707
v -0.01489435 0.00011209 0.00131006
v -0.01514796 -0.00157275 -0.00073705
v -0.01514796 -0.00170993 -0.00030487
v -0.01507672 -0.00135142 -0.00063332
v -0.01507672 -0.00146930 -0.00026197
v -0.01489435 -0.00129440 -0.00023078
v -0.01508961 0.00027787 0.00196521
v -0.01508961 0.00016919 0.00197754
v -0.01507672 0.00050777 0.00140348
v -0.01489435 0.00044733 0.00123642
v -0.01464813 0.00042528 0.00117546
v -0.01508961 -0.00008218 0.00198306
v -0.01508961 -0.00109938 0.00165245
v -0.01508961 -0.00084223 0.00179719
v -0.01514796 -0.00073707 0.00157279
v -0.01508961 -0.00078235 0.00182406
v -0.01507672 -0.00063334 0.00135146
v -0.01489435 -0.00055795 0.00119059
v -0.01464813 -0.00053044 0.00113189
v -0.01507672 -0.00096153 0.00114149
v -0.01508961 -0.00179730 0.00084196
v -0.01508961 -0.00162798 0.00113530
v -0.01514796 -0.00142470 0.00099354
v -0.01508961 -0.00161536 0.00115317
v -0.01507672 -0.00122420 0.00085373
v -0.01489435 -0.00107848 0.00075210
v -0.01464813 -0.00102531 0.00071503
v -0.01507672 -0.00140344 0.00050779
v -0.01464813 -0.00124544 0.00010658
v -0.01489435 -0.00131003 0.00011210
v -0.01507672 -0.00148704 0.00012725
v -0.01514796 -0.00173058 0.00014808
v -0.01508961 -0.00197326 -0.00021304
v -0.01508961 -0.00197925 0.00014740
v -0.01508961 -0.00197750 0.00016921
v -0.01508961 -0.00195391 -0.00034838
v -0.01508961 -0.00157615 -0.00120617
v -0.01508961 -0.00176833 -0.00090118
v -0.01508961 -0.00179716 -0.00084222
v -0.01508961 -0.00190217 -0.00056645
v -0.01507672 -0.00114145 -0.00096152
v -0.01489435 -0.00100558 -0.00084706
v -0.01464813 -0.00095600 -0.00080530
v -0.01507672 -0.00085369 -0.00122419
v -0.01514796 -0.00059091 -0.00163328
v -0.01508961 -0.00067522 -0.00186632
v -0.01508961 -0.00072130 -0.00184900
v -0.01507672 -0.00050775 -0.00140343
v -0.01489435 -0.00044731 -0.00123637
v -0.01464813 -0.00042526 -0.00117541
v -0.01338092 0.00176855 0.00488826
v -0.01335972 0.00150486 0.00501443
v -0.01330403 0.00127916 0.00518255
v -0.01320815 0.00107016 0.00541576
v -0.01314114 0.00097598 0.00556349
v -0.01243874 0.00090830 0.00691074
v -0.01233904 0.00099765 0.00708641
v -0.01248549 0.00087500 0.00682654
v -0.01261653 0.00080909 0.00658355
v -0.01276578 0.00078361 0.00629699
v -0.01282482 0.00078849 0.00618270
v -0.01294164 0.00082355 0.00595779
v -0.01307698 0.00090949 0.00569784
v -0.01123673 0.00129233 0.00914008
v -0.01123673 0.00191155 0.00903090
v -0.01185278 0.00204804 0.00780920
v -0.01193438 0.00174420 0.00772462
v -0.01203346 0.00148030 0.00758875
v -0.01215236 0.00124457 0.00740059
v -0.01228045 0.00106259 0.00718684
v -0.01123672 0.00314050 0.00868034
v -0.01176782 0.00280068 0.00774108
v -0.01123673 0.00302169 0.00872241
v -0.01177114 0.00265916 0.00778444
v -0.01179867 0.00235492 0.00782852
v -0.01332109 -0.00480006 0.00226187
v -0.01323582 -0.00482896 0.00256462
v -0.01314146 -0.00489980 0.00280909
v -0.01311834 -0.00492073 0.00286069
v -0.01301238 -0.00502621 0.00306351
v -0.01286167 -0.00520605 0.00329884
v -0.01282496 -0.00525588 0.00334993
v -0.01269920 -0.00544264 0.00350562
v -0.01253553 -0.00571679 0.00365993
v -0.01248564 -0.00580586 0.00369536
v -0.01238539 -0.00599524 0.00375043
v -0.01223863 -0.00629885 0.00378656
v -0.01217121 -0.00644903 0.00378189
v -0.01210621 -0.00660090 0.00376191
v -0.01198531 -0.00690820 0.00367114
v -0.01192981 -0.00706772 0.00359360
v -0.01189382 -0.00718069 0.00352344
v -0.01185716 -0.00730526 0.00342826
v -0.01183029 -0.00740429 0.00333598
v -0.01179537 -0.00754879 0.00316451
v -0.01178376 -0.00760589 0.00307932
v -0.01179873 -0.00782850 0.00235452
v -0.01177113 -0.00778439 0.00265924
v -0.01176782 -0.00774105 0.00280070
v -0.01185288 -0.00780910 0.00204764
v -0.01185350 -0.00780862 0.00204481
v -0.01193457 -0.00772436 0.00174365
v -0.01203417 -0.00758758 0.00147857
v -0.01215277 -0.00739938 0.00124338
v -0.01228044 -0.00718641 0.00106233
v -0.01243865 -0.00691082 0.00090837
v -0.01248549 -0.00682651 0.00087502
v -0.01261661 -0.00658337 0.00080908
v -0.01276588 -0.00629677 0.00078362
v -0.01282483 -0.00618266 0.00078851
v -0.01294172 -0.00595760 0.00082361
v -0.01307704 -0.00569767 0.00090957
v -0.01314114 -0.00556346 0.00097600
v -0.01320820 -0.00541561 0.00107026
v -0.01286233 -0.00329786 -0.00520515
v -0.01282495 -0.00334989 -0.00525587
v -0.01270016 -0.00350448 -0.00544105
v -0.01253669 -0.00365900 -0.00571471
v -0.01248563 -0.00369533 -0.00580584
v -0.01238644 -0.00374993 -0.00599314
v -0.01234447 -0.00376619 -0.00607669
v -0.01223958 -0.00378649 -0.00629671
v -0.01217120 -0.00378186 -0.00644901
v -0.01210707 -0.00376226 -0.00659881
v -0.01198588 -0.00367175 -0.00690664
v -0.01192922 -0.00359357 -0.00706772
v -0.01189053 -0.00351948 -0.00718643
v -0.01182236 -0.00331568 -0.00742384
v -0.01179318 -0.00316445 -0.00754884
v -0.01178218 -0.00307873 -0.00760625
v -0.01176782 -0.00280067 -0.00774103
v -0.01337033 -0.00196556 -0.00483205
v -0.01332145 -0.00226004 -0.00480006
v -0.01323641 -0.00256273 -0.00482858
v -0.01314144 -0.00280903 -0.00489978
v -0.01311916 -0.00285881 -0.00491993
v -0.01301241 -0.00306358 -0.00502626
v -0.01338092 -0.00176853 -0.00488821
v -0.01330406 -0.00518246 0.00127925
v -0.01335973 -0.00501439 0.00150488
v -0.01338092 -0.00488823 0.00176856
v -0.01337017 -0.00483171 0.00196724
v 0.00102094 0.00770820 -0.00337271
v 0.00102094 0.00799297 -0.00289179
v -0.01176782 0.00774106 -0.00280065
v -0.01178218 0.00760629 -0.00307871
v -0.01179318 0.00754887 -0.00316443
v 0.00102094 0.00732366 -0.00368538
v -0.01182234 0.00742393 -0.00331561
v -0.01185385 0.00730825 -0.00342573
v -0.01189050 0.00718656 -0.00351940
v -0.01192922 0.00706776 -0.00359356
v 0.00102094 0.00726367 -0.00371769
v -0.01198583 0.00690679 -0.00367168
v 0.00102094 0.00672989 -0.00387393
v 0.00102094 0.00670963 -0.00387579
v -0.01210702 0.00659897 -0.00376222
v -0.01217120 0.00644905 -0.00378184
v 0.00102094 0.00616667 -0.00382235
v -0.01223953 0.00629687 -0.00378647
v 0.00101860 0.00607214 -0.00379164
v -0.01255318 0.00568621 -0.00364618
v -0.01248570 0.00580576 -0.00369527
v -0.01238637 0.00599329 -0.00374994
v 0.00101608 0.00603136 -0.00377622
v -0.01283292 0.00525611 -0.00335018
v -0.01288274 0.00518951 -0.00328085
v -0.01303108 0.00500904 -0.00303512
v -0.01314138 0.00489987 -0.00280916
v -0.01270443 0.00543955 -0.00350339
v -0.01316839 0.00487695 -0.00274527
v -0.01338092 0.00488824 -0.00176851
v -0.01337590 0.00484691 -0.00190228
v -0.01333588 0.00480222 -0.00219188
v -0.01326121 0.00481544 -0.00248588
v 0.00102094 -0.00337272 -0.00770816
v 0.00102094 -0.00289180 -0.00799294
v 0.00102094 -0.00368540 -0.00732363
v 0.00102094 -0.00371770 -0.00726363
v 0.00102094 -0.00387395 -0.00672986
v 0.00102094 -0.00387581 -0.00670960
v 0.00102094 -0.00382237 -0.00616664
v 0.00101860 -0.00379166 -0.00607211
v 0.00100147 -0.00371861 -0.00590325
v 0.00095808 -0.00354917 -0.00564511
v 0.00093668 -0.00344436 -0.00553115
v 0.00101608 -0.00377623 -0.00603133
v 0.00087520 -0.00305575 -0.00525448
v 0.00085652 -0.00290425 -0.00518791
v 0.00091555 -0.00332648 -0.00542722
v 0.00079740 -0.00213148 -0.00509710
v 0.00081298 -0.00243843 -0.00508087
v 0.00083835 -0.00273637 -0.00513235
v 0.00102094 -0.00770818 0.00337276
v 0.00102094 -0.00799295 0.00289184
v 0.00102094 -0.00732364 0.00368543
v 0.00102094 -0.00726365 0.00371774
v 0.00102094 -0.00672988 0.00387398
v 0.00102094 -0.00670962 0.00387584
v 0.00102094 -0.00616665 0.00382240
v 0.00101860 -0.00607212 0.00379169
v 0.00100147 -0.00590327 0.00371865
v 0.00095808 -0.00564513 0.00354921
v 0.00093668 -0.00553117 0.00344439
v 0.00101608 -0.00603134 0.00377627
v 0.00087520 -0.00525450 0.00305579
v 0.00085652 -0.00518793 0.00290429
v 0.00091555 -0.00542723 0.00332651
v 0.00079325 -0.00516742 0.00186958
v 0.00079740 -0.00509712 0.00213152
v 0.00081298 -0.00508089 0.00243847
v 0.00083835 -0.00513237 0.00273640
v 0.00102094 0.00337274 0.00770821
v 0.00102094 0.00289182 0.00799299
v -0.01178218 0.00307874 0.00760630
v -0.01179318 0.00316447 0.00754889
v 0.00102094 0.00368541 0.00732368
v -0.01182241 0.00331593 0.00742368
v -0.01189065 0.00351977 0.00718609
v -0.01192922 0.00359359 0.00706777
v 0.00102094 0.00371772 0.00726368
v -0.01198604 0.00367195 0.00690624
v 0.00102094 0.00387397 0.00672991
v 0.00102094 0.00387583 0.00670965
v -0.01210727 0.00376236 0.00659838
v -0.01217120 0.00378188 0.00644906
v 0.00102094 0.00382239 0.00616669
v -0.01223982 0.00378650 0.00629627
v 0.00101860 0.00379168 0.00607216
v -0.01233912 0.00376797 0.00608760
v -0.01248564 0.00369535 0.00580589
v -0.01253701 0.00365877 0.00571420
v -0.01238668 0.00374984 0.00599271
v 0.00101608 0.00377625 0.00603138
v -0.01282496 0.00334991 0.00525592
v -0.01286262 0.00329749 0.00520484
v -0.01301263 0.00306322 0.00502608
v -0.01270048 0.00350416 0.00544063
v -0.01337041 0.00196477 0.00483227
v -0.01332165 0.00225920 0.00480012
v -0.01323670 0.00256187 0.00482845
v -0.01314145 0.00280904 0.00489982
v -0.01311956 0.00285798 0.00491961
v -0.00154195 0.00044002 -0.00116997
v -0.01464813 0.00021944 -0.00123056
v -0.00154195 0.00017905 -0.00123709
v -0.01464813 0.00012686 -0.00124352
v -0.00154195 -0.00009023 -0.00124671
v -0.01464813 -0.00010654 -0.00124543
v -0.00154195 -0.00035532 -0.00119841
v -0.01464813 0.00102533 -0.00071498
v -0.00154195 0.00065385 -0.00106533
v -0.01464813 0.00105134 -0.00067614
v -0.00154195 0.00068054 -0.00104849
v -0.01464813 0.00080533 -0.00095598
v -0.01464813 0.00065385 -0.00106533
v -0.01464813 0.00053046 -0.00113184
v -0.00154195 0.00088943 -0.00087829
v -0.00154195 0.00105700 -0.00066727
v -0.01464813 0.00117544 -0.00042524
v -0.00154195 0.00117544 -0.00042524
v -0.01464813 0.00124546 -0.00010653
v -0.00154195 0.00123927 -0.00016345
v -0.01464813 0.00123060 0.00021945
v -0.00154195 0.00124551 0.00010593
v -0.00154195 0.00119388 0.00037039
v -0.01464813 0.00118415 0.00040041
v -0.00154195 0.00118415 0.00040041
v -0.01464813 0.00113188 0.00053047
v -0.00154195 0.00108677 0.00061764
v -0.01464813 0.00095602 0.00080535
v -0.00154195 0.00092916 0.00083620
v -0.01464813 0.00089316 0.00087454
v -0.00154195 0.00049374 0.00114839
v -0.01464813 0.00071501 0.00102534
v -0.00154195 0.00072837 0.00101589
v 0.00085640 0.00108707 0.00584448
v 0.00084583 0.00113852 0.00575805
v 0.00081720 0.00133466 0.00550631
v 0.00079932 0.00157598 0.00530957
v 0.00093663 0.00089166 0.00645429
v 0.00092565 0.00090202 0.00637393
v 0.00088284 0.00098839 0.00605263
v 0.00097091 0.00088756 0.00670091
v 0.00100147 0.00091935 0.00691607
v 0.00101860 0.00097126 0.00709257
v 0.00101608 0.00095702 0.00705136
v 0.00102094 0.00100814 0.00718487
v 0.00102094 0.00131448 0.00763633
v 0.00102094 0.00132416 0.00764606
v 0.00102094 0.00179047 0.00796095
v 0.00102094 0.00185369 0.00798639
v 0.00102094 0.00233337 0.00808165
v 0.00085640 -0.00584445 0.00108708
v 0.00084583 -0.00575801 0.00113853
v 0.00081720 -0.00550628 0.00133468
v 0.00079932 -0.00530953 0.00157600
v 0.00093663 -0.00645425 0.00089168
v 0.00092565 -0.00637389 0.00090204
v 0.00088284 -0.00605260 0.00098841
v 0.00101860 -0.00709254 0.00097127
v 0.00101608 -0.00705133 0.00095703
v 0.00100147 -0.00691603 0.00091937
v 0.00097091 -0.00670087 0.00088758
v 0.00102094 -0.00718483 0.00100815
v 0.00102094 -0.00763630 0.00131449
v 0.00102094 -0.00808161 0.00233338
v 0.00102094 -0.00798635 0.00185371
v 0.00102094 -0.00796092 0.00179049
v 0.00102094 -0.00764602 0.00132418
v -0.01314113 -0.00097597 -0.00556344
v -0.01320750 -0.00106912 -0.00541714
v -0.01330374 -0.00127836 -0.00518321
v -0.01335971 -0.00150485 -0.00501437
v -0.01282481 -0.00078847 -0.00618264
v -0.01294063 -0.00082308 -0.00595969
v -0.01307614 -0.00090873 -0.00569950
v -0.01276457 -0.00078358 -0.00629923
v -0.01261600 -0.00080925 -0.00658449
v -0.01248549 -0.00087499 -0.00682649
v -0.01243808 -0.00090878 -0.00691183
v 0.00101860 -0.00097124 -0.00709252
v 0.00101608 -0.00095700 -0.00705131
v -0.01233338 -0.00100335 -0.00709593
v -0.01227990 -0.00106297 -0.00718736
v 0.00102094 -0.00100812 -0.00718482
v -0.01215228 -0.00124420 -0.00740020
v 0.00102094 -0.00131446 -0.00763628
v -0.01203373 -0.00147955 -0.00758822
v 0.00102094 -0.00132414 -0.00764600
v 0.00102094 -0.00179046 -0.00796090
v -0.01193405 -0.00174521 -0.00772498
v 0.00102094 -0.00185367 -0.00798634
v -0.01185262 -0.00204878 -0.00780928
v 0.00102094 -0.00233335 -0.00808160
v -0.01177114 -0.00265897 -0.00778443
v -0.01179856 -0.00235567 -0.00782844
v -0.01314114 0.00556347 -0.00097595
v -0.01320818 0.00541567 -0.00107018
v -0.01330405 0.00518250 -0.00127917
v -0.01335973 0.00501441 -0.00150483
v -0.01282480 0.00618268 -0.00078846
v -0.01294170 0.00595761 -0.00082356
v -0.01307702 0.00569774 -0.00090950
v -0.01248549 0.00682652 -0.00087497
v 0.00101860 0.00709255 -0.00097122
v 0.00101608 0.00705134 -0.00095698
v -0.01261632 0.00658391 -0.00080912
v -0.01276585 0.00629680 -0.00078357
v -0.01243836 0.00691136 -0.00090855
v -0.01228015 0.00718695 -0.00106265
v 0.00102094 0.00718485 -0.00100810
v -0.01215253 0.00739982 -0.00124376
v 0.00102094 0.00763632 -0.00131444
v -0.01203394 0.00758794 -0.00147903
v 0.00102094 0.00764604 -0.00132413
v 0.00102094 0.00796093 -0.00179044
v -0.01193408 0.00772497 -0.00174510
v 0.00102094 0.00798637 -0.00185366
v -0.01185263 0.00780930 -0.00204869
v 0.00102094 0.00808163 -0.00233333
v -0.01177114 0.00778446 -0.00265897
v -0.01179858 0.00782848 -0.00235558
v -0.01508961 -0.00062873 -0.00188249
v -0.01508961 0.00191996 -0.00050292
v -0.01508961 0.00186635 -0.00067521
v -0.01508961 0.00179732 -0.00084191
v -0.01123671 0.00892971 -0.00233920
v -0.01123671 0.00914502 -0.00125705
v -0.01123671 0.00920553 -0.00068540
v -0.01508961 0.00197927 -0.00014735
v -0.01508961 0.00197752 -0.00016916
v -0.01123671 0.00835930 -0.00391582
v -0.01123671 0.00855041 -0.00347879
v -0.01123671 0.00891718 -0.00238651
v -0.01508961 0.00162799 -0.00113525
v -0.01508961 0.00161538 -0.00115312
v -0.01123671 0.00751312 -0.00536326
v -0.01123671 0.00805043 -0.00451686
v -0.01508961 -0.00027785 -0.00196516
v -0.01123670 -0.00059603 -0.00921173
v -0.01123670 0.00038226 -0.00922307
v -0.01508961 0.00008220 -0.00198301
v -0.01508961 -0.00016917 -0.00197749
v -0.01508961 0.00109940 -0.00165240
v -0.01123671 0.00490252 -0.00782155
v -0.01508961 0.00084225 -0.00179714
v -0.01123670 0.00388995 -0.00837136
v -0.01508961 0.00078237 -0.00182401
v -0.01123671 0.00742503 -0.00548457
v -0.01123671 0.00668394 -0.00636683
v -0.01508961 0.00138015 -0.00142629
v -0.01123671 0.00641907 -0.00663377
v -0.01508961 0.00127869 -0.00151792
v -0.01123671 0.00583871 -0.00714989
v -0.01123671 0.00511327 -0.00768544
v -0.01123671 0.00923038 -0.00010801
v -0.01508961 0.00197328 0.00021309
v -0.01508961 0.00195393 0.00034843
v -0.01123672 0.00917193 0.00104272
v -0.01123672 0.00917766 0.00099100
v -0.01508961 0.00176835 0.00090123
v -0.01123672 0.00822452 0.00419150
v -0.01508961 0.00179718 0.00084227
v -0.01123672 0.00862947 0.00327776
v -0.01508961 0.00190219 0.00056650
v -0.01123672 0.00884702 0.00263471
v -0.01123672 0.00897058 0.00217720
v -0.01508961 0.00157617 0.00120622
v -0.01123672 0.00755132 0.00530932
v -0.01123672 0.00815391 0.00432725
v -0.01508961 0.00133199 0.00147142
v -0.01123673 0.00619503 0.00684345
v -0.01508961 0.00151795 0.00127871
v -0.01123673 0.00683108 0.00620868
v -0.01123672 0.00733070 0.00561002
v -0.01508961 0.00104387 0.00168808
v -0.01508961 0.00113528 0.00162801
v -0.01123673 0.00600441 0.00701130
v -0.01123673 0.00508419 0.00770469
v -0.01123673 0.00485500 0.00785113
v -0.01123673 0.00408476 0.00827804
v -0.01508961 0.00072132 0.00184905
v -0.01123670 0.00055617 -0.00921422
v -0.01508961 0.00034841 -0.00195389
v -0.01123670 0.00363877 -0.00848355
v -0.01123670 0.00281678 -0.00879074
v -0.01508961 0.00043953 -0.00193543
v -0.01123670 0.00204424 -0.00900180
v -0.01123670 0.00169972 -0.00907316
v 0.00102094 0.00094536 0.00892893
v 0.00102094 0.00892893 -0.00094536
v 0.00102094 -0.00746684 0.00498655
v 0.00102094 -0.00801346 0.00405016
v 0.00102094 0.00201473 0.00874988
v 0.00102094 0.00305472 0.00844323
v 0.00102094 0.00405016 0.00801346
v 0.00102094 0.00498655 0.00746684
v 0.00102094 0.00874988 -0.00201473
v 0.00102094 -0.00681134 0.00585022
v 0.00102094 -0.00013780 0.00897778
v 0.00102094 0.00585022 0.00681134
v 0.00102094 0.00897778 0.00013780
v 0.00102094 0.00044878 0.00724136
v 0.00102094 -0.00058706 0.00723146
v 0.00102094 -0.00121895 0.00889571
v 0.00102094 -0.00161093 0.00707414
v 0.00102094 -0.00228232 0.00868392
v 0.00102094 -0.00260196 0.00677262
v 0.00102094 -0.00331241 0.00834550
v 0.00102094 -0.00353995 0.00633303
v 0.00102094 -0.00429420 0.00788539
v 0.00102094 -0.00440578 0.00576434
v 0.00102094 -0.00521336 0.00731029
v 0.00102094 -0.00518179 0.00507814
v 0.00102094 -0.00605651 0.00662858
v 0.00102094 -0.00585217 0.00428842
v 0.00102094 0.00724134 -0.00044875
v 0.00102094 0.00723144 0.00058709
v 0.00102094 0.00889571 0.00121895
v 0.00102094 0.00707413 0.00161097
v 0.00102094 0.00868392 0.00228232
v 0.00102094 0.00677260 0.00260200
v 0.00102094 0.00834550 0.00331241
v 0.00102094 0.00633301 0.00353999
v 0.00102094 0.00788539 0.00429420
v 0.00102094 0.00576432 0.00440581
v 0.00102094 0.00731029 0.00521337
v 0.00102094 0.00507812 0.00518182
v 0.00102094 0.00662858 0.00605651
v 0.00102094 0.00428840 0.00585220
v 0.00102094 -0.00724132 0.00044880
v 0.00102094 -0.00723142 -0.00058704
v 0.00102094 -0.00707411 -0.00161092
v 0.00102094 -0.00677258 -0.00260195
v 0.00102094 -0.00633299 -0.00353994
v 0.00102094 -0.00576430 -0.00440576
v 0.00102094 -0.00507810 -0.00518177
v 0.00102094 -0.00428838 -0.00585215
v 0.00102094 -0.00044876 -0.00724131
v 0.00102094 0.00058708 -0.00723141
v 0.00102094 0.00161095 -0.00707409
v 0.00102094 0.00260198 -0.00677257
v 0.00102094 0.00353997 -0.00633298
v 0.00102094 0.00440580 -0.00576429
v 0.00102094 0.00518181 -0.00507809
v 0.00102094 0.00585218 -0.00428837
v -0.01514796 0.00099352 0.00142473
v -0.01514796 0.00132841 0.00111905
v -0.01514796 0.00163331 -0.00059090
v -0.01514796 0.00111903 -0.00132838
v -0.01514796 0.00030491 -0.00170992
v -0.01489435 0.00075209 0.00107851
v -0.01489435 0.00119057 0.00055798
v -0.01489435 0.00123640 -0.00044729
v -0.01489435 0.00084710 -0.00100556
v -0.01489435 0.00023081 -0.00129438
v -0.01514796 -0.00014805 -0.00173056
v -0.01507672 0.00026200 -0.00146928
v -0.01507672 -0.00012721 -0.00148702
v -0.01489435 -0.00011207 -0.00131001
v -0.01514796 0.00157277 0.00073710
v -0.01514796 0.00170995 0.00030492
v -0.01507672 0.00135144 0.00063337
v -0.01507672 0.00146932 0.00026202
v -0.01489435 0.00129441 0.00023083
v -0.01514796 0.00073708 -0.00157274
v -0.01507672 0.00063336 -0.00135141
v -0.01489435 0.00055797 -0.00119054
v -0.01507672 0.00096155 -0.00114144
v -0.01514796 0.00142472 -0.00099349
v -0.01507672 0.00122422 -0.00085368
v -0.01489435 0.00107850 -0.00075205
v -0.01507672 0.00140346 -0.00050774
v -0.01489435 0.00131005 -0.00011205
v -0.01507672 0.00148706 -0.00012719
v -0.01514796 0.00173060 -0.00014803
v -0.01507672 0.00114147 0.00096157
v -0.01489435 0.00100559 0.00084711
v -0.01507672 0.00085371 0.00122424
v -0.01037472 0.00431943 0.00875361
v -0.00000000 0.00450115 0.00890575
v -0.00000000 0.00509299 0.00858103
v -0.01037472 0.00498208 0.00839416
v -0.01037472 0.00537627 0.00814732
v -0.00000000 0.00554180 0.00829827
v -0.01037472 0.00634936 0.00741410
v -0.00000000 0.00997860 -0.00001565
v -0.01037471 0.00976131 -0.00001531
v -0.00000000 0.00997744 0.00015314
v -0.01037471 0.00969885 0.00110262
v -0.00000000 0.00649249 0.00757762
v -0.00000000 0.00650164 0.00756977
v -0.01037472 0.00722352 0.00656537
v -0.00000000 0.00736667 0.00673090
v -0.01037472 0.00753097 0.00621029
v -0.00000000 0.00769862 0.00634854
v -0.01037472 0.00798514 0.00561434
v -0.00000000 0.00812428 0.00579387
v -0.01037471 0.00848656 0.00482303
v -0.00000000 0.00867548 0.00493039
v -0.01037471 0.00862235 0.00457585
v -0.00000000 0.00876341 0.00477235
v -0.01037471 0.00912523 0.00346607
v -0.00000000 0.00927476 0.00368124
v -0.01037471 0.00918942 0.00329212
v -0.00000000 0.00939398 0.00336540
v -0.01037471 0.00948593 0.00230228
v -0.00000000 0.00965086 0.00253645
v -0.01037471 0.00961859 0.00166317
v -0.00000000 0.00983271 0.00170019
v -0.00000000 0.00988623 0.00135467
v -0.01037470 0.00847140 -0.00484963
v -0.01037470 0.00851292 -0.00477635
v -0.01037470 0.00904163 -0.00367864
v -0.01037470 0.00917905 -0.00332093
v -0.00000000 0.00972416 -0.00223906
v -0.01037470 0.00942947 -0.00252361
v -0.00000000 0.00982732 -0.00173103
v -0.01037470 0.00961333 -0.00169334
v -0.00000000 0.00992315 -0.00105062
v -0.01037470 0.00967039 -0.00132927
v -0.01037470 0.00976066 -0.00011421
v -0.01037470 0.00785159 -0.00579965
v -0.01037470 0.00751146 -0.00623389
v -0.01037470 0.00706793 -0.00673260
v -0.01037470 0.00632782 -0.00743250
v -0.01037470 0.00617414 -0.00756064
v -0.01037469 0.00518417 -0.00827090
v -0.01037470 0.00495573 -0.00840976
v -0.01037469 0.00411343 -0.00885229
v -0.01037469 0.00343605 -0.00913656
v -0.01037469 0.00297860 -0.00929576
v -0.01037469 0.00179736 -0.00959441
v -0.01037469 0.00058812 -0.00974357
v -0.01037469 0.00013802 -0.00976033
v -0.01037469 -0.00063028 -0.00974093
v 0.00097070 0.00905489 -0.00208496
v 0.00082501 0.00932926 -0.00214813
v 0.00059852 0.00954540 -0.00219790
v 0.00031398 0.00968160 -0.00222926
v 0.00031398 0.00987971 -0.00104602
v 0.00031398 0.00993376 0.00015247
v 0.00031398 0.00984296 0.00134874
v 0.00031398 0.00960862 0.00252535
v 0.00031398 0.00923416 0.00366513
v 0.00031398 0.00872505 0.00475146
v 0.00031398 0.00808871 0.00576850
v 0.00031398 0.00733442 0.00670143
v 0.00031398 0.00647318 0.00753664
v 0.00031398 0.00551754 0.00826194
v 0.00031398 0.00448144 0.00886677
v 0.00031398 0.00338000 0.00934230
v 0.00031398 0.00104602 0.00987971
v 0.00031398 0.00222926 0.00968160
v 0.00031398 -0.00015247 0.00993376
v 0.00031398 -0.00134874 0.00984296
v 0.00031398 -0.00252535 0.00960862
v 0.00031398 -0.00366513 0.00923416
v 0.00031398 -0.00475146 0.00872505
v 0.00031398 -0.00576850 0.00808871
v 0.00031398 -0.00670143 0.00733442
v 0.00031398 -0.00753664 0.00647318
v 0.00031398 -0.00826194 0.00551754
v 0.00031398 -0.00886677 0.00448144
v 0.00059852 0.00974073 -0.00103131
v 0.00059852 0.00979402 0.00015033
v 0.00059852 0.00970449 0.00132977
v 0.00059852 0.00947345 0.00248982
v 0.00059852 0.00910426 0.00361357
v 0.00059852 0.00860231 0.00468462
v 0.00059852 0.00797492 0.00568735
v 0.00059852 0.00723124 0.00660716
v 0.00059852 0.00638211 0.00743061
v 0.00059852 0.00543992 0.00814572
v 0.00059852 0.00441840 0.00874203
v 0.00059852 0.00333245 0.00921087
v 0.00059852 0.00219790 0.00954540
v 0.00059852 0.00103131 0.00974073
v 0.00059852 -0.00015033 0.00979402
v 0.00059852 -0.00132977 0.00970449
v 0.00059852 -0.00248982 0.00947345
v 0.00059852 -0.00361357 0.00910426
v 0.00059852 -0.00468462 0.00860231
v 0.00059852 -0.00568736 0.00797492
v 0.00059852 -0.00660716 0.00723124
v 0.00059852 -0.00743061 0.00638211
v 0.00059852 -0.00814572 0.00543992
v 0.00059852 -0.00874203 0.00441840
v 0.00082501 0.00952017 -0.00100795
v 0.00082501 0.00957225 0.00014692
v 0.00082501 0.00948475 0.00129966
v 0.00082501 0.00925894 0.00243344
v 0.00082501 0.00889811 0.00353174
v 0.00082501 0.00840753 0.00457854
v 0.00082501 0.00779434 0.00555857
v 0.00082501 0.00706750 0.00645755
v 0.00082501 0.00623760 0.00726236
v 0.00082501 0.00531674 0.00796127
v 0.00082501 0.00431835 0.00854408
v 0.00082501 0.00325699 0.00900231
v 0.00082501 0.00214813 0.00932926
v 0.00082501 0.00100795 0.00952017
v 0.00082501 -0.00014692 0.00957225
v 0.00082501 -0.00129966 0.00948475
v 0.00082501 -0.00243344 0.00925893
v 0.00082501 -0.00353174 0.00889811
v 0.00082501 -0.00457854 0.00840753
v 0.00082501 -0.00555857 0.00779434
v 0.00082501 -0.00645755 0.00706750
v 0.00082501 -0.00726236 0.00623760
v 0.00082501 -0.00796127 0.00531674
v 0.00082501 -0.00854408 0.00431835
v 0.00097070 0.00924019 -0.00097831
v 0.00097070 0.00929074 0.00014260
v 0.00097070 0.00920581 0.00126144
v 0.00097070 0.00898664 0.00236188
v 0.00097070 0.00863642 0.00342788
v 0.00097070 0.00816027 0.00444389
v 0.00097070 0.00756512 0.00539510
v 0.00097070 0.00685965 0.00626764
v 0.00097070 0.00605416 0.00704878
v 0.00097070 0.00516038 0.00772713
v 0.00097070 0.00419135 0.00829281
v 0.00097070 0.00316120 0.00873756
v 0.00097070 0.00208496 0.00905489
v 0.00097070 0.00097831 0.00924019
v 0.00097070 -0.00014260 0.00929074
v 0.00097070 -0.00126144 0.00920581
v 0.00097070 -0.00236188 0.00898664
v 0.00097070 -0.00342788 0.00863642
v 0.00097070 -0.00444389 0.00816027
v 0.00097070 -0.00539510 0.00756512
v 0.00097070 -0.00626764 0.00685965
v 0.00097070 -0.00704878 0.00605416
v 0.00097070 -0.00772713 0.00516038
v 0.00097070 -0.00829281 0.00419135
v -0.01103425 0.00310788 0.00897121
v -0.01103425 0.00420128 0.00851416
v -0.01103425 0.00522921 0.00792446
v -0.01103425 0.00617568 0.00721129
v -0.01103424 0.00838650 0.00445068
v -0.01103425 0.00776672 0.00546077
v -0.01103425 0.00702593 0.00638578
v -0.01103424 0.00887562 0.00337125
v -0.01103424 0.00922646 0.00223930
v -0.01103424 0.00943355 0.00107246
v -0.01103424 0.00940587 -0.00129291
v -0.01103424 0.00949367 -0.00011109
v -0.01103424 0.00879431 -0.00357802
v -0.01103424 0.00917154 -0.00245458
v -0.01103423 0.00828006 -0.00464570
v -0.01103423 0.00763682 -0.00564101
v -0.01103423 0.00687459 -0.00654843
v -0.01103422 0.00400091 -0.00861015
v -0.01103422 0.00504236 -0.00804466
v -0.01103423 0.00600526 -0.00735383
v -0.01103422 0.00289712 -0.00904149
v -0.01103422 0.00174820 -0.00933197
v -0.01103422 0.00057204 -0.00947705
v -0.01103422 -0.00061304 -0.00947448
v -0.01070100 -0.00062627 -0.00967905
v -0.01070100 0.00295968 -0.00923671
v -0.01070100 0.00178594 -0.00953346
v -0.01070100 0.00058439 -0.00968168
v -0.01070101 0.00408730 -0.00879605
v -0.01070101 0.00515124 -0.00821835
v -0.01070101 0.00613492 -0.00751261
v -0.01070102 0.00780171 -0.00576281
v -0.01070101 0.00702302 -0.00668983
v -0.01070102 0.00898419 -0.00365527
v -0.01070102 0.00845884 -0.00474601
v -0.01070102 0.00936956 -0.00250758
v -0.01070102 0.00960896 -0.00132082
v -0.01070102 0.00969865 -0.00011349
v -0.01070102 0.00963723 0.00109562
v -0.01070103 0.00856758 0.00454678
v -0.01070103 0.00906726 0.00344405
v -0.01070102 0.00942567 0.00228765
v -0.01070103 0.00793441 0.00557868
v -0.01070103 0.00717763 0.00652366
v -0.01070103 0.00630902 0.00736700
v -0.01070103 0.00534212 0.00809556
v -0.01070103 0.00200852 0.00948905
v -0.01070103 0.00317499 0.00916492
v -0.01070103 0.00429199 0.00869800
v -0.01103425 0.00196607 0.00928849
v 0.00100147 0.00068032 0.00694366
v 0.00100147 -0.00391996 -0.00577151
v 0.00100147 -0.00697065 0.00029453
v 0.00100147 -0.00696351 0.00043158
v 0.00100147 -0.00554545 0.00423379
v 0.00100147 -0.00562765 0.00412389
v 0.00100147 -0.00412386 -0.00562763
v 0.00100147 -0.00488328 -0.00498297
v 0.00100147 -0.00500442 -0.00486130
v 0.00100147 -0.00554316 -0.00423673
v 0.00100147 -0.00695399 -0.00056452
v 0.00100147 -0.00688658 -0.00111879
v 0.00100147 -0.00680271 -0.00154911
v 0.00100147 -0.00651275 -0.00250212
v 0.00100147 -0.00609003 -0.00340413
v 0.00100147 -0.00588280 -0.00375090
v 0.00100147 -0.00498299 0.00488332
v 0.00100147 -0.00457654 0.00526614
v 0.00100147 -0.00423675 0.00554319
v 0.00100147 -0.00340414 0.00609006
v 0.00100147 -0.00250214 0.00651279
v 0.00100147 -0.00212100 0.00664669
v 0.00100147 -0.00154913 0.00680274
v 0.00100147 -0.00073549 0.00693803
v 0.00100147 -0.00056454 0.00695402
v 0.00100147 0.00043156 0.00696354
v 0.00101609 -0.00705132 0.00095704
v 0.00101609 -0.00377623 -0.00603133
v 0.00101609 0.00095702 0.00705136
v 0.00101609 -0.00603134 0.00377626
v 0.00101609 0.00705134 -0.00095699
v 0.00101609 0.00377625 0.00603138
v 0.00101609 -0.00095700 -0.00705131
v 0.00101609 0.00603136 -0.00377621
v 0.00034984 0.00102738 0.00238959
v 0.00034984 0.00151562 0.00211390
v 0.00034984 0.00193343 0.00173998
v 0.00034984 0.00226139 0.00128520
v 0.00034984 0.00248428 0.00077070
v 0.00034984 0.00259172 0.00022040
v 0.00034984 0.00257873 -0.00034015
v 0.00034984 0.00244592 -0.00088489
v 0.00034984 0.00219944 -0.00138851
v 0.00034984 0.00185076 -0.00182761
v 0.00034984 0.00141608 -0.00218178
v 0.00034984 0.00091560 -0.00243456
v 0.00034984 0.00037257 -0.00257422
v 0.00034984 -0.00018777 -0.00259425
v 0.00034984 -0.00073938 -0.00249373
v -0.00116262 0.00045280 -0.00120395
v -0.00116262 0.00018425 -0.00127301
v -0.00116262 -0.00009285 -0.00128292
v -0.00116262 -0.00036564 -0.00123321
v -0.00116262 0.00122855 0.00038115
v -0.00116262 0.00128169 0.00010901
v -0.00116262 0.00127526 -0.00016820
v -0.00116262 0.00120958 -0.00043759
v -0.00116262 0.00108769 -0.00068665
v -0.00116262 0.00091526 -0.00090379
v -0.00116262 0.00070030 -0.00107894
v -0.00116262 0.00111833 0.00063558
v -0.00116262 0.00095614 0.00086048
v -0.00116262 0.00074952 0.00104540
v -0.00116262 0.00050808 0.00118174
v -0.00066626 0.00057348 0.00133387
v -0.00022984 0.00068751 0.00159908
v 0.00011677 0.00084234 0.00195920
v 0.00011677 0.00124264 0.00173316
v 0.00011677 0.00158519 0.00142659
v 0.00011677 0.00185409 0.00105372
v 0.00011677 0.00203683 0.00063190
v 0.00011677 0.00212492 0.00018071
v 0.00011677 0.00211427 -0.00027888
v 0.00011677 0.00200538 -0.00072551
v 0.00011677 0.00180330 -0.00113842
v 0.00011677 0.00151742 -0.00149843
v 0.00011677 0.00116103 -0.00178881
v 0.00011677 0.00075069 -0.00199606
v 0.00011677 0.00030547 -0.00211056
v 0.00011677 -0.00015394 -0.00212699
v 0.00011677 -0.00060621 -0.00204458
v -0.00022984 0.00101423 0.00141459
v -0.00022984 0.00129381 0.00116437
v -0.00022984 0.00151328 0.00086004
v -0.00022984 0.00166243 0.00051575
v -0.00022984 0.00173433 0.00014749
v -0.00022984 0.00172564 -0.00022761
v -0.00022984 0.00163676 -0.00059214
v -0.00022984 0.00147183 -0.00092916
v -0.00022984 0.00123850 -0.00122299
v -0.00022984 0.00094762 -0.00145999
v -0.00022984 0.00061271 -0.00162915
v -0.00022984 0.00024932 -0.00172261
v -0.00022984 -0.00012565 -0.00173601
v -0.00022984 -0.00049478 -0.00166875
v -0.00066626 0.00084602 0.00117998
v -0.00066626 0.00107923 0.00097126
v -0.00066626 0.00126230 0.00071740
v -0.00066626 0.00138672 0.00043021
v -0.00066626 0.00144669 0.00012304
v -0.00066626 0.00143944 -0.00018986
v -0.00066626 0.00136530 -0.00049393
v -0.00066626 0.00122772 -0.00077505
v -0.00066626 0.00103309 -0.00102015
v -0.00066626 0.00079046 -0.00121785
v -0.00066626 0.00051109 -0.00135895
v -0.00066626 0.00020797 -0.00143691
v -0.00066626 -0.00010481 -0.00144809
v -0.00066626 -0.00041271 -0.00139198
f 1 2 3
f 4 1 5
f 6 4 7
f 8 6 9
f 10 8 11
f 12 13 11
f 11 13 14
f 11 14 10
f 15 16 12
f 12 16 17
f 12 17 13
f 18 19 15
f 15 19 20
f 15 20 16
f 21 22 18
f 18 22 23
f 18 23 19
f 24 25 21
f 21 25 26
f 21 26 22
f 27 28 24
f 24 28 29
f 24 29 25
f 30 31 32
f 32 31 33
f 32 33 27
f 27 33 34
f 27 34 28
f 30 32 35
f 35 32 36
f 35 36 37
f 37 36 38
f 37 38 39
f 39 38 40
f 40 38 41
f 40 41 42
f 42 41 43
f 43 41 44
f 43 44 45
f 45 44 46
f 46 44 47
f 46 47 48
f 48 47 49
f 49 47 50
f 49 50 51
f 51 50 52
f 52 50 53
f 52 53 54
f 54 53 55
f 54 55 56
f 57 58 59
f 59 58 60
f 59 60 61
f 61 60 62
f 61 62 63
f 63 62 64
f 63 64 65
f 66 67 68
f 68 67 69
f 68 69 70
f 70 69 71
f 70 71 72
f 72 71 73
f 72 73 74
f 74 73 75
f 74 75 76
f 76 75 77
f 76 77 78
f 78 77 79
f 78 79 57
f 57 79 80
f 57 80 58
f 81 82 66
f 66 82 83
f 66 83 67
f 66 84 81
f 81 84 85
f 81 85 86
f 86 85 87
f 86 87 88
f 88 87 3
f 88 3 89
f 89 3 2
f 89 2 90
f 8 9 11
f 11 9 91
f 11 91 12
f 12 91 92
f 12 92 15
f 15 92 93
f 15 93 18
f 18 93 94
f 18 94 21
f 21 94 95
f 21 95 24
f 24 95 96
f 24 96 27
f 27 96 97
f 27 97 32
f 32 97 98
f 32 98 36
f 36 98 99
f 36 99 38
f 38 99 100
f 38 100 41
f 41 100 101
f 41 101 44
f 44 101 102
f 44 102 47
f 47 102 103
f 47 103 50
f 50 103 104
f 50 104 53
f 53 104 105
f 53 105 55
f 6 7 9
f 9 7 106
f 9 106 91
f 91 106 107
f 91 107 92
f 92 107 108
f 92 108 93
f 93 108 109
f 93 109 94
f 94 109 110
f 94 110 95
f 95 110 111
f 95 111 96
f 96 111 112
f 96 112 97
f 97 112 113
f 97 113 98
f 98 113 114
f 98 114 99
f 99 114 115
f 99 115 100
f 100 115 116
f 100 116 101
f 101 116 117
f 101 117 102
f 102 117 118
f 102 118 103
f 103 118 119
f 103 119 104
f 104 119 120
f 104 120 105
f 4 5 7
f 7 5 121
f 7 121 106
f 106 121 122
f 106 122 107
f 107 122 123
f 107 123 108
f 108 123 124
f 108 124 109
f 109 124 125
f 109 125 110
f 110 125 126
f 110 126 111
f 111 126 127
f 111 127 112
f 112 127 128
f 112 128 113
f 113 128 129
f 113 129 114
f 114 129 130
f 114 130 115
f 115 130 131
f 115 131 116
f 116 131 132
f 116 132 117
f 117 132 133
f 117 133 118
f 118 133 134
f 118 134 119
f 119 134 135
f 119 135 120
f 1 3 5
f 5 3 87
f 5 87 121
f 121 87 85
f 121 85 122
f 122 85 84
f 122 84 123
f 123 84 66
f 123 66 124
f 124 66 68
f 124 68 125
f 125 68 70
f 125 70 126
f 126 70 72
f 126 72 127
f 127 72 74
f 127 74 128
f 128 74 76
f 128 76 129
f 129 76 78
f 129 78 130
f 130 78 57
f 130 57 131
f 131 57 59
f 131 59 132
f 132 59 61
f 132 61 133
f 133 61 63
f 133 63 134
f 134 63 65
f 134 65 135
f 136 137 138
f 139 140 141
f 142 143 144
f 144 143 145
f 144 145 146
f 147 56 148
f 148 56 149
f 148 149 150
f 150 149 144
f 150 144 151
f 151 144 146
f 152 153 154
f 154 153 155
f 154 155 156
f 156 155 157
f 156 157 158
f 159 160 161
f 160 162 161
f 161 162 163
f 161 163 164
f 164 163 165
f 158 157 166
f 166 157 167
f 166 167 168
f 168 167 169
f 168 169 170
f 171 172 173
f 173 172 174
f 173 174 175
f 176 177 178
f 178 177 179
f 178 179 180
f 170 169 180
f 180 169 181
f 180 181 178
f 182 183 137
f 183 184 137
f 137 184 185
f 137 185 186
f 186 187 137
f 137 187 188
f 137 188 138
f 138 188 189
f 138 189 190
f 137 191 182
f 182 191 10
f 182 10 192
f 141 142 139
f 139 142 144
f 139 144 193
f 193 144 194
f 193 194 195
f 195 194 196
f 195 196 197
f 197 196 198
f 197 198 199
f 199 198 200
f 152 159 153
f 153 159 161
f 153 161 201
f 201 161 202
f 201 202 203
f 203 202 204
f 203 204 205
f 205 204 206
f 205 206 207
f 207 206 208
f 207 208 209
f 209 208 210
f 209 210 200
f 200 210 211
f 200 211 199
f 171 176 172
f 172 176 178
f 172 178 212
f 212 178 213
f 212 213 214
f 214 213 215
f 214 215 216
f 216 215 217
f 216 217 218
f 218 217 219
f 218 219 220
f 220 219 221
f 220 221 222
f 222 221 223
f 222 223 224
f 224 223 225
f 224 225 226
f 226 225 227
f 226 227 228
f 228 227 136
f 228 136 229
f 229 136 138
f 230 231 232
f 233 234 235
f 236 237 238
f 239 238 240
f 236 238 241
f 238 239 241
f 241 239 242
f 241 242 243
f 235 234 242
f 242 234 244
f 242 244 243
f 233 235 245
f 245 235 246
f 245 246 247
f 247 246 248
f 247 248 249
f 250 251 248
f 248 251 252
f 248 252 249
f 253 254 250
f 250 254 255
f 250 255 251
f 256 257 258
f 258 257 259
f 258 259 253
f 253 259 260
f 253 260 254
f 256 258 261
f 261 258 262
f 261 262 263
f 263 262 264
f 263 264 265
f 266 267 268
f 268 269 266
f 266 269 270
f 266 270 264
f 264 270 271
f 264 271 265
f 272 273 274
f 274 273 275
f 274 275 276
f 276 275 277
f 276 277 267
f 267 277 278
f 267 278 268
f 279 280 272
f 272 280 281
f 272 281 273
f 279 272 282
f 282 272 283
f 282 283 284
f 284 283 285
f 284 285 286
f 232 231 285
f 285 231 287
f 285 287 286
f 230 232 288
f 288 232 289
f 288 289 290
f 290 289 291
f 290 291 292
f 293 294 295
f 293 295 296
f 295 297 296
f 296 297 298
f 296 298 291
f 291 298 299
f 291 299 292
f 294 293 300
f 300 293 301
f 300 301 302
f 302 301 303
f 303 301 304
f 303 304 305
f 306 307 304
f 304 307 308
f 304 308 305
f 309 310 311
f 312 313 314
f 314 313 315
f 314 315 316
f 316 315 317
f 316 317 318
f 318 317 319
f 318 319 309
f 309 319 320
f 309 320 310
f 310 320 321
f 312 314 322
f 322 314 323
f 322 323 324
f 324 323 325
f 324 325 326
f 326 325 327
f 326 327 328
f 329 330 331
f 331 330 332
f 331 332 327
f 327 332 333
f 327 333 328
f 334 335 336
f 336 335 337
f 336 337 338
f 338 337 339
f 338 339 329
f 329 339 340
f 329 340 330
f 334 336 341
f 341 336 342
f 341 342 343
f 343 342 344
f 343 344 345
f 345 344 346
f 345 346 347
f 347 346 348
f 348 346 349
f 348 349 350
f 351 352 353
f 353 352 354
f 353 354 355
f 355 354 356
f 355 356 357
f 357 356 358
f 357 358 349
f 349 358 359
f 349 359 350
f 351 353 360
f 360 353 361
f 360 361 362
f 362 361 363
f 362 363 364
f 364 363 365
f 364 365 366
f 366 365 367
f 366 367 368
f 369 370 371
f 371 370 372
f 371 372 373
f 373 372 374
f 373 374 375
f 375 374 376
f 375 376 367
f 367 376 377
f 367 377 368
f 378 369 240
f 240 369 371
f 240 371 239
f 239 371 373
f 239 373 242
f 242 373 375
f 242 375 235
f 235 375 367
f 235 367 246
f 246 367 365
f 246 365 248
f 248 365 363
f 248 363 250
f 250 363 361
f 250 361 253
f 253 361 353
f 253 353 258
f 258 353 355
f 258 355 262
f 262 355 357
f 262 357 264
f 264 357 349
f 264 349 266
f 266 349 346
f 266 346 267
f 267 346 344
f 267 344 276
f 276 344 342
f 276 342 274
f 274 342 336
f 274 336 272
f 272 336 338
f 272 338 283
f 283 338 329
f 283 329 285
f 285 329 331
f 285 331 232
f 232 331 327
f 232 327 289
f 289 327 325
f 289 325 291
f 291 325 323
f 291 323 296
f 296 323 314
f 296 314 293
f 293 314 316
f 293 316 301
f 301 316 318
f 301 318 304
f 304 318 309
f 304 309 306
f 306 309 311
f 306 311 307
f 307 311 379
f 380 381 382
f 381 383 384
f 383 385 386
f 385 387 388
f 387 389 390
f 387 390 388
f 388 390 391
f 388 391 392
f 391 393 392
f 392 393 394
f 392 394 395
f 394 396 395
f 395 396 397
f 395 397 398
f 398 397 399
f 398 399 400
f 400 399 401
f 400 401 402
f 402 401 403
f 403 404 402
f 402 404 405
f 402 405 406
f 406 405 407
f 406 407 408
f 408 407 409
f 408 409 410
f 410 409 411
f 412 413 414
f 414 413 415
f 414 415 416
f 416 415 417
f 416 417 418
f 418 417 419
f 418 419 420
f 420 419 410
f 420 410 421
f 421 410 411
f 422 423 412
f 412 423 424
f 412 424 413
f 422 425 423
f 423 425 426
f 423 426 427
f 427 426 428
f 427 428 429
f 429 428 430
f 429 430 431
f 430 432 431
f 431 432 433
f 431 433 434
f 433 435 434
f 434 435 436
f 434 436 437
f 437 436 438
f 437 438 439
f 439 438 440
f 439 440 441
f 441 440 442
f 442 443 441
f 441 443 444
f 441 444 445
f 445 444 446
f 445 446 447
f 447 446 448
f 447 448 449
f 449 448 450
f 450 451 449
f 449 451 452
f 449 452 453
f 385 388 386
f 386 388 392
f 386 392 454
f 454 392 395
f 454 395 455
f 455 395 398
f 455 398 456
f 456 398 400
f 456 400 457
f 457 400 402
f 457 402 458
f 458 402 406
f 458 406 459
f 459 406 408
f 459 408 460
f 460 408 410
f 460 410 461
f 461 410 419
f 461 419 462
f 462 419 417
f 462 417 463
f 463 417 415
f 463 415 464
f 464 415 413
f 464 413 465
f 465 413 424
f 465 424 466
f 466 424 423
f 466 423 467
f 467 423 427
f 467 427 468
f 468 427 429
f 468 429 469
f 469 429 431
f 469 431 470
f 470 431 434
f 470 434 471
f 471 434 437
f 471 437 472
f 472 437 439
f 472 439 473
f 473 439 441
f 473 441 474
f 474 441 445
f 474 445 475
f 475 445 447
f 475 447 476
f 476 447 449
f 476 449 477
f 477 449 453
f 477 453 478
f 383 386 384
f 384 386 454
f 384 454 479
f 479 454 455
f 479 455 480
f 480 455 456
f 480 456 481
f 481 456 457
f 481 457 482
f 482 457 458
f 482 458 483
f 483 458 459
f 483 459 484
f 484 459 460
f 484 460 485
f 485 460 461
f 485 461 486
f 486 461 462
f 486 462 487
f 487 462 463
f 487 463 488
f 488 463 464
f 488 464 489
f 489 464 465
f 489 465 490
f 490 465 466
f 490 466 491
f 491 466 467
f 491 467 492
f 492 467 468
f 492 468 493
f 493 468 469
f 493 469 494
f 494 469 470
f 494 470 495
f 495 470 471
f 495 471 496
f 496 471 472
f 496 472 497
f 497 472 473
f 497 473 498
f 498 473 474
f 498 474 499
f 499 474 475
f 499 475 500
f 500 475 476
f 500 476 501
f 501 476 477
f 501 477 502
f 502 477 478
f 502 478 503
f 381 384 382
f 382 384 479
f 382 479 504
f 504 479 480
f 504 480 505
f 505 480 481
f 505 481 506
f 506 481 482
f 506 482 507
f 507 482 483
f 507 483 508
f 508 483 484
f 508 484 509
f 509 484 485
f 509 485 510
f 510 485 486
f 510 486 511
f 511 486 487
f 511 487 512
f 512 487 488
f 512 488 513
f 513 488 489
f 513 489 514
f 514 489 490
f 514 490 515
f 515 490 491
f 515 491 516
f 516 491 492
f 516 492 517
f 517 492 493
f 517 493 518
f 518 493 494
f 518 494 519
f 519 494 495
f 519 495 520
f 520 495 496
f 520 496 521
f 521 496 497
f 521 497 522
f 522 497 498
f 522 498 523
f 523 498 499
f 523 499 524
f 524 499 500
f 524 500 525
f 525 500 501
f 525 501 526
f 526 501 502
f 526 502 527
f 527 502 503
f 527 503 528
f 380 382 529
f 529 382 504
f 529 504 530
f 530 504 505
f 530 505 531
f 531 505 506
f 531 506 532
f 532 506 507
f 532 507 533
f 533 507 508
f 533 508 534
f 534 508 509
f 534 509 535
f 535 509 510
f 535 510 536
f 536 510 511
f 536 511 537
f 537 511 512
f 537 512 538
f 538 512 513
f 538 513 539
f 539 513 514
f 539 514 540
f 540 514 515
f 540 515 541
f 541 515 516
f 541 516 542
f 542 516 517
f 542 517 543
f 543 517 518
f 543 518 544
f 544 518 519
f 544 519 545
f 545 519 520
f 545 520 546
f 546 520 521
f 546 521 547
f 547 521 522
f 547 522 548
f 548 522 523
f 548 523 549
f 549 523 524
f 549 524 550
f 550 524 525
f 550 525 551
f 551 525 526
f 551 526 552
f 552 526 527
f 552 527 553
f 553 527 528
f 553 528 554
f 555 556 557
f 376 374 414
f 368 377 418
f 418 377 376
f 418 376 416
f 416 376 414
f 394 348 396
f 396 348 350
f 368 418 366
f 366 418 420
f 366 420 364
f 364 420 421
f 364 421 362
f 362 421 411
f 362 411 360
f 360 411 409
f 360 409 351
f 351 409 407
f 351 407 352
f 352 407 405
f 352 405 354
f 354 405 404
f 354 404 356
f 356 404 403
f 356 403 358
f 358 403 401
f 358 401 359
f 359 401 399
f 359 399 350
f 350 399 397
f 350 397 396
f 558 339 337
f 558 337 559
f 559 337 335
f 559 335 389
f 389 335 334
f 389 334 390
f 390 334 341
f 390 341 391
f 391 341 343
f 391 343 393
f 393 343 345
f 393 345 394
f 394 345 347
f 394 347 348
f 339 558 340
f 340 558 560
f 340 560 330
f 330 560 561
f 330 561 332
f 561 562 332
f 332 562 563
f 332 563 333
f 333 563 564
f 333 564 328
f 328 564 565
f 328 565 326
f 326 565 566
f 326 566 324
f 324 566 567
f 324 567 322
f 322 567 568
f 322 568 312
f 312 568 569
f 312 569 313
f 313 569 570
f 313 570 315
f 571 317 572
f 572 317 315
f 572 315 573
f 573 315 570
f 574 321 575
f 575 321 320
f 575 320 571
f 571 320 319
f 571 319 317
f 557 576 555
f 555 576 577
f 555 577 574
f 574 577 578
f 574 578 321
f 579 580 581
f 582 583 584
f 585 586 587
f 588 589 590
f 591 592 593
f 594 595 596
f 597 598 599
f 600 601 602
f 603 604 605
f 606 607 608
f 609 610 611
f 609 611 612
f 600 602 613
f 593 614 615
f 615 614 616
f 615 616 611
f 611 616 617
f 611 617 612
f 618 619 620
f 620 619 621
f 620 621 602
f 602 621 622
f 602 622 613
f 594 596 623
f 624 623 614
f 614 623 596
f 614 596 616
f 616 596 625
f 616 625 617
f 617 625 626
f 617 626 612
f 612 626 627
f 593 592 614
f 614 592 628
f 614 628 624
f 629 630 631
f 631 630 632
f 632 591 631
f 631 591 593
f 631 593 633
f 633 593 615
f 633 615 634
f 634 615 611
f 634 611 635
f 635 611 610
f 589 629 590
f 590 629 631
f 590 631 636
f 636 631 633
f 636 633 608
f 608 633 634
f 608 634 606
f 606 634 635
f 637 638 639
f 639 638 640
f 640 588 639
f 639 588 590
f 639 590 641
f 641 590 636
f 641 636 642
f 642 636 608
f 642 608 643
f 643 608 607
f 586 637 587
f 587 637 639
f 587 639 644
f 644 639 641
f 644 641 605
f 605 641 642
f 605 642 603
f 603 642 643
f 604 645 605
f 605 645 646
f 605 646 644
f 644 646 647
f 644 647 587
f 587 647 648
f 587 648 585
f 649 650 648
f 648 650 651
f 648 651 585
f 652 649 619
f 619 649 648
f 619 648 621
f 621 648 647
f 621 647 622
f 622 647 646
f 622 646 613
f 613 646 645
f 653 654 618
f 618 654 655
f 618 655 619
f 619 655 656
f 619 656 652
f 583 653 584
f 584 653 618
f 584 618 657
f 657 618 620
f 657 620 658
f 658 620 602
f 658 602 659
f 659 602 601
f 580 582 581
f 581 582 584
f 581 584 660
f 660 584 657
f 660 657 599
f 599 657 658
f 599 658 597
f 597 658 659
f 661 662 663
f 663 579 661
f 661 579 581
f 661 581 664
f 664 581 660
f 664 660 665
f 665 660 599
f 665 599 666
f 666 599 598
f 589 588 230
f 592 591 300
f 667 595 668
f 668 595 594
f 668 594 669
f 669 594 623
f 669 623 670
f 670 623 671
f 305 308 672
f 672 308 307
f 672 307 673
f 672 674 305
f 305 674 675
f 305 675 676
f 628 677 624
f 624 677 678
f 624 678 623
f 623 678 679
f 623 679 671
f 680 681 682
f 682 683 680
f 680 683 684
f 680 684 685
f 307 379 673
f 673 379 680
f 673 680 686
f 686 680 685
f 687 688 689
f 689 688 690
f 689 690 681
f 681 690 691
f 681 691 682
f 676 677 305
f 305 677 628
f 305 628 303
f 303 628 592
f 303 592 302
f 302 592 300
f 632 295 591
f 591 295 294
f 591 294 300
f 629 299 630
f 630 299 298
f 630 298 632
f 632 298 297
f 632 297 295
f 230 288 589
f 589 288 290
f 589 290 629
f 629 290 292
f 629 292 299
f 640 287 588
f 588 287 231
f 588 231 230
f 637 692 638
f 638 692 693
f 638 693 640
f 640 693 694
f 694 695 640
f 640 695 696
f 640 696 697
f 697 698 640
f 640 698 286
f 640 286 287
f 698 699 286
f 286 699 700
f 286 700 701
f 701 702 286
f 286 702 703
f 286 703 704
f 704 705 286
f 286 705 706
f 286 706 284
f 284 706 707
f 284 707 282
f 282 707 708
f 282 708 279
f 708 709 279
f 279 709 710
f 279 710 280
f 710 711 280
f 280 711 712
f 280 712 281
f 713 273 714
f 714 273 281
f 714 281 715
f 715 281 712
f 713 716 273
f 273 716 717
f 273 717 275
f 275 717 718
f 275 718 277
f 277 718 278
f 718 719 278
f 278 719 720
f 278 720 721
f 721 722 278
f 278 722 723
f 278 723 724
f 725 726 650
f 650 726 727
f 650 727 728
f 728 729 650
f 650 729 730
f 650 730 651
f 651 730 585
f 724 725 278
f 278 725 650
f 278 650 268
f 268 650 649
f 268 649 269
f 656 265 652
f 652 265 271
f 652 271 649
f 649 271 270
f 649 270 269
f 655 261 656
f 656 261 263
f 656 263 265
f 254 260 653
f 653 260 259
f 653 259 654
f 654 259 257
f 654 257 655
f 655 257 256
f 655 256 261
f 254 653 255
f 255 653 583
f 255 583 251
f 251 583 582
f 251 582 252
f 579 731 580
f 580 731 732
f 580 732 582
f 582 732 252
f 252 732 733
f 252 733 734
f 734 735 252
f 252 735 736
f 252 736 249
f 249 736 247
f 247 736 245
f 245 736 737
f 245 737 738
f 738 739 245
f 245 739 740
f 245 740 741
f 741 742 245
f 245 742 743
f 245 743 233
f 233 743 744
f 233 744 234
f 234 744 745
f 745 746 234
f 234 746 747
f 234 747 244
f 748 749 579
f 579 749 750
f 579 750 751
f 751 752 579
f 579 752 753
f 579 753 731
f 579 663 748
f 748 663 662
f 748 662 754
f 730 755 585
f 585 755 756
f 585 756 586
f 586 756 757
f 586 757 637
f 637 757 758
f 637 758 692
f 759 760 761
f 761 762 759
f 759 762 763
f 759 763 764
f 764 763 765
f 764 765 766
f 766 767 764
f 764 767 768
f 764 768 769
f 769 768 770
f 769 770 771
f 771 770 772
f 770 773 772
f 772 773 774
f 772 774 775
f 775 774 776
f 775 776 777
f 778 171 779
f 779 171 173
f 779 173 175
f 776 780 777
f 777 780 779
f 777 779 781
f 781 779 175
f 179 177 782
f 782 783 179
f 179 783 784
f 179 784 785
f 778 786 171
f 171 786 782
f 171 782 176
f 176 782 177
f 787 170 785
f 785 170 180
f 785 180 179
f 788 166 789
f 789 166 168
f 789 168 790
f 790 168 170
f 790 170 791
f 791 170 787
f 792 793 747
f 747 746 792
f 792 746 745
f 792 745 794
f 794 745 744
f 744 743 794
f 794 743 742
f 794 742 795
f 795 742 741
f 795 741 796
f 796 741 797
f 741 740 797
f 797 740 739
f 797 739 798
f 798 739 738
f 798 738 799
f 799 738 737
f 800 735 801
f 801 735 734
f 801 734 802
f 737 736 799
f 799 736 735
f 799 735 803
f 803 735 800
f 804 732 805
f 805 732 731
f 805 731 753
f 734 733 802
f 802 733 732
f 802 732 806
f 806 732 804
f 754 192 748
f 748 192 807
f 748 807 749
f 749 807 808
f 749 808 750
f 750 808 809
f 750 809 751
f 751 809 805
f 751 805 752
f 752 805 753
f 810 811 715
f 715 712 810
f 810 712 711
f 810 711 812
f 812 711 710
f 812 710 709
f 709 708 812
f 812 708 707
f 812 707 813
f 813 707 706
f 813 706 814
f 814 706 815
f 706 705 815
f 815 705 704
f 815 704 816
f 816 704 703
f 816 703 817
f 818 701 819
f 819 701 700
f 819 700 820
f 703 702 817
f 817 702 701
f 817 701 821
f 821 701 818
f 822 698 823
f 823 698 697
f 823 697 696
f 700 699 820
f 820 699 698
f 820 698 824
f 824 698 822
f 757 825 758
f 758 825 826
f 758 826 692
f 692 826 827
f 692 827 693
f 693 827 828
f 693 828 694
f 694 828 823
f 694 823 695
f 695 823 696
f 829 830 688
f 688 831 829
f 829 831 832
f 829 832 833
f 833 832 834
f 834 835 833
f 833 835 836
f 833 836 837
f 837 836 838
f 837 838 839
f 839 838 840
f 838 841 840
f 840 841 842
f 840 842 843
f 843 842 844
f 843 844 845
f 845 844 846
f 140 847 141
f 141 847 848
f 141 848 142
f 846 849 845
f 845 849 847
f 845 847 850
f 850 847 140
f 145 851 146
f 146 851 852
f 146 852 853
f 848 854 142
f 142 854 851
f 142 851 143
f 143 851 145
f 667 147 855
f 855 147 148
f 855 148 856
f 856 148 150
f 856 150 857
f 857 150 151
f 857 151 858
f 858 151 146
f 858 146 859
f 859 146 853
f 860 861 862
f 862 861 863
f 862 863 864
f 864 863 865
f 864 865 866
f 866 865 666
f 866 666 90
f 867 868 869
f 869 868 870
f 867 871 868
f 868 871 872
f 868 872 860
f 860 872 873
f 860 873 861
f 870 874 869
f 869 874 875
f 869 875 876
f 876 875 877
f 876 877 878
f 878 877 879
f 878 879 880
f 879 881 880
f 880 881 882
f 880 882 883
f 883 882 884
f 883 884 885
f 885 884 886
f 885 886 887
f 887 886 888
f 887 888 889
f 64 627 890
f 890 627 891
f 889 888 891
f 891 888 892
f 891 892 890
f 80 610 58
f 58 610 609
f 58 609 60
f 60 609 612
f 60 612 62
f 62 612 627
f 62 627 64
f 643 79 603
f 603 79 77
f 643 607 79
f 79 607 606
f 79 606 80
f 80 606 635
f 80 635 610
f 77 75 603
f 603 75 73
f 603 73 604
f 604 73 71
f 604 71 645
f 645 71 69
f 645 69 613
f 69 67 613
f 613 67 83
f 613 83 600
f 600 83 82
f 600 82 601
f 601 82 81
f 601 81 659
f 659 81 86
f 659 86 597
f 90 666 89
f 89 666 598
f 597 86 598
f 598 86 88
f 598 88 89
f 671 893 894
f 671 894 670
f 670 894 895
f 670 895 669
f 669 895 896
f 669 896 668
f 668 896 147
f 668 147 667
f 897 898 677
f 677 898 899
f 677 899 678
f 678 899 893
f 678 893 679
f 679 893 671
f 677 676 897
f 897 676 675
f 897 675 900
f 900 675 674
f 900 674 901
f 672 902 674
f 674 902 903
f 674 903 901
f 672 673 902
f 902 673 686
f 902 686 904
f 904 686 685
f 904 685 905
f 905 685 684
f 905 684 906
f 906 684 907
f 907 684 683
f 907 683 908
f 908 683 682
f 908 682 909
f 688 830 690
f 690 830 909
f 690 909 691
f 691 909 682
f 729 910 911
f 729 911 730
f 730 911 912
f 730 912 755
f 755 912 913
f 755 913 756
f 756 913 825
f 756 825 757
f 914 915 726
f 726 915 916
f 726 916 727
f 727 916 910
f 727 910 728
f 728 910 729
f 723 917 918
f 918 919 723
f 723 919 920
f 723 920 724
f 724 920 914
f 724 914 725
f 725 914 726
f 723 722 917
f 917 722 721
f 917 721 921
f 921 721 720
f 921 720 922
f 922 720 719
f 716 923 717
f 717 923 924
f 717 924 718
f 718 924 925
f 718 925 719
f 719 925 926
f 719 926 922
f 715 811 714
f 714 811 923
f 714 923 713
f 713 923 716
f 927 185 184
f 927 184 928
f 928 184 183
f 928 183 929
f 929 183 182
f 929 182 930
f 930 182 192
f 930 192 754
f 188 187 931
f 931 187 186
f 931 186 932
f 932 186 185
f 932 185 933
f 933 185 927
f 931 934 188
f 188 934 935
f 188 935 189
f 189 935 936
f 189 936 190
f 937 938 936
f 936 938 939
f 936 939 190
f 937 940 938
f 938 940 941
f 938 941 942
f 942 941 943
f 942 943 944
f 944 943 945
f 944 945 946
f 946 945 947
f 947 945 948
f 947 948 949
f 949 948 950
f 949 950 951
f 747 793 952
f 952 793 951
f 952 951 953
f 953 951 950
f 954 152 154
f 954 154 955
f 955 154 156
f 955 156 956
f 956 156 158
f 956 158 957
f 957 158 166
f 957 166 788
f 162 160 958
f 958 160 159
f 958 159 959
f 959 159 152
f 959 152 960
f 960 152 954
f 961 962 963
f 963 165 961
f 961 165 163
f 961 163 964
f 964 163 162
f 964 162 965
f 965 162 958
f 961 966 962
f 962 966 967
f 962 967 968
f 968 967 969
f 968 969 970
f 970 969 971
f 970 971 972
f 972 971 973
f 973 971 974
f 973 974 975
f 975 974 976
f 975 976 977
f 761 760 978
f 978 760 977
f 978 977 979
f 979 977 976
f 754 662 980
f 956 957 981
f 981 957 788
f 981 788 982
f 982 788 983
f 984 976 985
f 985 976 974
f 985 974 986
f 974 971 986
f 986 971 969
f 986 969 967
f 967 966 986
f 986 966 961
f 986 961 964
f 959 987 958
f 958 987 965
f 959 960 987
f 987 960 954
f 987 954 955
f 956 981 955
f 955 981 988
f 955 988 987
f 989 765 763
f 989 763 990
f 763 762 990
f 990 762 761
f 990 761 991
f 991 761 978
f 991 978 984
f 984 978 979
f 984 979 976
f 788 789 983
f 983 789 790
f 983 790 992
f 992 790 791
f 992 791 993
f 993 791 787
f 787 785 993
f 993 785 784
f 993 784 783
f 779 780 994
f 783 782 993
f 993 782 786
f 993 786 994
f 994 786 778
f 994 778 779
f 780 776 994
f 994 776 774
f 994 774 773
f 773 770 994
f 994 770 768
f 994 768 995
f 995 768 767
f 995 767 989
f 989 767 766
f 989 766 765
f 927 928 996
f 996 928 929
f 996 929 980
f 980 929 930
f 980 930 754
f 940 937 997
f 997 937 998
f 937 936 998
f 998 936 935
f 998 935 934
f 999 931 1000
f 1000 931 932
f 1000 932 996
f 996 932 933
f 996 933 927
f 236 241 950
f 950 948 236
f 236 948 945
f 236 945 943
f 997 237 940
f 940 237 236
f 940 236 941
f 941 236 943
f 244 747 243
f 243 747 952
f 243 952 241
f 241 952 953
f 241 953 950
f 1001 1002 1003
f 1003 1002 1004
f 1003 1004 1005
f 994 1006 993
f 993 1006 1007
f 993 1007 1008
f 1008 1007 1009
f 1008 1009 1010
f 1010 1009 1011
f 1010 1011 1001
f 1001 1011 1012
f 1001 1012 1002
f 964 965 986
f 986 965 987
f 986 987 1013
f 1013 987 1014
f 1015 1016 1014
f 1014 1016 1017
f 1014 1017 1013
f 1018 1019 1020
f 1020 1019 1021
f 1020 1021 1022
f 1022 1021 1023
f 1022 1023 1015
f 1015 1023 1024
f 1015 1024 1016
f 1025 1026 1018
f 1018 1026 1027
f 1018 1027 1019
f 1028 1029 1030
f 1030 1029 1031
f 1030 1031 1025
f 1025 1031 1032
f 1025 1032 1026
f 1033 852 1034
f 1034 852 851
f 1034 851 1028
f 1028 851 1029
f 1029 851 854
f 1029 854 848
f 848 847 1029
f 1029 847 849
f 1029 849 1035
f 1035 849 1036
f 1036 849 1037
f 1037 849 846
f 1037 846 844
f 844 842 1037
f 1037 842 841
f 1037 841 838
f 838 836 1037
f 1037 836 835
f 1037 835 1038
f 1038 835 834
f 1038 834 832
f 832 831 1038
f 1038 831 688
f 1038 688 687
f 855 856 1033
f 1033 856 857
f 1033 857 858
f 858 859 1033
f 1033 859 853
f 1033 853 852
f 1033 1039 855
f 855 1039 595
f 855 595 667
f 934 931 998
f 998 931 999
f 998 999 1040
f 1040 999 1041
f 1004 1042 1005
f 1005 1042 1043
f 1005 1043 1044
f 1044 1043 1045
f 1044 1045 1041
f 1041 1045 1046
f 1041 1046 1040
f 1047 907 908
f 1048 973 975
f 543 947 949
f 1049 1050 810
f 1047 908 1051
f 1051 908 909
f 1051 909 1052
f 1052 909 830
f 1052 830 1053
f 1053 830 829
f 1053 829 1054
f 1048 975 1055
f 1055 975 977
f 1055 977 554
f 554 977 760
f 554 760 553
f 553 760 759
f 553 759 552
f 543 949 542
f 542 949 951
f 542 951 541
f 541 951 793
f 541 793 540
f 540 793 792
f 540 792 539
f 810 1050 811
f 811 1050 380
f 811 380 923
f 923 380 529
f 923 529 924
f 924 529 530
f 924 530 925
f 810 812 1049
f 1049 812 813
f 1049 813 1056
f 1056 813 814
f 1056 814 815
f 907 1047 906
f 906 1047 1057
f 906 1057 905
f 829 833 1054
f 1054 833 837
f 1054 837 1058
f 1058 837 839
f 1058 839 840
f 973 1048 972
f 972 1048 1059
f 972 1059 970
f 759 764 552
f 552 764 769
f 552 769 551
f 551 769 771
f 551 771 772
f 947 543 946
f 946 543 544
f 946 544 944
f 792 794 539
f 539 794 795
f 539 795 538
f 538 795 796
f 538 796 797
f 925 530 926
f 926 530 531
f 926 531 922
f 904 905 1060
f 1060 905 1057
f 1060 1057 1061
f 1061 1057 1062
f 1061 1062 1063
f 1063 1062 1064
f 1063 1064 1065
f 1065 1064 1066
f 1065 1066 1067
f 1067 1066 1068
f 1067 1068 1069
f 1069 1068 1070
f 1069 1070 1071
f 1071 1070 1072
f 1071 1072 1073
f 1073 1072 1056
f 1073 1056 816
f 816 1056 815
f 968 970 1074
f 1074 970 1059
f 1074 1059 1075
f 1075 1059 1076
f 1075 1076 1077
f 1077 1076 1078
f 1077 1078 1079
f 1079 1078 1080
f 1079 1080 1081
f 1081 1080 1082
f 1081 1082 1083
f 1083 1082 1084
f 1083 1084 1085
f 1085 1084 1086
f 1085 1086 1087
f 1087 1086 1058
f 1087 1058 843
f 843 1058 840
f 921 922 1088
f 1088 922 531
f 1088 531 1089
f 1089 531 532
f 1089 532 1090
f 1090 532 533
f 1090 533 1091
f 1091 533 534
f 1091 534 1092
f 1092 534 535
f 1092 535 1093
f 1093 535 536
f 1093 536 1094
f 1094 536 537
f 1094 537 1095
f 1095 537 538
f 1095 538 798
f 798 538 797
f 942 944 1096
f 1096 944 544
f 1096 544 1097
f 1097 544 545
f 1097 545 1098
f 1098 545 546
f 1098 546 1099
f 1099 546 547
f 1099 547 1100
f 1100 547 548
f 1100 548 1101
f 1101 548 549
f 1101 549 1102
f 1102 549 550
f 1102 550 1103
f 1103 550 551
f 1103 551 775
f 775 551 772
f 1033 1034 1104
f 1028 1030 1105
f 981 982 1106
f 1008 1010 1107
f 1044 1041 1108
f 980 662 661
f 889 891 1109
f 883 885 1110
f 869 876 1111
f 872 871 1112
f 863 861 1113
f 863 1113 865
f 883 1110 880
f 1108 1114 1115
f 1115 1114 1116
f 1115 1116 1113
f 1113 1116 1117
f 1113 1117 865
f 1118 1119 1120
f 1120 1119 1121
f 1120 1121 1110
f 1110 1121 1122
f 1110 1122 880
f 980 661 996
f 1000 996 1114
f 1114 996 661
f 1114 661 1116
f 1116 661 664
f 1116 664 1117
f 1117 664 665
f 1117 665 865
f 865 665 666
f 1108 1041 1114
f 1114 1041 999
f 1114 999 1000
f 1001 1003 1123
f 1123 1003 1005
f 1005 1044 1123
f 1123 1044 1108
f 1123 1108 1124
f 1124 1108 1115
f 1124 1115 1125
f 1125 1115 1113
f 1125 1113 873
f 873 1113 861
f 1010 1001 1107
f 1107 1001 1123
f 1107 1123 1126
f 1126 1123 1124
f 1126 1124 1112
f 1112 1124 1125
f 1112 1125 872
f 872 1125 873
f 983 992 1127
f 1127 992 993
f 993 1008 1127
f 1127 1008 1107
f 1127 1107 1128
f 1128 1107 1126
f 1128 1126 1129
f 1129 1126 1112
f 1129 1112 867
f 867 1112 871
f 982 983 1106
f 1106 983 1127
f 1106 1127 1130
f 1130 1127 1128
f 1130 1128 1111
f 1111 1128 1129
f 1111 1129 869
f 869 1129 867
f 876 878 1111
f 1111 878 1131
f 1111 1131 1130
f 1130 1131 1132
f 1130 1132 1106
f 1106 1132 1133
f 1106 1133 981
f 1014 987 1133
f 1133 987 988
f 1133 988 981
f 1015 1014 1119
f 1119 1014 1133
f 1119 1133 1121
f 1121 1133 1132
f 1121 1132 1122
f 1122 1132 1131
f 1122 1131 880
f 880 1131 878
f 1025 1018 1118
f 1118 1018 1020
f 1118 1020 1119
f 1119 1020 1022
f 1119 1022 1015
f 1030 1025 1105
f 1105 1025 1118
f 1105 1118 1134
f 1134 1118 1120
f 1134 1120 1135
f 1135 1120 1110
f 1135 1110 887
f 887 1110 885
f 1034 1028 1104
f 1104 1028 1105
f 1104 1105 1136
f 1136 1105 1134
f 1136 1134 1109
f 1109 1134 1135
f 1109 1135 889
f 889 1135 887
f 596 595 1039
f 1039 1033 596
f 596 1033 1104
f 596 1104 625
f 625 1104 1136
f 625 1136 626
f 626 1136 1109
f 626 1109 627
f 627 1109 891
f 1137 557 556
f 556 1138 1137
f 1137 1138 1139
f 1137 1139 1140
f 1140 1139 1141
f 1141 1139 1142
f 1141 1142 1143
f 1144 1145 1146
f 1146 1145 1147
f 1142 1148 1143
f 1143 1148 1149
f 1143 1149 1150
f 1150 1149 1151
f 1150 1151 1152
f 1152 1151 1153
f 1152 1153 1154
f 1154 1153 1155
f 1154 1155 1156
f 1156 1155 1157
f 1156 1157 1158
f 1158 1157 1159
f 1158 1159 1160
f 1160 1159 1161
f 1160 1161 1162
f 1162 1161 1163
f 1162 1163 1164
f 1164 1163 1165
f 1164 1165 1166
f 1166 1165 1167
f 1166 1167 1147
f 1147 1167 1168
f 1147 1168 1146
f 450 1169 1170
f 450 1170 451
f 451 1170 1171
f 451 1171 452
f 452 1171 1172
f 452 1172 1173
f 1173 1172 1174
f 1173 1174 1175
f 1175 1174 1176
f 1175 1176 1177
f 1177 1176 1178
f 1177 1178 1144
f 1144 1178 1179
f 1144 1179 1145
f 1169 450 1180
f 1180 450 448
f 1180 448 1181
f 1181 448 446
f 1181 446 1182
f 446 444 1182
f 1182 444 443
f 1182 443 1183
f 1183 443 442
f 1183 442 1184
f 1184 442 440
f 1184 440 1185
f 1185 440 438
f 1185 438 1186
f 1186 438 436
f 1186 436 1187
f 1187 436 435
f 1187 435 1188
f 1188 435 433
f 1188 433 1189
f 1189 433 432
f 1189 432 1190
f 432 430 1190
f 1190 430 428
f 1190 428 1191
f 1191 428 426
f 1191 426 1192
f 1192 426 1193
f 1193 426 425
f 1193 425 378
f 378 425 422
f 378 422 369
f 369 422 370
f 370 422 412
f 370 412 372
f 372 412 414
f 372 414 374
f 554 528 1194
f 528 503 1195
f 503 478 1196
f 478 453 1197
f 453 452 1173
f 453 1173 1197
f 1197 1173 1175
f 1197 1175 1198
f 1175 1177 1198
f 1198 1177 1144
f 1198 1144 1199
f 1144 1146 1199
f 1199 1146 1168
f 1199 1168 1200
f 1200 1168 1167
f 1200 1167 1201
f 1201 1167 1165
f 1201 1165 1202
f 1202 1165 1163
f 1163 1161 1202
f 1202 1161 1159
f 1202 1159 1203
f 1203 1159 1157
f 1203 1157 1204
f 1204 1157 1155
f 1204 1155 1205
f 1205 1155 1153
f 1153 1151 1205
f 1205 1151 1149
f 1205 1149 1206
f 1206 1149 1148
f 1206 1148 1207
f 1148 1142 1207
f 1207 1142 1139
f 1207 1139 1208
f 555 1209 556
f 556 1209 1208
f 556 1208 1138
f 1138 1208 1139
f 574 1210 555
f 555 1210 1211
f 555 1211 1209
f 574 575 1210
f 1210 575 571
f 1210 571 1212
f 1212 571 572
f 1212 572 1213
f 1213 572 573
f 1213 573 1214
f 573 570 1214
f 1214 570 569
f 1214 569 1215
f 569 568 1215
f 1215 568 567
f 1215 567 1216
f 1216 567 566
f 1216 566 1217
f 1217 566 565
f 1217 565 1218
f 1218 565 564
f 564 563 1218
f 1218 563 562
f 1218 562 1219
f 1219 562 561
f 1219 561 1220
f 1220 561 560
f 1220 560 1221
f 1221 560 558
f 558 559 1221
f 1221 559 389
f 1221 389 387
f 478 1197 1196
f 1196 1197 1198
f 1196 1198 1222
f 1222 1198 1199
f 1222 1199 1223
f 1223 1199 1200
f 1223 1200 1224
f 1224 1200 1201
f 1224 1201 1225
f 1225 1201 1202
f 1225 1202 1226
f 1226 1202 1203
f 1226 1203 1227
f 1227 1203 1204
f 1227 1204 1228
f 1228 1204 1205
f 1228 1205 1229
f 1229 1205 1206
f 1229 1206 1230
f 1230 1206 1207
f 1230 1207 1231
f 1231 1207 1208
f 1231 1208 1232
f 1232 1208 1209
f 1232 1209 1233
f 1233 1209 1211
f 1233 1211 1234
f 1234 1211 1210
f 1234 1210 1235
f 1235 1210 1212
f 1235 1212 1236
f 1236 1212 1213
f 1236 1213 1237
f 1237 1213 1214
f 1237 1214 1238
f 1238 1214 1215
f 1238 1215 1239
f 1239 1215 1216
f 1239 1216 1240
f 1240 1216 1217
f 1240 1217 1241
f 1241 1217 1218
f 1241 1218 1242
f 1242 1218 1219
f 1242 1219 1243
f 1243 1219 1220
f 1243 1220 1244
f 1244 1220 1221
f 1244 1221 1245
f 1245 1221 387
f 1245 387 385
f 503 1196 1195
f 1195 1196 1222
f 1195 1222 1246
f 1246 1222 1223
f 1246 1223 1247
f 1247 1223 1224
f 1247 1224 1248
f 1248 1224 1225
f 1248 1225 1249
f 1249 1225 1226
f 1249 1226 1250
f 1250 1226 1227
f 1250 1227 1251
f 1251 1227 1228
f 1251 1228 1252
f 1252 1228 1229
f 1252 1229 1253
f 1253 1229 1230
f 1253 1230 1254
f 1254 1230 1231
f 1254 1231 1255
f 1255 1231 1232
f 1255 1232 1256
f 1256 1232 1233
f 1256 1233 1257
f 1257 1233 1234
f 1257 1234 1258
f 1258 1234 1235
f 1258 1235 1259
f 1259 1235 1236
f 1259 1236 1260
f 1260 1236 1237
f 1260 1237 1261
f 1261 1237 1238
f 1261 1238 1262
f 1262 1238 1239
f 1262 1239 1263
f 1263 1239 1240
f 1263 1240 1264
f 1264 1240 1241
f 1264 1241 1265
f 1265 1241 1242
f 1265 1242 1266
f 1266 1242 1243
f 1266 1243 1267
f 1267 1243 1244
f 1267 1244 1268
f 1268 1244 1245
f 1268 1245 1269
f 1269 1245 385
f 1269 385 383
f 528 1195 1194
f 1194 1195 1246
f 1194 1246 1270
f 1270 1246 1247
f 1270 1247 1271
f 1271 1247 1248
f 1271 1248 1272
f 1272 1248 1249
f 1272 1249 1273
f 1273 1249 1250
f 1273 1250 1274
f 1274 1250 1251
f 1274 1251 1275
f 1275 1251 1252
f 1275 1252 1276
f 1276 1252 1253
f 1276 1253 1277
f 1277 1253 1254
f 1277 1254 1278
f 1278 1254 1255
f 1278 1255 1279
f 1279 1255 1256
f 1279 1256 1280
f 1280 1256 1257
f 1280 1257 1281
f 1281 1257 1258
f 1281 1258 1282
f 1282 1258 1259
f 1282 1259 1283
f 1283 1259 1260
f 1283 1260 1284
f 1284 1260 1261
f 1284 1261 1285
f 1285 1261 1262
f 1285 1262 1286
f 1286 1262 1263
f 1286 1263 1287
f 1287 1263 1264
f 1287 1264 1288
f 1288 1264 1265
f 1288 1265 1289
f 1289 1265 1266
f 1289 1266 1290
f 1290 1266 1267
f 1290 1267 1291
f 1291 1267 1268
f 1291 1268 1292
f 1292 1268 1269
f 1292 1269 1293
f 1293 1269 383
f 1293 383 381
f 554 1194 1055
f 1055 1194 1270
f 1055 1270 1048
f 1048 1270 1271
f 1048 1271 1059
f 1059 1271 1272
f 1059 1272 1076
f 1076 1272 1273
f 1076 1273 1078
f 1078 1273 1274
f 1078 1274 1080
f 1080 1274 1275
f 1080 1275 1082
f 1082 1275 1276
f 1082 1276 1084
f 1084 1276 1277
f 1084 1277 1086
f 1086 1277 1278
f 1086 1278 1058
f 1058 1278 1279
f 1058 1279 1054
f 1054 1279 1280
f 1054 1280 1053
f 1053 1280 1281
f 1053 1281 1052
f 1052 1281 1282
f 1052 1282 1051
f 1051 1282 1283
f 1051 1283 1047
f 1047 1283 1284
f 1047 1284 1057
f 1057 1284 1285
f 1057 1285 1062
f 1062 1285 1286
f 1062 1286 1064
f 1064 1286 1287
f 1064 1287 1066
f 1066 1287 1288
f 1066 1288 1068
f 1068 1288 1289
f 1068 1289 1070
f 1070 1289 1290
f 1070 1290 1072
f 1072 1290 1291
f 1072 1291 1056
f 1056 1291 1292
f 1056 1292 1049
f 1049 1292 1293
f 1049 1293 1050
f 1050 1293 381
f 1050 381 380
f 680 379 311
f 680 311 681
f 687 1294 1038
f 1038 1294 1295
f 1038 1295 1037
f 1037 1295 1296
f 1037 1296 1036
f 1036 1296 1297
f 1036 1297 1035
f 1019 1027 1298
f 1298 1027 1026
f 1298 1026 1299
f 1299 1026 1032
f 1299 1032 1300
f 1300 1032 1031
f 1300 1031 1297
f 1297 1031 1029
f 1297 1029 1035
f 1019 1298 1021
f 1021 1298 1301
f 1021 1301 1023
f 1023 1301 1302
f 1023 1302 1024
f 1024 1302 1303
f 1024 1303 1016
f 1304 986 1305
f 1305 986 1013
f 1305 1013 1303
f 1303 1013 1017
f 1303 1017 1016
f 989 990 1306
f 1306 990 991
f 1306 991 1307
f 1307 991 984
f 1307 984 1304
f 1304 984 985
f 1304 985 986
f 989 1306 995
f 995 1306 1308
f 995 1308 994
f 994 1308 1309
f 994 1309 1006
f 1006 1309 1310
f 1006 1310 1007
f 1042 1004 1311
f 1311 1004 1002
f 1311 1002 1312
f 1312 1002 1012
f 1312 1012 1313
f 1313 1012 1011
f 1313 1011 1310
f 1310 1011 1009
f 1310 1009 1007
f 1042 1311 1043
f 1043 1311 1314
f 1043 1314 1045
f 1045 1314 1315
f 1045 1315 1046
f 1046 1315 1316
f 1046 1316 1040
f 1317 997 1316
f 1316 997 998
f 1316 998 1040
f 1318 240 238
f 1188 1189 1319
f 1319 1189 1190
f 1319 1190 1320
f 1320 1190 1191
f 1320 1191 1321
f 1321 1191 1192
f 1321 1192 1318
f 1318 1192 1193
f 1318 1193 240
f 240 1193 378
f 1188 1319 1187
f 1187 1319 1322
f 1187 1322 1186
f 1186 1322 1323
f 1186 1323 1185
f 1185 1323 1324
f 1185 1324 1184
f 1325 1181 1326
f 1326 1181 1182
f 1326 1182 1324
f 1324 1182 1183
f 1324 1183 1184
f 1172 1171 1327
f 1327 1171 1170
f 1327 1170 1328
f 1328 1170 1169
f 1328 1169 1325
f 1325 1169 1180
f 1325 1180 1181
f 1172 1327 1174
f 1174 1327 1329
f 1174 1329 1176
f 1176 1329 1330
f 1176 1330 1178
f 1178 1330 1331
f 1178 1331 1179
f 1179 1331 1145
f 1145 1331 1332
f 1145 1332 1147
f 1156 1158 1333
f 1333 1158 1160
f 1333 1160 1334
f 1334 1160 1162
f 1334 1162 1335
f 1335 1162 1164
f 1335 1164 1332
f 1332 1164 1166
f 1332 1166 1147
f 1156 1333 1154
f 1154 1333 1336
f 1154 1336 1152
f 1152 1336 1337
f 1152 1337 1150
f 1150 1337 1338
f 1150 1338 1143
f 1143 1338 1339
f 1143 1339 1141
f 578 577 1340
f 1340 577 576
f 1340 576 1341
f 1341 576 557
f 1341 557 1342
f 1342 557 1137
f 1342 1137 1339
f 1339 1137 1140
f 1339 1140 1141
f 687 689 1294
f 1294 689 681
f 1294 681 1343
f 1343 681 311
f 1343 311 310
f 321 578 310
f 310 578 1340
f 310 1340 1343
f 1343 1340 1341
f 1343 1341 1294
f 1294 1341 1342
f 1294 1342 1295
f 1295 1342 1339
f 1295 1339 1296
f 1296 1339 1338
f 1296 1338 1297
f 1297 1338 1337
f 1297 1337 1300
f 1300 1337 1336
f 1300 1336 1299
f 1299 1336 1333
f 1299 1333 1298
f 1298 1333 1334
f 1298 1334 1301
f 1301 1334 1335
f 1301 1335 1302
f 1302 1335 1332
f 1302 1332 1303
f 1303 1332 1331
f 1303 1331 1305
f 1305 1331 1330
f 1305 1330 1304
f 1304 1330 1329
f 1304 1329 1307
f 1307 1329 1327
f 1307 1327 1306
f 1306 1327 1328
f 1306 1328 1308
f 1308 1328 1325
f 1308 1325 1309
f 1309 1325 1326
f 1309 1326 1310
f 1310 1326 1324
f 1310 1324 1313
f 1313 1324 1323
f 1313 1323 1312
f 1312 1323 1322
f 1312 1322 1311
f 1311 1322 1319
f 1311 1319 1314
f 1314 1319 1320
f 1314 1320 1315
f 1315 1320 1321
f 1315 1321 1316
f 1316 1321 1318
f 1316 1318 1317
f 1317 1318 238
f 1317 238 997
f 997 238 237
f 51 52 1344
f 192 10 14
f 1345 800 801
f 802 806 13
f 13 806 804
f 13 804 805
f 805 809 13
f 13 809 808
f 13 808 14
f 14 808 807
f 14 807 192
f 910 28 911
f 911 28 34
f 911 34 912
f 912 34 33
f 912 33 913
f 916 915 1346
f 915 914 1346
f 1346 914 920
f 1346 920 1347
f 1347 920 919
f 913 33 825
f 825 33 31
f 825 31 826
f 826 31 30
f 826 30 827
f 820 1348 819
f 819 1348 1349
f 819 1349 818
f 824 822 37
f 37 822 823
f 37 823 828
f 827 30 828
f 828 30 35
f 828 35 37
f 896 895 52
f 895 894 52
f 52 894 893
f 52 893 899
f 899 898 52
f 52 898 897
f 52 897 1344
f 1344 897 900
f 1344 900 901
f 52 54 896
f 896 54 56
f 896 56 147
f 801 802 1345
f 1345 802 13
f 1345 13 1350
f 1350 13 17
f 1350 17 1351
f 1351 17 16
f 1351 16 1352
f 1352 16 20
f 1352 20 1353
f 1353 20 19
f 910 916 28
f 28 916 1346
f 28 1346 29
f 29 1346 1354
f 29 1354 25
f 25 1354 1355
f 25 1355 26
f 26 1355 1356
f 26 1356 22
f 22 1356 1357
f 22 1357 23
f 23 1357 1358
f 23 1358 19
f 19 1358 1359
f 19 1359 1353
f 820 824 1348
f 1348 824 37
f 1348 37 1360
f 1360 37 39
f 1360 39 1361
f 1361 39 40
f 1361 40 1362
f 1362 40 42
f 1362 42 1363
f 1363 42 43
f 1363 43 1364
f 1364 43 45
f 1364 45 1365
f 1365 45 46
f 1365 46 1366
f 1366 46 48
f 1366 48 1367
f 1367 48 49
f 1367 49 1368
f 1368 49 51
f 1368 51 1369
f 1369 51 1344
f 1088 1347 919
f 919 1370 1088
f 1088 1370 917
f 1088 917 921
f 1359 1358 1092
f 1092 1358 1357
f 1092 1357 1091
f 1091 1357 1356
f 1091 1356 1090
f 1090 1356 1355
f 1090 1355 1089
f 1089 1355 1354
f 1089 1354 1088
f 1088 1354 1346
f 1088 1346 1347
f 1359 1092 1353
f 1353 1092 1093
f 1353 1093 1352
f 1352 1093 1094
f 1352 1094 1351
f 1351 1094 1095
f 1351 1095 1350
f 1371 1095 799
f 799 1095 798
f 1371 800 1095
f 1095 800 1345
f 1095 1345 1350
f 904 1060 902
f 902 1060 1372
f 901 1372 1344
f 1344 1372 1060
f 1344 1060 1369
f 1369 1060 1061
f 1369 1061 1368
f 1361 1362 1069
f 1069 1362 1363
f 1069 1363 1067
f 1067 1363 1364
f 1067 1364 1065
f 1065 1364 1365
f 1065 1365 1063
f 1063 1365 1366
f 1063 1366 1061
f 1061 1366 1367
f 1061 1367 1368
f 1373 1073 817
f 817 1073 816
f 1361 1069 1360
f 1360 1069 1071
f 1360 1071 1348
f 1348 1071 1073
f 1348 1073 1349
f 1349 1073 1373
f 1349 1373 818
f 1074 164 165
f 165 1374 1074
f 1074 1374 962
f 1074 962 968
f 211 210 1081
f 1081 210 208
f 1081 208 1079
f 1079 208 206
f 1079 206 1077
f 1077 206 204
f 1077 204 1075
f 1075 204 202
f 1075 202 1074
f 1074 202 161
f 1074 161 164
f 211 1081 199
f 199 1081 1083
f 199 1083 197
f 197 1083 1085
f 197 1085 195
f 195 1085 1087
f 195 1087 193
f 1375 1087 845
f 845 1087 843
f 1375 140 1087
f 1087 140 139
f 1087 139 193
f 942 1096 938
f 938 1096 1376
f 190 1376 138
f 138 1376 1096
f 138 1096 229
f 229 1096 1097
f 229 1097 228
f 214 216 1101
f 1101 216 218
f 1101 218 1100
f 1100 218 220
f 1100 220 1099
f 1099 220 222
f 1099 222 1098
f 1098 222 224
f 1098 224 1097
f 1097 224 226
f 1097 226 228
f 1377 1103 777
f 777 1103 775
f 214 1101 212
f 212 1101 1102
f 212 1102 172
f 172 1102 1103
f 172 1103 174
f 174 1103 1377
f 174 1377 175
f 56 55 1378
f 1379 144 1378
f 1378 144 149
f 1378 149 56
f 1380 196 1379
f 1379 196 194
f 1379 194 144
f 1381 200 1380
f 1380 200 198
f 1380 198 196
f 1382 207 1381
f 1381 207 209
f 1381 209 200
f 1383 203 1382
f 1382 203 205
f 1382 205 207
f 1384 153 1383
f 1383 153 201
f 1383 201 203
f 169 167 1385
f 1385 167 157
f 1385 157 1384
f 1384 157 155
f 1384 155 153
f 169 1385 181
f 181 1385 1386
f 181 1386 178
f 178 1386 1387
f 178 1387 213
f 213 1387 215
f 215 1387 1388
f 215 1388 217
f 217 1388 219
f 219 1388 1389
f 219 1389 221
f 221 1389 223
f 223 1389 1390
f 223 1390 225
f 225 1390 227
f 227 1390 1391
f 227 1391 136
f 136 1391 137
f 137 1391 1392
f 137 1392 191
f 191 1392 8
f 191 8 10
f 1393 862 1394
f 1394 862 864
f 1394 864 1395
f 1395 864 866
f 1395 866 1396
f 1396 866 90
f 1396 90 2
f 1397 881 1398
f 1398 881 879
f 1398 879 1399
f 1399 879 877
f 1399 877 1400
f 1400 877 875
f 1400 875 1401
f 1401 875 874
f 1401 874 1402
f 1402 874 870
f 1402 870 1403
f 1403 870 868
f 1403 868 1393
f 1393 868 860
f 1393 860 862
f 886 884 1397
f 1397 884 882
f 1397 882 881
f 1397 1404 886
f 886 1404 1405
f 886 1405 888
f 888 1405 1406
f 888 1406 892
f 892 1406 1407
f 892 1407 890
f 64 890 65
f 65 890 1407
f 65 1407 135
f 120 135 1408
f 105 120 1409
f 55 105 1410
f 55 1410 1378
f 1378 1410 1411
f 1378 1411 1379
f 1379 1411 1412
f 1379 1412 1380
f 1380 1412 1413
f 1380 1413 1381
f 1381 1413 1414
f 1381 1414 1382
f 1382 1414 1415
f 1382 1415 1383
f 1383 1415 1416
f 1383 1416 1384
f 1384 1416 1417
f 1384 1417 1385
f 1385 1417 1418
f 1385 1418 1386
f 1386 1418 1419
f 1386 1419 1387
f 1387 1419 1420
f 1387 1420 1388
f 1388 1420 1421
f 1388 1421 1389
f 1389 1421 1422
f 1389 1422 1390
f 1390 1422 1423
f 1390 1423 1391
f 1391 1423 1424
f 1391 1424 1392
f 1392 1424 6
f 1392 6 8
f 105 1409 1410
f 1410 1409 1425
f 1410 1425 1411
f 1411 1425 1426
f 1411 1426 1412
f 1412 1426 1427
f 1412 1427 1413
f 1413 1427 1428
f 1413 1428 1414
f 1414 1428 1429
f 1414 1429 1415
f 1415 1429 1430
f 1415 1430 1416
f 1416 1430 1431
f 1416 1431 1417
f 1417 1431 1432
f 1417 1432 1418
f 1418 1432 1433
f 1418 1433 1419
f 1419 1433 1434
f 1419 1434 1420
f 1420 1434 1435
f 1420 1435 1421
f 1421 1435 1436
f 1421 1436 1422
f 1422 1436 1437
f 1422 1437 1423
f 1423 1437 1438
f 1423 1438 1424
f 1424 1438 4
f 1424 4 6
f 120 1408 1409
f 1409 1408 1439
f 1409 1439 1425
f 1425 1439 1440
f 1425 1440 1426
f 1426 1440 1441
f 1426 1441 1427
f 1427 1441 1442
f 1427 1442 1428
f 1428 1442 1443
f 1428 1443 1429
f 1429 1443 1444
f 1429 1444 1430
f 1430 1444 1445
f 1430 1445 1431
f 1431 1445 1446
f 1431 1446 1432
f 1432 1446 1447
f 1432 1447 1433
f 1433 1447 1448
f 1433 1448 1434
f 1434 1448 1449
f 1434 1449 1435
f 1435 1449 1450
f 1435 1450 1436
f 1436 1450 1451
f 1436 1451 1437
f 1437 1451 1452
f 1437 1452 1438
f 1438 1452 1
f 1438 1 4
f 135 1407 1408
f 1408 1407 1406
f 1408 1406 1439
f 1439 1406 1405
f 1439 1405 1440
f 1440 1405 1404
f 1440 1404 1441
f 1441 1404 1397
f 1441 1397 1442
f 1442 1397 1398
f 1442 1398 1443
f 1443 1398 1399
f 1443 1399 1444
f 1444 1399 1400
f 1444 1400 1445
f 1445 1400 1401
f 1445 1401 1446
f 1446 1401 1402
f 1446 1402 1447
f 1447 1402 1403
f 1447 1403 1448
f 1448 1403 1393
f 1448 1393 1449
f 1449 1393 1394
f 1449 1394 1450
f 1450 1394 1395
f 1450 1395 1451
f 1451 1395 1396
f 1451 1396 1452
f 1452 1396 2
f 1452 2 1

