# https://github.com/mikedh/trimesh
v 0.00002094 -0.00111283 -0.00056926
v 0.00002094 -0.00118096 -0.00040964
v 0.00032996 -0.00122720 -0.00042568
v 0.00002094 -0.00124895 -0.00005107
v 0.00002094 -0.00123606 0.00018611
v 0.00032996 -0.00128446 0.00019340
v 0.00102094 -0.00216328 -0.00061858
v 0.00102094 -0.00212573 -0.00073736
v 0.00097200 -0.00183378 -0.00063609
v 0.00102094 0.00098824 -0.00202134
v 0.00102094 0.00144327 -0.00172610
v 0.00097200 0.00085252 -0.00174372
v 0.00097200 0.00124505 -0.00148904
v 0.00082996 0.00073008 -0.00149328
v 0.00082996 0.00106623 -0.00127517
v 0.00060873 0.00063291 -0.00129453
v 0.00060873 0.00092433 -0.00110545
v 0.00032996 0.00057052 -0.00116693
v 0.00102094 -0.00153956 -0.00164078
v 0.00102094 -0.00110216 -0.00196154
v 0.00097200 -0.00132812 -0.00141543
v 0.00097200 -0.00095079 -0.00169214
v 0.00082996 -0.00113737 -0.00121214
v 0.00082996 -0.00081423 -0.00144911
v 0.00060873 -0.00098599 -0.00105081
v 0.00060873 -0.00070586 -0.00125624
v 0.00032996 -0.00088880 -0.00094723
v 0.00032996 -0.00063628 -0.00113241
v 0.00002094 -0.00085531 -0.00091154
v 0.00102094 -0.00060070 -0.00216831
v 0.00102094 -0.00006433 -0.00224906
v 0.00097200 -0.00051820 -0.00187051
v 0.00097200 -0.00005549 -0.00194017
v 0.00082996 -0.00044377 -0.00160186
v 0.00082996 -0.00004752 -0.00166152
v 0.00060873 -0.00038471 -0.00138866
v 0.00060873 -0.00004119 -0.00144037
v 0.00032996 -0.00034678 -0.00125178
v 0.00032996 -0.00003713 -0.00129839
v 0.00102094 0.00047578 -0.00219910
v 0.00097200 0.00041044 -0.00189707
v 0.00082996 0.00035149 -0.00162461
v 0.00060873 0.00030471 -0.00140838
v 0.00032996 0.00027468 -0.00126955
v 0.00102094 0.00181442 -0.00133055
v 0.00102094 0.00208012 -0.00085767
v 0.00097200 0.00156523 -0.00114781
v 0.00097200 0.00179444 -0.00073987
v 0.00082996 0.00134043 -0.00098296
v 0.00082996 0.00153672 -0.00063361
v 0.00060873 0.00116202 -0.00085213
v 0.00060873 0.00133219 -0.00054928
v 0.00032996 0.00104748 -0.00076813
v 0.00032996 0.00120087 -0.00049513
v 0.00102094 -0.00208010 0.00085771
v 0.00102094 -0.00222492 0.00033498
v 0.00097200 -0.00179442 0.00073991
v 0.00097200 -0.00191935 0.00028898
v 0.00082996 -0.00153670 0.00063365
v 0.00082996 -0.00164368 0.00024748
v 0.00060873 -0.00133217 0.00054931
v 0.00060873 -0.00142492 0.00021454
v 0.00032996 -0.00120086 0.00049517
v 0.00002094 -0.00115561 0.00047651
v 0.00002094 -0.00124468 -0.00011511
v 0.00032996 -0.00129341 -0.00011962
v 0.00060873 -0.00143485 -0.00013270
v 0.00082996 -0.00165514 -0.00015307
v 0.00097200 -0.00193272 -0.00017875
v 0.00102094 -0.00224043 -0.00020721
v 0.00082996 -0.00157041 -0.00054473
v 0.00060873 -0.00136139 -0.00047223
v 0.00002094 -0.00104860 -0.00068036
v 0.00032996 -0.00108966 -0.00070700
v 0.00060873 -0.00120882 -0.00078431
v 0.00082996 -0.00139441 -0.00090473
v 0.00097200 -0.00162826 -0.00105646
v 0.00102094 -0.00188750 -0.00122466
v 0.00002094 -0.00033372 -0.00120461
v 0.00002094 -0.00047649 -0.00115560
v 0.00002094 -0.00061231 -0.00108974
v 0.00002094 -0.00003573 -0.00124947
v 0.00002094 0.00026433 -0.00122172
v 0.00032996 0.00083321 -0.00099649
v 0.00002094 0.00054903 -0.00112296
v 0.00002094 0.00038819 -0.00118818
v 0.00002094 0.00100801 -0.00073919
v 0.00002094 0.00084999 -0.00091652
v 0.00002094 0.00080182 -0.00095894
v 0.00002094 0.00115563 -0.00047647
v -0.01064363 0.00579082 -0.00327222
v -0.01187852 0.00571901 -0.00328519
v -0.01194702 0.00544957 -0.00337081
v 0.00102094 0.00661014 -0.00272553
v -0.00454631 0.00650233 -0.00268107
v 0.00102094 0.00638819 -0.00308011
v -0.00460783 0.00645999 -0.00277018
v -0.00475679 0.00640326 -0.00286436
v -0.00498135 0.00634593 -0.00294077
v -0.00536551 0.00627656 -0.00301538
v 0.00102094 0.00601257 -0.00336742
v -0.00628795 0.00616110 -0.00310887
v -0.00761424 0.00602511 -0.00318901
v -0.00934675 0.00587950 -0.00324824
v 0.00102094 0.00559059 -0.00349139
v 0.00102094 0.00550571 -0.00349776
v -0.01200294 0.00525320 -0.00339377
v 0.00102094 0.00513836 -0.00345811
v -0.01202342 0.00518544 -0.00339453
v 0.00102094 0.00497814 -0.00340440
v -0.01210541 0.00493393 -0.00336523
v -0.01218292 0.00472232 -0.00329892
v 0.00102094 0.00470272 -0.00324735
v -0.01220934 0.00465455 -0.00326862
v 0.00102094 0.00453809 -0.00309878
v -0.01230192 0.00443593 -0.00313430
v -0.01237902 0.00427873 -0.00299193
v -0.01240787 0.00422504 -0.00293058
v 0.00102094 0.00426640 -0.00263706
v 0.00102094 0.00439093 -0.00290539
v -0.01269114 0.00403337 -0.00166305
v 0.00102094 0.00429891 -0.00177254
v -0.01269014 0.00400828 -0.00172920
v 0.00102094 0.00422569 -0.00202007
v -0.01267038 0.00394951 -0.00198113
v 0.00102094 0.00421298 -0.00210404
v -0.01262562 0.00394524 -0.00225095
v 0.00102094 0.00422485 -0.00247309
v -0.01256298 0.00399534 -0.00250320
v -0.01248831 0.00409165 -0.00273218
v 0.00102094 -0.00247310 -0.00422483
v 0.00102094 -0.00263707 -0.00426637
v -0.01256941 -0.00248071 -0.00398861
v 0.00102094 -0.00290540 -0.00439090
v 0.00102094 -0.00309879 -0.00453806
v -0.01237904 -0.00299194 -0.00427870
v -0.01064363 -0.00327223 -0.00579080
v -0.01187854 -0.00328520 -0.00571898
v -0.01194702 -0.00337082 -0.00544954
v 0.00102094 -0.00272554 -0.00661012
v -0.00454631 -0.00268108 -0.00650231
v 0.00102094 -0.00308013 -0.00638816
v -0.00460783 -0.00277019 -0.00645996
v -0.00475679 -0.00286437 -0.00640324
v -0.00498135 -0.00294078 -0.00634591
v -0.00536551 -0.00301540 -0.00627654
v 0.00102094 -0.00336743 -0.00601254
v -0.00628795 -0.00310888 -0.00616107
v -0.00761424 -0.00318902 -0.00602508
v -0.00934675 -0.00324826 -0.00587947
v 0.00102094 -0.00349140 -0.00559057
v 0.00102094 -0.00349777 -0.00550568
v -0.01200296 -0.00339379 -0.00525317
v 0.00102094 -0.00345812 -0.00513833
v -0.01202340 -0.00339454 -0.00518546
v 0.00102094 -0.00340441 -0.00497811
v -0.01210538 -0.00336526 -0.00493401
v -0.01218292 -0.00329893 -0.00472229
v 0.00102094 -0.00324736 -0.00470269
v -0.01220933 -0.00326867 -0.00465461
v -0.01230185 -0.00313446 -0.00443610
v -0.01248854 -0.00273158 -0.00409129
v -0.01240773 -0.00293091 -0.00422528
v -0.01269114 -0.00166306 -0.00403334
v 0.00102094 -0.00177255 -0.00429888
v -0.01269095 -0.00169185 -0.00402189
v 0.00102094 -0.00202008 -0.00422566
v 0.00102094 -0.00210405 -0.00421296
v -0.01263225 -0.00221830 -0.00394261
v -0.01267555 -0.00193643 -0.00395591
v -0.01064363 -0.00579081 0.00327225
v -0.01187852 -0.00571899 0.00328523
v -0.01194701 -0.00544956 0.00337085
v 0.00102094 -0.00661013 0.00272556
v -0.00454631 -0.00650232 0.00268111
v 0.00102094 -0.00638817 0.00308015
v -0.00460783 -0.00645997 0.00277022
v -0.00475679 -0.00640325 0.00286440
v -0.00498135 -0.00634592 0.00294080
v -0.00536551 -0.00627655 0.00301542
v 0.00102094 -0.00601256 0.00336746
v -0.00628795 -0.00616108 0.00310891
v -0.00761424 -0.00602510 0.00318905
v -0.00934675 -0.00587948 0.00324828
v 0.00102094 -0.00559058 0.00349143
v 0.00102094 -0.00550569 0.00349780
v -0.01200294 -0.00525319 0.00339381
v 0.00102094 -0.00513835 0.00345815
v -0.01202330 -0.00518580 0.00339457
v 0.00102094 -0.00497812 0.00340444
v -0.01210529 -0.00493427 0.00336535
v -0.01218291 -0.00472230 0.00329895
v 0.00102094 -0.00470270 0.00324739
v -0.01220921 -0.00465487 0.00326882
v 0.00102094 -0.00453807 0.00309882
v -0.01230180 -0.00443618 0.00313454
v -0.01237902 -0.00427871 0.00299197
v -0.01240785 -0.00422505 0.00293065
v 0.00102094 -0.00426638 0.00263710
v 0.00102094 -0.00439091 0.00290543
v -0.01269114 -0.00403335 0.00166309
v 0.00102094 -0.00429889 0.00177258
v -0.01269013 -0.00400825 0.00172929
v 0.00102094 -0.00422567 0.00202011
v -0.01267037 -0.00394948 0.00198123
v 0.00102094 -0.00421297 0.00210408
v -0.01262560 -0.00394523 0.00225106
v 0.00102094 -0.00422484 0.00247313
v -0.01256296 -0.00399534 0.00250328
v -0.01248831 -0.00409162 0.00273220
v -0.01064363 0.00327224 0.00579084
v -0.01187852 0.00328522 0.00571902
v -0.01194702 0.00337084 0.00544956
v 0.00102094 0.00272555 0.00661016
v -0.00454631 0.00268110 0.00650234
v 0.00102094 0.00308014 0.00638820
v -0.00460783 0.00277021 0.00646000
v -0.00475679 0.00286439 0.00640328
v -0.00498135 0.00294079 0.00634595
v -0.00536551 0.00301541 0.00627657
v 0.00102094 0.00336745 0.00601258
v -0.00628795 0.00310890 0.00616111
v -0.00761424 0.00318904 0.00602512
v -0.00934675 0.00324827 0.00587951
v 0.00102094 0.00349142 0.00559061
v 0.00102094 0.00349778 0.00550572
v -0.01200294 0.00339380 0.00525321
v 0.00102094 0.00345814 0.00513837
v -0.01202331 0.00339456 0.00518578
v 0.00102094 0.00340442 0.00497815
v -0.01269113 0.00166308 0.00403338
v 0.00102094 0.00177257 0.00429892
v -0.01269013 0.00172920 0.00400830
v 0.00102094 0.00202010 0.00422570
v -0.01267038 0.00198113 0.00394952
v 0.00102094 0.00210407 0.00421300
v -0.01262562 0.00225096 0.00394525
v 0.00102094 0.00247312 0.00422486
v -0.01256311 0.00250235 0.00399508
v 0.00102094 0.00263708 0.00426641
v -0.01248021 0.00275223 0.00410277
v 0.00102094 0.00290542 0.00439094
v -0.01238586 0.00297697 0.00426498
v 0.00102094 0.00309881 0.00453810
v -0.01228777 0.00315866 0.00446889
v 0.00102094 0.00324738 0.00470273
v -0.01219837 0.00328301 0.00468537
v -0.01210809 0.00336375 0.00492718
v -0.01041114 -0.00469513 -0.00739613
v -0.01041114 -0.00524871 -0.00701412
v -0.01070584 -0.00521821 -0.00697337
v -0.01041114 -0.00694160 -0.00534426
v -0.01041114 -0.00746220 -0.00458939
v -0.01070584 -0.00741884 -0.00456272
v -0.01041114 -0.00855592 0.00188235
v -0.01041114 -0.00829277 0.00282434
v -0.01070584 -0.00824458 0.00280793
v -0.01041114 -0.00405767 0.00776416
v -0.01041114 -0.00310982 0.00818999
v -0.01070584 -0.00309175 0.00814240
v -0.01041114 -0.00264779 0.00835081
v -0.01041114 -0.00205882 0.00851517
v -0.01070584 -0.00204686 0.00846569
v -0.01041114 0.00036803 0.00875280
v -0.01041114 0.00122040 0.00867511
v -0.01070584 0.00121331 0.00862470
v -0.01132989 -0.00456026 -0.00669768
v -0.01132989 -0.00400325 -0.00704478
v -0.01118673 -0.00413298 -0.00727307
v -0.01132989 -0.00569652 -0.00576234
v -0.01132989 -0.00562944 -0.00582789
v -0.01118673 -0.00581187 -0.00601675
v -0.01132989 -0.00785982 -0.00196929
v -0.01132989 -0.00774073 -0.00239501
v -0.01118673 -0.00799157 -0.00247262
v -0.01132989 -0.00804617 0.00095605
v -0.01132989 -0.00807881 0.00062273
v -0.01118673 -0.00834061 0.00064291
v -0.01132989 -0.00717951 0.00375627
v -0.01132989 -0.00728224 0.00355300
v -0.01118673 -0.00751823 0.00366814
v -0.01132989 -0.00537326 0.00606490
v -0.01132989 -0.00546291 0.00598427
v -0.01118673 -0.00563994 0.00617820
v -0.01132989 -0.00144552 0.00797279
v -0.01132989 -0.00190424 0.00787583
v -0.01118673 -0.00196595 0.00813106
v -0.01132989 0.00148574 0.00796539
v -0.01132989 0.00112877 0.00802376
v -0.01118673 0.00116535 0.00828378
v -0.01132989 0.00212551 0.00781902
v -0.01132989 -0.00090212 0.00805240
v -0.01132989 -0.00466981 0.00662177
v -0.01132989 -0.00677951 0.00443769
v -0.01132989 -0.00793706 0.00163036
v -0.01132989 -0.00797986 -0.00140595
v -0.01132989 -0.00631548 -0.00507638
v -0.01070584 0.00228470 0.00840463
v -0.01097232 0.00119440 0.00849025
v -0.01097232 0.00224909 0.00827361
v -0.01118673 0.00219439 0.00807241
v -0.01132989 0.00002045 0.00810275
v -0.01118673 -0.00093135 0.00831334
v -0.01097232 -0.00095457 0.00852055
v -0.01097232 -0.00201495 0.00833372
v -0.01070584 -0.00096968 0.00865548
v -0.01132989 -0.00418760 0.00693678
v -0.01118673 -0.00482114 0.00683635
v -0.01097232 -0.00494130 0.00700675
v -0.01097232 -0.00578051 0.00633219
v -0.01070584 -0.00501955 0.00711770
v -0.01070584 -0.00587205 0.00643246
v -0.01132989 -0.00616986 0.00525240
v -0.01118673 -0.00636980 0.00542261
v -0.01097232 -0.00652857 0.00555777
v -0.01070584 -0.00663195 0.00564578
v -0.01132989 -0.00638165 0.00499294
v -0.01118673 -0.00699921 0.00458150
v -0.01097232 -0.00717366 0.00469569
v -0.01070584 -0.00728726 0.00477005
v -0.01132989 -0.00767013 0.00261228
v -0.01118673 -0.00791869 0.00269693
v -0.01097232 -0.00770562 0.00375957
v -0.01097232 -0.00811606 0.00276415
v -0.01070584 -0.00782765 0.00381911
v -0.01132989 -0.00809315 -0.00039473
v -0.01118673 -0.00835542 -0.00040752
v -0.01097232 -0.00854849 0.00065893
v -0.01097232 -0.00856367 -0.00041768
v -0.01070584 -0.00868387 0.00066937
v -0.01070584 -0.00869929 -0.00042429
v -0.01132989 -0.00808638 -0.00051511
v -0.01118673 -0.00823846 -0.00145152
v -0.01097232 -0.00844380 -0.00148769
v -0.01070584 -0.00857751 -0.00151125
v -0.01097232 -0.00819076 -0.00253425
v -0.01070584 -0.00832047 -0.00257438
v -0.01132989 -0.00737951 -0.00334630
v -0.01132989 -0.00690192 -0.00424481
v -0.01118673 -0.00761865 -0.00345474
v -0.01118673 -0.00712559 -0.00438236
v -0.01097232 -0.00780854 -0.00354084
v -0.01097232 -0.00730319 -0.00449159
v -0.01070584 -0.00793220 -0.00359692
v -0.01132989 -0.00485463 -0.00648749
v -0.01118673 -0.00501195 -0.00669772
v -0.01097232 -0.00595673 -0.00616671
v -0.01097232 -0.00513687 -0.00686466
v -0.01070584 -0.00605106 -0.00626437
v -0.01132989 0.00308874 0.00749097
v -0.01118673 0.00318883 0.00773372
v -0.01097232 0.00326831 0.00792648
v -0.01070584 0.00332007 0.00805200
v -0.01041114 0.00333947 0.00809906
v -0.01041114 0.00229806 0.00845375
v -0.01041114 0.00188235 0.00855592
v -0.01041114 0.00012350 0.00875966
v -0.01070584 0.00012278 0.00870876
v -0.01097232 0.00012087 0.00857300
v -0.01118673 0.00011793 0.00836452
v -0.01132989 0.00011423 0.00810197
v -0.01041114 -0.00097535 0.00870607
v -0.01041114 -0.00115746 0.00868373
v -0.01097232 -0.00304355 0.00801547
v -0.01118673 -0.00296954 0.00782054
v -0.01132989 -0.00287633 0.00757507
v -0.01041114 -0.00411178 0.00773565
v -0.01070584 -0.00408788 0.00769070
v -0.01097232 -0.00402416 0.00757081
v -0.01118673 -0.00392630 0.00738670
v -0.01132989 -0.00380306 0.00715484
v -0.01041114 -0.00504889 0.00715931
v -0.01041114 -0.00739613 0.00469513
v -0.01041114 -0.00732985 0.00479793
v -0.01041114 -0.00667071 0.00567878
v -0.01041114 -0.00646846 0.00590812
v -0.01041114 -0.00590638 0.00647006
v -0.01041114 -0.00534426 0.00694160
v -0.01041114 -0.00787340 0.00384143
v -0.01041114 -0.00809907 0.00333947
v -0.01041114 -0.00858136 0.00176271
v -0.01070584 -0.00853150 0.00175246
v -0.01097232 -0.00839850 0.00172515
v -0.01118673 -0.00819426 0.00168319
v -0.01132989 -0.00774052 0.00239568
v -0.01041114 -0.00873462 0.00067328
v -0.01041114 -0.00835081 -0.00264779
v -0.01041114 -0.00836910 -0.00258943
v -0.01041114 -0.00862764 -0.00152009
v -0.01041114 -0.00868373 -0.00115746
v -0.01041114 -0.00875013 -0.00042677
v -0.01041114 -0.00875280 0.00036803
v -0.01041114 -0.00797856 -0.00361794
v -0.01041114 -0.00776416 -0.00405767
v -0.01041114 -0.00682816 -0.00548846
v -0.01070584 -0.00678848 -0.00545657
v -0.01097232 -0.00668265 -0.00537151
v -0.01118673 -0.00652014 -0.00524088
v -0.01132989 -0.00664485 -0.00463690
v -0.01041114 -0.00608643 -0.00630098
v -0.01041114 -0.00590812 -0.00646846
v -0.01041114 -0.00432822 -0.00761665
v -0.01070584 -0.00430307 -0.00757240
v -0.01097232 -0.00423599 -0.00745435
v -0.01132989 -0.00308874 -0.00749097
v -0.01118673 -0.00318883 -0.00773372
v -0.01097232 -0.00326831 -0.00792648
v -0.01070584 -0.00332007 -0.00805200
v -0.01041114 -0.00333947 -0.00809906
v 0.00097069 -0.00406176 -0.00722887
v 0.00082500 -0.00419968 -0.00747432
v 0.00082500 -0.00326813 -0.00792604
v 0.00097069 -0.00766575 0.00316081
v 0.00082500 -0.00792604 0.00326813
v 0.00082500 -0.00826218 0.00228892
v 0.00059852 -0.00430833 -0.00766768
v 0.00059852 -0.00335268 -0.00813109
v 0.00059852 -0.00813109 0.00335268
v 0.00059852 -0.00847592 0.00234814
v 0.00031398 -0.00437679 -0.00778953
v 0.00031398 -0.00340595 -0.00826030
v 0.00031398 -0.00826030 0.00340595
v 0.00031398 -0.00861061 0.00238545
v 0.00000000 -0.00830068 0.00342260
v 0.00000000 -0.00865271 0.00239711
v 0.00000000 -0.00876890 0.00192921
v 0.00031398 -0.00883537 0.00133016
v 0.00000000 -0.00887856 0.00133667
v 0.00000000 -0.00897069 0.00037720
v 0.00031398 -0.00893128 0.00025548
v 0.00000000 -0.00897494 0.00025673
v 0.00000000 -0.00894045 -0.00082695
v 0.00031398 -0.00889696 -0.00082293
v 0.00000000 -0.00889990 -0.00118628
v 0.00031398 -0.00873289 -0.00188934
v 0.00000000 -0.00877559 -0.00189858
v 0.00031398 -0.00844149 -0.00292820
v 0.00000000 -0.00855870 -0.00271371
v 0.00000000 -0.00848276 -0.00294251
v 0.00000000 -0.00806622 -0.00394354
v 0.00031398 -0.00802698 -0.00392436
v 0.00000000 -0.00795744 -0.00415868
v 0.00031398 -0.00749543 -0.00486329
v 0.00000000 -0.00753207 -0.00488707
v 0.00031398 -0.00685457 -0.00573131
v 0.00000000 -0.00711440 -0.00547730
v 0.00000000 -0.00688808 -0.00575932
v 0.00000000 -0.00614365 -0.00654760
v 0.00031398 -0.00611376 -0.00651575
v 0.00000000 -0.00605520 -0.00662949
v 0.00031398 -0.00528380 -0.00720517
v 0.00000000 -0.00530963 -0.00724039
v 0.00000000 -0.00481200 -0.00758025
v 0.00000000 -0.00439819 -0.00782761
v 0.00000000 -0.00342260 -0.00830068
v 0.00000000 -0.00239711 -0.00865271
v 0.00031398 -0.00238545 -0.00861061
v 0.00000000 -0.00192921 -0.00876890
v 0.00031398 -0.00133016 -0.00883537
v 0.00000000 -0.00133667 -0.00887856
v 0.00000000 -0.00037720 -0.00897069
v 0.00031398 -0.00025548 -0.00893128
v 0.00000000 -0.00025673 -0.00897494
v 0.00000000 0.00082695 -0.00894045
v 0.00031398 0.00082293 -0.00889696
v 0.00000000 0.00118628 -0.00889990
v 0.00031398 0.00188934 -0.00873289
v 0.00000000 0.00189858 -0.00877559
v 0.00031398 0.00292820 -0.00844149
v 0.00000000 0.00271371 -0.00855870
v 0.00000000 0.00294251 -0.00848275
v 0.00000000 0.00394354 -0.00806622
v 0.00031398 0.00392436 -0.00802698
v 0.00000000 0.00415868 -0.00795744
v 0.00031398 0.00486329 -0.00749543
v 0.00000000 0.00488707 -0.00753207
v 0.00031398 0.00573131 -0.00685457
v 0.00000000 0.00547730 -0.00711440
v 0.00000000 0.00575932 -0.00688808
v 0.00000000 0.00654760 -0.00614365
v 0.00031398 0.00651575 -0.00611376
v 0.00000000 0.00662949 -0.00605520
v 0.00031398 0.00720517 -0.00528380
v 0.00000000 0.00724040 -0.00530963
v 0.00031398 0.00778953 -0.00437679
v 0.00000000 0.00758025 -0.00481200
v 0.00000000 0.00782761 -0.00439819
v 0.00000000 0.00830068 -0.00342260
v 0.00031398 0.00826030 -0.00340595
v 0.00059852 -0.00869716 0.00130936
v 0.00059852 -0.00879158 0.00025148
v 0.00059852 -0.00875779 -0.00081006
v 0.00059852 -0.00859629 -0.00185979
v 0.00059852 -0.00830944 -0.00288240
v 0.00059852 -0.00790142 -0.00386297
v 0.00059852 -0.00737818 -0.00478722
v 0.00059852 -0.00674735 -0.00564166
v 0.00059852 -0.00601813 -0.00641383
v 0.00059852 -0.00520115 -0.00709247
v 0.00059852 -0.00234814 -0.00847593
v 0.00059852 -0.00130936 -0.00869716
v 0.00059852 -0.00025148 -0.00879158
v 0.00059852 0.00081006 -0.00875779
v 0.00059852 0.00185979 -0.00859629
v 0.00059852 0.00288240 -0.00830944
v 0.00059852 0.00386297 -0.00790142
v 0.00059852 0.00478722 -0.00737818
v 0.00059852 0.00564166 -0.00674735
v 0.00059852 0.00641383 -0.00601813
v 0.00059852 0.00709247 -0.00520115
v 0.00059852 0.00766768 -0.00430833
v 0.00059852 0.00813109 -0.00335268
v 0.00082500 -0.00847784 0.00127634
v 0.00082500 -0.00856987 0.00024514
v 0.00082500 -0.00853693 -0.00078963
v 0.00082500 -0.00837951 -0.00181289
v 0.00082500 -0.00809990 -0.00280971
v 0.00082500 -0.00770217 -0.00376556
v 0.00082500 -0.00719212 -0.00466649
v 0.00082500 -0.00657720 -0.00549938
v 0.00082500 -0.00586637 -0.00625208
v 0.00082500 -0.00506999 -0.00691361
v 0.00082500 -0.00228892 -0.00826218
v 0.00082500 -0.00127634 -0.00847784
v 0.00082500 -0.00024514 -0.00856987
v 0.00082500 0.00078963 -0.00853693
v 0.00082500 0.00181289 -0.00837951
v 0.00082500 0.00280971 -0.00809990
v 0.00082500 0.00376556 -0.00770217
v 0.00082500 0.00466649 -0.00719212
v 0.00082500 0.00549938 -0.00657720
v 0.00082500 0.00625208 -0.00586637
v 0.00082500 0.00691361 -0.00506999
v 0.00082500 0.00747432 -0.00419968
v 0.00082500 0.00792604 -0.00326813
v 0.00097069 -0.00799085 0.00221376
v 0.00097069 -0.00819943 0.00123442
v 0.00097069 -0.00828844 0.00023709
v 0.00097069 -0.00825659 -0.00076370
v 0.00097069 -0.00810433 -0.00175335
v 0.00097069 -0.00783390 -0.00271744
v 0.00097069 -0.00744923 -0.00364190
v 0.00097069 -0.00695594 -0.00451325
v 0.00097069 -0.00636121 -0.00531879
v 0.00097069 -0.00567372 -0.00604677
v 0.00097069 -0.00490349 -0.00668657
v 0.00097069 -0.00316081 -0.00766575
v 0.00097069 -0.00221376 -0.00799085
v 0.00097069 -0.00123442 -0.00819943
v 0.00097069 -0.00023709 -0.00828844
v 0.00097069 0.00076370 -0.00825659
v 0.00097069 0.00175335 -0.00810433
v 0.00097069 0.00271744 -0.00783390
v 0.00097069 0.00364190 -0.00744923
v 0.00097069 0.00451325 -0.00695594
v 0.00097069 0.00531879 -0.00636121
v 0.00097069 0.00604677 -0.00567372
v 0.00097069 0.00668657 -0.00490349
v 0.00097069 0.00722887 -0.00406176
v 0.00097069 0.00766575 -0.00316081
v 0.00102094 -0.00545955 -0.00581852
v 0.00102094 -0.00612109 -0.00511802
v 0.00102094 -0.00669337 -0.00434288
v 0.00102094 -0.00716804 -0.00350442
v 0.00102094 -0.00753819 -0.00261486
v 0.00102094 -0.00779841 -0.00168717
v 0.00102094 -0.00794492 -0.00073487
v 0.00102094 -0.00797557 0.00022814
v 0.00102094 -0.00788992 0.00118783
v 0.00102094 -0.00768922 0.00213019
v 0.00102094 -0.00737639 0.00304149
v 0.00102094 -0.00390844 -0.00695599
v 0.00102094 -0.00459037 -0.00652612
v 0.00102094 -0.00471840 -0.00643417
v 0.00102094 -0.00304149 -0.00737639
v 0.00102094 -0.00213019 -0.00768922
v 0.00102094 -0.00118783 -0.00788992
v 0.00102094 -0.00022814 -0.00797557
v 0.00102094 0.00073487 -0.00794492
v 0.00102094 0.00168717 -0.00779841
v 0.00102094 0.00261486 -0.00753819
v 0.00102094 0.00350442 -0.00716804
v 0.00102094 0.00434288 -0.00669337
v 0.00102094 0.00511802 -0.00612109
v 0.00102094 0.00581852 -0.00545955
v 0.00102094 0.00643417 -0.00471840
v 0.00102094 0.00695600 -0.00390844
v 0.00102094 0.00737639 -0.00304149
v 0.00000000 0.00342260 0.00830068
v 0.00000000 0.00239711 0.00865271
v 0.00000000 0.00192921 0.00876890
v 0.00000000 0.00133667 0.00887856
v 0.00000000 0.00037720 0.00897069
v 0.00000000 0.00025673 0.00897494
v 0.00000000 -0.00082695 0.00894045
v 0.00000000 -0.00118628 0.00889990
v 0.00000000 -0.00189858 0.00877559
v 0.00000000 -0.00271371 0.00855870
v 0.00000000 -0.00294251 0.00848276
v 0.00000000 -0.00394354 0.00806623
v 0.00000000 -0.00415868 0.00795744
v 0.00000000 -0.00488707 0.00753207
v 0.00000000 -0.00547730 0.00711440
v 0.00000000 -0.00575932 0.00688808
v 0.00000000 -0.00654760 0.00614365
v 0.00000000 -0.00662949 0.00605520
v 0.00000000 -0.00724040 0.00530963
v 0.00000000 -0.00758025 0.00481200
v 0.00000000 -0.00782761 0.00439819
v -0.01372908 0.00085039 -0.00124906
v -0.01372957 0.00078025 -0.00129247
v -0.01373836 0.00067067 -0.00129282
v -0.01373836 -0.00056149 -0.00134390
v -0.01373836 -0.00015167 -0.00144854
v -0.01372679 -0.00028706 -0.00148997
v -0.01373836 0.00027093 -0.00143102
v -0.01372941 0.00026941 -0.00148595
v -0.01372790 0.00001621 -0.00151423
v -0.01372780 -0.00000383 -0.00151457
v -0.01372680 -0.00027821 -0.00149158
v -0.01373059 0.00059657 -0.00138381
v -0.01373079 0.00053244 -0.00140910
v -0.01372975 0.00031735 -0.00147547
v -0.01372790 0.00100419 -0.00113346
v -0.01373836 0.00101385 -0.00104559
v -0.01372722 0.00109572 -0.00104792
v -0.01372682 0.00140723 -0.00056729
v -0.01372653 0.00134511 -0.00070375
v -0.01373836 0.00127153 -0.00071018
v -0.01372641 0.00127523 -0.00082420
v -0.01372659 0.00119546 -0.00093533
v -0.01372720 0.00144842 -0.00044828
v -0.01373836 0.00142197 -0.00031488
v -0.01372798 0.00148903 -0.00027435
v -0.01373836 0.00145250 0.00010698
v -0.01372989 0.00150859 0.00002860
v -0.01372850 0.00150209 -0.00017847
v -0.01372899 0.00139114 0.00059057
v -0.01373030 0.00146251 0.00036643
v -0.01373835 0.00136052 0.00051982
v -0.01373054 0.00147419 0.00031307
v -0.01373041 0.00150438 0.00009577
v -0.01373835 0.00115381 0.00088882
v -0.01372720 0.00124679 0.00086283
v -0.01372874 0.00137599 0.00062670
v -0.01367424 0.00093555 0.00090718
v -0.01370238 0.00095871 0.00092964
v -0.01372324 0.00108807 0.00083819
v -0.01372290 0.00098545 0.00095557
v -0.01373675 0.00102229 0.00099130
v -0.01360296 0.00099871 0.00076935
v -0.01363102 0.00091368 0.00088598
v -0.01353846 0.00089739 0.00087019
v -0.01353846 0.00099024 0.00076283
v -0.01353846 0.00111282 0.00056928
v -0.01360296 0.00117763 0.00044995
v -0.01353846 0.00116765 0.00044613
v -0.01360296 0.00125724 0.00009260
v -0.01353846 0.00124658 0.00009182
v -0.01360296 0.00123082 -0.00027255
v -0.01353846 0.00122039 -0.00027024
v -0.01353846 0.00115558 -0.00047646
v -0.01360297 0.00110060 -0.00061471
v -0.01353846 0.00109127 -0.00060950
v -0.01360297 0.00087756 -0.00090503
v -0.01353846 0.00087012 -0.00089736
v -0.01360297 0.00058051 -0.00111903
v -0.01353846 0.00057559 -0.00110955
v -0.01353848 0.00038819 -0.00118816
v -0.01360297 0.00023450 -0.00123865
v -0.01353848 0.00023251 -0.00122816
v -0.01360297 -0.00013129 -0.00125382
v -0.01353848 -0.00013018 -0.00124319
v -0.01360297 -0.00048602 -0.00116325
v -0.01353848 -0.00047649 -0.00115560
v -0.01360297 -0.00079976 -0.00097457
v -0.01353848 -0.00079298 -0.00096631
v -0.01367529 -0.00082731 -0.00100814
v -0.01367426 -0.00093559 -0.00090720
v -0.01363096 -0.00091370 -0.00088597
v -0.01372291 -0.00098548 -0.00095558
v -0.01373836 -0.00092395 -0.00112593
v -0.01373677 -0.00102228 -0.00099126
v -0.01372641 -0.00106748 -0.00107981
v -0.01372641 -0.00109007 -0.00105700
v -0.01372641 -0.00057897 -0.00140367
v -0.01372641 -0.00061344 -0.00138895
v -0.01372641 -0.00085455 -0.00125508
v -0.01367527 0.00103311 0.00079585
v -0.01367527 0.00121820 0.00046544
v -0.01367527 0.00130055 0.00009579
v -0.01367527 0.00127322 -0.00028194
v -0.01367527 0.00113851 -0.00063589
v -0.01367527 0.00090779 -0.00093621
v -0.01367527 0.00060051 -0.00115758
v -0.01367529 0.00024258 -0.00128132
v -0.01367529 -0.00013581 -0.00129701
v -0.01367529 -0.00050276 -0.00120332
v -0.01353846 -0.00089738 -0.00087015
v -0.01372324 0.00128300 0.00049020
v -0.01372325 0.00136974 0.00010088
v -0.01372325 0.00134095 -0.00029694
v -0.01372325 0.00119908 -0.00066972
v -0.01372325 0.00095608 -0.00098601
v -0.01372325 0.00063246 -0.00121916
v -0.01372325 0.00025549 -0.00134949
v -0.01372325 -0.00014303 -0.00136601
v -0.01372325 -0.00052950 -0.00126733
v -0.01372325 -0.00087131 -0.00106177
v -0.01370236 -0.00095870 -0.00092961
v -0.01372640 0.00109008 0.00105704
v 0.00002094 0.00123608 -0.00018607
v 0.00002094 0.00124896 0.00005111
v 0.00002094 0.00047650 0.00115564
v -0.01353846 0.00047650 0.00115564
v 0.00002094 0.00061232 0.00108978
v -0.01353846 0.00079294 0.00096630
v 0.00002094 0.00085533 0.00091157
v 0.00002094 0.00104862 0.00068040
v 0.00002094 0.00111285 0.00056930
v 0.00002094 0.00118097 0.00040968
v 0.00002094 0.00124469 0.00011515
v -0.01372640 0.00057882 0.00140378
v -0.01267721 0.00142777 0.00416182
v -0.01372778 0.00000383 0.00151460
v -0.01239617 0.00089617 0.00509444
v -0.01372680 0.00027822 0.00149162
v -0.01249287 0.00095054 0.00481266
v -0.01255521 0.00102776 0.00462271
v -0.01257662 0.00106493 0.00455448
v -0.01263587 0.00121775 0.00434638
v -0.01372677 0.00028707 0.00149000
v -0.01220264 0.00096931 0.00562642
v -0.01230194 0.00090333 0.00535739
v -0.01211315 0.00107896 0.00585375
v -0.01187862 0.00169994 0.00637228
v -0.01194873 0.00144443 0.00623804
v -0.01177843 0.00231878 0.00646733
v -0.01180121 0.00210999 0.00647261
v -0.01184553 0.00184584 0.00642622
v -0.01182054 0.00198102 0.00645771
v -0.01200294 0.00129505 0.00611852
v -0.01202922 0.00123381 0.00605732
v -0.01177384 0.00237846 0.00645902
v -0.01176482 0.00263322 0.00638623
v -0.01176484 -0.00263321 -0.00638619
v -0.01176777 -0.00276800 -0.00632012
v -0.01177664 -0.00289473 -0.00623627
v -0.01186471 -0.00326129 -0.00577632
v -0.01182477 -0.00316054 -0.00595657
v -0.01178727 -0.00298333 -0.00616194
v -0.01372720 -0.00124677 -0.00086281
v -0.01372850 -0.00150207 0.00017846
v -0.01372989 -0.00150858 -0.00002859
v -0.01372875 -0.00137596 -0.00062669
v -0.01372901 -0.00139112 -0.00059056
v -0.01373030 -0.00146249 -0.00036642
v -0.01373054 -0.00147416 -0.00031307
v -0.01373041 -0.00150437 -0.00009577
v -0.01194842 -0.00623870 0.00144545
v -0.01200296 -0.00611849 0.00129506
v -0.01202884 -0.00605821 0.00123467
v -0.01211305 -0.00585404 0.00107917
v -0.01220259 -0.00562651 0.00096936
v -0.01230195 -0.00535736 0.00090334
v -0.01239617 -0.00509442 0.00089618
v -0.01249287 -0.00481267 0.00095054
v -0.01257662 -0.00455447 0.00106493
v -0.01263589 -0.00434635 0.00121776
v -0.01372722 -0.00144841 0.00044827
v -0.01255521 -0.00462269 0.00102777
v -0.01372798 -0.00148902 0.00027435
v -0.01372653 -0.00134510 0.00070375
v -0.01267721 -0.00416179 0.00142778
v -0.01372683 -0.00140722 0.00056730
v -0.01372641 -0.00127522 0.00082421
v -0.01372659 -0.00119547 0.00093533
v -0.01182730 -0.00594652 0.00316456
v -0.01372722 -0.00109572 0.00104793
v -0.01372789 -0.00100420 0.00113347
v -0.01372908 -0.00085039 0.00124908
v -0.01372956 -0.00078026 0.00129248
v -0.01373057 -0.00059657 0.00138383
v -0.01372789 -0.00001620 0.00151426
v -0.01372939 -0.00026941 0.00148597
v -0.01372975 -0.00031734 0.00147549
v -0.01373079 -0.00053245 0.00140912
v -0.01181918 -0.00598765 0.00313449
v -0.01179302 -0.00613979 0.00299282
v -0.01178190 -0.00622425 0.00288630
v -0.01177517 -0.00629699 0.00277018
v -0.01178724 -0.00646007 0.00226685
v -0.01177421 -0.00641134 0.00250140
v -0.01177295 -0.00639166 0.00256058
v -0.01181377 -0.00646114 0.00203269
v -0.01181911 -0.00645691 0.00199690
v -0.01185368 -0.00641377 0.00180788
v -0.01187864 -0.00637225 0.00169996
v 0.00102094 -0.00061836 0.00216338
v 0.00102094 -0.00095327 0.00229100
v 0.00102094 -0.00098823 0.00202138
v 0.00102094 -0.00141796 -0.00452084
v 0.00102094 0.00489648 -0.00113065
v 0.00102094 0.00196345 0.00109883
v 0.00102094 0.00452086 -0.00141795
v 0.00102094 0.00212575 0.00073740
v 0.00102094 -0.00113066 -0.00489645
v 0.00102094 -0.00202499 -0.00668417
v 0.00102094 -0.00239403 -0.00669604
v 0.00102094 0.00222493 -0.00033494
v 0.00102094 0.00224044 0.00020725
v 0.00102094 0.00768922 -0.00213019
v 0.00102094 0.00669607 -0.00239402
v 0.00102094 -0.00186102 -0.00664263
v 0.00102094 -0.00159268 -0.00651810
v 0.00102094 -0.00139929 -0.00637094
v 0.00102094 -0.00247800 -0.00668334
v 0.00102094 0.00593092 -0.00109367
v 0.00102094 0.00620634 -0.00125071
v 0.00102094 0.00786492 -0.00134344
v 0.00102094 0.00637096 -0.00139928
v 0.00102094 0.00651813 -0.00159267
v 0.00102094 0.00664265 -0.00186101
v 0.00102094 0.00668420 -0.00202498
v 0.00102094 -0.00100668 -0.00531843
v 0.00102094 -0.00103997 -0.00577066
v 0.00102094 -0.00109368 -0.00593089
v 0.00102094 0.00531846 -0.00100667
v 0.00102094 0.00540335 -0.00100031
v 0.00102094 0.00577069 -0.00103995
v 0.00102094 -0.00125072 -0.00620631
v 0.00102094 -0.00100032 -0.00540332
v 0.00102094 0.00668337 -0.00247799
v 0.00102094 -0.00144325 0.00172614
v 0.00102094 -0.00452085 0.00141799
v 0.00102094 -0.00668418 0.00202501
v 0.00102094 -0.00669605 0.00239406
v 0.00102094 -0.00664264 0.00186105
v 0.00102094 -0.00651811 0.00159271
v 0.00102094 -0.00637095 0.00139932
v 0.00102094 -0.00577067 0.00103999
v 0.00102094 -0.00593090 0.00109371
v 0.00102094 -0.00181440 0.00133059
v 0.00102094 -0.00531844 0.00100671
v 0.00102094 -0.00540333 0.00100034
v 0.00102094 -0.00620632 0.00125075
v 0.00102094 -0.00489646 0.00113068
v 0.00102094 -0.00668335 0.00247803
v 0.00102094 -0.00695600 0.00390844
v 0.00102094 -0.00643417 0.00471840
v 0.00102094 0.00118783 0.00788992
v 0.00102094 0.00022814 0.00797557
v 0.00102094 -0.00581852 0.00545955
v 0.00102094 -0.00511802 0.00612109
v 0.00102094 -0.00073487 0.00794492
v 0.00102094 -0.00168717 0.00779841
v 0.00102094 -0.00261486 0.00753819
v 0.00102094 -0.00350442 0.00716804
v 0.00102094 -0.00434288 0.00669337
v 0.00102094 0.00141798 0.00452087
v 0.00102094 0.00113067 0.00489649
v 0.00102094 0.00100670 0.00531847
v 0.00102094 0.00100033 0.00540336
v 0.00102094 0.00103998 0.00577070
v 0.00102094 0.00304149 0.00737639
v 0.00102094 0.00213019 0.00768922
v 0.00102094 0.00239405 0.00669608
v 0.00102094 0.00109369 0.00593093
v 0.00102094 0.00125074 0.00620635
v 0.00102094 0.00139931 0.00637098
v 0.00102094 0.00159270 0.00651814
v 0.00102094 0.00186103 0.00664267
v 0.00102094 0.00202500 0.00668421
v 0.00102094 0.00110217 0.00196158
v 0.00102094 0.00788992 -0.00118783
v 0.00102094 -0.00047577 0.00219914
v 0.00102094 0.00006434 0.00224910
v 0.00102094 0.00060071 0.00216835
v 0.00102094 0.00247802 0.00668338
v 0.00102094 0.00390844 0.00695599
v 0.00102094 0.00471840 0.00643417
v 0.00102094 0.00545955 0.00581852
v 0.00102094 0.00153958 0.00164082
v 0.00102094 0.00188751 0.00122470
v 0.00102094 0.00612109 0.00511802
v 0.00102094 0.00797557 -0.00022814
v 0.00102094 0.00794492 0.00073487
v 0.00102094 0.00779841 0.00168717
v 0.00102094 0.00753819 0.00261486
v 0.00102094 0.00716804 0.00350442
v 0.00102094 0.00669337 0.00434288
v -0.01132989 0.00562944 0.00582789
v -0.01132989 0.00569652 0.00576234
v -0.01263587 0.00434637 -0.00121772
v -0.01267721 0.00416181 -0.00142774
v -0.01230195 0.00535735 -0.00090330
v -0.01239619 0.00509438 -0.00089615
v -0.01211323 0.00585358 -0.00107884
v -0.01220268 0.00562632 -0.00096924
v -0.01132989 0.00804617 -0.00095605
v -0.01194887 0.00623777 -0.00144403
v -0.01200296 0.00611851 -0.00129502
v -0.01202938 0.00605697 -0.00123346
v -0.01249290 0.00481261 -0.00095052
v -0.01255521 0.00462270 -0.00102773
v -0.01257664 0.00455444 -0.00106492
v -0.01132989 0.00728224 -0.00355300
v -0.01132989 0.00717951 -0.00375627
v -0.01179302 0.00613980 -0.00299278
v -0.01178190 0.00622426 -0.00288627
v -0.01177517 0.00629701 -0.00277015
v -0.01132989 0.00767013 -0.00261228
v -0.01178724 0.00646008 -0.00226681
v -0.01132989 0.00774052 -0.00239568
v -0.01177421 0.00641136 -0.00250136
v -0.01177295 0.00639168 -0.00256054
v -0.01181377 0.00646115 -0.00203265
v -0.01181911 0.00645693 -0.00199691
v -0.01132989 0.00793706 -0.00163036
v -0.01185367 0.00641379 -0.00180784
v -0.01187864 0.00637227 -0.00169992
v -0.01132989 0.00638165 -0.00499294
v -0.01132989 0.00677951 -0.00443769
v -0.01182730 0.00594653 -0.00316453
v -0.01181918 0.00598763 -0.00313448
v -0.01258515 -0.00108781 -0.00451698
v -0.01255284 -0.00102771 -0.00462281
v -0.01250553 -0.00096460 -0.00477051
v -0.01263779 -0.00123433 -0.00432849
v -0.01267606 -0.00142800 -0.00416164
v -0.01132989 -0.00148574 -0.00796539
v -0.01214705 -0.00103809 -0.00578173
v -0.01132989 -0.00112877 -0.00802376
v -0.01218705 -0.00098817 -0.00567500
v -0.01132989 -0.00011423 -0.00810197
v -0.01132989 -0.00002045 -0.00810275
v -0.01223573 -0.00094177 -0.00554190
v -0.01233146 -0.00089523 -0.00527578
v -0.01242322 -0.00090466 -0.00501601
v -0.01237860 -0.00089331 -0.00514409
v -0.01177844 -0.00231876 -0.00646729
v -0.01180123 -0.00210997 -0.00647257
v -0.01132989 -0.00212551 -0.00781902
v -0.01182055 -0.00198101 -0.00645767
v -0.01184554 -0.00184582 -0.00642618
v -0.01187864 -0.00169993 -0.00637224
v -0.01192047 -0.00154372 -0.00629919
v -0.01198791 -0.00134825 -0.00616532
v -0.01200943 -0.00129512 -0.00611848
v -0.01206329 -0.00117821 -0.00599360
v -0.01177387 -0.00237845 -0.00645898
v -0.01132989 0.00400325 0.00704478
v -0.01177663 0.00289475 0.00623631
v -0.01176776 0.00276802 0.00632016
v -0.01132989 0.00456026 0.00669768
v -0.01186469 0.00326130 0.00577636
v -0.01182476 0.00316055 0.00595661
v -0.01178725 0.00298335 0.00616198
v -0.01372640 0.00106750 0.00107984
v -0.01372640 0.00085457 0.00125512
v -0.01132989 0.00485463 0.00648749
v -0.01372640 0.00061345 0.00138899
v -0.01132989 0.00631548 0.00507638
v -0.01132989 0.00807881 -0.00062273
v -0.01132989 0.00664485 0.00463690
v -0.01132989 0.00690192 0.00424481
v -0.01132989 0.00737951 0.00334630
v -0.01132989 0.00774073 0.00239501
v -0.01132989 0.00785982 0.00196929
v -0.01132989 0.00797986 0.00140595
v -0.01132989 0.00808638 0.00051511
v -0.01132989 0.00809315 0.00039473
v -0.01132989 0.00616986 -0.00525240
v -0.01132989 0.00546291 -0.00598427
v -0.01132989 0.00537326 -0.00606490
v -0.01132989 0.00466981 -0.00662177
v -0.01132989 0.00287633 -0.00757507
v -0.01132989 0.00380306 -0.00715484
v -0.01132989 0.00418760 -0.00693678
v -0.01132989 0.00090212 -0.00805240
v -0.01132989 0.00144552 -0.00797279
v -0.01132989 0.00190424 -0.00787583
v 0.00002094 0.00033373 0.00120465
v 0.00002094 -0.00080180 0.00095898
v -0.01353846 -0.00087016 0.00089735
v -0.01353846 -0.00057563 0.00110953
v -0.01353846 0.00013014 0.00124318
v 0.00002094 0.00003575 0.00124951
v -0.01353846 -0.00023255 0.00122814
v 0.00002094 -0.00026431 0.00122175
v -0.01353846 -0.00038816 0.00118817
v 0.00002094 -0.00038818 0.00118822
v 0.00002094 -0.00054901 0.00112300
v 0.00002094 -0.00084997 0.00091655
v 0.00002094 -0.00100800 0.00073922
v -0.01353846 -0.00109131 0.00060949
v -0.01353846 -0.00115559 0.00047650
v -0.01353846 -0.00122043 0.00027022
v -0.01353846 -0.00124662 -0.00009183
v -0.01353846 -0.00116769 -0.00044615
v -0.01353848 -0.00111287 -0.00056928
v -0.01353848 -0.00099028 -0.00076285
v -0.00454409 0.00263676 0.00651971
v -0.00456910 0.00258733 0.00653622
v -0.00468309 0.00249998 0.00655841
v -0.00495715 0.00238928 0.00657454
v -0.00541770 0.00227103 0.00657767
v -0.00619425 0.00213442 0.00656346
v -0.00744052 0.00198302 0.00652475
v -0.00914054 0.00184598 0.00646548
v -0.01057030 0.00176258 0.00641626
v -0.01174818 0.00170570 0.00637659
v -0.00744052 -0.00652472 0.00198303
v -0.00914054 -0.00646546 0.00184599
v -0.01057030 -0.00641623 0.00176259
v -0.01174818 -0.00637657 0.00170571
v -0.00541770 -0.00657764 0.00227104
v -0.00619425 -0.00656343 0.00213443
v -0.00495715 -0.00657451 0.00238929
v -0.00468309 -0.00655838 0.00249999
v -0.00456910 -0.00653619 0.00258734
v -0.00454409 -0.00651968 0.00263677
v -0.00454409 -0.00263674 -0.00651967
v -0.00456910 -0.00258731 -0.00653618
v -0.00468309 -0.00249996 -0.00655837
v -0.00495715 -0.00238926 -0.00657450
v -0.00541770 -0.00227101 -0.00657763
v -0.00619425 -0.00213440 -0.00656342
v -0.00744051 -0.00198301 -0.00652471
v -0.00914054 -0.00184596 -0.00646544
v -0.01057030 -0.00176256 -0.00641622
v -0.01174818 -0.00170568 -0.00637656
v -0.00744052 0.00652474 -0.00198300
v -0.00914054 0.00646547 -0.00184595
v -0.01057030 0.00641625 -0.00176255
v -0.01174818 0.00637658 -0.00170567
v -0.00541770 0.00657765 -0.00227100
v -0.00619425 0.00656345 -0.00213439
v -0.00495715 0.00657453 -0.00238925
v -0.00468309 0.00655840 -0.00249995
v -0.00456910 0.00653621 -0.00258730
v -0.00454409 0.00651969 -0.00263673
v -0.01373836 -0.00067053 0.00129247
v -0.01360115 -0.00099826 -0.00076899
v -0.01360115 -0.00117710 -0.00044974
v -0.01360115 -0.00125667 -0.00009257
v -0.01360115 -0.00123027 0.00027240
v -0.01360115 -0.00110011 0.00061440
v -0.01360115 -0.00087718 0.00090458
v -0.01360115 -0.00058027 0.00111848
v -0.01360115 -0.00023442 0.00123804
v -0.01360115 0.00013119 0.00125320
v -0.01360115 0.00048574 0.00116267
v -0.01360115 0.00079934 0.00097409
v -0.01367424 0.00082666 0.00100739
v -0.01373836 0.00092367 0.00112562
v -0.01373836 0.00056130 0.00134353
v -0.01373836 0.00015159 0.00144815
v -0.01373836 -0.00027089 0.00143063
v -0.01373836 -0.00101362 0.00104530
v -0.01373838 -0.00127123 0.00070998
v -0.01373838 -0.00142164 0.00031479
v -0.01373838 -0.00145215 -0.00010696
v -0.01373838 -0.00136021 -0.00051969
v -0.01373838 -0.00115355 -0.00088860
v -0.01372291 -0.00108746 -0.00083770
v -0.01367426 -0.00103239 -0.00079528
v -0.01367426 -0.00121734 -0.00046512
v -0.01367426 -0.00129964 -0.00009573
v -0.01367424 -0.00127233 0.00028172
v -0.01367424 -0.00113772 0.00063541
v -0.01367424 -0.00090716 0.00093551
v -0.01367424 -0.00060011 0.00115672
v -0.01367424 -0.00024244 0.00128037
v -0.01367424 0.00013567 0.00129605
v -0.01367424 0.00050235 0.00120242
v -0.01372291 -0.00128227 -0.00048992
v -0.01372291 -0.00136895 -0.00010084
v -0.01372291 -0.00134019 0.00029675
v -0.01372291 -0.00119840 0.00066930
v -0.01372291 -0.00095555 0.00098541
v -0.01372290 -0.00063211 0.00121841
v -0.01372290 -0.00025537 0.00134866
v -0.01372290 0.00014291 0.00136517
v -0.01372290 0.00052914 0.00126656
v -0.01372290 0.00087075 0.00106112
v -0.01041114 0.00875013 0.00042677
v -0.01041114 0.00868373 0.00115746
v 0.00000000 0.00889990 0.00118628
v 0.00000000 0.00855870 0.00271371
v -0.01041114 0.00835081 0.00264779
v 0.00000000 0.00848276 0.00294251
v -0.01041114 0.00797856 0.00361794
v -0.01041114 0.00432822 0.00761665
v 0.00000000 0.00439819 0.00782761
v -0.01041114 0.00469513 0.00739613
v 0.00000000 0.00481200 0.00758025
v -0.01041114 0.00524871 0.00701412
v 0.00000000 0.00530963 0.00724040
v -0.01041114 0.00590812 0.00646846
v 0.00000000 0.00605520 0.00662949
v -0.01041114 0.00608643 0.00630098
v 0.00000000 0.00614365 0.00654760
v -0.01041114 0.00682816 0.00548846
v 0.00000000 0.00688808 0.00575932
v -0.01041114 0.00694160 0.00534426
v 0.00000000 0.00711440 0.00547730
v -0.01041114 0.00746220 0.00458939
v 0.00000000 0.00753207 0.00488707
v -0.01041114 0.00776416 0.00405767
v 0.00000000 0.00795744 0.00415868
v 0.00000000 0.00806622 0.00394354
v 0.00000000 0.00877559 0.00189858
v -0.01041114 0.00862764 0.00152009
v -0.01041114 0.00836910 0.00258943
v 0.00000000 0.00876890 -0.00192921
v -0.01041114 0.00858136 -0.00176271
v 0.00000000 0.00887856 -0.00133667
v -0.01041114 0.00873462 -0.00067328
v 0.00000000 0.00897069 -0.00037720
v -0.01041114 0.00875280 -0.00036803
v 0.00000000 0.00897494 -0.00025673
v 0.00000000 0.00894045 0.00082695
v -0.01041114 -0.00229806 -0.00845375
v -0.01041114 -0.00188235 -0.00855591
v -0.01041114 -0.00122040 -0.00867511
v -0.01041114 -0.00036803 -0.00875280
v -0.01041114 -0.00012350 -0.00875966
v -0.01041114 0.00097535 -0.00870607
v -0.01041114 0.00115746 -0.00868373
v -0.01041114 0.00205882 -0.00851517
v -0.01041114 0.00264779 -0.00835081
v -0.01041114 0.00310982 -0.00818999
v -0.01041114 0.00405767 -0.00776416
v -0.01041114 0.00411178 -0.00773565
v -0.01041114 0.00504889 -0.00715931
v -0.01041114 0.00534426 -0.00694160
v -0.01041114 0.00590638 -0.00647006
v -0.01041114 0.00646846 -0.00590812
v -0.01041114 0.00667071 -0.00567878
v -0.01041114 0.00732985 -0.00479793
v -0.01041114 0.00739613 -0.00469513
v -0.01041114 0.00787340 -0.00384143
v -0.01041114 0.00809907 -0.00333947
v 0.00000000 0.00865271 -0.00239711
v -0.01041114 0.00829277 -0.00282434
v -0.01041114 0.00855592 -0.00188235
v 0.00097069 0.00799085 -0.00221376
v 0.00082500 0.00826218 -0.00228892
v 0.00082500 0.00847784 -0.00127634
v 0.00059852 0.00847592 -0.00234814
v 0.00059852 0.00869716 -0.00130936
v 0.00031398 0.00861061 -0.00238545
v 0.00031398 0.00883537 -0.00133016
v 0.00031398 0.00893128 -0.00025548
v 0.00031398 0.00889696 0.00082293
v 0.00031398 0.00873289 0.00188934
v 0.00031398 0.00844149 0.00292820
v 0.00031398 0.00802698 0.00392436
v 0.00031398 0.00749543 0.00486329
v 0.00031398 0.00685457 0.00573131
v 0.00031398 0.00611376 0.00651575
v 0.00031398 0.00528380 0.00720517
v 0.00031398 0.00437679 0.00778953
v 0.00031398 0.00340595 0.00826030
v 0.00031398 0.00238545 0.00861061
v 0.00031398 0.00133016 0.00883537
v 0.00031398 0.00025548 0.00893128
v 0.00031398 -0.00082293 0.00889696
v 0.00031398 -0.00188934 0.00873289
v 0.00031398 -0.00292820 0.00844149
v 0.00031398 -0.00392436 0.00802698
v 0.00031398 -0.00486329 0.00749543
v 0.00031398 -0.00573131 0.00685457
v 0.00031398 -0.00651575 0.00611376
v 0.00031398 -0.00720517 0.00528380
v 0.00031398 -0.00778953 0.00437679
v 0.00059852 0.00879158 -0.00025148
v 0.00059852 0.00875779 0.00081006
v 0.00059852 0.00859629 0.00185979
v 0.00059852 0.00830944 0.00288240
v 0.00059852 0.00790142 0.00386297
v 0.00059852 0.00737818 0.00478722
v 0.00059852 0.00674735 0.00564166
v 0.00059852 0.00601813 0.00641383
v 0.00059852 0.00520115 0.00709247
v 0.00059852 0.00430833 0.00766768
v 0.00059852 0.00335268 0.00813109
v 0.00059852 0.00234814 0.00847593
v 0.00059852 0.00130936 0.00869716
v 0.00059852 0.00025148 0.00879158
v 0.00059852 -0.00081006 0.00875779
v 0.00059852 -0.00185979 0.00859629
v 0.00059852 -0.00288240 0.00830944
v 0.00059852 -0.00386297 0.00790142
v 0.00059852 -0.00478722 0.00737818
v 0.00059852 -0.00564166 0.00674735
v 0.00059852 -0.00641383 0.00601813
v 0.00059852 -0.00709247 0.00520115
v 0.00059852 -0.00766768 0.00430833
v 0.00082500 0.00856987 -0.00024514
v 0.00082500 0.00853693 0.00078963
v 0.00082500 0.00837951 0.00181289
v 0.00082500 0.00809990 0.00280971
v 0.00082500 0.00770217 0.00376556
v 0.00082500 0.00719212 0.00466649
v 0.00082500 0.00657720 0.00549938
v 0.00082500 0.00586637 0.00625208
v 0.00082500 0.00506999 0.00691361
v 0.00082500 0.00419968 0.00747432
v 0.00082500 0.00326813 0.00792604
v 0.00082500 0.00228892 0.00826218
v 0.00082500 0.00127634 0.00847784
v 0.00082500 0.00024514 0.00856987
v 0.00082500 -0.00078963 0.00853693
v 0.00082500 -0.00181289 0.00837951
v 0.00082500 -0.00280971 0.00809990
v 0.00082500 -0.00376556 0.00770217
v 0.00082500 -0.00466649 0.00719212
v 0.00082500 -0.00549938 0.00657720
v 0.00082500 -0.00625208 0.00586637
v 0.00082500 -0.00691361 0.00506999
v 0.00082500 -0.00747432 0.00419968
v 0.00097069 0.00819943 -0.00123442
v 0.00097069 0.00828844 -0.00023709
v 0.00097069 0.00825659 0.00076370
v 0.00097069 0.00810433 0.00175335
v 0.00097069 0.00783390 0.00271744
v 0.00097069 0.00744923 0.00364190
v 0.00097069 0.00695594 0.00451325
v 0.00097069 0.00636121 0.00531879
v 0.00097069 0.00567372 0.00604677
v 0.00097069 0.00490349 0.00668657
v 0.00097069 0.00406176 0.00722887
v 0.00097069 0.00316081 0.00766575
v 0.00097069 0.00221376 0.00799085
v 0.00097069 0.00123442 0.00819943
v 0.00097069 0.00023709 0.00828844
v 0.00097069 -0.00076370 0.00825659
v 0.00097069 -0.00175335 0.00810433
v 0.00097069 -0.00271744 0.00783390
v 0.00097069 -0.00364190 0.00744923
v 0.00097069 -0.00451325 0.00695594
v 0.00097069 -0.00531879 0.00636121
v 0.00097069 -0.00604677 0.00567372
v 0.00097069 -0.00668657 0.00490349
v 0.00097069 -0.00722887 0.00406176
v -0.01070584 0.00521821 0.00697337
v -0.01070584 0.00741884 0.00456272
v -0.01070584 0.00824458 -0.00280793
v -0.01070584 0.00782765 -0.00381911
v -0.01070584 0.00309175 -0.00814240
v -0.01070584 0.00204686 -0.00846569
v -0.01070584 -0.00121331 -0.00862470
v -0.01118673 0.00413298 0.00727307
v -0.01118673 0.00581187 0.00601675
v -0.01118673 0.00799157 0.00247262
v -0.01118673 0.00834061 -0.00064291
v -0.01118673 0.00751823 -0.00366814
v -0.01118673 0.00563994 -0.00617820
v -0.01118673 0.00196595 -0.00813106
v -0.01118673 -0.00116535 -0.00828378
v -0.01070584 -0.00228470 -0.00840463
v -0.01097232 -0.00119440 -0.00849025
v -0.01097232 -0.00224909 -0.00827361
v -0.01118673 -0.00219439 -0.00807241
v -0.01118673 0.00093135 -0.00831334
v -0.01097232 0.00095457 -0.00852055
v -0.01097232 0.00201495 -0.00833372
v -0.01070584 0.00096969 -0.00865548
v -0.01118673 0.00482114 -0.00683635
v -0.01097232 0.00494130 -0.00700675
v -0.01097232 0.00578051 -0.00633219
v -0.01070584 0.00501955 -0.00711770
v -0.01070584 0.00587205 -0.00643246
v -0.01118673 0.00636980 -0.00542261
v -0.01097232 0.00652857 -0.00555777
v -0.01070584 0.00663195 -0.00564578
v -0.01118673 0.00699921 -0.00458150
v -0.01097232 0.00717366 -0.00469569
v -0.01070584 0.00728726 -0.00477005
v -0.01118673 0.00835542 0.00040752
v -0.01097232 0.00854849 -0.00065893
v -0.01097232 0.00856367 0.00041768
v -0.01070584 0.00868387 -0.00066937
v -0.01070584 0.00869929 0.00042429
v -0.01118673 0.00823846 0.00145152
v -0.01097232 0.00844380 0.00148769
v -0.01070584 0.00857751 0.00151125
v -0.01097232 0.00819076 0.00253425
v -0.01070584 0.00832047 0.00257438
v -0.01118673 0.00761865 0.00345474
v -0.01118673 0.00712559 0.00438236
v -0.01097232 0.00780854 0.00354084
v -0.01097232 0.00730319 0.00449159
v -0.01070584 0.00793220 0.00359692
v -0.01118673 0.00501195 0.00669772
v -0.01097232 0.00595673 0.00616671
v -0.01097232 0.00513687 0.00686466
v -0.01070584 0.00605106 0.00626437
v -0.01070584 -0.00012278 -0.00870876
v -0.01097232 -0.00012087 -0.00857300
v -0.01118673 -0.00011793 -0.00836452
v -0.01097232 0.00304355 -0.00801547
v -0.01118673 0.00296954 -0.00782055
v -0.01070584 0.00408788 -0.00769070
v -0.01097232 0.00402416 -0.00757081
v -0.01118673 0.00392630 -0.00738670
v -0.01097232 0.00770562 -0.00375957
v -0.01097232 0.00811606 -0.00276415
v -0.01118673 0.00791869 -0.00269693
v -0.01070584 0.00853150 -0.00175246
v -0.01097232 0.00839850 -0.00172515
v -0.01118673 0.00819426 -0.00168319
v -0.01070584 0.00678848 0.00545657
v -0.01097232 0.00668265 0.00537151
v -0.01118673 0.00652014 0.00524088
v -0.01070584 0.00430307 0.00757240
v -0.01097232 0.00423599 0.00745435
v 0.00032996 0.00122722 0.00042572
v 0.00032996 0.00128448 -0.00019336
v 0.00097200 -0.00085250 0.00174376
v 0.00097200 0.00162828 0.00105650
v 0.00097200 -0.00124503 0.00148907
v 0.00082996 -0.00073006 0.00149332
v 0.00082996 -0.00106622 0.00127521
v 0.00060873 -0.00063289 0.00129457
v 0.00060873 -0.00092431 0.00110549
v 0.00032996 -0.00057051 0.00116697
v 0.00097200 0.00132813 0.00141547
v 0.00097200 0.00095080 0.00169218
v 0.00082996 0.00113738 0.00121218
v 0.00082996 0.00081425 0.00144915
v 0.00060873 0.00098601 0.00105085
v 0.00060873 0.00070588 0.00125628
v 0.00032996 0.00088882 0.00094727
v 0.00032996 0.00063630 0.00113245
v 0.00097200 0.00051821 0.00187055
v 0.00097200 0.00005551 0.00194021
v 0.00082996 0.00044379 0.00160190
v 0.00082996 0.00004754 0.00166155
v 0.00060873 0.00038472 0.00138870
v 0.00060873 0.00004121 0.00144041
v 0.00032996 0.00034680 0.00125181
v 0.00032996 0.00003715 0.00129843
v 0.00097200 -0.00041042 0.00189711
v 0.00082996 -0.00035148 0.00162465
v 0.00060873 -0.00030470 0.00140842
v 0.00032996 -0.00027466 0.00126959
v 0.00097200 -0.00156521 0.00114785
v 0.00082996 -0.00134041 0.00098299
v 0.00060873 -0.00116201 0.00085217
v 0.00032996 -0.00104747 0.00076817
v 0.00097200 0.00191936 -0.00028894
v 0.00082996 0.00164370 -0.00024744
v 0.00060873 0.00142493 -0.00021450
v 0.00032996 0.00129343 0.00011966
v 0.00060873 0.00143487 0.00013274
v 0.00082996 0.00165516 0.00015311
v 0.00097200 0.00193274 0.00017879
v 0.00097200 0.00183380 0.00063613
v 0.00082996 0.00157042 0.00054477
v 0.00060873 0.00136141 0.00047226
v 0.00032996 0.00108968 0.00070704
v 0.00060873 0.00120883 0.00078435
v 0.00082996 0.00139442 0.00090476
v 0.00032996 -0.00083320 0.00099652
f 1 2 3
f 4 5 6
f 7 8 9
f 10 11 12
f 12 11 13
f 12 13 14
f 14 13 15
f 14 15 16
f 16 15 17
f 16 17 18
f 19 20 21
f 21 20 22
f 21 22 23
f 23 22 24
f 23 24 25
f 25 24 26
f 25 26 27
f 27 26 28
f 27 28 29
f 30 31 32
f 32 31 33
f 32 33 34
f 34 33 35
f 34 35 36
f 36 35 37
f 36 37 38
f 38 37 39
f 31 40 33
f 33 40 41
f 33 41 35
f 35 41 42
f 35 42 37
f 37 42 43
f 37 43 39
f 39 43 44
f 40 10 41
f 41 10 12
f 41 12 42
f 42 12 14
f 42 14 43
f 43 14 16
f 43 16 44
f 44 16 18
f 45 46 47
f 47 46 48
f 47 48 49
f 49 48 50
f 49 50 51
f 51 50 52
f 51 52 53
f 53 52 54
f 55 56 57
f 57 56 58
f 57 58 59
f 59 58 60
f 59 60 61
f 61 60 62
f 61 62 63
f 63 62 6
f 63 6 64
f 64 6 5
f 65 4 66
f 66 4 6
f 66 6 67
f 67 6 62
f 67 62 68
f 68 62 60
f 68 60 69
f 69 60 58
f 69 58 70
f 70 58 56
f 70 7 69
f 69 7 9
f 69 9 68
f 68 9 71
f 68 71 67
f 67 71 72
f 67 72 66
f 66 72 3
f 66 3 65
f 65 3 2
f 73 1 74
f 74 1 3
f 74 3 75
f 75 3 72
f 75 72 76
f 76 72 71
f 76 71 77
f 77 71 9
f 77 9 78
f 78 9 8
f 78 19 77
f 77 19 21
f 77 21 76
f 76 21 23
f 76 23 75
f 75 23 25
f 75 25 74
f 74 25 27
f 74 27 73
f 73 27 29
f 79 80 28
f 28 80 81
f 28 81 29
f 20 30 22
f 22 30 32
f 22 32 24
f 24 32 34
f 24 34 26
f 26 34 36
f 26 36 28
f 28 36 38
f 28 38 79
f 79 38 39
f 79 39 82
f 82 39 44
f 82 44 83
f 17 84 18
f 18 84 85
f 18 85 44
f 44 85 86
f 44 86 83
f 87 88 84
f 84 88 89
f 84 89 85
f 11 45 13
f 13 45 47
f 13 47 15
f 15 47 49
f 15 49 17
f 17 49 51
f 17 51 84
f 84 51 53
f 84 53 87
f 87 53 54
f 87 54 90
f 91 92 93
f 94 95 96
f 96 95 97
f 96 97 98
f 98 99 96
f 96 99 100
f 96 100 101
f 101 100 102
f 101 102 103
f 103 104 101
f 101 104 91
f 101 91 105
f 105 91 93
f 105 93 106
f 106 93 107
f 106 107 108
f 108 107 109
f 108 109 110
f 109 111 110
f 110 111 112
f 110 112 113
f 113 112 114
f 113 114 115
f 115 114 116
f 115 116 117
f 118 119 117
f 117 119 120
f 117 120 115
f 121 122 123
f 123 122 124
f 123 124 125
f 125 124 126
f 125 126 127
f 127 126 128
f 127 128 129
f 129 128 119
f 129 119 130
f 130 119 118
f 131 132 133
f 134 135 136
f 137 138 139
f 140 141 142
f 142 141 143
f 142 143 144
f 144 145 142
f 142 145 146
f 142 146 147
f 147 146 148
f 147 148 149
f 149 150 147
f 147 150 137
f 147 137 151
f 151 137 139
f 151 139 152
f 152 139 153
f 152 153 154
f 154 153 155
f 154 155 156
f 155 157 156
f 156 157 158
f 156 158 159
f 159 158 160
f 159 160 135
f 135 160 161
f 135 161 136
f 133 132 162
f 134 136 132
f 132 136 163
f 132 163 162
f 164 165 166
f 166 165 167
f 131 133 168
f 168 133 169
f 168 169 167
f 167 169 170
f 167 170 166
f 171 172 173
f 174 175 176
f 176 175 177
f 176 177 178
f 178 179 176
f 176 179 180
f 176 180 181
f 181 180 182
f 181 182 183
f 183 184 181
f 181 184 171
f 181 171 185
f 185 171 173
f 185 173 186
f 186 173 187
f 186 187 188
f 188 187 189
f 188 189 190
f 189 191 190
f 190 191 192
f 190 192 193
f 193 192 194
f 193 194 195
f 195 194 196
f 195 196 197
f 198 199 197
f 197 199 200
f 197 200 195
f 201 202 203
f 203 202 204
f 203 204 205
f 205 204 206
f 205 206 207
f 207 206 208
f 207 208 209
f 209 208 199
f 209 199 210
f 210 199 198
f 211 212 213
f 214 215 216
f 216 215 217
f 216 217 218
f 218 219 216
f 216 219 220
f 216 220 221
f 221 220 222
f 221 222 223
f 223 224 221
f 221 224 211
f 221 211 225
f 225 211 213
f 225 213 226
f 226 213 227
f 226 227 228
f 228 227 229
f 228 229 230
f 231 232 233
f 233 232 234
f 233 234 235
f 235 234 236
f 235 236 237
f 237 236 238
f 237 238 239
f 239 238 240
f 239 240 241
f 241 240 242
f 241 242 243
f 243 242 244
f 243 244 245
f 245 244 246
f 245 246 247
f 247 246 230
f 247 230 248
f 248 230 229
f 249 250 251
f 252 253 254
f 255 256 257
f 258 259 260
f 261 262 263
f 264 265 266
f 267 268 269
f 270 271 272
f 273 274 275
f 276 277 278
f 279 280 281
f 282 283 284
f 285 286 287
f 288 289 290
f 288 290 291
f 285 287 292
f 282 284 293
f 279 281 294
f 276 278 295
f 273 275 296
f 270 272 297
f 266 298 299
f 299 298 300
f 299 300 290
f 290 300 301
f 290 301 291
f 302 292 303
f 303 292 287
f 303 287 304
f 304 287 305
f 304 305 306
f 306 305 263
f 307 293 308
f 308 293 284
f 308 284 309
f 309 284 310
f 309 310 311
f 311 310 312
f 283 313 284
f 284 313 314
f 284 314 310
f 310 314 315
f 310 315 312
f 312 315 316
f 313 317 314
f 314 317 318
f 314 318 315
f 315 318 319
f 315 319 316
f 316 319 320
f 280 321 281
f 281 321 322
f 281 322 323
f 323 322 324
f 323 324 325
f 325 324 257
f 277 326 278
f 278 326 327
f 278 327 328
f 328 327 329
f 328 329 330
f 330 329 331
f 326 332 327
f 327 332 333
f 327 333 329
f 329 333 334
f 329 334 331
f 331 334 335
f 332 296 333
f 333 296 275
f 333 275 334
f 334 275 336
f 334 336 335
f 335 336 337
f 338 339 340
f 340 339 341
f 340 341 342
f 342 341 343
f 342 343 344
f 344 343 254
f 271 345 272
f 272 345 346
f 272 346 347
f 347 346 348
f 347 348 349
f 349 348 251
f 350 291 351
f 351 291 301
f 351 301 352
f 352 301 300
f 352 300 353
f 353 300 298
f 353 298 354
f 354 298 355
f 266 265 298
f 298 265 356
f 298 356 355
f 357 264 358
f 358 264 266
f 358 266 359
f 359 266 299
f 359 299 360
f 360 299 290
f 360 290 361
f 361 290 289
f 361 302 360
f 360 302 303
f 360 303 359
f 359 303 304
f 359 304 358
f 358 304 306
f 358 306 357
f 357 306 362
f 263 262 306
f 306 262 363
f 306 363 362
f 259 261 260
f 260 261 263
f 260 263 364
f 364 263 305
f 364 305 365
f 365 305 287
f 365 287 366
f 366 287 286
f 367 258 368
f 368 258 260
f 368 260 369
f 369 260 364
f 369 364 370
f 370 364 365
f 370 365 371
f 371 365 366
f 371 307 370
f 370 307 308
f 370 308 369
f 369 308 309
f 369 309 368
f 368 309 311
f 368 311 367
f 367 311 372
f 373 374 320
f 320 374 375
f 320 375 316
f 316 375 376
f 316 376 312
f 312 376 377
f 312 377 311
f 311 377 378
f 311 378 372
f 379 373 325
f 325 373 320
f 325 320 323
f 323 320 319
f 323 319 281
f 281 319 318
f 281 318 294
f 294 318 317
f 257 256 325
f 325 256 380
f 325 380 379
f 381 255 382
f 382 255 257
f 382 257 383
f 383 257 324
f 383 324 384
f 384 324 322
f 384 322 385
f 385 322 321
f 385 295 384
f 384 295 278
f 384 278 383
f 383 278 328
f 383 328 382
f 382 328 330
f 382 330 381
f 381 330 386
f 387 388 337
f 337 388 389
f 337 389 335
f 335 389 390
f 335 390 331
f 331 390 391
f 331 391 330
f 330 391 392
f 330 392 386
f 393 387 344
f 344 387 337
f 344 337 342
f 342 337 336
f 342 336 340
f 340 336 275
f 340 275 338
f 338 275 274
f 254 253 344
f 344 253 394
f 344 394 393
f 395 252 396
f 396 252 254
f 396 254 397
f 397 254 343
f 397 343 398
f 398 343 341
f 398 341 399
f 399 341 339
f 399 297 398
f 398 297 272
f 398 272 397
f 397 272 347
f 397 347 396
f 396 347 349
f 396 349 395
f 395 349 400
f 251 250 349
f 349 250 401
f 349 401 400
f 402 249 403
f 403 249 251
f 403 251 404
f 404 251 348
f 404 348 269
f 269 348 346
f 269 346 267
f 267 346 345
f 268 405 269
f 269 405 406
f 269 406 404
f 404 406 407
f 404 407 403
f 403 407 408
f 403 408 402
f 402 408 409
f 410 411 412
f 413 414 415
f 411 416 417
f 414 418 419
f 416 420 421
f 418 422 423
f 422 424 425
f 422 425 423
f 423 425 426
f 423 426 427
f 426 428 427
f 427 428 429
f 427 429 430
f 429 431 430
f 430 431 432
f 430 432 433
f 433 432 434
f 433 434 435
f 435 434 436
f 435 436 437
f 437 436 438
f 438 439 437
f 437 439 440
f 437 440 441
f 441 440 442
f 441 442 443
f 443 442 444
f 443 444 445
f 445 444 446
f 446 447 445
f 445 447 448
f 445 448 449
f 449 448 450
f 449 450 451
f 452 453 420
f 453 454 420
f 420 454 455
f 420 455 421
f 421 455 456
f 421 456 457
f 457 456 458
f 457 458 459
f 458 460 459
f 459 460 461
f 459 461 462
f 461 463 462
f 462 463 464
f 462 464 465
f 465 464 466
f 465 466 467
f 467 466 468
f 467 468 469
f 469 468 470
f 470 471 469
f 469 471 472
f 469 472 473
f 473 472 474
f 473 474 475
f 475 474 476
f 475 476 477
f 477 476 478
f 478 479 477
f 477 479 480
f 477 480 481
f 481 480 482
f 481 482 483
f 483 482 484
f 483 484 485
f 485 484 486
f 486 487 485
f 485 487 488
f 485 488 489
f 418 423 419
f 419 423 427
f 419 427 490
f 490 427 430
f 490 430 491
f 491 430 433
f 491 433 492
f 492 433 435
f 492 435 493
f 493 435 437
f 493 437 494
f 494 437 441
f 494 441 495
f 495 441 443
f 495 443 496
f 496 443 445
f 496 445 497
f 497 445 449
f 497 449 498
f 498 449 451
f 498 451 499
f 416 421 417
f 417 421 457
f 417 457 500
f 500 457 459
f 500 459 501
f 501 459 462
f 501 462 502
f 502 462 465
f 502 465 503
f 503 465 467
f 503 467 504
f 504 467 469
f 504 469 505
f 505 469 473
f 505 473 506
f 506 473 475
f 506 475 507
f 507 475 477
f 507 477 508
f 508 477 481
f 508 481 509
f 509 481 483
f 509 483 510
f 510 483 485
f 510 485 511
f 511 485 489
f 511 489 512
f 414 419 415
f 415 419 490
f 415 490 513
f 513 490 491
f 513 491 514
f 514 491 492
f 514 492 515
f 515 492 493
f 515 493 516
f 516 493 494
f 516 494 517
f 517 494 495
f 517 495 518
f 518 495 496
f 518 496 519
f 519 496 497
f 519 497 520
f 520 497 498
f 520 498 521
f 521 498 499
f 521 499 522
f 411 417 412
f 412 417 500
f 412 500 523
f 523 500 501
f 523 501 524
f 524 501 502
f 524 502 525
f 525 502 503
f 525 503 526
f 526 503 504
f 526 504 527
f 527 504 505
f 527 505 528
f 528 505 506
f 528 506 529
f 529 506 507
f 529 507 530
f 530 507 508
f 530 508 531
f 531 508 509
f 531 509 532
f 532 509 510
f 532 510 533
f 533 510 511
f 533 511 534
f 534 511 512
f 534 512 535
f 413 415 536
f 536 415 513
f 536 513 537
f 537 513 514
f 537 514 538
f 538 514 515
f 538 515 539
f 539 515 516
f 539 516 540
f 540 516 517
f 540 517 541
f 541 517 518
f 541 518 542
f 542 518 519
f 542 519 543
f 543 519 520
f 543 520 544
f 544 520 521
f 544 521 545
f 545 521 522
f 545 522 546
f 410 412 547
f 547 412 523
f 547 523 548
f 548 523 524
f 548 524 549
f 549 524 525
f 549 525 550
f 550 525 526
f 550 526 551
f 551 526 527
f 551 527 552
f 552 527 528
f 552 528 553
f 553 528 529
f 553 529 554
f 554 529 530
f 554 530 555
f 555 530 531
f 555 531 556
f 556 531 532
f 556 532 557
f 557 532 533
f 557 533 558
f 558 533 534
f 558 534 559
f 559 534 535
f 559 535 560
f 546 561 545
f 545 561 562
f 545 562 544
f 544 562 563
f 544 563 543
f 543 563 564
f 543 564 542
f 542 564 565
f 542 565 541
f 541 565 566
f 541 566 540
f 540 566 567
f 540 567 539
f 539 567 568
f 539 568 538
f 538 568 569
f 538 569 537
f 537 569 570
f 537 570 536
f 536 570 571
f 536 571 413
f 572 573 546
f 546 573 574
f 546 574 561
f 450 452 451
f 451 452 420
f 451 420 499
f 499 420 416
f 499 416 522
f 522 416 411
f 522 411 546
f 546 411 410
f 546 410 572
f 572 410 547
f 572 547 575
f 575 547 548
f 575 548 576
f 576 548 549
f 576 549 577
f 577 549 550
f 577 550 578
f 578 550 551
f 578 551 579
f 579 551 552
f 579 552 580
f 580 552 553
f 580 553 581
f 581 553 554
f 581 554 582
f 582 554 555
f 582 555 583
f 583 555 556
f 583 556 584
f 584 556 557
f 584 557 585
f 585 557 558
f 585 558 586
f 586 558 559
f 586 559 587
f 587 559 560
f 587 560 588
f 391 390 434
f 438 387 439
f 439 387 393
f 409 455 402
f 402 455 454
f 402 454 249
f 249 454 453
f 249 453 250
f 250 453 452
f 250 452 401
f 401 452 450
f 401 450 400
f 400 450 448
f 400 448 395
f 395 448 447
f 395 447 252
f 252 447 446
f 252 446 253
f 253 446 444
f 253 444 394
f 394 444 442
f 394 442 393
f 393 442 440
f 393 440 439
f 434 390 436
f 436 390 389
f 436 389 438
f 438 389 388
f 438 388 387
f 426 381 428
f 428 381 386
f 428 386 429
f 429 386 392
f 429 392 431
f 431 392 391
f 431 391 432
f 432 391 434
f 589 354 590
f 590 354 355
f 590 355 591
f 591 355 356
f 591 356 592
f 592 356 265
f 592 265 593
f 593 265 264
f 593 264 594
f 594 264 357
f 594 357 595
f 595 357 362
f 595 362 596
f 596 362 363
f 596 363 597
f 597 363 262
f 597 262 598
f 598 262 261
f 598 261 599
f 599 261 259
f 599 259 600
f 600 259 258
f 600 258 601
f 601 258 367
f 601 367 602
f 602 367 372
f 602 372 603
f 603 372 378
f 603 378 604
f 604 378 377
f 604 377 605
f 605 377 376
f 605 376 606
f 606 376 375
f 606 375 607
f 607 375 374
f 607 374 608
f 608 374 373
f 608 373 609
f 609 373 379
f 609 379 424
f 424 379 380
f 424 380 425
f 425 380 256
f 425 256 426
f 426 256 255
f 426 255 381
f 610 611 612
f 613 614 615
f 616 617 614
f 614 617 618
f 618 619 614
f 614 619 620
f 614 620 615
f 611 621 612
f 612 621 622
f 612 622 616
f 616 622 623
f 616 623 617
f 610 612 624
f 624 612 625
f 624 625 626
f 627 628 629
f 629 628 630
f 629 630 625
f 625 630 631
f 625 631 626
f 627 629 632
f 632 629 633
f 632 633 634
f 635 636 633
f 633 636 637
f 633 637 634
f 638 639 640
f 640 639 641
f 640 641 635
f 635 641 642
f 635 642 636
f 643 644 640
f 640 644 645
f 640 645 638
f 646 647 648
f 648 647 649
f 648 649 650
f 651 652 646
f 653 652 654
f 654 652 651
f 654 651 655
f 655 651 656
f 655 656 657
f 657 656 658
f 657 658 659
f 659 658 660
f 659 660 661
f 661 660 662
f 662 660 663
f 662 663 664
f 664 663 665
f 664 665 666
f 666 665 667
f 666 667 668
f 668 667 669
f 669 667 670
f 669 670 671
f 671 670 672
f 671 672 673
f 673 672 674
f 673 674 675
f 675 674 676
f 675 676 677
f 678 679 680
f 681 682 683
f 683 682 684
f 683 684 685
f 615 686 613
f 613 686 687
f 613 687 682
f 682 687 688
f 682 688 684
f 646 689 651
f 651 689 690
f 651 690 656
f 656 690 691
f 656 691 658
f 658 691 692
f 658 692 660
f 660 692 693
f 660 693 663
f 663 693 694
f 663 694 665
f 665 694 695
f 665 695 667
f 667 695 696
f 667 696 670
f 670 696 697
f 670 697 672
f 672 697 698
f 672 698 674
f 674 698 678
f 674 678 676
f 676 678 680
f 676 680 677
f 677 680 699
f 646 648 689
f 689 648 700
f 689 700 690
f 690 700 701
f 690 701 691
f 691 701 702
f 691 702 692
f 692 702 703
f 692 703 693
f 693 703 704
f 693 704 694
f 694 704 705
f 694 705 695
f 695 705 706
f 695 706 696
f 696 706 707
f 696 707 697
f 697 707 708
f 697 708 698
f 698 708 709
f 698 709 678
f 678 709 710
f 678 710 679
f 711 644 650
f 650 644 643
f 650 643 648
f 648 643 640
f 648 640 700
f 700 640 635
f 700 635 701
f 701 635 633
f 701 633 702
f 702 633 629
f 702 629 703
f 703 629 625
f 703 625 704
f 704 625 612
f 704 612 705
f 705 612 616
f 705 616 706
f 706 616 614
f 706 614 707
f 707 614 613
f 707 613 708
f 708 613 682
f 708 682 709
f 709 682 681
f 709 681 710
f 675 80 79
f 675 79 673
f 673 79 82
f 673 82 671
f 671 82 83
f 671 83 669
f 669 83 86
f 669 86 668
f 86 85 668
f 668 85 89
f 668 89 666
f 666 89 88
f 666 88 664
f 664 88 87
f 664 87 662
f 662 87 90
f 662 90 661
f 661 90 712
f 661 712 659
f 659 712 713
f 659 713 657
f 714 715 716
f 716 715 717
f 716 717 718
f 718 717 653
f 718 653 719
f 719 653 654
f 719 654 720
f 720 654 655
f 720 655 721
f 721 655 657
f 721 657 722
f 722 657 713
f 723 724 231
f 725 726 727
f 727 726 728
f 728 729 727
f 727 729 730
f 727 730 731
f 724 723 731
f 731 723 732
f 731 732 727
f 733 734 302
f 302 361 733
f 733 361 289
f 733 289 735
f 735 289 288
f 736 737 288
f 738 739 291
f 736 288 740
f 291 739 288
f 288 739 741
f 288 741 740
f 737 742 288
f 288 742 743
f 288 743 735
f 738 291 744
f 744 291 350
f 744 350 745
f 746 405 747
f 747 405 268
f 747 268 748
f 153 139 267
f 267 139 138
f 138 749 267
f 267 749 750
f 267 750 268
f 268 750 751
f 268 751 748
f 136 161 270
f 161 160 270
f 270 160 158
f 270 158 271
f 271 158 345
f 345 158 157
f 345 157 267
f 267 157 155
f 267 155 153
f 166 170 688
f 688 170 169
f 688 169 133
f 133 162 688
f 688 162 163
f 688 163 684
f 688 687 166
f 166 687 686
f 166 686 164
f 163 136 684
f 684 136 270
f 684 270 685
f 685 270 297
f 685 297 752
f 276 753 277
f 277 753 754
f 297 399 752
f 752 399 339
f 752 339 755
f 755 339 338
f 755 338 756
f 756 338 274
f 756 274 757
f 757 274 273
f 757 273 758
f 758 273 296
f 758 296 759
f 759 296 332
f 759 332 754
f 754 332 326
f 754 326 277
f 760 761 276
f 276 761 762
f 276 762 763
f 763 764 276
f 276 764 765
f 276 765 753
f 753 765 766
f 753 766 767
f 768 769 770
f 767 771 753
f 753 771 768
f 753 768 772
f 772 768 770
f 201 203 773
f 769 774 770
f 770 774 201
f 770 201 775
f 775 201 773
f 203 205 773
f 773 205 207
f 773 207 776
f 776 207 209
f 776 209 777
f 777 209 210
f 210 198 777
f 777 198 197
f 777 197 196
f 196 194 317
f 317 194 192
f 192 191 317
f 317 191 189
f 317 189 187
f 187 173 317
f 317 173 172
f 317 172 294
f 294 172 778
f 294 778 279
f 196 317 777
f 777 317 313
f 777 313 779
f 779 313 283
f 779 283 780
f 780 283 282
f 780 282 781
f 781 282 293
f 781 293 782
f 366 783 371
f 371 783 782
f 371 782 307
f 307 782 293
f 734 726 302
f 302 726 725
f 302 725 292
f 292 725 784
f 292 784 285
f 285 784 785
f 285 785 286
f 286 785 786
f 286 786 366
f 366 786 787
f 366 787 783
f 778 788 279
f 279 788 789
f 279 789 280
f 789 790 280
f 280 790 791
f 280 791 321
f 792 385 793
f 793 385 321
f 793 321 794
f 794 321 791
f 792 795 385
f 385 795 796
f 385 796 295
f 295 796 797
f 295 797 276
f 276 797 798
f 276 798 760
f 799 800 801
f 154 573 152
f 152 573 151
f 573 19 78
f 802 11 10
f 803 804 805
f 805 804 806
f 128 45 119
f 119 45 120
f 108 110 807
f 807 110 113
f 576 808 809
f 128 126 45
f 45 126 124
f 45 124 46
f 46 124 122
f 46 122 810
f 810 122 805
f 810 805 811
f 811 805 806
f 576 809 575
f 10 40 802
f 802 40 31
f 802 31 165
f 165 31 30
f 165 30 167
f 167 30 20
f 167 20 168
f 154 156 573
f 573 156 159
f 573 159 19
f 19 159 135
f 135 134 19
f 19 134 132
f 19 132 20
f 20 132 131
f 20 131 168
f 802 807 11
f 11 807 113
f 11 113 45
f 45 113 115
f 45 115 120
f 588 812 813
f 808 576 814
f 814 576 577
f 814 577 815
f 815 577 578
f 815 578 816
f 809 817 575
f 575 817 140
f 575 140 572
f 572 140 142
f 572 142 573
f 573 142 147
f 573 147 151
f 818 819 820
f 820 819 821
f 821 822 820
f 820 822 823
f 820 823 812
f 812 823 824
f 812 824 813
f 825 105 807
f 807 105 106
f 807 106 108
f 826 827 581
f 803 828 804
f 804 828 829
f 804 829 830
f 816 578 831
f 831 578 579
f 831 579 827
f 827 579 580
f 827 580 581
f 825 832 105
f 105 832 585
f 105 585 101
f 101 585 586
f 101 586 96
f 96 586 587
f 96 587 94
f 94 587 588
f 94 588 833
f 833 588 813
f 581 582 826
f 826 582 583
f 826 583 832
f 832 583 584
f 832 584 585
f 801 800 834
f 78 8 573
f 573 8 7
f 573 7 835
f 570 836 837
f 570 837 571
f 836 570 838
f 838 570 569
f 838 569 839
f 839 569 568
f 839 568 840
f 841 842 565
f 195 200 843
f 843 200 199
f 843 199 208
f 844 845 561
f 840 568 846
f 846 568 567
f 846 567 842
f 842 567 566
f 842 566 565
f 7 70 835
f 835 70 56
f 835 56 202
f 202 56 55
f 202 55 204
f 204 55 843
f 204 843 206
f 206 843 208
f 835 847 573
f 573 847 844
f 573 844 574
f 574 844 561
f 565 564 841
f 841 564 563
f 841 563 845
f 845 563 562
f 845 562 561
f 837 848 571
f 571 848 174
f 571 174 849
f 849 174 176
f 849 176 850
f 850 176 181
f 850 181 185
f 195 843 193
f 193 843 850
f 193 850 190
f 185 186 850
f 850 186 188
f 850 188 190
f 800 851 852
f 843 834 850
f 850 834 800
f 850 800 853
f 853 800 854
f 852 855 800
f 800 855 856
f 800 856 857
f 857 858 800
f 800 858 859
f 800 859 854
f 799 860 800
f 800 860 861
f 800 861 862
f 862 863 800
f 800 863 864
f 800 864 851
f 865 866 867
f 864 868 851
f 851 868 869
f 851 869 870
f 870 871 851
f 851 871 872
f 851 872 866
f 866 872 873
f 866 873 867
f 238 874 240
f 240 874 242
f 875 804 820
f 820 804 830
f 820 830 818
f 799 876 860
f 860 876 877
f 860 877 232
f 232 877 878
f 232 878 234
f 234 878 874
f 234 874 236
f 236 874 238
f 867 879 865
f 865 879 214
f 865 214 880
f 880 214 216
f 880 216 881
f 881 216 221
f 881 221 882
f 882 221 225
f 882 225 226
f 226 228 882
f 882 228 230
f 882 230 246
f 883 884 885
f 885 882 883
f 883 882 246
f 883 246 874
f 874 246 244
f 874 244 242
f 875 886 804
f 804 886 887
f 804 887 888
f 888 889 804
f 804 889 890
f 804 890 884
f 884 890 891
f 884 891 885
f 892 893 247
f 121 123 628
f 894 895 632
f 632 895 121
f 632 121 627
f 627 121 628
f 896 897 637
f 898 899 900
f 901 902 900
f 900 902 903
f 900 903 898
f 897 904 637
f 637 904 905
f 637 905 906
f 894 632 906
f 906 632 634
f 906 634 637
f 907 908 909
f 909 910 907
f 907 910 911
f 907 911 912
f 913 914 915
f 915 914 912
f 915 912 916
f 916 912 911
f 913 917 914
f 914 917 918
f 914 918 919
f 919 918 920
f 919 920 900
f 900 920 921
f 900 921 901
f 123 125 628
f 628 125 127
f 628 127 630
f 630 127 129
f 630 129 631
f 631 129 130
f 130 118 631
f 631 118 117
f 631 117 116
f 116 114 922
f 922 114 112
f 112 111 922
f 922 111 109
f 922 109 107
f 107 93 922
f 922 93 92
f 922 92 923
f 923 92 924
f 923 924 908
f 908 924 925
f 908 925 909
f 926 620 927
f 927 620 928
f 926 929 620
f 620 929 930
f 620 930 615
f 615 930 164
f 615 164 686
f 931 932 933
f 933 932 934
f 933 934 935
f 935 934 936
f 936 934 937
f 936 937 938
f 928 620 939
f 939 620 619
f 939 619 940
f 941 942 943
f 943 942 931
f 931 942 944
f 931 944 945
f 945 946 931
f 931 946 947
f 931 947 948
f 948 949 931
f 931 949 950
f 931 950 932
f 941 943 951
f 951 943 405
f 951 405 746
f 952 953 350
f 350 953 954
f 350 954 745
f 227 213 955
f 955 213 212
f 212 956 955
f 955 956 957
f 955 957 952
f 952 957 958
f 952 958 953
f 893 959 960
f 892 247 961
f 961 247 248
f 961 248 955
f 955 248 229
f 955 229 227
f 233 235 960
f 960 235 237
f 960 237 239
f 239 241 960
f 960 241 243
f 960 243 893
f 893 243 245
f 893 245 247
f 960 962 233
f 233 962 723
f 233 723 231
f 959 893 711
f 711 893 963
f 711 963 644
f 899 896 900
f 900 896 637
f 900 637 964
f 964 637 636
f 963 965 644
f 644 965 966
f 644 966 645
f 645 966 967
f 645 967 638
f 638 967 968
f 638 968 639
f 639 968 969
f 639 969 641
f 641 969 970
f 641 970 642
f 642 970 971
f 642 971 636
f 636 971 972
f 636 972 964
f 116 922 631
f 631 922 973
f 631 973 626
f 626 973 974
f 626 974 624
f 624 974 975
f 624 975 610
f 610 975 976
f 610 976 611
f 977 621 978
f 978 621 611
f 978 611 979
f 979 611 976
f 938 940 936
f 936 940 619
f 936 619 980
f 980 619 618
f 980 618 981
f 981 618 617
f 981 617 982
f 982 617 623
f 982 623 977
f 977 623 622
f 977 622 621
f 715 714 983
f 984 985 986
f 715 983 987
f 987 983 988
f 987 988 989
f 989 988 990
f 989 990 991
f 991 990 992
f 991 992 986
f 986 992 993
f 986 993 984
f 984 994 985
f 985 994 995
f 985 995 996
f 996 995 64
f 996 64 997
f 997 64 998
f 998 64 5
f 998 5 999
f 999 5 4
f 999 4 1000
f 1000 4 65
f 1000 65 1001
f 80 675 81
f 81 675 677
f 81 677 29
f 29 677 699
f 29 699 73
f 73 699 1002
f 73 1002 1
f 1 1002 1001
f 1 1001 2
f 2 1001 65
f 219 218 745
f 218 217 745
f 745 217 215
f 745 215 1003
f 1003 1004 745
f 745 1004 1005
f 745 1005 744
f 744 1005 1006
f 744 1006 738
f 738 1006 1007
f 1007 1008 738
f 738 1008 1009
f 738 1009 739
f 739 1009 741
f 1009 1010 741
f 741 1010 1011
f 741 1011 740
f 740 1011 1012
f 740 1012 736
f 223 222 953
f 745 954 219
f 219 954 953
f 219 953 220
f 220 953 222
f 953 958 223
f 223 958 957
f 223 957 224
f 224 957 956
f 224 956 211
f 211 956 212
f 171 778 172
f 1013 1014 796
f 796 1014 1015
f 796 1015 797
f 797 1015 1016
f 797 1016 798
f 1017 1018 792
f 792 1018 1013
f 792 1013 795
f 795 1013 796
f 1017 792 1019
f 1019 792 793
f 1019 793 1020
f 1020 793 794
f 1020 794 1021
f 179 178 794
f 794 178 177
f 177 175 794
f 794 175 1022
f 794 1022 1021
f 182 790 183
f 183 790 789
f 794 791 179
f 179 791 790
f 179 790 180
f 180 790 182
f 789 788 183
f 183 788 778
f 183 778 184
f 184 778 171
f 150 149 750
f 145 144 746
f 144 143 746
f 746 143 141
f 746 141 1023
f 1023 1024 746
f 746 1024 1025
f 746 1025 951
f 951 1025 1026
f 951 1026 941
f 941 1026 1027
f 1027 1028 941
f 941 1028 1029
f 941 1029 942
f 942 1029 944
f 1029 1030 944
f 944 1030 1031
f 944 1031 945
f 945 1031 1032
f 945 1032 946
f 148 748 149
f 149 748 751
f 149 751 750
f 746 747 145
f 145 747 748
f 145 748 146
f 146 748 148
f 150 750 137
f 137 750 749
f 137 749 138
f 91 924 92
f 1033 1034 918
f 918 1034 1035
f 918 1035 920
f 920 1035 1036
f 920 1036 921
f 1037 1038 913
f 913 1038 1033
f 913 1033 917
f 917 1033 918
f 1037 913 1039
f 1039 913 915
f 1039 915 1040
f 1040 915 916
f 1040 916 1041
f 99 98 916
f 916 98 97
f 97 95 916
f 916 95 1042
f 916 1042 1041
f 102 910 103
f 103 910 909
f 916 911 99
f 99 911 910
f 99 910 100
f 100 910 102
f 909 925 103
f 103 925 924
f 103 924 104
f 104 924 91
f 781 782 1043
f 1002 1044 1001
f 1001 1044 1045
f 1001 1045 1000
f 1000 1045 1046
f 1000 1046 999
f 999 1046 1047
f 999 1047 998
f 998 1047 997
f 997 1047 1048
f 997 1048 996
f 996 1048 1049
f 996 1049 985
f 985 1049 1050
f 985 1050 986
f 986 1050 991
f 991 1050 1051
f 991 1051 989
f 989 1051 1052
f 989 1052 987
f 987 1052 1053
f 987 1053 715
f 715 1053 1054
f 715 1054 717
f 1055 646 652
f 649 1056 650
f 650 1056 959
f 650 959 711
f 1057 962 1056
f 1056 962 960
f 1056 960 959
f 1058 732 1057
f 1057 732 723
f 1057 723 962
f 1059 785 1058
f 1058 785 784
f 784 725 1058
f 1058 725 727
f 1058 727 732
f 782 783 1043
f 1043 783 787
f 1043 787 1059
f 1059 787 786
f 1059 786 785
f 781 1043 780
f 780 1043 1060
f 780 1060 779
f 775 773 1061
f 1061 773 776
f 1061 776 1060
f 1060 776 777
f 1060 777 779
f 775 1061 770
f 770 1061 1062
f 770 1062 772
f 1063 754 1062
f 1062 754 753
f 1062 753 772
f 756 757 1064
f 1064 757 758
f 1064 758 1063
f 1063 758 759
f 1063 759 754
f 1065 752 1064
f 1064 752 755
f 1064 755 756
f 679 710 1066
f 1066 710 681
f 1066 681 683
f 1002 699 1044
f 1044 699 680
f 1044 680 679
f 679 1067 1044
f 1044 1067 1068
f 1044 1068 1045
f 1045 1068 1069
f 1045 1069 1046
f 1046 1069 1070
f 1046 1070 1047
f 1047 1070 1071
f 1047 1071 1048
f 1048 1071 1072
f 1048 1072 1049
f 1049 1072 1073
f 1049 1073 1050
f 1050 1073 1074
f 1050 1074 1051
f 1051 1074 1075
f 1051 1075 1052
f 1052 1075 1076
f 1052 1076 1053
f 1053 1076 1055
f 1053 1055 1054
f 1054 1055 652
f 1054 652 717
f 717 652 653
f 679 1066 1067
f 1067 1066 1077
f 1067 1077 1068
f 1068 1077 1078
f 1068 1078 1069
f 1069 1078 1079
f 1069 1079 1070
f 1070 1079 1080
f 1070 1080 1071
f 1071 1080 1081
f 1071 1081 1072
f 1072 1081 1082
f 1072 1082 1073
f 1073 1082 1083
f 1073 1083 1074
f 1074 1083 1084
f 1074 1084 1075
f 1075 1084 1085
f 1075 1085 1076
f 1076 1085 1086
f 1076 1086 1055
f 1055 1086 647
f 1055 647 646
f 685 752 683
f 683 752 1065
f 683 1065 1066
f 1066 1065 1064
f 1066 1064 1077
f 1077 1064 1063
f 1077 1063 1078
f 1078 1063 1062
f 1078 1062 1079
f 1079 1062 1061
f 1079 1061 1080
f 1080 1061 1060
f 1080 1060 1081
f 1081 1060 1043
f 1081 1043 1082
f 1082 1043 1059
f 1082 1059 1083
f 1083 1059 1058
f 1083 1058 1084
f 1084 1058 1057
f 1084 1057 1085
f 1085 1057 1056
f 1085 1056 1086
f 1086 1056 649
f 1086 649 647
f 1087 1088 1089
f 1090 1091 1092
f 1092 1091 1093
f 354 589 1094
f 1094 589 1095
f 1094 1095 1096
f 1096 1095 1097
f 1096 1097 1098
f 1098 1097 1099
f 1098 1099 1100
f 1100 1099 1101
f 1100 1101 1102
f 1102 1101 1103
f 1102 1103 1104
f 1104 1103 1105
f 1104 1105 1106
f 1106 1105 1107
f 1106 1107 1108
f 1108 1107 1109
f 1108 1109 1110
f 1110 1109 1111
f 1110 1111 1093
f 1093 1111 1112
f 1093 1112 1092
f 1089 1088 1113
f 1113 1088 1114
f 1113 1114 1090
f 1090 1114 1115
f 1090 1115 1091
f 1116 1117 1118
f 1118 1117 1119
f 1118 1119 1120
f 1120 1119 1121
f 1120 1121 1122
f 1122 1121 1087
f 1122 1087 1123
f 1123 1087 1089
f 455 409 456
f 456 409 1124
f 456 1124 458
f 458 1124 1125
f 458 1125 460
f 460 1125 1126
f 460 1126 461
f 461 1126 1127
f 461 1127 463
f 463 1127 1128
f 463 1128 464
f 464 1128 1129
f 464 1129 466
f 466 1129 1130
f 466 1130 468
f 468 1130 1131
f 468 1131 470
f 470 1131 1132
f 470 1132 471
f 471 1132 1133
f 471 1133 472
f 472 1133 1134
f 472 1134 474
f 474 1134 1135
f 474 1135 476
f 476 1135 1136
f 476 1136 478
f 478 1136 1137
f 478 1137 479
f 479 1137 1138
f 479 1138 480
f 480 1138 1139
f 480 1139 482
f 482 1139 1140
f 482 1140 484
f 484 1140 1141
f 484 1141 486
f 486 1141 1142
f 486 1142 487
f 487 1142 1143
f 487 1143 488
f 488 1143 1144
f 488 1144 1145
f 1145 1144 1146
f 1145 1146 1116
f 1116 1146 1147
f 1116 1147 1117
f 1148 1149 1150
f 1149 1151 1152
f 1145 1116 1153
f 1153 1116 1154
f 1153 1154 1151
f 1116 1118 1154
f 1154 1118 1120
f 1154 1120 1155
f 1120 1122 1155
f 1155 1122 1123
f 1155 1123 1156
f 1156 1123 1089
f 1156 1089 1157
f 1157 1089 1113
f 1157 1113 1158
f 1158 1113 1090
f 1090 1092 1158
f 1158 1092 1112
f 1158 1112 1159
f 1159 1112 1111
f 1159 1111 1160
f 1160 1111 1109
f 1160 1109 1161
f 1161 1109 1107
f 1107 1105 1161
f 1161 1105 1103
f 1161 1103 1162
f 1162 1103 1101
f 1162 1101 1163
f 1163 1101 1099
f 1163 1099 1164
f 1164 1099 1097
f 1097 1095 1164
f 1164 1095 589
f 1164 589 1165
f 1165 589 590
f 1165 590 1166
f 1166 590 591
f 1166 591 1167
f 591 592 1167
f 1167 592 593
f 1167 593 1168
f 593 594 1168
f 1168 594 595
f 1168 595 1169
f 1169 595 596
f 1169 596 1170
f 1170 596 597
f 1170 597 1171
f 1171 597 598
f 598 599 1171
f 1171 599 600
f 1171 600 1172
f 1172 600 601
f 1172 601 1173
f 1173 601 602
f 1173 602 1174
f 1174 602 603
f 603 604 1174
f 1174 604 605
f 1174 605 1175
f 1175 605 606
f 1175 606 1176
f 1176 606 607
f 1176 607 1177
f 1177 607 608
f 608 609 1177
f 1177 609 424
f 1177 424 422
f 1151 1154 1152
f 1152 1154 1155
f 1152 1155 1178
f 1178 1155 1156
f 1178 1156 1179
f 1179 1156 1157
f 1179 1157 1180
f 1180 1157 1158
f 1180 1158 1181
f 1181 1158 1159
f 1181 1159 1182
f 1182 1159 1160
f 1182 1160 1183
f 1183 1160 1161
f 1183 1161 1184
f 1184 1161 1162
f 1184 1162 1185
f 1185 1162 1163
f 1185 1163 1186
f 1186 1163 1164
f 1186 1164 1187
f 1187 1164 1165
f 1187 1165 1188
f 1188 1165 1166
f 1188 1166 1189
f 1189 1166 1167
f 1189 1167 1190
f 1190 1167 1168
f 1190 1168 1191
f 1191 1168 1169
f 1191 1169 1192
f 1192 1169 1170
f 1192 1170 1193
f 1193 1170 1171
f 1193 1171 1194
f 1194 1171 1172
f 1194 1172 1195
f 1195 1172 1173
f 1195 1173 1196
f 1196 1173 1174
f 1196 1174 1197
f 1197 1174 1175
f 1197 1175 1198
f 1198 1175 1176
f 1198 1176 1199
f 1199 1176 1177
f 1199 1177 1200
f 1200 1177 422
f 1200 422 418
f 1149 1152 1150
f 1150 1152 1178
f 1150 1178 1201
f 1201 1178 1179
f 1201 1179 1202
f 1202 1179 1180
f 1202 1180 1203
f 1203 1180 1181
f 1203 1181 1204
f 1204 1181 1182
f 1204 1182 1205
f 1205 1182 1183
f 1205 1183 1206
f 1206 1183 1184
f 1206 1184 1207
f 1207 1184 1185
f 1207 1185 1208
f 1208 1185 1186
f 1208 1186 1209
f 1209 1186 1187
f 1209 1187 1210
f 1210 1187 1188
f 1210 1188 1211
f 1211 1188 1189
f 1211 1189 1212
f 1212 1189 1190
f 1212 1190 1213
f 1213 1190 1191
f 1213 1191 1214
f 1214 1191 1192
f 1214 1192 1215
f 1215 1192 1193
f 1215 1193 1216
f 1216 1193 1194
f 1216 1194 1217
f 1217 1194 1195
f 1217 1195 1218
f 1218 1195 1196
f 1218 1196 1219
f 1219 1196 1197
f 1219 1197 1220
f 1220 1197 1198
f 1220 1198 1221
f 1221 1198 1199
f 1221 1199 1222
f 1222 1199 1200
f 1222 1200 1223
f 1223 1200 418
f 1223 418 414
f 1148 1150 1224
f 1224 1150 1201
f 1224 1201 1225
f 1225 1201 1202
f 1225 1202 1226
f 1226 1202 1203
f 1226 1203 1227
f 1227 1203 1204
f 1227 1204 1228
f 1228 1204 1205
f 1228 1205 1229
f 1229 1205 1206
f 1229 1206 1230
f 1230 1206 1207
f 1230 1207 1231
f 1231 1207 1208
f 1231 1208 1232
f 1232 1208 1209
f 1232 1209 1233
f 1233 1209 1210
f 1233 1210 1234
f 1234 1210 1211
f 1234 1211 1235
f 1235 1211 1212
f 1235 1212 1236
f 1236 1212 1213
f 1236 1213 1237
f 1237 1213 1214
f 1237 1214 1238
f 1238 1214 1215
f 1238 1215 1239
f 1239 1215 1216
f 1239 1216 1240
f 1240 1216 1217
f 1240 1217 1241
f 1241 1217 1218
f 1241 1218 1242
f 1242 1218 1219
f 1242 1219 1243
f 1243 1219 1220
f 1243 1220 1244
f 1244 1220 1221
f 1244 1221 1245
f 1245 1221 1222
f 1245 1222 1246
f 1246 1222 1223
f 1246 1223 1247
f 1247 1223 414
f 1247 414 413
f 488 1145 489
f 489 1145 1153
f 489 1153 512
f 512 1153 1151
f 512 1151 535
f 535 1151 1149
f 535 1149 560
f 560 1149 1148
f 560 1148 588
f 588 1148 812
f 812 1148 820
f 820 1148 1224
f 820 1224 875
f 875 1224 1225
f 875 1225 886
f 886 1225 1226
f 886 1226 887
f 887 1226 1227
f 887 1227 888
f 888 1227 1228
f 888 1228 889
f 889 1228 1229
f 889 1229 890
f 890 1229 1230
f 890 1230 891
f 891 1230 1231
f 891 1231 885
f 885 1231 1232
f 885 1232 882
f 882 1232 1233
f 882 1233 881
f 881 1233 1234
f 881 1234 880
f 880 1234 1235
f 880 1235 865
f 865 1235 1236
f 865 1236 866
f 866 1236 1237
f 866 1237 851
f 851 1237 1238
f 851 1238 852
f 852 1238 1239
f 852 1239 855
f 855 1239 1240
f 855 1240 856
f 856 1240 1241
f 856 1241 857
f 857 1241 1242
f 857 1242 858
f 858 1242 1243
f 858 1243 859
f 859 1243 1244
f 859 1244 854
f 854 1244 1245
f 854 1245 853
f 853 1245 1246
f 853 1246 850
f 850 1246 1247
f 850 1247 849
f 849 1247 413
f 849 413 571
f 1096 1098 1248
f 1106 1108 1249
f 1147 1146 1250
f 1144 1143 1251
f 1134 1133 1252
f 1132 1131 1253
f 1127 1126 1254
f 955 952 1255
f 893 892 1256
f 969 968 1257
f 900 964 1258
f 908 907 1259
f 975 974 1260
f 981 982 1261
f 931 933 1262
f 931 1262 943
f 981 1261 980
f 975 1260 976
f 908 1259 923
f 900 1258 919
f 969 1257 970
f 893 1256 963
f 1254 1263 1264
f 1264 1263 1265
f 1264 1265 1262
f 1262 1265 1266
f 1262 1266 943
f 936 980 1267
f 1267 980 1261
f 1267 1261 1268
f 1268 1261 1269
f 1268 1269 1270
f 1270 1269 1253
f 979 976 1271
f 1271 976 1260
f 1271 1260 1272
f 1272 1260 1273
f 1272 1273 1274
f 1274 1273 1275
f 974 973 1260
f 1260 973 1276
f 1260 1276 1273
f 1273 1276 1277
f 1273 1277 1275
f 1275 1277 1278
f 973 922 1276
f 1276 922 1279
f 1276 1279 1277
f 1277 1279 1280
f 1277 1280 1278
f 1278 1280 1281
f 964 972 1258
f 1258 972 1282
f 1258 1282 1283
f 1283 1282 1284
f 1283 1284 1285
f 1285 1284 1286
f 972 971 1282
f 1282 971 1287
f 1282 1287 1284
f 1284 1287 1288
f 1284 1288 1286
f 1286 1288 1289
f 971 970 1287
f 1287 970 1257
f 1287 1257 1288
f 1288 1257 1290
f 1288 1290 1289
f 1289 1290 1291
f 967 966 1292
f 1292 966 1293
f 1292 1293 1294
f 1294 1293 1295
f 1294 1295 1296
f 1296 1295 1249
f 892 961 1256
f 1256 961 1297
f 1256 1297 1298
f 1298 1297 1299
f 1298 1299 1300
f 1300 1299 1248
f 405 943 406
f 406 943 1266
f 406 1266 407
f 407 1266 1265
f 407 1265 408
f 408 1265 1263
f 408 1263 409
f 409 1263 1124
f 1254 1126 1263
f 1263 1126 1125
f 1263 1125 1124
f 1128 1127 1301
f 1301 1127 1254
f 1301 1254 1302
f 1302 1254 1264
f 1302 1264 1303
f 1303 1264 1262
f 1303 1262 935
f 935 1262 933
f 935 936 1303
f 1303 936 1267
f 1303 1267 1302
f 1302 1267 1268
f 1302 1268 1301
f 1301 1268 1270
f 1301 1270 1128
f 1128 1270 1129
f 1253 1131 1270
f 1270 1131 1130
f 1270 1130 1129
f 1133 1132 1252
f 1252 1132 1253
f 1252 1253 1304
f 1304 1253 1269
f 1304 1269 1305
f 1305 1269 1261
f 1305 1261 977
f 977 1261 982
f 1135 1134 1306
f 1306 1134 1252
f 1306 1252 1307
f 1307 1252 1304
f 1307 1304 1308
f 1308 1304 1305
f 1308 1305 978
f 978 1305 977
f 978 979 1308
f 1308 979 1271
f 1308 1271 1307
f 1307 1271 1272
f 1307 1272 1306
f 1306 1272 1274
f 1306 1274 1135
f 1135 1274 1136
f 1142 1141 1281
f 1281 1141 1140
f 1281 1140 1278
f 1278 1140 1139
f 1278 1139 1275
f 1275 1139 1138
f 1275 1138 1274
f 1274 1138 1137
f 1274 1137 1136
f 1143 1142 1251
f 1251 1142 1281
f 1251 1281 1309
f 1309 1281 1280
f 1309 1280 1259
f 1259 1280 1279
f 1259 1279 923
f 923 1279 922
f 1146 1144 1250
f 1250 1144 1251
f 1250 1251 1310
f 1310 1251 1309
f 1310 1309 1311
f 1311 1309 1259
f 1311 1259 912
f 912 1259 907
f 1117 1147 1312
f 1312 1147 1250
f 1312 1250 1313
f 1313 1250 1310
f 1313 1310 1314
f 1314 1310 1311
f 1314 1311 914
f 914 1311 912
f 914 919 1314
f 1314 919 1258
f 1314 1258 1313
f 1313 1258 1283
f 1313 1283 1312
f 1312 1283 1285
f 1312 1285 1117
f 1117 1285 1119
f 1091 1115 1291
f 1291 1115 1114
f 1291 1114 1289
f 1289 1114 1088
f 1289 1088 1286
f 1286 1088 1087
f 1286 1087 1285
f 1285 1087 1121
f 1285 1121 1119
f 1093 1091 1296
f 1296 1091 1291
f 1296 1291 1294
f 1294 1291 1290
f 1294 1290 1292
f 1292 1290 1257
f 1292 1257 967
f 967 1257 968
f 1249 1108 1296
f 1296 1108 1110
f 1296 1110 1093
f 1104 1106 1315
f 1315 1106 1249
f 1315 1249 1316
f 1316 1249 1295
f 1316 1295 1317
f 1317 1295 1293
f 1317 1293 965
f 965 1293 966
f 965 963 1317
f 1317 963 1256
f 1317 1256 1316
f 1316 1256 1298
f 1316 1298 1315
f 1315 1298 1300
f 1315 1300 1104
f 1104 1300 1102
f 1248 1098 1300
f 1300 1098 1100
f 1300 1100 1102
f 1094 1096 1318
f 1318 1096 1248
f 1318 1248 1319
f 1319 1248 1299
f 1319 1299 1255
f 1255 1299 1297
f 1255 1297 955
f 955 1297 961
f 952 350 1255
f 1255 350 351
f 1255 351 1319
f 1319 351 352
f 1319 352 1318
f 1318 352 353
f 1318 353 1094
f 1094 353 354
f 232 231 724
f 232 724 860
f 724 731 860
f 860 731 730
f 860 730 861
f 730 729 861
f 861 729 728
f 861 728 862
f 862 728 726
f 862 726 863
f 863 726 734
f 863 734 864
f 864 734 733
f 864 733 868
f 733 735 868
f 868 735 743
f 868 743 869
f 869 743 742
f 869 742 870
f 870 742 737
f 870 737 871
f 737 736 1012
f 737 1012 871
f 871 1012 1011
f 871 1011 872
f 872 1011 1010
f 872 1010 1009
f 1009 1008 872
f 872 1008 1007
f 872 1007 873
f 873 1007 1006
f 873 1006 867
f 867 1006 1005
f 1005 1004 867
f 867 1004 1003
f 867 1003 879
f 879 1003 215
f 879 215 214
f 202 201 774
f 202 774 835
f 774 769 835
f 835 769 768
f 835 768 847
f 768 771 847
f 847 771 767
f 847 767 844
f 844 767 766
f 844 766 845
f 845 766 765
f 845 765 841
f 841 765 764
f 841 764 842
f 764 763 842
f 842 763 762
f 842 762 846
f 846 762 761
f 846 761 840
f 840 761 760
f 840 760 839
f 760 798 1016
f 760 1016 839
f 839 1016 1015
f 839 1015 838
f 838 1015 1014
f 838 1014 1013
f 1013 1018 838
f 838 1018 1017
f 838 1017 836
f 836 1017 1019
f 836 1019 837
f 837 1019 1020
f 1020 1021 837
f 837 1021 1022
f 837 1022 848
f 848 1022 175
f 848 175 174
f 815 816 947
f 165 164 930
f 165 930 802
f 927 807 926
f 926 807 802
f 926 802 929
f 929 802 930
f 927 928 807
f 807 928 939
f 807 939 825
f 825 939 940
f 825 940 832
f 940 938 832
f 832 938 937
f 832 937 826
f 826 937 934
f 826 934 827
f 934 932 827
f 827 932 950
f 827 950 831
f 831 950 949
f 831 949 816
f 816 949 948
f 816 948 947
f 947 946 1032
f 947 1032 815
f 815 1032 1031
f 815 1031 814
f 814 1031 1030
f 814 1030 1029
f 1029 1028 814
f 814 1028 1027
f 814 1027 808
f 808 1027 1026
f 808 1026 809
f 809 1026 1025
f 1025 1024 809
f 809 1024 1023
f 809 1023 817
f 817 1023 141
f 817 141 140
f 122 121 895
f 122 895 805
f 895 894 805
f 805 894 906
f 805 906 803
f 906 905 803
f 803 905 904
f 803 904 828
f 828 904 897
f 828 897 829
f 829 897 896
f 829 896 830
f 830 896 899
f 830 899 818
f 899 898 818
f 818 898 903
f 818 903 819
f 819 903 902
f 819 902 821
f 821 902 901
f 821 901 822
f 901 921 1036
f 901 1036 822
f 822 1036 1035
f 822 1035 823
f 823 1035 1034
f 823 1034 1033
f 1033 1038 823
f 823 1038 1037
f 823 1037 824
f 824 1037 1039
f 824 1039 813
f 813 1039 1040
f 1040 1041 813
f 813 1041 1042
f 813 1042 833
f 833 1042 95
f 833 95 94
f 720 721 1320
f 713 712 1321
f 799 801 1322
f 804 884 1323
f 801 834 1322
f 1322 834 1324
f 1322 1324 1325
f 1325 1324 1326
f 1325 1326 1327
f 1327 1326 1328
f 1327 1328 1329
f 883 874 1330
f 1330 874 1331
f 1330 1331 1332
f 1332 1331 1333
f 1332 1333 1334
f 1334 1333 1335
f 1334 1335 1336
f 1336 1335 1337
f 1336 1337 718
f 878 877 1338
f 1338 877 1339
f 1338 1339 1340
f 1340 1339 1341
f 1340 1341 1342
f 1342 1341 1343
f 1342 1343 1344
f 1344 1343 1345
f 877 876 1339
f 1339 876 1346
f 1339 1346 1341
f 1341 1346 1347
f 1341 1347 1343
f 1343 1347 1348
f 1343 1348 1345
f 1345 1348 1349
f 876 799 1346
f 1346 799 1322
f 1346 1322 1347
f 1347 1322 1325
f 1347 1325 1348
f 1348 1325 1327
f 1348 1327 1349
f 1349 1327 1329
f 843 55 1350
f 1350 55 57
f 1350 57 1351
f 1351 57 59
f 1351 59 1352
f 1352 59 61
f 1352 61 1353
f 1353 61 63
f 46 810 48
f 48 810 1354
f 48 1354 50
f 50 1354 1355
f 50 1355 52
f 52 1355 1356
f 52 1356 54
f 54 1356 1321
f 54 1321 90
f 90 1321 712
f 722 713 1357
f 1357 713 1321
f 1357 1321 1358
f 1358 1321 1356
f 1358 1356 1359
f 1359 1356 1355
f 1359 1355 1360
f 1360 1355 1354
f 1360 1354 811
f 811 1354 810
f 811 806 1360
f 1360 806 1361
f 1360 1361 1359
f 1359 1361 1362
f 1359 1362 1358
f 1358 1362 1363
f 1358 1363 1357
f 1357 1363 1320
f 1357 1320 722
f 722 1320 721
f 719 720 1364
f 1364 720 1320
f 1364 1320 1365
f 1365 1320 1363
f 1365 1363 1366
f 1366 1363 1362
f 1366 1362 1323
f 1323 1362 1361
f 1323 1361 804
f 804 1361 806
f 884 883 1323
f 1323 883 1330
f 1323 1330 1366
f 1366 1330 1332
f 1366 1332 1365
f 1365 1332 1334
f 1365 1334 1364
f 1364 1334 1336
f 1364 1336 719
f 719 1336 718
f 983 714 1337
f 1337 714 716
f 1337 716 718
f 874 878 1331
f 1331 878 1338
f 1331 1338 1333
f 1333 1338 1340
f 1333 1340 1335
f 1335 1340 1342
f 1335 1342 1337
f 1337 1342 1344
f 1337 1344 983
f 983 1344 1345
f 983 1345 988
f 988 1345 1349
f 988 1349 990
f 1328 1367 1329
f 1329 1367 993
f 1329 993 1349
f 1349 993 992
f 1349 992 990
f 995 994 1367
f 1367 994 984
f 1367 984 993
f 834 843 1324
f 1324 843 1350
f 1324 1350 1326
f 1326 1350 1351
f 1326 1351 1328
f 1328 1351 1352
f 1328 1352 1367
f 1367 1352 1353
f 1367 1353 995
f 995 1353 63
f 995 63 64

